<?xml version="1.0" standalone="no"?>
<!DOCTYPE svg PUBLIC "-//W3C//DTD SVG 1.1//EN" "http://www.w3.org/Graphics/SVG/1.1/DTD/svg11.dtd">
<svg width="210mm" height="297mm" viewBox="-7000 500 14000 20000" version="1.1" xmlns="http://www.w3.org/2000/svg">

<polyline points="-2745,1774 -2752,1746 -2763,1705 -2787,1655 -2832,1620 -2891,1609 -2959,1637 -3008,1707 -3022,1795 -2995,1882 -2939,1948 -2851,1989 -2760,2006 -2522,1856 " style="fill: white; stroke: black; stroke-width: 30" />
<polyline points="-2518,1772 -2514,1797 -2478,1833 -2425,1847 -2370,1848 -2333,1854 -2319,1870 -2314,1881 -2311,1879 -2315,1858 -2312,1828 -2316,1811 -2323,1813 -2326,1816 -2325,1828 -2322,1833 -2308,1838 -2274,1840 -2217,1833 -2135,1806 -2070,1772 -2050,1748 -2049,1722 -2072,1704 -2133,1722 -2196,1767 -2232,1825 -2239,1879 -2224,1923 -2176,1973 -2098,2004 -2007,2011 -1958,1985 " style="fill: white; stroke: black; stroke-width: 30" />
<polyline points="-1759,1821 -1770,1811 -1794,1799 -1840,1805 -1903,1830 -1937,1873 -1939,1908 -1911,1949 -1869,1981 -1811,2010 -1759,2021 -1725,2006 " style="fill: white; stroke: black; stroke-width: 30" />
<polyline points="-1637,1930 -1633,1899 -1622,1854 -1625,1826 -1636,1818 -1658,1829 -1712,1884 -1725,1943 -1709,1985 -1668,2003 -1624,1979 -1575,1907 -1516,1793 -1476,1682 -1465,1615 -1466,1601 -1472,1606 -1485,1651 -1499,1762 -1498,1868 -1476,1950 -1437,2005 " style="fill: white; stroke: black; stroke-width: 30" />
<polyline points="-118,1952 -119,1949 -120,1947 -122,1948 -124,1947 -128,1948 -131,1970 -132,1985 -132,1985 -130,1986 -131,1970 -131,1933 -141,1873 -142,1780 -123,1675 -93,1616 -71,1601 -48,1607 -5,1642 43,1696 83,1757 108,1834 108,1909 73,2001 19,2059 -39,2072 -106,2050 -150,2004 -155,1962 -130,1943 -34,1642 " style="fill: white; stroke: black; stroke-width: 30" />
<polyline points="379,2047 350,2024 331,1980 330,1926 340,1891 354,1868 373,1860 412,1869 461,1889 511,1911 504,1644 " style="fill: white; stroke: black; stroke-width: 30" />
<polyline points="607,1901 590,1897 560,1897 517,1914 487,1960 489,2001 521,2042 568,2065 611,2068 627,2060 628,2035 622,1991 614,1938 608,1910 606,1901 611,1900 " style="fill: white; stroke: black; stroke-width: 30" />
<polyline points="991,1971 996,1945 1001,1904 1001,1865 989,1850 964,1844 912,1864 865,1915 855,1977 870,2055 901,2148 918,2249 921,2346 903,2405 882,2416 858,2389 852,2324 895,2234 983,2136 1092,2053 1177,1989 1207,1955 1195,1955 1149,1969 1097,2011 1077,2059 1089,2103 1123,2144 " style="fill: white; stroke: black; stroke-width: 30" />
<polyline points="-2671,2494 -2653,2483 -2645,2474 -2647,2475 -2672,2476 -2733,2497 -2800,2539 -2835,2594 -2824,2652 -2773,2718 -2685,2757 -2573,2752 -2475,2711 -2423,2672 -2407,2644 -2414,2640 " style="fill: white; stroke: black; stroke-width: 30" />
<polyline points="-2333,2744 -2352,2721 -2351,2663 -2331,2580 -2296,2511 -2265,2478 -2248,2481 -2220,2525 -2190,2573 -2144,2598 " style="fill: white; stroke: black; stroke-width: 30" />
<polyline points="-2091,2597 -2085,2649 -2051,2687 -2012,2700 -1970,2684 -1928,2638 -1916,2591 -1925,2547 -1936,2533 -1941,2534 -1940,2543 -1930,2587 -1918,2652 -1895,2707 -1869,2742 " style="fill: white; stroke: black; stroke-width: 30" />
<polyline points="-1593,2550 -1607,2547 -1606,2545 -1601,2539 -1598,2534 -1596,2522 -1594,2509 -1594,2504 -1594,2502 -1594,2501 -1595,2502 -1595,2500 -1594,2499 -1595,2502 -1596,2501 -1596,2502 -1596,2504 -1597,2502 -1598,2500 -1600,2504 -1603,2504 -1608,2506 -1630,2524 -1666,2571 -1676,2616 -1661,2665 -1616,2701 -1557,2724 " style="fill: white; stroke: black; stroke-width: 30" />
<polyline points="-1165,2294 -1189,2287 -1225,2299 -1278,2353 -1336,2454 -1375,2565 -1381,2637 -1365,2675 -1330,2673 -1264,2627 -1203,2570 -1165,2522 -1161,2504 -1182,2508 -1219,2522 -1272,2552 -1312,2594 -1323,2640 -1314,2681 -1293,2723 -1245,2757 -1173,2772 " style="fill: white; stroke: black; stroke-width: 30" />
<polyline points="-360,2548 -386,2552 -392,2552 -369,2561 -277,2593 -130,2625 48,2658 257,2686 455,2698 589,2705 644,2713 642,2713 607,2701 " style="fill: white; stroke: black; stroke-width: 30" />
<polyline points="718,2533 755,2573 769,2610 780,2645 802,2686 824,2716 827,2735 806,2760 756,2789 702,2808 668,2815 643,2811 636,2807 640,2789 " style="fill: white; stroke: black; stroke-width: 30" />
<polyline points="-321,2417 -279,2389 -229,2397 -216,2417 -231,2459 -281,2526 -354,2604 -387,2661 -387,2695 -361,2736 -293,2780 -178,2815 -22,2848 " style="fill: white; stroke: black; stroke-width: 30" />
<polyline points="1681,2487 1667,2478 1628,2497 1549,2576 1475,2678 1460,2740 1477,2764 1531,2768 1597,2753 1621,2749 1627,2757 1633,2793 1645,2847 1671,2891 1711,2926 1761,2952 1811,2961 1856,2932 1892,2869 1900,2793 1899,2733 1893,2697 1892,2677 1896,2659 1904,2657 1932,2658 " style="fill: white; stroke: black; stroke-width: 30" />
<polyline points="2189,2607 2198,2589 2200,2595 2217,2642 2234,2721 2229,2795 2212,2853 2185,2893 2158,2904 2133,2892 2103,2856 2088,2819 2090,2789 2104,2781 2136,2787 2190,2825 2234,2884 2268,2927 2298,2947 2319,2950 2345,2923 2385,2857 2415,2799 2444,2754 2466,2739 2489,2754 2531,2776 2583,2803 2658,2820 2727,2810 2770,2785 2771,2772 2752,2762 2677,2779 2604,2820 2583,2858 2587,2907 2622,2958 2695,2990 2781,3000 " style="fill: white; stroke: black; stroke-width: 30" />
<polyline points="3187,2917 3144,2980 3121,3019 3120,3042 3125,3062 3140,3070 " style="fill: white; stroke: black; stroke-width: 30" />
<polyline points="3016,2892 3039,2901 3128,2898 3240,2919 3399,2957 3585,3005 3765,3044 " style="fill: white; stroke: black; stroke-width: 30" />
<polyline points="-2455,3854 -2449,3827 -2437,3731 -2430,3612 -2426,3491 -2402,3404 -2357,3376 -2292,3386 -2226,3435 -2188,3504 -2195,3577 -2255,3642 -2335,3699 -2395,3728 -2404,3736 -2400,3750 -2375,3777 -2331,3801 -2276,3818 -2206,3814 -2118,3785 -2033,3740 -1986,3700 -1974,3655 -1998,3619 -2035,3611 -2079,3647 -2100,3700 -2088,3758 -2054,3804 " style="fill: white; stroke: black; stroke-width: 30" />
<polyline points="-1713,3659 -1712,3673 -1711,3717 -1718,3774 -1728,3829 -1730,3854 -1718,3852 " style="fill: white; stroke: black; stroke-width: 30" />
<polyline points="-1498,3741 -1476,3769 -1453,3794 -1428,3803 -1383,3793 -1346,3780 " style="fill: white; stroke: black; stroke-width: 30" />
<polyline points="-1203,3807 -1170,3817 -1122,3805 -1058,3771 -1000,3725 -964,3680 -960,3638 -978,3614 -1008,3605 -1036,3619 -1043,3643 -1028,3686 -986,3720 -943,3724 -867,3706 -800,3677 -778,3644 -790,3636 -845,3662 -904,3718 -924,3758 -915,3789 -863,3813 -787,3828 " style="fill: white; stroke: black; stroke-width: 30" />
<polyline points="-467,3571 -487,3576 -518,3617 -556,3686 -573,3747 -583,3810 -597,3856 -607,3872 -610,3867 -612,3840 -609,3761 -552,3637 -468,3516 " style="fill: white; stroke: black; stroke-width: 30" />
<polyline points="-293,3345 -262,3339 -264,3384 -310,3496 -378,3626 -411,3717 -420,3744 -416,3746 -413,3741 -394,3740 -347,3750 -287,3745 -190,3716 -95,3682 -68,3659 -97,3672 -163,3721 -195,3771 -190,3803 -161,3826 -93,3850 0,3866 85,3867 " style="fill: white; stroke: black; stroke-width: 30" />
<polyline points="361,3765 349,3731 307,3726 235,3756 153,3821 121,3874 140,3901 206,3907 317,3858 408,3778 477,3690 533,3602 544,3537 535,3512 525,3509 515,3535 486,3628 468,3744 474,3884 516,4016 " style="fill: white; stroke: black; stroke-width: 30" />
<polyline points="-2064,4340 -2066,4338 -2067,4342 -2069,4346 -2073,4357 -2074,4369 -2075,4380 -2073,4392 -2077,4411 -2100,4481 -2126,4593 -2144,4711 -2112,4796 -2043,4853 -1923,4877 -1777,4869 -1650,4856 -1553,4852 -1499,4853 -1483,4859 -1487,4860 -1493,4859 " style="fill: white; stroke: black; stroke-width: 30" />
<polyline points="-2292,4240 -2288,4246 -2237,4265 -2101,4281 " style="fill: white; stroke: black; stroke-width: 30" />
<polyline points="-2774,6916 -2744,6980 -2715,6996 -2678,6979 -2643,6928 -2613,6899 -2597,6912 -2560,6969 -2518,7021 -2463,7056 -2400,7070 -2346,7052 -2321,7009 -2305,6930 -2307,6852 -2323,6789 -2336,6758 -2346,6752 -2346,6753 -2342,6754 -2339,6753 " style="fill: white; stroke: black; stroke-width: 30" />
<polyline points="-2046,6823 -2044,6762 -2018,6703 -1983,6686 -1951,6705 -1916,6761 -1900,6851 -1905,6926 -1923,6981 -1962,7011 -2004,7011 -2026,6978 -2032,6935 -2021,6901 -1998,6890 -1943,6904 -1887,6947 -1834,6978 -1778,6989 -1732,6993 -1712,6981 -1688,6927 -1662,6861 -1647,6798 -1630,6764 -1620,6755 -1607,6750 -1585,6754 " style="fill: white; stroke: black; stroke-width: 30" />
<polyline points="-884,6506 -848,6498 -817,6542 -786,6626 -783,6734 -788,6855 -807,6965 -814,7051 -809,7072 -806,7063 -792,7000 -775,6858 -777,6668 -775,6524 -773,6441 -765,6416 -736,6425 -681,6467 -636,6534 -615,6599 -638,6659 -702,6716 -758,6750 -762,6758 -739,6771 -664,6805 -578,6840 -546,6892 -584,6948 -658,6995 -729,7011 -780,6990 -809,6944 -790,6894 -722,6630 " style="fill: white; stroke: black; stroke-width: 30" />
<polyline points="-374,6745 -359,6738 -336,6719 -284,6694 -218,6689 -166,6717 -140,6776 -154,6852 -196,6909 -238,6934 -295,6935 -356,6897 -411,6817 -429,6758 -400,6716 -311,6662 -179,6617 -52,6570 74,6510 173,6459 191,6445 180,6454 149,6543 92,6689 49,6818 34,6899 26,6914 25,6900 24,6847 39,6798 65,6754 96,6731 145,6713 214,6711 294,6504 " style="fill: white; stroke: black; stroke-width: 30" />
<polyline points="-1881,7540 -1847,7506 -1856,7494 -1896,7489 -1963,7514 -2023,7563 -2038,7616 -2024,7669 -1981,7709 -1902,7724 -1800,7699 -1714,7643 -1654,7585 -1623,7539 -1625,7529 -1631,7542 -1647,7581 -1663,7634 -1658,7687 -1625,7740 -1583,7764 -1517,7770 -1433,7736 -1383,7687 -1361,7651 -1370,7637 -1381,7630 -1387,7632 -1387,7632 -1393,7623 -1399,7587 -1396,7560 -1386,7541 " style="fill: white; stroke: black; stroke-width: 30" />
<polyline points="-416,7297 -421,7320 -424,7366 -435,7444 -467,7575 -505,7703 -515,7802 " style="fill: white; stroke: black; stroke-width: 30" />
<polyline points="-271,7514 -390,7615 -456,7687 -454,7718 -417,7744 -327,7748 -210,7717 -79,7653 53,7573 169,7517 224,7493 221,7491 213,7501 191,7547 176,7603 154,7658 154,7737 155,7788 159,7815 " style="fill: white; stroke: black; stroke-width: 30" />
<polyline points="193,7296 190,7287 218,7290 288,7297 " style="fill: white; stroke: black; stroke-width: 30" />
<polyline points="-1461,8505 -1456,8487 -1458,8468 -1462,8438 -1483,8425 -1516,8424 -1571,8452 -1627,8507 -1659,8560 -1663,8614 -1638,8686 -1593,8755 -1525,8795 -1459,8816 -1364,8806 -1274,8766 -1187,8696 " style="fill: white; stroke: black; stroke-width: 30" />
<polyline points="-1015,8377 -1026,8386 -1030,8451 -1051,8545 -1072,8651 -1082,8735 -1073,8788 -837,8567 -876,8714 -892,8806 -894,8842 -887,8840 -888,8787 -911,8697 -931,8629 -944,8608 -942,8607 -946,8613 -924,8626 -884,8641 " style="fill: white; stroke: black; stroke-width: 30" />
<polyline points="876,8750 931,8780 1011,8769 1141,8698 1262,8606 1314,8554 1318,8541 1307,8544 1284,8582 1238,8662 1223,8747 1231,8810 " style="fill: white; stroke: black; stroke-width: 30" />
<polyline points="1589,8697 1615,8785 1631,8852 1630,8884 1623,8888 1612,8882 1587,8845 1551,8810 1513,8786 1470,8574 " style="fill: white; stroke: black; stroke-width: 30" />
<polyline points="-2559,9994 -2549,9988 -2558,9983 -2567,9977 -2599,9980 -2629,10007 -2663,10065 -2684,10138 -2653,10218 -2598,10269 -2539,10287 -2456,10284 -2398,10271 -2342,10253 -2306,10223 -2284,10188 -2273,10139 -2266,10079 -2266,10033 -2275,10001 -2279,9979 -2258,9949 -2202,9927 -2124,9918 -2063,9922 " style="fill: white; stroke: black; stroke-width: 30" />
<polyline points="-1754,10012 -1780,10025 -1804,10067 -1802,10129 -1792,10174 -1755,10201 -1677,10203 -1563,10167 -1496,10117 " style="fill: white; stroke: black; stroke-width: 30" />
<polyline points="-1479,10025 -1502,10022 -1523,10033 -1527,10042 -1525,10044 -1510,10036 -1475,10011 -1477,9986 -1480,9964 -1495,9961 -1517,9979 -1552,10030 -1554,10082 -1534,10134 -1497,10177 -1457,10204 -1396,10218 -1348,10203 -1284,10165 " style="fill: white; stroke: black; stroke-width: 30" />
<polyline points="-1205,10058 -1212,10051 -1214,10050 -1225,10045 -1230,10043 -1253,10037 -1265,10038 -1290,10053 -1317,10084 -1353,10131 -1349,10178 -1329,10194 -1309,10189 -1260,10145 -1182,10045 -1106,9930 -1065,9851 -1056,9817 -1069,9816 -1083,9866 -1092,9966 -1088,10090 -1053,10185 " style="fill: white; stroke: black; stroke-width: 30" />
<polyline points="495,9822 491,9835 485,9897 468,10020 452,10172 440,10301 425,10372 420,10383 416,10342 399,10202 426,10016 505,9885 579,9822 644,9817 661,9855 645,9929 591,10001 512,10064 444,10088 414,10082 394,10059 408,10038 " style="fill: white; stroke: black; stroke-width: 30" />
<polyline points="860,10331 826,10360 783,10367 732,10341 690,10302 676,10285 685,10277 714,10270 788,10268 863,10278 926,10278 980,10269 " style="fill: white; stroke: black; stroke-width: 30" />
<polyline points="761,9856 769,9864 818,9883 892,9912 " style="fill: white; stroke: black; stroke-width: 30" />
<polyline points="1429,10179 1403,10155 1364,10146 1295,10179 1231,10254 1214,10309 1236,10329 1273,10323 1364,10268 1466,10183 1541,10100 1590,10035 1598,9983 1601,9958 1595,9955 1591,9966 1557,10011 1542,10067 1547,10129 1554,10187 1589,10236 1927,10167 1912,10170 1877,10191 1825,10230 1793,10276 1808,10318 1852,10359 1922,10372 2003,10352 2059,10302 2073,10227 2064,10181 2061,10154 2065,10145 2059,10147 2070,10157 " style="fill: white; stroke: black; stroke-width: 30" />
<polyline points="-2425,10934 -2419,10944 -2412,10975 -2396,11043 -2391,11135 -2379,11209 -2374,11249 " style="fill: white; stroke: black; stroke-width: 30" />
<polyline points="-2515,10707 -2506,10696 -2449,10683 -2387,10687 -2345,10713 -2336,10754 -2344,10782 -2380,10784 -2384,10773 -2384,10754 -2375,10731 -2345,10705 " style="fill: white; stroke: black; stroke-width: 30" />
<polyline points="-1984,11056 -2021,11055 -2027,11052 -2015,11049 -2008,11045 -1992,11031 -1978,11013 -1974,11004 -1966,10990 -1948,10963 -1938,10932 -1933,10916 -1947,10909 -1975,10922 -1994,10956 -2028,11014 -2032,11079 -2021,11130 -1985,11151 -1925,11147 -1845,11086 -1748,10967 -1662,10837 -1609,10725 -1598,10679 -1609,10693 -1657,10791 -1711,10952 -1726,11088 -1728,11131 -1707,11134 -1638,11137 -1591,11143 -1574,11145 " style="fill: white; stroke: black; stroke-width: 30" />
<polyline points="-448,11032 -437,11057 -439,11128 -440,11202 -438,11248 -438,11261 -440,11249 -397,11183 -352,11101 -301,11056 -274,11060 -254,11106 -255,11177 -257,11239 -268,11269 -266,11282 -249,11295 -202,11289 -157,11251 " style="fill: white; stroke: black; stroke-width: 30" />
<polyline points="6,11035 -17,11073 -44,11125 -48,11164 -40,11185 -13,11187 54,11170 96,11167 116,11176 120,11205 131,11227 137,11233 146,11234 167,11226 190,11223 243,11224 286,11228 320,11234 354,11227 343,11214 346,11179 361,11132 364,11094 392,11062 423,11039 466,11027 " style="fill: white; stroke: black; stroke-width: 30" />
<polyline points="1077,11138 1081,11121 1096,11101 1088,11098 1092,11095 1087,11096 1067,11125 1052,11175 1064,11208 1084,11238 1138,11246 1224,11222 1310,11175 1337,11139 1335,11134 1335,11138 1313,11171 1312,11216 " style="fill: white; stroke: black; stroke-width: 30" />
<polyline points="1762,11189 1729,11202 1711,11208 1691,11209 1692,11200 1732,11149 1764,11101 1779,11086 1782,11093 1789,11135 1804,11186 1810,11214 1877,11217 1945,11193 2037,11115 2127,10992 2188,10894 2212,10839 2207,10826 2184,10836 2118,10910 2050,11017 2025,11092 2006,11123 2002,11125 1999,11122 1996,11115 2038,11103 2075,11101 2122,11110 2173,11132 2230,11162 2270,11195 2295,11220 2317,11225 2301,11224 2310,11212 2311,11199 2322,11176 2337,11151 2373,11119 2421,11090 2500,11064 2562,11056 2642,11053 2692,11073 " style="fill: white; stroke: black; stroke-width: 30" />
<polyline points="-2159,11892 -2162,11934 -2154,11941 -2155,11934 -2156,11887 -2136,11791 -2120,11660 -2091,11574 -2088,11556 -2091,11573 -2087,11644 -2065,11726 -2036,11815 -1976,11902 -1905,11954 -1825,11969 -1782,11931 -1742,11861 -1723,11793 -1731,11721 -1745,11633 -1770,11571 -1782,11543 -1784,11546 -1745,11387 " style="fill: white; stroke: black; stroke-width: 30" />
<polyline points="-1476,11973 -1503,11990 -1526,11989 -1526,11987 -1535,11972 -1521,11932 -1499,11899 -1469,11880 -1427,11890 -1399,11912 -1356,11935 -1305,11952 -1250,11970 -1187,11980 -1172,11965 -1170,11921 -1162,11864 -1157,11811 -1162,11775 -1156,11755 -1146,11748 " style="fill: white; stroke: black; stroke-width: 30" />
<polyline points="-736,11457 -775,11489 -810,11572 -831,11697 -847,11830 -840,11924 -828,11978 " style="fill: white; stroke: black; stroke-width: 30" />
<polyline points="-722,11980 -627,11955 -556,11918 -484,11880 -416,11842 -377,11828 -384,11825 -429,11830 -480,11842 -535,11865 -558,11879 -569,11879 -554,11884 -521,11893 -476,11905 -430,11925 -376,11935 -313,11924 -285,11901 -282,11867 -314,11815 -340,11787 -384,11779 -418,11784 " style="fill: white; stroke: black; stroke-width: 30" />
<polyline points="-20,11686 -38,11836 -31,11930 -9,11981 27,11995 110,11970 197,11925 266,11871 309,11819 304,11781 268,11768 219,11779 185,11826 152,11886 175,11941 214,11982 287,12013 376,12012 " style="fill: white; stroke: black; stroke-width: 30" />
<polyline points="572,12146 558,12187 567,12177 570,12091 609,11920 645,11785 691,11696 720,11668 719,11676 711,11739 692,11819 660,11894 626,11933 608,11939 578,11925 561,11905 566,11872 604,11821 " style="fill: white; stroke: black; stroke-width: 30" />
<polyline points="1057,11861 1087,11923 1098,11965 1081,11984 1071,11974 1011,11938 1024,11896 1061,11827 1155,11752 1264,11699 1364,11686 1415,11720 1416,11809 1409,11898 1402,11957 1403,11972 1406,11954 1426,11867 1428,11733 1442,11592 1431,11532 1436,11522 1431,11521 1434,11543 1440,11609 1487,11677 1554,11724 1625,11750 1684,11747 1699,11739 1705,11731 1684,11731 1660,11737 1626,11775 1604,11827 1611,11881 1642,11924 1679,11958 1752,11981 1826,11781 " style="fill: white; stroke: black; stroke-width: 30" />
<polyline points="-2177,12572 -2181,12570 -2185,12566 -2194,12557 -2188,12523 -2166,12450 -2116,12391 -2070,12376 -2015,12396 -1980,12435 -1958,12498 -1950,12553 -1957,12582 -1942,12587 -1918,12572 -1860,12523 -1777,12488 -1723,12481 -1694,12501 -1675,12537 -1669,12584 -1664,12624 -1667,12645 -1650,12646 -1638,12626 -1623,12553 -1618,12434 -1641,12319 -1632,12284 -1640,12277 -1643,12281 -1643,12296 -1636,12333 -1598,12391 " style="fill: white; stroke: black; stroke-width: 30" />
<polyline points="-1486,12515 -1462,12534 -1440,12534 -1407,12514 -1372,12487 -1372,12457 -1381,12431 -1413,12421 -1445,12434 -1459,12467 -1464,12515 -1441,12568 -1409,12620 " style="fill: white; stroke: black; stroke-width: 30" />
<polyline points="-328,12421 -344,12514 -342,12601 -365,12663 -514,12384 -518,12382 -488,12372 -405,12353 -326,12337 -232,12326 -156,12325 -102,12338 " style="fill: white; stroke: black; stroke-width: 30" />
<polyline points="-396,12516 -392,12523 -354,12527 -279,12536 -204,12563 -150,12602 -110,12641 -91,12670 -84,12680 -62,12676 -55,12644 -40,12581 -31,12510 -5,12463 28,12439 49,12443 91,12461 138,12487 188,12509 257,12518 311,12511 320,12489 300,12470 270,12466 233,12495 217,12542 218,12583 249,12608 271,12626 309,12637 345,12647 371,12650 390,12641 392,12630 397,12622 401,12609 419,12583 " style="fill: white; stroke: black; stroke-width: 30" />
<polyline points="401,12250 396,12234 389,12226 380,12221 375,12218 373,12212 379,12204 375,12203 386,12204 407,12205 " style="fill: white; stroke: black; stroke-width: 30" />
<polyline points="829,12307 837,12319 815,12347 788,12401 756,12484 758,12562 768,12614 796,12631 849,12604 910,12549 922,12521 917,12515 910,12526 908,12562 925,12598 963,12622 994,12654 1048,12669 1088,12652 1135,12591 1152,12506 1149,12454 1154,12433 1147,12433 1153,12438 1170,12449 1209,12460 1284,12471 1320,12496 1336,12536 1368,12583 1351,12629 1353,12651 1361,12651 1353,12653 1371,12633 1377,12583 " style="fill: white; stroke: black; stroke-width: 30" />
<polyline points="1491,12205 1483,12171 1475,12169 1454,12190 1433,12246 1416,12307 1430,12365 1482,12407 1547,12405 1627,12359 1698,12303 1734,12271 1732,12271 1712,12334 1669,12447 1643,12556 1648,12634 1644,12682 1678,12695 1750,12666 1827,12588 1915,12472 2010,12382 2035,12345 2021,12347 2021,12391 1993,12476 1979,12574 1995,12656 2008,12709 2059,12722 2151,12701 2244,12664 2295,12642 2313,12642 2293,12671 2280,12713 2272,12739 2280,12742 2309,12719 2334,12651 " style="fill: white; stroke: black; stroke-width: 30" />
<polyline points="2442,12393 2452,12331 2449,12316 2442,12313 " style="fill: white; stroke: black; stroke-width: 30" />
<polyline points="2634,12443 2597,12482 2608,12536 2678,12618 2755,12708 2844,12786 2875,12845 2875,12879 2860,12882 2846,12879 2833,12876 2823,12877 2825,12874 2827,12873 2843,12873 2859,12878 2885,12891 2905,12908 2910,12921 2876,12941 2865,12939 2825,12936 2754,12921 2698,12875 2628,12809 2575,12765 2578,12739 2571,12743 " style="fill: white; stroke: black; stroke-width: 30" />
<polyline points="5151,11795 " style="fill: white; stroke: black; stroke-width: 30" />

</svg>