<?xml version="1.0" standalone="no"?>
<!DOCTYPE svg PUBLIC "-//W3C//DTD SVG 1.1//EN" "http://www.w3.org/Graphics/SVG/1.1/DTD/svg11.dtd">
<svg width="210mm" height="297mm" viewBox="-7000 500 14000 20000" version="1.1" xmlns="http://www.w3.org/2000/svg">

<polyline points="-1486,1800 -1495,1801 -1507,1800 -1543,1812 -1597,1842 -1640,1893 -1646,1920 -1632,1954 -1595,1977 -1543,1996 -1487,2008 -1439,2009 " style="fill: white; stroke: black; stroke-width: 30" />
<polyline points="-1273,1909 -1282,1895 -1288,1880 -1300,1872 -1317,1879 -1346,1901 -1369,1923 -1381,1944 -1381,1973 -1369,1995 -1335,2017 -1276,2021 -1208,1997 -1155,1964 -1149,1946 -1159,1935 -1191,1915 -1223,1901 -1242,1895 -1248,1896 -1247,1897 -1246,1899 -1245,1899 -1243,1904 " style="fill: white; stroke: black; stroke-width: 30" />
<polyline points="-1030,1935 -1036,1941 -1033,1938 -1010,1932 -960,1913 -910,1892 -884,1872 -878,1858 -906,1839 -968,1837 -1043,1867 -1089,1910 -1088,1943 -1046,1968 -975,1974 -902,1975 -854,1967 " style="fill: white; stroke: black; stroke-width: 30" />
<polyline points="-811,1953 -818,1949 -801,1935 -759,1906 -717,1881 -690,1861 -679,1849 -679,1848 -676,1842 -676,1840 -676,1839 -677,1840 -677,1840 -677,1841 -674,1839 " style="fill: white; stroke: black; stroke-width: 30" />
<polyline points="-748,1800 -768,1802 -776,1808 -783,1827 -773,1861 -749,1902 -714,1931 -661,1948 -598,1946 -542,1926 -503,1880 -479,1840 -482,1831 -488,1832 -495,1832 -494,1835 -493,1845 -492,1874 -486,1910 -482,1958 -472,1983 -451,1994 " style="fill: white; stroke: black; stroke-width: 30" />
<polyline points="-502,1720 -531,1686 -522,1659 -474,1657 -409,1686 -385,1720 -407,1748 -459,1762 -509,1753 -534,1719 -533,1678 " style="fill: white; stroke: black; stroke-width: 30" />
<polyline points="-227,1801 -239,1802 -269,1802 -306,1802 -349,1805 -380,1814 -407,1828 -413,1839 -394,1858 -331,1888 -271,1908 -246,1933 -252,1953 -277,1971 -312,1978 -341,1962 -362,1942 -367,1933 -363,1932 -338,1917 -271,1874 " style="fill: white; stroke: black; stroke-width: 30" />
<polyline points="-112,1730 -101,1685 -122,1669 -143,1676 -163,1716 -175,1803 -168,1873 -165,1917 -167,1941 -164,1947 -160,1941 -159,1899 -163,1852 -168,1841 -170,1839 -172,1844 -169,1847 -154,1861 -106,1874 -35,1880 27,1867 61,1846 51,1823 0,1811 -66,1827 -90,1860 -74,1895 -20,1928 43,1945 94,1945 132,1919 164,1877 172,1847 175,1835 185,1831 210,1836 244,1853 256,1880 254,1916 245,1944 250,1955 " style="fill: white; stroke: black; stroke-width: 30" />
<polyline points="524,1830 520,1819 495,1798 440,1795 377,1819 358,1861 377,1895 435,1921 514,1913 575,1887 597,1865 596,1867 595,1876 604,1886 622,1884 636,1881 645,1868 664,1842 668,1818 661,1798 637,1789 596,1800 567,1823 555,1850 566,1878 600,1915 646,1940 683,1954 " style="fill: white; stroke: black; stroke-width: 30" />
<polyline points="-1540,3466 -1608,3366 -1617,3226 -1555,3070 -1429,2910 -1263,2761 -1085,2651 -897,2596 -690,2591 -467,2630 -240,2709 -61,2839 57,3005 114,3207 129,3425 99,3656 17,3879 -117,4072 -312,4225 -539,4337 -783,4394 -1018,4391 -1241,4332 -1432,4215 -1553,4042 -1631,3828 -1674,3604 -1665,3397 -1559,3184 -1345,2974 -1071,2797 " style="fill: white; stroke: black; stroke-width: 30" />
<polyline points="-502,4362 -634,4250 -739,4120 -785,3958 -751,3772 -651,3579 -512,3394 -353,3239 -168,3111 69,3004 341,2929 598,2921 807,2979 969,3095 1110,3257 1237,3449 1333,3662 1376,3902 1345,4148 1265,4382 1145,4579 991,4743 801,4867 571,4938 322,4959 66,4931 -162,4855 -358,4731 -492,4549 -565,4328 -567,4074 -510,3795 -439,3540 " style="fill: white; stroke: black; stroke-width: 30" />
<polyline points="-980,4977 -1043,4849 -1101,4723 -1124,4584 -1079,4412 -951,4221 -779,4042 -606,3917 -419,3834 -197,3772 53,3749 286,3796 477,3902 629,4062 746,4252 830,4474 865,4722 841,4981 757,5235 631,5464 473,5649 270,5782 48,5857 -173,5872 -394,5816 -596,5694 -775,5515 -900,5289 -945,5021 -910,4718 -801,4402 -638,4100 " style="fill: white; stroke: black; stroke-width: 30" />
<polyline points="-1862,4823 -1928,4712 -1964,4552 -1911,4360 -1784,4145 -1604,3932 -1393,3750 -1150,3617 -881,3525 -604,3488 -333,3514 -103,3605 44,3757 105,3971 105,4219 67,4478 -4,4723 -131,4952 -337,5156 -614,5316 -935,5426 -1242,5471 -1526,5429 -1787,5315 -1993,5157 -2135,4960 -2187,4703 -2152,4411 -2039,4094 -1845,3783 -1574,3517 " style="fill: white; stroke: black; stroke-width: 30" />
<polyline points="734,3299 714,3300 695,3293 677,3285 632,3278 552,3312 469,3374 458,3436 518,3505 616,3545 709,3554 787,3546 " style="fill: white; stroke: black; stroke-width: 30" />
<polyline points="-932,2966 -942,2966 -955,2969 -970,2984 -965,3037 -948,3136 -936,3219 -918,3246 " style="fill: white; stroke: black; stroke-width: 30" />
<polyline points="-1094,3072 -1120,3075 -1102,3064 -1043,3040 -957,3021 -868,3018 -789,3011 " style="fill: white; stroke: black; stroke-width: 30" />
<polyline points="-1657,4964 -1608,4898 -1536,4808 -1473,4727 -1445,4683 -1448,4684 -1459,4698 -1480,4729 -1481,4743 -1465,4763 -1414,4808 -1356,4858 -1304,4895 -1270,4923 -1269,4928 -1281,4937 -1335,4954 -1436,4972 -1529,4977 -1616,4980 -1682,4975 -1691,4973 -1689,4965 -1680,4962 -1653,4966 " style="fill: white; stroke: black; stroke-width: 30" />
<polyline points="-1750,4817 -1748,4819 -1729,4817 -1699,4817 -1646,4812 -1570,4799 -1479,4773 -1386,4754 -1300,4748 -1254,4746 -1248,4744 -1259,4740 -1277,4733 -1295,4734 -1299,4734 -1298,4734 -1299,4733 -1308,4747 -1361,4830 -1442,4939 -1499,5016 -1531,5074 -1533,5105 -1524,5129 -1509,5140 -1510,5140 -1513,5130 -1525,5108 -1551,5048 -1591,4964 -1623,4896 -1647,4849 -1657,4843 -1660,4846 -1658,4848 -1654,4851 -1644,4854 " style="fill: white; stroke: black; stroke-width: 30" />
<polyline points="109,5217 95,5232 82,5286 68,5383 71,5459 101,5492 134,5495 " style="fill: white; stroke: black; stroke-width: 30" />
<polyline points="-101,5308 -107,5302 -66,5278 14,5259 88,5260 " style="fill: white; stroke: black; stroke-width: 30" />
<polyline points="38,5527 42,5529 78,5521 129,5506 186,5497 " style="fill: white; stroke: black; stroke-width: 30" />
<polyline points="-44,5547 -48,5549 -61,5546 -69,5537 -79,5498 -83,5451 -87,5420 -90,5407 -91,5408 -87,5416 -89,5419 -84,5424 " style="fill: white; stroke: black; stroke-width: 30" />
<polyline points="-44,5445 -52,5447 -52,5440 -57,5437 -57,5433 -53,5434 -34,5435 32,5430 129,5410 238,5383 " style="fill: white; stroke: black; stroke-width: 30" />
<polyline points="265,5355 247,5335 234,5311 229,5285 240,5251 256,5222 262,5216 " style="fill: white; stroke: black; stroke-width: 30" />
<polyline points="578,5233 578,5231 549,5266 478,5389 376,5531 329,5628 " style="fill: white; stroke: black; stroke-width: 30" />
<polyline points="-50,5703 -62,5709 -87,5741 -105,5799 -111,5832 -103,5839 -81,5817 -46,5761 -15,5720 -2,5719 5,5740 14,5768 31,5773 70,5753 99,5725 115,5733 119,5757 135,5769 169,5744 215,5709 " style="fill: white; stroke: black; stroke-width: 30" />
<polyline points="269,5720 267,5737 259,5731 252,5726 246,5722 243,5725 240,5726 238,5730 241,5731 239,5732 239,5733 241,5738 239,5742 " style="fill: white; stroke: black; stroke-width: 30" />
<polyline points="299,5600 311,5595 314,5596 314,5598 299,5595 287,5597 281,5595 275,5596 273,5597 266,5631 258,5669 " style="fill: white; stroke: black; stroke-width: 30" />
<polyline points="363,5636 357,5644 346,5651 330,5667 314,5697 305,5739 321,5776 " style="fill: white; stroke: black; stroke-width: 30" />
<polyline points="-281,4038 -289,4039 -300,4043 -318,4096 -372,4249 -475,4510 -625,4851 -809,5257 -1014,5690 -1188,6074 -1295,6345 -1340,6499 -1342,6525 " style="fill: white; stroke: black; stroke-width: 30" />
<polyline points="-369,4095 -371,4095 -367,4086 -334,4061 -275,4008 -227,3953 -196,3903 -194,3898 -204,3906 -219,3924 -225,3933 -223,3939 -215,3949 -212,3957 -211,3957 -212,3958 -210,3956 -209,3959 -212,4011 -220,4087 -234,4135 -262,4160 -287,4161 -307,4136 -330,4069 -335,4023 -319,3985 -289,3961 -232,3948 -190,3968 -186,4039 " style="fill: white; stroke: black; stroke-width: 30" />
<polyline points="-1767,7003 -1752,6962 -1768,6931 -1810,6915 -1870,6930 -1928,6969 -1942,7002 -1929,7005 -1874,6997 -1821,6973 -1805,6973 -1806,6979 -1807,6993 -1799,7035 -1780,7082 -1757,7177 -1752,7278 -1771,7348 -1790,7364 -1828,7338 -1891,7240 -1914,7119 " style="fill: white; stroke: black; stroke-width: 30" />
<polyline points="-1638,6820 -1671,6851 -1693,6894 -1707,6933 -1685,7003 -1669,7039 -1639,7053 -1587,7043 -1527,7002 -1509,6989 -1513,6994 -1520,7009 -1523,7022 -1524,7027 -1516,7037 -1511,7040 -1493,7036 -1465,7027 -1446,7024 -1428,7011 " style="fill: white; stroke: black; stroke-width: 30" />
<polyline points="-1468,6868 -1472,6874 -1461,6875 -1440,6882 -1384,6899 -1306,6908 " style="fill: white; stroke: black; stroke-width: 30" />
<polyline points="-1407,6978 -1410,6983 -1418,7005 -1427,7050 -1408,7071 " style="fill: white; stroke: black; stroke-width: 30" />
<polyline points="-1136,6912 -1166,6920 -1210,6948 -1257,6994 -1268,7024 -1245,7045 -1182,7058 -1098,7035 -1023,6984 " style="fill: white; stroke: black; stroke-width: 30" />
<polyline points="-907,6791 -923,6797 -955,6827 -1001,6895 -1043,6974 -1039,7015 -1007,7022 -939,6997 -873,6971 -822,6951 -820,6946 -845,6945 -889,6953 -936,6972 -981,7002 -1014,7030 -1018,7048 -977,7065 -906,7065 -833,7042 -773,6998 " style="fill: white; stroke: black; stroke-width: 30" />
<polyline points="-632,6777 -664,6793 -721,6840 -772,6913 -785,6963 -775,6991 -737,6994 -675,6976 -609,6966 -576,6979 -580,6997 -589,7023 -586,7027 -576,7010 " style="fill: white; stroke: black; stroke-width: 30" />
<polyline points="-502,6789 -530,6791 -539,6789 -542,6781 -534,6746 " style="fill: white; stroke: black; stroke-width: 30" />
<polyline points="-238,6986 -234,6986 -251,6978 -295,6976 -353,7002 -395,7047 -396,7083 -345,7105 -239,7062 -97,6957 5,6839 16,6794 -18,6795 -89,6856 -149,6944 -159,6999 -123,7013 -29,6989 65,6982 115,7010 106,7042 111,7040 141,7002 184,6948 192,6928 156,6952 112,6991 112,7005 150,7006 231,6986 321,6962 366,6950 377,6936 411,6896 451,6861 490,6853 " style="fill: white; stroke: black; stroke-width: 30" />
<polyline points="1625,6865 1605,6847 1565,6824 1485,6816 1386,6835 1302,6881 1269,6912 1278,6919 1324,6940 1417,6988 1492,7050 1501,7108 1471,7147 1428,7154 1384,7119 1333,7060 1304,7024 1301,7026 " style="fill: white; stroke: black; stroke-width: 30" />
<polyline points="1710,6891 1608,6918 1535,6982 1544,7029 1625,7052 1753,7021 1872,6953 1931,6893 1923,6870 1877,6867 1830,6879 1804,6902 1831,6939 1894,6979 1973,7015 2019,7064 2035,7082 " style="fill: white; stroke: black; stroke-width: 30" />
<polyline points="2239,6758 2216,6776 2168,6831 2130,6898 2132,6936 2187,6958 2271,6948 2355,6924 2382,6912 2373,6914 2358,6921 2341,6940 2341,6948 2354,6969 2366,6981 2372,6986 2375,6985 2386,6987 2433,6976 2460,6982 2467,6984 " style="fill: white; stroke: black; stroke-width: 30" />
<polyline points="2599,6945 2594,6949 2582,6965 2574,6993 2574,7013 2585,7019 2599,7018 2639,6998 2662,6987 2667,6986 2676,6990 2713,7000 2751,6999 2769,7003 2763,7012 2760,7023 2769,7034 2824,7026 " style="fill: white; stroke: black; stroke-width: 30" />
<polyline points="2895,7020 2858,7066 2816,7133 2783,7193 2766,7234 2767,7248 2769,7237 2790,7184 2843,7071 2933,6948 2999,6906 3033,6905 3032,6919 3002,6958 2965,6986 2927,7007 2899,7005 2895,6995 2942,6963 3039,6932 3158,6902 3260,6878 3356,6832 3427,6769 3433,6708 3395,6674 3332,6667 3276,6727 3225,6882 3189,7032 3137,7158 3096,7225 3101,7221 3147,7171 3245,7101 3321,7066 3354,7053 3402,7033 " style="fill: white; stroke: black; stroke-width: 30" />
<polyline points="1956,4096 1950,4087 1951,4071 1951,4050 1971,3977 2015,3855 2058,3733 2079,3649 2083,3620 2081,3615 2072,3618 2069,3622 2069,3622 2065,3628 2072,3634 2075,3655 2104,3700 2180,3792 2269,3871 2359,3927 2417,3944 2443,3955 " style="fill: white; stroke: black; stroke-width: 30" />
<polyline points="1914,3859 1902,3852 1916,3842 1952,3832 2010,3823 2078,3823 2173,3813 2275,3799 " style="fill: white; stroke: black; stroke-width: 30" />
<polyline points="2468,3540 2452,3533 2444,3533 2439,3546 2448,3579 2505,3674 2602,3785 2680,3890 2727,3990 " style="fill: white; stroke: black; stroke-width: 30" />
<polyline points="3022,3666 3016,3664 3006,3672 3009,3707 3004,3792 3002,3867 3002,3899 3004,3902 3010,3879 3015,3815 3018,3752 3016,3698 3004,3647 2980,3595 2945,3560 2920,3540 2903,3536 2905,3536 2921,3538 2962,3553 3035,3562 3116,3577 3166,3599 3177,3615 3171,3644 3122,3698 3055,3738 3041,3751 3060,3775 3144,3812 3210,3849 3212,3871 3152,3908 3046,3947 2984,3957 2987,3958 3025,3954 " style="fill: white; stroke: black; stroke-width: 30" />
<polyline points="2053,4347 2037,4343 2027,4341 2028,4339 2036,4334 2064,4326 2110,4320 2176,4315 2241,4318 2284,4328 " style="fill: white; stroke: black; stroke-width: 30" />
<polyline points="2135,4335 2117,4345 2083,4417 2057,4523 2061,4576 2104,4591 2175,4581 2216,4576 2238,4578 2257,4591 2292,4590 " style="fill: white; stroke: black; stroke-width: 30" />
<polyline points="2320,4508 2307,4509 2301,4511 2320,4519 2368,4529 2429,4549 2458,4565 2449,4586 2417,4615 2375,4650 2369,4654 2378,4654 " style="fill: white; stroke: black; stroke-width: 30" />
<polyline points="2692,4447 2675,4464 2652,4508 2621,4565 2604,4600 2608,4612 2629,4617 2659,4612 " style="fill: white; stroke: black; stroke-width: 30" />
<polyline points="2465,4465 2504,4448 2566,4437 2630,4437 2698,4439 2749,4443 " style="fill: white; stroke: black; stroke-width: 30" />
<polyline points="2484,4608 2481,4603 2506,4595 2573,4588 2644,4600 2694,4613 2737,4608 2767,4596 " style="fill: white; stroke: black; stroke-width: 30" />
<polyline points="2530,4511 2547,4506 2575,4505 2614,4503 2664,4502 2717,4504 " style="fill: white; stroke: black; stroke-width: 30" />
<polyline points="2780,4515 2757,4515 2744,4528 2730,4574 2744,4608 2790,4639 2864,4624 2916,4587 2910,4573 2888,4578 2877,4594 2898,4620 2958,4636 3017,4624 3027,4608 3012,4595 2982,4579 2976,4577 2991,4568 " style="fill: white; stroke: black; stroke-width: 30" />
<polyline points="3105,4492 3101,4472 3115,4463 3160,4473 3188,4509 3193,4557 3184,4597 3165,4622 3128,4639 3055,4639 3006,4623 3006,4616 3030,4601 3092,4590 3151,4596 3183,4602 3189,4606 " style="fill: white; stroke: black; stroke-width: 30" />
<polyline points="3284,4630 3258,4600 3251,4576 3255,4569 3283,4567 3338,4581 3364,4600 3367,4623 3350,4653 3345,4667 " style="fill: white; stroke: black; stroke-width: 30" />
<polyline points="3506,4626 3493,4624 3487,4613 3482,4598 3469,4576 3431,4566 3401,4574 3395,4590 3412,4609 3455,4644 3479,4706 3472,4800 3455,4870 3436,4905 3421,4905 3402,4893 3397,4858 3406,4794 3439,4752 " style="fill: white; stroke: black; stroke-width: 30" />
<polyline points="2479,5026 2471,5026 2463,5029 2462,5032 2449,5044 2406,5090 2307,5179 2146,5307 1938,5464 1693,5648 1463,5848 1250,6040 1098,6188 1000,6291 956,6347 953,6358 959,6354 966,6352 980,6346 989,6342 990,6331 983,6281 " style="fill: white; stroke: black; stroke-width: 30" />
<polyline points="1008,6175 1002,6167 975,6172 934,6206 873,6285 821,6373 821,6407 878,6428 975,6406 1054,6364 1094,6337 1100,6338 1105,6340 " style="fill: white; stroke: black; stroke-width: 30" />
<polyline points="1565,5225 1555,5226 1551,5235 1585,5318 1687,5533 1846,5866 1942,6077 " style="fill: white; stroke: black; stroke-width: 30" />
<polyline points="-7182,8389 -7186,8373 -7195,8317 -7140,8305 " style="fill: white; stroke: black; stroke-width: 30" />

</svg>