<?xml version="1.0" standalone="no"?>
<!DOCTYPE svg PUBLIC "-//W3C//DTD SVG 1.1//EN" "http://www.w3.org/Graphics/SVG/1.1/DTD/svg11.dtd">
<svg width="210mm" height="297mm" viewBox="-7000 500 14000 20000" version="1.1" xmlns="http://www.w3.org/2000/svg">

<polyline points="-2891,1264 -2895,1266 -2898,1268 -2899,1271 -2902,1270 -2898,1275 -2902,1272 -2902,1272 -2903,1277 -2902,1297 -2907,1350 -2911,1402 -2919,1447 -2914,1502 -2903,1534 -2894,1555 -2892,1552 " style="fill: white; stroke: black; stroke-width: 30" />
<polyline points="-2799,1246 -2806,1247 -2811,1250 -2808,1283 -2799,1351 -2803,1440 -2804,1503 -2806,1551 -2806,1582 -2804,1593 " style="fill: white; stroke: black; stroke-width: 30" />
<polyline points="-2914,1447 -2929,1443 -2938,1433 -2939,1431 -2942,1424 -2939,1427 -2935,1427 -2926,1430 -2909,1427 -2875,1428 -2802,1428 -2731,1425 " style="fill: white; stroke: black; stroke-width: 30" />
<polyline points="-2724,1438 -2715,1414 -2687,1379 -2647,1369 -2612,1387 -2585,1438 -2575,1492 -2587,1536 -2608,1570 -2643,1584 -2699,1557 -2742,1528 -2750,1515 -2746,1513 -2728,1510 -2693,1514 -2652,1525 -2617,1545 -2591,1558 -2575,1575 " style="fill: white; stroke: black; stroke-width: 30" />
<polyline points="-2711,1265 -2715,1271 -2708,1271 -2682,1279 -2632,1285 -2576,1299 -2519,1327 " style="fill: white; stroke: black; stroke-width: 30" />
<polyline points="-2390,1451 -2419,1458 -2449,1461 -2483,1468 -2493,1473 -2493,1477 -2477,1503 -2447,1540 -2415,1587 -2403,1630 -2411,1660 -2440,1671 -2476,1661 -2506,1629 -2512,1608 -2507,1603 -2490,1595 -2431,1587 " style="fill: white; stroke: black; stroke-width: 30" />
<polyline points="-2174,1459 -2171,1444 -2193,1436 -2218,1443 -2233,1449 -2244,1496 -2241,1547 -2238,1598 -2246,1621 -2259,1630 -2289,1633 -2327,1618 -2349,1602 -2351,1601 -2351,1598 -2349,1598 -2336,1596 -2306,1581 " style="fill: white; stroke: black; stroke-width: 30" />
<polyline points="-2030,1314 -2036,1312 -2051,1316 -2082,1324 -2116,1357 -2150,1420 -2160,1488 -2151,1548 -2133,1575 -2107,1591 -2068,1583 -2025,1550 -1983,1493 -1963,1465 -1958,1457 -1960,1455 -1959,1454 -1964,1460 -1972,1479 -1979,1521 -1979,1549 -1979,1554 -1973,1526 " style="fill: white; stroke: black; stroke-width: 30" />
<polyline points="-1953,1329 -1973,1283 -1973,1263 -1961,1247 -1929,1246 -1897,1280 -1888,1320 -1899,1350 -1926,1357 -1961,1342 -1974,1320 -1973,1285 -1948,1247 " style="fill: white; stroke: black; stroke-width: 30" />
<polyline points="-1744,1464 -1742,1455 -1754,1448 -1773,1447 -1800,1448 -1835,1460 -1861,1480 -1882,1517 -1882,1549 -1861,1572 -1821,1566 -1760,1516 -1700,1430 -1664,1368 -1660,1352 -1666,1357 -1684,1378 -1715,1440 -1735,1491 -1729,1530 -1701,1539 -1645,1532 -1596,1518 -1571,1522 -1566,1527 -1563,1533 -1533,1534 -1479,1512 -1438,1469 -1440,1457 -1463,1457 -1506,1479 -1527,1503 -1510,1535 -1469,1551 -1422,1560 -1398,1553 " style="fill: white; stroke: black; stroke-width: 30" />
<polyline points="-1269,1414 -1324,1419 -1330,1455 -1314,1530 -1274,1601 -1262,1639 -1271,1642 -1300,1637 -1344,1610 -1359,1595 -1356,1580 " style="fill: white; stroke: black; stroke-width: 30" />
<polyline points="-599,1406 -603,1400 -599,1393 -587,1395 -575,1396 -545,1409 -503,1413 -436,1406 -379,1369 " style="fill: white; stroke: black; stroke-width: 30" />
<polyline points="-601,1440 -637,1444 -657,1456 -682,1499 -689,1543 -668,1586 -622,1608 -576,1626 -530,1633 -478,1630 -436,1595 " style="fill: white; stroke: black; stroke-width: 30" />
<polyline points="-642,1492 -650,1492 -637,1494 -592,1504 -531,1520 -460,1548 -416,1573 " style="fill: white; stroke: black; stroke-width: 30" />
<polyline points="-427,1667 -428,1662 -415,1636 -398,1605 -375,1581 -342,1566 -292,1565 -264,1588 -258,1616 -260,1648 -254,1649 -214,1606 " style="fill: white; stroke: black; stroke-width: 30" />
<polyline points="34,1299 19,1298 -13,1336 -66,1449 -120,1575 -142,1645 -148,1658 -146,1651 -131,1609 -111,1563 -93,1534 -88,1532 -72,1533 -35,1534 21,1524 101,1508 188,1473 243,1451 248,1438 239,1420 218,1391 186,1368 133,1365 76,1392 49,1444 52,1537 85,1622 119,1689 150,1717 176,1715 223,1659 278,1574 315,1497 319,1470 310,1461 296,1466 276,1485 237,1559 220,1622 224,1670 242,1692 271,1688 324,1646 372,1601 385,1579 384,1579 382,1582 377,1601 360,1648 350,1686 355,1697 " style="fill: white; stroke: black; stroke-width: 30" />
<polyline points="468,1458 449,1437 442,1423 443,1424 444,1425 445,1431 446,1433 449,1440 " style="fill: white; stroke: black; stroke-width: 30" />
<polyline points="485,1702 476,1714 476,1709 482,1692 502,1647 523,1628 555,1615 592,1623 612,1649 617,1692 612,1724 " style="fill: white; stroke: black; stroke-width: 30" />
<polyline points="1366,1337 1353,1351 1293,1434 1190,1566 1104,1672 1078,1733 1100,1751 " style="fill: white; stroke: black; stroke-width: 30" />
<polyline points="1597,1500 1590,1495 1567,1520 1513,1620 1459,1723 1443,1798 1456,1816 1480,1792 1503,1699 1507,1579 1500,1506 1495,1476 1508,1468 1571,1477 1664,1526 1719,1593 1725,1672 1682,1741 1605,1782 1520,1779 1452,1740 1422,1691 1418,1666 1434,1662 1511,1652 1629,1663 1756,1656 1860,1632 1907,1598 1901,1582 1885,1574 1870,1580 1838,1629 1826,1683 1829,1722 1852,1728 1890,1709 1916,1686 1922,1675 1922,1678 1917,1687 1912,1716 1915,1747 1939,1763 1973,1758 1987,1748 1986,1741 1989,1740 1987,1741 1989,1741 1984,1744 1980,1748 1979,1750 1982,1754 1992,1756 " style="fill: white; stroke: black; stroke-width: 30" />
<polyline points="2038,1755 2009,1757 2007,1758 2009,1762 2010,1758 2014,1746 2030,1705 2050,1675 2076,1653 2110,1644 2150,1649 2156,1671 2141,1702 2113,1742 2099,1761 2107,1759 2138,1734 2184,1705 2213,1698 2223,1704 2220,1711 2219,1728 2220,1747 2225,1758 2227,1763 2230,1765 " style="fill: white; stroke: black; stroke-width: 30" />
<polyline points="2481,1518 2471,1523 2452,1555 2396,1637 2350,1710 2332,1751 2324,1763 2327,1760 2355,1730 2411,1697 2476,1684 2515,1698 2517,1727 2488,1766 2438,1797 2397,1804 2374,1782 2361,1723 2361,1675 2373,1656 2394,1660 2439,1699 " style="fill: white; stroke: black; stroke-width: 30" />
<polyline points="2591,1773 2601,1737 2635,1700 2679,1687 2708,1708 2722,1755 2706,1795 2669,1827 2615,1832 2592,1807 2590,1768 2610,1737 2629,1724 2654,1729 2699,1747 " style="fill: white; stroke: black; stroke-width: 30" />
<polyline points="2961,1773 2959,1772 2967,1770 2996,1774 3060,1772 3152,1757 3224,1733 3240,1733 3232,1743 " style="fill: white; stroke: black; stroke-width: 30" />
<polyline points="3072,1671 3080,1663 3084,1658 3110,1660 3157,1666 3239,1666 3313,1654 3335,1657 " style="fill: white; stroke: black; stroke-width: 30" />
<polyline points="-2636,2053 -2655,2084 -2674,2126 -2691,2196 -2697,2258 -2696,2304 -2690,2322 -2691,2325 " style="fill: white; stroke: black; stroke-width: 30" />
<polyline points="-2828,2085 -2850,2074 -2855,2070 -2851,2065 -2821,2059 -2761,2056 -2663,2065 -2546,2073 -2447,2089 " style="fill: white; stroke: black; stroke-width: 30" />
<polyline points="-2571,2269 -2576,2245 -2552,2215 -2495,2181 -2441,2164 -2418,2184 -2404,2239 -2422,2316 -2458,2365 -2502,2374 -2544,2338 -2560,2295 -2554,2282 -2530,2281 -2494,2299 -2440,2350 -2379,2372 -2321,2356 -2292,2306 " style="fill: white; stroke: black; stroke-width: 30" />
<polyline points="-2176,2093 -2197,2082 -2211,2098 -2245,2174 -2280,2286 -2288,2350 -2290,2366 -2291,2356 -2282,2300 -2273,2241 -2260,2208 -2252,2206 -2228,2212 -2185,2224 -2111,2218 -2021,2187 -1966,2151 -1968,2143 -1998,2145 -2035,2189 -2064,2254 -2074,2308 -2066,2331 -2065,2332 -2064,2323 -2066,2308 -2063,2303 -2054,2306 -2024,2296 -2004,2285 -2001,2284 -2005,2285 -2002,2289 -2003,2288 -2000,2289 -2000,2287 -1998,2287 -1998,2289 -1995,2288 -1989,2293 -1977,2295 -1950,2290 -1914,2274 -1893,2254 -1893,2240 -1906,2228 -1933,2223 -1951,2237 -1960,2293 -1935,2352 -1894,2386 -1859,2402 -1846,2384 -1828,2344 -1811,2292 -1807,2280 -1800,2279 -1776,2277 -1723,2282 -1694,2300 " style="fill: white; stroke: black; stroke-width: 30" />
<polyline points="-1036,2037 -1034,2024 -1040,2027 -1062,2068 -1128,2186 -1209,2327 -1259,2432 -1256,2479 " style="fill: white; stroke: black; stroke-width: 30" />
<polyline points="-765,2142 -779,2134 -792,2133 -800,2138 -799,2141 -799,2143 -798,2140 -797,2140 -796,2139 -796,2141 -795,2139 -795,2140 -795,2139 -797,2143 -797,2144 -801,2153 -828,2220 -873,2316 -888,2383 -879,2407 -855,2378 " style="fill: white; stroke: black; stroke-width: 30" />
<polyline points="-808,2193 -808,2130 -808,2097 -783,2086 -736,2090 -692,2134 -680,2187 -708,2239 -765,2261 -824,2251 -839,2233 -829,2222 -779,2184 -733,2179 " style="fill: white; stroke: black; stroke-width: 30" />
<polyline points="-698,2296 -687,2270 -651,2253 -601,2270 -565,2308 -567,2355 -591,2393 -636,2410 -696,2391 -723,2362 -724,2329 -711,2312 -689,2302 -657,2311 -613,2331 " style="fill: white; stroke: black; stroke-width: 30" />
<polyline points="-686,2326 -687,2317 -681,2317 -665,2328 -642,2349 -627,2367 -613,2393 -592,2427 -570,2455 " style="fill: white; stroke: black; stroke-width: 30" />
<polyline points="-612,2137 -612,2141 -593,2153 -548,2181 -493,2220 -447,2254 " style="fill: white; stroke: black; stroke-width: 30" />
<polyline points="-378,2335 -386,2324 -412,2307 -452,2314 -484,2347 -492,2390 -466,2414 -417,2400 -356,2341 -309,2264 -301,2224 -305,2218 -311,2228 -327,2285 -344,2360 -333,2417 -308,2450 -263,2450 -203,2414 -163,2371 -161,2341 -176,2329 -192,2332 -207,2363 -201,2406 -182,2433 -153,2444 -124,2446 -111,2440 -111,2423 -110,2378 -126,2336 -148,2315 -156,2316 -153,2324 -139,2353 -120,2377 -109,2395 " style="fill: white; stroke: black; stroke-width: 30" />
<polyline points="730,2185 737,2166 728,2166 702,2200 628,2322 551,2449 539,2519 " style="fill: white; stroke: black; stroke-width: 30" />
<polyline points="672,2543 680,2515 753,2444 865,2351 958,2281 991,2251 986,2247 976,2257 958,2287 923,2386 909,2491 926,2564 948,2591 952,2588 933,2547 885,2489 824,2435 794,2410 800,2400 833,2387 887,2380 946,2377 991,2379 1031,2376 1037,2374 1032,2377 1025,2383 1023,2400 1028,2416 1048,2433 1082,2435 1116,2433 1122,2432 1120,2443 1116,2475 1122,2507 1148,2515 " style="fill: white; stroke: black; stroke-width: 30" />
<polyline points="1415,2413 1387,2398 1360,2391 1342,2403 1326,2446 1301,2509 1283,2540 1266,2551 1250,2538 1237,2508 1246,2487 1296,2467 1410,2443 1535,2417 1609,2390 1604,2386 1569,2389 1504,2442 1462,2500 1439,2550 1434,2554 1429,2542 1415,2514 1416,2507 1426,2508 1475,2516 1558,2508 1638,2496 1690,2466 1686,2446 1665,2431 1636,2446 1617,2496 1634,2534 1683,2549 1743,2530 1792,2491 1810,2475 1812,2474 1818,2493 1823,2523 1828,2549 1833,2553 " style="fill: white; stroke: black; stroke-width: 30" />
<polyline points="2141,2441 2126,2425 2112,2403 2093,2394 2076,2405 2045,2473 2035,2537 2025,2576 2007,2578 1971,2552 1943,2514 1947,2509 1974,2516 2081,2521 2195,2517 2261,2495 2264,2462 2224,2436 2173,2441 2150,2480 2162,2528 2210,2553 2290,2536 2354,2497 2377,2466 2372,2464 2357,2486 2333,2539 2333,2573 2338,2585 2365,2551 2439,2452 2520,2323 2540,2280 2541,2273 2549,2276 2564,2294 2609,2319 2684,2310 2756,2265 2762,2231 2759,2217 2717,2257 2634,2375 2570,2485 2528,2549 2519,2559 2531,2536 2576,2476 2603,2449 2631,2444 2687,2456 2742,2476 2795,2475 2800,2448 2758,2423 2701,2439 2676,2474 2697,2539 2772,2594 2889,2615 2980,2584 3017,2509 3033,2462 3047,2431 3063,2440 3148,2494 " style="fill: white; stroke: black; stroke-width: 30" />
<polyline points="3494,2505 3504,2506 3526,2513 3569,2520 3633,2524 3707,2539 3770,2565 " style="fill: white; stroke: black; stroke-width: 30" />
<polyline points="-2618,2559 -2621,2556 -2628,2561 -2653,2623 -2677,2710 -2682,2746 -2681,2745 -2674,2726 -2670,2652 -2657,2570 -2615,2517 -2561,2494 -2512,2511 -2494,2551 -2510,2598 -2562,2647 -2619,2677 -2649,2699 -2643,2720 -2605,2763 -2542,2798 -2483,2803 -2422,2769 -2374,2711 " style="fill: white; stroke: black; stroke-width: 30" />
<polyline points="-2362,2691 -2387,2690 -2402,2682 -2405,2682 -2405,2684 -2418,2695 -2440,2725 -2452,2751 -2451,2764 -2441,2788 -2421,2800 -2384,2813 -2343,2805 -2317,2781 -2313,2760 -2327,2744 -2363,2729 -2385,2733 -2387,2736 -2377,2748 -2346,2767 -2298,2781 -2244,2781 -2182,2765 -2125,2728 -2077,2660 -2070,2621 -2095,2596 -2133,2583 -2170,2610 -2184,2669 -2154,2754 -2099,2792 -2037,2785 -1977,2723 -1945,2662 -1948,2625 -1967,2623 -2003,2643 -2030,2682 -2020,2704 -1976,2733 -1926,2736 -1885,2729 -1883,2719 -1914,2706 -1967,2705 -1983,2707 -1969,2708 -1934,2713 -1894,2723 -1885,2732 -1881,2733 -1882,2730 -1870,2728 -1859,2726 -1849,2727 -1849,2726 -1850,2726 -1853,2726 -1850,2726 -1851,2725 -1849,2725 -1851,2724 -1849,2725 -1850,2726 -1849,2725 -1847,2726 -1844,2726 -1841,2722 -1827,2704 -1819,2680 -1819,2669 -1822,2662 -1828,2657 -1835,2662 -1839,2666 -1842,2686 -1840,2725 -1825,2754 -1782,2782 -1735,2796 -1675,2795 " style="fill: white; stroke: black; stroke-width: 30" />
<polyline points="-357,2576 -416,2576 -496,2613 -569,2673 -592,2734 -564,2819 -491,2903 -405,2955 " style="fill: white; stroke: black; stroke-width: 30" />
<polyline points="-192,2651 -217,2638 -240,2643 -280,2700 -324,2788 -338,2855 -318,2879 -268,2881 -211,2840 -182,2804 -185,2786 -195,2770 -205,2757 -210,2754 -213,2750 -213,2758 -214,2762 -208,2777 -197,2790 -188,2795 -190,2793 -193,2792 -194,2789 -191,2789 -184,2790 " style="fill: white; stroke: black; stroke-width: 30" />
<polyline points="-122,2846 -121,2872 -99,2882 -57,2884 -2,2864 25,2847 18,2828 -15,2799 -74,2780 -111,2793 -108,2829 -59,2884 11,2902 50,2890 81,2849 94,2797 98,2774 101,2769 115,2769 157,2779 211,2797 262,2811 " style="fill: white; stroke: black; stroke-width: 30" />
<polyline points="351,2834 347,2811 333,2788 304,2779 248,2794 203,2832 199,2855 219,2862 263,2840 317,2782 338,2739 337,2711 325,2696 323,2705 331,2735 353,2778 387,2803 402,2811 401,2811 397,2814 394,2819 399,2838 412,2855 430,2863 441,2861 444,2860 441,2860 439,2865 440,2863 442,2864 446,2863 463,2858 " style="fill: white; stroke: black; stroke-width: 30" />
<polyline points="541,2666 526,2654 518,2651 516,2654 519,2654 523,2658 534,2676 " style="fill: white; stroke: black; stroke-width: 30" />
<polyline points="576,2878 554,2875 556,2875 561,2877 577,2872 619,2858 656,2837 671,2836 672,2846 676,2881 696,2911 743,2915 806,2891 853,2864 883,2845 882,2840 876,2829 869,2815 849,2802 827,2806 823,2817 829,2841 835,2866 834,2915 815,3019 787,3140 774,3219 764,3265 750,3264 739,3239 739,3171 776,3083 837,3010 " style="fill: white; stroke: black; stroke-width: 30" />
<polyline points="1146,2659 1157,2655 1161,2672 1169,2741 1139,2822 1078,2922 1015,2997 " style="fill: white; stroke: black; stroke-width: 30" />
<polyline points="1823,2959 1819,2964 1833,2969 1896,2968 1997,2944 2075,2923 2080,2926 " style="fill: white; stroke: black; stroke-width: 30" />
<polyline points="1907,2856 1894,2841 1894,2841 1919,2854 1972,2875 2048,2899 2121,2909 " style="fill: white; stroke: black; stroke-width: 30" />
<polyline points="-2493,3238 -2500,3226 -2507,3228 -2522,3253 -2554,3350 -2588,3465 -2597,3532 -2589,3542 -2556,3502 -2511,3382 -2494,3251 -2504,3207 -2523,3210 -2542,3238 -2542,3284 -2517,3330 -2470,3364 -2417,3372 -2348,3347 -2271,3298 -2204,3254 -2171,3235 -2168,3232 -2172,3235 -2178,3244 -2199,3291 -2220,3369 -2217,3414 -2196,3435 -2161,3437 -2116,3412 -2078,3381 -2042,3358 -2029,3360 -2029,3365 -2037,3377 -2053,3407 -2051,3426 -2040,3423 -2003,3414 -1967,3407 -1961,3410 -1964,3426 -1951,3439 " style="fill: white; stroke: black; stroke-width: 30" />
<polyline points="-1940,3281 -1941,3289 -1940,3292 -1941,3294 -1940,3293 -1937,3293 -1934,3289 -1932,3289 -1930,3289 -1933,3290 -1934,3292 -1930,3294 -1905,3302 -1827,3320 " style="fill: white; stroke: black; stroke-width: 30" />
<polyline points="-1712,3295 -1693,3280 -1691,3277 -1697,3282 -1709,3301 -1746,3363 -1791,3455 -1805,3509 -1798,3519 -1765,3499 -1700,3437 -1643,3378 -1598,3342 -1581,3328 -1580,3328 -1590,3338 -1614,3378 -1657,3464 -1678,3536 -1668,3563 -1645,3562 " style="fill: white; stroke: black; stroke-width: 30" />
<polyline points="-1304,3401 -1327,3390 -1369,3385 -1427,3380 -1463,3384 -1469,3392 -1470,3401 -1471,3455 -1471,3516 -1479,3557 -1483,3561 -1500,3553 -1530,3536 -1565,3514 -1569,3509 -1566,3510 -1539,3517 -1468,3520 -1370,3500 " style="fill: white; stroke: black; stroke-width: 30" />
<polyline points="-1189,3433 -1212,3435 -1257,3442 -1308,3456 -1343,3481 -1341,3497 -1312,3513 -1275,3516 -1232,3499 -1188,3473 -1128,3423 -1071,3378 -1059,3360 -1065,3361 -1085,3379 -1124,3424 -1139,3468 -1131,3495 -1112,3516 -1093,3538 -1088,3551 -1086,3559 -1067,3558 -1012,3515 " style="fill: white; stroke: black; stroke-width: 30" />
<polyline points="-829,3353 -838,3358 -848,3355 -865,3364 -892,3388 -928,3438 -974,3560 -961,3583 -927,3591 -861,3568 -792,3527 -773,3508 -775,3507 -783,3512 -803,3534 -814,3562 -813,3584 -806,3593 -800,3596 -795,3595 -796,3598 -791,3599 -766,3601 -735,3595 -711,3584 " style="fill: white; stroke: black; stroke-width: 30" />
<polyline points="-668,3556 -668,3543 -674,3528 -677,3515 -670,3496 -669,3490 -671,3493 -677,3502 -685,3504 -691,3505 -696,3512 -702,3520 -709,3525 -726,3548 -752,3591 -781,3642 -784,3663 " style="fill: white; stroke: black; stroke-width: 30" />
<polyline points="-455,3533 -448,3539 -456,3537 -463,3532 -473,3523 -509,3508 -563,3511 -618,3538 -640,3570 -633,3594 -587,3627 -478,3612 -320,3536 -192,3456 " style="fill: white; stroke: black; stroke-width: 30" />
<polyline points="-178,3393 -219,3400 -247,3423 -275,3469 -334,3542 -414,3616 -460,3651 -460,3654 -445,3642 -409,3620 -373,3605 -327,3598 -270,3589 -248,3583 -259,3582 -311,3599 -360,3623 -361,3661 -322,3700 -252,3724 -186,3713 -166,3692 -177,3661 -200,3644 -207,3645 -190,3651 -133,3658 -80,3653 -61,3641 -55,3625 -39,3604 31,3576 167,3554 303,3558 404,3582 " style="fill: white; stroke: black; stroke-width: 30" />
<polyline points="-1987,4474 -1998,4484 -2008,4526 -2021,4613 -2027,4781 -2023,5004 -2023,5270 -2030,5574 -2045,5894 -2055,6233 -2052,6570 -2051,6866 -2052,7110 -2059,7279 " style="fill: white; stroke: black; stroke-width: 30" />
<polyline points="-3402,5109 -3415,5110 -3421,5107 -3426,5105 -3426,5108 -3434,5110 -3434,5110 -3426,5114 -3392,5116 -3331,5124 -3210,5137 -2980,5152 -2645,5147 -2196,5127 -1693,5099 -1164,5095 -733,5099 -466,5111 -324,5130 -252,5140 " style="fill: white; stroke: black; stroke-width: 30" />
<polyline points="-3008,4641 -3011,4643 -3012,4641 -3001,4634 -2965,4623 -2913,4623 -2840,4623 -2740,4630 " style="fill: white; stroke: black; stroke-width: 30" />
<polyline points="-2769,4473 -2790,4504 -2817,4580 -2844,4691 -2831,4784 " style="fill: white; stroke: black; stroke-width: 30" />
<polyline points="-1467,4670 -1473,4670 -1473,4670 -1460,4665 -1414,4653 -1334,4646 -1227,4643 " style="fill: white; stroke: black; stroke-width: 30" />
<polyline points="-3374,5739 -3377,5735 -3365,5721 -3337,5688 -3292,5624 -3231,5521 -3185,5449 -3174,5429 -3175,5432 -3190,5461 -3213,5549 -3236,5652 -3232,5728 -3222,5765 " style="fill: white; stroke: black; stroke-width: 30" />
<polyline points="-3111,5552 -3106,5546 -3080,5507 -3036,5478 -2973,5470 -2913,5508 -2876,5592 -2904,5682 -2960,5741 -3032,5759 -3083,5723 -3100,5644 -3082,5560 -3046,5506 " style="fill: white; stroke: black; stroke-width: 30" />
<polyline points="-2871,5627 -2825,5560 -2765,5503 -2709,5488 -2671,5502 -2652,5545 -2665,5605 -2696,5676 -2756,5731 -2801,5746 -2833,5712 -2845,5638 -2834,5574 -2796,5520 -2758,5504 " style="fill: white; stroke: black; stroke-width: 30" />
<polyline points="-2695,5672 -2678,5654 -2649,5630 -2634,5612 -2632,5603 -2634,5598 -2631,5582 -2617,5541 -2580,5504 -2524,5483 -2486,5492 -2457,5544 -2455,5607 -2475,5662 -2507,5686 -2564,5684 -2612,5649 -2637,5599 -2642,5584 -2625,5568 " style="fill: white; stroke: black; stroke-width: 30" />
<polyline points="-2412,5701 -2370,5699 -2340,5689 -2319,5677 -2311,5659 -2318,5639 -2331,5632 -2367,5633 -2390,5660 -2407,5689 -2399,5720 -2378,5740 -2331,5761 -2288,5769 " style="fill: white; stroke: black; stroke-width: 30" />
<polyline points="-1431,5514 -1444,5517 -1449,5516 -1431,5513 -1369,5508 -1299,5510 -1239,5506 -1220,5503 " style="fill: white; stroke: black; stroke-width: 30" />
<polyline points="-1436,5548 -1494,5602 -1533,5666 -1545,5704 -1527,5731 -1482,5753 -1424,5763 -1355,5764 -1301,5750 -1297,5736 " style="fill: white; stroke: black; stroke-width: 30" />
<polyline points="-1463,5627 -1484,5616 -1472,5609 -1429,5604 -1364,5613 -1294,5631 -1230,5652 -1191,5676 -1180,5700 -1181,5733 -1183,5766 -1185,5782 -1182,5780 -1183,5778 -1182,5775 -1178,5766 -1170,5713 " style="fill: white; stroke: black; stroke-width: 30" />
<polyline points="-1077,5521 -1095,5507 -1099,5502 -1102,5508 -1103,5538 -1111,5636 " style="fill: white; stroke: black; stroke-width: 30" />
<polyline points="-1098,5826 -1091,5798 -1057,5735 -1015,5692 -987,5683 -963,5696 -939,5724 -912,5759 -872,5769 -808,5740 -769,5694 -771,5671 -814,5664 -875,5688 -896,5734 -857,5774 -779,5782 -708,5761 -679,5732 -662,5693 -642,5640 -597,5584 -521,5548 " style="fill: white; stroke: black; stroke-width: 30" />
<polyline points="-1291,5957 -1272,5936 -1276,5939 -1296,5965 -1335,6036 -1366,6094 -1357,6110 -1329,6121 -1266,6129 -1193,6132 -1121,6133 -1068,6121 " style="fill: white; stroke: black; stroke-width: 30" />
<polyline points="-1110,6025 -1116,6032 -1101,6052 -1063,6092 -1019,6122 -1005,6143 -1037,6175 -1097,6209 -1119,6215 " style="fill: white; stroke: black; stroke-width: 30" />
<polyline points="-710,6326 -729,6318 -713,6286 -637,6179 -536,6055 -454,5989 -428,5984 -426,6033 -468,6169 -512,6279 -518,6312 -507,6308 -482,6251 " style="fill: white; stroke: black; stroke-width: 30" />
<polyline points="-297,6164 -318,6110 -290,6049 -214,6021 -141,6059 -108,6153 -145,6252 -226,6326 -308,6345 -361,6314 -363,6202 -315,6079 -246,6019 " style="fill: white; stroke: black; stroke-width: 30" />
<polyline points="34,6180 59,6108 129,6064 216,6073 250,6129 212,6214 128,6290 50,6317 3,6289 -17,6211 -4,6133 38,6101 104,6110 " style="fill: white; stroke: black; stroke-width: 30" />
<polyline points="250,6176 226,6162 254,6127 341,6080 413,6064 444,6079 451,6115 446,6180 411,6247 351,6315 261,6344 213,6331 198,6279 216,6186 259,6127 318,6104 " style="fill: white; stroke: black; stroke-width: 30" />
<polyline points="460,6302 488,6299 540,6273 616,6231 660,6199 662,6189 630,6186 563,6207 534,6241 563,6279 636,6314 750,6344 837,6359 " style="fill: white; stroke: black; stroke-width: 30" />
<polyline points="1210,4354 1195,4339 1185,4341 1170,4366 1141,4437 1127,4502 1126,4542 1131,4560 1148,4572 1190,4584 1246,4590 1303,4588 " style="fill: white; stroke: black; stroke-width: 30" />
<polyline points="1415,4518 1406,4511 1394,4510 1361,4528 1325,4551 1307,4582 1321,4598 1350,4624 1398,4632 1448,4627 1476,4612 1484,4594 1473,4562 1458,4553 1443,4549 1437,4553 1442,4556 1459,4569 " style="fill: white; stroke: black; stroke-width: 30" />
<polyline points="1668,4570 1667,4554 1651,4537 1605,4529 1547,4545 1520,4573 1533,4609 1576,4642 1626,4645 1668,4635 1670,4623 1660,4607 1642,4596 1618,4590 1613,4591 1620,4597 1641,4608 " style="fill: white; stroke: black; stroke-width: 30" />
<polyline points="1858,4588 1851,4588 1843,4588 1843,4591 1845,4592 1850,4592 1857,4578 1855,4567 1852,4556 1844,4558 1831,4571 1805,4625 1770,4708 1741,4784 1731,4835 1732,4846 1738,4841 1768,4800 1818,4689 1861,4599 1885,4553 1897,4545 1913,4559 1942,4609 1966,4665 1971,4708 1943,4730 1887,4721 1833,4700 1824,4686 1832,4684 1871,4671 " style="fill: white; stroke: black; stroke-width: 30" />
<polyline points="2611,4393 2608,4382 2596,4378 2573,4375 2510,4385 2444,4406 2402,4429 2395,4453 2400,4496 2422,4550 2433,4595 2433,4621 2420,4638 2393,4640 2365,4629 2356,4618 2354,4613 2354,4613 2352,4612 2358,4610 2361,4607 2360,4606 2361,4603 2363,4603 2374,4603 2403,4608 2444,4620 2473,4641 2486,4674 2485,4710 2460,4747 2413,4808 2380,4871 2372,4934 2388,4972 2414,4992 2431,4996 2430,4997 2432,5005 2445,5006 " style="fill: white; stroke: black; stroke-width: 30" />
<polyline points="2731,5065 2734,5053 2735,5051 2728,5059 2722,5068 2701,5108 2680,5166 2665,5237 2662,5294 2681,5336 2701,5355 " style="fill: white; stroke: black; stroke-width: 30" />
<polyline points="2843,5130 2838,5115 2822,5103 2798,5098 2741,5102 2681,5126 2665,5139 2671,5159 2684,5197 2720,5234 2771,5260 2841,5265 2903,5243 2957,5203 2989,5158 2994,5140 2993,5138 2988,5144 2984,5148 2977,5158 2976,5169 2968,5190 2963,5226 2962,5262 2967,5290 2974,5301 2987,5303 " style="fill: white; stroke: black; stroke-width: 30" />
<polyline points="3016,5061 2989,5043 2987,5034 3009,5024 3048,5009 3087,5008 3097,5026 3088,5065 3055,5103 3036,5113 3021,5106 3018,5079 3019,5025 3028,5000 3030,4998 3036,4998 " style="fill: white; stroke: black; stroke-width: 30" />
<polyline points="3273,5003 3259,5003 3249,5010 3209,5058 3146,5156 3124,5230 3127,5260 3132,5263 3144,5251 3203,5195 3285,5133 3363,5084 3415,5045 3432,5022 3424,5015 3410,5014 3395,5026 3369,5096 3334,5181 3322,5240 3310,5271 3311,5274 " style="fill: white; stroke: black; stroke-width: 30" />
<polyline points="2452,5382 2452,5377 2474,5367 2519,5369 2569,5386 2601,5433 2610,5473 2593,5517 2562,5549 2535,5564 2521,5570 2523,5571 2527,5571 2532,5572 2534,5571 2537,5571 2552,5569 2585,5578 2616,5581 2646,5586 2666,5585 2664,5585 2659,5585 2655,5587 2651,5588 2651,5590 2646,5591 2639,5596 2625,5598 2593,5601 2562,5596 2533,5604 2513,5616 2492,5651 2479,5697 2479,5759 2492,5826 2500,5883 2498,5915 2493,5919 2471,5914 2444,5901 2428,5883 2412,5869 2398,5865 2374,5852 " style="fill: white; stroke: black; stroke-width: 30" />
<polyline points="1150,5845 1135,5839 1125,5838 1121,5847 1112,5872 1113,5913 1110,5955 1113,5990 1120,6010 1130,6025 1147,6049 1170,6069 1203,6089 1237,6105 1273,6116 1297,6125 1330,6132 1383,6136 1427,6138 1472,6141 1514,6140 1561,6141 1604,6139 1654,6136 1704,6133 1755,6135 1784,6136 1826,6133 1880,6129 1912,6132 1953,6133 1992,6139 2033,6145 2082,6162 2118,6181 2143,6205 2156,6221 2159,6238 2163,6253 2166,6279 2166,6292 2169,6315 2168,6343 2170,6361 2172,6387 2168,6404 2165,6413 2168,6425 2167,6432 2166,6435 2167,6432 2171,6431 2169,6430 2172,6428 2174,6422 2183,6406 2188,6377 2198,6344 2201,6314 2200,6293 2202,6280 2206,6274 2219,6253 2229,6239 2239,6226 2250,6217 2273,6200 2290,6191 2301,6187 2322,6185 2345,6186 2378,6190 2412,6196 2451,6203 2484,6209 2522,6220 2566,6228 2604,6238 2649,6245 2698,6252 2739,6263 2787,6272 2839,6280 2891,6291 2933,6295 2992,6294 3029,6293 3058,6294 3087,6294 3127,6301 3173,6304 3207,6307 3232,6307 3267,6309 3297,6302 3322,6297 3354,6284 3369,6275 3391,6248 3403,6225 3419,6181 3423,6140 3427,6096 3428,6062 3424,6036 3423,6034 3422,6032 3420,6034 3418,6034 3417,6036 3417,6035 3418,6039 3422,6042 " style="fill: white; stroke: black; stroke-width: 30" />
<polyline points="1660,6616 1647,6603 1643,6604 1632,6636 1610,6710 1584,6786 1578,6825 1579,6844 1582,6840 1605,6806 1650,6703 1688,6607 1696,6566 1693,6566 1691,6567 1688,6574 1679,6608 1667,6686 1675,6748 1709,6796 1777,6824 1854,6821 1910,6798 1937,6780 1937,6768 1935,6756 1929,6721 1921,6665 1910,6631 1895,6623 1896,6624 1897,6630 1902,6637 1913,6673 1924,6728 " style="fill: white; stroke: black; stroke-width: 30" />
<polyline points="2151,6835 2144,6817 2140,6789 2131,6764 2099,6750 2050,6755 2018,6776 2014,6821 2032,6866 2075,6901 2116,6912 2138,6912 2148,6889 2132,6868 2110,6841 2107,6842 2112,6844 2113,6851 2122,6864 2150,6881 " style="fill: white; stroke: black; stroke-width: 30" />
<polyline points="2700,6673 2690,6664 2681,6664 2668,6675 2629,6727 2595,6799 2564,6877 2542,6954 2539,7002 " style="fill: white; stroke: black; stroke-width: 30" />
<polyline points="2835,6783 2820,6758 2763,6732 2664,6727 2572,6761 2548,6800 2563,6850 2602,6900 2659,6924 2737,6923 2837,6894 2916,6857 2927,6849 2923,6850 2908,6855 2893,6866 2878,6887 2856,6923 2853,6954 2853,6971 2858,6990 2869,7010 " style="fill: white; stroke: black; stroke-width: 30" />
<polyline points="3020,6744 3009,6692 3020,6660 3035,6648 3045,6646 3047,6655 3049,6671 3041,6706 3039,6725 3035,6726 3043,6719 3042,6715 3045,6710 3049,6707 3045,6707 3047,6706 3045,6706 3045,6706 3038,6707 3043,6706 3040,6707 3040,6707 3037,6708 3049,6709 3077,6707 3091,6716 3084,6719 3069,6754 3021,6852 2985,6937 2968,6997 2972,7011 2993,6995 3075,6915 3187,6798 3275,6723 3322,6694 3311,6695 3280,6712 3226,6766 3172,6838 3139,6909 3135,6929 3132,6937 3130,6941 3110,6999 " style="fill: white; stroke: black; stroke-width: 30" />
<polyline points="3553,6682 3552,6676 3543,6680 3517,6721 3472,6801 3439,6875 3432,6920 3424,6947 " style="fill: white; stroke: black; stroke-width: 30" />
<polyline points="3399,7030 3375,7052 3358,7065 3350,7065 3350,7053 3369,7034 3402,7013 3446,7021 3463,7050 3451,7090 3403,7128 3357,7138 3330,7118 3338,7085 3363,7036 3382,7020 3388,7021 " style="fill: white; stroke: black; stroke-width: 30" />
<polyline points="1298,7303 1298,7291 1308,7277 1329,7268 1361,7256 1456,7241 1679,7216 2060,7173 2576,7158 3091,7200 3469,7260 3670,7282 3711,7292 3707,7294 3699,7295 3698,7296 3701,7298 3703,7303 3705,7307 3713,7311 3716,7312 3718,7313 3721,7311 3712,7314 3716,7312 3720,7318 " style="fill: white; stroke: black; stroke-width: 30" />
<polyline points="98,10250 85,10243 79,10239 83,10224 80,10189 96,10157 113,10146 142,10152 175,10180 193,10227 192,10274 181,10310 142,10331 117,10324 85,10294 60,10255 61,10218 82,10181 113,10162 147,10160 182,10182 185,10226 184,10270 167,10293 130,10293 104,10267 100,10228 104,10191 111,10164 140,10151 174,10166 202,10199 212,10239 205,10258 184,10270 161,10265 157,10251 141,10235 141,10231 139,10229 141,10232 148,10232 150,10232 148,10229 148,10229 133,10224 139,10222 133,10218 133,10214 140,10194 157,10155 174,10119 185,10088 194,10073 199,10063 233,10031 285,9996 367,9943 477,9877 611,9808 754,9740 889,9694 1017,9672 1142,9655 1307,9639 1475,9607 1647,9566 1795,9503 1926,9434 2033,9349 2096,9266 2138,9176 2170,9080 2214,8968 2249,8877 2270,8798 2296,8741 2318,8698 2343,8670 2347,8657 2346,8660 2346,8662 2346,8668 2349,8673 2353,8678 2352,8685 2351,8692 2358,8699 " style="fill: white; stroke: black; stroke-width: 30" />
<polyline points="167,10072 158,10066 144,10057 129,10048 123,10029 113,10010 109,9971 105,9913 89,9830 95,9732 118,9609 173,9465 252,9311 335,9159 381,9023 395,8895 373,8770 315,8646 236,8541 136,8443 33,8331 -56,8223 -133,8115 -201,8009 -252,7917 -297,7833 -341,7766 -366,7712 -383,7666 -390,7646 -385,7638 -375,7640 " style="fill: white; stroke: black; stroke-width: 30" />
<polyline points="69,10200 78,10185 94,10172 101,10164 116,10140 125,10088 109,10012 54,9930 -50,9844 -183,9778 -370,9723 -581,9701 -795,9713 -982,9759 -1144,9832 -1294,9916 -1413,10000 -1510,10087 -1622,10176 -1750,10258 -1886,10295 -2030,10285 -2177,10248 -2312,10192 -2433,10140 -2512,10114 -2560,10107 -2574,10110 " style="fill: white; stroke: black; stroke-width: 30" />
<polyline points="123,10240 129,10236 121,10231 90,10234 7,10262 -121,10337 -282,10446 -437,10590 -532,10742 -584,10907 -618,11083 -632,11263 -665,11417 -724,11539 -841,11641 -952,11734 -1078,11811 -1196,11865 -1278,11890 -1328,11889 -1351,11868 -1332,11820 " style="fill: white; stroke: black; stroke-width: 30" />
<polyline points="110,10290 105,10286 128,10287 159,10286 215,10287 278,10303 332,10346 353,10432 361,10559 360,10716 378,10877 453,11056 552,11247 672,11440 821,11614 1004,11766 1180,11893 1333,12002 1431,12090 1483,12156 1517,12202 1542,12233 1567,12245 1553,12242 1526,12196 " style="fill: white; stroke: black; stroke-width: 30" />
<polyline points="223,10254 247,10242 297,10226 390,10206 543,10174 743,10159 924,10185 1084,10263 1204,10382 1322,10527 1450,10691 1573,10882 1732,11063 1917,11218 2111,11324 2293,11390 2417,11425 2523,11414 " style="fill: white; stroke: black; stroke-width: 30" />
<polyline points="1381,7748 1376,7746 1375,7751 1372,7770 1375,7806 1379,7892 1396,8001 1420,8072 1440,8094 1445,8087 " style="fill: white; stroke: black; stroke-width: 30" />
<polyline points="1155,7786 1148,7779 1153,7776 1160,7780 1188,7784 1249,7781 1335,7769 1433,7758 1529,7746 1601,7746 " style="fill: white; stroke: black; stroke-width: 30" />
<polyline points="1263,7935 1254,7932 1255,7929 1249,7929 1256,7926 1253,7928 1259,7927 1291,7929 1338,7929 1422,7926 1501,7915 1550,7907 " style="fill: white; stroke: black; stroke-width: 30" />
<polyline points="1565,7918 1566,7923 1561,7941 1563,7982 1561,8026 1562,8053 1563,8060 1572,8056 1569,8038 1575,7989 1573,7944 1573,7911 1577,7891 1586,7881 1596,7879 1618,7881 1653,7897 1703,7928 " style="fill: white; stroke: black; stroke-width: 30" />
<polyline points="1762,7920 1766,7897 1782,7885 1806,7890 1826,7902 1838,7932 1848,7990 1851,8040 1827,8080 1797,8096 1747,8087 1712,8049 1700,8021 1709,8010 1732,7999 1770,8001 1825,8014 1873,8036 1900,8059 1930,8078 " style="fill: white; stroke: black; stroke-width: 30" />
<polyline points="2056,8005 2067,7981 2062,7944 2034,7902 2001,7890 1979,7894 1980,7911 1988,7938 2001,7957 2010,7975 2027,7996 2043,8025 2054,8050 2061,8060 2062,8056 2066,8050 2066,8038 2081,8010 2101,7979 2101,7971 2097,7967 2098,7967 2092,7967 2095,7967 2098,7964 2091,7965 2090,7963 2095,7963 2094,7963 2094,7965 2095,7967 2088,7985 2081,8059 2067,8215 2051,8345 2038,8438 2008,8481 1999,8479 1956,8433 1900,8345 1860,8286 1837,8235 1856,8207 " style="fill: white; stroke: black; stroke-width: 30" />
<polyline points="2235,8041 2227,8067 2233,8100 2230,8115 2228,8114 2231,8107 2241,8070 2282,7995 2321,7932 2332,7918 2331,7925 2321,7965 2321,8028 2331,8047 2345,8043 2370,8028 2391,8011 2399,8013 2400,8019 2404,8042 2413,8051 2422,8047 2433,8024 2448,8011 " style="fill: white; stroke: black; stroke-width: 30" />
<polyline points="2501,8050 2513,8059 2538,8055 2565,8046 2586,8028 2592,8010 2590,7980 2580,7966 2539,7967 2487,8007 2474,8053 2487,8089 2519,8103 2556,8098 2609,8064 2656,8038 2686,8020 2693,8021 2705,8030 2728,8047 2740,8056 2735,8068 2741,8064 2755,8053 " style="fill: white; stroke: black; stroke-width: 30" />
<polyline points="2965,7795 2916,7840 2869,7928 2825,8036 2821,8084 2823,8088 2829,8054 2845,8006 2865,7974 2877,7972 2897,7978 2942,7988 2970,8000 " style="fill: white; stroke: black; stroke-width: 30" />
<polyline points="3134,7983 3098,7996 3072,8031 3057,8098 3061,8169 3053,8224 3054,8249 3055,8250 3061,8226 3064,8157 3098,8078 3153,8014 3192,7994 3195,7998 3178,8017 3127,8059 3070,8093 3054,8098 3051,8095 3056,8089 3063,8083 3065,8079 3082,8072 3092,8070 3129,8059 3154,8065 3196,8072 " style="fill: white; stroke: black; stroke-width: 30" />
<polyline points="3270,8092 3275,8099 3296,8104 3332,8108 3378,8088 3402,8070 3414,8048 3409,8022 3385,7996 3351,7987 3325,7990 3328,8017 3352,8057 3386,8100 3427,8123 3462,8128 3490,8105 3528,8051 3550,8006 3567,7981 3587,7969 3620,7967 3653,7973 3706,7981 3749,7979 3763,7969 3744,7949 3722,7942 3713,7942 3710,7958 3715,8001 3712,8062 3696,8107 3673,8127 3636,8121 3602,8090 3580,8061 3591,8054 3598,8052 " style="fill: white; stroke: black; stroke-width: 30" />
<polyline points="3920,8108 3916,8105 3948,8085 4026,8033 4136,7951 4218,7886 4230,7859 4234,7852 4235,7853 4232,7860 4219,7883 4193,7934 4167,8017 4144,8108 4141,8163 4136,8215 " style="fill: white; stroke: black; stroke-width: 30" />
<polyline points="-8847,15017 -8866,15004 -8883,14995 -8889,14999 -8901,15004 -8894,15038 -8877,15084 -8825,15145 -8816,15168 -8784,15195 -8770,15217 -8756,15245 -8739,15277 -8738,15284 -8717,15292 -8739,15277 -8777,15260 -8810,15233 -8831,15185 -8850,15105 -8867,15036 -8938,14955 -8882,14942 -8906,14871 " style="fill: white; stroke: black; stroke-width: 30" />
<polyline points="-3899,7518 -3908,7523 -3923,7516 -3927,7509 -3927,7469 -3918,7378 -3886,7257 -3866,7204 -3859,7194 -3863,7198 -3870,7209 -3865,7252 -3857,7310 -3829,7383 -3796,7435 -3732,7472 -3635,7483 -3520,7471 -3429,7435 -3378,7396 -3360,7383 -3367,7388 -3368,7399 -3372,7420 -3365,7441 -3355,7457 -3350,7462 -3338,7482 -3327,7499 -3294,7529 -3257,7537 -3220,7526 -3184,7498 -3169,7468 -3163,7450 -3169,7439 " style="fill: white; stroke: black; stroke-width: 30" />
<polyline points="96,10189 92,10189 88,10186 82,10181 90,10168 115,10140 143,10116 168,10108 183,10110 187,10112 183,10112 185,10115 176,10118 143,10144 104,10187 75,10214 65,10224 67,10222 81,10216 84,10199 111,10169 149,10137 164,10120 181,10113 176,10114 178,10119 164,10131 121,10170 92,10200 81,10208 82,10204 82,10200 90,10189 115,10176 134,10159 147,10153 151,10156 142,10164 132,10175 111,10192 96,10200 92,10204 100,10202 102,10200 115,10189 136,10171 155,10156 153,10155 149,10160 146,10170 123,10189 102,10206 88,10212 86,10211 84,10202 79,10191 86,10176 86,10172 86,10166 95,10149 124,10122 137,10119 143,10120 145,10126 143,10131 140,10141 136,10162 115,10191 102,10201 102,10201 94,10192 90,10180 88,10166 101,10146 112,10118 135,10098 143,10087 141,10090 143,10096 143,10110 140,10145 124,10165 105,10181 86,10181 82,10163 80,10140 76,10112 82,10095 99,10082 120,10080 143,10086 148,10096 151,10106 138,10140 105,10165 84,10179 80,10173 78,10155 72,10125 74,10087 93,10064 95,10053 100,10056 114,10089 113,10148 104,10187 98,10191 80,10184 71,10168 67,10147 70,10138 74,10128 84,10118 97,10111 105,10111 118,10117 122,10129 " style="fill: white; stroke: black; stroke-width: 30" />
<polyline points="81,10212 59,10216 48,10218 59,10217 57,10215 65,10207 86,10179 115,10160 159,10129 181,10106 181,10106 177,10110 162,10126 130,10170 92,10217 85,10230 88,10222 94,10200 94,10175 103,10169 124,10148 136,10140 128,10137 134,10139 130,10141 136,10141 134,10140 128,10139 132,10137 138,10139 147,10136 " style="fill: white; stroke: black; stroke-width: 30" />
<polyline points="83,10026 73,10029 64,10031 64,10035 66,10035 56,10035 56,10027 60,10013 58,9988 54,9962 50,9911 31,9851 24,9781 11,9724 -26,9669 -84,9611 -146,9547 -230,9474 -323,9400 -418,9332 -522,9253 -611,9165 -693,9069 -763,8965 -854,8875 -942,8787 -1049,8700 -1157,8621 -1261,8545 -1335,8480 -1396,8413 -1420,8335 -1415,8261 -1385,8196 -1350,8146 -1316,8107 -1292,8083 -1291,8077 -1294,8077 -1293,8081 -1296,8080 -1292,8078 " style="fill: white; stroke: black; stroke-width: 30" />
<polyline points="212,10110 202,10112 204,10102 200,10069 215,10007 250,9933 299,9842 388,9718 495,9576 616,9440 747,9303 888,9182 1038,9089 1205,9006 1361,8907 1445,8810 1462,8722 1432,8641 1385,8535 1356,8428 1324,8299 1291,8196 1255,8106 1213,8030 1181,7969 1166,7927 1172,7894 1185,7876 1194,7869 1208,7867 " style="fill: white; stroke: black; stroke-width: 30" />
<polyline points="99,10115 110,10114 109,10114 99,10113 99,10106 78,10087 38,10059 -46,10034 -171,10027 -344,10049 -554,10095 -769,10170 -947,10266 -1111,10387 -1250,10529 -1371,10664 -1479,10765 -1628,10839 -1776,10888 -1910,10932 -1989,10978 -2037,11013 -2078,11033 " style="fill: white; stroke: black; stroke-width: 30" />
<polyline points="108,10242 104,10233 96,10230 89,10238 58,10277 1,10359 -61,10465 -118,10603 -155,10762 -159,10951 -118,11130 -81,11298 -43,11456 -26,11619 -7,11788 13,11935 36,12050 48,12138 55,12186 48,12221 62,12231 " style="fill: white; stroke: black; stroke-width: 30" />
<polyline points="205,10167 207,10166 226,10158 299,10155 389,10179 461,10249 514,10340 553,10453 596,10582 688,10734 822,10884 961,11052 1097,11216 1223,11372 1321,11505 1421,11623 1564,11701 1711,11746 1799,11764 " style="fill: white; stroke: black; stroke-width: 30" />
<polyline points="218,10150 214,10135 222,10131 218,10128 242,10106 291,10054 372,9994 465,9949 569,9923 699,9915 847,9918 1003,9937 1155,9968 1320,10008 1522,10039 1753,10063 1979,10086 2176,10117 2354,10151 2493,10177 2594,10196 2679,10214 2724,10231 2762,10243 2794,10237 2835,10213 2873,10178 2903,10157 " style="fill: white; stroke: black; stroke-width: 30" />
<polyline points="1934,10127 1914,10140 1893,10165 1876,10220 1884,10285 1925,10351 2003,10429 2100,10522 2219,10615 2370,10699 2535,10764 2678,10808 2764,10830 2789,10835 2782,10833 2780,10831 2774,10825 2755,10794 " style="fill: white; stroke: black; stroke-width: 30" />
<polyline points="1311,10055 1318,10050 1344,10037 1371,10036 1410,10026 1482,10011 1545,10011 1612,10025 1704,10032 1883,9982 2150,9873 2443,9775 2682,9709 2840,9671 2969,9639 3069,9605 3141,9575 3166,9561 3176,9547 " style="fill: white; stroke: black; stroke-width: 30" />
<polyline points="979,10876 968,10898 997,10912 1102,10906 1247,10908 1385,10951 1493,11029 1562,11124 1628,11224 1712,11321 1832,11422 1952,11539 2075,11643 2218,11718 2383,11749 2501,11749 " style="fill: white; stroke: black; stroke-width: 30" />
<polyline points="959,11052 937,11071 885,11134 812,11244 764,11359 749,11495 795,11632 864,11786 941,11935 1035,12081 1155,12211 1275,12357 1378,12504 1413,12640 1412,12746 1416,12830 1461,12879 " style="fill: white; stroke: black; stroke-width: 30" />
<polyline points="-243,10917 -245,10921 -190,10930 -81,10949 31,10985 129,11045 143,11145 123,11280 99,11424 128,11554 183,11702 246,11866 313,12040 359,12214 427,12386 522,12535 627,12658 " style="fill: white; stroke: black; stroke-width: 30" />
<polyline points="-167,11230 -166,11282 -189,11391 -254,11527 -362,11686 -508,11860 -645,12034 -766,12213 -884,12375 -955,12507 -1011,12589 -1038,12662 -1023,12736 " style="fill: white; stroke: black; stroke-width: 30" />
<polyline points="-727,10151 -752,10149 -755,10155 -742,10218 -731,10341 -753,10515 -833,10723 -939,10959 -1032,11177 -1097,11366 -1136,11509 -1215,11627 -1322,11750 -1425,11855 -1490,11920 -1500,11925 -1487,11880 " style="fill: white; stroke: black; stroke-width: 30" />
<polyline points="-1182,10322 -1171,10370 -1153,10423 -1140,10454 -1160,10462 -1221,10488 -1386,10526 -1602,10619 -1843,10749 -2048,10885 -2189,10961 -2257,10971 -2266,10960 -2274,10947 -2295,10944 -2382,10970 -2509,11010 -2617,11050 -2689,11059 " style="fill: white; stroke: black; stroke-width: 30" />
<polyline points="-439,9301 -436,9307 -420,9303 -401,9263 -389,9164 -399,9019 -453,8864 -557,8750 -689,8677 -779,8601 -775,8443 -660,8204 -500,7970 -427,7819 -459,7767 -526,7744 -565,7717 -576,7664 -563,7573 " style="fill: white; stroke: black; stroke-width: 30" />
<polyline points="-772,9295 -805,9301 -812,9298 -813,9292 -811,9273 -799,9237 -816,9207 -901,9207 -1093,9244 -1353,9298 -1577,9312 -1744,9275 -1886,9206 -2024,9148 -2163,9121 -2301,9122 -2418,9142 -2477,9156 -2481,9148 -2473,9132 -2441,9061 " style="fill: white; stroke: black; stroke-width: 30" />
<polyline points="1011,9316 1067,9282 1180,9224 1333,9178 1461,9170 1560,9186 1618,9211 1717,9231 1860,9216 2022,9159 2144,9087 2218,9021 2231,8983 2226,8955 " style="fill: white; stroke: black; stroke-width: 30" />
<polyline points="657,9284 654,9314 685,9320 726,9280 736,9180 714,9059 653,8931 605,8821 593,8694 657,8516 787,8319 919,8161 1026,8053 1060,8001 1096,7964 1189,7894 1347,7770 " style="fill: white; stroke: black; stroke-width: 30" />
<polyline points="-4608,8832 -4618,8824 -4616,8824 -4624,8822 -4621,8839 -4625,8908 -4610,8985 -4589,9053 -4575,9074 -4568,9073 " style="fill: white; stroke: black; stroke-width: 30" />
<polyline points="-4696,8805 -4761,8786 -4795,8781 -4799,8779 -4785,8772 -4743,8765 -4688,8761 -4602,8764 -4517,8760 " style="fill: white; stroke: black; stroke-width: 30" />
<polyline points="-4712,8923 -4735,8925 -4741,8924 -4715,8929 -4664,8936 -4596,8954 -4541,8971 -4505,8975 " style="fill: white; stroke: black; stroke-width: 30" />
<polyline points="-4483,9056 -4491,9047 -4491,9042 -4489,9043 -4496,9034 -4491,9029 -4485,9027 -4481,9033 -4479,9038 -4464,9050 -4466,9050 -4480,9045 -4482,9039 -4479,9023 -4484,8971 -4480,8937 -4457,8935 -4437,8922 -4402,8921 -4361,8933 -4328,8954 " style="fill: white; stroke: black; stroke-width: 30" />
<polyline points="-4286,8964 -4290,8933 -4269,8913 -4241,8904 -4221,8920 -4199,8982 -4211,9044 -4224,9087 -4242,9096 -4260,9080 -4289,9038 -4291,9012 -4285,9005 -4264,9010 -4234,9022 -4206,9047 -4157,9085 " style="fill: white; stroke: black; stroke-width: 30" />
<polyline points="-4029,9052 -4035,9042 -4042,9018 -4056,8983 -4079,8969 -4094,8978 -4094,9008 -4088,9029 -4066,9036 -4042,9025 -4039,9014 -4028,9016 -4040,9021 -4026,9066 -4019,9121 -4013,9192 -4041,9264 -4063,9309 -4081,9318 -4097,9299 -4132,9238 -4162,9171 -4165,9106 " style="fill: white; stroke: black; stroke-width: 30" />
<polyline points="-3901,9099 -3927,9110 -3921,9111 -3931,9099 -3931,9073 -3928,9039 -3925,9002 -3894,8965 -3866,8948 -3853,8955 -3840,8986 -3838,9034 -3830,9057 -3832,9051 -3821,9040 -3819,9034 -3813,9035 -3824,9035 -3819,9034 -3809,9030 -3785,9021 -3759,9029 -3753,9038 -3749,9047 -3752,9054 -3753,9052 -3736,9049 " style="fill: white; stroke: black; stroke-width: 30" />
<polyline points="-3669,9041 -3652,9046 -3643,9039 -3607,9035 -3583,9016 -3574,8999 -3586,8979 -3598,8973 -3630,8986 -3647,9028 -3645,9067 -3627,9097 -3610,9102 -3576,9092 -3532,9049 -3498,8996 -3472,8973 -3465,8970 -3454,8981 -3435,9006 -3417,9026 -3417,9048 -3420,9068 -3411,9089 " style="fill: white; stroke: black; stroke-width: 30" />
<polyline points="-3217,8827 -3257,8877 -3299,8960 -3332,9036 -3342,9064 -3348,9058 -3354,9029 -3339,8987 -3319,8960 -3305,8960 -3299,8962 -3269,8973 -3227,8975 " style="fill: white; stroke: black; stroke-width: 30" />
<polyline points="-3076,9059 -3091,9087 -3108,9131 -3126,9191 -3127,9249 -3130,9284 -3130,9285 -3122,9277 -3142,9216 -3156,9128 -3145,9073 -3087,9019 -2997,9002 -2936,9022 -2947,9049 -3003,9080 -3074,9088 -3104,9078 -3093,9073 -3063,9073 -3022,9078 -2990,9101 -2954,9115 -2928,9113 -2895,9105 -2880,9106 -2854,9106 -2824,9106 -2818,9090 -2813,9075 -2818,9051 -2833,9037 -2843,9025 -2852,9023 -2847,9026 -2846,9028 -2838,9033 -2817,9041 -2813,9036 -2791,9035 -2775,9032 -2735,9029 -2659,9033 " style="fill: white; stroke: black; stroke-width: 30" />
<polyline points="-2560,9065 -2567,9054 -2561,9047 -2561,9046 -2564,9044 -2564,9045 -2558,9044 -2562,9043 -2550,9042 -2553,9041 -2548,9041 -2548,9043 -2550,9042 -2544,9043 -2545,9039 -2548,9041 -2541,9043 -2548,9043 -2543,9044 -2543,9045 -2546,9043 -2548,9043 -2543,9043 -2556,9042 -2564,9044 -2578,9052 -2599,9067 -2615,9112 -2619,9152 -2622,9183 -2627,9194 -2651,9198 -2670,9188 -2688,9162 -2697,9133 -2701,9126 -2677,9111 " style="fill: white; stroke: black; stroke-width: 30" />
<polyline points="-2249,8934 -2250,8923 -2234,8911 -2185,8898 -2108,8897 -2044,8918 -2020,8942 -2031,8968 -2099,9025 -2174,9093 -2230,9133 -2228,9140 -2231,9137 -2231,9135 -2225,9134 -2236,9133 -2237,9132 -2236,9133 -2234,9133 -2228,9134 -2230,9132 -2234,9133 -2243,9131 -2239,9132 -2239,9130 -2233,9129 -2232,9127 -2220,9128 -2192,9131 -2120,9135 -2026,9138 -1967,9141 -1959,9137 -1963,9137 -1963,9137 -1959,9139 -1963,9136 -1954,9138 -1946,9138 " style="fill: white; stroke: black; stroke-width: 30" />
<polyline points="2401,8220 2400,8207 2393,8206 2388,8211 2371,8239 2356,8299 2344,8370 2327,8452 2315,8502 2306,8541 2301,8545 2307,8545 2303,8545 2306,8544 2298,8546 2301,8545 2295,8547 2300,8549 2302,8547 2305,8547 2301,8546 2308,8545 2320,8535 " style="fill: white; stroke: black; stroke-width: 30" />
<polyline points="2233,8545 2240,8536 2237,8532 2234,8533 2229,8536 2223,8547 2220,8577 2221,8609 2234,8617 2251,8614 2279,8598 2322,8575 2376,8547 2419,8528 2459,8509 2467,8506 2467,8504 2460,8506 2434,8505 " style="fill: white; stroke: black; stroke-width: 30" />

</svg>