<?xml version="1.0" standalone="no"?>
<!DOCTYPE svg PUBLIC "-//W3C//DTD SVG 1.1//EN" "http://www.w3.org/Graphics/SVG/1.1/DTD/svg11.dtd">
<svg width="210mm" height="297mm" viewBox="-7000 500 14000 20000" version="1.1" xmlns="http://www.w3.org/2000/svg">

<polyline points="771,2605 771,2606 774,2606 772,2607 772,2608 769,2608 771,2609 768,2611 766,2610 765,2611 755,2607 751,2606 753,2606 753,2603 794,2598 " style="fill: white; stroke: black; stroke-width: 30" />
<polyline points="190,2254 188,2253 188,2254 185,2253 185,2255 182,2255 186,2258 186,2258 185,2261 180,2259 169,2255 170,2253 170,2253 172,2233 " style="fill: white; stroke: black; stroke-width: 30" />
<polyline points="93,2448 94,2447 101,2446 121,2440 174,2423 223,2411 257,2405 281,2403 296,2400 298,2402 298,2402 297,2403 290,2407 280,2415 273,2421 264,2436 256,2458 245,2504 243,2546 242,2581 244,2605 245,2619 249,2618 253,2611 261,2586 277,2531 295,2480 317,2445 332,2424 332,2427 329,2449 330,2489 336,2514 351,2539 386,2566 422,2590 439,2592 " style="fill: white; stroke: black; stroke-width: 30" />

</svg>