<?xml version="1.0" standalone="no"?>
<!DOCTYPE svg PUBLIC "-//W3C//DTD SVG 1.1//EN" "http://www.w3.org/Graphics/SVG/1.1/DTD/svg11.dtd">
<svg width="210mm" height="297mm" viewBox="-7000 500 14000 20000" version="1.1" xmlns="http://www.w3.org/2000/svg">

<polyline points="-3339,2370 -3345,2373 -3346,2391 -3341,2439 -3342,2521 -3339,2593 -3330,2662 -3321,2719 -3309,2753 " style="fill: white; stroke: black; stroke-width: 30" />
<polyline points="-3347,2532 -3356,2534 -3361,2538 -3368,2541 -3368,2541 -3366,2543 -3369,2541 -3365,2544 -3367,2542 -3364,2544 -3354,2542 -3326,2542 -3267,2538 -3163,2527 -3008,2518 -2829,2505 -2643,2496 -2420,2502 -2174,2494 -1892,2504 -1632,2520 -1452,2559 -1335,2567 -1287,2571 -1275,2569 -1277,2569 -1280,2564 -1282,2562 -1285,2557 -1282,2557 -1277,2558 -1278,2563 " style="fill: white; stroke: black; stroke-width: 30" />
<polyline points="-1314,2442 -1314,2443 -1311,2443 -1300,2446 -1251,2455 -1196,2477 -1154,2504 -1139,2533 -1147,2562 -1180,2596 -1255,2626 -1357,2653 -1428,2672 -1452,2683 -1451,2683 -1432,2684 " style="fill: white; stroke: black; stroke-width: 30" />
<polyline points="-2958,2660 -2968,2665 -2980,2672 -2987,2693 -2987,2733 -2979,2794 -2963,2844 -2956,2877 -2949,2896 -2946,2901 " style="fill: white; stroke: black; stroke-width: 30" />
<polyline points="-3030,2672 -3055,2664 -3070,2658 -3072,2657 -3070,2654 -3065,2650 -3052,2639 -2999,2623 -2928,2620 -2849,2658 -2793,2735 -2784,2818 -2806,2890 -2849,2939 -2894,2947 -2937,2927 -2961,2892 -2969,2861 -2967,2837 -2956,2833 -2918,2855 -2855,2887 -2787,2907 -2713,2906 -2651,2886 -2615,2853 -2615,2820 -2656,2787 -2717,2788 -2771,2822 -2787,2867 -2747,2916 -2670,2927 -2586,2890 -2540,2828 -2546,2797 -2570,2781 -2594,2788 -2598,2813 -2592,2861 -2578,2926 -2566,2992 -2554,3039 -2544,3057 -2539,3048 -2529,2999 -2528,2912 -2530,2839 -2541,2782 -2541,2754 -2535,2756 -2510,2766 -2461,2802 -2427,2840 -2421,2865 -2443,2878 -2496,2866 -2543,2839 -2553,2816 -2546,2798 -2519,2789 -2462,2789 -2404,2800 -2356,2809 -2335,2811 -2334,2815 -2338,2814 -2344,2818 -2346,2822 -2345,2840 -2340,2861 -2335,2874 -2323,2864 -2296,2815 -2275,2758 -2259,2722 -2249,2700 -2246,2700 -2241,2705 -2236,2714 -2235,2720 -2234,2724 -2232,2724 -2236,2722 -2236,2721 -2238,2721 -2239,2719 -2238,2720 -2240,2719 -2238,2720 -2239,2719 -2240,2718 -2239,2719 -2240,2719 -2239,2717 -2239,2717 -2240,2715 -2237,2717 -2240,2714 -2238,2715 -2237,2715 -2239,2715 -2237,2714 -2237,2715 -2235,2713 -2233,2712 -2224,2701 " style="fill: white; stroke: black; stroke-width: 30" />
<polyline points="-2133,2726 -2143,2727 -2147,2728 -2149,2742 -2153,2765 -2167,2804 -2174,2847 -2178,2880 -2179,2912 -2175,2922 -2169,2916 -2155,2878 " style="fill: white; stroke: black; stroke-width: 30" />
<polyline points="-2103,2582 -2115,2584 -2117,2584 -2114,2587 -2107,2592 -2100,2620 " style="fill: white; stroke: black; stroke-width: 30" />
<polyline points="-2039,2681 -2056,2699 -2074,2725 -2096,2766 -2109,2815 -2109,2863 -2086,2896 -2044,2902 -1988,2880 -1948,2837 -1934,2797 -1938,2770 -1946,2759 -1946,2758 -1947,2765 -1946,2766 -1948,2770 " style="fill: white; stroke: black; stroke-width: 30" />
<polyline points="-1868,2795 -1844,2757 -1810,2733 -1775,2742 -1743,2790 -1735,2853 -1756,2893 -1792,2919 -1834,2911 -1864,2893 -1872,2879 -1867,2876 -1860,2880 -1848,2883 -1823,2886 -1790,2862 " style="fill: white; stroke: black; stroke-width: 30" />
<polyline points="-1599,2636 -1600,2632 -1610,2633 -1624,2647 -1645,2694 -1663,2776 -1671,2835 -1680,2874 -1682,2881 -1686,2875 -1686,2855 -1678,2845 -1667,2835 -1636,2837 -1601,2839 -1580,2845 -1579,2845 -1578,2849 -1583,2857 -1584,2878 -1585,2886 -1580,2882 " style="fill: white; stroke: black; stroke-width: 30" />
<polyline points="-1527,2722 -1538,2703 -1547,2694 -1547,2690 -1541,2695 " style="fill: white; stroke: black; stroke-width: 30" />
<polyline points="-1480,2865 -1498,2841 -1497,2804 -1479,2782 -1459,2797 -1451,2844 -1460,2893 -1474,2912 -1487,2906 -1506,2881 -1509,2841 -1486,2808 " style="fill: white; stroke: black; stroke-width: 30" />
<polyline points="-1382,2895 -1389,2881 -1374,2861 -1343,2860 -1328,2875 -1319,2908 -1317,2931 -1310,2938 " style="fill: white; stroke: black; stroke-width: 30" />
<polyline points="-842,2355 -849,2358 -858,2380 -886,2490 -901,2615 -892,2688 -871,2717 -854,2726 -849,2715 -861,2676 " style="fill: white; stroke: black; stroke-width: 30" />
<polyline points="-888,2578 -906,2554 -916,2539 -920,2532 -920,2531 -921,2531 -921,2531 -919,2532 -915,2534 -896,2539 -823,2547 -681,2544 -458,2533 -184,2528 80,2530 277,2544 374,2551 387,2553 381,2551 376,2550 373,2548 375,2547 376,2545 378,2548 382,2547 385,2548 " style="fill: white; stroke: black; stroke-width: 30" />
<polyline points="391,2407 391,2406 405,2417 445,2443 509,2464 574,2485 602,2496 596,2503 547,2519 445,2567 361,2603 334,2630 346,2638 382,2655 " style="fill: white; stroke: black; stroke-width: 30" />
<polyline points="-401,1847 -408,1827 -416,1825 -422,1845 -439,1923 -458,2037 -471,2132 -481,2200 -495,2240 -517,2256 -554,2246 -588,2200 -594,2075 -553,2021 -489,2008 " style="fill: white; stroke: black; stroke-width: 30" />
<polyline points="-302,2001 -314,2001 -330,2008 -353,2042 -380,2101 -383,2142 -363,2160 -326,2149 -286,2100 -276,2077 -276,2080 -279,2096 -270,2131 -245,2154 -215,2144 -196,2128 -190,2125 -196,2140 -199,2144 -186,2136 -145,2098 -102,2062 -75,2056 -61,2080 -42,2126 -11,2151 35,2148 78,2124 98,2106 89,2088 68,2069 41,2050 13,2058 -2,2088 11,2146 40,2215 56,2311 50,2388 36,2432 27,2430 5,2403 -19,2325 -26,2256 -17,2230 " style="fill: white; stroke: black; stroke-width: 30" />
<polyline points="-486,2721 -477,2697 -494,2689 -544,2695 -603,2721 -637,2746 -635,2782 -607,2831 -560,2889 -548,2921 -559,2940 -589,2944 -625,2935 -637,2913 -621,2847 -575,2790 -508,2743 -451,2716 -430,2714 -441,2754 -466,2819 -472,2861 -455,2867 -414,2846 -377,2800 -362,2783 -364,2786 -366,2800 -363,2819 -349,2843 -317,2851 " style="fill: white; stroke: black; stroke-width: 30" />
<polyline points="-227,2727 -241,2781 -244,2860 -251,2958 -267,3028 -279,3055 -284,3053 -284,3038 -270,2954 -239,2861 -190,2797 -138,2770 -106,2766 -99,2788 -112,2818 -144,2842 -169,2845 -182,2834 -190,2803 -186,2782 -181,2763 -173,2756 -145,2757 -96,2761 " style="fill: white; stroke: black; stroke-width: 30" />
<polyline points="-47,2904 -101,2949 -137,3000 -150,3040 -151,3048 -151,3038 -146,2995 -137,2919 -113,2836 -68,2780 -24,2753 2,2753 10,2775 1,2828 -15,2870 -33,2902 -43,2905 -54,2884 -57,2831 -53,2784 -39,2764 -12,2761 28,2777 61,2809 79,2840 83,2871 76,2870 51,2859 23,2821 11,2786 19,2766 45,2766 83,2782 94,2825 93,2861 85,2872 77,2864 71,2825 77,2777 88,2755 103,2751 140,2759 194,2764 247,2757 287,2727 301,2686 294,2659 285,2651 281,2653 267,2697 234,2785 219,2843 217,2856 217,2851 222,2820 226,2798 237,2781 255,2777 299,2776 345,2784 " style="fill: white; stroke: black; stroke-width: 30" />
<polyline points="-264,1937 -277,1931 -279,1927 -276,1932 -260,1935 -228,1942 -173,1944 -98,1944 " style="fill: white; stroke: black; stroke-width: 30" />
<polyline points="226,2139 228,2134 244,2126 271,2122 296,2111 314,2102 318,2085 309,2067 282,2053 239,2062 203,2091 194,2126 205,2152 237,2168 287,2173 342,2169 380,2149 399,2128 404,2097 406,2068 416,2040 424,2028 427,2027 432,2032 457,2045 516,2071 " style="fill: white; stroke: black; stroke-width: 30" />
<polyline points="925,1482 915,1471 907,1467 903,1474 896,1496 890,1551 876,1648 849,1779 832,1924 840,2061 858,2163 " style="fill: white; stroke: black; stroke-width: 30" />
<polyline points="781,2242 788,2200 785,2183 782,2192 778,2245 775,2346 787,2424 812,2447 852,2429 911,2349 973,2229 1012,2158 1025,2141 " style="fill: white; stroke: black; stroke-width: 30" />
<polyline points="1027,1485 1020,1479 1022,1462 1061,1403 1138,1299 1197,1212 1224,1170 1224,1175 1220,1195 1222,1262 1235,1334 1261,1391 1285,1423 1296,1434 1291,1432 " style="fill: white; stroke: black; stroke-width: 30" />
<polyline points="1113,1363 1046,1337 1010,1320 1011,1323 1026,1335 1073,1358 1137,1377 1199,1386 1244,1383 1265,1385 1265,1388 1264,1393 1263,1394 1266,1394 1264,1389 1267,1387 1266,1385 1266,1384 1265,1381 1265,1381 1266,1380 1267,1381 1267,1379 1268,1379 1267,1377 1268,1377 1267,1377 1268,1377 1268,1376 1269,1377 1269,1378 1270,1382 1279,1389 1307,1400 1334,1395 1349,1387 1353,1376 1357,1365 1356,1354 1367,1340 1386,1310 1411,1285 1419,1284 1416,1299 1413,1328 1413,1360 1428,1379 1462,1385 1503,1374 1518,1373 1517,1376 1521,1382 1530,1385 1553,1388 1577,1389 1585,1394 1586,1395 1591,1398 1598,1399 1614,1400 " style="fill: white; stroke: black; stroke-width: 30" />
<polyline points="1731,1293 1714,1313 1690,1343 1668,1390 1677,1415 1707,1422 1765,1399 1839,1362 1879,1338 1878,1341 1863,1357 1825,1409 1800,1457 1797,1493 1800,1519 1801,1544 " style="fill: white; stroke: black; stroke-width: 30" />
<polyline points="2048,1380 2048,1377 2046,1373 2030,1366 1980,1361 1910,1388 1876,1422 1890,1445 1940,1451 2000,1440 2021,1428 2011,1440 1973,1504 1949,1582 1924,1646 1906,1683 1886,1688 1859,1672 1839,1602 1831,1522 " style="fill: white; stroke: black; stroke-width: 30" />
<polyline points="2249,1395 2242,1385 2239,1367 2231,1351 2200,1320 2143,1318 2096,1348 2078,1388 2084,1411 2111,1418 2160,1392 2229,1321 2267,1258 2271,1232 2254,1237 2235,1260 2224,1313 2238,1355 2266,1375 2305,1386 2331,1400 2352,1409 2367,1409 2389,1393 2408,1363 2421,1332 2426,1318 2451,1302 2484,1297 2519,1300 2536,1314 2535,1336 2509,1377 2465,1425 2419,1453 2381,1466 2361,1458 2360,1447 2367,1431 2396,1409 2426,1397 2459,1399 2507,1392 2575,1365 2651,1316 2722,1248 2742,1206 2733,1194 2699,1198 2637,1238 2584,1297 2577,1359 2599,1404 2638,1427 2680,1430 2723,1414 2756,1384 2797,1340 2826,1315 2832,1309 2823,1306 2811,1304 2810,1293 2820,1286 2852,1280 2875,1295 2881,1328 2874,1367 2843,1404 2815,1417 2780,1411 2770,1394 2768,1374 2774,1369 2782,1373 2810,1386 2855,1396 2900,1415 2922,1449 " style="fill: white; stroke: black; stroke-width: 30" />
<polyline points="1077,2530 1050,2527 1028,2536 1011,2541 1002,2541 1000,2542 1006,2539 1034,2536 1129,2522 1276,2498 1450,2478 1633,2472 1792,2463 1903,2454 1950,2452 1954,2454 1952,2453 1950,2456 1950,2457 1952,2458 1952,2457 1956,2458 1959,2458 1962,2460 " style="fill: white; stroke: black; stroke-width: 30" />
<polyline points="1919,2347 1929,2351 1970,2379 2046,2418 2130,2448 2171,2470 2171,2474 2153,2486 2131,2501 2095,2524 2030,2565 2008,2576 1994,2584 1996,2584 2002,2581 2011,2573 " style="fill: white; stroke: black; stroke-width: 30" />

</svg>