<?xml version="1.0" standalone="no"?>
<!DOCTYPE svg PUBLIC "-//W3C//DTD SVG 1.1//EN" "http://www.w3.org/Graphics/SVG/1.1/DTD/svg11.dtd">
<svg width="210mm" height="297mm" viewBox="-7000 500 14000 20000" version="1.1" xmlns="http://www.w3.org/2000/svg">

<polyline points="-2775,2040 -2792,2043 -2801,2066 -2805,2135 -2796,2226 -2782,2292 -2773,2318 -2775,2322 -2789,2303 -2804,2272 -2817,2203 -2828,2129 -2835,2061 -2841,2029 -2831,2002 -2800,1980 -2761,1965 -2729,1973 -2710,1993 -2716,2047 -2743,2086 -2763,2112 -2764,2126 -2751,2163 -2721,2213 -2687,2272 -2679,2310 -2684,2323 -2711,2314 -2773,2281 -2840,2226 -2869,2199 -2870,2193 -2851,2185 -2784,2164 " style="fill: white; stroke: black; stroke-width: 30" />
<polyline points="-2518,2118 -2525,2119 -2536,2132 -2558,2176 -2571,2231 -2575,2273 -2573,2292 -2567,2292 " style="fill: white; stroke: black; stroke-width: 30" />
<polyline points="-2548,1960 -2586,1935 -2603,1920 -2600,1917 -2579,1907 -2529,1918 -2501,1950 -2499,1990 -2510,2013 -2536,2021 -2562,1999 -2583,1950 -2587,1908 -2575,1890 " style="fill: white; stroke: black; stroke-width: 30" />
<polyline points="-2360,2210 -2364,2188 -2359,2159 -2363,2128 -2393,2115 -2450,2134 -2464,2166 -2432,2193 -2349,2198 -2293,2182 -2284,2180 -2293,2192 -2305,2263 -2310,2406 -2310,2532 -2333,2625 -2360,2655 -2393,2647 -2431,2599 -2461,2507 -2451,2400 -2415,2324 " style="fill: white; stroke: black; stroke-width: 30" />
<polyline points="-1279,2035 -1297,2044 -1303,2065 -1314,2155 -1332,2262 -1341,2344 -1346,2402 -1345,2416 -1346,2397 -1352,2354 -1369,2274 -1379,2155 -1376,2045 -1353,1989 -1298,1974 -1212,2022 -1149,2144 -1141,2265 -1169,2369 -1222,2438 -1287,2451 -1363,2413 -1419,2346 -1444,2272 -1415,2209 " style="fill: white; stroke: black; stroke-width: 30" />
<polyline points="-958,2247 -951,2221 -932,2217 -907,2256 -902,2336 -937,2422 -986,2466 -1038,2470 -1059,2440 -1058,2372 -1037,2341 -1016,2345 -985,2369 -944,2408 -881,2415 -786,2371 -682,2267 -620,2170 -621,2153 -641,2169 -708,2288 -776,2431 -787,2507 -786,2516 -782,2482 -764,2396 -737,2337 -728,2333 -706,2336 -679,2352 -659,2369 -630,2380 -601,2371 " style="fill: white; stroke: black; stroke-width: 30" />
<polyline points="-585,2286 -583,2268 -581,2258 -561,2241 -533,2215 -492,2191 -449,2195 -420,2229 -418,2290 -470,2372 -530,2425 -567,2444 -583,2431 -586,2411 -581,2398 -575,2398 -559,2401 -522,2418 -494,2434 -460,2480 " style="fill: white; stroke: black; stroke-width: 30" />
<polyline points="608,2127 608,2112 582,2127 519,2217 463,2341 438,2444 451,2509 " style="fill: white; stroke: black; stroke-width: 30" />
<polyline points="749,2266 713,2251 636,2253 510,2296 424,2358 422,2405 484,2447 592,2466 703,2462 " style="fill: white; stroke: black; stroke-width: 30" />
<polyline points="803,2370 792,2332 801,2306 826,2296 857,2311 881,2364 866,2448 823,2509 764,2545 712,2540 696,2508 704,2490 729,2475 769,2478 842,2491 941,2495 " style="fill: white; stroke: black; stroke-width: 30" />
<polyline points="1141,2401 1098,2372 1060,2362 1042,2372 1022,2429 1008,2492 990,2526 959,2543 923,2528 908,2496 944,2444 1071,2372 1235,2295 1383,2218 1436,2189 1424,2188 1371,2218 1266,2321 1194,2431 1168,2484 1168,2483 1178,2465 1196,2425 1212,2412 1217,2415 1233,2433 1258,2468 1280,2490 1304,2480 1324,2439 1347,2381 1362,2350 1381,2330 1415,2319 " style="fill: white; stroke: black; stroke-width: 30" />
<polyline points="1558,2315 1551,2304 1552,2306 1557,2339 1549,2396 1505,2454 1454,2490 1412,2498 1404,2483 1421,2449 1450,2418 1473,2415 1497,2432 1550,2474 1617,2508 " style="fill: white; stroke: black; stroke-width: 30" />
<polyline points="1878,2159 1847,2139 1825,2147 1763,2235 1693,2363 1652,2476 1632,2527 1629,2534 1635,2511 1658,2461 1684,2424 1714,2410 1743,2409 1801,2421 1862,2424 1915,2425 1928,2426 1920,2430 1903,2439 1885,2473 1863,2518 1844,2549 1825,2581 " style="fill: white; stroke: black; stroke-width: 30" />
<polyline points="2042,2175 2020,2117 2025,2097 2045,2104 2095,2146 2120,2199 2096,2221 2042,2220 2004,2192 2009,2173 2068,2121 2177,2084 " style="fill: white; stroke: black; stroke-width: 30" />
<polyline points="2656,2237 2638,2235 2616,2243 2573,2272 2515,2333 2490,2391 2492,2416 2512,2435 2563,2432 2624,2420 2642,2429 2638,2455 2628,2505 2631,2552 2669,2556 " style="fill: white; stroke: black; stroke-width: 30" />
<polyline points="2840,2351 2825,2344 2825,2341 2835,2343 2858,2368 2888,2427 2891,2480 2865,2530 2812,2568 2760,2584 2747,2581 2755,2559 2778,2508 2793,2490 2793,2499 2803,2542 2818,2576 2853,2580 " style="fill: white; stroke: black; stroke-width: 30" />
<polyline points="3119,2277 3118,2259 3112,2258 3096,2296 3028,2401 2956,2508 2934,2558 2941,2565 2953,2555 3010,2526 3065,2501 3069,2505 3064,2530 3056,2565 3047,2583 3052,2583 " style="fill: white; stroke: black; stroke-width: 30" />
<polyline points="3271,2437 3254,2433 3250,2436 3256,2457 3259,2485 3240,2531 3173,2585 3125,2623 3121,2629 3123,2621 3131,2575 3133,2535 3136,2534 3170,2552 3234,2595 3302,2642 3338,2671 " style="fill: white; stroke: black; stroke-width: 30" />
<polyline points="-2725,2815 -2734,2815 -2751,2817 -2770,2835 -2793,2880 -2803,2956 -2791,3033 -2775,3110 -2767,3166 -2774,3192 -2778,3197 -2795,3191 -2837,3163 -2906,3084 -2940,2971 " style="fill: white; stroke: black; stroke-width: 30" />
<polyline points="-2836,2830 -2831,2825 -2808,2828 -2789,2830 -2751,2833 -2682,2843 -2585,2864 " style="fill: white; stroke: black; stroke-width: 30" />
<polyline points="-2431,2792 -2462,2780 -2474,2781 -2486,2808 -2509,2903 -2516,2972 -2499,3003 -2456,3033 -2392,3047 -2333,3048 -2283,3023 " style="fill: white; stroke: black; stroke-width: 30" />
<polyline points="-2346,2844 -2370,2840 -2377,2863 -2424,2979 -2478,3129 -2482,3239 " style="fill: white; stroke: black; stroke-width: 30" />
<polyline points="-1020,2864 -1030,2856 -1038,2860 -1053,2900 -1072,3000 -1088,3081 -1090,3137 -1080,3159 -1044,3155 -1002,3111 -980,3071 -983,3066 -995,3060 -995,3057 -980,3047 -939,3025 -915,3015 -905,3026 -899,3056 -894,3107 -872,3145 -826,3142 " style="fill: white; stroke: black; stroke-width: 30" />
<polyline points="-631,2917 -621,2894 -631,2894 -649,2910 -698,2993 -748,3113 -758,3171 -755,3189 -750,3172 -741,3109 -728,3052 -718,3039 -708,3039 -679,3053 -641,3077 -609,3098 -582,3112 -572,3119 -570,3114 -567,3099 -558,3071 -550,3053 -544,3040 -543,3040 -523,3037 -463,3038 " style="fill: white; stroke: black; stroke-width: 30" />
<polyline points="-311,3072 -359,3058 -411,3055 -446,3066 -451,3081 -428,3114 -375,3132 -321,3121 -304,3103 -309,3095 -325,3077 -332,3073 -325,3075 -307,3082 -288,3087 " style="fill: white; stroke: black; stroke-width: 30" />
<polyline points="-198,3103 -180,3081 -179,3055 -183,3048 -184,3044 -185,3044 -186,3042 -186,3043 -186,3042 -187,3044 -188,3043 -188,3043 -190,3044 -188,3045 -189,3044 -190,3045 -189,3044 -189,3047 -191,3053 -217,3122 -270,3235 -316,3351 -354,3429 -372,3461 -379,3429 " style="fill: white; stroke: black; stroke-width: 30" />
<polyline points="-235,2760 -211,2714 -197,2697 -195,2697 -194,2698 -192,2705 -184,2713 " style="fill: white; stroke: black; stroke-width: 30" />
<polyline points="-143,3058 -153,3038 -144,3036 -88,3032 -14,3017 22,3008 9,2999 -37,3001 -88,3031 -97,3056 -65,3096 3,3116 " style="fill: white; stroke: black; stroke-width: 30" />
<polyline points="331,2799 299,2801 252,2839 179,2930 131,3015 122,3069 138,3091 173,3083 219,3055 259,3016 271,2985 248,2973 207,2970 164,2982 143,3008 150,3033 175,3057 214,3075 272,3073 " style="fill: white; stroke: black; stroke-width: 30" />
<polyline points="600,2848 567,2819 548,2814 518,2836 442,2937 384,3037 367,3099 366,3111 371,3095 381,3072 399,3055 438,3040 503,3022 590,3000 " style="fill: white; stroke: black; stroke-width: 30" />
<polyline points="1262,3265 1274,3224 1297,3144 1345,3037 1398,2922 1422,2860 1425,2847 1420,2858 1401,2894 1380,2940 1361,3003 1355,3066 1366,3140 1412,3190 1493,3189 1587,3143 1668,3076 1711,3014 1713,2983 1707,2982 1704,2984 1709,2987 1711,2990 1714,3000 1701,3034 " style="fill: white; stroke: black; stroke-width: 30" />
<polyline points="1692,3135 1710,3145 1755,3137 1819,3106 1857,3069 1860,3036 1838,3027 1792,3043 1741,3095 1731,3152 1753,3187 1811,3220 1879,3237 " style="fill: white; stroke: black; stroke-width: 30" />
<polyline points="1961,3200 1949,3220 1941,3228 1947,3227 1957,3223 1974,3211 1982,3202 1984,3200 1981,3199 1983,3200 1981,3200 1983,3201 1979,3200 1978,3201 1978,3200 1979,3200 1976,3197 1977,3197 1978,3194 1979,3191 1977,3178 1963,3158 1924,3152 1887,3162 1870,3184 1873,3212 1894,3240 1932,3265 1981,3269 2026,3253 2040,3226 2028,3199 2008,3176 1997,3170 2001,3171 2020,3171 " style="fill: white; stroke: black; stroke-width: 30" />
<polyline points="2528,3063 2533,3022 2511,2991 2450,2966 2333,2977 2232,3032 2188,3103 2181,3170 2209,3212 2267,3236 2347,3219 2418,3183 2452,3152 2455,3164 " style="fill: white; stroke: black; stroke-width: 30" />
<polyline points="2515,3213 2515,3182 2527,3159 2551,3149 2581,3152 2594,3168 2590,3191 2572,3229 2533,3270 2519,3276 2515,3261 2511,3234 2512,3187 2517,3163 2521,3160 2523,3167 2521,3184 2521,3224 " style="fill: white; stroke: black; stroke-width: 30" />
<polyline points="2634,3277 2637,3239 2663,3190 2720,3145 2786,3127 2834,3141 2861,3169 2870,3211 " style="fill: white; stroke: black; stroke-width: 30" />
<polyline points="3085,3024 3057,3043 2988,3108 2918,3196 2884,3265 2877,3301 2876,3305 2880,3292 2891,3257 2902,3235 2909,3235 2971,3241 3035,3263 3083,3264 3082,3250 3055,3223 3016,3211 2998,3228 3009,3277 3047,3336 3116,3370 3190,3373 " style="fill: white; stroke: black; stroke-width: 30" />
<polyline points="3325,3175 3318,3153 3316,3140 3316,3139 3316,3142 3318,3145 3318,3143 3315,3144 3317,3140 3321,3138 3323,3137 3324,3138 3324,3139 3327,3139 3325,3140 3327,3141 3326,3142 3330,3141 3329,3140 3331,3141 3327,3141 3331,3140 3328,3142 3332,3140 3330,3139 3327,3140 3327,3140 3328,3140 3329,3138 3327,3140 3328,3136 3328,3137 3325,3138 3327,3136 3324,3137 3329,3135 3327,3134 3326,3136 3325,3136 3327,3135 3327,3134 3327,3136 3326,3136 3324,3137 3324,3137 3323,3139 3321,3139 3312,3149 3292,3173 3239,3255 3199,3313 " style="fill: white; stroke: black; stroke-width: 30" />
<polyline points="3245,3147 3226,3143 3234,3154 3259,3197 3308,3261 3351,3328 3372,3375 " style="fill: white; stroke: black; stroke-width: 30" />
<polyline points="-2067,4651 -2067,4656 -2064,4656 -2059,4659 -2049,4661 -2019,4665 -1941,4663 -1823,4653 -1683,4633 -1586,4629 -1552,4632 -1550,4635 -1554,4633 -1554,4632 -1554,4628 -1556,4627 -1558,4623 -1558,4622 -1558,4620 -1551,4614 -1514,4574 -1488,4538 -1489,4531 -1495,4531 -1496,4530 -1492,4530 -1492,4527 -1489,4527 -1489,4526 -1480,4515 -1462,4478 -1455,4471 -1459,4465 -1460,4464 -1465,4463 -1462,4464 -1462,4462 -1462,4463 -1467,4463 -1473,4467 -1482,4467 -1486,4468 -1495,4464 -1531,4459 -1608,4448 -1709,4436 -1817,4414 -1889,4394 -1926,4378 -1943,4375 -1944,4374 -1943,4375 -1941,4374 -1940,4376 -1938,4374 -1939,4375 -1937,4376 -1938,4379 -1937,4378 -1941,4379 -1937,4378 -1937,4380 -1934,4379 -1934,4380 -1933,4379 -1933,4380 -1933,4379 -1931,4379 -1931,4377 -1930,4380 -1930,4378 -1931,4377 -1928,4373 -1925,4369 -1916,4318 -1911,4271 -1910,4249 -1903,4221 -1892,4193 -1887,4177 -1884,4166 -1883,4164 -1882,4163 -1885,4167 -1886,4167 -1885,4168 -1885,4166 -1882,4167 -1885,4164 -1883,4164 -1876,4164 -1833,4165 -1738,4169 -1611,4181 -1494,4193 -1417,4205 -1384,4208 -1386,4209 -1391,4208 -1394,4209 -1393,4207 -1393,4206 -1390,4204 -1388,4204 " style="fill: white; stroke: black; stroke-width: 30" />
<polyline points="-970,4365 -969,4363 -969,4364 -971,4366 -977,4367 -988,4371 -1012,4375 -1068,4377 -1118,4382 -1155,4390 -1181,4392 -1197,4398 -1201,4397 -1197,4394 -1195,4389 -1193,4388 -1191,4384 -1188,4384 " style="fill: white; stroke: black; stroke-width: 30" />
<polyline points="-1195,4300 -1193,4296 -1187,4297 -1190,4305 -1201,4310 -1235,4333 -1279,4356 -1296,4362 -1302,4365 -1304,4370 -1305,4369 -1304,4370 -1302,4368 -1302,4366 -1300,4365 -1295,4369 -1274,4379 -1223,4403 -1175,4422 " style="fill: white; stroke: black; stroke-width: 30" />
<polyline points="-2050,5131 -2048,5128 -2038,5119 -2022,5099 -1984,5033 -1928,4934 -1882,4861 -1864,4828 -1858,4817 -1860,4817 -1861,4817 -1858,4820 -1861,4819 -1857,4820 -1859,4816 -1857,4816 -1860,4816 " style="fill: white; stroke: black; stroke-width: 30" />
<polyline points="-1931,4847 -1957,4832 -1968,4811 -1961,4796 -1924,4772 -1867,4748 -1828,4736 -1821,4735 -1821,4733 -1822,4736 -1826,4740 -1828,4755 -1833,4792 -1832,4835 -1813,4891 -1763,4938 " style="fill: white; stroke: black; stroke-width: 30" />
<polyline points="166,4150 167,4121 133,4101 51,4111 -59,4169 -144,4253 -178,4319 -148,4365 -62,4401 66,4396 179,4359 238,4317 244,4295 237,4292 237,4298 235,4333 230,4383 227,4429 232,4437 242,4427 256,4380 269,4317 277,4268 282,4256 288,4249 308,4248 372,4245 " style="fill: white; stroke: black; stroke-width: 30" />
<polyline points="586,4302 542,4275 477,4257 419,4263 407,4276 420,4316 468,4352 532,4364 574,4350 581,4322 572,4291 553,4272 552,4275 557,4290 583,4333 603,4370 629,4396 665,4397 700,4366 719,4327 721,4309 724,4310 721,4317 719,4345 727,4391 751,4434 790,4466 818,4475 827,4461 841,4416 846,4388 847,4385 848,4389 852,4399 863,4414 894,4443 947,4453 1001,4440 1023,4405 1028,4369 1020,4338 1019,4327 " style="fill: white; stroke: black; stroke-width: 30" />
<polyline points="1219,4360 1209,4351 1194,4342 1163,4338 1107,4340 1031,4365 984,4394 973,4421 999,4444 1061,4451 1159,4411 1251,4344 1313,4268 1330,4210 1322,4182 1312,4167 1311,4167 1314,4171 1314,4173 1311,4179 1308,4183 1306,4192 1302,4212 1296,4246 1285,4292 1287,4342 1298,4400 1319,4442 " style="fill: white; stroke: black; stroke-width: 30" />
<polyline points="-1181,6091 -1197,6060 -1243,6030 -1328,6014 -1451,6035 -1576,6104 -1649,6176 -1656,6217 -1632,6240 -1553,6282 -1456,6301 -1359,6302 " style="fill: white; stroke: black; stroke-width: 30" />
<polyline points="-1419,6209 -1440,6187 -1434,6180 -1398,6174 -1344,6175 -1305,6189 -1291,6212 -1306,6278 -1344,6337 -1353,6356 " style="fill: white; stroke: black; stroke-width: 30" />
<polyline points="-1157,6160 -1160,6155 -1134,6141 -1074,6120 -1020,6113 -993,6131 -978,6167 -990,6215 -1030,6270 -1110,6324 -1170,6337 -1197,6322 -1199,6297 -1191,6273 -1172,6258 -1152,6261 -1106,6287 -1050,6333 -1010,6369 -992,6381 -987,6367 -984,6333 -965,6280 -937,6240 -912,6227 -878,6221 -828,6230 " style="fill: white; stroke: black; stroke-width: 30" />
<polyline points="-629,6239 -638,6226 -645,6219 -651,6217 -653,6214 -647,6214 -647,6212 -646,6212 -647,6212 -646,6211 -655,6207 -678,6193 -731,6189 -784,6206 -794,6220 -778,6229 -737,6232 -692,6235 -674,6242 -674,6260 -676,6316 -682,6409 -696,6497 -730,6573 -774,6628 -808,6642 -840,6610 -852,6463 " style="fill: white; stroke: black; stroke-width: 30" />
<polyline points="-549,6126 -545,6101 -506,6082 -455,6089 -401,6141 -382,6219 -422,6299 -487,6339 -550,6339 -583,6313 -585,6279 -569,6265 -532,6255 -482,6266 -417,6281 -348,6268 -281,6231 -248,6206 -253,6202 -268,6211 -295,6236 -306,6254 -292,6254 -257,6250 -217,6236 -203,6239 -203,6248 -187,6274 -160,6287 -111,6286 -85,6286 -85,6292 -85,6294 -61,6295 9,6275 80,6240 97,6212 72,6206 27,6222 -2,6264 12,6298 82,6318 209,6287 355,6209 484,6061 510,5982 473,5961 406,5999 305,6154 262,6280 269,6349 304,6365 " style="fill: white; stroke: black; stroke-width: 30" />
<polyline points="1368,6357 1318,6340 1298,6307 1306,6263 1373,6171 1461,6138 1534,6164 1570,6251 1556,6345 1499,6398 1439,6412 1384,6402 1359,6377 1361,6345 1376,6293 1409,6232 " style="fill: white; stroke: black; stroke-width: 30" />
<polyline points="1706,6123 1792,6054 1862,6007 1884,5984 1882,5979 " style="fill: white; stroke: black; stroke-width: 30" />
<polyline points="1760,5953 1769,5942 1843,5905 1944,5873 2033,5859 2052,5862 2036,5869 1989,5912 1925,5993 1906,6094 " style="fill: white; stroke: black; stroke-width: 30" />
<polyline points="-1175,7244 -1165,7216 -1164,7191 -1198,7176 -1288,7175 -1399,7215 -1443,7256 -1439,7308 -1407,7377 -1387,7430 -1397,7460 -1422,7472 -1463,7462 -1470,7449 -1459,7430 -1416,7387 " style="fill: white; stroke: black; stroke-width: 30" />
<polyline points="-1092,7334 -1168,7339 -1254,7358 -1323,7395 -1317,7408 -1252,7437 -1127,7412 -983,7340 -886,7258 -871,7214 -887,7195 -900,7197 -906,7210 -929,7270 -947,7338 -940,7374 -924,7382 -886,7389 -864,7396 -860,7412 -851,7426 " style="fill: white; stroke: black; stroke-width: 30" />
<polyline points="-551,7139 -566,7150 -621,7211 -688,7307 -710,7377 -687,7424 -630,7440 -541,7423 -478,7390 -453,7362 -453,7356 -453,7356 -456,7358 -466,7367 -490,7387 -507,7412 -498,7419 -448,7411 -386,7397 -365,7400 -364,7412 " style="fill: white; stroke: black; stroke-width: 30" />
<polyline points="-324,7212 -328,7201 -325,7198 -296,7200 -216,7198 " style="fill: white; stroke: black; stroke-width: 30" />
<polyline points="-275,7387 -283,7416 -307,7455 -326,7480 -321,7482 -314,7478 -285,7463 -240,7445 -212,7439 -203,7443 -186,7446 -155,7445 -124,7452 -108,7467 -116,7483 -112,7498 -63,7488 " style="fill: white; stroke: black; stroke-width: 30" />
<polyline points="81,7371 78,7372 74,7386 69,7421 35,7492 -13,7583 -69,7656 -112,7704 -134,7715 -128,7701 -86,7612 25,7470 132,7405 187,7398 198,7417 160,7453 92,7472 41,7458 28,7435 32,7431 63,7432 169,7442 310,7430 441,7410 532,7363 564,7299 544,7255 518,7243 488,7255 409,7356 292,7503 223,7611 199,7644 201,7639 223,7616 276,7590 363,7558 458,7517 555,7443 605,7390 584,7377 560,7380 539,7395 535,7420 537,7440 549,7447 588,7444 632,7423 634,7415 602,7419 540,7454 524,7488 566,7539 675,7555 " style="fill: white; stroke: black; stroke-width: 30" />
<polyline points="1419,7494 1389,7501 1377,7501 1376,7496 1377,7481 1380,7449 1384,7407 1409,7355 1458,7304 1514,7295 1558,7323 1587,7392 1573,7453 1531,7495 1477,7504 1428,7485 1399,7449 1391,7429 1397,7415 1424,7393 " style="fill: white; stroke: black; stroke-width: 30" />
<polyline points="1612,7388 1662,7360 1728,7322 1796,7288 1811,7282 1808,7288 1794,7300 " style="fill: white; stroke: black; stroke-width: 30" />
<polyline points="1691,7270 1730,7257 1812,7240 1878,7229 1908,7221 1900,7223 1883,7234 1870,7262 1858,7294 1833,7354 1819,7400 " style="fill: white; stroke: black; stroke-width: 30" />
<polyline points="2545,7405 2534,7401 2535,7390 2551,7378 2606,7339 2710,7267 2810,7198 2844,7168 2846,7161 2839,7165 2829,7172 2820,7185 2799,7227 2787,7284 2787,7350 2796,7393 2816,7415 " style="fill: white; stroke: black; stroke-width: 30" />
<polyline points="2878,7414 2913,7394 2979,7354 3041,7316 3059,7300 3063,7298 3051,7295 " style="fill: white; stroke: black; stroke-width: 30" />
<polyline points="2923,7265 2911,7260 2915,7259 2933,7271 2963,7304 2986,7362 2994,7415 " style="fill: white; stroke: black; stroke-width: 30" />
<polyline points="3432,7264 3423,7260 3407,7253 3374,7231 3321,7202 3282,7196 3276,7204 3285,7260 3290,7334 3285,7394 3256,7418 3227,7420 3211,7403 3207,7393 3209,7393 3212,7396 " style="fill: white; stroke: black; stroke-width: 30" />
<polyline points="3440,7353 3408,7348 3365,7347 3333,7362 3336,7375 3354,7398 3392,7405 3433,7401 3499,7369 3574,7324 3621,7283 3635,7260 3629,7245 3619,7244 3605,7246 3576,7276 3547,7339 3562,7395 3602,7431 3635,7446 3626,7446 3616,7438 " style="fill: white; stroke: black; stroke-width: 30" />
<polyline points="3793,7264 3782,7260 3777,7268 3744,7310 3710,7356 3704,7384 3725,7411 3768,7428 3830,7421 3857,7410 3853,7407 3851,7407 3840,7414 3838,7421 3834,7429 3840,7436 3858,7446 3876,7453 3873,7455 3861,7463 3862,7466 3868,7469 " style="fill: white; stroke: black; stroke-width: 30" />
<polyline points="3959,7449 3965,7438 3956,7438 3947,7443 3940,7452 3945,7459 3963,7461 4003,7468 4036,7469 4030,7473 4031,7472 4035,7475 4045,7486 4070,7491 4081,7488 4088,7475 " style="fill: white; stroke: black; stroke-width: 30" />
<polyline points="4239,7425 4218,7421 4200,7428 4179,7461 4146,7512 4094,7572 4051,7610 4012,7638 3987,7649 3989,7650 4031,7623 4117,7565 4197,7483 4241,7436 4234,7416 4232,7416 4232,7429 4246,7470 4253,7505 4234,7524 4182,7537 4118,7534 4088,7521 4092,7513 4126,7492 4199,7479 4265,7475 " style="fill: white; stroke: black; stroke-width: 30" />
<polyline points="4414,7412 4406,7410 4389,7406 4373,7404 4344,7411 4328,7432 4300,7474 4269,7534 4248,7589 4240,7636 4216,7663 4204,7674 4187,7672 " style="fill: white; stroke: black; stroke-width: 30" />
<polyline points="4177,7469 4171,7467 4212,7475 4275,7509 4318,7537 4329,7546 4335,7548 " style="fill: white; stroke: black; stroke-width: 30" />
<polyline points="3242,7654 3225,7665 3213,7682 3214,7698 3212,7719 3226,7745 " style="fill: white; stroke: black; stroke-width: 30" />
<polyline points="3319,7546 3316,7500 3309,7478 3302,7476 3304,7476 3305,7484 3326,7498 " style="fill: white; stroke: black; stroke-width: 30" />
<polyline points="3341,7752 3337,7740 3342,7727 3354,7726 3369,7729 3391,7746 3405,7757 3406,7764 3407,7765 3412,7768 3441,7766 3473,7768 3507,7762 3515,7763 3523,7761 3527,7765 3531,7765 3537,7765 3533,7764 3538,7762 3547,7761 3600,7768 3682,7766 3750,7755 3791,7715 3787,7664 3726,7629 3678,7627 3682,7652 3735,7723 3846,7805 3927,7839 " style="fill: white; stroke: black; stroke-width: 30" />
<polyline points="-2265,3859 -2277,3846 -2295,3853 -2335,3923 -2365,4077 -2366,4301 -2336,4684 -2286,4982 -2297,5089 -2312,5139 " style="fill: white; stroke: black; stroke-width: 30" />
<polyline points="-2405,5198 -2357,5193 -2236,5171 -2013,5170 -1748,5169 -1501,5159 " style="fill: white; stroke: black; stroke-width: 30" />
<polyline points="-2162,3913 -2083,3889 -1858,3859 -1565,3894 -1278,3964 -1062,4049 " style="fill: white; stroke: black; stroke-width: 30" />
<polyline points="-1120,3748 -1120,3788 -1134,4022 -1178,4479 -1236,5041 -1295,5328 " style="fill: white; stroke: black; stroke-width: 30" />
<polyline points="-3661,9414 -3680,9407 -3680,9418 -3696,9455 -3696,9535 -3694,9631 -3701,9716 -3713,9796 -3713,9844 -3696,9871 -3694,9855 -3707,9772 -3726,9656 -3767,9532 -3789,9440 -3789,9382 -3761,9340 -3684,9327 -3571,9361 -3474,9437 -3451,9504 -3478,9567 -3558,9614 -3653,9629 -3747,9607 -3802,9569 -3808,9549 -3757,9545 " style="fill: white; stroke: black; stroke-width: 30" />
<polyline points="-3431,9891 -3418,9846 -3363,9743 -3270,9593 -3168,9444 -3084,9357 -3053,9323 -3052,9321 -3055,9326 -3071,9343 -3073,9393 -3065,9479 -3033,9596 -3002,9678 -2974,9747 -2961,9787 " style="fill: white; stroke: black; stroke-width: 30" />
<polyline points="-3361,9585 -3364,9567 -3350,9552 -3301,9540 -3232,9538 -3152,9542 -3053,9546 -2935,9552 " style="fill: white; stroke: black; stroke-width: 30" />
<polyline points="-1662,9406 -1665,9404 -1673,9406 -1678,9416 -1691,9448 -1721,9542 -1702,9630 -1636,9713 -1556,9774 -1530,9807 -1554,9836 -1618,9875 -1702,9891 -1781,9872 -1846,9801 -1875,9715 -1865,9633 " style="fill: white; stroke: black; stroke-width: 30" />
<polyline points="-1653,9540 -1639,9526 -1635,9513 -1624,9506 -1577,9503 -1483,9509 -1338,9522 " style="fill: white; stroke: black; stroke-width: 30" />
<polyline points="-1233,9442 -1245,9436 -1251,9438 -1264,9479 -1306,9578 -1319,9661 -1289,9701 -1214,9721 -1120,9723 -1036,9716 -962,9694 " style="fill: white; stroke: black; stroke-width: 30" />
<polyline points="-1085,9523 -1096,9534 -1123,9597 -1170,9774 -1187,9943 " style="fill: white; stroke: black; stroke-width: 30" />
<polyline points="-1379,10229 -1390,10194 -1453,10157 -1555,10141 -1670,10172 -1772,10268 -1827,10375 -1802,10449 -1718,10497 -1574,10510 -1445,10495 -1354,10466 -1345,10432 " style="fill: white; stroke: black; stroke-width: 30" />
<polyline points="-1504,10351 -1507,10342 -1508,10336 -1504,10336 -1496,10337 -1488,10340 -1478,10342 -1443,10349 -1420,10357 -1400,10373 -1407,10397 -1433,10479 -1444,10532 -1405,10547 " style="fill: white; stroke: black; stroke-width: 30" />
<polyline points="-1246,10460 -1241,10456 -1181,10438 -1115,10404 -1061,10360 -1048,10333 -1094,10315 -1200,10324 -1265,10365 -1272,10406 -1206,10468 -1101,10518 -974,10537 " style="fill: white; stroke: black; stroke-width: 30" />
<polyline points="-909,10423 -922,10403 -938,10388 -971,10398 -1006,10432 -1014,10458 -990,10492 -932,10518 -867,10513 -823,10492 -830,10473 -869,10435 -911,10420 -918,10424 -909,10437 -886,10495 -827,10536 -766,10560 -730,10567 -700,10558 -690,10535 -684,10502 -687,10460 -694,10444 -692,10441 -668,10440 -618,10435 -559,10445 -500,10452 -461,10450 -442,10434 -423,10408 -401,10388 -389,10376 -377,10377 -365,10383 -363,10382 -375,10377 -388,10368 -435,10365 -503,10383 -553,10428 -555,10478 -494,10527 -398,10521 -339,10500 -329,10497 -334,10527 -372,10642 -415,10754 -476,10848 -491,10868 -500,10848 -500,10758 -463,10653 -419,10604 -391,10603 " style="fill: white; stroke: black; stroke-width: 30" />
<polyline points="1407,9505 1404,9493 1393,9495 1382,9508 1357,9609 1337,9772 1316,9914 1303,9992 1279,10020 1256,10021 1233,10004 1200,9973 1194,9936 1185,9863 1190,9823 " style="fill: white; stroke: black; stroke-width: 30" />
<polyline points="1506,9725 1500,9725 1525,9727 1559,9728 1577,9718 1577,9715 1565,9713 1565,9716 1553,9724 1533,9770 1527,9829 1550,9865 1593,9869 1650,9838 1685,9802 1683,9802 1684,9809 1676,9838 1696,9880 " style="fill: white; stroke: black; stroke-width: 30" />
<polyline points="1929,9518 1905,9541 1842,9635 1804,9741 1782,9847 1790,9902 " style="fill: white; stroke: black; stroke-width: 30" />
<polyline points="1936,9729 1888,9722 1827,9730 1761,9750 1747,9772 1757,9817 1811,9866 1883,9895 1968,9886 2028,9847 2050,9803 2021,9782 1996,9788 1981,9819 2001,9850 2034,9898 2078,9927 2125,9944 " style="fill: white; stroke: black; stroke-width: 30" />
<polyline points="2768,9607 2753,9599 2738,9610 2684,9689 2623,9789 2607,9874 2605,9933 2624,9949 2628,9932 2645,9840 2654,9696 2652,9623 2664,9591 2682,9591 2739,9620 2777,9683 2776,9718 2747,9738 2698,9753 2682,9764 2680,9786 2695,9843 2696,9899 2679,9937 2643,9951 2607,9955 2575,9946 2579,9936 2596,9897 2636,9869 " style="fill: white; stroke: black; stroke-width: 30" />
<polyline points="2851,9792 2865,9766 2923,9746 2976,9775 3010,9827 2980,9890 2910,9925 2832,9931 2773,9900 2759,9866 2772,9829 2773,9825 2833,9838 " style="fill: white; stroke: black; stroke-width: 30" />
<polyline points="2950,9924 2931,9947 2948,9946 2991,9931 3077,9885 3189,9805 3262,9758 3314,9734 3328,9730 " style="fill: white; stroke: black; stroke-width: 30" />
<polyline points="3102,9698 3084,9675 3081,9670 3104,9690 3152,9755 3204,9838 3243,9926 " style="fill: white; stroke: black; stroke-width: 30" />
<polyline points="1030,9542 1028,9540 1045,9534 1099,9519 1177,9507 1269,9511 1366,9531 " style="fill: white; stroke: black; stroke-width: 30" />
<polyline points="1869,8887 1820,8857 1764,8846 1696,8878 1662,8958 1669,9064 1700,9175 1725,9252 1702,9278 1640,9274 1557,9239 1493,9175 1486,9142 1505,9140 1577,9149 1719,9173 1873,9169 1975,9135 2003,9088 2002,9041 1977,9017 1975,9006 1985,9001 1988,8999 1993,8997 1986,9000 1981,9001 1976,9005 1978,9006 1964,9033 1919,9115 1868,9220 1842,9316 1856,9368 " style="fill: white; stroke: black; stroke-width: 30" />
<polyline points="2109,9114 2047,9101 1974,9106 1895,9132 1847,9159 1874,9196 1956,9240 2066,9265 2125,9269 2116,9270 " style="fill: white; stroke: black; stroke-width: 30" />
<polyline points="2304,9077 2286,9063 2252,9062 2232,9072 2205,9099 2194,9126 2200,9152 2198,9167 2199,9169 2204,9170 2232,9169 2283,9159 2303,9147 2303,9150 2289,9154 2279,9167 2251,9198 2218,9259 2190,9322 2199,9360 2223,9373 2239,9384 " style="fill: white; stroke: black; stroke-width: 30" />
<polyline points="2488,8935 2490,8928 2489,8924 2484,8926 2486,8927 2485,8930 2483,8932 2481,8932 2480,8932 2483,8932 2479,8931 2486,8930 2493,8927 2485,8929 2484,8928 2484,8928 2491,8927 2494,8931 " style="fill: white; stroke: black; stroke-width: 30" />
<polyline points="2365,9243 2361,9230 2361,9221 2363,9220 2352,9221 2352,9223 2355,9222 2352,9225 2360,9218 2421,9176 2483,9136 2509,9132 2524,9140 2533,9157 2534,9169 2529,9186 2513,9219 2522,9247 2548,9265 2601,9264 2641,9247 2656,9229 2676,9216 2700,9205 2729,9184 2726,9172 2702,9153 2663,9145 2625,9163 2621,9205 2647,9268 2697,9326 2761,9341 " style="fill: white; stroke: black; stroke-width: 30" />
<polyline points="2982,8939 2948,8948 2902,9007 2848,9120 2786,9250 2758,9339 2757,9376 2766,9361 2795,9282 2820,9225 2835,9214 2860,9213 2912,9220 2995,9241 3102,9262 " style="fill: white; stroke: black; stroke-width: 30" />
<polyline points="1591,10355 1584,10348 1574,10349 1569,10357 1558,10378 1536,10437 1518,10526 1518,10627 1533,10722 1544,10812 " style="fill: white; stroke: black; stroke-width: 30" />
<polyline points="1376,10330 1362,10314 1371,10307 1388,10300 1476,10288 1603,10274 1724,10264 1801,10274 " style="fill: white; stroke: black; stroke-width: 30" />
<polyline points="1634,10586 1650,10581 1678,10574 1749,10554 1794,10538 1810,10521 1800,10499 1767,10476 1713,10469 1666,10485 1650,10513 1671,10561 1724,10616 1783,10661 1832,10679 1866,10681 " style="fill: white; stroke: black; stroke-width: 30" />
<polyline points="1912,10735 1943,10674 1996,10567 2067,10447 2106,10389 2119,10381 2109,10394 2053,10452 " style="fill: white; stroke: black; stroke-width: 30" />
<polyline points="1904,10456 1895,10447 1909,10458 1940,10504 1984,10573 2039,10643 2101,10688 " style="fill: white; stroke: black; stroke-width: 30" />
<polyline points="2405,10266 2387,10260 2373,10262 2332,10314 2287,10397 2278,10510 2296,10636 2294,10751 2278,10808 " style="fill: white; stroke: black; stroke-width: 30" />
<polyline points="2226,10468 2225,10441 2227,10441 2259,10453 2332,10477 2411,10507 2460,10544 " style="fill: white; stroke: black; stroke-width: 30" />
<polyline points="2953,10475 2969,10423 2961,10377 2964,10357 2952,10363 2933,10412 2893,10491 2865,10577 2852,10635 2839,10672 2851,10676 2874,10659 2918,10591 2951,10501 2970,10420 2960,10360 2953,10325 2946,10303 2939,10306 2948,10338 2955,10435 2976,10537 3008,10602 3036,10639 3077,10646 3139,10620 3228,10552 3253,10521 3252,10518 3244,10523 3235,10539 3199,10600 3183,10667 3160,10740 3164,10784 " style="fill: white; stroke: black; stroke-width: 30" />
<polyline points="3315,10576 3317,10561 3333,10539 3367,10528 3379,10539 3388,10574 3390,10625 3370,10681 3330,10722 3272,10759 3248,10766 3243,10763 3244,10752 3270,10709 3310,10656 3322,10650 3326,10655 3349,10700 3363,10749 3392,10772 3409,10761 3437,10717 3466,10639 3501,10567 3546,10514 3613,10470 3628,10460 3645,10461 3651,10458 3645,10448 3647,10432 3644,10424 3637,10424 3636,10427 3641,10428 3642,10439 3603,10496 3568,10581 3535,10686 3496,10777 3503,10814 " style="fill: white; stroke: black; stroke-width: 30" />
<polyline points="3636,10601 3651,10562 3637,10553 3621,10550 3593,10564 3570,10608 3576,10639 3582,10671 3591,10692 3593,10713 3612,10726 3636,10734 3658,10723 3698,10679 3737,10632 3751,10617 3746,10610 3709,10614 3676,10629 3645,10685 3632,10751 3638,10799 3654,10826 3710,10821 3793,10768 3871,10701 3884,10663 3890,10645 3895,10639 3902,10639 3958,10634 4036,10646 4082,10660 " style="fill: white; stroke: black; stroke-width: 30" />
<polyline points="1524,11147 1509,11133 1532,11127 1631,11113 1826,11095 2153,11072 2633,11080 3175,11119 3598,11172 3764,11195 3816,11171 " style="fill: white; stroke: black; stroke-width: 30" />
<polyline points="-3947,10375 -3995,10349 -4017,10339 -4022,10339 -4016,10334 -4008,10332 -4001,10329 -3970,10328 -3888,10338 -3700,10363 -3458,10371 -3196,10361 -3067,10348 -3031,10352 -3027,10352 -3036,10353 -3047,10346 -3041,10346 -3036,10345 " style="fill: white; stroke: black; stroke-width: 30" />
<polyline points="-2542,9283 " style="fill: white; stroke: black; stroke-width: 30" />
<polyline points="-2531,9258 -2530,9246 -2534,9239 -2539,9242 -2541,9252 -2556,9305 -2570,9426 -2595,9655 -2621,9976 -2641,10246 -2683,10430 -2702,10514 -2672,10522 " style="fill: white; stroke: black; stroke-width: 30" />
<polyline points="-4151,8819 -4184,8817 -4116,8863 -4008,8894 -3895,8905 -3791,8909 -3655,8910 -3454,8929 -3200,8957 -2961,8977 -2778,8998 -2713,9013 -2709,9014 -2711,9014 -2711,9013 -2714,9011 " style="fill: white; stroke: black; stroke-width: 30" />
<polyline points="-4000,8966 -4021,8969 -4035,9032 -4097,9276 -4184,9669 -4227,9964 -4219,10238 -4138,10453 " style="fill: white; stroke: black; stroke-width: 30" />
<polyline points="-3005,4751 -3021,4744 -3023,4737 -3027,4731 -3026,4726 -3032,4723 -3031,4722 -3033,4722 -3028,4720 -3004,4719 -2939,4711 -2821,4704 -2669,4692 -2518,4679 -2428,4669 -2408,4666 -2408,4661 -2407,4659 -2410,4657 -2410,4659 -2410,4659 -2414,4660 -2415,4659 -2419,4659 -2413,4660 " style="fill: white; stroke: black; stroke-width: 30" />
<polyline points="-2404,4565 -2406,4567 -2394,4571 -2359,4583 -2278,4603 -2196,4620 -2154,4621 -2149,4621 -2151,4619 -2161,4624 -2197,4640 -2277,4698 -2354,4758 -2381,4786 -2391,4797 -2390,4797 -2388,4793 -2379,4790 " style="fill: white; stroke: black; stroke-width: 30" />
<polyline points="-3987,11882 -3989,11880 -3998,11890 -4007,11968 -4012,12061 -3985,12143 -3980,12183 -3983,12186 -4004,12167 -3992,12098 -4017,11996 -4040,11899 -4008,11851 -3969,11819 -3910,11821 -3850,11851 -3829,11891 -3853,11927 -3916,11986 -3991,12040 -4049,12055 -4062,12054 -4046,12051 -4039,12049 -4003,12050 -3973,12058 -3966,12066 -3979,12074 " style="fill: white; stroke: black; stroke-width: 30" />
<polyline points="-3980,11989 -3989,11985 -3992,11986 -3989,11992 -3968,12007 -3923,12041 -3850,12074 -3770,12102 -3727,12107 " style="fill: white; stroke: black; stroke-width: 30" />
<polyline points="-3736,12121 -3726,12105 -3681,12075 -3612,12043 -3589,12001 -3606,11971 -3659,11951 -3735,11974 -3803,12015 -3806,12052 -3725,12101 -3614,12120 -3526,12119 -3485,12102 -3454,12065 " style="fill: white; stroke: black; stroke-width: 30" />
<polyline points="-3423,11971 -3428,11954 -3437,11952 -3458,11960 -3480,11967 -3469,11983 -3467,12001 -3456,12063 -3458,12107 -3470,12138 -3505,12146 -3543,12142 -3574,12117 -3561,12071 -3522,12017 " style="fill: white; stroke: black; stroke-width: 30" />
<polyline points="-3185,11778 -3232,11768 -3273,11792 -3316,11848 -3345,11954 -3351,12067 -3350,12149 -3342,12186 -3325,12189 " style="fill: white; stroke: black; stroke-width: 30" />
<polyline points="-3438,11918 -3414,11903 -3374,11897 -3303,11901 -3241,11902 -3184,11922 " style="fill: white; stroke: black; stroke-width: 30" />
<polyline points="-3098,11841 -3117,11836 -3138,11860 -3194,11924 -3244,12027 -3282,12123 -3273,12193 -3232,12221 " style="fill: white; stroke: black; stroke-width: 30" />
<polyline points="-3033,11980 -3085,11981 -3175,11993 -3246,12034 -3286,12071 -3264,12092 -3227,12114 -3120,12129 -3030,12119 " style="fill: white; stroke: black; stroke-width: 30" />
<polyline points="-2908,11853 -2909,11834 -2910,11828 -2907,11838 -2906,11886 -2917,11950 -2928,12017 -2940,12057 -2972,12085 -2972,12115 -3003,12141 -3013,12184 -3021,12204 -3023,12205 -2999,12208 -2999,12207 -2981,12207 -2964,12209 " style="fill: white; stroke: black; stroke-width: 30" />
<polyline points="-2786,11998 -2752,11966 -2728,11956 -2686,11963 -2668,11993 -2668,12047 -2679,12108 -2726,12144 -2786,12160 -2837,12145 -2861,12108 -2858,12087 -2819,12087 -2791,12092 -2721,12121 -2648,12147 " style="fill: white; stroke: black; stroke-width: 30" />
<polyline points="-2389,11978 -2394,11957 -2426,11952 -2424,11966 -2460,11988 -2478,12031 -2505,12078 -2507,12125 -2533,12143 -2556,12152 -2577,12145 -2576,12141 -2546,12128 -2472,12083 -2349,12019 -2248,11967 -2204,11942 -2203,11941 -2220,11955 -2266,12011 -2307,12075 -2351,12133 -2369,12153 -2379,12151 -2366,12132 -2361,12107 -2333,12089 -2276,12079 -2231,12092 -2204,12116 -2217,12150 -2245,12169 -2247,12166 -2243,12144 -2172,12100 -2065,12070 -2024,12065 -2031,12081 -2055,12112 -2106,12158 -2101,12200 " style="fill: white; stroke: black; stroke-width: 30" />
<polyline points="-1899,12101 -1898,12156 -1907,12199 -1919,12227 -1924,12232 -1916,12226 -1914,12193 -1897,12116 -1887,12067 -1877,12065 -1859,12071 -1838,12087 -1786,12113 -1701,12115 -1607,12091 -1579,12074 -1572,12073 -1591,12078 -1607,12098 -1606,12120 -1608,12176 -1610,12223 " style="fill: white; stroke: black; stroke-width: 30" />
<polyline points="-1516,11890 -1527,11866 -1544,11858 -1539,11858 -1540,11860 -1527,11906 " style="fill: white; stroke: black; stroke-width: 30" />
<polyline points="-1449,12156 -1416,12095 -1404,12077 -1402,12078 -1403,12084 -1408,12109 -1393,12156 -1357,12194 " style="fill: white; stroke: black; stroke-width: 30" />
<polyline points="-1125,12083 -1146,12059 -1166,12050 -1189,12052 -1204,12061 -1204,12111 -1203,12220 -1226,12339 -1247,12447 -1285,12521 -1314,12543 -1319,12525 -1292,12406 -1218,12279 -1128,12190 -1031,12137 -956,12093 -921,12057 -960,12009 -1024,11997 -1059,12008 -1048,12039 -1003,12114 -941,12198 " style="fill: white; stroke: black; stroke-width: 30" />
<polyline points="-489,12160 -518,12150 -525,12145 -522,12143 -506,12140 -476,12138 -398,12133 -284,12131 -190,12132 " style="fill: white; stroke: black; stroke-width: 30" />
<polyline points="-393,12061 -397,12037 -406,12025 -395,12023 -381,12020 -308,12020 -229,12027 -150,12046 " style="fill: white; stroke: black; stroke-width: 30" />
<polyline points="-203,11841 -207,11831 -208,11836 -245,11897 -355,12082 -484,12269 -523,12426 " style="fill: white; stroke: black; stroke-width: 30" />
<polyline points="308,11927 308,11944 282,12002 246,12083 213,12180 205,12274 " style="fill: white; stroke: black; stroke-width: 30" />
<polyline points="124,11963 83,11933 80,11928 146,11917 303,11911 460,11913 548,11918 557,11917 " style="fill: white; stroke: black; stroke-width: 30" />
<polyline points="36,12032 38,12039 86,12055 188,12066 325,12074 439,12083 469,12088 469,12090 456,12096 443,12121 433,12157 411,12202 406,12240 402,12271 " style="fill: white; stroke: black; stroke-width: 30" />
<polyline points="598,11958 591,11918 588,11907 582,11908 591,11910 625,11918 677,11928 697,11949 " style="fill: white; stroke: black; stroke-width: 30" />
<polyline points="535,12230 563,12247 605,12250 642,12240 700,12212 718,12167 709,12127 664,12102 600,12110 571,12156 587,12213 632,12288 727,12319 856,12290 983,12182 1075,12015 1090,11879 1059,11834 1050,11829 1040,11850 1015,11952 1004,12074 1011,12161 1021,12200 1052,12204 1103,12197 1107,12193 1110,12197 1119,12202 1125,12213 1118,12244 " style="fill: white; stroke: black; stroke-width: 30" />
<polyline points="242,12366 244,12345 239,12348 205,12390 124,12501 94,12555 106,12588 178,12620 271,12633 364,12637 447,12642 " style="fill: white; stroke: black; stroke-width: 30" />
<polyline points="449,12543 449,12546 478,12555 550,12580 641,12605 690,12622 648,12632 582,12669 498,12717 471,12771 501,12844 " style="fill: white; stroke: black; stroke-width: 30" />
<polyline points="692,12879 690,12852 718,12822 792,12772 908,12693 1003,12613 1028,12574 1028,12566 1026,12569 1010,12589 1010,12640 1010,12731 1013,12836 1044,12947 1076,13009 " style="fill: white; stroke: black; stroke-width: 30" />
<polyline points="813,12760 805,12741 819,12738 853,12739 936,12744 1014,12755 1085,12765 1144,12775 " style="fill: white; stroke: black; stroke-width: 30" />
<polyline points="1163,12817 1155,12837 1156,12848 1159,12854 1156,12855 1161,12853 1175,12843 1205,12801 1237,12729 1265,12689 1298,12654 1302,12647 1310,12650 1352,12685 " style="fill: white; stroke: black; stroke-width: 30" />
<polyline points="1544,12724 1534,12677 1501,12646 1463,12636 1417,12659 1424,12701 1439,12767 1485,12807 1520,12810 1548,12796 1540,12790 1545,12793 1538,12819 1530,12892 1492,12975 1429,13040 1358,13051 1302,13016 1283,12950 1302,12868 " style="fill: white; stroke: black; stroke-width: 30" />
<polyline points="1733,12778 1727,12770 1733,12775 1775,12781 1815,12783 1831,12773 1822,12742 1792,12707 1706,12702 1674,12727 1672,12784 1714,12839 1776,12874 1830,12873 1903,12824 1955,12752 1973,12710 1988,12692 1988,12694 2006,12699 2041,12698 2100,12680 2137,12676 2122,12679 2119,12678 2112,12676 2112,12676 2126,12671 2130,12670 2144,12664 2146,12642 2133,12609 2138,12584 2117,12586 2094,12598 2064,12644 2065,12711 2062,12772 2074,12816 2114,12844 2180,12849 " style="fill: white; stroke: black; stroke-width: 30" />
<polyline points="2450,12446 2420,12433 2368,12494 2303,12590 2271,12673 2248,12731 2254,12761 2278,12789 2309,12804 2361,12797 2417,12761 2446,12714 2465,12677 2459,12661 2449,12660 2445,12665 2437,12676 2396,12716 2386,12756 2390,12789 2415,12803 2504,12789 2599,12754 2614,12741 2608,12737 2601,12741 2564,12758 2527,12792 2521,12827 2535,12869 " style="fill: white; stroke: black; stroke-width: 30" />
<polyline points="3005,12298 2992,12306 2961,12368 2884,12473 2827,12580 2768,12707 2711,12824 2706,12877 2717,12869 2751,12796 2762,12703 2745,12659 2735,12650 2761,12653 2867,12679 3012,12749 3119,12825 " style="fill: white; stroke: black; stroke-width: 30" />
<polyline points="3706,12362 3692,12323 3671,12298 3667,12295 3655,12306 3598,12380 3541,12505 3499,12631 3470,12711 3469,12755 3473,12770 3476,12771 3481,12769 3475,12770 3480,12768 3475,12769 3479,12764 3494,12758 3484,12752 3486,12749 3501,12744 3503,12735 " style="fill: white; stroke: black; stroke-width: 30" />
<polyline points="3373,13076 3294,13032 3287,13002 3335,12972 3420,12977 3476,13004 3449,13038 3397,13066 3298,13068 3251,13041 3222,13011 3246,12987 3294,12956 3386,12959 " style="fill: white; stroke: black; stroke-width: 30" />
<polyline points="3806,12351 3793,12344 3784,12342 3765,12347 3782,12342 3770,12349 3777,12351 3760,12367 3754,12375 3762,12375 3757,12376 3758,12377 3760,12375 3760,12375 3759,12373 3762,12373 3760,12375 3757,12376 3765,12384 3702,12476 3647,12570 3606,12654 3577,12722 3577,12780 3587,12816 3607,12829 3601,12836 3600,12835 3587,12834 3577,12830 3592,12823 3587,12824 3602,12810 " style="fill: white; stroke: black; stroke-width: 30" />
<polyline points="3706,12285 3749,12286 3752,12288 3765,12287 3765,12286 3768,12287 3771,12288 3763,12299 3793,12320 3835,12343 " style="fill: white; stroke: black; stroke-width: 30" />
<polyline points="3829,12341 3818,12323 3814,12300 3804,12294 3811,12290 3804,12295 3808,12306 3758,12360 3683,12420 3630,12493 3622,12539 3628,12570 3665,12578 3675,12577 3673,12576 3655,12582 3652,12617 3644,12673 3637,12713 3600,12774 3588,12839 " style="fill: white; stroke: black; stroke-width: 30" />
<polyline points="-2965,10203 -2975,10215 -2954,10226 -2901,10255 " style="fill: white; stroke: black; stroke-width: 30" />
<polyline points="-3266,10358 -3278,10352 -3279,10346 -3256,10346 -3196,10340 -3075,10327 -2940,10308 -2819,10296 -2763,10294 -2721,10308 -2711,10312 -2723,10307 " style="fill: white; stroke: black; stroke-width: 30" />

</svg>