<?xml version="1.0" standalone="no"?>
<!DOCTYPE svg PUBLIC "-//W3C//DTD SVG 1.1//EN" "http://www.w3.org/Graphics/SVG/1.1/DTD/svg11.dtd">
<svg width="210mm" height="297mm" viewBox="-7000 500 14000 20000" version="1.1" xmlns="http://www.w3.org/2000/svg">

<polyline points="-1465,1843 -1462,1843 -1465,1869 -1469,1913 -1478,1982 -1479,2034 -1472,2065 -1465,2075 -1463,2077 -1465,2075 -1467,2066 -1468,2046 -1472,2023 -1488,1993 -1513,1959 -1537,1917 -1555,1882 -1565,1855 -1569,1829 -1565,1814 -1563,1814 -1559,1816 -1559,1816 -1554,1816 -1555,1816 -1554,1814 -1555,1816 -1554,1815 -1556,1815 -1555,1815 -1555,1816 -1555,1816 -1556,1820 -1557,1821 -1558,1821 -1560,1821 -1561,1823 -1561,1825 -1565,1824 -1564,1824 " style="fill: white; stroke: black; stroke-width: 30" />
<polyline points="-1666,1890 -1706,1936 -1708,1974 -1683,2007 -1642,2039 -1613,2059 -1611,2066 -1637,2071 -1701,2073 -1756,2065 -1792,2042 -1798,2034 -1790,2022 " style="fill: white; stroke: black; stroke-width: 30" />
<polyline points="-1527,1844 -1515,1833 -1477,1824 -1423,1832 -1377,1857 -1358,1888 -1371,1917 -1416,1939 -1483,1949 -1542,1945 -1555,1938 -1543,1928 " style="fill: white; stroke: black; stroke-width: 30" />
<polyline points="-1335,1890 -1347,1913 -1370,1956 -1386,2014 -1376,2049 -1350,2062 -1306,2049 -1262,2026 -1250,2023 -1255,2047 -1264,2079 -1262,2100 -1255,2104 " style="fill: white; stroke: black; stroke-width: 30" />
<polyline points="-1196,2020 -1197,2017 -1188,1999 -1163,1983 -1138,1989 -1122,2023 -1118,2050 -1120,2068 " style="fill: white; stroke: black; stroke-width: 30" />
<polyline points="-1001,1811 -1018,1835 -1048,1902 -1071,1991 -1068,2053 -1051,2085 " style="fill: white; stroke: black; stroke-width: 30" />
<polyline points="-950,1966 -958,1967 -987,1978 -1043,2013 -1087,2050 -1090,2074 -1052,2088 -981,2083 " style="fill: white; stroke: black; stroke-width: 30" />
<polyline points="-81,1917 -96,1932 -119,1986 -131,2058 -125,2097 -111,2110 -95,2096 -82,2062 -77,2021 -72,1960 -55,1912 -30,1900 -6,1910 6,1946 0,1975 -38,2006 -85,2028 -105,2039 -103,2039 -98,2039 -94,2037 -92,2042 -91,2044 -80,2045 -57,2038 -34,2046 -19,2067 -2,2094 7,2109 3,2125 -13,2135 -36,2141 -63,2136 -95,2118 -122,2091 -130,2082 -126,2082 " style="fill: white; stroke: black; stroke-width: 30" />
<polyline points="103,2004 95,1998 80,1997 65,2004 44,2029 38,2063 51,2086 88,2096 125,2089 147,2084 147,2085 146,2094 148,2106 155,2121 161,2128 " style="fill: white; stroke: black; stroke-width: 30" />
<polyline points="243,2031 220,2068 210,2094 218,2108 244,2105 287,2097 318,2088 325,2089 330,2091 334,2096 343,2097 355,2103 360,2108 364,2116 370,2121 373,2127 383,2132 388,2138 395,2137 402,2137 410,2134 " style="fill: white; stroke: black; stroke-width: 30" />
<polyline points="-1647,3087 -1564,3030 -1466,2952 -1376,2876 -1315,2821 -1293,2794 -1292,2788 -1300,2787 -1302,2787 -1302,2790 -1292,2795 -1276,2826 -1252,2875 -1235,2925 -1224,2970 -1211,3009 -1202,3040 -1192,3068 -1186,3082 -1186,3085 -1185,3085 -1186,3084 -1187,3080 -1200,3067 -1234,3055 -1310,3051 -1414,3063 -1537,3088 -1623,3108 -1660,3116 -1662,3115 -1656,3111 -1622,3095 -1582,3072 " style="fill: white; stroke: black; stroke-width: 30" />
<polyline points="-1648,2897 -1649,2897 -1641,2898 -1620,2900 -1573,2898 -1512,2892 -1422,2884 -1311,2882 -1214,2877 -1144,2871 -1099,2863 -1092,2863 -1094,2864 -1099,2865 -1104,2863 -1108,2861 -1112,2858 -1117,2858 -1119,2858 -1138,2866 -1175,2886 -1234,2933 -1323,3010 -1404,3099 -1445,3164 -1462,3206 -1464,3220 -1458,3222 -1455,3219 -1449,3217 -1434,3202 -1424,3183 -1411,3140 -1406,3087 -1412,3015 -1431,2943 -1459,2890 -1491,2854 -1513,2847 -1524,2847 -1524,2847 -1515,2849 -1478,2861 " style="fill: white; stroke: black; stroke-width: 30" />
<polyline points="-595,2846 -598,2849 -603,2886 -614,2957 -617,3028 -612,3076 -602,3086 -599,3077 -598,3042 -606,2990 -615,2911 -622,2838 -617,2772 -611,2748 -608,2750 -590,2778 -563,2824 -541,2866 -525,2889 -523,2901 -553,2916 -628,2935 -680,2943 -678,2949 -620,2966 -514,2990 -434,3021 -431,3056 -497,3093 -577,3116 -627,3113 -651,3089 -661,3054 " style="fill: white; stroke: black; stroke-width: 30" />
<polyline points="-422,3026 -405,3016 -404,3007 -410,2996 -418,2967 -424,2941 -417,2915 -393,2886 -354,2862 -320,2869 -289,2898 -275,2921 -267,2926 -254,2922 -242,2906 -241,2902 -242,2902 -241,2910 -234,2928 -230,2951 -230,2968 -236,2992 -254,3023 -269,3045 -283,3049 -302,3036 -315,3009 -315,2986 -308,2980 -284,2975 -253,2970 -229,2973 -219,2983 -196,3004 " style="fill: white; stroke: black; stroke-width: 30" />
<polyline points="-77,2865 -82,2865 -97,2887 -120,2938 -136,2983 -130,3010 -100,3017 -38,3003 13,2988 21,2990 17,3004 6,3027 6,3038 10,3045 " style="fill: white; stroke: black; stroke-width: 30" />
<polyline points="302,2937 305,2922 293,2919 255,2930 204,2953 167,2983 155,3008 167,3035 206,3047 280,3040 358,3005 435,2954 491,2897 520,2843 528,2817 524,2817 504,2831 459,2883 440,2939 457,2976 493,2992 538,3007 566,3018 586,3028 612,3031 " style="fill: white; stroke: black; stroke-width: 30" />
<polyline points="1521,2974 1523,2957 1518,2936 1493,2916 1442,2893 1387,2898 1342,2919 1335,2948 1351,2990 1398,3038 1463,3063 1522,3065 1550,3044 1555,3019 1534,2988 1502,2951 1481,2909 1480,2901 1480,2904 1480,2925 " style="fill: white; stroke: black; stroke-width: 30" />
<polyline points="1432,3082 1444,3088 1446,3106 1448,3144 1449,3200 1455,3248 " style="fill: white; stroke: black; stroke-width: 30" />
<polyline points="1329,3164 1335,3159 1375,3150 1434,3144 1499,3146 " style="fill: white; stroke: black; stroke-width: 30" />
<polyline points="2374,3023 2383,3012 2382,3000 2370,2982 2336,2962 2280,2962 2231,2978 2211,3001 2211,3029 2240,3050 2300,3049 2380,3028 2457,2985 2504,2943 2521,2906 2517,2873 2502,2844 2483,2833 2471,2831 2468,2847 2474,2892 2491,2938 2514,2972 2548,3000 2604,3008 2652,3002 2682,2986 2688,2982 2685,2983 2678,2992 2662,3016 2659,3036 2662,3048 2681,3062 " style="fill: white; stroke: black; stroke-width: 30" />
<polyline points="2689,2862 2665,2846 2662,2841 2668,2837 2692,2831 " style="fill: white; stroke: black; stroke-width: 30" />
<polyline points="2785,3075 2817,3063 2850,3040 2875,3011 2878,2981 2860,2970 2824,2973 2797,2988 2787,3006 2799,3020 2847,3045 2929,3064 " style="fill: white; stroke: black; stroke-width: 30" />
<polyline points="-587,3269 -587,3265 -586,3286 -590,3356 -608,3451 -624,3526 -612,3561 " style="fill: white; stroke: black; stroke-width: 30" />
<polyline points="-474,3300 -488,3309 -495,3358 -495,3422 -490,3473 -473,3510 " style="fill: white; stroke: black; stroke-width: 30" />
<polyline points="-651,3412 -659,3401 -656,3397 -652,3394 -624,3383 -573,3380 -499,3386 -439,3407 -402,3422 -375,3430 -355,3423 -341,3402 -326,3373 -318,3367 -316,3375 -315,3407 -314,3440 -315,3464 -323,3483 -347,3508 -374,3530 -390,3536 -393,3522 -389,3479 -375,3455 -370,3453 -356,3456 -332,3465 -309,3474 -296,3485 -280,3497 " style="fill: white; stroke: black; stroke-width: 30" />
<polyline points="-196,3502 -204,3510 -198,3502 -185,3475 -165,3443 -156,3429 -152,3427 -147,3440 -134,3472 -120,3501 -101,3512 " style="fill: white; stroke: black; stroke-width: 30" />
<polyline points="9,3452 7,3421 -2,3389 -24,3375 -62,3387 -106,3425 -116,3457 -95,3475 -45,3475 11,3462 59,3433 95,3397 112,3361 117,3325 111,3302 105,3301 92,3305 77,3334 68,3378 81,3430 108,3478 136,3519 " style="fill: white; stroke: black; stroke-width: 30" />
<polyline points="543,3515 540,3514 540,3509 549,3494 581,3451 625,3415 649,3408 661,3427 676,3464 684,3495 689,3514 696,3535 701,3542 725,3539 769,3509 815,3479 841,3465 846,3466 846,3467 842,3484 832,3512 821,3544 820,3563 838,3561 " style="fill: white; stroke: black; stroke-width: 30" />
<polyline points="892,3351 874,3338 868,3326 869,3325 878,3325 " style="fill: white; stroke: black; stroke-width: 30" />
<polyline points="998,3464 982,3441 955,3435 921,3456 903,3482 914,3505 937,3518 974,3526 1020,3509 1078,3473 1132,3424 1170,3386 1178,3369 1177,3368 1166,3376 1136,3412 1125,3446 1137,3473 1160,3492 1196,3511 1224,3528 1238,3542 1248,3537 " style="fill: white; stroke: black; stroke-width: 30" />
<polyline points="1382,3339 1372,3339 1360,3357 1336,3398 1293,3461 1265,3529 1267,3554 1283,3547 " style="fill: white; stroke: black; stroke-width: 30" />
<polyline points="1328,3469 1331,3448 1329,3443 1329,3443 1332,3444 1349,3454 " style="fill: white; stroke: black; stroke-width: 30" />
<polyline points="1911,3430 1914,3424 1936,3411 1980,3405 2008,3416 2026,3446 2019,3481 1994,3515 1981,3533 1988,3549 2018,3565 2073,3582 " style="fill: white; stroke: black; stroke-width: 30" />
<polyline points="1907,3464 1904,3462 1910,3464 1946,3476 2012,3484 2090,3487 2151,3472 2187,3456 2194,3444 2188,3442 2175,3444 2157,3453 2146,3470 2147,3497 2164,3525 2196,3546 2223,3552 2240,3557 2244,3563 " style="fill: white; stroke: black; stroke-width: 30" />
<polyline points="2274,3464 2282,3464 2282,3468 2274,3490 2263,3521 2253,3554 2257,3583 2272,3606 " style="fill: white; stroke: black; stroke-width: 30" />
<polyline points="2838,3529 2839,3515 2833,3497 2814,3473 2774,3451 2736,3448 2724,3453 2734,3464 2764,3492 2799,3539 2820,3598 2818,3664 2798,3715 2772,3744 2737,3753 2696,3748 2672,3724 2672,3674 2713,3616 2783,3582 2853,3556 2921,3532 2950,3509 2953,3484 2940,3460 2917,3461 2888,3480 2884,3516 2913,3552 2976,3587 " style="fill: white; stroke: black; stroke-width: 30" />
<polyline points="3103,3332 3092,3335 3078,3356 3063,3411 3054,3472 3059,3515 3070,3535 3082,3538 3110,3531 3133,3529 3131,3543 3120,3576 3097,3595 3080,3594 3061,3571 3052,3537 3049,3513 3050,3513 3071,3523 3141,3538 3216,3534 3279,3527 3298,3521 3291,3521 3248,3535 3211,3553 3207,3561 3219,3564 3253,3569 3293,3565 3318,3556 3338,3552 3358,3552 3367,3558 3367,3575 3372,3580 3372,3581 3374,3583 3379,3591 " style="fill: white; stroke: black; stroke-width: 30" />
<polyline points="-1767,2667 -1773,2665 -1799,2667 -1851,2683 -1917,2711 -1978,2751 -2025,2797 -2036,2865 -2015,2945 -1977,3018 -1946,3079 -1940,3122 -1945,3149 -1956,3168 -1971,3175 -1982,3173 -2002,3159 -2014,3152 -2022,3147 -2020,3150 -2020,3146 -2017,3144 -2013,3140 -2011,3141 -2014,3138 -2012,3139 -2012,3139 -2010,3142 -2007,3141 -2000,3149 -1982,3172 -1974,3221 -1988,3320 -2027,3444 -2082,3562 -2128,3666 -2152,3746 -2138,3793 -2059,3805 -1934,3795 -1843,3792 -1799,3804 " style="fill: white; stroke: black; stroke-width: 30" />
<polyline points="-2178,3160 -2206,3180 -2262,3194 -2362,3211 -2504,3217 -2680,3206 -2853,3166 -3006,3082 -3124,2982 -3181,2880 -3179,2757 -3106,2608 -2971,2464 -2807,2344 -2618,2254 -2415,2199 -2222,2173 -2055,2153 " style="fill: white; stroke: black; stroke-width: 30" />
<polyline points="-2013,2060 -2012,2062 -2005,2063 -1992,2057 -1972,2052 -1954,2055 -1937,2059 -1919,2064 -1905,2061 -1902,2065 -1909,2073 -1931,2114 -1963,2170 -2000,2234 -2031,2280 -2058,2309 -2058,2309 " style="fill: white; stroke: black; stroke-width: 30" />
<polyline points="1392,2133 1418,2115 1462,2081 1522,2031 1562,1979 1578,1938 1577,1910 1570,1902 1567,1901 1567,1902 1568,1908 1576,1945 1586,1997 1603,2055 1622,2098 1638,2122 1644,2127 1642,2125 " style="fill: white; stroke: black; stroke-width: 30" />
<polyline points="1440,2031 1430,2029 1425,2027 1431,2027 1442,2024 1470,2023 1503,2023 1538,2021 1578,2020 1613,2023 1631,2026 1635,2033 1633,2046 1630,2070 1628,2082 1630,2087 1631,2089 1634,2091 1640,2085 1656,2069 1685,2044 1722,2024 1746,2014 1760,2017 1763,2026 1765,2052 1761,2079 1757,2111 1767,2120 1802,2115 " style="fill: white; stroke: black; stroke-width: 30" />
<polyline points="1955,1858 1947,1850 1937,1854 1915,1882 1894,1933 1884,1996 1881,2050 1883,2092 1881,2115 1874,2121 1869,2115 1856,2095 1842,2049 1841,2026 1843,2016 1848,2015 1862,2021 1887,2037 1925,2047 1962,2053 1979,2056 1983,2065 1977,2081 1971,2098 1965,2109 1967,2112 1970,2109 1977,2101 1988,2079 2008,2045 2019,2022 2021,2021 2020,2025 2038,2028 2062,2029 2092,2036 2121,2035 2154,2038 2175,2043 2181,2048 2177,2055 2174,2065 2172,2066 2173,2066 2171,2068 2171,2068 2156,2091 2146,2110 2142,2118 2156,2114 " style="fill: white; stroke: black; stroke-width: 30" />
<polyline points="2233,1907 2223,1879 2218,1866 2216,1865 2219,1859 2231,1852 " style="fill: white; stroke: black; stroke-width: 30" />
<polyline points="2256,2103 2274,2092 2310,2071 2347,2050 2368,2029 2371,2013 2358,2000 2312,2000 2258,2023 2239,2049 2250,2073 2297,2098 2371,2114 " style="fill: white; stroke: black; stroke-width: 30" />
<polyline points="2533,1864 2534,1859 2517,1889 2486,1957 2445,2036 2436,2073 2441,2081 2460,2071 2504,2045 2545,2030 2570,2033 2577,2055 2567,2090 2540,2115 2510,2121 2473,2117 2444,2109 2427,2098 2434,2072 " style="fill: white; stroke: black; stroke-width: 30" />
<polyline points="-2479,4972 -2486,5072 -2487,5194 -2485,5323 -2484,5458 -2505,5570 -2505,5651 -2481,5697 -2458,5714 " style="fill: white; stroke: black; stroke-width: 30" />
<polyline points="-2681,4754 -2658,4749 -2637,4743 -2593,4734 -2524,4725 -2425,4720 -2332,4733 -2263,4761 -2216,4794 -2177,4839 -2154,4887 -2145,4944 -2150,4989 -2154,5027 -2160,5056 -2182,5081 -2210,5111 -2257,5148 -2316,5184 -2382,5225 -2431,5259 -2468,5293 -2493,5325 -2511,5356 -2511,5387 -2516,5410 -2514,5434 -2497,5468 -2475,5497 -2433,5533 -2393,5552 -2352,5566 " style="fill: white; stroke: black; stroke-width: 30" />
<polyline points="-2464,4842 -2449,4857 -2441,4883 -2442,4923 -2464,4965 -2496,5004 -2522,5042 -2544,5082 -2550,5112 -2536,5130 " style="fill: white; stroke: black; stroke-width: 30" />
<polyline points="-911,5160 -906,5160 -927,5161 -960,5159 -988,5167 -1022,5186 -1044,5211 -1042,5247 -1025,5273 -984,5281 -924,5278 -880,5272 -839,5264 -831,5261 -820,5259 -811,5256 -803,5244 -791,5214 -759,5163 -736,5110 -716,5061 -706,5028 -708,5010 -715,5010 -721,5007 -725,5009 -718,5010 -709,5034 -697,5067 -686,5118 -683,5176 -677,5218 -672,5236 -667,5241 -671,5241 -686,5239 -727,5221 -765,5187 -796,5144 -822,5123 -838,5116 -842,5118 -838,5119 -820,5129 -779,5140 -720,5147 -665,5139 -632,5117 -615,5097 -601,5090 -598,5091 -600,5103 -617,5129 -632,5176 -638,5218 -633,5247 -627,5260 -625,5261 -632,5251 -634,5231 -634,5187 -638,5116 -633,5055 -614,5030 -583,5016 -542,5027 -521,5062 -509,5096 -497,5112 -504,5119 -540,5127 -588,5125 -611,5106 -627,5090 -630,5084 -621,5080 -571,5079 -509,5070 -466,5058 -433,5043 -415,5033 -411,5032 -410,5041 -402,5074 -400,5115 -403,5152 -404,5183 -399,5214 -400,5233 -394,5254 -390,5261 -381,5265 " style="fill: white; stroke: black; stroke-width: 30" />
<polyline points="1230,5160 1223,5206 1218,5259 1216,5300 1218,5312 1217,5314 1218,5309 1214,5293 1210,5240 1214,5162 1229,5097 1255,5058 1286,5042 1314,5062 1340,5105 1347,5146 1338,5167 1319,5177 1269,5181 1235,5163 1210,5130 1201,5114 1207,5112 " style="fill: white; stroke: black; stroke-width: 30" />
<polyline points="1440,5180 1432,5168 1407,5162 1379,5172 1346,5199 1334,5232 1353,5253 1401,5260 1454,5242 1481,5223 1477,5208 1465,5196 1446,5187 1435,5194 1439,5199 1456,5218 1489,5242 1532,5258 " style="fill: white; stroke: black; stroke-width: 30" />
<polyline points="1371,5092 1366,5085 1377,5080 1412,5077 1477,5078 " style="fill: white; stroke: black; stroke-width: 30" />
<polyline points="1649,5185 1623,5171 1584,5168 1549,5177 1521,5192 1527,5205 1552,5213 1606,5204 1664,5180 1698,5152 1726,5122 1734,5098 1730,5077 1717,5082 1704,5095 1697,5129 1722,5174 1764,5225 1814,5257 " style="fill: white; stroke: black; stroke-width: 30" />
<polyline points="1896,5176 1882,5159 1852,5154 1812,5173 1785,5196 1778,5228 1799,5252 1843,5269 1892,5271 1924,5262 1943,5242 1940,5217 1917,5202 1881,5196 1854,5199 1852,5201 1868,5209 1910,5218 1948,5225 1977,5232 " style="fill: white; stroke: black; stroke-width: 30" />
<polyline points="726,5127 737,5085 732,5039 704,5009 669,5013 624,5069 594,5175 579,5296 581,5372 586,5412 590,5435 " style="fill: white; stroke: black; stroke-width: 30" />
<polyline points="539,5225 543,5241 558,5273 593,5309 " style="fill: white; stroke: black; stroke-width: 30" />
<polyline points="869,4934 863,4941 843,4990 817,5067 811,5120 " style="fill: white; stroke: black; stroke-width: 30" />
<polyline points="867,5002 832,5047 817,5103 814,5167 " style="fill: white; stroke: black; stroke-width: 30" />
<polyline points="-1395,5007 -1431,4986 -1472,4987 -1508,5015 -1529,5082 -1529,5169 -1513,5238 -1495,5288 " style="fill: white; stroke: black; stroke-width: 30" />
<polyline points="-1621,5154 -1644,5141 -1632,5134 -1584,5133 -1501,5136 " style="fill: white; stroke: black; stroke-width: 30" />
<polyline points="-1268,4954 -1294,5060 " style="fill: white; stroke: black; stroke-width: 30" />
<polyline points="-1459,5449 -1487,5431 -1524,5442 -1566,5502 -1605,5622 -1619,5750 -1611,5833 -1590,5875 -1566,5892 " style="fill: white; stroke: black; stroke-width: 30" />
<polyline points="-1666,5672 -1660,5676 -1647,5690 -1624,5704 -1586,5714 " style="fill: white; stroke: black; stroke-width: 30" />
<polyline points="-1414,5412 -1416,5415 -1415,5436 -1426,5488 -1437,5550 -1439,5592 -1420,5599 " style="fill: white; stroke: black; stroke-width: 30" />
<polyline points="-1329,5370 -1361,5408 -1385,5472 -1400,5537 -1391,5580 -1375,5592 " style="fill: white; stroke: black; stroke-width: 30" />
<polyline points="-1319,5458 -1347,5498 -1372,5545 -1380,5577 -1367,5594 " style="fill: white; stroke: black; stroke-width: 30" />
<polyline points="-1000,5547 -1016,5643 -1019,5711 -1011,5747 " style="fill: white; stroke: black; stroke-width: 30" />
<polyline points="-1003,5518 -993,5429 -982,5376 -975,5374 -961,5399 -942,5441 -924,5478 -906,5518 -892,5543 -891,5552 -896,5550 -903,5546 -916,5538 " style="fill: white; stroke: black; stroke-width: 30" />
<polyline points="-1097,5610 -1093,5608 -1069,5606 -1028,5620 " style="fill: white; stroke: black; stroke-width: 30" />
<polyline points="-847,5601 -861,5605 -871,5624 -870,5653 -854,5668 -824,5675 -778,5661 -736,5639 -727,5637 -735,5663 -751,5707 -753,5734 -729,5731 " style="fill: white; stroke: black; stroke-width: 30" />
<polyline points="-555,5484 -575,5521 -608,5597 -642,5688 -649,5740 -644,5747 -631,5723 -614,5671 -603,5627 -596,5625 -575,5627 -517,5626 " style="fill: white; stroke: black; stroke-width: 30" />
<polyline points="-315,5525 -325,5530 -368,5576 -424,5651 -458,5707 -461,5727 -456,5724 -451,5707 -446,5697 -443,5703 -428,5710 -394,5711 -361,5697 -341,5685 " style="fill: white; stroke: black; stroke-width: 30" />
<polyline points="-385,5715 -390,5717 -377,5708 -358,5705 -338,5713 -309,5727 -271,5727 -221,5716 -191,5698 -177,5679 -184,5666 -219,5677 -256,5699 -254,5703 -222,5681 -167,5649 -125,5632 -108,5635 -97,5649 -77,5667 " style="fill: white; stroke: black; stroke-width: 30" />
<polyline points="1651,5591 1639,5588 1621,5610 1600,5671 1588,5730 1591,5771 1599,5786 " style="fill: white; stroke: black; stroke-width: 30" />
<polyline points="1576,5585 1572,5536 1577,5495 1608,5470 1649,5461 1694,5502 1726,5566 1737,5625 1724,5660 1692,5682 1650,5679 1606,5654 1578,5618 1577,5607 " style="fill: white; stroke: black; stroke-width: 30" />
<polyline points="1840,5586 1834,5565 1841,5567 1872,5604 1904,5653 1933,5687 1937,5695 1913,5705 1865,5708 1814,5701 1789,5676 1791,5669 1811,5664 1860,5676 1907,5704 1941,5728 1978,5732 " style="fill: white; stroke: black; stroke-width: 30" />
<polyline points="2093,5680 2099,5656 2088,5634 2056,5629 2015,5644 2009,5658 2019,5657 2059,5647 2099,5640 2116,5667 2116,5721 2133,5806 2144,5876 2140,5919 2114,5935 2088,5921 2068,5873 2075,5799 2112,5731 2167,5685 2237,5642 2292,5608 2289,5600 2253,5608 2207,5629 2196,5647 2215,5667 2265,5695 " style="fill: white; stroke: black; stroke-width: 30" />
<polyline points="2647,5701 2629,5697 2623,5695 2627,5693 2655,5692 2726,5692 2815,5697 " style="fill: white; stroke: black; stroke-width: 30" />
<polyline points="2933,5734 2932,5716 2943,5695 2987,5660 3036,5612 3077,5559 3108,5502 3124,5473 3119,5467 3116,5469 3100,5493 3085,5552 3083,5596 3117,5638 3161,5683 " style="fill: white; stroke: black; stroke-width: 30" />
<polyline points="1860,6058 1831,6041 1775,6031 1727,6035 1722,6042 1732,6063 1765,6087 1787,6117 1794,6141 1767,6163 1730,6179 1691,6188 1658,6184 1653,6176 1662,6172 1666,6173 1681,6171 " style="fill: white; stroke: black; stroke-width: 30" />
<polyline points="1971,6101 1970,6100 1962,6100 1961,6097 1955,6095 1940,6101 1912,6127 1906,6157 1916,6181 1942,6196 1980,6188 2035,6163 2076,6139 2092,6132 2097,6129 2090,6140 2062,6174 2012,6233 1979,6283 1968,6323 " style="fill: white; stroke: black; stroke-width: 30" />
<polyline points="2139,6202 2124,6216 2131,6215 2155,6195 2183,6164 2216,6146 2222,6147 2234,6172 2245,6208 2255,6230 2262,6235 2262,6237 2265,6237 " style="fill: white; stroke: black; stroke-width: 30" />
<polyline points="2489,6086 2462,6091 2432,6098 2410,6106 2394,6117 2393,6134 2407,6151 2442,6171 2498,6186 2555,6197 2613,6203 " style="fill: white; stroke: black; stroke-width: 30" />
<polyline points="-670,4332 -645,4307 -612,4268 -573,4218 -550,4175 -540,4154 -543,4153 -548,4153 -548,4156 -538,4165 -525,4185 -514,4209 -502,4238 -476,4269 -454,4294 -442,4308 -441,4311 -444,4310 -449,4308 -461,4307 -490,4303 -535,4306 -602,4307 -675,4325 -737,4351 -762,4364 -764,4361 -761,4358 -760,4351 -759,4352 -757,4351 -750,4344 " style="fill: white; stroke: black; stroke-width: 30" />
<polyline points="-752,4195 -758,4190 -752,4186 -733,4191 -682,4190 -617,4188 -549,4178 -497,4173 -458,4166 -440,4167 -440,4167 -438,4169 -443,4168 -440,4171 -442,4171 -446,4173 -452,4174 -469,4181 -476,4198 -507,4240 -526,4284 -547,4330 -574,4363 -586,4389 -585,4409 -565,4424 -556,4429 -563,4430 -567,4430 -572,4429 -577,4418 -585,4395 -604,4355 -625,4307 -654,4252 -681,4217 -694,4203 -696,4199 -688,4200 -679,4203 -676,4206 -654,4224 " style="fill: white; stroke: black; stroke-width: 30" />
<polyline points="-89,4200 -96,4186 -88,4169 -75,4149 -42,4129 -13,4127 14,4137 41,4163 53,4196 41,4237 10,4275 -20,4307 -39,4325 -52,4346 -69,4357 -65,4359 -66,4359 -73,4350 -76,4340 -86,4340 " style="fill: white; stroke: black; stroke-width: 30" />
<polyline points="-155,4168 -143,4150 -126,4128 -125,4106 -149,4089 -189,4092 -247,4109 -278,4129 -276,4145 -260,4176 -230,4207 -198,4244 -176,4276 -157,4308 -137,4334 " style="fill: white; stroke: black; stroke-width: 30" />
<polyline points="516,4125 494,4109 456,4099 382,4114 303,4142 251,4175 237,4203 249,4236 282,4266 335,4286 400,4290 " style="fill: white; stroke: black; stroke-width: 30" />
<polyline points="446,4097 396,4117 335,4148 290,4181 272,4207 269,4229 269,4256 287,4280 320,4302 376,4318 " style="fill: white; stroke: black; stroke-width: 30" />
<polyline points="568,4174 575,4159 617,4130 668,4100 690,4078 699,4072 692,4064 666,4062 632,4059 608,4063 596,4064 593,4068 602,4085 614,4120 636,4150 669,4173 " style="fill: white; stroke: black; stroke-width: 30" />
<polyline points="583,4105 569,4111 569,4109 579,4108 608,4102 629,4106 " style="fill: white; stroke: black; stroke-width: 30" />
<polyline points="1042,4186 1032,4166 1047,4132 1070,4114 1091,4110 1115,4123 1117,4157 1112,4194 1079,4237 1019,4292 980,4334 966,4361 " style="fill: white; stroke: black; stroke-width: 30" />
<polyline points="1002,4167 986,4154 976,4138 950,4127 916,4133 874,4164 847,4211 847,4255 856,4281 882,4299 913,4309 " style="fill: white; stroke: black; stroke-width: 30" />
<polyline points="1469,4104 1468,4100 1465,4109 1464,4139 1460,4181 1460,4229 1465,4266 1468,4294 " style="fill: white; stroke: black; stroke-width: 30" />
<polyline points="1322,4146 1335,4145 1381,4142 1446,4140 1506,4145 1578,4147 " style="fill: white; stroke: black; stroke-width: 30" />
<polyline points="1949,4217 1951,4178 1970,4128 2003,4097 2042,4081 2080,4098 2113,4125 2127,4150 2125,4177 2102,4204 2069,4225 2055,4243 2047,4260 " style="fill: white; stroke: black; stroke-width: 30" />
<polyline points="1928,4163 1933,4149 1927,4140 1905,4128 1850,4122 1790,4135 1753,4150 1742,4176 1755,4216 1801,4266 1861,4302 1913,4337 " style="fill: white; stroke: black; stroke-width: 30" />
<polyline points="2028,4220 2008,4245 1983,4286 1959,4330 " style="fill: white; stroke: black; stroke-width: 30" />
<polyline points="2367,4323 2353,4317 2347,4314 2349,4310 2355,4306 " style="fill: white; stroke: black; stroke-width: 30" />
<polyline points="2552,4299 2540,4298 2534,4296 2538,4293 2553,4285 " style="fill: white; stroke: black; stroke-width: 30" />
<polyline points="2757,4306 2765,4307 2763,4305 2764,4306 2763,4305 " style="fill: white; stroke: black; stroke-width: 30" />
<polyline points="3404,4207 3387,4204 3364,4204 3322,4216 3283,4236 3278,4253 3287,4285 3346,4308 " style="fill: white; stroke: black; stroke-width: 30" />
<polyline points="3485,4279 3488,4273 3512,4252 3549,4225 3579,4218 3598,4229 3618,4250 3628,4271 3598,4290 3556,4293 3523,4282 3516,4261 3516,4246 3537,4234 " style="fill: white; stroke: black; stroke-width: 30" />
<polyline points="3632,4282 3685,4273 3732,4256 3755,4247 3741,4244 3717,4232 3679,4223 3652,4231 3648,4243 3670,4260 3720,4275 " style="fill: white; stroke: black; stroke-width: 30" />
<polyline points="3815,4273 3814,4274 3810,4271 3827,4270 3870,4249 3913,4231 3945,4216 3943,4210 3912,4196 " style="fill: white; stroke: black; stroke-width: 30" />
<polyline points="3821,4190 3795,4194 3781,4203 3786,4230 3818,4263 3875,4290 3941,4301 3998,4299 4020,4293 4031,4283 4030,4277 4034,4268 4040,4261 4038,4265 4039,4266 4034,4284 4028,4301 4025,4321 " style="fill: white; stroke: black; stroke-width: 30" />
<polyline points="4042,4152 4049,4133 4056,4123 4059,4130 " style="fill: white; stroke: black; stroke-width: 30" />
<polyline points="4150,4306 4138,4286 4122,4267 4115,4270 4109,4276 4106,4294 4115,4316 4115,4343 4100,4363 4073,4378 4031,4390 4022,4381 4032,4361 " style="fill: white; stroke: black; stroke-width: 30" />
<polyline points="4366,4082 4351,4065 4302,4090 4250,4155 4210,4224 4201,4273 4190,4305 4179,4327 4172,4337 4177,4327 4199,4303 4217,4303 4261,4301 4301,4301 4315,4294 4307,4285 4281,4276 4248,4282 4243,4304 4273,4339 " style="fill: white; stroke: black; stroke-width: 30" />
<polyline points="4392,4354 4390,4349 4377,4357 4390,4354 4413,4344 " style="fill: white; stroke: black; stroke-width: 30" />
<polyline points="4548,4266 4544,4261 4520,4268 4498,4279 4490,4300 4509,4323 4558,4346 4624,4360 " style="fill: white; stroke: black; stroke-width: 30" />
<polyline points="4642,4313 4652,4304 4649,4311 4652,4311 4648,4314 4656,4307 4665,4302 4686,4291 4708,4276 4710,4270 4701,4269 4667,4296 4672,4311 4700,4333 4763,4353 4844,4354 " style="fill: white; stroke: black; stroke-width: 30" />
<polyline points="-1880,7452 -1864,7422 -1839,7359 -1802,7293 -1772,7243 -1744,7212 -1742,7204 -1749,7209 -1755,7228 -1752,7266 -1736,7308 -1699,7351 -1659,7383 -1638,7400 " style="fill: white; stroke: black; stroke-width: 30" />
<polyline points="-1952,7351 -1950,7343 -1940,7333 -1921,7322 -1885,7314 -1836,7321 -1762,7328 " style="fill: white; stroke: black; stroke-width: 30" />
<polyline points="-1439,7248 -1456,7208 -1485,7177 -1508,7169 -1540,7197 -1564,7256 -1567,7343 -1561,7433 -1544,7496 -1529,7521 -1536,7509 -1549,7467 -1568,7399 -1568,7349 -1563,7339 -1548,7339 -1511,7351 -1475,7365 -1453,7366 -1440,7359 -1429,7358 -1432,7365 -1431,7377 -1432,7389 -1430,7389 -1423,7389 -1416,7377 -1406,7353 -1399,7334 -1393,7326 -1390,7322 -1386,7319 -1369,7318 -1359,7319 -1350,7314 -1347,7311 -1344,7309 -1342,7307 -1336,7308 -1338,7309 -1336,7309 -1334,7307 -1328,7303 -1314,7305 -1308,7314 -1298,7332 -1279,7349 " style="fill: white; stroke: black; stroke-width: 30" />
<polyline points="-1185,7284 -1212,7303 -1224,7324 -1223,7344 -1206,7361 " style="fill: white; stroke: black; stroke-width: 30" />
<polyline points="-1214,7113 -1229,7093 -1237,7091 -1236,7096 " style="fill: white; stroke: black; stroke-width: 30" />
<polyline points="-980,7153 -973,7160 -974,7203 -990,7294 -1011,7408 -998,7457 -981,7459 " style="fill: white; stroke: black; stroke-width: 30" />
<polyline points="-824,7246 -869,7271 -946,7302 -998,7332 -1007,7354 -977,7382 -910,7396 -839,7397 " style="fill: white; stroke: black; stroke-width: 30" />
<polyline points="-797,7297 -795,7263 -770,7241 -754,7243 -729,7289 -726,7365 -755,7426 -793,7454 -820,7446 -845,7411 -851,7385 -835,7369 -804,7358 -755,7358 -712,7364 " style="fill: white; stroke: black; stroke-width: 30" />
<polyline points="205,7217 194,7211 174,7232 144,7287 126,7345 117,7402 122,7454 " style="fill: white; stroke: black; stroke-width: 30" />
<polyline points="348,7206 337,7195 314,7222 292,7297 279,7380 275,7429 264,7439 278,7438 298,7417 327,7395 358,7387 381,7400 401,7421 400,7436 348,7448 286,7452 264,7442 257,7421 251,7384 258,7359 " style="fill: white; stroke: black; stroke-width: 30" />
<polyline points="492,7329 467,7335 453,7338 438,7351 450,7378 461,7409 476,7418 496,7419 530,7414 557,7427 588,7448 590,7456 " style="fill: white; stroke: black; stroke-width: 30" />
<polyline points="738,7348 728,7351 708,7381 685,7442 663,7520 640,7578 629,7598 624,7596 641,7551 680,7463 733,7374 785,7321 822,7298 843,7306 834,7342 804,7396 760,7429 720,7446 677,7444 653,7422 651,7382 " style="fill: white; stroke: black; stroke-width: 30" />
<polyline points="913,7413 908,7420 905,7419 901,7415 899,7378 914,7337 923,7311 938,7301 938,7303 974,7326 " style="fill: white; stroke: black; stroke-width: 30" />
<polyline points="1268,7346 1268,7314 1253,7292 1222,7282 1204,7287 1177,7318 1164,7361 1154,7396 1158,7413 1192,7416 1230,7405 1253,7384 1265,7360 1267,7336 1244,7309 1243,7301 1242,7300 " style="fill: white; stroke: black; stroke-width: 30" />
<polyline points="1582,7279 1573,7219 1590,7165 1627,7136 1661,7128 1687,7151 1697,7202 1677,7260 1648,7305 1643,7322 1651,7338 " style="fill: white; stroke: black; stroke-width: 30" />
<polyline points="1609,7521 1605,7506 1596,7494 1594,7491 1593,7486 1596,7488 " style="fill: white; stroke: black; stroke-width: 30" />
<polyline points="306,7701 292,7702 275,7719 228,7785 193,7869 200,7916 229,7939 295,7947 365,7952 " style="fill: white; stroke: black; stroke-width: 30" />
<polyline points="438,7844 420,7843 438,7854 483,7874 515,7900 537,7935 519,7971 486,7998 452,8015 " style="fill: white; stroke: black; stroke-width: 30" />
<polyline points="863,8107 871,8106 897,8104 950,8100 1016,8096 1070,8097 " style="fill: white; stroke: black; stroke-width: 30" />
<polyline points="968,7988 956,7999 946,8049 962,8118 " style="fill: white; stroke: black; stroke-width: 30" />
<polyline points="1389,7890 1363,7872 1356,7866 1378,7877 1406,7934 1451,8009 1467,8074 1446,8129 1415,8174 1392,8213 1394,8222 1407,8210 " style="fill: white; stroke: black; stroke-width: 30" />
<polyline points="1324,7928 1300,7908 1303,7890 1334,7867 1394,7868 1453,7905 1511,7963 1538,8022 1537,8061 1534,8085 1477,8119 1411,8141 1316,8163 1273,8171 1270,8167 1304,8155 1347,8133 1396,8129 1473,8127 1554,8135 1661,8131 1746,8114 1776,8087 1763,8066 1720,8042 1667,8043 1633,8064 1628,8086 1654,8104 1713,8119 1792,8126 " style="fill: white; stroke: black; stroke-width: 30" />
<polyline points="1906,7852 1910,7865 1894,7913 1874,7999 1847,8090 1861,8121 1867,8126 1880,8114 1919,8081 1984,8058 2011,8060 2025,8081 2022,8105 2000,8113 1954,8109 1890,8095 1830,8089 1822,8088 1837,8089 1897,8084 " style="fill: white; stroke: black; stroke-width: 30" />
<polyline points="2115,8011 2101,8010 2092,8016 2056,8052 2051,8080 2087,8084 2112,8079 2161,8067 2189,8069 2190,8094 2155,8138 2168,8152 2158,8160 " style="fill: white; stroke: black; stroke-width: 30" />
<polyline points="2378,8103 2388,8095 2408,8064 2408,8040 2390,8037 2338,8065 2319,8089 2326,8105 2344,8112 2357,8146 2345,8201 2333,8267 2307,8338 2275,8405 2221,8461 2184,8485 2186,8483 2215,8430 2291,8338 2403,8266 " style="fill: white; stroke: black; stroke-width: 30" />

</svg>