<?xml version="1.0" standalone="no"?>
<!DOCTYPE svg PUBLIC "-//W3C//DTD SVG 1.1//EN" "http://www.w3.org/Graphics/SVG/1.1/DTD/svg11.dtd">
<svg width="210mm" height="297mm" viewBox="-7000 500 14000 20000" version="1.1" xmlns="http://www.w3.org/2000/svg">

<polyline points="-2248,1677 -2254,1663 -2272,1649 -2312,1649 -2362,1664 -2415,1696 -2433,1750 -2410,1849 -2359,1932 -2325,2000 -2332,2053 -2372,2089 -2421,2088 -2464,2051 -2471,2001 " style="fill: white; stroke: black; stroke-width: 30" />
<polyline points="-2086,1664 -2102,1681 -2116,1733 -2133,1842 -2151,1960 -2147,2016 -2147,2020 -2156,1987 -2183,1930 -2198,1888 -2197,1858 -2181,1844 -2158,1841 -2123,1847 -2082,1855 " style="fill: white; stroke: black; stroke-width: 30" />
<polyline points="-1918,1764 -1919,1757 -1906,1773 -1901,1837 -1929,1927 -1965,1986 -2002,1998 -2030,1964 -2037,1902 -2000,1842 -1940,1815 -1891,1834 -1869,1885 " style="fill: white; stroke: black; stroke-width: 30" />
<polyline points="-1770,1772 -1762,1755 -1725,1743 -1690,1759 -1672,1811 -1688,1881 -1727,1938 -1767,1963 -1796,1937 -1795,1897 -1773,1875 -1738,1878 -1679,1891 -1593,1867 -1475,1795 -1391,1691 -1358,1585 -1374,1559 -1400,1564 -1440,1644 -1475,1766 -1479,1857 -1456,1902 -1442,1911 -1442,1886 " style="fill: white; stroke: black; stroke-width: 30" />
<polyline points="-1504,1800 -1516,1784 -1498,1777 -1456,1774 -1403,1776 -1367,1780 " style="fill: white; stroke: black; stroke-width: 30" />
<polyline points="-2314,2283 -2285,2268 -2240,2259 -2185,2265 -2119,2278 " style="fill: white; stroke: black; stroke-width: 30" />
<polyline points="-2199,2228 -2214,2239 -2215,2273 -2229,2340 -2256,2444 -2271,2533 -2251,2574 -2197,2594 -2107,2595 -2038,2580 -1994,2565 -1981,2553 " style="fill: white; stroke: black; stroke-width: 30" />
<polyline points="-2030,2476 -2010,2462 -1963,2453 -1913,2468 -1883,2495 -1887,2539 -1913,2571 -1936,2596 -1934,2597 " style="fill: white; stroke: black; stroke-width: 30" />
<polyline points="-1509,2363 -1546,2386 -1590,2436 -1617,2520 -1601,2617 -1528,2684 -1403,2692 -1308,2638 -1267,2572 -1281,2538 -1347,2552 -1416,2613 -1432,2666 -1375,2704 -1273,2685 -1184,2641 -1129,2619 -1136,2624 -1166,2651 -1182,2697 -1168,2726 -1124,2728 -1083,2679 -1064,2634 -1067,2618 -1078,2624 -1089,2644 -1093,2675 -1087,2683 " style="fill: white; stroke: black; stroke-width: 30" />
<polyline points="-1058,2383 -1061,2379 -1050,2375 -1031,2372 -1004,2374 " style="fill: white; stroke: black; stroke-width: 30" />
<polyline points="-832,2573 -818,2570 -824,2570 -856,2579 -919,2605 -977,2662 -987,2702 -937,2730 -815,2677 -652,2547 -552,2432 -566,2399 -653,2442 -741,2550 -770,2642 -718,2693 -608,2700 -537,2703 -525,2710 -519,2710 -488,2670 -433,2610 -426,2573 -451,2587 -464,2637 -437,2684 -355,2702 -269,2687 " style="fill: white; stroke: black; stroke-width: 30" />
<polyline points="334,2573 328,2592 312,2649 295,2713 308,2727 " style="fill: white; stroke: black; stroke-width: 30" />
<polyline points="367,2419 369,2381 406,2359 463,2384 486,2450 453,2521 402,2544 363,2521 358,2465 397,2398 " style="fill: white; stroke: black; stroke-width: 30" />
<polyline points="409,2744 410,2738 443,2709 472,2690 476,2688 479,2691 494,2692 514,2686 520,2685 524,2688 544,2691 587,2688 608,2692 613,2721 614,2748 631,2756 716,2734 787,2736 " style="fill: white; stroke: black; stroke-width: 30" />
<polyline points="1363,2443 1354,2443 1342,2458 1312,2535 1273,2665 1271,2752 " style="fill: white; stroke: black; stroke-width: 30" />
<polyline points="1544,2527 1459,2537 1344,2597 1258,2686 1253,2737 1346,2769 1484,2734 1591,2689 1613,2662 1578,2655 1528,2662 1506,2674 1504,2684 1496,2725 1501,2756 1542,2783 1619,2776 1698,2753 1763,2711 " style="fill: white; stroke: black; stroke-width: 30" />
<polyline points="1957,2476 1926,2477 1865,2523 1801,2626 1775,2720 1801,2777 1850,2786 1908,2744 1950,2674 1987,2614 2004,2588 2007,2591 2003,2595 1982,2621 1937,2671 1907,2726 1915,2758 1962,2764 2049,2753 2107,2734 2110,2716 2096,2704 2075,2708 2068,2720 2075,2730 2086,2737 2105,2730 2126,2716 2145,2689 2162,2657 2193,2623 2253,2595 2334,2578 2447,2571 " style="fill: white; stroke: black; stroke-width: 30" />
<polyline points="-1541,3119 -1544,3113 -1543,3107 -1536,3102 -1501,3094 -1449,3091 -1375,3081 " style="fill: white; stroke: black; stroke-width: 30" />
<polyline points="-1368,3084 -1424,3110 -1476,3176 -1514,3272 -1495,3326 -1431,3352 -1333,3351 -1250,3342 -1198,3337 " style="fill: white; stroke: black; stroke-width: 30" />
<polyline points="-1220,3292 -1235,3285 -1217,3292 -1174,3315 -1137,3348 -1129,3379 -1149,3399 -1171,3404 " style="fill: white; stroke: black; stroke-width: 30" />
<polyline points="-665,3220 -678,3216 -672,3212 -627,3202 -512,3181 -403,3173 " style="fill: white; stroke: black; stroke-width: 30" />
<polyline points="-647,3239 -690,3266 -735,3326 -750,3383 -705,3421 -608,3435 -495,3427 -418,3419 " style="fill: white; stroke: black; stroke-width: 30" />
<polyline points="-692,3332 -666,3330 -574,3319 -432,3305 " style="fill: white; stroke: black; stroke-width: 30" />
<polyline points="-383,3442 -382,3434 -331,3407 -235,3363 -151,3327 -129,3318 " style="fill: white; stroke: black; stroke-width: 30" />
<polyline points="-310,3325 -319,3330 -296,3355 -249,3406 -181,3464 " style="fill: white; stroke: black; stroke-width: 30" />
<polyline points="728,3250 744,3208 760,3159 756,3125 730,3089 676,3092 608,3169 543,3327 512,3486 497,3622 " style="fill: white; stroke: black; stroke-width: 30" />
<polyline points="516,3418 532,3373 552,3358 597,3371 666,3403 " style="fill: white; stroke: black; stroke-width: 30" />
<polyline points="861,3335 848,3308 852,3304 870,3331 874,3387 845,3449 789,3480 736,3471 721,3438 737,3425 789,3428 853,3468 922,3492 1025,3465 1139,3383 1192,3285 1180,3224 1153,3230 1113,3306 1077,3441 1099,3538 1142,3570 1201,3535 " style="fill: white; stroke: black; stroke-width: 30" />
<polyline points="1378,3366 1357,3355 1330,3367 1308,3429 1299,3501 1292,3552 1263,3569 1227,3558 1193,3522 1202,3499 1264,3473 1376,3454 1492,3431 1582,3398 1607,3371 1584,3366 1546,3383 1535,3408 1541,3414 1551,3409 1551,3401 1550,3392 1546,3386 1545,3386 1544,3386 1536,3393 1490,3431 1464,3487 1477,3534 1513,3549 1565,3522 1612,3455 1610,3391 1589,3364 1580,3362 1597,3362 " style="fill: white; stroke: black; stroke-width: 30" />
<polyline points="-688,3766 -695,3764 -687,3755 -657,3747 -607,3747 -539,3762 -432,3768 " style="fill: white; stroke: black; stroke-width: 30" />
<polyline points="-517,3751 -543,3755 -558,3776 -572,3836 -597,3941 -593,4020 -536,4063 -417,4077 -283,4063 " style="fill: white; stroke: black; stroke-width: 30" />
<polyline points="-320,4017 -339,4006 -332,3994 -296,3985 -246,3991 -198,4021 -184,4046 -197,4065 -231,4088 -265,4111 -275,4117 -266,4117 " style="fill: white; stroke: black; stroke-width: 30" />
<polyline points="392,3916 396,3890 395,3886 384,3895 367,3916 327,3988 290,4077 283,4144 322,4187 384,4192 433,4156 447,4142 443,4146 439,4162 455,4189 502,4210 584,4197 648,4137 665,4059 646,4001 627,3975 628,3970 " style="fill: white; stroke: black; stroke-width: 30" />
<polyline points="910,3860 876,3848 831,3869 782,3926 736,4032 710,4134 719,4190 741,4213 772,4201 804,4175 811,4170 821,4181 845,4210 877,4235 " style="fill: white; stroke: black; stroke-width: 30" />
<polyline points="988,4059 978,4046 1000,4039 1047,4050 1082,4094 1082,4168 1028,4237 976,4262 939,4243 937,4191 968,4158 1013,4164 1084,4200 1176,4216 1296,4184 " style="fill: white; stroke: black; stroke-width: 30" />
<polyline points="1471,3977 1444,3919 1406,3929 1348,4016 1279,4156 1260,4253 1263,4274 1275,4237 1308,4167 1332,4145 1365,4149 1438,4166 " style="fill: white; stroke: black; stroke-width: 30" />
<polyline points="1976,3866 1990,3854 1996,3864 1976,3927 1908,4057 1839,4174 1808,4234 1818,4241 1844,4179 1866,4093 1890,4045 1925,4031 1994,4023 2103,3999 2206,3950 2264,3893 2253,3863 2199,3878 2097,3976 2035,4074 2034,4141 2060,4166 2110,4164 2174,4159 2250,4154 2342,4137 2402,4098 2395,4072 2333,4068 2260,4114 2242,4166 2300,4217 2401,4222 2474,4201 " style="fill: white; stroke: black; stroke-width: 30" />
<polyline points="3063,3916 3063,3913 3068,3912 3076,3915 3082,3916 3081,3918 3075,3921 3073,3921 3071,3920 3051,3947 3010,4006 2922,4123 2832,4241 2825,4298 " style="fill: white; stroke: black; stroke-width: 30" />
<polyline points="3259,3961 3233,3970 3147,4032 3022,4130 2944,4189 2916,4211 " style="fill: white; stroke: black; stroke-width: 30" />
<polyline points="2911,4141 2922,4095 2932,4090 2971,4108 3060,4136 3152,4148 3245,4127 3307,4089 3304,4057 3261,4055 3188,4094 3157,4156 3181,4206 3269,4227 3405,4184 3554,4086 3680,3961 3692,3919 3650,3923 3542,3996 3447,4095 3436,4171 3482,4206 3608,4185 3704,4138 3695,4131 3637,4138 3581,4169 3549,4228 " style="fill: white; stroke: black; stroke-width: 30" />
<polyline points="386,4498 383,4489 376,4490 359,4514 306,4589 277,4660 312,4709 392,4733 470,4736 526,4739 " style="fill: white; stroke: black; stroke-width: 30" />
<polyline points="523,4689 520,4684 544,4678 584,4687 613,4708 613,4734 575,4768 517,4796 501,4809 " style="fill: white; stroke: black; stroke-width: 30" />
<polyline points="1028,4943 1015,4919 1020,4905 1063,4899 1161,4902 1248,4917 1292,4924 1285,4921 1215,4899 1091,4880 1009,4859 1016,4855 1095,4830 1196,4818 1245,4815 1233,4807 1175,4764 1105,4723 1065,4710 1066,4714 1088,4716 1114,4721 1104,4715 1066,4712 1066,4712 1084,4718 1142,4725 " style="fill: white; stroke: black; stroke-width: 30" />
<polyline points="1096,4649 1053,4639 1012,4625 1001,4619 1008,4611 1015,4603 1027,4574 1049,4550 1118,4521 1276,4499 1465,4511 1601,4550 1633,4578 1540,4613 1310,4642 1090,4637 1037,4627 1097,4637 " style="fill: white; stroke: black; stroke-width: 30" />
<polyline points="1718,879 1703,875 1680,886 1667,906 1660,918 1660,926 1658,926 1659,928 1658,926 1659,928 1658,926 1659,926 1658,926 1658,929 1657,927 1657,929 1656,929 1656,929 1654,932 1650,941 1631,978 1636,1014 1679,1030 1771,1004 1850,943 1868,927 1862,931 1859,937 1853,941 1857,942 1858,940 1859,941 1857,939 1858,940 1853,943 1853,945 1852,945 1853,946 1850,946 1853,945 1852,943 1854,942 1853,940 1854,942 1854,940 1856,940 1861,934 1868,935 " style="fill: white; stroke: black; stroke-width: 30" />
<polyline points="1771,855 1749,830 1748,830 1746,855 1707,1015 1637,1272 1607,1455 " style="fill: white; stroke: black; stroke-width: 30" />
<polyline points="1851,1119 1846,1102 1835,1101 1822,1121 1813,1149 1822,1161 1843,1158 1878,1161 1884,1200 1834,1330 1783,1432 1803,1484 " style="fill: white; stroke: black; stroke-width: 30" />
<polyline points="1937,1411 1932,1396 1962,1326 2038,1196 2113,1111 2157,1094 2171,1115 2144,1195 2092,1248 2064,1250 2041,1205 2060,1131 " style="fill: white; stroke: black; stroke-width: 30" />
<polyline points="2815,1055 2800,1025 2785,1023 2762,1056 2720,1151 2732,1211 2789,1237 2875,1212 2926,1160 2921,1130 2894,1111 2855,1119 2848,1142 2897,1183 2984,1199 3077,1185 3124,1152 3108,1124 3043,1118 2989,1149 2993,1182 3063,1225 3172,1218 3251,1182 3265,1138 3252,1113 3253,1102 3293,1114 " style="fill: white; stroke: black; stroke-width: 30" />
<polyline points="3442,1074 3449,1075 3470,1104 3501,1150 3503,1215 3456,1270 3388,1289 3340,1282 3323,1248 3335,1210 3364,1189 3395,1201 3446,1231 3521,1260 " style="fill: white; stroke: black; stroke-width: 30" />
<polyline points="3483,944 3483,927 3497,926 3562,962 3630,1051 " style="fill: white; stroke: black; stroke-width: 30" />
<polyline points="3613,1239 3560,1269 3546,1259 3565,1230 3611,1188 3637,1191 3652,1221 3663,1273 3694,1306 " style="fill: white; stroke: black; stroke-width: 30" />
<polyline points="3837,1205 3780,1208 3747,1225 3760,1257 3810,1280 3917,1256 4014,1180 4051,1098 4028,1049 3985,1045 3939,1098 3933,1179 3956,1255 3984,1283 4000,1293 3999,1285 3991,1300 4006,1329 4058,1349 4141,1331 4194,1286 4196,1262 4190,1266 4197,1273 4236,1295 4286,1305 4320,1261 " style="fill: white; stroke: black; stroke-width: 30" />
<polyline points="4460,1055 4495,1026 4488,1028 4449,1065 4352,1192 4280,1304 4243,1377 4239,1380 4261,1323 4311,1260 4360,1239 4453,1247 4563,1254 " style="fill: white; stroke: black; stroke-width: 30" />
<polyline points="2350,1520 2352,1508 2339,1517 2308,1584 2278,1689 2297,1753 2347,1767 2411,1754 2454,1751 2480,1777 2490,1811 2518,1825 " style="fill: white; stroke: black; stroke-width: 30" />
<polyline points="2693,1674 2700,1651 2706,1644 2717,1651 2725,1681 2703,1752 2650,1808 2604,1823 2588,1797 2603,1754 2639,1728 2671,1733 2710,1752 2767,1769 " style="fill: white; stroke: black; stroke-width: 30" />
<polyline points="2959,1528 2951,1528 2932,1554 2873,1656 2837,1739 2835,1786 2847,1787 2869,1774 2890,1766 2908,1776 2942,1785 2980,1796 " style="fill: white; stroke: black; stroke-width: 30" />
<polyline points="3131,1659 3141,1660 3153,1677 3165,1716 3141,1781 3101,1828 3061,1848 3044,1836 3042,1806 3055,1783 3067,1780 3100,1797 3146,1826 3213,1836 " style="fill: white; stroke: black; stroke-width: 30" />
<polyline points="3427,1547 3419,1535 3414,1543 3344,1645 3263,1767 3254,1833 3268,1847 3304,1832 3344,1814 3363,1816 3364,1841 3381,1871 " style="fill: white; stroke: black; stroke-width: 30" />
<polyline points="3479,1766 3531,1729 3577,1723 3587,1755 3577,1804 3543,1860 3506,1884 3478,1882 3474,1861 3488,1844 3501,1837 3531,1841 3563,1849 3614,1869 " style="fill: white; stroke: black; stroke-width: 30" />
<polyline points="2692,77 2651,232 2638,289 2646,278 2670,160 " style="fill: white; stroke: black; stroke-width: 30" />
<polyline points="3005,124 2973,278 2948,409 2930,439 2918,447 2920,412 2956,375 3033,306 3116,241 3185,151 3221,115 3223,163 3206,244 3165,358 3153,415 3170,430 " style="fill: white; stroke: black; stroke-width: 30" />
<polyline points="3487,297 3475,290 3437,281 3378,307 3343,355 3332,371 3322,365 3307,359 3303,329 3337,324 " style="fill: white; stroke: black; stroke-width: 30" />
<polyline points="3690,20 " style="fill: white; stroke: black; stroke-width: 30" />
<polyline points="3609,90 3518,284 3472,405 3453,459 3455,464 3482,421 3519,396 3571,382 3646,355 3697,345 3696,325 3634,379 3582,426 3570,489 3611,543 3681,568 3744,525 3764,445 3755,384 3747,401 3768,396 3827,427 3894,446 3930,415 3921,397 3894,378 3885,401 3901,467 3932,540 3969,538 3991,525 3993,511 3994,506 4008,517 " style="fill: white; stroke: black; stroke-width: 30" />
<polyline points="2754,548 2745,547 2721,563 2693,605 2673,640 2671,658 2667,677 2649,727 2625,785 2625,818 2629,828 2635,824 2636,822 2640,820 2650,814 2666,813 2689,806 2716,804 2742,807 2768,807 2798,815 2842,819 " style="fill: white; stroke: black; stroke-width: 30" />
<polyline points="2877,681 2874,687 2882,713 2906,785 2912,839 2883,874 2822,890 2790,893 2821,895 " style="fill: white; stroke: black; stroke-width: 30" />
<polyline points="3222,630 3214,633 3199,628 3160,665 3105,715 3047,783 3020,835 3036,886 3081,919 3155,917 3239,890 3305,840 3316,805 3285,789 3227,786 3188,823 3192,862 3243,912 3315,941 " style="fill: white; stroke: black; stroke-width: 30" />
<polyline points="3500,776 3492,772 3485,774 3487,772 3483,780 3482,783 3479,777 3477,774 3470,767 3443,765 3395,770 3378,800 3383,833 3410,847 3448,842 3463,844 3459,857 3444,925 3417,1020 3403,1074 3388,1083 3384,1039 3402,941 3472,828 3568,763 3645,770 3672,766 3657,783 3632,805 3600,842 3585,868 3593,883 " style="fill: white; stroke: black; stroke-width: 30" />
<polyline points="3798,620 3781,583 3764,565 3763,573 3787,591 3849,627 3910,650 3915,687 3860,728 3765,813 3699,887 3687,929 3714,924 3772,866 3813,802 3822,799 3840,801 3890,823 3934,839 3935,848 3913,858 3885,873 3883,873 3910,878 " style="fill: white; stroke: black; stroke-width: 30" />
<polyline points="4019,777 4018,743 4004,739 4008,729 4011,743 4019,733 4014,736 4007,732 4005,722 4004,736 4004,732 4006,732 4006,729 4006,729 4005,725 4006,729 4007,725 4009,736 4025,720 " style="fill: white; stroke: black; stroke-width: 30" />
<polyline points="4008,848 3996,838 4008,827 4043,817 4078,811 4088,821 4080,830 4073,838 4083,845 4135,853 4169,865 4163,873 4147,893 " style="fill: white; stroke: black; stroke-width: 30" />
<polyline points="4260,778 4268,758 4276,769 4288,777 4298,798 4270,864 4211,895 4169,895 4158,891 4165,876 4181,856 4221,872 4309,879 " style="fill: white; stroke: black; stroke-width: 30" />
<polyline points="4488,812 4546,726 4544,707 4536,710 4492,781 4438,845 4402,887 4389,907 4401,871 4429,841 4452,826 4460,827 4477,858 4511,877 4549,886 4575,882 4581,859 4553,893 4523,915 4518,936 4534,928 4589,899 4646,817 4697,720 4697,676 4697,654 4700,654 " style="fill: white; stroke: black; stroke-width: 30" />
<polyline points="4707,882 4710,839 4746,817 4795,817 4805,849 4763,903 4682,941 4651,935 4660,923 4707,895 4773,877 4803,893 4793,931 4788,968 4807,963 4846,941 4854,926 4850,935 4858,949 4889,1012 4943,1029 " style="fill: white; stroke: black; stroke-width: 30" />
<polyline points="3010,2233 3009,2221 3033,2187 3109,2156 3183,2169 3205,2232 3168,2315 3098,2373 3049,2395 3054,2396 3088,2391 3159,2391 " style="fill: white; stroke: black; stroke-width: 30" />
<polyline points="3348,2268 3345,2233 3367,2213 3407,2227 3431,2291 3400,2369 3342,2397 3314,2384 3300,2332 3305,2273 3324,2239 " style="fill: white; stroke: black; stroke-width: 30" />
<polyline points="3905,2202 3895,2189 3878,2203 3810,2270 3761,2331 3753,2381 3773,2405 3818,2405 3848,2381 3848,2376 3845,2379 3853,2401 3900,2436 3968,2458 4014,2445 4042,2385 4042,2312 4026,2254 4018,2237 " style="fill: white; stroke: black; stroke-width: 30" />
<polyline points="4195,2355 4197,2314 4218,2307 4254,2340 4278,2401 4270,2455 4226,2487 4186,2479 4160,2448 4152,2409 4163,2362 4190,2326 4223,2308 " style="fill: white; stroke: black; stroke-width: 30" />
<polyline points="4237,2225 4224,2195 4247,2197 4306,2226 4379,2253 4441,2262 4476,2252 4490,2230 4477,2219 4462,2222 4434,2248 4401,2307 4391,2359 4405,2412 4432,2474 " style="fill: white; stroke: black; stroke-width: 30" />
<polyline points="4709,2342 4738,2311 4753,2274 4733,2250 4680,2234 4598,2275 4528,2375 4504,2472 4498,2532 4496,2557 4499,2542 4532,2495 4600,2463 4704,2448 4805,2445 4870,2427 4859,2397 4797,2378 4736,2385 4718,2430 4741,2488 4808,2549 " style="fill: white; stroke: black; stroke-width: 30" />
<polyline points="2850,2588 2831,2579 2862,2571 2935,2559 3063,2556 3342,2551 3778,2558 4389,2564 5053,2607 " style="fill: white; stroke: black; stroke-width: 30" />
<polyline points="1845,1798 1985,1698 2288,1479 2760,1195 3462,835 4213,551 5039,238 " style="fill: white; stroke: black; stroke-width: 30" />
<polyline points="-1214,5495 -1202,5480 -1178,5445 -1170,5404 -1189,5362 -1230,5341 -1291,5354 -1351,5432 -1390,5568 -1388,5733 -1347,5846 -1316,5915 " style="fill: white; stroke: black; stroke-width: 30" />
<polyline points="-1523,5610 -1513,5598 -1467,5590 -1369,5602 -1230,5614 " style="fill: white; stroke: black; stroke-width: 30" />
<polyline points="-1036,5401 -1044,5396 " style="fill: white; stroke: black; stroke-width: 30" />
<polyline points="-1041,5339 -1049,5338 -1051,5336 -1039,5339 -1003,5340 -945,5338 " style="fill: white; stroke: black; stroke-width: 30" />
<polyline points="-893,5393 -885,5384 -833,5358 -745,5311 -694,5267 -684,5234 -701,5216 -710,5223 -731,5261 -750,5342 -735,5422 " style="fill: white; stroke: black; stroke-width: 30" />
<polyline points="-491,5206 -473,5193 -479,5190 -504,5216 -579,5329 -632,5472 -636,5591 -593,5670 -507,5710 " style="fill: white; stroke: black; stroke-width: 30" />
<polyline points="-402,5659 -363,5631 -292,5578 -182,5503 -105,5453 -94,5427 " style="fill: white; stroke: black; stroke-width: 30" />
<polyline points="-385,5392 -383,5409 -347,5457 -275,5534 -181,5609 " style="fill: white; stroke: black; stroke-width: 30" />
<polyline points="134,5232 158,5316 158,5494 87,5671 -11,5795 -86,5866 " style="fill: white; stroke: black; stroke-width: 30" />
<polyline points="-2190,5601 -2361,5598 -2535,5540 -2730,5445 -2939,5293 -3133,5098 -3269,4866 -3309,4595 -3236,4283 -3038,3965 -2747,3689 -2431,3487 " style="fill: white; stroke: black; stroke-width: 30" />
<polyline points="-2810,3536 -2804,3540 -2747,3528 -2618,3459 -2494,3389 -2477,3382 -2512,3451 -2600,3662 -2574,3800 " style="fill: white; stroke: black; stroke-width: 30" />
<polyline points="-2689,7236 -2694,7225 -2712,7217 -2720,7224 -2737,7253 -2765,7338 -2782,7438 -2762,7496 -2697,7521 -2628,7497 -2577,7449 -2571,7431 -2579,7440 -2587,7489 -2569,7535 -2489,7541 -2369,7464 -2285,7367 -2294,7285 -2348,7235 -2399,7218 -2401,7219 -2358,7226 " style="fill: white; stroke: black; stroke-width: 30" />
<polyline points="-2219,7447 -2205,7454 -2173,7448 -2112,7423 -2064,7396 -2059,7382 -2111,7369 -2195,7390 -2258,7437 -2253,7492 -2191,7539 -2087,7564 " style="fill: white; stroke: black; stroke-width: 30" />
<polyline points="-1874,7246 -1894,7242 -1891,7243 -1892,7256 -1896,7316 -1913,7403 -1930,7496 -1940,7563 -1930,7596 -1916,7606 -1893,7596 -1840,7530 -1795,7455 -1769,7430 -1769,7437 -1776,7488 -1791,7573 -1822,7627 -1854,7643 -1898,7622 -1939,7565 -1929,7509 -1896,7491 -1795,7485 -1673,7480 -1586,7471 -1566,7469 -1578,7475 -1609,7519 -1626,7570 -1622,7620 -1606,7637 -1564,7606 " style="fill: white; stroke: black; stroke-width: 30" />
<polyline points="-1490,7171 -1514,7141 -1524,7138 -1521,7146 " style="fill: white; stroke: black; stroke-width: 30" />
<polyline points="-1338,7526 -1426,7521 -1468,7525 -1457,7557 -1431,7623 -1398,7676 -1404,7679 -1441,7650 -1503,7584 -1508,7531 " style="fill: white; stroke: black; stroke-width: 30" />
<polyline points="-1265,7544 -1260,7504 -1201,7475 -1112,7494 -1051,7553 -1053,7625 -1126,7678 -1211,7688 -1247,7655 -1248,7613 -1222,7548 -1166,7501 " style="fill: white; stroke: black; stroke-width: 30" />
<polyline points="-791,7532 -795,7523 -814,7508 -847,7504 -931,7562 -995,7649 -993,7710 -927,7729 -813,7668 -698,7561 -651,7440 -667,7387 -716,7368 -772,7400 -784,7464 -746,7551 -662,7621 -567,7663 -505,7682 -488,7682 -496,7660 -508,7619 -518,7591 -511,7593 -473,7593 -412,7602 -354,7595 -321,7565 -319,7522 -321,7502 -315,7497 " style="fill: white; stroke: black; stroke-width: 30" />
<polyline points="-2316,7806 -2343,7807 -2354,7805 -2350,7808 -2335,7809 -2301,7815 -2259,7819 -2202,7830 -2089,7846 -1926,7858 -1737,7874 -1540,7893 -1370,7909 -1201,7928 -1053,7938 -960,7947 -918,7949 -900,7950 -895,7949 -893,7948 -892,7947 -898,7949 -890,7949 -894,7951 -881,7951 -886,7950 -878,7949 -884,7950 -884,7949 -886,7950 -877,7949 -878,7949 -873,7947 -876,7947 -873,7946 -878,7948 -878,7948 -875,7951 -875,7949 -877,7951 -873,7948 -877,7950 -876,7948 -874,7950 -871,7950 -874,7952 -866,7952 " style="fill: white; stroke: black; stroke-width: 30" />
<polyline points="-2295,8499 -2297,8488 -2305,8483 -2312,8496 -2329,8575 -2356,8709 -2358,8794 -2344,8821 -2328,8793 -2305,8690 -2289,8573 -2265,8498 -2216,8474 -2156,8482 -2122,8510 -2135,8542 -2197,8584 -2297,8623 -2339,8640 -2325,8656 -2258,8696 -2160,8724 -2053,8726 -1962,8687 -1892,8623 -1876,8589 -1878,8583 -1881,8589 -1893,8612 -1921,8668 -1937,8710 -1931,8730 -1896,8718 " style="fill: white; stroke: black; stroke-width: 30" />
<polyline points="-1837,8413 -1860,8394 -1870,8393 -1878,8398 -1856,8432 " style="fill: white; stroke: black; stroke-width: 30" />
<polyline points="-1645,8714 -1701,8673 -1752,8640 -1799,8649 -1815,8700 -1781,8774 -1691,8793 -1568,8734 -1454,8625 -1409,8550 -1417,8542 -1455,8571 -1505,8673 -1520,8754 -1479,8801 -1438,8817 -1364,8806 " style="fill: white; stroke: black; stroke-width: 30" />
<polyline points="-1103,8526 -1190,8613 -1286,8735 -1329,8813 -1320,8828 -1322,8805 -1292,8760 -1260,8745 -1196,8761 -1097,8786 -993,8784 -965,8762 -1006,8732 -1081,8738 -1110,8783 -1074,8838 -997,8869 -904,8844 -870,8791 -866,8753 -867,8746 -854,8753 " style="fill: white; stroke: black; stroke-width: 30" />
<polyline points="-61,8441 -77,8466 -111,8558 -215,8727 -306,8899 -331,8994 " style="fill: white; stroke: black; stroke-width: 30" />
<polyline points="493,8476 481,8502 455,8623 413,8784 379,8878 344,8929 298,8947 247,8937 217,8903 241,8821 314,8701 416,8660 " style="fill: white; stroke: black; stroke-width: 30" />
<polyline points="609,8711 605,8748 565,8806 524,8852 522,8861 536,8856 564,8843 608,8835 620,8846 639,8878 677,8908 " style="fill: white; stroke: black; stroke-width: 30" />
<polyline points="900,8831 903,8822 911,8798 906,8768 887,8742 854,8732 833,8740 817,8759 820,8772 820,8773 820,8770 825,8767 821,8765 817,8768 813,8770 812,8789 810,8825 829,8851 850,8857 879,8851 896,8837 893,8829 896,8825 893,8827 900,8825 906,8818 942,8789 947,8775 942,8772 934,8775 927,8774 934,8775 925,8771 933,8771 930,8768 928,8769 928,8769 928,8772 918,8771 922,8774 922,8771 915,8773 917,8772 918,8771 913,8772 910,8773 905,8772 908,8773 911,8771 910,8772 906,8770 908,8771 903,8772 906,8772 901,8771 905,8774 905,8774 905,8775 898,8776 902,8775 900,8775 902,8775 903,8775 900,8777 897,8777 904,8779 904,8778 904,8778 912,8778 911,8780 912,8779 907,8782 909,8780 911,8782 916,8780 909,8782 916,8780 919,8778 942,8727 978,8673 982,8632 977,8615 977,8611 972,8614 969,8628 954,8695 933,8779 924,8832 937,8888 " style="fill: white; stroke: black; stroke-width: 30" />
<polyline points="1229,8830 1210,8805 1188,8768 1146,8745 1109,8761 1116,8819 1140,8888 1162,8951 1143,9013 1082,9075 1039,9094 1033,9090 1059,9054 1137,8964 1242,8878 1326,8847 1370,8819 1385,8792 1361,8781 1319,8800 1304,8851 1323,8909 1377,8967 1453,9012 " style="fill: white; stroke: black; stroke-width: 30" />
<polyline points="-1968,9083 -2005,9076 -2002,9070 -1996,9066 -1949,9065 -1878,9076 -1760,9075 -1655,9057 " style="fill: white; stroke: black; stroke-width: 30" />
<polyline points="-1804,9058 -1825,9074 -1858,9138 -1886,9253 -1886,9327 -1832,9369 -1770,9374 -1679,9375 -1603,9380 " style="fill: white; stroke: black; stroke-width: 30" />
<polyline points="-1564,9232 -1568,9231 -1561,9244 -1551,9305 -1540,9389 -1551,9443 -1588,9476 -1613,9480 -1615,9471 " style="fill: white; stroke: black; stroke-width: 30" />
<polyline points="-1089,9251 -1085,9245 -1091,9251 -1091,9300 -1112,9418 -1164,9536 -1162,9584 " style="fill: white; stroke: black; stroke-width: 30" />
<polyline points="-867,9303 -931,9301 -1022,9328 -1114,9390 -1173,9462 -1141,9529 -1059,9574 -954,9583 -863,9562 " style="fill: white; stroke: black; stroke-width: 30" />
<polyline points="-696,9420 -708,9416 -740,9406 -782,9397 -835,9400 -876,9436 -884,9483 -846,9533 -785,9546 -729,9522 -715,9480 -743,9452 -764,9440 -754,9443 -716,9447 -646,9455 " style="fill: white; stroke: black; stroke-width: 30" />
<polyline points="-599,9531 -595,9536 -563,9517 -533,9485 -510,9477 -495,9491 -486,9529 -470,9564 " style="fill: white; stroke: black; stroke-width: 30" />
<polyline points="-195,9284 -209,9288 -243,9360 -301,9499 -334,9590 -342,9612 -343,9589 -338,9530 -315,9494 -288,9487 -245,9506 -201,9538 -170,9551 -161,9556 -175,9547 -170,9534 -146,9506 -111,9472 -55,9444 " style="fill: white; stroke: black; stroke-width: 30" />
<polyline points="145,9489 133,9490 105,9485 68,9481 10,9488 -25,9524 -29,9573 10,9609 76,9603 108,9562 104,9512 71,9493 66,9497 122,9528 221,9523 311,9490 346,9429 320,9389 279,9388 222,9472 210,9580 255,9648 317,9645 425,9561 532,9413 582,9327 578,9320 559,9356 501,9449 450,9534 458,9560 497,9571 598,9554 706,9538 759,9519 749,9506 699,9500 645,9534 633,9573 667,9617 749,9634 852,9628 " style="fill: white; stroke: black; stroke-width: 30" />
<polyline points="-789,9808 -802,9800 -805,9793 -803,9791 -809,9794 -829,9816 -841,9836 -839,9840 -843,9838 -845,9839 -858,9841 -853,9850 -855,9871 -870,9919 -885,9998 -902,10070 -895,10099 -879,10114 -845,10118 -812,10119 -777,10117 -709,10115 -632,10108 " style="fill: white; stroke: black; stroke-width: 30" />
<polyline points="-696,10001 -662,10009 -610,10033 -544,10073 -510,10090 -510,10095 -520,10097 -550,10122 -572,10138 -556,10131 " style="fill: white; stroke: black; stroke-width: 30" />
<polyline points="-34,9959 -47,9958 -57,10012 -94,10175 -121,10294 -106,10348 -41,10327 " style="fill: white; stroke: black; stroke-width: 30" />
<polyline points="177,10069 173,10071 151,10116 113,10199 91,10277 85,10315 85,10317 75,10305 42,10258 -15,10197 -65,10146 -67,10124 -38,10105 36,10111 120,10139 199,10158 " style="fill: white; stroke: black; stroke-width: 30" />
<polyline points="312,10123 332,10112 348,10120 336,10154 301,10206 267,10254 225,10279 219,10279 209,10257 214,10231 222,10223 241,10221 291,10215 337,10194 " style="fill: white; stroke: black; stroke-width: 30" />
<polyline points="541,9915 483,9935 461,9990 412,10091 402,10183 420,10229 441,10238 462,10236 488,10238 499,10263 518,10299 " style="fill: white; stroke: black; stroke-width: 30" />
<polyline points="715,10087 713,10087 704,10102 694,10158 676,10230 655,10276 629,10292 586,10287 567,10262 574,10251 602,10260 655,10297 714,10335 799,10331 " style="fill: white; stroke: black; stroke-width: 30" />
<polyline points="1672,10218 1694,10193 1682,10164 1626,10140 1538,10151 1476,10199 1467,10238 1524,10271 1617,10304 1658,10369 1668,10459 1641,10548 1602,10595 1568,10600 1526,10564 1510,10498 1538,10424 1599,10383 1690,10351 1790,10320 1865,10282 1884,10261 1869,10255 1842,10266 1798,10303 1794,10332 1822,10348 1885,10345 1930,10323 1961,10291 1972,10254 1969,10245 1977,10237 2013,10211 2039,10209 " style="fill: white; stroke: black; stroke-width: 30" />
<polyline points="2250,10283 2222,10278 2232,10267 2269,10243 2276,10221 2260,10203 2210,10200 2181,10232 2187,10279 2218,10319 2266,10346 " style="fill: white; stroke: black; stroke-width: 30" />
<polyline points="2466,10160 2429,10155 2398,10181 2338,10246 2346,10292 2376,10314 2433,10297 2512,10264 2602,10210 2639,10190 2628,10186 2594,10204 2557,10251 2543,10307 2556,10344 2570,10365 2620,10368 2688,10348 " style="fill: white; stroke: black; stroke-width: 30" />
<polyline points="2997,10094 2958,10120 2863,10189 2755,10257 2686,10292 2652,10301 2676,10291 2727,10290 2786,10319 2874,10355 2963,10360 2997,10350 2986,10320 2958,10303 2909,10326 2892,10365 2915,10396 2969,10414 " style="fill: white; stroke: black; stroke-width: 30" />
<polyline points="437,10572 465,10553 475,10560 470,10589 456,10631 428,10679 424,10739 422,10840 460,10919 517,10955 503,10957 486,10944 445,10914 396,10871 380,10816 " style="fill: white; stroke: black; stroke-width: 30" />
<polyline points="767,10493 746,10540 715,10641 666,10741 638,10791 623,10809 625,10804 635,10770 632,10718 645,10688 654,10676 672,10678 696,10691 746,10714 " style="fill: white; stroke: black; stroke-width: 30" />
<polyline points="845,10787 840,10792 840,10774 855,10724 881,10673 911,10667 965,10692 " style="fill: white; stroke: black; stroke-width: 30" />
<polyline points="1117,10719 1110,10732 1097,10768 1099,10810 1083,10833 1067,10843 1056,10831 1046,10798 1047,10783 1053,10785 1055,10798 1088,10824 1136,10825 " style="fill: white; stroke: black; stroke-width: 30" />
<polyline points="1411,10633 1398,10611 1393,10599 1354,10600 1329,10613 1301,10659 1260,10767 1231,10898 1213,10976 1210,10988 1217,10976 1228,10927 1262,10868 1295,10847 1343,10846 1398,10849 1453,10836 1493,10822 1532,10799 1531,10794 1501,10791 1459,10802 1446,10818 1480,10855 1548,10888 1669,10917 " style="fill: white; stroke: black; stroke-width: 30" />
<polyline points="1478,7624 1468,7627 1444,7679 1379,7832 1274,8016 1203,8141 1162,8205 1140,8220 " style="fill: white; stroke: black; stroke-width: 30" />
<polyline points="1143,8007 1138,8057 1110,8149 1081,8237 1091,8275 1149,8265 1260,8196 1381,8125 1472,8063 " style="fill: white; stroke: black; stroke-width: 30" />
<polyline points="1702,6863 1688,6864 1684,6884 1646,7018 1583,7194 1540,7321 1530,7371 1552,7374 1596,7325 1644,7210 1685,7067 1702,6941 1694,6912 1686,6921 1661,6994 1648,7095 1668,7158 1716,7176 1811,7133 1891,7062 1909,7044 1883,7080 1841,7189 1824,7291 1867,7330 1952,7307 2055,7220 2098,7128 2069,7112 2004,7153 1968,7223 1985,7265 2063,7279 2158,7269 " style="fill: white; stroke: black; stroke-width: 30" />
<polyline points="2319,7197 2307,7184 2276,7177 2209,7198 2144,7241 2141,7275 2185,7291 2291,7262 2413,7185 2518,7078 2557,7011 2534,6999 2462,7039 2399,7145 2392,7237 2436,7291 2514,7304 2613,7297 2653,7297 2653,7299 2647,7301 2647,7301 2648,7302 2632,7323 2619,7343 " style="fill: white; stroke: black; stroke-width: 30" />
<polyline points="2803,6989 2780,6907 2785,6859 2817,6795 2931,6688 " style="fill: white; stroke: black; stroke-width: 30" />

</svg>