<?xml version="1.0" standalone="no"?>
<!DOCTYPE svg PUBLIC "-//W3C//DTD SVG 1.1//EN" "http://www.w3.org/Graphics/SVG/1.1/DTD/svg11.dtd">
<svg width="210mm" height="297mm" viewBox="-7000 500 14000 20000" version="1.1" xmlns="http://www.w3.org/2000/svg">

<polyline points="-2653,1173 -2662,1172 -2671,1152 -2668,1132 -2654,1098 -2607,1073 -2554,1063 -2500,1083 -2466,1120 -2459,1156 -2474,1182 -2504,1201 -2520,1211 -2520,1219 -2513,1249 -2499,1289 -2482,1330 -2470,1369 -2460,1411 -2459,1437 -2472,1447 -2496,1450 -2548,1431 -2603,1399 -2647,1367 -2670,1345 -2674,1341 -2671,1337 -2663,1335 " style="fill: white; stroke: black; stroke-width: 30" />
<polyline points="-2299,1002 -2292,992 -2282,989 -2283,988 -2287,986 -2307,990 -2352,1010 -2415,1037 -2468,1059 -2495,1075 -2500,1074 -2499,1077 -2501,1075 -2504,1075 -2502,1077 -2505,1077 -2505,1079 -2505,1081 -2502,1080 -2498,1083 -2488,1087 -2463,1095 -2409,1118 -2354,1140 -2311,1154 -2291,1169 -2285,1171 -2286,1172 -2285,1171 -2284,1169 -2281,1169 -2283,1166 -2280,1164 -2279,1165 -2279,1160 -2279,1161 " style="fill: white; stroke: black; stroke-width: 30" />
<polyline points="-1175,1330 -1169,1302 -1167,1289 -1173,1292 -1183,1304 -1212,1345 -1233,1400 -1229,1435 -1200,1453 -1151,1448 -1107,1425 -1081,1402 -1080,1396 -1084,1395 -1084,1396 -1076,1405 -1043,1425 -993,1452 -940,1460 -896,1451 -885,1431 -894,1396 -912,1346 -931,1295 -938,1263 -943,1259 -942,1264 -941,1279 -937,1293 -923,1335 -907,1373 -888,1400 -877,1407 -873,1402 -858,1394 -837,1382 -802,1373 -762,1367 -721,1355 -691,1345 -678,1329 -682,1322 -701,1312 -749,1307 -789,1312 -801,1339 -792,1379 -760,1419 -706,1441 -667,1447 -650,1441 -645,1431 -642,1409 -640,1401 -636,1391 -625,1379 -612,1362 -599,1342 -586,1323 -583,1321 -579,1324 -571,1333 -559,1351 -553,1382 -551,1412 -549,1425 -542,1425 -529,1417 -497,1391 -466,1370 -438,1360 -418,1361 -409,1367 -402,1377 -400,1395 -395,1405 -380,1414 -364,1416 -356,1421 -356,1421 -355,1425 -343,1426 " style="fill: white; stroke: black; stroke-width: 30" />
<polyline points="606,1221 600,1215 593,1219 580,1265 556,1354 544,1435 551,1481 583,1517 625,1514 665,1481 " style="fill: white; stroke: black; stroke-width: 30" />
<polyline points="753,1391 758,1367 738,1359 690,1361 617,1385 543,1425 528,1440 542,1458 581,1474 642,1486 697,1488 745,1486 " style="fill: white; stroke: black; stroke-width: 30" />
<polyline points="838,1416 822,1390 812,1364 817,1341 834,1324 847,1325 860,1333 885,1361 896,1395 889,1450 862,1492 831,1526 806,1536 794,1530 792,1498 815,1451 847,1416 883,1410 909,1425 933,1470 954,1517 978,1543 " style="fill: white; stroke: black; stroke-width: 30" />
<polyline points="1026,1506 1013,1512 1001,1516 1006,1518 1013,1510 1031,1490 1048,1455 1070,1427 1094,1407 1112,1404 1135,1411 1151,1430 1154,1473 1155,1523 1158,1556 1174,1552 1202,1511 1224,1471 1247,1443 1272,1428 1300,1419 1323,1414 1339,1411 1349,1415 1353,1424 1357,1438 1352,1470 1343,1504 1340,1514 1343,1516 1350,1514 " style="fill: white; stroke: black; stroke-width: 30" />
<polyline points="1912,1393 1908,1387 1904,1385 1900,1391 1887,1401 1866,1451 1853,1495 1856,1541 1866,1563 " style="fill: white; stroke: black; stroke-width: 30" />
<polyline points="1914,1263 1896,1215 1898,1176 1936,1151 1986,1160 2013,1198 2000,1238 1960,1276 1909,1290 1887,1279 1889,1255 1905,1220 1926,1194 1958,1164 " style="fill: white; stroke: black; stroke-width: 30" />
<polyline points="2087,1436 2090,1419 2103,1405 2116,1396 2108,1393 2090,1389 2051,1384 2006,1389 1970,1410 1955,1450 1969,1489 2012,1519 2068,1521 2155,1465 2232,1379 2285,1296 2306,1247 2299,1244 2280,1259 2234,1325 2204,1402 2208,1453 2230,1478 2268,1483 2293,1481 2299,1483 2302,1484 2318,1494 2373,1489 2425,1480 2454,1456 2465,1432 2460,1402 " style="fill: white; stroke: black; stroke-width: 30" />
<polyline points="2957,1441 2964,1445 2981,1440 3022,1427 3075,1404 3117,1367 3123,1345 3101,1318 3033,1302 2952,1335 2915,1372 2923,1420 2979,1460 3066,1464 3151,1437 3208,1391 3229,1349 3235,1322 3237,1307 3235,1308 3231,1313 3226,1321 3212,1340 3197,1366 3184,1397 3183,1421 3185,1468 3200,1486 3205,1504 3207,1512 3205,1513 3203,1513 3192,1511 3171,1500 3148,1487 3133,1474 3129,1468 3132,1470 3136,1468 3145,1474 3174,1473 " style="fill: white; stroke: black; stroke-width: 30" />
<polyline points="-1107,1802 -1110,1788 -1112,1777 -1119,1775 -1122,1780 -1140,1818 -1159,1869 -1154,1900 -1135,1911 -1099,1909 -1051,1884 -994,1842 -953,1805 -946,1800 -948,1804 -956,1816 -961,1835 -959,1854 -948,1876 -926,1892 -893,1894 " style="fill: white; stroke: black; stroke-width: 30" />
<polyline points="-837,1886 -841,1887 -834,1883 -814,1867 -783,1837 -761,1820 -756,1821 -752,1834 -743,1877 -737,1930 -710,1947 -660,1913 " style="fill: white; stroke: black; stroke-width: 30" />
<polyline points="-493,1680 -498,1678 -513,1694 -539,1756 -572,1858 -590,1940 -590,1972 -589,1972 -583,1946 -572,1884 -560,1831 -556,1824 -555,1823 -550,1829 -528,1839 -483,1851 -424,1851 -390,1847 -384,1842 -395,1835 -417,1826 -437,1828 -441,1837 -437,1871 -413,1921 -374,1955 -345,1960 -330,1950 -315,1920 -300,1862 -293,1816 -291,1796 -288,1792 -279,1797 -244,1808 " style="fill: white; stroke: black; stroke-width: 30" />
<polyline points="-52,1798 -84,1768 -115,1754 -132,1755 -138,1788 -136,1847 -130,1894 -134,1926 -145,1937 -163,1939 -186,1923 -199,1914 -195,1912 -181,1916 -129,1910 -55,1896 17,1876 75,1863 91,1854 89,1842 79,1824 59,1811 25,1807 -20,1823 -46,1860 -50,1896 -28,1912 15,1923 85,1884 154,1823 188,1769 193,1735 186,1722 183,1726 176,1736 158,1801 149,1848 162,1878 194,1882 241,1866 277,1853 283,1860 282,1868 283,1877 289,1881 320,1881 365,1861 392,1851 390,1856 384,1871 374,1901 368,1924 368,1930 377,1912 " style="fill: white; stroke: black; stroke-width: 30" />
<polyline points="426,1770 431,1712 426,1667 427,1652 429,1645 434,1640 444,1623 " style="fill: white; stroke: black; stroke-width: 30" />
<polyline points="490,1888 491,1902 508,1910 546,1913 589,1899 617,1877 623,1851 607,1827 558,1815 499,1834 481,1870 495,1921 553,1960 642,1961 727,1914 785,1849 807,1789 795,1751 779,1734 759,1733 739,1757 720,1822 727,1883 754,1928 793,1938 839,1931 877,1923 918,1922 929,1927 918,1943 894,1964 873,1979 857,1975 832,1964 802,1927 794,1911 797,1907 808,1913 844,1925 901,1933 963,1937 1015,1939 1038,1937 1033,1941 1019,1938 1009,1935 1012,1931 1020,1930 1033,1925 1042,1923 1053,1915 1077,1896 1092,1873 1088,1858 1067,1841 1025,1845 998,1866 989,1915 1003,1953 1044,1984 1095,1990 1144,1981 1172,1956 1181,1932 1187,1906 1201,1881 1229,1858 1264,1851 1286,1862 1295,1883 1287,1921 1272,1961 1268,1977 1267,1989 1273,1986 1280,1986 " style="fill: white; stroke: black; stroke-width: 30" />
<polyline points="1877,1684 1896,1663 1895,1658 1887,1665 1863,1701 1801,1802 1734,1921 1697,2014 1711,2083 " style="fill: white; stroke: black; stroke-width: 30" />
<polyline points="2156,2062 2155,2063 2155,2060 2157,2061 " style="fill: white; stroke: black; stroke-width: 30" />
<polyline points="2184,1872 2201,1854 2244,1830 2301,1834 2332,1876 2341,1938 2308,1997 2253,2043 2202,2060 2185,2051 2179,2019 2194,1966 2208,1936 2214,1935 2231,1948 2259,1984 2299,2021 2351,2044 " style="fill: white; stroke: black; stroke-width: 30" />
<polyline points="2379,2027 2364,2022 2368,2012 2415,1968 2471,1913 2509,1888 2522,1885 2523,1917 2514,1980 2514,2034 2525,2055 2559,2038 2604,1968 2658,1881 2703,1799 2735,1750 2744,1737 2745,1743 2732,1774 2689,1864 2657,1934 2647,1973 2652,1976 2670,1968 2716,1945 2765,1929 2795,1935 2805,1950 2805,1976 2804,1991 2810,1993 " style="fill: white; stroke: black; stroke-width: 30" />
<polyline points="2982,1931 2984,1924 2987,1919 2984,1917 2961,1917 2912,1937 2861,1976 2860,2001 2879,2012 2925,2010 2971,1982 2990,1957 2985,1945 2981,1946 2984,1949 2990,1966 2996,1989 2998,2014 2996,2034 " style="fill: white; stroke: black; stroke-width: 30" />
<polyline points="2986,1765 2971,1749 2974,1748 3006,1760 3052,1790 3109,1822 " style="fill: white; stroke: black; stroke-width: 30" />
<polyline points="3153,1926 3111,1937 3075,1963 3053,2004 3055,2032 3062,2044 3070,2040 3097,2025 3128,2001 3146,1999 3156,2002 3168,2023 3191,2051 3226,2062 " style="fill: white; stroke: black; stroke-width: 30" />
<polyline points="3343,1972 3356,1950 3355,1940 3349,1936 3332,1943 3317,1984 3305,2047 3292,2126 3261,2204 3214,2262 3175,2290 3159,2287 3158,2239 3198,2139 3269,2051 3349,2001 3400,1971 3410,1961 3394,1952 3372,1940 3351,1940 3351,1949 3358,1989 3379,2018 3410,2042 3443,2042 3466,2024 3485,1995 3510,1966 3529,1954 3549,1955 3570,1969 3579,1980 3579,1992 3574,2003 3572,2025 " style="fill: white; stroke: black; stroke-width: 30" />
<polyline points="4003,1742 3995,1754 3968,1796 3924,1870 3886,1944 3849,2015 3826,2094 " style="fill: white; stroke: black; stroke-width: 30" />
<polyline points="-1124,2337 -1137,2345 -1134,2342 -1130,2332 -1122,2309 -1107,2275 -1069,2233 -1042,2229 -1019,2256 -1004,2329 -1011,2398 -1030,2448 -1067,2476 -1111,2471 -1125,2453 -1121,2445 -1099,2434 -1065,2435 -1033,2438 -1010,2435 -983,2442 " style="fill: white; stroke: black; stroke-width: 30" />
<polyline points="-824,2135 -829,2131 -831,2138 -838,2211 -855,2313 -865,2395 -863,2432 -862,2443 -860,2439 -861,2434 -862,2418 -852,2374 -828,2335 -797,2320 -763,2333 -738,2383 -733,2442 -742,2487 -759,2502 -789,2499 -826,2473 -860,2421 -850,2383 -811,2341 " style="fill: white; stroke: black; stroke-width: 30" />
<polyline points="-583,2223 -600,2231 -606,2238 -619,2280 -641,2367 -641,2433 -628,2465 -606,2480 -568,2481 -516,2465 " style="fill: white; stroke: black; stroke-width: 30" />
<polyline points="-426,2296 -430,2289 -421,2292 -400,2319 -375,2375 -373,2438 -388,2489 -416,2513 -440,2507 -452,2483 -450,2446 -440,2422 -423,2408 -404,2413 -372,2427 -345,2447 -297,2468 -237,2481 -175,2485 -147,2489 -152,2487 -161,2481 -165,2471 -169,2462 -175,2450 -192,2445 -215,2442 -225,2445 -236,2451 -249,2470 -265,2492 -269,2506 -259,2504 -227,2497 -162,2452 -102,2399 -63,2344 -54,2315 -54,2291 -56,2292 -60,2297 -66,2313 -75,2371 -75,2440 -53,2504 -23,2548 20,2564 70,2548 86,2515 86,2480 64,2462 44,2466 42,2473 45,2511 73,2549 101,2564 147,2564 166,2562 165,2555 170,2534 196,2494 234,2455 271,2426 295,2419 314,2428 337,2452 350,2487 340,2529 323,2554 324,2556 336,2541 " style="fill: white; stroke: black; stroke-width: 30" />
<polyline points="1107,2425 1108,2415 1104,2407 1097,2394 1079,2369 1043,2342 983,2338 934,2364 920,2409 940,2450 995,2467 1080,2436 1158,2360 1190,2296 1186,2275 1172,2273 1169,2277 1167,2299 1171,2345 1176,2395 1188,2432 1208,2471 1237,2493 " style="fill: white; stroke: black; stroke-width: 30" />
<polyline points="1325,2327 1320,2299 1338,2278 1363,2286 1380,2326 1382,2401 1358,2470 1331,2513 1311,2519 1282,2503 1274,2462 1289,2423 1305,2409 1335,2414 1364,2438 1406,2475 1464,2491 1539,2485 1609,2454 1655,2408 1652,2371 1629,2352 1607,2342 1590,2350 1581,2371 1580,2433 1581,2485 1581,2534 1562,2562 1539,2574 1517,2564 1506,2538 1505,2502 1517,2487 1563,2466 1651,2437 1756,2401 1838,2373 1847,2363 1839,2363 1824,2370 1814,2389 1801,2443 1793,2499 1786,2524 1778,2531 1759,2520 1740,2503 1732,2479 1730,2474 1737,2472 " style="fill: white; stroke: black; stroke-width: 30" />
<polyline points="2563,2395 2567,2392 2561,2398 2543,2435 2524,2473 2508,2516 2505,2542 2517,2552 " style="fill: white; stroke: black; stroke-width: 30" />
<polyline points="2556,2275 2532,2235 2527,2205 2541,2194 2583,2201 2638,2242 2645,2284 2619,2322 2571,2327 2529,2299 2510,2268 2520,2251 2551,2222 " style="fill: white; stroke: black; stroke-width: 30" />
<polyline points="2771,2456 2706,2434 2645,2441 2623,2473 2633,2523 2683,2564 2758,2559 2831,2507 2881,2432 2897,2370 2889,2329 2875,2319 2858,2331 2836,2386 2835,2450 2865,2495 2901,2521 2933,2540 2939,2551 2941,2561 2953,2564 2998,2555 " style="fill: white; stroke: black; stroke-width: 30" />
<polyline points="3439,2570 3426,2571 3421,2570 3427,2557 3453,2500 3488,2431 3510,2395 3524,2394 3546,2414 3569,2450 3577,2491 3585,2519 3587,2526 3594,2521 3627,2497 3680,2471 3710,2460 3718,2458 3723,2455 3721,2460 3717,2465 3704,2491 3679,2531 3667,2564 3672,2579 3707,2578 " style="fill: white; stroke: black; stroke-width: 30" />
<polyline points="3813,2348 3800,2333 3795,2325 3798,2328 3805,2335 3829,2350 " style="fill: white; stroke: black; stroke-width: 30" />
<polyline points="3906,2470 3876,2436 3837,2413 3798,2421 3779,2459 3783,2508 3819,2538 3876,2549 3950,2509 4015,2452 4035,2406 4033,2387 4029,2387 4022,2401 3994,2457 3987,2493 3995,2528 4016,2549 4044,2554 4094,2539 4139,2517 4160,2505 4155,2513 4152,2531 4159,2546 4170,2555 4180,2549 4198,2530 " style="fill: white; stroke: black; stroke-width: 30" />
<polyline points="4392,2311 4377,2310 4344,2339 4279,2407 4212,2492 4174,2556 4161,2581 4166,2576 4185,2547 4201,2534 4227,2518 4263,2527 4326,2536 4388,2542 " style="fill: white; stroke: black; stroke-width: 30" />
<polyline points="-1048,2872 -1059,2889 -1065,2911 -1066,2922 -1066,2921 -1065,2919 -1065,2915 -1065,2916 -1067,2913 -1067,2913 -1068,2912 -1068,2911 -1067,2908 -1066,2908 -1066,2903 -1067,2900 -1063,2888 -1047,2861 -1018,2825 -970,2781 -917,2758 -880,2768 -863,2794 -859,2840 -856,2867 -848,2871 -822,2863 -790,2848 -769,2843 -749,2847 -720,2847 -686,2850 -673,2854 -667,2869 -664,2894 -666,2924 -660,2930 -658,2930 -650,2927 " style="fill: white; stroke: black; stroke-width: 30" />
<polyline points="-493,2808 -501,2808 -501,2809 -500,2815 -505,2833 -517,2860 -520,2886 -516,2900 -498,2911 -459,2916 -408,2900 -365,2887 -350,2884 -353,2886 -355,2890 -356,2906 -359,2926 -360,2942 -353,2947 -324,2950 " style="fill: white; stroke: black; stroke-width: 30" />
<polyline points="-15,2835 -25,2835 -45,2831 -78,2831 -110,2834 -140,2853 -155,2867 -164,2893 -161,2921 -152,2948 -148,2976 -155,2994 -162,2994 -172,2988 -184,2973 -189,2960 -186,2953 -174,2951 -107,2929 -8,2909 101,2879 199,2845 231,2823 223,2820 205,2821 181,2843 167,2878 171,2922 167,2958 148,2985 116,2992 82,2988 65,2979 64,2974 72,2964 " style="fill: white; stroke: black; stroke-width: 30" />

</svg>