<?xml version="1.0" standalone="no"?>
<!DOCTYPE svg PUBLIC "-//W3C//DTD SVG 1.1//EN" "http://www.w3.org/Graphics/SVG/1.1/DTD/svg11.dtd">
<svg width="210mm" height="297mm" viewBox="-7000 500 14000 20000" version="1.1" xmlns="http://www.w3.org/2000/svg">

<polyline points="-6320,8562 " style="fill: white; stroke: black; stroke-width: 30" />
<polyline points="-3553,1110 -3559,1116 -3559,1119 -3561,1113 -3539,1117 -3471,1118 -3392,1127 -3345,1139 -3339,1170 -3376,1264 -3431,1371 -3444,1411 -3406,1451 -3342,1461 -3287,1441 " style="fill: white; stroke: black; stroke-width: 30" />
<polyline points="-3479,1287 -3497,1301 -3495,1294 -3441,1289 -3344,1289 " style="fill: white; stroke: black; stroke-width: 30" />
<polyline points="-3127,1319 -3169,1322 -3201,1327 -3248,1344 -3266,1364 -3241,1407 -3173,1448 -3100,1463 -3063,1456 -3068,1444 -3093,1418 -3131,1395 -3152,1389 -3147,1388 -3123,1390 " style="fill: white; stroke: black; stroke-width: 30" />
<polyline points="-2853,1347 -2846,1331 -2825,1286 -2809,1230 -2820,1170 -2849,1141 -2901,1117 -2967,1152 -3001,1252 -3011,1431 -3000,1583 -2991,1674 -2985,1705 -2986,1696 -2989,1618 -2964,1521 -2905,1445 -2840,1404 -2792,1393 -2753,1396 -2726,1383 -2721,1369 -2724,1362 -2731,1363 -2734,1379 -2739,1422 -2734,1486 -2725,1524 -2711,1516 " style="fill: white; stroke: black; stroke-width: 30" />
<polyline points="-2715,1155 -2712,1133 -2691,1130 -2655,1153 -2635,1208 -2657,1268 -2693,1302 -2734,1290 -2767,1239 -2774,1154 -2745,1099 " style="fill: white; stroke: black; stroke-width: 30" />
<polyline points="-2654,1478 -2656,1490 -2650,1481 -2633,1443 -2608,1401 -2582,1394 -2551,1409 -2524,1455 -2526,1492 -2526,1520 -2516,1511 -2472,1458 -2428,1413 " style="fill: white; stroke: black; stroke-width: 30" />
<polyline points="-2385,1397 -2377,1401 -2364,1390 -2364,1378 -2378,1358 -2415,1346 -2436,1355 -2445,1381 -2437,1442 -2429,1524 -2437,1606 -2466,1681 -2495,1722 -2516,1728 -2526,1701 -2544,1614 -2531,1518 -2509,1471 -2458,1469 -2389,1479 -2308,1486 -2181,1466 -2107,1428 -2128,1399 -2169,1376 -2200,1367 -2202,1365 -2192,1367 -2176,1364 -2169,1363 -2171,1359 -2175,1360 -2178,1359 -2186,1373 -2197,1436 -2204,1496 -2196,1530 -2183,1547 -2164,1510 " style="fill: white; stroke: black; stroke-width: 30" />
<polyline points="-2124,1228 -2140,1188 -2144,1172 -2146,1161 -2136,1154 -2108,1164 -2082,1194 -2080,1232 -2092,1247 -2112,1233 -2127,1195 -2135,1141 -2126,1110 -2100,1103 " style="fill: white; stroke: black; stroke-width: 30" />
<polyline points="-1917,1516 -1988,1448 -2023,1378 -2008,1337 -1950,1322 -1876,1357 -1831,1405 -1831,1483 -1883,1539 -1948,1564 -1998,1546 -2011,1509 -2003,1470 -1981,1452 -1938,1465 -1859,1502 -1799,1543 -1736,1568 " style="fill: white; stroke: black; stroke-width: 30" />
<polyline points="4138,8676 " style="fill: white; stroke: black; stroke-width: 30" />
<polyline points="3321,9505 " style="fill: white; stroke: black; stroke-width: 30" />
<polyline points="194,1444 147,1444 108,1455 72,1492 55,1555 71,1634 104,1707 147,1745 198,1746 256,1682 306,1579 326,1524 326,1525 335,1540 374,1588 437,1624 502,1633 534,1612 530,1593 512,1530 485,1462 467,1401 463,1382 468,1382 482,1404 513,1443 " style="fill: white; stroke: black; stroke-width: 30" />
<polyline points="724,1358 721,1355 731,1362 739,1399 747,1453 741,1529 709,1585 660,1615 601,1589 570,1533 571,1480 583,1477 626,1491 695,1536 773,1569 855,1570 926,1545 979,1505 1005,1466 1013,1437 1010,1404 985,1395 942,1398 917,1419 921,1433 958,1479 1007,1518 1046,1582 1062,1689 1055,1834 1027,1960 986,2023 929,2036 861,1990 833,1883 854,1731 927,1612 1025,1593 1137,1599 1256,1588 1328,1557 1321,1528 1263,1522 1220,1535 1214,1573 1255,1651 1379,1737 1522,1791 " style="fill: white; stroke: black; stroke-width: 30" />
<polyline points="-2969,2983 -2987,3009 -3016,3113 -3041,3285 -3033,3397 -3003,3455 -2961,3463 " style="fill: white; stroke: black; stroke-width: 30" />
<polyline points="-2836,3054 -2826,3033 -2838,3040 -2873,3059 -2926,3100 -2987,3152 -3030,3206 -3027,3246 -2974,3289 -2888,3326 -2808,3336 -2756,3334 -2708,3302 " style="fill: white; stroke: black; stroke-width: 30" />
<polyline points="-2710,3158 -2707,3145 -2672,3129 -2612,3160 -2553,3240 -2549,3327 -2581,3396 -2642,3439 -2699,3432 -2720,3380 -2711,3298 -2673,3246 -2627,3240 -2572,3298 -2537,3366 -2501,3421 -2468,3441 -2457,3440 -2458,3433 -2462,3428 -2462,3420 -2455,3395 -2431,3348 -2415,3325 -2397,3323 -2358,3338 -2307,3364 -2273,3403 -2264,3437 -2269,3459 -2254,3457 -2248,3435 -2244,3404 -2254,3402 -2251,3424 " style="fill: white; stroke: black; stroke-width: 30" />
<polyline points="-2067,3203 -2077,3244 -2085,3285 -2078,3297 " style="fill: white; stroke: black; stroke-width: 30" />
<polyline points="-2011,3200 -2022,3203 -2034,3216 -2059,3268 -2080,3349 -2087,3412 -2100,3449 -2099,3474 -2101,3478 -2102,3474 -2104,3461 -2085,3427 -2085,3351 -2084,3266 -2089,3189 -2103,3155 -2108,3142 -2106,3144 -2102,3148 -2098,3149 -2101,3149 -2107,3149 -2109,3155 -2123,3168 -2149,3194 -2162,3212 -2165,3215 -2164,3219 -2174,3212 -2171,3208 -2170,3204 -2171,3203 -2175,3199 -2178,3203 -2173,3205 -2167,3207 -2155,3209 -2103,3232 -2047,3253 -1980,3265 -1926,3266 -1917,3263 -1912,3261 -1919,3260 -1923,3258 -1921,3259 -1915,3260 " style="fill: white; stroke: black; stroke-width: 30" />
<polyline points="-1837,3339 -1842,3361 -1844,3405 -1856,3458 -1868,3500 -1873,3510 -1874,3506 -1871,3475 -1871,3365 -1867,3257 -1870,3183 -1878,3132 -1887,3119 -1888,3117 -1874,3110 -1831,3106 -1784,3115 -1759,3146 -1763,3165 -1790,3185 -1858,3192 -1889,3176 -1893,3159 -1884,3133 -1843,3093 " style="fill: white; stroke: black; stroke-width: 30" />
<polyline points="-117,3333 -124,3328 -133,3349 -149,3479 -164,3666 -186,3799 -226,3868 -261,3883 -291,3848 -335,3729 -365,3556 -373,3429 -343,3387 " style="fill: white; stroke: black; stroke-width: 30" />
<polyline points="9,3453 -6,3439 -12,3432 -13,3436 -18,3475 -17,3553 6,3587 57,3595 118,3562 155,3531 157,3532 150,3563 167,3616 " style="fill: white; stroke: black; stroke-width: 30" />
<polyline points="272,3508 254,3506 248,3511 252,3549 267,3594 286,3624 298,3618 305,3591 304,3543 307,3506 309,3503 324,3505 377,3500 " style="fill: white; stroke: black; stroke-width: 30" />
<polyline points="1034,3458 1019,3498 1003,3588 981,3698 974,3754 976,3762 981,3748 993,3680 1017,3528 1054,3381 1111,3306 1174,3301 1217,3363 1203,3464 1156,3527 1103,3544 1053,3514 1022,3451 1027,3407 1053,3384 1104,3404 1164,3483 1218,3559 1253,3632 1264,3688 1266,3709 1268,3700 1266,3682 1267,3624 1275,3557 1295,3497 1312,3476 1347,3457 1383,3461 1430,3474 1476,3495 1498,3521 1493,3550 1477,3572 1459,3610 1453,3634 1452,3670 1461,3674 " style="fill: white; stroke: black; stroke-width: 30" />
<polyline points="1531,3274 1534,3238 1539,3224 1540,3225 1541,3225 1544,3227 1560,3225 1602,3232 1641,3269 1654,3316 1632,3351 1598,3366 1547,3358 1516,3317 1516,3248 1543,3184 " style="fill: white; stroke: black; stroke-width: 30" />
<polyline points="1644,3674 1639,3671 1630,3671 1625,3671 1626,3666 1638,3658 1667,3614 1730,3525 1769,3479 1782,3478 1784,3504 1776,3585 1778,3631 1800,3650 1841,3648 1879,3642 1882,3648 1880,3665 1890,3687 " style="fill: white; stroke: black; stroke-width: 30" />
<polyline points="2042,3527 2031,3508 2036,3489 2049,3495 2080,3530 2090,3596 2076,3656 2051,3699 2026,3715 1970,3724 1903,3713 1882,3688 1883,3665 1905,3638 1972,3595 2030,3590 2076,3622 2108,3683 2126,3738 2140,3765 " style="fill: white; stroke: black; stroke-width: 30" />
<polyline points="2217,3646 2210,3644 2248,3646 2312,3639 2376,3605 2408,3553 2397,3511 2345,3493 2302,3526 2277,3603 2297,3675 2342,3740 2425,3768 " style="fill: white; stroke: black; stroke-width: 30" />
<polyline points="3004,3457 2991,3463 2947,3517 2880,3625 2841,3719 2842,3799 2878,3829 " style="fill: white; stroke: black; stroke-width: 30" />
<polyline points="3110,3529 3039,3517 2933,3533 2848,3571 2807,3630 2828,3688 2906,3765 3002,3799 3069,3797 3111,3774 " style="fill: white; stroke: black; stroke-width: 30" />
<polyline points="3122,3799 3117,3804 3112,3791 3124,3746 3151,3684 3179,3659 3205,3663 3223,3718 3222,3782 3222,3825 3223,3836 3232,3829 3268,3791 " style="fill: white; stroke: black; stroke-width: 30" />
<polyline points="3433,3624 3417,3628 3419,3660 3437,3729 3456,3780 3441,3816 3385,3833 3296,3831 3267,3814 3273,3799 3286,3790 3327,3791 3373,3807 3440,3821 3528,3816 3635,3789 3725,3734 3755,3688 3736,3658 3703,3647 3686,3648 3673,3680 3665,3766 3661,3846 3653,3890 3629,3902 3616,3892 3622,3847 3670,3750 3804,3616 3943,3524 4028,3475 4051,3456 4031,3464 3953,3534 3831,3656 3733,3791 3702,3874 3722,3893 3753,3874 3816,3804 3866,3744 3916,3710 3986,3703 4073,3721 " style="fill: white; stroke: black; stroke-width: 30" />
<polyline points="-69,3118 -89,3108 -109,3107 -118,3123 -126,3185 -131,3277 -131,3374 -131,3461 " style="fill: white; stroke: black; stroke-width: 30" />
<polyline points="-357,3076 -387,3069 -405,3074 -402,3078 -352,3090 -237,3084 -83,3048 " style="fill: white; stroke: black; stroke-width: 30" />
<polyline points="80,4218 56,4250 29,4359 3,4487 7,4564 40,4589 " style="fill: white; stroke: black; stroke-width: 30" />
<polyline points="-136,4258 -181,4242 -189,4231 -181,4228 -140,4229 -60,4233 46,4236 183,4222 297,4203 " style="fill: white; stroke: black; stroke-width: 30" />
<polyline points="-93,4343 -115,4338 -108,4335 -69,4340 29,4337 142,4330 244,4327 304,4342 329,4358 333,4371 328,4383 314,4413 307,4431 307,4452 304,4462 299,4499 290,4546 290,4584 302,4589 " style="fill: white; stroke: black; stroke-width: 30" />
<polyline points="331,4186 309,4160 308,4145 345,4128 418,4126 477,4167 481,4218 453,4250 401,4250 339,4217 308,4173 314,4155 342,4135 " style="fill: white; stroke: black; stroke-width: 30" />
<polyline points="435,4500 435,4477 466,4445 533,4425 603,4433 649,4475 655,4522 638,4564 622,4582 " style="fill: white; stroke: black; stroke-width: 30" />
<polyline points="1077,4285 1069,4284 1065,4300 1041,4389 1000,4520 975,4638 969,4712 " style="fill: white; stroke: black; stroke-width: 30" />
<polyline points="906,4237 846,4206 836,4192 854,4188 932,4174 1078,4166 1210,4177 1312,4199 1358,4220 " style="fill: white; stroke: black; stroke-width: 30" />
<polyline points="869,4425 882,4423 920,4421 980,4425 1082,4429 1178,4436 1253,4452 " style="fill: white; stroke: black; stroke-width: 30" />
<polyline points="1432,4464 1394,4456 1356,4469 1316,4536 1290,4646 1294,4723 1309,4758 1340,4751 " style="fill: white; stroke: black; stroke-width: 30" />
<polyline points="1377,4299 1384,4261 1417,4231 1471,4222 1524,4246 1541,4296 1512,4342 1464,4363 1406,4344 1377,4301 1380,4244 1418,4209 " style="fill: white; stroke: black; stroke-width: 30" />
<polyline points="1687,4509 1607,4477 1576,4470 1580,4483 1591,4566 1615,4654 1609,4695 1576,4710 1519,4688 1480,4653 1486,4637 1557,4578 1702,4500 1865,4420 1980,4325 1999,4275 1963,4269 1898,4319 1820,4462 1762,4597 1752,4657 1753,4671 1757,4656 1774,4626 1780,4619 1787,4622 1809,4625 1844,4627 1874,4617 1908,4612 1914,4617 1929,4650 1944,4687 1956,4705 1958,4700 1958,4694 1965,4690 1988,4695 2042,4702 2112,4688 2167,4650 2175,4601 2149,4574 2129,4580 2117,4640 2134,4708 2179,4746 2234,4736 2284,4681 2331,4623 2346,4599 2351,4600 2362,4609 2383,4633 " style="fill: white; stroke: black; stroke-width: 30" />
<polyline points="54,4952 61,4943 79,4930 107,4925 159,4927 259,4940 386,4942 " style="fill: white; stroke: black; stroke-width: 30" />
<polyline points="250,4971 195,5036 147,5130 146,5218 187,5273 266,5303 356,5311 427,5316 471,5313 491,5303 " style="fill: white; stroke: black; stroke-width: 30" />
<polyline points="454,5158 455,5160 479,5174 532,5232 570,5296 576,5348 558,5381 512,5406 473,5413 473,5413 480,5409 " style="fill: white; stroke: black; stroke-width: 30" />
<polyline points="915,5122 910,5109 905,5107 897,5112 892,5113 886,5115 885,5114 888,5114 887,5112 887,5112 890,5108 888,5108 888,5106 887,5106 888,5103 888,5103 888,5101 889,5101 891,5099 887,5099 888,5096 891,5095 890,5093 892,5093 890,5092 891,5095 890,5098 885,5128 865,5242 851,5328 860,5367 903,5382 983,5368 1064,5323 1095,5291 1091,5292 1077,5306 1066,5340 1088,5383 1164,5418 1266,5406 1331,5371 1339,5332 1318,5285 1280,5233 1258,5206 1255,5194 1254,5194 1257,5201 1274,5219 1311,5256 1382,5302 1470,5327 1547,5313 1591,5275 1587,5239 1544,5195 1472,5185 1433,5203 1440,5255 1489,5328 1589,5374 1726,5369 1822,5320 1837,5250 1810,5208 1774,5198 1764,5200 1761,5210 1755,5250 1750,5318 1739,5380 1732,5391 1728,5388 1720,5378 1719,5371 1722,5371 1736,5373 1787,5356 1866,5313 " style="fill: white; stroke: black; stroke-width: 30" />
<polyline points="2074,5087 2065,5077 2056,5076 2046,5083 2040,5088 2042,5089 2043,5088 2045,5087 2052,5083 2051,5083 2051,5080 2051,5082 2050,5081 2052,5081 2052,5079 2050,5081 2054,5078 2051,5080 2054,5078 2053,5078 2052,5077 2051,5079 2051,5077 2051,5079 2051,5077 2050,5078 2051,5077 2051,5077 2053,5076 2052,5077 2052,5074 2050,5076 2051,5074 2048,5076 2050,5074 2051,5074 2050,5074 2051,5074 2053,5073 2050,5076 2053,5075 2050,5079 2042,5096 2003,5229 1950,5436 1955,5556 1987,5610 " style="fill: white; stroke: black; stroke-width: 30" />
<polyline points="1942,5236 1938,5237 1957,5240 1990,5252 2042,5265 2106,5279 2172,5291 " style="fill: white; stroke: black; stroke-width: 30" />
<polyline points="2763,5301 2771,5271 2759,5242 2696,5222 2611,5248 2556,5301 2562,5366 2629,5435 2728,5472 2810,5477 " style="fill: white; stroke: black; stroke-width: 30" />
<polyline points="2855,5518 2855,5507 2857,5470 2861,5422 2872,5391 2899,5374 2960,5379 3004,5427 3006,5471 2988,5489 2955,5486 2913,5468 2889,5429 2886,5418 2890,5414 2898,5412 2904,5409 " style="fill: white; stroke: black; stroke-width: 30" />
<polyline points="3109,5484 3050,5453 3042,5436 3058,5423 3120,5398 3197,5377 3249,5376 3270,5384 3271,5389 3276,5390 3281,5384 3318,5356 3376,5304 3424,5266 3439,5246 3447,5234 3445,5231 3436,5238 3394,5287 3326,5372 3258,5462 3242,5500 3238,5505 3247,5496 3277,5453 3314,5423 3370,5408 3419,5402 3453,5390 3479,5366 3469,5345 3431,5340 3397,5361 3379,5426 3399,5481 3459,5506 " style="fill: white; stroke: black; stroke-width: 30" />
<polyline points="3578,5476 3540,5490 3522,5494 3533,5487 3581,5470 3681,5427 3768,5373 3806,5344 3777,5325 3694,5328 3645,5337 3640,5352 3641,5369 3650,5409 3679,5438 3726,5469 3783,5476 3842,5458 3893,5416 3954,5356 4022,5281 4034,5264 4029,5260 4004,5275 3954,5325 3894,5406 3864,5468 3864,5504 3865,5514 3874,5506 3885,5477 3903,5447 3920,5428 3937,5428 3968,5438 4044,5452 4126,5471 " style="fill: white; stroke: black; stroke-width: 30" />
<polyline points="849,5743 842,5742 855,5741 891,5745 963,5747 1045,5757 1112,5760 " style="fill: white; stroke: black; stroke-width: 30" />
<polyline points="1027,5679 979,5679 934,5727 862,5862 815,6000 808,6074 831,6102 879,6121 939,6133 1000,6137 1045,6128 1100,6117 1112,6118 1101,6122 " style="fill: white; stroke: black; stroke-width: 30" />
<polyline points="1108,6010 1103,6005 1114,6007 1171,6016 1256,6036 1298,6048 1300,6050 1278,6059 1223,6085 1170,6110 1142,6128 1122,6155 1129,6173 " style="fill: white; stroke: black; stroke-width: 30" />
<polyline points="1820,5880 1805,5881 1782,5915 1725,6033 1678,6170 1643,6261 1616,6301 1591,6304 1570,6278 1548,6212 1530,6125 1539,6068 1579,6030 " style="fill: white; stroke: black; stroke-width: 30" />
<polyline points="1812,6028 1833,6010 1828,6007 1818,6013 1794,6036 1763,6092 1766,6122 1791,6140 1848,6131 1904,6110 1906,6108 1905,6114 1895,6146 1908,6176 " style="fill: white; stroke: black; stroke-width: 30" />
<polyline points="2128,6124 2125,6118 2110,6101 2066,6081 2007,6076 1967,6094 1957,6130 1984,6159 2065,6160 2173,6109 2264,6032 2291,5986 2286,5958 2278,5951 2265,5959 2250,5980 2218,6040 2217,6081 2220,6116 2262,6137 " style="fill: white; stroke: black; stroke-width: 30" />
<polyline points="2433,6048 2424,6035 2408,6022 2374,6018 2325,6051 2318,6084 2347,6105 2392,6100 2420,6080 2425,6078 2412,6097 2393,6187 2366,6269 2338,6313 2331,6314 2339,6290 2396,6191 2485,6122 2569,6101 2629,6104 2657,6103 2661,6083 2649,6020 2618,6003 2610,6010 2605,6059 2615,6113 2645,6154 2689,6180 2774,6202 " style="fill: white; stroke: black; stroke-width: 30" />
<polyline points="1845,6486 1812,6501 1786,6524 1786,6532 1799,6532 1803,6529 1798,6523 1801,6520 1811,6514 1855,6506 1948,6499 2055,6502 2131,6512 2179,6515 " style="fill: white; stroke: black; stroke-width: 30" />
<polyline points="1969,6518 1949,6531 1920,6580 1852,6726 1823,6823 1845,6866 1898,6886 1968,6894 2033,6888 2080,6888 2110,6887 2138,6881 2148,6866 " style="fill: white; stroke: black; stroke-width: 30" />
<polyline points="2164,6791 2162,6782 2178,6783 2200,6803 2221,6834 2231,6851 2232,6854 2234,6851 2231,6850 2230,6851 2228,6856 2220,6874 2216,6921 2210,6959 2204,6970 2203,6971 2207,6966 2205,6964 2206,6962 2211,6957 " style="fill: white; stroke: black; stroke-width: 30" />
<polyline points="2529,6825 2499,6860 2468,6951 2442,7052 2434,7108 2436,7127 2440,7126 2445,7117 2454,7082 2487,6992 2510,6882 2539,6799 2560,6772 2602,6780 2674,6841 2717,6916 2708,6961 2658,6975 2568,6957 2475,6907 2443,6873 2451,6866 2467,6865 2507,6878 " style="fill: white; stroke: black; stroke-width: 30" />
<polyline points="2571,6932 2566,6929 2609,6957 2664,7023 2687,7099 2657,7143 2596,7155 2521,7139 2480,7111 2472,7079 2472,7031 2486,7016 2520,7025 2582,7083 " style="fill: white; stroke: black; stroke-width: 30" />
<polyline points="2753,7225 2749,7197 2756,7147 2790,7066 2832,7008 2862,6991 2873,6994 2879,7013 2900,7062 2944,7101 3016,7103 3071,7076 3062,7039 3018,7000 2958,6982 2902,7004 2872,7055 2890,7112 2944,7164 3042,7174 " style="fill: white; stroke: black; stroke-width: 30" />
<polyline points="3220,6990 3202,6982 3193,6982 3203,6988 3245,7007 3290,7053 3293,7101 3251,7142 3180,7162 3118,7165 3098,7155 3111,7139 3140,7102 3197,7094 3251,7114 3297,7142 3368,7135 " style="fill: white; stroke: black; stroke-width: 30" />
<polyline points="3584,6884 3571,6858 3564,6856 3516,6899 3431,7002 3377,7095 3351,7160 3350,7192 3376,7196 " style="fill: white; stroke: black; stroke-width: 30" />
<polyline points="3565,7025 3498,7024 3472,7035 3466,7059 3476,7124 3500,7171 3530,7207 " style="fill: white; stroke: black; stroke-width: 30" />
<polyline points="2453,7503 2438,7496 2437,7498 2449,7500 2449,7505 2455,7509 2456,7507 2457,7506 2452,7504 2440,7512 2409,7568 2396,7671 2416,7726 2475,7762 2566,7772 2663,7768 2731,7752 2777,7736 " style="fill: white; stroke: black; stroke-width: 30" />
<polyline points="2776,7611 2773,7611 2795,7616 2869,7639 2955,7677 2983,7700 2955,7727 2910,7779 2853,7818 2829,7840 2807,7864 " style="fill: white; stroke: black; stroke-width: 30" />
<polyline points="3261,7571 3254,7566 3249,7559 3231,7564 3203,7585 3153,7644 3108,7710 3096,7764 3114,7803 3170,7827 3252,7813 3359,7755 3466,7665 3506,7623 3504,7619 3487,7630 3452,7665 3394,7739 3376,7791 3385,7837 3423,7868 " style="fill: white; stroke: black; stroke-width: 30" />
<polyline points="3731,7669 3699,7667 3683,7680 3656,7715 3610,7790 3576,7859 3548,7888 3550,7884 3549,7875 3560,7861 3574,7818 3596,7798 3625,7793 3676,7792 3759,7792 3852,7784 3923,7763 3927,7754 3903,7730 3845,7699 3789,7691 3788,7704 3803,7749 3839,7837 3898,7926 " style="fill: white; stroke: black; stroke-width: 30" />
<polyline points="-3590,6140 -3604,6143 -3617,6168 -3623,6254 -3605,6399 -3590,6561 -3593,6691 -3614,6767 -3655,6807 -3699,6802 -3770,6713 -3824,6547 -3837,6414 -3831,6358 " style="fill: white; stroke: black; stroke-width: 30" />
<polyline points="-3400,6583 -3392,6585 -3371,6578 -3344,6554 -3294,6497 -3260,6431 -3266,6378 -3335,6356 -3420,6398 -3467,6493 -3450,6595 -3390,6662 -3288,6682 -3187,6651 " style="fill: white; stroke: black; stroke-width: 30" />
<polyline points="-2999,6514 -3019,6507 -3036,6479 -3056,6416 -3079,6370 -3121,6360 -3137,6374 -3150,6441 -3143,6523 -3121,6587 -3070,6607 -2994,6574 -2898,6473 -2848,6345 -2831,6235 -2839,6197 -2862,6189 -2908,6211 -2944,6291 -2954,6408 -2937,6499 -2892,6547 -2815,6555 -2733,6524 -2693,6479 -2697,6441 -2726,6425 -2765,6438 -2772,6462 -2747,6536 -2693,6592 -2610,6627 -2529,6609 -2479,6561 -2464,6501 -2460,6461 -2458,6449 -2453,6451 -2442,6452 " style="fill: white; stroke: black; stroke-width: 30" />
<polyline points="-3676,7024 -3690,7022 -3707,7037 -3736,7094 -3792,7208 -3811,7308 -3789,7349 -3741,7363 -3640,7345 -3547,7310 " style="fill: white; stroke: black; stroke-width: 30" />
<polyline points="-3469,7247 -3484,7219 -3467,7201 -3419,7196 -3354,7194 -3297,7188 -3251,7170 -3256,7164 -3286,7148 -3355,7137 -3453,7156 -3511,7220 -3514,7303 -3471,7363 -3385,7387 -3287,7363 -3195,7305 -3145,7236 -3129,7190 -3129,7177 -3130,7175 -3138,7178 -3142,7194 -3150,7251 -3147,7320 -3132,7372 -3110,7396 " style="fill: white; stroke: black; stroke-width: 30" />
<polyline points="-3148,6950 -3162,6921 -3149,6904 -3098,6909 -3038,6964 -3019,7041 -3049,7076 -3095,7062 -3153,7012 -3174,6950 -3154,6901 " style="fill: white; stroke: black; stroke-width: 30" />
<polyline points="-2840,7219 -2945,7200 -3048,7216 -3118,7281 -3113,7333 -3033,7366 -2903,7318 -2754,7200 -2659,7071 -2640,7017 -2682,7018 -2751,7072 -2801,7178 -2792,7257 -2726,7295 -2651,7292 -2590,7315 -2574,7357 -2561,7393 -2529,7399 -2476,7356 -2450,7296 -2460,7272 -2500,7285 -2525,7313 -2516,7356 -2470,7395 -2381,7416 " style="fill: white; stroke: black; stroke-width: 30" />
<polyline points="-3796,7869 -3813,7880 -3821,7909 -3821,7996 -3822,8101 -3811,8170 -3810,8177 -3811,8153 -3830,8066 -3852,7927 -3881,7784 -3892,7695 -3891,7639 -3872,7609 -3808,7585 -3728,7608 -3694,7664 -3721,7717 -3776,7741 -3846,7728 -3872,7704 -3866,7667 -3850,7630 -3794,7641 " style="fill: white; stroke: black; stroke-width: 30" />
<polyline points="-3620,8074 -3676,8143 -3708,8161 -3713,8153 -3701,8126 -3670,8042 -3614,7974 -3573,7947 -3543,7952 -3525,7982 -3519,8009 -3503,8019 -3463,8029 -3414,8061 -3389,8104 -3377,8128 -3348,8127 -3330,8112 " style="fill: white; stroke: black; stroke-width: 30" />
<polyline points="-2639,7742 -2650,7735 -2663,7768 -2700,7906 -2744,8099 -2770,8216 -2746,8267 " style="fill: white; stroke: black; stroke-width: 30" />
<polyline points="-2375,7889 -2440,7902 -2578,7968 -2745,8085 -2829,8179 -2784,8209 -2646,8231 -2469,8194 -2321,8133 -2266,8075 -2294,8046 -2360,8050 -2440,8083 -2513,8144 -2530,8195 -2492,8218 -2377,8223 -2236,8175 -2094,8066 -1975,7929 -1907,7789 -1908,7735 -1961,7735 -2077,7829 -2194,8023 -2241,8174 -2207,8249 -2118,8257 -1984,8160 -1854,8014 -1805,7913 -1848,7901 -1921,7941 -2033,8056 -2086,8163 -2035,8228 -1917,8244 -1762,8226 -1678,8205 -1706,8201 -1783,8205 -1855,8224 -1865,8236 -1823,8247 -1760,8262 -1719,8282 -1695,8282 -1673,8252 -1655,8190 -1633,8126 -1600,8074 -1549,8051 -1481,8040 -1408,8051 " style="fill: white; stroke: black; stroke-width: 30" />
<polyline points="-3993,8674 -4015,8670 -4021,8667 -4012,8668 -3980,8663 -3890,8658 -3732,8656 -3512,8665 -3216,8670 -2842,8651 -2399,8611 -2024,8578 -1719,8575 -1566,8594 -1517,8603 -1517,8605 -1522,8602 -1530,8600 -1536,8596 " style="fill: white; stroke: black; stroke-width: 30" />
<polyline points="-3646,9041 -3653,9027 -3640,9033 -3672,9087 -3733,9231 -3781,9318 -3762,9341 -3665,9352 -3527,9339 -3391,9334 -3269,9346 -3191,9349 " style="fill: white; stroke: black; stroke-width: 30" />
<polyline points="-3244,9165 -3255,9161 -3243,9162 -3220,9181 -3175,9240 -3171,9303 -3194,9378 -3238,9433 -3289,9459 -3300,9461 -3291,9455 " style="fill: white; stroke: black; stroke-width: 30" />
<polyline points="-2556,9191 -2573,9189 -2584,9202 -2606,9326 -2649,9533 -2670,9663 -2696,9705 -2712,9713 -2752,9682 -2792,9588 -2808,9453 -2802,9359 " style="fill: white; stroke: black; stroke-width: 30" />
<polyline points="-2361,9420 -2409,9434 -2458,9474 -2499,9524 -2490,9535 -2452,9536 -2377,9513 -2327,9500 -2314,9509 -2310,9527 -2299,9561 " style="fill: white; stroke: black; stroke-width: 30" />
<polyline points="-2051,9504 -2075,9473 -2122,9466 -2158,9483 -2177,9500 -2162,9528 -2147,9581 -2132,9646 -2143,9718 -2180,9767 -2184,9779 -2191,9764 -2204,9670 -2182,9572 " style="fill: white; stroke: black; stroke-width: 30" />
<polyline points="-1837,9484 -1843,9495 -1883,9514 -1934,9540 -1975,9562 -1982,9592 -1982,9656 -1990,9743 -2013,9820 -2041,9864 -2072,9878 -2103,9866 -2138,9839 -2134,9787 -2087,9732 -1979,9671 -1879,9621 -1793,9585 -1759,9562 -1767,9564 -1783,9571 -1782,9576 -1778,9575 -1771,9569 -1780,9564 -1794,9568 -1824,9588 -1838,9620 -1813,9640 -1782,9648 -1727,9640 -1670,9609 -1627,9575 -1614,9556 -1615,9552 -1608,9553 -1589,9550 -1531,9533 " style="fill: white; stroke: black; stroke-width: 30" />
<polyline points="-1454,9679 -1457,9690 -1468,9689 -1462,9671 -1434,9609 -1390,9563 -1362,9551 -1350,9573 -1354,9640 -1359,9702 -1361,9715 -1355,9700 -1315,9628 -1255,9558 " style="fill: white; stroke: black; stroke-width: 30" />
<polyline points="-1081,9499 -1093,9493 -1100,9492 -1101,9498 -1112,9529 -1126,9578 -1156,9625 -1166,9644 -1168,9646 -1184,9639 -1197,9628 -1188,9613 -1173,9594 -1152,9576 -1139,9575 -1120,9584 -1108,9596 -1083,9625 -1044,9652 -965,9663 -901,9648 -869,9609 -857,9546 -873,9521 -903,9519 -922,9537 -937,9581 -923,9612 -888,9631 -830,9626 -798,9618 -802,9622 -806,9640 -781,9675 -726,9683 " style="fill: white; stroke: black; stroke-width: 30" />
<polyline points="-444,9437 -465,9425 -485,9436 -573,9532 -646,9650 -663,9710 -656,9719 -646,9679 -615,9598 -587,9553 -548,9536 -463,9541 -344,9566 " style="fill: white; stroke: black; stroke-width: 30" />
<polyline points="-999,3942 -1047,3954 -1069,4010 -1070,4136 -1070,4327 -1051,4519 -1005,4692 -917,4870 -786,5058 -663,5275 -578,5535 -545,5805 -508,6070 -421,6361 -286,6654 -132,6950 -8,7251 99,7546 177,7827 235,8086 257,8313 247,8513 241,8716 286,8945 405,9166 514,9326 559,9423 572,9464 " style="fill: white; stroke: black; stroke-width: 30" />
<polyline points="647,8930 651,8927 654,8922 685,8915 762,8907 855,8907 991,8910 1128,8903 " style="fill: white; stroke: black; stroke-width: 30" />
<polyline points="1090,8804 1116,8795 1212,8795 1304,8826 1363,8870 1360,8909 1303,8938 1242,8952 1211,8959 1207,8967 " style="fill: white; stroke: black; stroke-width: 30" />
<polyline points="2186,8806 2188,8815 2196,8823 2196,8832 2183,8830 2157,8827 2076,8821 1949,8844 1855,8874 1840,8932 1889,9033 1966,9137 1996,9182 1958,9190 1879,9173 1818,9145 1810,9133 1829,9133 1916,9119 " style="fill: white; stroke: black; stroke-width: 30" />
<polyline points="2304,9009 2263,8995 2208,8994 2146,9006 2096,9023 2078,9043 2083,9062 2083,9081 2095,9092 2103,9104 2138,9116 2194,9123 2267,9108 2307,9088 2317,9069 2318,9063 2298,9066 2296,9081 2280,9123 2281,9158 2279,9168 2286,9164 2311,9134 2353,9077 2375,9037 2381,9028 2392,9029 2415,9043 2444,9061 2480,9074 2507,9074 2507,9076 2501,9076 2494,9085 2491,9100 2475,9134 2470,9152 2460,9182 " style="fill: white; stroke: black; stroke-width: 30" />
<polyline points="2566,8876 2546,8839 2549,8831 2572,8831 2638,8839 2687,8860 2686,8891 2654,8907 2606,8898 2574,8873 2584,8833 2594,8815 2612,8788 2633,8794 " style="fill: white; stroke: black; stroke-width: 30" />
<polyline points="2601,9102 2557,9106 2544,9149 2537,9218 2518,9281 2488,9317 2470,9321 2453,9312 2465,9266 2552,9158 2663,9075 2746,9041 2779,9040 2774,9051 2743,9091 2672,9142 2608,9169 2589,9166 2575,9142 2594,9105 2627,9078 2704,9064 " style="fill: white; stroke: black; stroke-width: 30" />
<polyline points="3098,8953 3086,8911 3051,8895 3038,8898 2979,8964 2876,9088 2827,9194 2814,9250 2808,9258 2819,9233 2843,9188 2898,9155 2954,9135 3002,9136 3036,9155 " style="fill: white; stroke: black; stroke-width: 30" />
<polyline points="1801,9559 1795,9536 1817,9532 1872,9549 1932,9590 1957,9628 1924,9650 1850,9666 1761,9664 1723,9655 1732,9638 1761,9596 1799,9569 1824,9569 1826,9587 1842,9636 1893,9689 " style="fill: white; stroke: black; stroke-width: 30" />
<polyline points="2164,9418 2161,9412 2168,9434 2171,9518 2172,9619 2163,9703 2115,9761 2067,9790 2022,9788 " style="fill: white; stroke: black; stroke-width: 30" />
<polyline points="2522,9499 2491,9505 2425,9557 2374,9638 2352,9707 2338,9755 2340,9755 2341,9735 2373,9642 2429,9532 2518,9455 2589,9445 2612,9474 2606,9524 2550,9570 2488,9586 2434,9568 2433,9534 2466,9499 2527,9497 2611,9528 2680,9562 2717,9577 2701,9578 2647,9595 2581,9634 2571,9665 2585,9697 2645,9703 2729,9680 2775,9653 2773,9653 2766,9658 2752,9688 2761,9723 2787,9741 " style="fill: white; stroke: black; stroke-width: 30" />
<polyline points="3066,9516 3070,9510 3073,9506 3080,9502 3070,9510 3019,9566 2964,9637 2938,9696 2934,9724 2928,9726 2947,9706 3013,9654 3066,9642 3072,9661 3057,9696 3009,9733 2967,9732 2925,9709 2908,9666 2923,9647 2972,9656 " style="fill: white; stroke: black; stroke-width: 30" />
<polyline points="3290,9560 3297,9524 3299,9510 3290,9514 3255,9550 3180,9623 3137,9694 3135,9750 3170,9774 3240,9770 3313,9749 3339,9736 3339,9730 3323,9740 3308,9748 3297,9766 3289,9781 3279,9796 3298,9790 " style="fill: white; stroke: black; stroke-width: 30" />
<polyline points="3452,9556 3437,9527 3429,9521 3432,9525 3443,9543 " style="fill: white; stroke: black; stroke-width: 30" />
<polyline points="3564,9749 3566,9705 3548,9686 3515,9686 3481,9719 3477,9776 3505,9826 3567,9851 " style="fill: white; stroke: black; stroke-width: 30" />
<polyline points="1745,10098 1733,10090 1731,10085 1714,10105 1684,10168 1655,10234 1650,10264 1659,10262 1679,10250 1703,10233 1733,10230 1774,10258 1814,10314 1840,10357 1821,10356 1762,10332 1686,10279 1652,10242 1657,10236 1693,10233 " style="fill: white; stroke: black; stroke-width: 30" />
<polyline points="1963,10043 1956,10038 1960,10041 1971,10064 1985,10131 1997,10235 1974,10339 1913,10425 1852,10477 " style="fill: white; stroke: black; stroke-width: 30" />
<polyline points="2408,10324 2421,10317 2436,10299 2467,10254 2486,10183 2476,10104 2433,10056 2367,10066 2297,10145 2236,10297 2208,10460 2215,10578 2217,10631 2214,10624 2197,10542 2195,10427 2218,10360 2233,10348 2237,10351 2262,10358 2287,10366 2333,10374 2406,10370 2488,10361 2520,10350 2527,10345 2522,10341 2521,10340 2515,10341 2493,10353 2466,10384 2457,10426 2475,10459 2550,10460 2583,10455 2588,10455 2591,10458 2609,10471 2654,10486 " style="fill: white; stroke: black; stroke-width: 30" />
<polyline points="2708,10293 2685,10267 2688,10262 2715,10269 2756,10304 2789,10355 " style="fill: white; stroke: black; stroke-width: 30" />
<polyline points="2795,10587 2771,10579 2774,10559 2792,10526 2836,10475 2870,10448 2887,10446 2932,10458 2972,10481 " style="fill: white; stroke: black; stroke-width: 30" />
<polyline points="2297,10673 2284,10683 2259,10718 2197,10797 2168,10890 2173,10971 2200,11029 " style="fill: white; stroke: black; stroke-width: 30" />
<polyline points="2253,10772 2251,10731 2241,10722 2228,10726 2214,10740 2204,10757 2200,10758 2183,10759 2174,10755 2180,10754 2180,10753 2170,10755 2172,10754 2180,10755 2182,10761 " style="fill: white; stroke: black; stroke-width: 30" />
<polyline points="2523,10695 2457,10664 2415,10658 2389,10688 2355,10781 2314,10900 2297,10977 2284,11019 2277,11021 2272,10981 " style="fill: white; stroke: black; stroke-width: 30" />
<polyline points="2282,10806 2253,10782 2250,10778 2249,10785 2272,10802 2336,10836 2437,10857 2522,10862 2547,10866 2548,10868 2541,10870 2535,10879 2516,10906 2500,10962 2502,11001 " style="fill: white; stroke: black; stroke-width: 30" />
<polyline points="2658,10717 2638,10652 2619,10640 2622,10640 2611,10652 2633,10706 " style="fill: white; stroke: black; stroke-width: 30" />
<polyline points="2799,10906 2745,10844 2706,10796 2687,10791 2689,10808 2704,10853 2723,10900 2742,10924 2740,10944 2748,10957 2746,10959 2751,10959 2747,10962 2758,10960 2779,10947 2784,10930 2792,10908 2789,10894 2784,10895 2783,10897 2781,10899 2769,10916 2749,10953 2746,10978 2720,11046 2716,11108 2709,11191 2677,11243 2650,11275 2632,11283 2621,11269 2608,11228 2623,11126 2682,11019 " style="fill: white; stroke: black; stroke-width: 30" />
<polyline points="3076,10716 3072,10686 3064,10672 3059,10671 3037,10688 2964,10779 2930,10864 2937,10922 2976,10951 3009,10963 3019,10965 3013,10978 3017,11009 " style="fill: white; stroke: black; stroke-width: 30" />
<polyline points="2352,11265 2335,11240 2307,11235 2272,11249 2258,11282 2257,11344 2255,11414 2241,11450 2201,11465 2171,11456 2160,11433 2174,11396 2203,11360 2237,11345 2295,11341 " style="fill: white; stroke: black; stroke-width: 30" />
<polyline points="2534,11338 2509,11319 2467,11315 2437,11337 2431,11372 2457,11418 2495,11434 2530,11417 2526,11386 2507,11354 2487,11346 2484,11352 2520,11371 2565,11397 2610,11412 " style="fill: white; stroke: black; stroke-width: 30" />
<polyline points="2820,11402 2783,11366 2753,11338 2755,11326 2744,11327 2734,11327 2734,11324 2711,11335 2680,11365 2662,11403 2684,11430 2729,11453 2807,11454 2890,11430 2914,11403 2922,11387 2917,11385 2924,11385 2912,11405 2888,11440 2880,11474 2897,11495 " style="fill: white; stroke: black; stroke-width: 30" />
<polyline points="3073,11261 3052,11198 3035,11181 3040,11182 3037,11195 3051,11275 3086,11381 3127,11471 3154,11510 3156,11508 3154,11475 3127,11444 3108,11435 3105,11443 3104,11485 3149,11525 3204,11533 3278,11502 3369,11419 3431,11310 3469,11243 3455,11227 3463,11223 3434,11264 3398,11338 3364,11413 3328,11473 3327,11504 3340,11499 3368,11469 3409,11416 3458,11374 3469,11355 3480,11349 3460,11351 3452,11357 3468,11375 3472,11406 3498,11428 3522,11443 3557,11444 3637,11421 3697,11382 3706,11359 3711,11341 3705,11340 3700,11340 3688,11349 3647,11382 3630,11423 3638,11464 3671,11507 3710,11518 3719,11514 3691,11514 3657,11517 3630,11526 3600,11566 " style="fill: white; stroke: black; stroke-width: 30" />
<polyline points="1937,11910 1906,11891 1892,11874 1891,11873 1894,11873 1875,11887 1826,11917 1785,11952 1802,11971 1856,12006 1948,12039 " style="fill: white; stroke: black; stroke-width: 30" />
<polyline points="2148,11781 2137,11722 2128,11705 2141,11717 2162,11794 2167,11913 2132,12007 2095,12068 2063,12103 " style="fill: white; stroke: black; stroke-width: 30" />
<polyline points="2638,11889 2636,11856 2635,11799 2596,11750 2544,11740 2489,11771 2412,11885 2385,11997 2366,12086 2353,12131 2358,12132 2364,12091 2393,12027 2428,11999 2487,11983 2538,11987 2580,11988 2598,11985 2598,11981 2609,11978 2604,11978 2595,11981 2593,11982 2596,11984 2607,11981 2613,11986 2638,12000 2681,12006 2691,12009 2685,12013 2680,12016 2684,12034 2698,12064 2749,12094 " style="fill: white; stroke: black; stroke-width: 30" />
<polyline points="2748,11916 2757,11881 2808,11863 2848,11878 2901,11905 2931,11947 " style="fill: white; stroke: black; stroke-width: 30" />
<polyline points="2870,12118 2856,12119 2862,12115 2845,12117 2862,12106 2884,12084 2930,12038 2978,12010 3000,12001 3051,12016 " style="fill: white; stroke: black; stroke-width: 30" />
<polyline points="2544,12166 2538,12149 2512,12152 2477,12184 2436,12234 2405,12315 2403,12370 2431,12397 2504,12366 " style="fill: white; stroke: black; stroke-width: 30" />
<polyline points="2674,12226 2618,12202 2526,12198 2448,12209 2446,12222 2451,12275 2496,12343 2572,12388 2674,12399 2766,12381 2807,12352 2810,12334 2801,12327 2796,12328 2776,12339 2748,12381 2729,12430 2751,12476 " style="fill: white; stroke: black; stroke-width: 30" />
<polyline points="2977,12233 2929,12168 2911,12135 2914,12135 2920,12151 2935,12224 " style="fill: white; stroke: black; stroke-width: 30" />
<polyline points="2933,12477 2903,12467 2915,12451 2962,12425 3005,12415 3016,12426 3019,12452 3026,12493 3045,12518 3103,12514 3142,12485 3185,12439 3193,12409 3207,12385 3193,12368 3174,12355 3166,12353 3152,12381 3133,12426 3151,12466 3203,12482 3279,12464 3341,12415 3376,12360 3356,12325 3356,12316 3345,12342 3341,12406 3356,12462 3375,12502 3364,12510 3356,12498 3346,12492 3371,12496 3434,12508 3496,12522 3521,12518 3520,12507 3518,12497 3515,12498 3539,12497 " style="fill: white; stroke: black; stroke-width: 30" />
<polyline points="1949,12780 1949,12777 1944,12777 1939,12777 1943,12775 1931,12776 1936,12775 1926,12776 1921,12774 1898,12773 1857,12778 1810,12798 1799,12812 1834,12827 1884,12863 1966,12908 2029,12942 " style="fill: white; stroke: black; stroke-width: 30" />
<polyline points="2089,12597 2066,12593 2051,12605 2034,12669 2003,12789 2000,12902 2024,13011 " style="fill: white; stroke: black; stroke-width: 30" />
<polyline points="2271,12534 2271,12549 2292,12611 2279,12747 2251,12866 2186,12973 2140,13037 " style="fill: white; stroke: black; stroke-width: 30" />
<polyline points="2580,12734 2623,12748 2643,12745 2680,12727 2683,12692 2634,12662 2577,12644 2533,12653 2490,12719 2466,12804 2458,12884 2442,12963 2459,12985 2450,12977 2456,12916 2464,12845 2477,12822 2501,12815 2539,12812 2566,12822 2651,12822 2731,12809 2768,12793 2773,12789 2765,12790 2735,12808 2706,12827 2720,12846 2765,12865 2828,12877 2850,12884 2827,12897 2835,12908 2857,12928 2899,12939 " style="fill: white; stroke: black; stroke-width: 30" />
<polyline points="2901,12786 2909,12754 2909,12742 2937,12748 2966,12776 3001,12826 " style="fill: white; stroke: black; stroke-width: 30" />
<polyline points="3011,13018 2998,13005 3032,12969 3093,12925 3140,12890 3160,12875 3168,12877 " style="fill: white; stroke: black; stroke-width: 30" />
<polyline points="3282,13046 3351,12999 3457,12932 3531,12847 3589,12755 3575,12724 3563,12719 3526,12758 3488,12838 3461,12926 3462,12992 3444,13025 3407,13020 3359,12980 3354,12930 3377,12894 3468,12870 3550,12878 3571,12903 3587,12933 3570,12971 3562,13010 3554,13031 3566,13035 3592,13010 3630,12972 3688,12926 3709,12904 3722,12899 3720,12913 3730,12956 3742,13008 3722,13056 3703,13076 3686,13074 3690,13059 3745,13010 3785,12967 3810,12950 3804,12955 3801,12964 3798,12984 3815,13015 3845,13052 3881,13067 3870,13070 3868,13072 3879,13080 3877,13113 3920,13133 3913,13148 3916,13150 3922,13150 3926,13165 " style="fill: white; stroke: black; stroke-width: 30" />

</svg>