<?xml version="1.0" standalone="no"?>
<!DOCTYPE svg PUBLIC "-//W3C//DTD SVG 1.1//EN" "http://www.w3.org/Graphics/SVG/1.1/DTD/svg11.dtd">
<svg width="210mm" height="297mm" viewBox="-7000 500 14000 20000" version="1.1" xmlns="http://www.w3.org/2000/svg">

<polyline points="-2892,3429 -2894,3416 -2908,3414 -2930,3427 -2959,3471 -2984,3555 -2981,3629 -2964,3689 -2947,3712 -2922,3724 -2884,3719 -2833,3705 -2786,3695 -2748,3699 -2714,3712 -2691,3727 " style="fill: white; stroke: black; stroke-width: 30" />
<polyline points="-2578,3648 -2587,3642 -2595,3639 -2613,3637 -2627,3637 -2653,3648 -2674,3675 -2677,3697 -2664,3732 -2638,3761 -2599,3777 -2557,3766 -2522,3737 -2515,3709 -2528,3681 -2551,3666 -2574,3661 -2589,3667 -2592,3681 -2575,3712 -2545,3733 -2489,3741 -2430,3730 -2380,3712 -2349,3687 -2347,3668 -2369,3651 -2412,3647 -2451,3672 -2463,3716 -2442,3783 -2399,3818 -2349,3822 -2310,3797 -2298,3751 -2313,3716 -2340,3687 -2355,3683 -2356,3690 -2352,3714 -2330,3752 -2299,3772 -2267,3775 -2227,3752 -2201,3708 -2200,3667 -2206,3646 -2205,3649 -2208,3668 -2219,3752 -2229,3852 -2233,3939 -2222,3994 -2218,4027 -2218,4028 -2219,4019 -2223,3967 -2221,3885 -2219,3776 -2206,3700 -2188,3666 -2154,3655 -2111,3669 -2077,3724 -2071,3784 -2096,3831 -2140,3843 -2186,3828 -2225,3782 -2226,3748 -2209,3717 " style="fill: white; stroke: black; stroke-width: 30" />
<polyline points="-783,3554 -786,3551 -788,3549 -791,3550 -792,3550 -793,3550 -797,3547 -799,3545 -812,3537 " style="fill: white; stroke: black; stroke-width: 30" />
<polyline points="-1035,3549 -1072,3532 -1074,3522 -1048,3503 -988,3487 -911,3497 -852,3525 -807,3580 -803,3636 -830,3706 -855,3774 -840,3810 -798,3829 -752,3831 -727,3817 " style="fill: white; stroke: black; stroke-width: 30" />
<polyline points="-946,3659 -975,3665 -973,3664 -949,3673 -887,3681 -815,3680 -758,3668 -722,3660 -711,3655 -711,3658 -716,3662 -722,3676 -732,3715 -731,3749 -717,3775 -692,3789 -644,3789 -577,3768 -527,3732 -513,3719 -515,3719 -519,3728 -525,3747 -522,3786 -504,3818 -471,3841 " style="fill: white; stroke: black; stroke-width: 30" />
<polyline points="-344,3580 -339,3563 -343,3557 -347,3561 -356,3580 -377,3639 -398,3713 -401,3751 -394,3762 -387,3758 -360,3726 -322,3694 -282,3679 -256,3693 -249,3725 -276,3771 -319,3807 -368,3815 -400,3792 -406,3773 -395,3753 -365,3752 -307,3760 -237,3778 -148,3782 -61,3773 -14,3748 -23,3727 -60,3708 -101,3713 -121,3736 -111,3783 -77,3827 -31,3845 7,3834 37,3801 46,3762 52,3698 57,3661 62,3656 80,3654 122,3659 178,3671 " style="fill: white; stroke: black; stroke-width: 30" />
<polyline points="949,3785 965,3776 974,3760 975,3747 952,3725 902,3695 841,3685 794,3697 787,3706 797,3713 841,3729 905,3751 953,3777 970,3794 972,3796 973,3795 973,3791 974,3785 974,3775 978,3752 977,3748 977,3750 974,3753 972,3763 966,3794 956,3874 942,3989 924,4101 908,4165 892,4194 873,4188 844,4125 832,3968 " style="fill: white; stroke: black; stroke-width: 30" />
<polyline points="1136,3532 1125,3571 1114,3635 1092,3738 1084,3810 1105,3846 1149,3857 1207,3845 1256,3820 1286,3802 1299,3784 1308,3761 1310,3742 1296,3725 1265,3723 1233,3747 1216,3788 1227,3829 1253,3863 1293,3881 1350,3873 1417,3837 1471,3792 1483,3772 1480,3770 1475,3775 1470,3782 1459,3812 1446,3857 1444,3902 1450,3934 1468,3942 " style="fill: white; stroke: black; stroke-width: 30" />
<polyline points="1513,3584 1473,3546 1457,3529 1458,3524 1475,3530 1524,3566 1547,3613 1551,3659 1530,3672 1496,3664 1469,3627 1469,3591 1503,3544 " style="fill: white; stroke: black; stroke-width: 30" />
<polyline points="1690,3811 1611,3784 1557,3783 1553,3801 1579,3836 1633,3861 1691,3854 1751,3818 1809,3767 1855,3702 1877,3640 1872,3603 1852,3591 1821,3607 1784,3668 1771,3740 1788,3796 1816,3816 1851,3818 1875,3828 1877,3833 1882,3839 1910,3848 " style="fill: white; stroke: black; stroke-width: 30" />
<polyline points="1952,3879 1947,3874 1961,3856 2004,3824 2054,3800 2090,3799 2095,3808 2094,3836 2094,3866 2115,3888 2164,3885 2218,3868 2236,3848 2234,3850 2226,3854 2211,3880 2205,3898 2216,3908 " style="fill: white; stroke: black; stroke-width: 30" />
<polyline points="2305,3625 2282,3577 2275,3559 2279,3556 2292,3559 2333,3580 2372,3610 2398,3641 2401,3661 2390,3675 2378,3679 2373,3676 2366,3668 2358,3660 2354,3653 2350,3652 2352,3650 2356,3650 2357,3651 2362,3652 2363,3654 2367,3659 2379,3666 2392,3673 " style="fill: white; stroke: black; stroke-width: 30" />
<polyline points="2501,3800 2480,3782 2442,3770 2397,3777 2375,3810 2377,3863 2398,3929 2412,3970 2402,3993 2386,4000 2365,3990 2347,3963 2328,3929 2346,3890 " style="fill: white; stroke: black; stroke-width: 30" />
<polyline points="-2527,4122 -2546,4116 -2572,4137 -2616,4209 -2662,4328 -2667,4414 -2654,4433 -2620,4442 -2561,4429 -2493,4421 -2436,4419 -2398,4417 -2370,4418 -2358,4421 -2349,4419 -2337,4409 " style="fill: white; stroke: black; stroke-width: 30" />
<polyline points="-2305,4279 -2320,4291 -2324,4298 -2310,4310 -2261,4339 -2214,4375 -2187,4407 -2194,4447 -2221,4475 -2245,4497 -2253,4498 -2256,4495 -2248,4492 -2245,4489 -2233,4486 " style="fill: white; stroke: black; stroke-width: 30" />
<polyline points="-2107,4533 -2102,4527 -2064,4485 -1984,4411 -1890,4310 -1822,4224 -1796,4191 -1798,4188 -1806,4198 -1827,4240 -1838,4319 -1835,4405 -1826,4466 -1811,4507 -1809,4518 -1823,4508 " style="fill: white; stroke: black; stroke-width: 30" />
<polyline points="-1925,4373 -1957,4332 -1973,4316 -1975,4315 -1969,4316 -1948,4323 -1897,4330 -1826,4336 -1739,4338 -1661,4344 " style="fill: white; stroke: black; stroke-width: 30" />
<polyline points="-1558,4210 -1571,4215 -1586,4238 -1607,4307 -1627,4389 -1641,4454 -1639,4479 -1641,4479 -1639,4461 -1634,4404 -1617,4313 -1603,4239 -1597,4192 -1594,4185 -1589,4192 -1551,4234 -1498,4307 -1464,4376 -1460,4441 -1489,4499 -1529,4523 -1574,4523 -1622,4495 -1652,4463 -1658,4444 -1650,4430 " style="fill: white; stroke: black; stroke-width: 30" />
<polyline points="-1152,4291 -1158,4289 -1176,4290 -1213,4296 -1255,4300 -1279,4304 -1277,4307 -1264,4321 -1229,4368 -1202,4427 -1193,4481 -1210,4531 -1237,4564 -1264,4567 -1286,4551 -1305,4512 -1307,4487 -1310,4447 -1295,4419 -1258,4387 -1202,4360 -1127,4338 -1047,4308 -983,4293 -975,4295 -983,4329 -999,4399 -1018,4487 -1028,4556 -1025,4592 -1021,4594 -1022,4576 -1024,4496 -1033,4401 -1043,4324 -1039,4299 -1017,4278 -953,4272 -882,4278 -835,4304 -835,4319 -867,4351 -953,4388 -1040,4414 -1062,4417 -1058,4414 -1056,4407 -1051,4406 -1040,4408 -1018,4423 -992,4436 -959,4457 -914,4486 -864,4521 -813,4560 -771,4606 " style="fill: white; stroke: black; stroke-width: 30" />
<polyline points="-184,4416 -196,4409 -208,4409 -222,4414 -228,4418 -229,4423 -225,4423 -211,4427 -177,4428 -113,4436 -20,4447 77,4454 " style="fill: white; stroke: black; stroke-width: 30" />
<polyline points="123,4377 99,4368 104,4365 137,4369 191,4386 224,4419 227,4442 207,4478 169,4505 129,4524 123,4525 129,4523 143,4518 182,4508 " style="fill: white; stroke: black; stroke-width: 30" />
<polyline points="731,4331 738,4333 737,4370 731,4462 724,4550 726,4596 723,4603 727,4583 741,4510 760,4400 788,4304 839,4244 900,4224 938,4253 945,4317 916,4393 870,4439 828,4453 802,4445 794,4429 796,4406 813,4380 " style="fill: white; stroke: black; stroke-width: 30" />
<polyline points="1076,4431 1038,4414 999,4392 951,4400 907,4433 906,4475 947,4525 1017,4548 1084,4534 1112,4513 1108,4487 1070,4452 1033,4433 1010,4439 1010,4442 1023,4452 1059,4474 1105,4485 1160,4479 1220,4462 1261,4445 1276,4441 1274,4441 1271,4448 1270,4457 1273,4492 1272,4532 1280,4571 1293,4583 " style="fill: white; stroke: black; stroke-width: 30" />
<polyline points="1260,4314 1248,4248 1258,4203 1287,4182 1327,4195 1359,4244 1360,4300 1335,4341 1308,4344 1282,4332 1263,4295 1269,4263 1299,4249 " style="fill: white; stroke: black; stroke-width: 30" />
<polyline points="1418,4541 1372,4543 1353,4548 1353,4554 1359,4552 1368,4541 1389,4512 1413,4482 1446,4460 1487,4458 1530,4476 1562,4515 1584,4543 1621,4538 1679,4479 1744,4386 1775,4330 1784,4314 1779,4317 1765,4360 1725,4463 1692,4557 1678,4619 1681,4623 1694,4606 1708,4560 1723,4500 1728,4456 1726,4440 1723,4446 1721,4450 1724,4464 1737,4475 1774,4496 1850,4501 1942,4483 2025,4437 2055,4387 2042,4345 1999,4329 1932,4339 1895,4378 1883,4436 1908,4498 1956,4542 1990,4559 2048,4554 2108,4527 2170,4469 2210,4421 2206,4412 2192,4410 2167,4411 2144,4416 2127,4429 2109,4458 2100,4485 2106,4504 2118,4534 2145,4566 2189,4588 2244,4597 2294,4595 2342,4598 2370,4602 2372,4605 2355,4610 2351,4613 2347,4613 2343,4616 2334,4621 2320,4635 2312,4646 2306,4660 2299,4674 2282,4687 2256,4698 2248,4694 2244,4687 2244,4680 2243,4675 2252,4675 2265,4677 " style="fill: white; stroke: black; stroke-width: 30" />
<polyline points="2572,4531 2522,4551 2476,4579 2457,4603 2456,4615 2457,4634 2460,4641 2461,4643 2458,4641 2459,4639 " style="fill: white; stroke: black; stroke-width: 30" />
<polyline points="-1743,3745 -1748,3746 -1748,3746 -1746,3741 -1741,3727 -1736,3713 -1718,3666 -1698,3610 -1685,3570 -1681,3558 -1679,3552 -1681,3550 -1680,3549 -1681,3548 -1684,3547 -1685,3547 -1685,3545 -1686,3545 -1685,3546 -1689,3549 -1688,3556 -1693,3579 -1695,3609 -1694,3646 -1694,3677 -1689,3713 -1683,3721 -1670,3741 -1655,3764 " style="fill: white; stroke: black; stroke-width: 30" />
<polyline points="-1605,3692 -1605,3712 -1603,3745 -1603,3787 -1602,3807 -1595,3814 -1583,3800 -1552,3761 -1525,3714 -1518,3704 -1518,3707 -1522,3722 -1527,3746 -1525,3766 -1516,3767 -1493,3761 -1460,3745 -1439,3740 -1439,3743 -1441,3756 -1436,3771 -1413,3775 -1372,3755 -1338,3743 -1327,3753 -1335,3773 -1342,3786 -1341,3794 -1335,3798 -1328,3801 " style="fill: white; stroke: black; stroke-width: 30" />
<polyline points="-1323,3614 -1334,3600 -1336,3598 -1331,3611 -1313,3642 " style="fill: white; stroke: black; stroke-width: 30" />
<polyline points="-1265,3840 -1260,3833 -1244,3792 -1220,3747 -1215,3734 -1214,3743 -1214,3774 -1210,3820 -1192,3843 " style="fill: white; stroke: black; stroke-width: 30" />
<polyline points="-3304,5927 -3305,5923 -3313,5924 -3329,5927 -3354,5945 -3389,5986 -3424,6050 -3432,6133 -3394,6214 -3306,6254 -3182,6247 -3070,6175 -3012,6095 -3011,6050 -3037,6027 -3080,6008 -3106,6007 -3116,6009 -3115,6015 -3112,6019 -3113,6020 -3111,6019 -3105,6017 -3097,6010 " style="fill: white; stroke: black; stroke-width: 30" />
<polyline points="-2905,6132 -2906,6110 -2909,6080 -2897,6039 -2866,6009 -2803,6014 -2727,6052 -2693,6117 -2704,6174 -2754,6221 -2840,6243 -2905,6235 -2933,6214 -2950,6172 -2932,6119 -2901,6072 -2862,6044 -2826,6042 -2795,6052 " style="fill: white; stroke: black; stroke-width: 30" />
<polyline points="-2591,6055 -2591,6052 -2590,6065 -2590,6111 -2589,6176 -2589,6224 -2583,6243 -2587,6236 -2587,6201 -2598,6147 " style="fill: white; stroke: black; stroke-width: 30" />
<polyline points="-2634,5952 -2638,5901 -2630,5873 -2600,5865 -2554,5878 -2518,5915 -2508,5951 -2525,5979 -2564,5994 -2601,5989 -2630,5962 -2631,5947 -2617,5915 " style="fill: white; stroke: black; stroke-width: 30" />
<polyline points="-2348,6029 -2361,6022 -2385,6022 -2427,6040 -2469,6084 -2500,6139 -2495,6189 -2464,6222 -2421,6234 -2355,6214 -2290,6173 -2236,6125 -2210,6078 -2203,6049 -2202,6043 -2211,6050 -2222,6057 -2225,6058 -2226,6056 -2231,6050 -2238,6047 -2241,6046 -2244,6049 -2254,6053 -2268,6068 -2276,6088 -2271,6128 -2254,6161 -2231,6185 -2195,6194 -2151,6190 -2108,6173 " style="fill: white; stroke: black; stroke-width: 30" />
<polyline points="-861,6034 -854,6016 -863,5997 -883,5971 -919,5956 -991,5958 -1069,5999 -1143,6082 -1176,6160 -1159,6212 -1088,6245 -992,6241 -889,6230 -812,6209 " style="fill: white; stroke: black; stroke-width: 30" />
<polyline points="-695,5968 -705,5966 -713,5977 -728,6029 -747,6121 -767,6194 -768,6227 -766,6233 -761,6225 -726,6197 -675,6162 -633,6153 -613,6162 -607,6186 -605,6214 -595,6229 " style="fill: white; stroke: black; stroke-width: 30" />
<polyline points="-467,6095 -471,6082 -449,6055 -419,6046 -391,6055 -366,6097 -366,6162 -392,6222 -433,6278 -478,6312 -505,6312 -523,6291 -519,6230 -496,6176 -459,6144 -410,6142 -368,6172 -340,6222 -311,6270 " style="fill: white; stroke: black; stroke-width: 30" />
<polyline points="-295,6311 -301,6329 -302,6329 -303,6319 -305,6293 -284,6236 -247,6179 -185,6145 -131,6136 -90,6159 -76,6211 -91,6281 -106,6331 -102,6344 " style="fill: white; stroke: black; stroke-width: 30" />
<polyline points="-37,6244 -49,6275 -59,6289 -58,6289 -49,6277 -26,6245 13,6187 58,6154 96,6145 129,6156 148,6183 154,6229 161,6256 179,6274 217,6269 271,6246 310,6200 327,6161 322,6144 309,6149 274,6190 247,6244 259,6273 296,6286 359,6272 435,6221 519,6124 598,6007 643,5926 631,5906 589,5920 515,6005 467,6105 456,6190 473,6237 520,6279 568,6295 622,6275 " style="fill: white; stroke: black; stroke-width: 30" />
<polyline points="-4065,6069 -4071,6066 -4064,6067 -4053,6069 -4036,6066 -4004,6068 -3965,6061 -3906,6064 -3833,6063 -3759,6061 -3673,6054 -3585,6049 -3502,6041 -3419,6044 -3343,6049 -3272,6056 -3189,6062 -3101,6068 -3014,6075 -2929,6089 -2853,6096 -2767,6106 -2688,6114 -2602,6127 -2524,6138 -2444,6154 -2371,6165 -2287,6175 -2207,6183 -2131,6192 -2045,6202 -1953,6207 -1857,6209 -1750,6211 -1644,6211 -1537,6215 -1423,6216 -1305,6223 -1183,6227 -1069,6235 -950,6237 -822,6238 -706,6241 -600,6253 -482,6255 -362,6259 -219,6250 -87,6247 24,6245 138,6252 250,6260 369,6274 487,6276 598,6281 709,6283 821,6281 924,6281 1011,6289 1095,6295 1163,6302 1219,6310 1257,6322 1273,6327 1275,6329 1277,6328 1277,6328 1279,6328 1280,6333 " style="fill: white; stroke: black; stroke-width: 30" />
<polyline points="-3256,6671 -3277,6667 -3308,6677 -3348,6706 -3390,6753 -3395,6804 -3380,6878 -3337,6946 -3257,6982 -3137,6964 -3043,6888 -2981,6813 -2978,6777 -2997,6745 -3026,6720 -3054,6707 -3064,6707 -3063,6707 -3062,6710 -3062,6709 -3058,6715 -3045,6721 -3013,6736 " style="fill: white; stroke: black; stroke-width: 30" />
<polyline points="-2829,6787 -2836,6785 -2842,6792 -2843,6831 -2849,6891 -2849,6941 -2843,6967 -2839,6983 " style="fill: white; stroke: black; stroke-width: 30" />
<polyline points="-2835,6718 -2873,6676 -2882,6638 -2858,6620 -2819,6611 -2779,6631 -2755,6675 -2775,6712 -2811,6734 -2860,6724 -2883,6695 -2881,6671 -2857,6646 " style="fill: white; stroke: black; stroke-width: 30" />
<polyline points="-2575,6756 -2602,6748 -2621,6745 -2644,6749 -2653,6751 -2660,6752 -2658,6755 -2657,6761 -2658,6780 -2648,6817 -2626,6871 -2604,6908 -2595,6932 -2603,6940 -2617,6949 -2652,6945 -2691,6932 -2703,6922 -2703,6920 -2676,6897 -2619,6850 -2557,6805 -2508,6760 -2486,6737 -2489,6741 -2503,6758 -2517,6812 -2528,6873 -2526,6920 -2504,6935 -2481,6926 -2433,6869 -2394,6818 -2390,6811 -2391,6818 -2393,6859 -2387,6920 -2366,6960 " style="fill: white; stroke: black; stroke-width: 30" />
<polyline points="-2248,6791 -2259,6771 -2252,6753 -2225,6749 -2180,6763 -2164,6802 -2173,6858 -2200,6915 -2248,6953 -2283,6958 -2303,6938 -2311,6905 -2303,6884 -2275,6877 -2218,6880 -2131,6885 -2027,6866 -1942,6833 -1914,6785 -1926,6743 -1961,6714 -1992,6703 -2012,6726 -2037,6777 -2041,6854 -2005,6898 -1955,6935 -1902,6962 " style="fill: white; stroke: black; stroke-width: 30" />
<polyline points="-912,6829 -881,6804 -868,6775 -866,6761 -882,6738 -905,6718 -950,6714 -1026,6742 -1113,6802 -1165,6864 -1172,6898 -1130,6923 -1046,6943 -948,6948 -872,6941 -812,6927 " style="fill: white; stroke: black; stroke-width: 30" />
<polyline points="-755,6792 -749,6789 -726,6793 -702,6816 -683,6859 -689,6910 -709,6958 -751,6999 -787,7017 -818,7002 -843,6958 -844,6919 -820,6890 -770,6883 -718,6912 -678,6958 -655,7006 -649,7040 -641,7050 -629,7030 -620,6974 -593,6930 -577,6904 -565,6903 -556,6920 -552,6968 -548,7027 -532,7056 -497,7052 -448,7015 -411,6986 -392,6980 -396,6984 -402,6998 -410,7023 -416,7045 -413,7042 -400,7035 -390,7025 -390,7025 -389,7024 -392,7027 -381,7024 -359,7021 -325,7008 -285,6990 -225,6958 -179,6919 -171,6905 -169,6903 -169,6903 -168,6905 -167,6908 -167,6913 -166,6918 -159,6924 -151,6935 -132,6951 -127,6967 -127,6984 -135,7010 -139,7033 -137,7047 -133,7048 -135,7045 -128,7043 -116,7034 -91,7020 -50,7004 -24,6999 -15,7002 -5,7002 18,7002 62,6988 86,6975 87,6947 70,6930 30,6937 15,6966 14,7001 44,7026 88,7036 151,7013 212,6952 285,6863 375,6769 442,6717 459,6699 442,6701 406,6715 347,6751 297,6803 282,6863 292,6914 340,6963 389,6994 " style="fill: white; stroke: black; stroke-width: 30" />
<polyline points="-3255,7679 -3260,7660 -3271,7654 -3288,7656 -3306,7686 -3323,7762 -3323,7839 -3314,7896 -3278,7919 -3240,7910 -3201,7878 -3186,7858 -3178,7866 -3170,7879 -3147,7910 -3092,7940 -3027,7949 -2982,7946 -2963,7928 -2952,7888 -2954,7843 -2965,7805 -2987,7787 -2990,7789 -2990,7793 -2987,7797 -2976,7810 -2956,7830 -2942,7854 -2917,7865 -2888,7875 -2857,7873 -2841,7864 -2818,7848 -2800,7827 -2785,7808 -2779,7792 -2791,7766 -2806,7747 -2836,7747 -2877,7775 -2898,7827 -2895,7891 -2869,7918 -2817,7928 -2744,7910 -2651,7838 -2591,7755 " style="fill: white; stroke: black; stroke-width: 30" />
<polyline points="-2577,7620 -2604,7602 -2618,7603 -2639,7625 -2661,7707 -2681,7797 -2669,7838 -2640,7852 -2585,7842 -2538,7831 -2511,7836 -2507,7844 -2503,7860 -2494,7869 " style="fill: white; stroke: black; stroke-width: 30" />
<polyline points="-3419,7754 -3450,7759 -3467,7755 -3459,7756 -3426,7751 -3341,7757 -3196,7765 -2979,7765 -2755,7731 -2550,7711 -2423,7711 -2395,7718 -2396,7720 -2442,7729 -2566,7723 -2746,7736 -2988,7774 -3265,7814 -3468,7868 -3574,7896 -3585,7900 -3492,7891 -3318,7864 -3071,7845 -2802,7821 -2523,7826 -2295,7827 -2144,7834 -2077,7830 -2073,7829 -2082,7818 " style="fill: white; stroke: black; stroke-width: 30" />
<polyline points="-1635,7774 -1634,7751 -1642,7747 -1657,7759 -1675,7790 -1706,7862 -1712,7907 -1690,7938 -1634,7943 -1580,7910 -1556,7879 -1550,7872 -1550,7876 -1545,7896 -1499,7930 -1429,7955 -1369,7953 -1329,7930 -1341,7913 -1352,7876 -1370,7846 -1376,7836 -1379,7835 -1375,7840 -1376,7844 -1369,7850 -1349,7858 " style="fill: white; stroke: black; stroke-width: 30" />
<polyline points="-1243,7897 -1257,7899 -1255,7900 -1246,7902 -1203,7894 -1144,7867 -1089,7834 -1080,7814 -1096,7799 -1150,7791 -1219,7815 -1234,7860 -1223,7903 -1173,7951 -1116,7969 -1054,7974 -1007,7967 -970,7955 " style="fill: white; stroke: black; stroke-width: 30" />
<polyline points="-336,7659 -345,7657 -349,7659 -359,7675 -363,7708 -377,7793 -391,7857 -387,7908 -382,7927 -353,7923 -291,7884 -221,7832 -164,7817 -151,7837 -167,7897 -176,7954 -164,7962 -120,7959 -54,7925 -2,7895 28,7867 40,7834 16,7806 -15,7810 -61,7844 -80,7899 -65,7951 -32,7981 22,7982 87,7951 174,7880 224,7811 239,7768 230,7743 196,7735 158,7754 110,7815 94,7886 117,7945 168,7988 234,7992 285,7969 " style="fill: white; stroke: black; stroke-width: 30" />
<polyline points="403,7817 386,7820 366,7855 340,7935 308,8033 290,8115 288,8147 285,8163 290,8168 293,8162 315,8114 343,8025 374,7916 404,7852 438,7826 460,7844 473,7902 459,7973 424,8018 381,8036 348,8031 330,8001 321,7952 334,7897 361,7844 " style="fill: white; stroke: black; stroke-width: 30" />
<polyline points="1174,7794 1195,7776 1205,7765 1205,7766 1200,7763 1184,7765 1155,7769 1125,7791 1100,7823 1098,7860 1109,7944 1132,8009 1138,8030 1132,8036 1122,8030 1086,8004 1059,7968 1057,7952 1081,7922 1138,7882 1203,7850 1263,7822 1313,7795 1341,7768 1372,7734 1384,7704 1382,7704 1373,7713 1351,7754 1310,7854 1278,7950 1271,8013 1272,8028 1277,8019 1277,7993 1293,7935 1312,7895 1335,7863 1358,7862 1376,7867 1405,7882 1438,7893 1461,7893 1449,7890 1423,7883 1382,7881 1357,7891 1343,7930 1355,7976 1384,8005 1429,8011 1464,7994 1470,7970 1468,7931 1450,7903 1438,7899 1430,7905 1443,7910 1458,7925 1485,7941 1526,7937 1575,7921 1577,7908 1575,7904 1561,7914 1547,7966 1527,8055 1506,8147 1497,8198 1491,8208 1488,8202 1497,8186 1519,8122 1565,8052 1615,7952 1657,7869 1685,7836 1697,7836 1705,7859 1713,7905 1727,7953 1722,8004 1705,8034 1681,8042 1630,8030 1584,7999 1567,7986 1574,7975 1629,7925 " style="fill: white; stroke: black; stroke-width: 30" />
<polyline points="2424,7823 2389,7817 2319,7824 2254,7846 2224,7861 2223,7882 2236,7924 2265,7970 2281,7997 2287,8013 2279,8020 2272,8020 2266,8011 2256,8004 2245,7977 2237,7959 2233,7949 2236,7951 " style="fill: white; stroke: black; stroke-width: 30" />
<polyline points="2419,7934 2390,7935 2381,7935 2386,7934 2407,7917 2437,7888 2466,7871 2490,7865 2527,7868 2546,7895 2533,7931 2520,7952 2520,7962 2532,7957 2570,7944 2606,7943 2616,7947 2613,7952 2615,7954 2622,7954 2656,7944 2675,7939 " style="fill: white; stroke: black; stroke-width: 30" />
<polyline points="2895,7915 2889,7908 2866,7905 2815,7904 2765,7923 2726,7949 2734,7967 2762,7984 2809,7985 2846,7971 2871,7940 2861,7912 2832,7890 2797,7888 2781,7886 2784,7889 2806,7892 2843,7895 " style="fill: white; stroke: black; stroke-width: 30" />
<polyline points="3021,7808 3032,7796 3029,7789 3023,7791 3008,7800 2975,7843 2931,7926 2904,7988 2904,8029 2923,8042 2971,8032 3057,7987 3122,7933 3137,7898 3099,7882 3015,7888 2938,7915 2910,7944 2915,7958 2932,7980 2971,8001 3027,8000 3084,7989 3153,7951 3190,7921 3198,7908 3193,7914 3174,7928 3140,7957 3131,7981 3136,7994 3151,8000 3171,7997 " style="fill: white; stroke: black; stroke-width: 30" />
<polyline points="3346,7721 3318,7717 3308,7714 3307,7717 3309,7726 3317,7768 3327,7837 3338,7906 3334,7955 3339,7978 3341,7982 3334,7979 3313,7975 3305,7968 3302,7962 3320,7955 3372,7933 3418,7928 3441,7933 3448,7944 3458,7968 3469,7981 3481,7986 3517,7973 " style="fill: white; stroke: black; stroke-width: 30" />
<polyline points="3607,7906 3596,7899 3560,7894 3522,7900 3507,7913 3505,7947 3503,8010 3489,8098 3471,8186 3441,8258 3416,8290 3405,8300 3406,8298 3410,8283 3426,8220 3457,8152 3497,8107 3532,8082 " style="fill: white; stroke: black; stroke-width: 30" />
<polyline points="1734,6973 1749,6960 1757,6936 1769,6895 1753,6853 1712,6825 1668,6821 1629,6847 1619,6877 1635,6906 1670,6946 1704,6994 1724,7048 1720,7098 1699,7140 1669,7163 1642,7168 1626,7156 1613,7122 1612,7046 1641,6974 " style="fill: white; stroke: black; stroke-width: 30" />
<polyline points="1932,6756 1940,6750 1942,6746 1931,6752 1916,6768 1878,6825 1853,6885 1869,6937 1901,6967 1937,6985 1961,6992 " style="fill: white; stroke: black; stroke-width: 30" />
<polyline points="2072,6833 2107,6822 2139,6839 2152,6888 2130,6952 2087,7005 2033,7031 1997,7028 1983,7008 1984,6973 1994,6956 2011,6955 2042,6963 2107,6982 2174,6992 " style="fill: white; stroke: black; stroke-width: 30" />
<polyline points="2339,6900 2323,6878 2301,6876 2287,6886 2283,6902 2278,6948 2278,6986 2255,7017 2235,7028 2210,7030 2189,7023 2196,7015 2212,6996 2251,6971 2314,6940 2378,6919 2435,6909 2457,6913 2450,6927 2437,6955 2415,6990 2401,7014 2400,7023 2397,7024 2402,7021 2406,7019 2404,7017 2404,7017 2406,7017 2410,7016 2412,7013 2414,7013 2411,7013 2413,7015 2412,7013 2410,7016 2410,7015 2412,7016 2409,7016 2407,7017 2409,7017 2411,7018 2405,7020 2404,7022 2402,7024 2398,7026 2396,7026 2396,7027 2393,7025 2389,7024 2388,7016 2384,7007 2377,7002 2375,6993 2372,6992 2383,7000 " style="fill: white; stroke: black; stroke-width: 30" />
<polyline points="2549,6966 2528,6951 2531,6947 2566,6946 2647,6954 2712,6963 2735,6968 2746,6972 " style="fill: white; stroke: black; stroke-width: 30" />
<polyline points="2718,6916 2697,6901 2682,6906 2681,6914 2678,6938 2664,6992 2645,7061 " style="fill: white; stroke: black; stroke-width: 30" />
<polyline points="3033,6865 3030,6861 3036,6858 3072,6858 3166,6850 3263,6844 3325,6830 3320,6823 " style="fill: white; stroke: black; stroke-width: 30" />
<polyline points="3037,6860 2994,6885 2955,6937 2958,6977 3001,7016 3072,7048 3130,7066 3175,7076 3206,7072 3220,7055 3195,7026 " style="fill: white; stroke: black; stroke-width: 30" />
<polyline points="3010,6886 3032,6884 3087,6889 3165,6894 3246,6905 3296,6923 3312,6942 3316,6966 3309,6983 3301,6991 3300,6993 3303,6995 3305,6997 3312,6997 " style="fill: white; stroke: black; stroke-width: 30" />
<polyline points="3417,6776 3399,6765 3400,6757 3403,6755 3408,6752 3422,6751 3438,6748 3448,6752 3463,6779 " style="fill: white; stroke: black; stroke-width: 30" />
<polyline points="3506,6984 3466,6969 3443,6952 3435,6953 3437,6960 3448,6996 3470,7054 3482,7099 3482,7112 3469,7117 3444,7114 3393,7098 3360,7074 3352,7036 3372,7005 " style="fill: white; stroke: black; stroke-width: 30" />
<polyline points="3480,6955 3496,6944 3514,6939 3552,6931 3581,6929 3596,6934 3612,6940 3627,6955 " style="fill: white; stroke: black; stroke-width: 30" />
<polyline points="-3234,8358 -3242,8357 -3243,8356 -3249,8355 -3250,8352 -3238,8353 " style="fill: white; stroke: black; stroke-width: 30" />
<polyline points="-3314,8353 -3328,8328 -3356,8325 -3386,8340 -3423,8380 -3447,8455 -3438,8534 -3397,8583 -3358,8603 -3316,8597 -3296,8576 -3292,8574 -3291,8578 -3281,8594 -3235,8634 -3189,8653 -3115,8656 -3068,8639 -3053,8607 -3052,8547 -3059,8486 -3069,8436 -3083,8408 -3084,8405 -3082,8410 -3081,8422 -3061,8458 -3025,8502 " style="fill: white; stroke: black; stroke-width: 30" />
<polyline points="-2875,8519 -2867,8512 -2864,8505 -2873,8492 -2893,8479 -2937,8478 -2989,8493 -2995,8538 -2975,8597 -2926,8636 -2871,8641 -2821,8622 -2813,8591 -2833,8559 -2860,8528 -2875,8526 -2879,8532 -2860,8548 -2826,8573 -2788,8588 -2732,8585 -2695,8562 -2693,8536 -2701,8515 -2721,8499 -2729,8502 -2732,8511 -2738,8544 -2723,8578 -2698,8608 -2655,8624 -2612,8623 -2594,8606 -2594,8583 -2598,8566 -2605,8559 -2607,8562 -2594,8582 -2579,8606 -2537,8649 -2495,8674 -2455,8683 -2431,8662 -2428,8620 -2435,8559 -2442,8517 -2451,8505 -2449,8510 -2443,8515 -2443,8522 -2431,8538 " style="fill: white; stroke: black; stroke-width: 30" />
<polyline points="-1660,8400 -1662,8380 -1664,8377 -1680,8395 -1698,8468 -1724,8577 -1725,8643 -1717,8655 -1681,8657 -1622,8629 -1577,8608 -1556,8612 -1545,8637 -1531,8677 -1509,8700 -1458,8695 -1387,8657 -1349,8620 -1339,8596 -1361,8561 -1382,8539 -1414,8547 -1427,8588 -1426,8651 -1404,8696 -1345,8727 -1289,8738 -1242,8738 " style="fill: white; stroke: black; stroke-width: 30" />
<polyline points="-689,8409 -706,8393 -708,8397 -732,8415 -763,8478 -788,8574 -788,8654 -766,8700 -711,8718 -652,8695 -592,8644 -554,8595 -550,8579 -547,8585 -550,8599 -558,8627 -552,8669 -559,8717 -546,8747 -544,8753 " style="fill: white; stroke: black; stroke-width: 30" />
<polyline points="-576,8408 -593,8387 -578,8379 -531,8398 -471,8446 -446,8501 -459,8530 -492,8532 -536,8510 -555,8473 -540,8417 -520,8399 -499,8397 " style="fill: white; stroke: black; stroke-width: 30" />
<polyline points="-281,8595 -313,8576 -346,8558 -365,8563 -364,8582 -351,8630 -336,8682 -340,8723 -360,8742 -390,8743 -413,8729 -412,8714 -400,8697 -350,8653 -259,8580 -140,8476 -61,8395 -49,8375 -75,8393 -147,8508 -215,8637 -243,8718 -239,8729 -235,8706 -220,8644 -208,8617 -174,8620 -120,8642 -69,8656 -36,8655 -38,8632 -70,8614 -95,8623 -97,8662 -64,8697 -20,8712 39,8690 65,8674 70,8672 80,8693 102,8725 122,8749 147,8754 167,8745 " style="fill: white; stroke: black; stroke-width: 30" />
<polyline points="351,8607 311,8589 305,8589 309,8622 327,8667 330,8711 307,8739 293,8745 287,8736 279,8724 286,8716 " style="fill: white; stroke: black; stroke-width: 30" />
<polyline points="921,8461 910,8455 896,8468 869,8533 826,8647 828,8730 854,8771 871,8773 886,8721 875,8639 856,8586 859,8579 864,8579 863,8585 919,8612 990,8640 1071,8645 1124,8626 1123,8604 1083,8591 1010,8598 965,8623 947,8647 976,8684 1045,8729 1124,8750 1168,8746 1163,8734 1144,8680 1098,8634 1082,8614 1085,8611 1097,8612 1114,8629 " style="fill: white; stroke: black; stroke-width: 30" />
<polyline points="1591,8600 1573,8594 1549,8606 1526,8658 1522,8718 1539,8765 1568,8785 1619,8769 1696,8704 1750,8646 1746,8644 1739,8656 1712,8704 1709,8752 1725,8790 1761,8802 " style="fill: white; stroke: black; stroke-width: 30" />
<polyline points="2004,8579 1970,8573 1938,8579 1935,8598 1932,8634 1939,8691 1944,8744 1934,8773 1923,8780 1905,8781 1906,8775 1905,8777 1915,8777 1921,8781 1926,8786 " style="fill: white; stroke: black; stroke-width: 30" />
<polyline points="-3221,8923 -3237,8922 -3244,8919 -3217,8919 -3157,8919 -3090,8933 -3020,8950 -2995,8952 " style="fill: white; stroke: black; stroke-width: 30" />
<polyline points="-3080,8885 -3105,8890 -3138,8927 -3173,9017 -3199,9142 -3184,9217 -3157,9243 -3088,9262 -3044,9264 -2990,9269 -2948,9261 -2919,9247 -2884,9224 " style="fill: white; stroke: black; stroke-width: 30" />
<polyline points="-2877,9148 -2890,9146 -2882,9151 -2851,9174 -2823,9194 -2810,9215 -2810,9223 -2813,9227 -2822,9231 -2845,9239 -2848,9244 -2867,9246 -2860,9248 -2860,9249 -2859,9248 -2864,9250 " style="fill: white; stroke: black; stroke-width: 30" />
<polyline points="-2796,9216 -2794,9222 -2802,9223 -2817,9231 -2847,9248 -2873,9267 -2915,9298 -2928,9336 -2919,9345 -2872,9344 " style="fill: white; stroke: black; stroke-width: 30" />
<polyline points="-2321,9378 -2338,9385 -2343,9387 -2339,9381 -2329,9354 -2304,9296 -2293,9222 -2286,9162 -2275,9142 -2293,9137 -2292,9138 -2294,9147 -2311,9162 -2311,9193 -2320,9246 -2307,9302 -2285,9332 -2216,9350 -2128,9330 -2052,9284 -1995,9221 -1998,9192 -2023,9168 -2046,9154 -2053,9152 -2045,9158 -2031,9161 -2021,9174 " style="fill: white; stroke: black; stroke-width: 30" />
<polyline points="-1770,9317 -1771,9312 -1784,9299 -1817,9276 -1852,9256 -1910,9271 -1945,9305 -1942,9365 -1891,9402 -1827,9410 -1776,9376 -1754,9341 -1761,9305 -1791,9287 -1830,9272 -1832,9271 -1821,9270 " style="fill: white; stroke: black; stroke-width: 30" />
<polyline points="-956,9282 -960,9266 -967,9262 -962,9269 -972,9309 -957,9378 -965,9461 -977,9528 -1000,9587 -1027,9614 -1040,9618 -1046,9607 -1065,9560 -1089,9493 -1100,9444 -1067,9412 " style="fill: white; stroke: black; stroke-width: 30" />
<polyline points="-967,9405 -974,9406 -965,9402 -940,9387 -893,9352 -834,9313 -797,9277 -781,9270 -783,9271 -767,9279 -762,9283 -762,9284 -765,9288 -780,9298 -792,9313 -801,9337 -806,9363 -799,9385 -776,9390 -737,9386 -678,9351 -634,9321 -617,9318 -627,9326 -641,9356 -635,9399 -619,9423 -583,9430 " style="fill: white; stroke: black; stroke-width: 30" />
<polyline points="-392,9350 -395,9337 -393,9325 -410,9320 -428,9324 -448,9341 -446,9373 -444,9400 -441,9425 -451,9442 -477,9452 -500,9449 -531,9430 -523,9407 -463,9345 -379,9286 -301,9220 -243,9171 -224,9156 -231,9168 -268,9237 -304,9330 -333,9404 -354,9433 -352,9426 -353,9408 -352,9386 -336,9373 -320,9365 -281,9367 -238,9370 " style="fill: white; stroke: black; stroke-width: 30" />
<polyline points="-988,9156 -999,9148 -988,9138 -942,9117 -883,9108 -858,9126 -872,9159 -914,9197 -969,9215 -986,9208 -995,9193 -996,9164 -989,9134 -949,9105 " style="fill: white; stroke: black; stroke-width: 30" />
<polyline points="479,9398 493,9392 504,9389 502,9385 504,9371 503,9340 479,9317 441,9305 397,9313 358,9354 333,9415 349,9462 406,9480 489,9455 582,9381 629,9315 636,9280 619,9270 610,9270 611,9277 610,9289 609,9339 628,9378 638,9417 668,9444 722,9460 " style="fill: white; stroke: black; stroke-width: 30" />
<polyline points="832,9431 850,9390 835,9346 809,9310 772,9297 739,9310 715,9345 716,9411 740,9456 766,9488 793,9490 818,9469 831,9423 839,9373 813,9338 789,9330 782,9335 796,9347 821,9390 857,9439 913,9470 956,9483 1001,9464 1017,9435 1022,9397 1028,9383 1028,9383 1039,9392 1050,9410 1066,9435 1075,9451 1093,9468 1111,9477 1125,9471 " style="fill: white; stroke: black; stroke-width: 30" />
<polyline points="1391,9121 1365,9123 1338,9184 1295,9302 1260,9411 1244,9470 1239,9477 1242,9458 1253,9411 1270,9375 1284,9362 1314,9363 1360,9371 1401,9386 " style="fill: white; stroke: black; stroke-width: 30" />
<polyline points="1800,9211 1793,9205 1802,9202 1792,9218 1764,9256 1738,9307 1710,9375 1697,9429 1690,9467 1690,9485 1697,9481 1716,9461 1773,9405 1843,9369 1882,9369 1898,9389 1865,9423 1822,9465 1763,9482 1736,9470 1723,9437 1736,9407 1771,9375 1834,9362 1885,9365 1942,9376 1990,9398 1988,9434 1974,9467 1948,9500 1946,9500 1964,9491 1987,9447 2033,9368 2082,9262 2091,9215 2078,9210 2066,9212 2066,9212 2061,9216 2068,9215 2069,9221 2073,9227 2098,9248 " style="fill: white; stroke: black; stroke-width: 30" />
<polyline points="2277,9164 2267,9163 2251,9184 2229,9250 2180,9343 2142,9420 2122,9460 2114,9471 2112,9466 2123,9450 2140,9430 2157,9410 2167,9397 2178,9393 2180,9395 2217,9405 2255,9416 2309,9416 2329,9404 2341,9389 2340,9386 2350,9385 2340,9385 2345,9382 2346,9380 2355,9382 2386,9385 2418,9385 2414,9380 2409,9358 2383,9338 2353,9330 2335,9339 2318,9367 2320,9409 2334,9458 2377,9503 2431,9550 2498,9576 " style="fill: white; stroke: black; stroke-width: 30" />
<polyline points="3035,9238 3023,9253 2985,9297 2913,9373 2852,9454 2832,9517 2848,9550 2910,9555 3007,9499 " style="fill: white; stroke: black; stroke-width: 30" />
<polyline points="3146,9392 3155,9375 3124,9360 3056,9355 2967,9364 2910,9383 2864,9418 2864,9453 2903,9503 2973,9559 3059,9572 3126,9556 3170,9517 3196,9480 3195,9465 3182,9469 3174,9475 3152,9504 3136,9539 3138,9566 3144,9578 3177,9564 " style="fill: white; stroke: black; stroke-width: 30" />
<polyline points="3297,9327 3284,9295 3265,9281 3244,9280 3256,9279 3277,9298 " style="fill: white; stroke: black; stroke-width: 30" />
<polyline points="3444,9510 3408,9500 3344,9487 3286,9484 3241,9502 3238,9530 3279,9558 3329,9580 3389,9573 3445,9543 3486,9489 3502,9442 3492,9421 3466,9416 3456,9416 3453,9440 3438,9494 3447,9538 3455,9577 3476,9589 3492,9602 3513,9606 3511,9605 3514,9592 " style="fill: white; stroke: black; stroke-width: 30" />
<polyline points="3718,9485 3694,9470 3663,9467 3643,9478 3638,9507 3645,9567 3652,9614 3629,9647 3609,9659 3587,9661 3571,9653 3576,9649 3598,9637 " style="fill: white; stroke: black; stroke-width: 30" />
<polyline points="-3249,9816 -3254,9811 -3270,9814 -3284,9825 -3269,9879 -3259,10003 -3264,10144 -3270,10253 -3287,10315 -3310,10333 -3310,10332 -3331,10305 -3367,10215 -3401,10112 -3407,10032 -3387,9963 " style="fill: white; stroke: black; stroke-width: 30" />
<polyline points="-3301,10045 -3295,10046 -3266,10031 -3212,9992 -3128,9923 -3049,9862 -2978,9824 -2954,9820 " style="fill: white; stroke: black; stroke-width: 30" />
<polyline points="-2934,9910 -2926,9897 -2912,9877 -2902,9865 -2891,9856 -2893,9857 -2904,9858 -2926,9862 -2934,9874 -2945,9881 -2954,9892 -2985,9918 -3000,9941 -3029,9972 -3039,9993 -3030,10004 -2989,10011 -2901,10001 -2829,9955 -2813,9908 -2820,9886 -2837,9871 -2855,9870 -2884,9882 -2891,9893 -2875,9904 -2846,9918 -2807,9929 -2767,9922 -2726,9911 -2680,9901 -2665,9891 -2663,9884 -2671,9881 -2674,9878 -2687,9879 -2693,9887 -2711,9914 -2724,9957 -2713,9995 -2678,10011 -2630,10011 -2591,9988 -2569,9976 -2561,9978 -2561,9986 -2564,9998 -2551,10028 -2523,10042 " style="fill: white; stroke: black; stroke-width: 30" />
<polyline points="-1730,9903 -1730,9880 -1735,9878 -1739,9888 -1752,9929 -1781,10040 -1796,10125 -1786,10183 -1782,10187 -1779,10178 -1767,10120 -1742,10011 -1711,9909 -1652,9846 -1586,9818 -1555,9829 -1566,9867 -1641,9943 -1731,10011 -1808,10058 -1802,10069 -1789,10085 -1721,10122 -1640,10151 -1565,10129 " style="fill: white; stroke: black; stroke-width: 30" />
<polyline points="-1444,9987 -1470,9987 -1469,9983 -1455,9982 -1433,9989 -1407,10012 -1394,10045 -1401,10084 -1425,10130 -1466,10167 -1502,10173 -1510,10158 -1513,10125 -1485,10094 -1443,10075 -1388,10089 -1352,10115 -1278,10143 -1221,10150 -1199,10144 -1194,10148 -1214,10167 -1256,10193 -1285,10221 -1294,10243 -1276,10262 -1273,10269 -1282,10280 -1290,10276 -1278,10274 -1274,10273 -1277,10271 -1273,10265 -1267,10237 -1263,10184 -1240,10111 -1217,10047 -1192,10018 -1168,10010 -1136,10029 -1131,10060 -1125,10095 -1132,10105 -1133,10114 -1173,10116 -1214,10103 -1219,10093 -1224,10090 -1199,10092 -1169,10104 -1129,10109 -1104,10115 -1030,10115 -966,10109 -883,10096 -832,10080 -817,10063 -829,10047 -843,10032 -860,10028 -890,10038 -912,10071 -906,10107 -881,10134 -843,10147 -785,10148 -726,10133 " style="fill: white; stroke: black; stroke-width: 30" />
<polyline points="-543,10060 -552,10048 -574,10039 -611,10041 -642,10055 -685,10072 -711,10082 -717,10090 -716,10096 -715,10115 -709,10132 -693,10132 -636,10106 -540,10038 -476,9966 -447,9910 -451,9879 -447,9873 -449,9878 -463,9897 -479,9947 -501,10015 -509,10070 -498,10114 -479,10127 " style="fill: white; stroke: black; stroke-width: 30" />
<polyline points="285,10069 292,10052 283,10056 274,10075 235,10137 187,10228 176,10272 188,10282 " style="fill: white; stroke: black; stroke-width: 30" />
<polyline points="885,10078 895,10061 900,10026 889,9990 875,9962 813,9946 733,9967 653,10029 619,10096 612,10170 646,10224 713,10263 791,10278 839,10266 847,10248 823,10214 " style="fill: white; stroke: black; stroke-width: 30" />
<polyline points="709,10138 707,10137 712,10136 759,10140 813,10157 842,10184 847,10201 837,10217 816,10250 814,10274 " style="fill: white; stroke: black; stroke-width: 30" />
<polyline points="969,10172 964,10159 987,10129 1034,10102 1065,10094 1090,10113 1124,10143 1115,10181 1098,10223 1051,10265 1009,10279 981,10273 962,10244 951,10202 961,10168 989,10134 1061,10092 " style="fill: white; stroke: black; stroke-width: 30" />
<polyline points="1238,10199 1225,10184 1230,10163 1244,10130 1302,10062 1387,10013 1423,10007 1437,10038 1427,10116 1392,10196 1409,10230 1436,10241 1492,10218 1556,10178 1604,10136 1624,10104 1630,10087 1624,10087 1602,10090 1563,10103 1547,10118 1555,10142 1579,10171 1633,10197 1692,10205 1747,10207 1776,10214 " style="fill: white; stroke: black; stroke-width: 30" />
<polyline points="-2079,10772 -2076,10754 -2075,10762 -2105,10797 -2131,10888 -2168,10988 -2155,11055 -2147,11074 -2139,11068 -2117,11030 -2110,10936 -2119,10826 -2117,10737 -2144,10709 -2144,10709 -2137,10718 -2160,10723 -2154,10782 -2134,10859 -2117,10904 -2084,10927 -2029,10933 -1970,10916 -1915,10886 -1888,10851 -1876,10822 -1867,10805 -1869,10805 -1867,10805 -1876,10809 -1880,10820 -1907,10879 -1918,10940 -1922,10990 -1894,11014 -1854,11023 -1805,11013 -1740,10997 -1717,10974 -1709,10948 -1709,10921 -1735,10899 -1752,10886 -1775,10897 -1796,10933 -1802,10997 -1784,11049 -1734,11070 -1677,11069 -1609,11030 -1545,10966 -1513,10893 -1472,10836 -1455,10803 -1470,10790 -1489,10792 -1509,10803 -1535,10822 -1539,10879 -1544,10976 -1551,11061 -1542,11116 -1532,11127 -1528,11127 -1543,11095 -1553,11028 -1567,10990 -1580,10973 -1579,10968 -1564,10971 -1547,10969 -1493,10979 -1441,10990 -1401,11003 " style="fill: white; stroke: black; stroke-width: 30" />
<polyline points="-1339,10932 -1346,10907 -1345,10896 -1323,10890 -1278,10898 -1252,10931 -1224,10979 -1233,11044 -1254,11100 -1301,11137 -1338,11135 -1331,11112 -1340,11083 -1332,11072 -1295,11065 -1265,11079 -1233,11097 -1196,11116 -1167,11122 " style="fill: white; stroke: black; stroke-width: 30" />
<polyline points="-432,10945 -464,10951 -495,10969 -526,11001 -534,11041 -501,11103 -434,11154 -378,11168 -347,11151 -340,11130 -355,11126 -351,11127 -343,11133 -307,11149 -234,11156 -177,11153 -170,11149 -179,11128 -197,11100 -211,11072 -213,11058 -221,11059 -217,11062 -215,11070 -197,11079 -170,11100 -105,11094 " style="fill: white; stroke: black; stroke-width: 30" />
<polyline points="8,11076 48,11064 45,11051 37,11042 6,11026 -37,11022 -94,11036 -115,11065 -109,11105 -57,11142 14,11149 63,11127 64,11101 45,11071 -4,11054 -13,11062 -13,11074 33,11099 94,11089 166,11035 226,10924 239,10846 208,10799 171,10790 126,10811 106,10886 120,10982 162,11048 213,11084 266,11099 299,11107 304,11116 316,11115 337,11106 381,11092 " style="fill: white; stroke: black; stroke-width: 30" />
<polyline points="579,10832 555,10839 520,10881 501,10958 483,11034 501,11067 517,11089 543,11100 568,11101 " style="fill: white; stroke: black; stroke-width: 30" />
<polyline points="1341,10969 1320,10974 1306,11013 1286,11102 1279,11188 1288,11234 1291,11237 1276,11223 1283,11147 1287,11039 1303,10921 1338,10862 1375,10852 1409,10889 1441,10939 1426,10989 1399,11016 1327,11030 1275,11006 1247,10978 1246,10954 1266,10940 1285,10923 " style="fill: white; stroke: black; stroke-width: 30" />
<polyline points="1546,10999 1540,10983 1567,10965 1614,10961 1651,10979 1666,11022 1661,11063 1634,11115 1595,11158 1555,11185 1518,11187 1485,11163 1468,11113 1488,11092 1506,11077 1567,11069 1629,11081 1687,11096 1738,11103 1779,11097 1803,11071 1823,11039 1829,11016 1822,11014 1824,11015 1822,11016 1820,11019 1815,11024 1818,11033 1804,11081 1790,11141 1801,11197 1807,11220 1804,11213 " style="fill: white; stroke: black; stroke-width: 30" />
<polyline points="1833,10914 1812,10888 1812,10864 1818,10845 1856,10834 1885,10851 1892,10882 1894,10915 1876,10928 1856,10933 1818,10926 1800,10907 1791,10878 1799,10858 1827,10848 " style="fill: white; stroke: black; stroke-width: 30" />
<polyline points="1882,11156 1879,11154 1889,11147 1935,11119 1961,11093 1985,11080 2002,11078 2002,11088 2004,11099 1996,11119 1989,11142 1988,11160 " style="fill: white; stroke: black; stroke-width: 30" />
<polyline points="-2088,11407 -2096,11400 -2109,11398 -2107,11401 -2092,11403 -2039,11408 -1985,11408 -1902,11408 -1824,11413 " style="fill: white; stroke: black; stroke-width: 30" />
<polyline points="-1950,11427 -1972,11439 -2010,11503 -2038,11625 -2062,11712 -2063,11756 -2020,11778 -1972,11794 -1926,11798 -1885,11800 -1860,11802 -1846,11797 -1843,11798 -1830,11803 -1828,11806 -1814,11799 " style="fill: white; stroke: black; stroke-width: 30" />
<polyline points="-1780,11666 -1759,11682 -1732,11698 -1683,11718 -1644,11732 -1635,11754 -1657,11781 -1680,11812 -1725,11837 -1752,11848 -1741,11855 -1734,11852 " style="fill: white; stroke: black; stroke-width: 30" />
<polyline points="-1228,11628 -1235,11626 -1252,11625 -1254,11639 -1278,11678 -1293,11771 -1309,11837 -1292,11871 -1265,11870 " style="fill: white; stroke: black; stroke-width: 30" />
<polyline points="-1364,11589 -1369,11568 -1360,11549 -1324,11524 -1249,11510 -1156,11551 -1075,11630 -1033,11710 -1065,11765 -1107,11810 -1188,11830 -1257,11822 -1300,11796 -1304,11768 -1279,11747 -1232,11730 -1182,11726 -1125,11741 -1053,11762 -962,11772 -880,11756 -838,11725 -842,11694 -885,11668 -962,11660 -1004,11690 -1000,11719 -950,11784 -881,11822 -810,11846 -761,11846 " style="fill: white; stroke: black; stroke-width: 30" />
<polyline points="-644,11757 -634,11744 -638,11722 -661,11706 -704,11684 -769,11687 -811,11717 -806,11745 -786,11782 -743,11808 -703,11808 -678,11800 -677,11790 -677,11784 -676,11779 -683,11780 -683,11778 -690,11778 -687,11777 -687,11777 -701,11777 -696,11779 -685,11780 -685,11782 -692,11785 -697,11787 -695,11792 -667,11812 -641,11837 -579,11840 " style="fill: white; stroke: black; stroke-width: 30" />
<polyline points="-424,11713 -448,11705 -448,11698 -470,11694 -497,11697 -529,11722 -542,11763 -531,11819 -484,11867 -444,11892 -363,11872 -303,11818 " style="fill: white; stroke: black; stroke-width: 30" />
<polyline points="-130,11507 -157,11522 -210,11571 -246,11655 -284,11766 -288,11855 -298,11890 -296,11884 -293,11850 -294,11813 -283,11796 -256,11787 -216,11784 -169,11784 -135,11776 -129,11777 -140,11786 -149,11806 -177,11851 -170,11885 -168,11894 -157,11885 -134,11836 -104,11757 -106,11687 -121,11647 -136,11622 -134,11615 -142,11613 -138,11614 -118,11604 " style="fill: white; stroke: black; stroke-width: 30" />
<polyline points="15,11677 15,11680 -2,11687 -13,11700 -42,11732 -67,11774 -38,11823 -9,11857 55,11870 116,11847 133,11827 140,11812 133,11785 128,11760 121,11742 112,11726 112,11721 108,11723 112,11725 121,11728 " style="fill: white; stroke: black; stroke-width: 30" />
<polyline points="271,11708 273,11701 286,11689 321,11681 363,11684 404,11714 421,11764 401,11822 362,11877 301,11920 256,11941 258,11935 249,11902 257,11861 285,11829 316,11814 378,11815 466,11820 565,11796 641,11752 673,11688 668,11639 638,11623 604,11634 580,11694 558,11797 551,11872 559,11910 557,11905 558,11887 570,11851 611,11813 639,11796 679,11788 685,11785 678,11782 675,11767 654,11752 632,11750 643,11750 641,11756 664,11773 681,11786 711,11801 751,11804 771,11794 765,11779 749,11766 737,11762 716,11775 725,11812 730,11863 785,11913 861,11969 962,12008 " style="fill: white; stroke: black; stroke-width: 30" />
<polyline points="1649,11656 1624,11656 1598,11680 1567,11775 1526,11901 1506,11978 1492,12015 1490,12020 1496,12011 1500,11987 1533,11916 1554,11831 1582,11731 1600,11649 1606,11625 1596,11620 1605,11618 1610,11622 1617,11620 1608,11622 1612,11618 1603,11619 1616,11615 1605,11615 1606,11612 1595,11613 1597,11612 1589,11614 1602,11610 1586,11613 1582,11612 1573,11614 1577,11612 1577,11612 1573,11612 1570,11612 1592,11607 1638,11614 1678,11642 1709,11685 1719,11719 1671,11754 1607,11783 1543,11799 1505,11786 1471,11773 1473,11771 1505,11767 1587,11756 " style="fill: white; stroke: black; stroke-width: 30" />
<polyline points="1847,11855 1844,11835 1865,11807 1917,11785 1962,11780 2016,11796 2018,11839 2010,11898 1972,11951 1936,11992 1891,12020 1872,12018 1857,11997 1843,11951 1870,11898 1915,11863 1954,11857 1986,11881 2003,11912 2033,11942 2059,11958 2089,11963 2091,11963 2091,11962 2101,11954 2093,11949 2104,11940 2109,11933 2099,11927 2121,11920 2128,11907 2140,11896 2145,11894 2139,11898 2137,11902 2126,11921 2108,11952 2100,11987 2091,12031 2094,12066 2112,12071 " style="fill: white; stroke: black; stroke-width: 30" />
<polyline points="2177,11725 2171,11663 2168,11625 2182,11613 2226,11613 2259,11639 2266,11664 2258,11696 2228,11709 2204,11720 2184,11712 2182,11696 2202,11655 2201,11625 2218,11631 " style="fill: white; stroke: black; stroke-width: 30" />
<polyline points="2312,12032 2267,12043 2238,12032 2234,12021 2248,11995 2280,11961 2309,11940 2342,11939 2337,11950 2336,11967 2332,12008 2317,12055 " style="fill: white; stroke: black; stroke-width: 30" />
<polyline points="2806,11109 2817,11098 2863,11087 2936,11088 2998,11084 3037,11083 3059,11080 3071,11079 3058,11085 3025,11098 2977,11112 2936,11130 2874,11151 2810,11174 2752,11190 2706,11208 2696,11213 2701,11214 2731,11224 2803,11239 2875,11254 2946,11271 3004,11274 3022,11282 3024,11281 3012,11287 2980,11299 2929,11323 2849,11350 2792,11374 2740,11400 2721,11421 2714,11429 2725,11437 2742,11437 2797,11441 2894,11436 2998,11433 3064,11431 3094,11426 3093,11424 3091,11424 3084,11425 3091,11427 3101,11429 3106,11436 " style="fill: white; stroke: black; stroke-width: 30" />
<polyline points="3250,11149 3255,11110 3253,11093 3242,11095 3241,11125 3224,11198 3189,11278 3184,11345 3181,11396 3197,11421 3202,11429 3222,11413 3240,11368 3245,11299 3247,11213 3262,11142 3247,11115 3245,11117 3244,11121 3235,11154 3219,11223 3219,11290 3250,11333 3295,11347 3349,11326 3418,11274 3458,11215 3481,11178 3481,11178 3471,11186 3459,11200 3433,11242 3409,11284 3382,11333 3368,11382 3384,11438 3412,11484 " style="fill: white; stroke: black; stroke-width: 30" />
<polyline points="3536,11415 3520,11387 3516,11373 3519,11366 3533,11363 3565,11364 3626,11354 3662,11343 3687,11336 3688,11340 3676,11348 3650,11370 " style="fill: white; stroke: black; stroke-width: 30" />
<polyline points="3602,11357 3564,11331 3534,11311 3532,11298 3545,11291 3595,11289 3671,11287 3733,11288 3746,11296 " style="fill: white; stroke: black; stroke-width: 30" />
<polyline points="3835,11395 3815,11377 3818,11350 3846,11319 3900,11281 3977,11256 4072,11246 4126,11269 4124,11313 4103,11362 4027,11414 3944,11447 3866,11449 3808,11426 3791,11381 3794,11314 3867,11241 3955,11214 " style="fill: white; stroke: black; stroke-width: 30" />
<polyline points="-1173,12151 -1187,12149 -1187,12145 -1174,12139 -1155,12131 -1122,12129 -1081,12133 -1015,12140 -944,12128 -888,12115 -876,12108 -881,12115 " style="fill: white; stroke: black; stroke-width: 30" />
<polyline points="-1057,12171 -1063,12160 -1065,12162 -1056,12166 -1071,12176 -1069,12204 -1086,12264 -1107,12348 -1107,12400 -1101,12438 -1091,12459 -1055,12481 -977,12486 -886,12482 -805,12474 -727,12469 -717,12465 -732,12466 -734,12466 -734,12469 -744,12469 -727,12468 -734,12466 -725,12466 -729,12465 -736,12467 -732,12467 -734,12469 -741,12464 " style="fill: white; stroke: black; stroke-width: 30" />
<polyline points="-734,12424 -745,12411 -735,12402 -732,12395 -715,12390 -660,12396 -658,12407 -644,12419 -640,12424 -650,12434 -670,12453 -683,12476 -717,12498 -731,12504 -750,12503 -748,12502 -741,12500 -736,12498 -726,12493 " style="fill: white; stroke: black; stroke-width: 30" />
<polyline points="-4624,11851 -4630,11858 -4647,11861 -4663,11886 -4640,11972 -4616,12061 -4619,12099 -4620,12103 -4616,12085 -4620,12020 -4635,11908 -4655,11824 -4636,11797 -4664,11770 -4609,11789 -4589,11817 -4569,11850 -4579,11868 -4594,11887 -4638,11900 -4664,11889 -4662,11877 -4666,11852 -4642,11827 " style="fill: white; stroke: black; stroke-width: 30" />
<polyline points="-4493,11938 -4524,11957 -4518,11990 -4530,12001 -4532,11998 -4525,11996 -4526,11982 -4514,11951 -4510,11910 -4496,11889 -4506,11872 -4511,11871 -4516,11876 -4514,11908 -4497,11936 -4462,11957 -4451,11942 -4421,11927 -4415,11904 -4423,11882 -4427,11871 -4452,11879 -4482,11901 -4480,11948 -4476,11988 -4445,12014 -4382,12031 " style="fill: white; stroke: black; stroke-width: 30" />
<polyline points="-4341,11849 -4373,11893 -4393,11971 -4386,12072 -4360,12144 -4355,12160 -4354,12151 -4373,12097 -4381,11990 -4360,11870 -4326,11813 -4322,11795 -4302,11814 -4309,11857 -4305,11912 -4330,11930 -4355,11939 -4368,11940 -4391,11928 -4390,11917 -4367,11914 -4357,11877 " style="fill: white; stroke: black; stroke-width: 30" />
<polyline points="-4199,11854 -4207,11855 -4216,11850 -4202,11857 -4192,11879 -4191,11915 -4211,11974 -4233,12029 -4243,12051 -4243,12050 -4237,12026 -4246,11989 -4235,11950 -4216,11933 -4205,11933 -4179,11958 -4162,11987 -4136,12011 -4105,12014 -4081,12006 -4052,11989 -4045,11961 -4041,11918 -4043,11863 -4042,11835 -4039,11834 -4025,11847 -4037,11876 -4011,11914 -3992,11946 -3964,11955 -3921,11953 -3887,11945 -3893,11930 -3893,11899 -3913,11879 -3935,11884 -3944,11902 -3926,11961 -3904,11996 -3883,12012 -3845,12009 -3816,11990 " style="fill: white; stroke: black; stroke-width: 30" />
<polyline points="-3734,11878 -3748,11866 -3762,11867 -3802,11872 -3820,11905 -3828,11965 -3816,12025 -3788,12051 -3767,12042 -3731,11985 -3696,11888 -3693,11803 -3696,11771 -3714,11762 -3722,11774 -3734,11846 -3717,11949 -3727,12022 -3690,12056 -3683,12056 " style="fill: white; stroke: black; stroke-width: 30" />
<polyline points="-4648,12236 -4634,12222 -4640,12222 -4667,12242 -4728,12276 -4744,12311 -4751,12336 -4709,12384 -4688,12427 -4668,12463 -4669,12482 -4691,12496 -4695,12506 -4720,12496 -4722,12487 -4725,12479 -4738,12453 " style="fill: white; stroke: black; stroke-width: 30" />
<polyline points="-4448,12355 -4460,12350 -4493,12341 -4542,12351 -4572,12388 -4593,12421 -4572,12458 -4547,12466 -4477,12460 -4426,12440 -4408,12414 -4394,12397 -4426,12378 -4413,12387 -4406,12391 -4403,12392 -4405,12389 -4397,12398 -4396,12404 -4398,12401 -4387,12394 -4371,12372 -4367,12345 -4337,12352 -4339,12350 -4310,12362 -4293,12370 -4278,12373 -4262,12384 -4244,12404 -4254,12408 -4243,12417 -4264,12415 -4268,12424 " style="fill: white; stroke: black; stroke-width: 30" />
<polyline points="-4243,12183 -4295,12208 -4323,12224 -4325,12224 -4330,12216 -4301,12218 -4315,12195 -4288,12194 " style="fill: white; stroke: black; stroke-width: 30" />
<polyline points="-4191,12358 -4215,12375 -4208,12435 -4207,12531 -4225,12612 -4221,12658 -4213,12659 -4215,12615 -4213,12524 -4201,12423 -4150,12358 -4105,12331 -4082,12343 -4080,12384 -4117,12417 -4162,12438 -4204,12439 -4194,12441 -4186,12435 -4111,12423 -4047,12375 -3966,12315 -3919,12242 -3885,12196 -3879,12192 -3909,12221 -3938,12322 -3952,12425 -3950,12480 -3943,12483 -3942,12463 -3959,12414 -3977,12385 -3964,12377 -3941,12373 -3921,12370 -3889,12369 -3855,12372 -3832,12365 " style="fill: white; stroke: black; stroke-width: 30" />
<polyline points="-4591,11041 -4590,11038 -4588,11029 -4573,11024 -4602,11010 -4621,11031 -4666,11065 -4680,11104 -4675,11105 -4664,11090 -4630,11053 -4588,11035 -4568,11051 -4572,11111 -4574,11190 -4578,11265 -4582,11329 -4596,11378 -4607,11392 -4619,11381 -4638,11309 -4634,11219 -4637,11116 " style="fill: white; stroke: black; stroke-width: 30" />
<polyline points="-4576,11088 -4555,11083 -4546,11040 -4531,11010 -4521,10985 -4511,10988 -4522,10982 -4505,10991 -4518,10985 -4511,10987 -4497,10977 -4469,10966 -4458,10951 -4450,10951 -4459,10946 -4447,10956 -4467,10960 -4464,10979 -4465,10995 -4474,10998 -4459,10998 -4431,10999 -4422,10991 -4416,10989 -4418,10986 -4416,10989 -4426,10987 -4422,10985 " style="fill: white; stroke: black; stroke-width: 30" />
<polyline points="-4419,10822 -4432,10847 -4438,10850 -4439,10847 -4425,10850 -4413,10876 -4401,10923 " style="fill: white; stroke: black; stroke-width: 30" />
<polyline points="-4396,11009 -4391,11031 -4398,11021 -4371,11012 -4372,10980 -4367,10969 -4356,10973 -4338,10994 -4342,11009 -4306,11028 -4268,11010 -4243,10977 -4232,10955 -4219,10954 -4243,10957 -4274,10979 -4297,10993 -4273,11024 -4226,11039 -4177,11045 " style="fill: white; stroke: black; stroke-width: 30" />
<polyline points="-3854,11029 -3858,11018 -3840,11007 -3830,10986 -3827,10962 -3835,10938 -3851,10913 -3880,10903 -3934,10904 -3982,10923 -3993,10945 -3987,10978 -3944,11003 -3888,10992 -3829,10925 -3765,10853 -3744,10805 -3756,10792 -3774,10793 -3793,10816 -3811,10859 -3802,10904 -3777,10947 -3738,10967 -3686,10970 -3661,10960 -3660,10944 -3680,10917 -3705,10905 -3740,10909 -3751,10926 -3753,10967 -3699,11009 -3641,11033 -3560,11036 -3507,11013 -3457,10960 -3434,10899 -3429,10844 -3452,10814 -3480,10799 -3494,10806 -3520,10827 -3539,10889 -3547,10958 -3508,11053 -3472,11102 -3424,11117 " style="fill: white; stroke: black; stroke-width: 30" />
<polyline points="-3242,10894 -3256,10876 -3266,10862 -3264,10856 -3296,10830 -3321,10814 -3348,10809 -3389,10815 -3423,10849 -3457,10942 -3461,11064 -3456,11165 -3444,11205 -3429,11212 -3432,11192 -3444,11135 -3458,11070 -3457,11036 -3456,11023 -3431,11007 -3395,11005 -3342,11018 -3289,11019 -3233,11022 -3216,11014 -3202,11012 -3208,11018 -3224,11041 -3248,11066 -3244,11077 -3218,11078 -3185,11028 " style="fill: white; stroke: black; stroke-width: 30" />
<polyline points="-3093,10849 -3100,10791 -3126,10777 -3131,10779 -3146,10783 -3154,10822 -3135,10917 -3131,10999 -3110,11043 -3121,11056 -3111,11047 -3104,11027 -3069,11011 -3045,11007 -3024,11009 -2993,11014 -2986,11012 -2961,11012 -2925,11000 -2916,10990 -2924,10985 -2951,10986 -2987,10997 -2990,11027 -2960,11063 -2920,11093 -2878,11101 " style="fill: white; stroke: black; stroke-width: 30" />
<polyline points="-2828,11047 " style="fill: white; stroke: black; stroke-width: 30" />
<polyline points="-4758,11504 -4768,11555 -4769,11579 -4767,11580 -4751,11574 -4727,11561 -4672,11546 -4561,11512 -4363,11453 -4069,11385 -3713,11339 -3350,11319 -3087,11310 -2921,11305 -2839,11304 -2834,11305 -2873,11293 -2948,11284 -3133,11264 -3352,11267 -3660,11289 -3967,11341 -4265,11409 -4545,11486 -4731,11585 -4857,11630 -4866,11639 -4815,11618 -4703,11556 -4489,11471 -4170,11389 -3766,11342 -3322,11324 -2930,11322 -2624,11339 -2450,11341 " style="fill: white; stroke: black; stroke-width: 30" />
<polyline points="11,12450 2,12436 -9,12417 -26,12396 -47,12367 -70,12352 -135,12368 -178,12425 -178,12465 -148,12494 -89,12492 -26,12467 -12,12433 -5,12429 -5,12427 -14,12428 -14,12429 -5,12435 -7,12469 2,12561 2,12660 -7,12739 -27,12801 -31,12831 -36,12826 -51,12791 -88,12680 -95,12597 -123,12533 -87,12514 " style="fill: white; stroke: black; stroke-width: 30" />
<polyline points="139,12366 144,12377 140,12402 124,12444 129,12491 125,12535 127,12561 132,12563 125,12549 108,12505 105,12453 79,12414 72,12368 69,12333 71,12305 57,12287 57,12276 55,12265 55,12243 59,12215 64,12173 73,12140 91,12125 102,12128 130,12148 156,12184 170,12225 166,12255 157,12271 136,12275 115,12258 78,12232 66,12211 71,12196 112,12190 177,12211 " style="fill: white; stroke: black; stroke-width: 30" />
<polyline points="291,12488 268,12492 251,12487 256,12476 250,12447 280,12407 312,12376 326,12371 343,12389 354,12452 358,12518 364,12575 412,12591 468,12561 526,12514 562,12491 574,12478 590,12465 584,12452 560,12430 521,12409 484,12414 445,12437 441,12466 478,12501 521,12525 557,12527 578,12523 575,12513 577,12497 574,12488 581,12481 567,12480 571,12480 562,12481 569,12486 558,12489 562,12491 560,12490 560,12489 550,12487 550,12486 553,12484 553,12486 553,12485 562,12486 555,12491 554,12507 557,12576 564,12694 559,12791 554,12846 542,12859 534,12843 514,12810 480,12752 454,12697 450,12660 471,12635 " style="fill: white; stroke: black; stroke-width: 30" />
<polyline points="1210,12493 1187,12478 1158,12475 1149,12483 1152,12514 1175,12578 1198,12617 1227,12626 1236,12613 1239,12592 1230,12573 1229,12562 1231,12561 1244,12570 1280,12592 1327,12613 1369,12615 1381,12596 1390,12540 1382,12489 1377,12450 1362,12442 1348,12446 1366,12452 1372,12466 1376,12504 1401,12530 1420,12552 1444,12556 1465,12550 1497,12534 1503,12525 1492,12513 1488,12493 1464,12473 1426,12476 1409,12502 1418,12560 1458,12611 1503,12645 1528,12651 1532,12644 1558,12614 1572,12572 1597,12540 1628,12517 1630,12514 1614,12524 1619,12542 1632,12584 1633,12616 1639,12661 1658,12695 1673,12699 " style="fill: white; stroke: black; stroke-width: 30" />
<polyline points="1797,12614 1784,12629 1765,12655 1771,12676 1762,12680 1774,12667 1801,12630 1816,12597 1834,12582 1853,12581 1840,12590 1841,12636 1856,12685 " style="fill: white; stroke: black; stroke-width: 30" />
<polyline points="2389,12501 2373,12497 2353,12507 2328,12534 2300,12584 2285,12627 2261,12648 2286,12647 2275,12644 2286,12618 2310,12544 2355,12465 2369,12422 2359,12419 2356,12421 2356,12444 2347,12503 2345,12560 2378,12617 2400,12654 2444,12662 2508,12640 2553,12601 2587,12558 2583,12548 2564,12554 2573,12563 2564,12605 2577,12644 2584,12680 2634,12686 2688,12679 2739,12653 2777,12619 2787,12595 2773,12590 2749,12596 2728,12615 2734,12643 2741,12678 2795,12703 2831,12725 2871,12733 2891,12728 " style="fill: white; stroke: black; stroke-width: 30" />
<polyline points="3080,12461 3104,12422 3072,12405 3065,12398 3045,12412 3010,12468 2986,12547 2982,12621 2996,12658 3005,12664 2998,12667 2991,12669 2986,12668 2997,12664 2996,12646 2995,12611 3003,12567 3000,12543 3004,12538 2994,12541 3015,12552 3039,12568 3070,12579 3094,12591 3127,12591 3157,12585 3152,12575 3161,12558 3163,12546 3175,12545 3180,12553 3213,12569 3224,12593 3208,12633 3188,12669 3144,12711 3123,12724 3120,12712 3107,12688 3123,12670 3139,12661 3188,12668 3235,12679 3266,12698 3289,12728 " style="fill: white; stroke: black; stroke-width: 30" />
<polyline points="1354,12984 1346,12962 1315,12943 1273,12925 1208,12915 1150,12922 1141,12932 1178,12959 1222,13004 1282,13042 1267,13066 1257,13086 1217,13094 1197,13091 1199,13080 1201,13076 1227,13068 1262,13065 1290,13065 1324,13064 1351,13054 1384,13040 1403,13027 1421,13010 1442,12997 1451,12991 1448,12987 1453,12985 1446,12987 1434,12993 1447,12998 1444,13016 1441,13031 1443,13033 1461,13030 1496,13034 1555,13023 1601,13009 1618,13005 1607,13002 1596,13009 1597,13015 1576,13034 1518,13099 1502,13158 1499,13191 1504,13193 " style="fill: white; stroke: black; stroke-width: 30" />
<polyline points="1634,13056 1626,13049 1621,13052 1608,13066 1620,13067 1637,13061 1656,13033 1693,13009 1720,12997 1703,13004 1709,13010 1702,13036 1716,13068 " style="fill: white; stroke: black; stroke-width: 30" />
<polyline points="1972,13000 1955,12987 1926,12977 1870,12990 1839,13026 1854,13059 1906,13083 1940,13094 1967,13090 " style="fill: white; stroke: black; stroke-width: 30" />
<polyline points="-2677,8037 -2681,8032 -2685,8032 -2689,8036 -2691,8036 -2695,8036 -2689,8036 -2691,8036 -2699,8033 -2694,8033 -2697,8031 -2699,8031 -2700,8030 -2700,8029 -2698,8029 -2698,8029 -2689,8031 -2684,8034 -2686,8035 -2685,8060 -2696,8134 -2707,8224 -2716,8286 -2721,8330 -2733,8330 -2742,8323 -2771,8286 -2802,8232 -2807,8197 " style="fill: white; stroke: black; stroke-width: 30" />
<polyline points="-2556,8123 -2570,8123 -2577,8106 -2576,8075 -2567,8041 -2546,8028 -2525,8036 -2508,8068 -2505,8123 -2521,8173 -2532,8187 -2541,8179 -2563,8142 -2584,8100 -2587,8083 -2584,8082 -2557,8076 " style="fill: white; stroke: black; stroke-width: 30" />
<polyline points="-2389,8055 -2407,8052 -2414,8053 -2416,8060 -2426,8077 -2434,8102 -2432,8115 -2429,8121 -2418,8119 -2388,8107 -2354,8089 -2340,8085 -2339,8086 -2337,8099 -2328,8122 -2315,8136 " style="fill: white; stroke: black; stroke-width: 30" />
<polyline points="-2240,8133 -2259,8126 -2250,8113 -2229,8085 -2199,8063 -2180,8067 -2167,8083 -2140,8116 -2112,8145 " style="fill: white; stroke: black; stroke-width: 30" />
<polyline points="-2022,8130 -2013,8121 -2013,8108 -2020,8096 -2021,8072 -2041,8072 -2047,8082 -2056,8130 -2048,8212 -2048,8308 -2057,8369 -2073,8406 -2089,8414 -2102,8390 -2115,8317 -2105,8247 -2065,8208 -2016,8178 -1958,8151 -1924,8134 -1920,8122 -1942,8125 -1969,8135 -1975,8166 -1959,8178 -1907,8186 -1851,8174 -1814,8151 -1810,8132 -1819,8125 -1821,8122 -1823,8128 -1816,8153 -1809,8197 -1806,8242 -1807,8273 -1810,8279 -1821,8276 -1853,8251 -1874,8223 -1870,8209 -1839,8188 " style="fill: white; stroke: black; stroke-width: 30" />
<polyline points="-1634,7980 -1663,7999 -1686,8050 -1706,8155 -1705,8230 -1693,8263 -1698,8256 -1699,8219 -1707,8175 -1702,8166 -1688,8165 -1658,8170 -1628,8178 " style="fill: white; stroke: black; stroke-width: 30" />
<polyline points="-2683,8122 -2678,8104 -2655,8068 -2628,8027 -2589,7994 " style="fill: white; stroke: black; stroke-width: 30" />
<polyline points="-1153,8092 -1149,8074 -1154,8076 -1164,8090 -1172,8139 -1188,8194 -1184,8223 -1166,8220 -1148,8184 -1133,8116 -1118,8065 -1125,8040 -1136,8036 -1135,8042 -1134,8056 -1135,8096 -1136,8125 -1125,8131 -1091,8128 -1045,8108 -1014,8087 -997,8081 -991,8078 -994,8079 -991,8081 -995,8093 -1019,8134 -1031,8181 -1015,8206 -983,8225 -936,8225 -885,8204 -845,8171 -825,8144 -819,8116 -825,8111 -845,8113 -874,8130 -888,8159 -881,8195 -863,8208 -821,8221 -774,8224 -729,8215 " style="fill: white; stroke: black; stroke-width: 30" />
<polyline points="-616,8176 -633,8157 -657,8143 -676,8142 -710,8156 -727,8193 -726,8216 -699,8227 -657,8203 -611,8148 -598,8099 -600,8081 -607,8078 -614,8082 -615,8085 -613,8089 -616,8090 -613,8091 -611,8089 -609,8088 -603,8089 -608,8091 -610,8092 -610,8096 -613,8100 -615,8127 -610,8166 -601,8190 -585,8201 -547,8209 -508,8202 -461,8177 -414,8138 -383,8116 -383,8116 -390,8125 -395,8144 -395,8174 -391,8208 -383,8240 -372,8246 " style="fill: white; stroke: black; stroke-width: 30" />
<polyline points="-365,8017 -375,8007 -375,8007 -377,8013 -363,8037 " style="fill: white; stroke: black; stroke-width: 30" />
<polyline points="-218,8195 -255,8181 -284,8186 -295,8206 -287,8241 -250,8271 -206,8275 -141,8257 -73,8221 " style="fill: white; stroke: black; stroke-width: 30" />
<polyline points="1,8130 1,8103 -11,8081 -35,8074 -55,8081 -68,8105 -57,8159 -33,8226 -24,8270 -25,8291 -30,8290 -47,8275 -75,8243 -86,8232 -80,8228 " style="fill: white; stroke: black; stroke-width: 30" />
<polyline points="693,8074 683,8079 658,8116 621,8194 573,8275 538,8336 546,8371 " style="fill: white; stroke: black; stroke-width: 30" />
<polyline points="819,8119 810,8109 804,8111 799,8135 787,8192 765,8253 764,8280 759,8295 761,8292 763,8278 770,8233 783,8172 799,8109 810,8079 832,8073 849,8090 855,8135 852,8164 833,8183 799,8189 759,8182 757,8184 766,8195 799,8245 825,8284 830,8315 812,8326 780,8326 743,8304 729,8272 731,8246 766,8222 " style="fill: white; stroke: black; stroke-width: 30" />
<polyline points="902,8176 927,8175 961,8182 993,8196 995,8217 981,8240 943,8259 914,8260 890,8242 869,8214 858,8177 863,8165 884,8159 915,8167 962,8188 " style="fill: white; stroke: black; stroke-width: 30" />
<polyline points="1168,8191 1169,8175 1152,8158 1132,8153 1113,8151 1099,8166 1086,8187 1079,8223 1074,8268 1067,8293 1051,8306 1020,8305 991,8287 986,8278 994,8275 1020,8274 1086,8250 1164,8220 1235,8179 1272,8145 1266,8141 1258,8150 1248,8167 1236,8207 1227,8242 1219,8268 1206,8279 1178,8276 1146,8258 1146,8253 1154,8253 1184,8257 1250,8247 1324,8233 1390,8206 1406,8185 1385,8177 1360,8183 1324,8204 1310,8237 1331,8258 1392,8270 1472,8258 1533,8226 1552,8192 1548,8164 1537,8154 1537,8156 1538,8161 1540,8188 1531,8232 1522,8280 1513,8307 1500,8315 1479,8309 1464,8298 1453,8290 1451,8292 1453,8292 1458,8293 " style="fill: white; stroke: black; stroke-width: 30" />
<polyline points="-11969,13555 " style="fill: white; stroke: black; stroke-width: 30" />
<polyline points="-4647,4850 -4657,4853 -4669,4851 -4667,4861 -4672,4868 -4670,4914 -4668,4992 -4659,5095 -4657,5148 -4654,5176 -4655,5172 -4656,5160 -4661,5089 -4676,4980 -4685,4882 -4692,4848 -4703,4824 -4708,4824 -4711,4827 -4716,4829 -4713,4829 -4719,4826 -4713,4827 -4710,4831 -4713,4829 -4709,4833 -4708,4834 -4705,4837 -4706,4835 -4703,4839 -4699,4846 -4693,4898 -4667,4983 -4630,5066 -4579,5118 -4516,5138 -4455,5125 -4421,5079 -4411,5005 -4417,4910 -4449,4826 -4475,4798 -4505,4786 -4537,4786 -4538,4791 -4541,4788 -4535,4789 -4529,4795 -4503,4839 -4452,4915 " style="fill: white; stroke: black; stroke-width: 30" />
<polyline points="-4262,5050 -4233,5044 -4225,5040 -4231,5034 -4234,5018 -4249,4982 -4268,4948 -4309,4943 -4354,4967 -4384,5022 -4384,5068 -4357,5107 -4295,5132 -4239,5124 -4187,5101 -4170,5078 -4176,5052 -4205,5007 -4225,4994 -4244,4994 -4245,4995 -4245,5000 -4246,4997 -4243,4998 -4243,4991 -4236,4987 " style="fill: white; stroke: black; stroke-width: 30" />
<polyline points="-3751,4829 -3743,4809 -3750,4805 -3757,4809 -3762,4813 -3766,4833 -3774,4893 -3784,5004 -3785,5103 -3779,5191 -3768,5245 -3750,5264 -3731,5244 -3713,5131 -3668,4996 -3620,4921 -3609,4892 -3622,4896 -3661,4911 -3726,4954 -3793,5003 -3818,5045 -3824,5074 -3817,5097 -3791,5119 -3745,5138 -3677,5139 -3591,5131 -3514,5097 -3475,5071 -3467,5050 -3467,5035 -3473,5032 -3473,5038 -3473,5049 -3483,5082 -3496,5137 -3495,5190 -3485,5230 -3473,5247 -3467,5244 " style="fill: white; stroke: black; stroke-width: 30" />
<polyline points="-3501,4871 -3524,4843 -3525,4829 -3491,4826 -3425,4844 -3374,4882 -3353,4914 -3365,4948 -3413,4967 -3477,4952 -3517,4907 -3525,4877 -3509,4828 -3495,4825 -3470,4829 " style="fill: white; stroke: black; stroke-width: 30" />
<polyline points="-3251,4800 -3273,4826 -3303,4901 -3339,5029 -3362,5128 -3348,5177 -3326,5187 -3291,5164 -3244,5058 -3194,4900 -3150,4825 -3137,4804 -3147,4817 -3169,4895 -3189,5002 -3196,5088 -3183,5133 -3149,5158 -3105,5141 -3042,5052 -2995,4937 -2987,4873 -3000,4857 -3004,4870 -3017,4894 -3027,4927 -3038,4962 -3042,4984 -3040,4991 -3037,4996 -3039,4995 -3035,4997 -3034,4998 -3033,5000 -3034,5003 -3021,5026 -3001,5058 -2970,5104 -2947,5140 -2934,5172 -2929,5191 -2935,5194 -2954,5194 -2997,5186 -3042,5176 -3068,5170 -3065,5168 " style="fill: white; stroke: black; stroke-width: 30" />
<polyline points="-2320,4923 -2330,4879 -2333,4869 -2336,4875 -2341,4899 -2353,4997 -2361,5101 -2359,5161 -2350,5192 -2349,5191 -2351,5181 -2366,5133 -2383,5040 -2400,4949 -2379,4871 -2342,4827 -2293,4817 -2245,4844 -2216,4887 -2218,4931 -2248,4976 -2293,5003 -2346,5008 -2393,4997 -2411,4978 -2408,4972 -2396,4964 -2369,4945 -2321,4930 " style="fill: white; stroke: black; stroke-width: 30" />
<polyline points="-2094,4870 -2114,4824 -2127,4804 -2128,4807 -2138,4826 -2167,4904 -2191,4996 -2192,5052 -2172,5091 -2133,5131 -2090,5149 -2040,5151 -1998,5135 -1967,5110 -1937,5074 -1932,5053 -1937,5035 -1957,5013 -1991,4995 -2034,4994 -2057,5013 -2059,5053 -2042,5112 -2003,5160 -1952,5184 -1897,5200 -1847,5210 " style="fill: white; stroke: black; stroke-width: 30" />
<polyline points="-1830,5027 -1843,5015 -1833,5011 -1808,5016 -1766,5055 -1735,5111 -1722,5171 -1743,5232 -1789,5285 -1846,5304 -1890,5283 -1912,5204 -1901,5146 -1869,5122 -1825,5123 -1768,5166 -1696,5215 -1600,5241 -1506,5218 -1466,5172 -1480,5108 -1520,5074 -1551,5062 -1557,5064 -1553,5086 -1543,5154 -1522,5225 -1515,5277 -1515,5314 -1523,5320 -1535,5313 -1565,5285 -1604,5233 -1615,5213 -1605,5215 -1556,5215 -1475,5205 -1391,5186 -1307,5151 -1277,5118 -1294,5087 -1337,5068 -1382,5066 -1418,5095 -1412,5145 -1371,5208 -1309,5251 -1252,5280 -1202,5292 -1174,5278 " style="fill: white; stroke: black; stroke-width: 30" />
<polyline points="-739,4858 -740,4824 -746,4823 -751,4834 -765,4882 -781,4985 -787,5104 -784,5193 -774,5232 -758,5225 " style="fill: white; stroke: black; stroke-width: 30" />
<polyline points="-564,4852 -569,4882 -569,4934 -580,5019 -594,5112 -584,5180 -568,5218 -547,5220 " style="fill: white; stroke: black; stroke-width: 30" />
<polyline points="-292,4892 -318,4905 -330,4939 -342,5015 -343,5121 -345,5213 -331,5254 -325,5265 -294,5214 " style="fill: white; stroke: black; stroke-width: 30" />
<polyline points="-27,4863 -39,4882 -56,4938 -83,5050 -95,5160 -92,5251 -83,5299 " style="fill: white; stroke: black; stroke-width: 30" />
<polyline points="256,4896 234,4891 222,4903 192,5009 165,5161 154,5279 165,5338 " style="fill: white; stroke: black; stroke-width: 30" />
<polyline points="543,4928 528,4936 506,4992 472,5103 444,5202 435,5289 444,5333 " style="fill: white; stroke: black; stroke-width: 30" />
<polyline points="-918,5562 -935,5530 -930,5483 -917,5449 -902,5433 -889,5432 -870,5442 -847,5479 -837,5525 -841,5553 -862,5551 -890,5534 -910,5503 -914,5485 -902,5466 -859,5438 " style="fill: white; stroke: black; stroke-width: 30" />
<polyline points="-634,5553 -657,5521 -650,5471 -626,5429 -603,5411 -579,5416 -561,5445 -562,5493 -590,5541 -620,5560 -648,5544 -654,5512 -636,5464 -604,5441 " style="fill: white; stroke: black; stroke-width: 30" />
<polyline points="-381,5503 -394,5470 -381,5435 -358,5411 -314,5404 -256,5422 -229,5465 -251,5512 -323,5542 -396,5543 -432,5517 -430,5494 -418,5459 -403,5438 -384,5424 " style="fill: white; stroke: black; stroke-width: 30" />
<polyline points="-109,5452 -146,5428 -151,5406 -134,5393 -103,5389 -72,5405 -53,5440 -64,5485 -97,5515 -136,5518 -173,5485 -188,5449 -176,5418 -122,5396 " style="fill: white; stroke: black; stroke-width: 30" />
<polyline points="151,5511 90,5488 51,5457 54,5440 78,5429 124,5437 153,5468 160,5508 138,5538 106,5550 72,5537 51,5508 58,5469 87,5426 132,5391 " style="fill: white; stroke: black; stroke-width: 30" />
<polyline points="308,5448 292,5428 308,5420 345,5437 377,5465 385,5491 366,5504 316,5509 275,5494 264,5477 289,5442 335,5408 370,5386 " style="fill: white; stroke: black; stroke-width: 30" />

</svg>