<?xml version="1.0" standalone="no"?>
<!DOCTYPE svg PUBLIC "-//W3C//DTD SVG 1.1//EN" "http://www.w3.org/Graphics/SVG/1.1/DTD/svg11.dtd">
<svg width="210mm" height="297mm" viewBox="-7000 500 14000 20000" version="1.1" xmlns="http://www.w3.org/2000/svg">

<polyline points="-1997,7015 -2006,7026 -2007,7040 -2003,7047 -2001,7047 -1993,7048 -1983,7038 -1932,6995 -1820,6884 -1673,6700 -1476,6446 -1209,6106 -889,5694 -497,5235 -79,4747 333,4294 699,3906 995,3606 1190,3390 1308,3237 1339,3174 1336,3166 1326,3164 1320,3165 1317,3163 1321,3165 1325,3165 1330,3170 1332,3173 1338,3184 1343,3199 " style="fill: white; stroke: black; stroke-width: 30" />
<polyline points="-2099,3082 -2092,3080 -2078,3083 -2027,3116 -1921,3196 -1783,3321 -1606,3496 -1401,3724 -1159,3992 -891,4287 -593,4598 -259,4929 97,5267 475,5611 839,5931 1159,6208 1417,6438 1613,6611 1758,6725 1849,6797 1880,6828 1884,6833 1876,6832 1868,6829 1861,6820 1832,6764 " style="fill: white; stroke: black; stroke-width: 30" />
<polyline points="-3130,4893 -3123,4898 -3093,4905 -3042,4905 -2963,4893 -2847,4884 -2698,4872 -2497,4862 -2230,4839 -1900,4802 -1510,4768 -1086,4740 -617,4720 -128,4695 366,4659 839,4632 1268,4618 1616,4617 1894,4617 2085,4616 2222,4609 2284,4606 2299,4605 2292,4607 2285,4608 2281,4608 2277,4604 2282,4601 2283,4599 2291,4601 2349,4572 " style="fill: white; stroke: black; stroke-width: 30" />
<polyline points="1914,2748 1920,2718 1921,2705 1920,2704 1917,2708 1911,2734 1898,2818 1893,2922 1906,3002 1926,3051 1948,3063 " style="fill: white; stroke: black; stroke-width: 30" />
<polyline points="2109,2694 2095,2689 2070,2696 2019,2731 1944,2799 1877,2872 1835,2927 1836,2970 1858,2995 1910,3011 1976,3005 2050,2987 " style="fill: white; stroke: black; stroke-width: 30" />
<polyline points="2117,2863 2094,2819 2100,2790 2123,2778 2156,2788 2183,2832 2197,2890 2191,2948 2164,3002 2131,3032 2099,3036 2081,3016 2083,2971 2112,2917 2145,2895 2188,2895 2207,2921 2236,2969 2251,3003 2254,3013 2252,3006 2250,2995 2250,2978 2265,2957 2288,2925 2313,2905 2348,2883 2374,2880 2405,2895 2442,2932 2453,2975 2463,2997 2469,3002 2493,2986 2536,2932 2574,2860 " style="fill: white; stroke: black; stroke-width: 30" />
<polyline points="2722,2557 2714,2568 2693,2630 2648,2777 2608,2921 2588,3013 2584,3036 2582,3030 2579,2993 2590,2948 2602,2921 2632,2904 2683,2889 2752,2866 2806,2842 2817,2841 2809,2850 2792,2898 2785,2946 2783,2991 2787,3009 2799,3005 2805,2977 2807,2912 2801,2803 " style="fill: white; stroke: black; stroke-width: 30" />
<polyline points="2843,2546 2823,2553 2818,2554 2821,2559 2840,2561 2862,2570 2884,2583 2898,2593 2895,2619 2883,2653 2860,2678 2819,2696 2796,2695 2786,2683 2787,2660 2812,2607 2861,2545 2906,2517 " style="fill: white; stroke: black; stroke-width: 30" />
<polyline points="623,3791 612,3789 604,3793 602,3812 617,3842 656,3897 706,3959 743,3985 772,4008 783,4020 786,4019 790,4020 " style="fill: white; stroke: black; stroke-width: 30" />
<polyline points="939,4028 935,4024 929,4021 921,4027 914,4037 911,4066 906,4132 910,4186 923,4200 948,4205 992,4190 1046,4167 1091,4143 1113,4133 1122,4126 1127,4125 1127,4124 1127,4126 1120,4129 1123,4130 1121,4127 " style="fill: white; stroke: black; stroke-width: 30" />
<polyline points="1054,4018 1039,4025 1030,4036 1030,4081 1029,4142 1038,4189 1037,4242 1042,4273 1054,4320 1062,4360 " style="fill: white; stroke: black; stroke-width: 30" />
<polyline points="3135,4540 3144,4499 3131,4461 3098,4428 3035,4409 2942,4439 2844,4522 2775,4643 2763,4745 2786,4814 2846,4863 2921,4894 2999,4898 3050,4894 3085,4877 " style="fill: white; stroke: black; stroke-width: 30" />
<polyline points="3025,4681 3032,4677 3044,4681 3061,4688 3079,4697 3103,4715 3113,4727 3118,4746 3111,4783 3102,4833 3093,4873 3097,4915 3110,4932 " style="fill: white; stroke: black; stroke-width: 30" />
<polyline points="3211,4778 3232,4786 3263,4782 3321,4763 3373,4736 3409,4706 3421,4674 3406,4645 3360,4627 3294,4652 3244,4712 3228,4777 3238,4822 3272,4845 3321,4855 3384,4838 " style="fill: white; stroke: black; stroke-width: 30" />
<polyline points="3586,4627 3554,4629 3532,4637 3529,4653 3539,4688 3553,4749 3556,4805 3530,4852 3498,4862 3467,4853 3454,4846 3470,4840 3502,4836 3577,4820 3663,4780 3731,4728 3767,4660 3756,4626 3719,4626 3675,4660 3655,4706 3655,4743 3672,4772 3704,4791 3744,4790 3790,4759 3823,4706 3858,4637 3882,4601 3889,4590 3892,4582 3886,4587 3885,4592 3872,4619 3845,4663 3827,4715 3835,4739 3867,4755 3930,4758 3993,4753 4030,4749 4040,4762 4042,4779 4051,4797 4070,4814 4103,4808 4137,4773 4166,4736 4170,4728 4176,4734 4176,4757 4167,4798 4168,4814 4183,4824 4217,4827 4269,4807 4286,4797 4292,4792 4286,4797 4284,4804 4281,4816 4282,4837 4291,4860 4313,4882 " style="fill: white; stroke: black; stroke-width: 30" />
<polyline points="4410,4577 4383,4563 4371,4550 4366,4548 4371,4545 4386,4557 4434,4573 " style="fill: white; stroke: black; stroke-width: 30" />
<polyline points="4548,4627 4547,4629 4536,4635 4538,4641 4529,4698 4534,4774 4525,4845 4515,4871 4482,4874 4458,4858 4454,4830 4490,4783 4578,4694 4662,4604 4694,4560 4696,4555 4680,4571 4651,4637 4613,4726 4597,4786 4596,4805 4599,4795 4593,4776 4597,4753 4607,4740 4643,4724 4693,4724 4744,4730 4751,4743 4739,4755 4697,4772 4672,4778 4673,4776 4681,4785 4696,4792 4718,4797 4724,4803 4728,4815 4728,4815 4728,4813 4729,4806 4729,4806 4738,4798 4744,4796 " style="fill: white; stroke: black; stroke-width: 30" />
<polyline points="1873,4693 1862,4690 1848,4688 1839,4689 1831,4688 1837,4690 1857,4692 1891,4708 1919,4732 1926,4759 1903,4778 1867,4800 1837,4799 1815,4772 1804,4741 1818,4702 1842,4677 1858,4683 1873,4707 1879,4756 1870,4787 1858,4794 1840,4774 1815,4733 1823,4692 1838,4674 1866,4671 1892,4685 1894,4698 1883,4715 1866,4728 1839,4744 1813,4750 1814,4744 1812,4733 1814,4728 1820,4716 1823,4715 1823,4713 1833,4712 " style="fill: white; stroke: black; stroke-width: 30" />
<polyline points="634,5800 630,5800 617,5793 609,5788 600,5775 601,5762 598,5746 605,5732 620,5722 653,5726 675,5745 685,5775 667,5811 643,5836 629,5843 624,5841 608,5821 600,5790 597,5754 605,5732 618,5722 632,5730 660,5757 674,5805 666,5840 658,5852 633,5850 607,5832 589,5802 583,5770 588,5747 600,5737 615,5734 648,5751 673,5784 675,5818 652,5846 628,5850 597,5836 577,5807 568,5772 567,5748 570,5729 580,5729 610,5734 656,5761 683,5797 675,5826 636,5841 590,5826 570,5786 565,5754 565,5727 570,5726 581,5731 602,5744 619,5765 621,5787 611,5796 596,5798 573,5787 565,5774 562,5750 566,5732 568,5730 580,5732 610,5734 " style="fill: white; stroke: black; stroke-width: 30" />
<polyline points="-1186,6243 -1208,6237 -1226,6222 -1230,6205 -1229,6178 -1207,6150 -1184,6119 -1147,6104 -1101,6112 -1073,6141 -1070,6172 -1084,6200 -1125,6216 -1163,6223 -1186,6217 -1202,6206 -1205,6184 -1197,6148 -1173,6111 -1141,6092 -1112,6089 -1094,6097 -1092,6113 -1105,6145 -1121,6170 -1143,6179 -1158,6167 -1184,6145 -1195,6125 -1203,6093 -1187,6073 -1163,6063 -1118,6063 -1086,6087 -1092,6117 -1116,6150 -1151,6163 -1185,6150 -1199,6137 -1203,6125 -1200,6102 -1190,6083 -1176,6075 -1161,6085 -1156,6104 -1159,6130 -1166,6146 -1177,6151 -1188,6146 -1194,6138 -1196,6124 -1189,6069 " style="fill: white; stroke: black; stroke-width: 30" />
<polyline points="544,4197 532,4182 516,4160 495,4138 480,4117 472,4100 466,4078 464,4056 464,4024 472,3982 483,3950 496,3916 518,3873 548,3837 575,3810 614,3784 651,3764 696,3749 739,3736 785,3729 834,3722 883,3722 935,3728 976,3738 1024,3755 1058,3777 1097,3797 1125,3816 1151,3841 1175,3862 1190,3878 1203,3903 1219,3931 1235,3967 1245,3997 1251,4037 1255,4081 1253,4136 1251,4179 1247,4226 1238,4260 1232,4296 1224,4326 1212,4350 1193,4383 1174,4417 1151,4447 1118,4478 1078,4506 1031,4529 977,4549 930,4565 883,4576 854,4577 802,4573 743,4564 690,4545 635,4524 576,4496 530,4470 478,4428 444,4391 410,4335 381,4283 364,4237 350,4180 344,4140 342,4103 347,4055 356,4020 367,3977 381,3936 394,3899 411,3869 428,3845 456,3821 497,3789 537,3767 583,3737 623,3714 652,3699 687,3693 715,3694 748,3700 797,3707 859,3719 925,3726 971,3737 1010,3754 1035,3773 1054,3790 1079,3827 1106,3865 1132,3909 1150,3948 1168,4000 1187,4063 1198,4117 1205,4174 1207,4225 1209,4266 1198,4313 1190,4350 1178,4392 1158,4439 1124,4483 1080,4516 1035,4541 985,4559 924,4577 864,4584 803,4575 727,4567 652,4535 569,4493 505,4451 458,4408 422,4348 379,4266 349,4191 337,4138 330,4090 330,4042 329,3982 344,3939 381,3880 446,3833 543,3776 629,3733 710,3697 788,3695 840,3696 892,3712 958,3731 1023,3761 1069,3795 1108,3828 1130,3867 1141,3915 1155,3965 1174,4017 1193,4085 1205,4134 1211,4188 1215,4238 1214,4274 1208,4323 1199,4356 1185,4395 1168,4431 1153,4455 1136,4472 1114,4480 1076,4476 " style="fill: white; stroke: black; stroke-width: 30" />
<polyline points="-1243,6255 -1259,6255 -1257,6253 -1258,6250 -1250,6240 -1232,6227 -1176,6191 -1071,6136 -909,6060 -696,5973 -467,5874 -241,5785 -70,5726 28,5691 65,5676 72,5673 72,5670 72,5671 77,5668 100,5666 129,5657 167,5649 215,5641 237,5640 255,5637 272,5638 280,5639 298,5644 332,5649 360,5655 372,5655 391,5659 412,5665 434,5671 444,5673 450,5678 453,5679 455,5679 458,5672 461,5662 " style="fill: white; stroke: black; stroke-width: 30" />
<polyline points="573,5676 560,5680 562,5672 581,5646 623,5585 698,5491 813,5358 970,5203 1142,5059 1295,4936 1405,4839 1488,4762 1557,4700 1609,4655 1635,4636 1658,4620 1689,4593 1721,4572 1742,4561 1746,4562 1744,4560 1748,4560 1745,4559 1749,4557 1750,4554 1753,4554 1759,4548 " style="fill: white; stroke: black; stroke-width: 30" />
<polyline points="1680,4661 1673,4657 1666,4647 1660,4636 1636,4603 1591,4547 1500,4471 1391,4406 1278,4335 1191,4288 1112,4246 1048,4217 996,4186 974,4170 953,4150 913,4128 877,4108 864,4097 839,4071 809,4050 803,4039 801,4035 797,4023 789,4016 783,4013 781,4013 781,4010 782,4011 781,4009 778,4009 774,4004 771,4002 769,3997 766,3994 761,3988 762,3985 759,3982 762,3981 765,3979 768,3976 771,3971 " style="fill: white; stroke: black; stroke-width: 30" />
<polyline points="670,3939 668,3941 659,3943 653,3949 624,3952 544,3970 405,3995 223,4026 20,4061 -169,4109 -348,4158 -520,4206 -657,4245 -745,4272 -801,4281 -829,4285 -837,4278 -835,4279 -831,4276 -833,4276 -835,4274 -834,4278 -835,4277 -838,4279 -841,4278 -841,4283 -844,4287 -855,4297 -893,4308 -935,4322 -950,4322 -959,4320 -979,4311 -989,4303 -1004,4272 " style="fill: white; stroke: black; stroke-width: 30" />
<polyline points="-1000,4312 -1005,4323 -1005,4321 -1007,4309 -1001,4281 -983,4249 -950,4228 -898,4231 -847,4255 -821,4300 -823,4323 -858,4362 -908,4378 -945,4370 -970,4331 -965,4250 -940,4204 -907,4196 -866,4230 -839,4297 -841,4338 -859,4358 -902,4353 -933,4335 -963,4296 -988,4234 " style="fill: white; stroke: black; stroke-width: 30" />
<polyline points="-935,4303 -944,4319 -952,4336 -982,4406 -1055,4516 -1135,4638 -1223,4757 -1293,4846 -1343,4916 -1361,4943 -1360,4942 -1358,4932 -1347,4910 -1340,4877 " style="fill: white; stroke: black; stroke-width: 30" />
<polyline points="-1337,4756 -1352,4757 -1346,4747 -1323,4721 -1270,4695 -1208,4721 -1166,4780 -1164,4854 -1198,4891 -1257,4882 -1323,4840 -1353,4806 -1361,4769 -1356,4763 -1328,4761 -1278,4776 -1242,4798 -1238,4809 -1265,4814 -1307,4804 -1334,4781 -1343,4762 -1335,4756 -1316,4750 -1280,4742 -1246,4743 " style="fill: white; stroke: black; stroke-width: 30" />
<polyline points="-1231,4742 -1236,4752 -1240,4786 -1245,4861 -1242,4995 -1234,5174 -1220,5405 -1215,5615 -1213,5775 -1222,5872 -1222,5922 -1221,5946 -1213,5975 -1214,5979 -1213,5979 -1214,5981 -1212,5981 -1215,5984 -1211,5984 -1217,5984 -1214,5983 -1215,5984 -1212,5981 -1211,5978 -1209,5971 -1208,5966 -1209,5959 -1207,5957 -1207,5954 " style="fill: white; stroke: black; stroke-width: 30" />
<polyline points="-1530,10579 -1580,10666 -1643,10770 -1708,10872 -1722,10950 -1744,10995 -1745,11001 -1725,10987 -1672,10930 -1578,10814 -1423,10611 -1160,10306 -827,9928 -419,9532 -24,9138 349,8796 683,8517 923,8330 1047,8236 1074,8217 1058,8218 1039,8221 " style="fill: white; stroke: black; stroke-width: 30" />
<polyline points="-2503,3038 -2520,3046 -2520,3052 -2513,3049 -2478,3011 -2394,2900 -2305,2735 -2241,2610 -2216,2559 -2213,2579 -2186,2705 -2150,2879 -2103,3002 -2074,3056 " style="fill: white; stroke: black; stroke-width: 30" />
<polyline points="-2260,2969 -2388,2931 -2436,2921 -2434,2921 -2389,2904 -2292,2877 -2175,2842 -2083,2809 -2025,2765 -2008,2727 -2007,2696 -2008,2685 -2003,2683 -2000,2689 -1998,2700 -1995,2736 -1988,2799 -1969,2868 -1940,2915 -1921,2919 -1901,2892 -1882,2818 -1869,2771 -1867,2766 -1855,2777 -1835,2807 -1797,2850 -1770,2885 -1759,2900 -1759,2895 -1745,2855 " style="fill: white; stroke: black; stroke-width: 30" />
<polyline points="-1623,2638 -1635,2636 -1641,2656 -1642,2715 -1638,2791 -1646,2835 -1656,2854 -1680,2865 -1681,2861 -1670,2861 -1617,2849 -1532,2806 -1448,2722 -1417,2633 -1423,2580 -1437,2577 -1438,2594 -1421,2650 -1391,2722 -1379,2783 -1393,2814 -1421,2826 -1451,2811 -1454,2805 -1434,2802 -1359,2786 -1251,2751 -1157,2682 -1123,2592 -1148,2543 -1199,2553 -1225,2602 -1211,2660 -1158,2694 -1098,2672 -1054,2590 -1048,2483 -1067,2429 -1081,2439 -1077,2513 -1038,2628 -985,2701 -953,2731 -955,2723 -954,2702 -938,2693 -896,2696 -854,2712 -825,2711 -808,2699 -796,2697 -788,2724 " style="fill: white; stroke: black; stroke-width: 30" />
<polyline points="-4053,4661 -4064,4687 -4038,4741 -4008,4865 -3969,5045 -3949,5187 -3902,5249 " style="fill: white; stroke: black; stroke-width: 30" />
<polyline points="-3731,4991 -3742,4988 -3749,4926 -3726,4810 -3656,4698 -3572,4670 -3496,4744 -3476,4900 -3505,5042 -3563,5119 -3616,5125 -3676,5089 -3735,4989 -3737,4910 " style="fill: white; stroke: black; stroke-width: 30" />
<polyline points="-3596,4918 -3578,4934 -3501,5005 -3416,5079 -3336,5140 " style="fill: white; stroke: black; stroke-width: 30" />
<polyline points="-3152,4498 -3095,4447 -3073,4456 -3084,4543 -3119,4727 -3168,4919 -3179,5082 " style="fill: white; stroke: black; stroke-width: 30" />
<polyline points="-3906,5483 -3925,5494 -3942,5564 -3934,5721 -3913,5855 -3873,5930 -3852,5928 -3854,5863 -3899,5746 -3966,5647 -4020,5569 -4037,5515 -3995,5436 -3880,5387 -3773,5416 -3772,5514 -3851,5613 -3926,5690 -3930,5706 -3904,5708 -3789,5754 -3741,5807 -3741,5863 -3777,5908 -3813,5922 -3844,5900 -3840,5852 -3784,5802 -3725,5769 -3662,5747 -3596,5716 -3562,5705 -3550,5721 -3548,5783 -3537,5843 -3520,5856 -3484,5832 " style="fill: white; stroke: black; stroke-width: 30" />
<polyline points="-3515,5638 -3586,5561 -3613,5541 -3614,5542 -3604,5540 -3584,5536 -3528,5535 " style="fill: white; stroke: black; stroke-width: 30" />
<polyline points="-3462,5441 -3464,5412 -3457,5406 -3460,5419 -3445,5495 -3437,5606 -3421,5680 -3385,5719 -3333,5733 " style="fill: white; stroke: black; stroke-width: 30" />
<polyline points="-3137,5592 -3151,5578 -3163,5571 -3202,5581 -3250,5632 -3281,5707 -3274,5749 -3253,5756 -3216,5719 -3185,5612 -3188,5464 -3221,5367 -3239,5357 -3237,5396 -3207,5498 -3152,5605 -3074,5652 -3003,5625 -2960,5560 -2961,5535 -2964,5538 -2961,5554 -2944,5569 -2910,5581 -2888,5582 -2879,5582 -2863,5564 -2843,5545 -2813,5531 -2767,5536 -2719,5534 -2686,5524 -2672,5512 -2664,5521 -2656,5534 -2648,5538 -2610,5509 -2535,5432 -2456,5368 -2398,5374 -2349,5426 -2308,5488 -2276,5529 -2279,5568 -2308,5606 -2347,5623 -2364,5625 -2371,5626 -2367,5625 -2356,5628 -2337,5616 -2312,5606 -2293,5591 " style="fill: white; stroke: black; stroke-width: 30" />
<polyline points="-692,4607 -711,4609 -718,4597 -714,4559 -700,4509 -681,4490 -641,4477 -587,4501 -557,4549 -555,4599 -580,4634 -625,4646 -674,4635 -712,4615 -725,4595 -721,4589 -697,4578 -649,4576 -609,4596 -580,4629 -587,4649 -624,4669 -678,4666 -715,4644 -725,4590 -709,4547 -664,4513 -622,4513 -593,4536 -596,4577 -621,4605 -635,4602 -650,4583 -665,4564 -673,4547 -671,4545 -672,4542 -659,4534 " style="fill: white; stroke: black; stroke-width: 30" />
<polyline points="-2570,4913 -2583,4921 -2592,4920 -2609,4908 -2624,4887 -2632,4871 -2637,4845 -2629,4829 -2608,4817 -2584,4819 -2540,4838 -2522,4865 -2525,4898 -2543,4931 -2570,4946 -2599,4944 -2621,4925 -2640,4884 -2641,4831 -2629,4798 -2604,4776 -2575,4775 -2540,4799 -2525,4855 -2526,4909 -2552,4933 -2581,4933 -2617,4916 -2638,4868 -2646,4820 -2636,4786 -2608,4770 -2573,4773 -2527,4809 -2504,4864 -2510,4917 -2542,4942 -2585,4943 -2623,4915 -2647,4875 -2651,4832 -2632,4814 -2595,4804 -2545,4819 -2505,4852 -2488,4902 -2503,4926 -2546,4937 -2596,4931 -2645,4898 -2655,4865 -2649,4821 -2610,4781 -2567,4765 -2521,4774 -2497,4816 -2491,4889 -2510,4933 -2537,4936 -2581,4930 -2615,4911 -2649,4878 -2647,4865 -2630,4852 -2583,4843 -2518,4846 -2478,4882 -2479,4923 -2523,4949 -2576,4949 -2615,4924 -2648,4875 -2648,4814 -2626,4779 -2588,4776 -2550,4799 -2520,4867 -2507,4937 -2519,4941 -2554,4935 -2602,4915 -2652,4864 -2652,4837 -2636,4825 -2588,4813 -2519,4843 -2482,4896 -2493,4933 -2537,4950 -2582,4949 -2617,4921 -2643,4876 -2642,4829 -2629,4800 -2591,4788 -2548,4811 -2513,4875 -2511,4944 -2546,4956 -2600,4948 -2647,4907 -2660,4884 -2658,4849 -2644,4832 -2613,4824 -2592,4836 -2581,4854 -2578,4858 -2585,4853 -2594,4846 -2605,4835 -2615,4828 -2620,4820 -2621,4821 -2621,4819 -2617,4821 -2617,4819 -2616,4821 -2615,4817 " style="fill: white; stroke: black; stroke-width: 30" />
<polyline points="-2468,4840 -2480,4838 -2478,4837 -2485,4833 -2478,4831 -2467,4824 -2448,4809 -2416,4802 -2375,4800 -2330,4794 -2285,4782 -2230,4770 -2171,4758 -2110,4748 -2044,4728 -1979,4709 -1909,4690 -1841,4678 -1770,4665 -1709,4659 -1643,4655 -1579,4652 -1514,4651 -1447,4651 -1368,4643 -1293,4635 -1223,4619 -1157,4611 -1097,4607 -1048,4604 -1017,4602 -987,4603 -964,4602 -948,4605 -932,4607 -929,4608 -921,4607 -915,4607 -904,4605 -896,4604 -882,4599 -860,4594 -831,4584 -808,4577 -788,4572 " style="fill: white; stroke: black; stroke-width: 30" />
<polyline points="-916,4634 -919,4626 -903,4605 -868,4595 -816,4580 -768,4567 -721,4550 -692,4545 -687,4541 " style="fill: white; stroke: black; stroke-width: 30" />
<polyline points="1532,3381 1525,3375 1534,3376 1555,3378 1645,3383 1829,3379 2102,3364 2386,3350 2629,3336 2799,3324 2908,3317 2969,3313 3011,3307 3017,3308 3015,3309 3005,3311 2994,3314 2987,3315 2982,3315 2977,3312 2978,3312 2983,3309 3033,3267 " style="fill: white; stroke: black; stroke-width: 30" />
<polyline points="2000,3206 2239,3207 2503,3200 2723,3173 2870,3161 2963,3154 3008,3157 3017,3159 3012,3163 3004,3164 2994,3166 2988,3164 2983,3165 2983,3163 2987,3161 " style="fill: white; stroke: black; stroke-width: 30" />
<polyline points="-4900,2597 -4911,2715 -4908,2891 -4877,3145 -4799,3461 -4743,3825 -4683,4280 -4668,4391 -4652,4480 -4614,4598 -4447,5448 -4393,5947 -4317,6323 " style="fill: white; stroke: black; stroke-width: 30" />
<polyline points="-4010,8169 -4042,8391 -4040,8646 -4012,8942 -3973,9288 -3930,9631 -3925,9938 -3905,10236 -3847,10503 -3789,10718 -3725,10876 -3678,10946 -3662,10950 -3640,10910 -3629,10761 -3639,10516 -3673,10233 -3749,9905 -3834,9543 -3911,9144 -3979,8699 -4007,8234 -4038,7733 -4048,7197 -4064,6637 -4078,6077 -4086,5508 -4067,4941 -4046,4385 -3989,3848 -3924,3336 -3866,2847 -3796,2385 -3755,2002 -3743,1729 -3744,1526 -3737,1382 " style="fill: white; stroke: black; stroke-width: 30" />
<polyline points="-3785,1150 -3793,1058 -3791,1043 -3776,1099 -3710,1311 -3630,1628 -3570,1973 -3490,2338 -3384,2639 " style="fill: white; stroke: black; stroke-width: 30" />
<polyline points="-3956,2238 -3958,2259 -3953,2260 -3949,2249 -3925,2198 -3880,2066 -3818,1883 -3762,1708 -3720,1561 -3693,1450 -3672,1366 -3661,1318 -3657,1321 -3659,1324 -3659,1324 -3656,1329 -3660,1326 -3656,1334 -3656,1334 -3656,1344 -3651,1359 -3646,1374 " style="fill: white; stroke: black; stroke-width: 30" />
<polyline points="-8143,6285 " style="fill: white; stroke: black; stroke-width: 30" />
<polyline points="-3669,1380 -3676,1387 -3676,1403 -3681,1412 -3689,1449 -3693,1518 -3706,1594 -3720,1692 -3731,1802 -3740,1911 -3744,2014 -3742,2119 -3741,2219 -3748,2330 -3758,2432 -3767,2541 -3772,2630 -3775,2713 -3769,2800 -3763,2888 -3751,2972 -3752,3054 -3757,3139 -3761,3236 -3768,3329 -3770,3423 -3771,3513 -3772,3605 -3782,3697 -3790,3785 -3806,3889 -3828,4000 -3847,4115 -3860,4229 -3873,4344 -3897,4455 -3926,4574 -3960,4700 -3991,4833 -4018,4970 -4051,5106 -4094,5238 -4124,5378 -4146,5525 -4166,5674 -4169,5822 -4182,5960 -4195,6103 -4210,6250 -4224,6405 -4238,6560 -4239,6724 -4228,6883 -4214,7044 -4208,7205 -4194,7357 -4171,7539 -4170,7708 -4156,7873 -4147,8023 -4135,8162 -4124,8295 -4108,8434 -4108,8543 -4095,8639 -4089,8715 -4079,8771 -4083,8805 -4075,8836 -4081,8844 -4089,8847 -4084,8856 -4083,8864 -4085,8883 -4086,8909 -4080,8951 -4066,9010 -4060,9062 -4048,9122 -4043,9178 -4038,9246 -4023,9326 -4006,9421 -3998,9512 -3982,9595 -3982,9651 -3949,9719 -3949,9783 -3931,9848 -3928,9899 -3921,9941 -3918,9969 -3927,9987 -3922,10003 -3922,10004 -3914,10000 " style="fill: white; stroke: black; stroke-width: 30" />
<polyline points="-1287,9308 " style="fill: white; stroke: black; stroke-width: 30" />
<polyline points="-1829,9010 -1869,8853 -1859,8676 -1794,8503 -1658,8338 -1468,8194 -1233,8082 -942,8009 -667,7998 -413,8058 -194,8169 -5,8305 155,8459 312,8646 451,8865 541,9112 559,9359 536,9594 463,9820 346,10015 150,10202 -69,10369 -315,10494 -592,10569 -839,10569 -1075,10519 -1286,10428 -1431,10345 -1530,10256 -1602,10151 -1622,10048 -1608,9959 " style="fill: white; stroke: black; stroke-width: 30" />
<polyline points="-1579,9547 -1564,9480 -1556,9465 -1558,9466 -1549,9479 -1548,9495 -1502,9552 -1432,9630 -1337,9722 -1229,9814 -1131,9868 -1060,9896 " style="fill: white; stroke: black; stroke-width: 30" />
<polyline points="1421,3603 1413,3596 1408,3591 1405,3579 1400,3580 1401,3578 1408,3577 1446,3573 1559,3561 1752,3531 2035,3492 2354,3458 2629,3431 2816,3416 2917,3413 2978,3412 3009,3414 3010,3416 3004,3414 2994,3416 2983,3414 2971,3415 2964,3418 2963,3417 2963,3418 2966,3422 2970,3422 2974,3419 2977,3422 2977,3422 2979,3419 2983,3421 2984,3420 2984,3420 2984,3422 2984,3422 2983,3421 " style="fill: white; stroke: black; stroke-width: 30" />
<polyline points="-2013,8821 -2042,8820 -2064,8814 -2073,8809 -2071,8808 -2049,8803 -1983,8797 -1871,8801 -1733,8810 -1610,8811 -1525,8814 -1462,8815 -1439,8810 -1434,8811 -1444,8808 -1444,8808 -1446,8810 -1449,8809 -1451,8808 -1451,8808 -1450,8806 -1452,8805 -1449,8806 -1448,8803 -1448,8802 -1448,8801 " style="fill: white; stroke: black; stroke-width: 30" />
<polyline points="3974,7272 3949,7266 3934,7271 3933,7283 3924,7344 3912,7426 3902,7489 3876,7581 3829,7732 3763,7925 3703,8159 3626,8414 3541,8681 3453,8928 3368,9194 3290,9447 3207,9696 3107,9936 3009,10149 2923,10345 2857,10522 2809,10700 2764,10866 2723,11020 2688,11160 2671,11266 2655,11365 2646,11418 2656,11440 2645,11443 2645,11423 2638,11381 2619,11310 2588,11202 2554,11060 2501,10896 2435,10701 2360,10499 2281,10272 2215,10025 2157,9755 2096,9475 2018,9193 1931,8945 1832,8710 1727,8471 1649,8238 1590,8016 1526,7829 1466,7681 1404,7579 1348,7505 1307,7467 1303,7455 1301,7455 1311,7463 " style="fill: white; stroke: black; stroke-width: 30" />
<polyline points="2533,7490 2877,7459 3251,7415 3597,7368 3868,7339 4041,7321 4111,7310 4122,7301 4120,7293 4107,7292 4096,7290 4087,7288 4079,7290 4075,7289 4075,7285 " style="fill: white; stroke: black; stroke-width: 30" />
<polyline points="2819,11420 2847,11456 2884,11492 2877,11529 2866,11560 2836,11615 2788,11664 2754,11683 2726,11683 2695,11665 2676,11631 2688,11569 2748,11514 2840,11474 2882,11471 2924,11491 2930,11534 2917,11587 2869,11641 2837,11659 2771,11663 2724,11634 2674,11562 2666,11496 2664,11456 2728,11419 2829,11412 2904,11448 2961,11512 2976,11562 2940,11600 2884,11618 2852,11612 2806,11599 2779,11575 2786,11553 2796,11529 2857,11477 2920,11445 2945,11450 2942,11456 2921,11466 2906,11483 2891,11510 2874,11536 2858,11570 2851,11600 2852,11603 " style="fill: white; stroke: black; stroke-width: 30" />
<polyline points="1560,7643 1545,7636 1553,7613 1572,7558 1599,7501 1625,7452 1658,7421 1683,7426 1714,7470 1744,7542 1746,7612 1727,7667 1675,7705 1632,7713 1593,7694 1564,7647 1550,7582 1552,7532 1561,7501 1597,7475 1658,7455 1727,7463 1777,7502 1787,7554 1755,7604 1692,7634 1633,7638 1579,7620 1549,7580 1545,7526 1554,7475 1575,7449 1615,7437 1677,7450 1737,7489 1760,7541 1739,7594 1678,7636 1592,7639 1553,7616 1530,7582 1542,7512 1564,7463 1596,7441 1652,7443 1694,7473 1719,7525 1713,7575 1680,7606 1618,7617 1575,7599 1549,7555 1550,7498 1568,7463 1608,7448 1655,7458 1713,7498 1726,7550 1696,7595 1617,7618 1553,7607 1529,7579 1529,7537 1556,7466 1590,7443 1622,7446 1666,7469 1693,7526 1675,7586 1635,7622 1592,7620 1556,7589 1545,7533 1558,7476 1591,7445 1644,7441 1696,7468 1728,7523 1722,7582 1691,7614 1648,7611 1613,7586 1600,7544 1595,7512 1600,7493 1616,7494 1652,7506 1676,7545 1688,7586 1663,7611 1614,7605 1569,7588 1544,7538 1552,7492 1569,7466 1608,7456 1645,7468 1674,7509 1675,7542 1660,7557 1625,7552 1594,7528 1592,7495 1593,7486 1604,7488 1630,7498 1637,7528 1630,7555 1614,7560 1595,7554 1589,7534 1588,7507 1596,7494 1618,7492 1643,7506 1646,7526 1635,7541 1602,7546 1585,7542 1576,7524 1578,7509 1589,7495 1601,7491 1620,7494 1631,7509 1625,7517 1617,7517 1615,7514 1612,7505 1602,7491 1599,7488 1597,7484 1604,7480 1607,7483 1606,7484 1613,7483 1614,7485 1612,7483 1616,7478 1616,7480 1613,7480 1613,7478 1609,7481 1607,7482 1610,7480 1611,7480 1610,7480 1607,7480 1611,7480 1611,7479 1609,7476 1614,7476 1621,7475 1612,7476 1621,7476 1618,7476 1621,7469 " style="fill: white; stroke: black; stroke-width: 30" />
<polyline points="2327,11156 2299,11138 2261,11136 2246,11150 2220,11214 2216,11334 2236,11469 2295,11600 2370,11708 2435,11795 " style="fill: white; stroke: black; stroke-width: 30" />
<polyline points="4403,7150 4398,7138 4392,7135 4381,7138 4373,7144 4366,7154 4351,7174 4345,7196 4343,7222 4330,7253 4312,7284 4308,7314 4300,7341 4292,7369 4286,7400 4273,7440 4271,7464 4261,7492 4258,7518 4254,7549 4240,7590 4223,7625 4210,7661 4192,7710 4185,7746 4169,7791 4155,7832 4148,7871 4142,7905 4134,7943 4117,7986 4104,8024 4090,8060 4081,8097 4074,8131 4056,8178 4046,8219 4030,8256 4016,8299 4012,8335 3997,8373 3989,8412 3976,8447 3963,8488 3958,8526 3954,8568 3952,8598 3943,8645 3928,8693 3913,8743 3904,8791 3893,8835 3873,8879 3865,8927 3854,8978 3841,9026 3822,9081 3807,9129 3797,9180 3788,9232 3780,9283 3758,9339 3744,9393 3731,9455 3710,9510 3694,9566 3669,9630 3650,9681 3620,9746 3598,9800 3587,9843 3559,9898 3543,9943 3531,9991 3522,10030 3509,10071 3504,10100 3490,10141 3473,10175 3466,10204 3462,10239 3442,10268 3452,10297 3448,10318 3439,10340 3437,10363 3436,10381 3430,10405 3418,10429 3426,10457 3413,10479 3406,10502 3402,10524 3398,10541 3396,10556 3393,10577 3388,10590 3390,10602 3394,10617 3382,10631 3384,10649 3367,10677 3368,10702 3363,10740 3347,10780 3343,10835 3338,10879 3339,10930 3337,10979 3317,11021 3307,11076 3308,11127 3283,11173 3284,11210 3272,11252 3264,11281 3259,11316 3243,11351 3227,11379 3221,11412 3203,11451 3190,11492 3173,11533 3151,11580 3140,11627 3119,11676 3094,11723 3066,11775 3046,11820 3021,11867 2993,11911 2961,11963 2932,12005 2906,12038 2859,12082 2820,12113 2787,12143 2723,12178 2672,12205 2600,12234 2545,12253 2490,12260 2430,12266 2372,12269 2308,12269 2249,12252 2215,12233 2163,12214 2139,12187 2093,12169 2048,12143 1999,12107 1959,12075 1917,12034 1888,11987 1853,11941 1838,11885 1823,11822 1789,11760 1781,11693 1770,11621 1754,11543 1765,11465 1749,11391 1741,11323 1743,11250 1743,11176 1759,11095 1776,11013 1803,10927 1840,10841 1856,10757 1896,10667 1934,10577 1985,10488 2058,10380 2105,10274 2168,10159 2212,10055 2263,9956 2325,9849 2366,9739 2423,9621 2469,9504 2513,9391 2569,9277 2613,9160 2670,9039 2733,8919 2775,8800 2827,8666 2872,8540 2902,8418 2942,8297 2962,8184 2991,8066 3003,7960 3015,7867 3032,7778 3020,7707 3023,7636 3003,7582 3007,7534 3005,7479 3001,7438 2999,7406 2990,7374 2988,7346 2982,7322 2970,7291 2964,7263 2953,7235 2939,7212 2933,7185 2910,7165 2904,7137 2891,7116 2870,7098 2860,7081 2850,7059 2841,7051 2845,7044 2829,7039 2825,7029 2815,7024 2803,7018 2801,7009 2799,7007 2793,7009 2790,7005 2793,7008 2791,7009 2791,7007 2785,7011 2783,7013 2790,7011 2785,7015 2787,7015 2785,7015 2779,7020 2781,7022 2784,7022 2779,7025 2781,7025 2777,7025 2763,7030 2730,7038 2696,7048 2653,7063 2608,7074 2568,7079 2534,7088 2492,7092 2441,7105 2402,7118 2366,7132 2331,7146 2318,7156 2297,7168 2268,7191 2243,7217 2227,7238 2211,7258 2205,7275 2193,7297 2173,7328 2163,7348 2164,7366 2153,7407 2146,7438 2145,7482 2135,7525 2143,7560 2146,7597 2154,7638 2157,7696 2171,7734 2188,7784 2205,7837 2238,7888 2264,7941 2289,7994 2315,8047 2358,8107 2403,8155 2438,8211 2481,8260 2511,8313 2551,8363 2584,8414 2621,8464 2660,8520 2685,8574 2715,8628 2736,8686 2771,8742 2801,8815 2821,8878 2839,8932 2859,8989 2881,9049 2904,9110 2921,9170 2940,9210 2951,9240 2963,9267 2967,9274 2975,9273 2968,9277 2974,9276 2972,9276 2969,9278 2980,9276 2978,9275 2972,9277 2971,9277 2974,9276 2980,9276 2987,9278 2996,9275 " style="fill: white; stroke: black; stroke-width: 30" />
<polyline points="2937,9420 2965,9465 2992,9504 3000,9526 2998,9532 3003,9528 3012,9517 3039,9470 3062,9379 3078,9283 3095,9204 3120,9145 3125,9100 3142,9052 3147,9038 3143,9038 3153,9033 3144,9035 3146,9035 3149,9033 3146,9030 3148,9031 3150,9028 3141,9031 3148,9031 3143,9031 3147,9031 3144,9035 3144,9035 3146,9035 3148,9041 3140,9046 3148,9049 3145,9055 3144,9059 3147,9062 3144,9065 3146,9065 3144,9064 3149,9062 3148,9058 3139,9057 3143,9057 3149,9052 3141,9051 " style="fill: white; stroke: black; stroke-width: 30" />
<polyline points="4623,16600 " style="fill: white; stroke: black; stroke-width: 30" />
<polyline points="-3697,10702 -3720,10700 -3724,10705 -3737,10702 -3728,10708 -3740,10704 -3738,10704 -3732,10706 -3699,10708 -3652,10702 -3604,10699 -3507,10693 -3299,10688 -3048,10694 -2795,10697 -2566,10697 -2335,10719 -2124,10736 -1949,10750 -1813,10763 -1747,10770 -1732,10772 -1730,10773 -1728,10774 -1732,10772 -1732,10774 -1738,10771 -1730,10771 " style="fill: white; stroke: black; stroke-width: 30" />
<polyline points="-1648,10760 -1643,10753 -1653,10753 -1657,10765 -1666,10794 -1670,10863 -1673,10984 -1678,11115 -1674,11239 -1680,11340 -1669,11418 -1670,11484 -1667,11511 -1661,11534 -1657,11539 -1673,11540 -1664,11538 -1666,11537 -1664,11539 -1659,11538 -1659,11535 -1651,11538 -1668,11535 -1661,11535 -1648,11534 " style="fill: white; stroke: black; stroke-width: 30" />
<polyline points="-1763,11476 -1784,11485 -1799,11495 -1782,11531 -1769,11591 -1759,11647 -1726,11690 -1702,11728 -1696,11750 -1692,11755 -1686,11754 -1683,11750 -1682,11733 -1663,11673 -1631,11588 -1597,11524 -1567,11484 -1557,11457 -1539,11435 -1539,11418 -1538,11412 -1538,11411 -1540,11414 -1542,11412 -1546,11411 -1542,11413 -1544,11412 -1551,11410 " style="fill: white; stroke: black; stroke-width: 30" />
<polyline points="-1742,10821 -1748,10820 -1744,10823 -1736,10825 -1741,10828 -1742,10832 -1744,10837 -1744,10847 -1750,10857 -1764,10864 -1778,10873 -1782,10885 -1801,10899 -1810,10915 -1830,10929 -1845,10943 -1865,10960 -1887,10973 -1908,10994 -1921,11011 -1946,11025 -1970,11042 -1998,11063 -2018,11080 -2040,11102 -2065,11121 -2097,11139 -2133,11161 -2154,11178 -2178,11199 -2217,11216 -2236,11234 -2258,11242 -2261,11246 -2285,11257 -2313,11271 -2332,11289 -2375,11311 -2405,11323 -2424,11337 -2449,11357 -2480,11365 -2499,11377 -2523,11392 -2558,11402 -2571,11413 -2595,11426 -2615,11440 -2628,11450 -2637,11457 -2660,11467 -2671,11472 -2688,11477 -2706,11481 -2714,11485 -2716,11486 -2711,11486 -2718,11484 -2723,11485 -2712,11487 -2713,11485 -2716,11484 -2735,11478 -2728,11475 -2721,11476 -2734,11472 -2729,11470 -2742,11466 -2741,11461 -2740,11457 -2735,11456 -2752,11449 -2747,11447 -2747,11447 -2750,11441 -2758,11434 " style="fill: white; stroke: black; stroke-width: 30" />
<polyline points="-2758,11345 -2775,11309 -2776,11269 -2779,11242 -2780,11216 -2781,11185 -2792,11162 -2789,11149 -2780,11123 -2801,11105 -2791,11093 -2797,11061 -2805,11038 -2791,11029 -2798,11019 -2806,11016 -2817,11007 -2813,10997 -2829,10989 -2820,10982 -2819,10977 -2831,10971 -2813,10972 -2822,10961 -2819,10950 -2812,10940 -2821,10921 -2827,10912 -2831,10899 -2820,10881 -2828,10868 -2829,10854 -2821,10850 -2836,10847 -2837,10843 -2833,10843 -2845,10839 -2843,10838 -2835,10834 -2846,10827 -2845,10820 -2831,10811 -2851,10801 -2839,10798 -2853,10791 -2846,10790 -2848,10788 -2843,10788 -2856,10786 -2850,10787 -2844,10784 -2845,10786 -2859,10781 -2861,10779 -2852,10779 -2850,10779 -2849,10777 -2854,10777 -2858,10774 -2855,10773 -2845,10777 -2852,10777 -2849,10777 -2852,10778 -2850,10781 -2842,10783 -2850,10789 -2856,10796 -2877,10804 -2906,10821 -2932,10842 -2967,10862 -2996,10877 -3021,10884 -3028,10897 -3050,10910 -3058,10919 -3078,10934 -3113,10951 -3136,10960 -3163,10974 -3166,10985 -3184,10990 -3197,10994 -3224,11008 -3240,11014 -3259,11023 -3299,11031 -3303,11046 -3318,11055 -3330,11058 -3334,11063 -3351,11062 -3346,11070 -3374,11075 -3404,11080 -3413,11088 -3440,11098 -3473,11112 -3502,11119 -3535,11132 -3559,11140 -3568,11146 -3575,11146 -3586,11140 -3581,11142 -3577,11142 -3576,11140 " style="fill: white; stroke: black; stroke-width: 30" />
<polyline points="-2850,11275 -2862,11276 -2865,11278 -2889,11283 -2939,11305 -3008,11345 -3078,11391 -3159,11445 -3225,11494 -3257,11522 -3286,11530 -3279,11530 -3280,11523 -3293,11520 -3286,11520 -3283,11519 " style="fill: white; stroke: black; stroke-width: 30" />
<polyline points="-3384,11702 -3382,11701 -3387,11695 -3375,11696 -3379,11691 -3380,11688 -3391,11684 -3384,11685 -3386,11683 -3383,11680 -3388,11679 -3390,11679 -3396,11675 -3387,11678 -3392,11676 -3399,11676 -3391,11681 -3386,11681 -3379,11682 -3400,11679 -3393,11681 -3388,11681 -3386,11683 -3389,11683 -3381,11682 " style="fill: white; stroke: black; stroke-width: 30" />
<polyline points="-3461,11583 -3463,11582 -3466,11583 -3460,11589 -3466,11590 -3472,11602 -3468,11640 -3471,11693 -3468,11735 -3473,11769 -3467,11808 -3471,11829 -3467,11842 -3470,11843 -3460,11846 -3454,11851 -3463,11846 -3471,11840 -3455,11845 -3445,11845 -3446,11841 -3446,11841 -3460,11837 -3459,11833 " style="fill: white; stroke: black; stroke-width: 30" />
<polyline points="-3717,11556 " style="fill: white; stroke: black; stroke-width: 30" />
<polyline points="-3668,11528 -3651,11535 -3656,11536 -3662,11539 -3680,11542 -3666,11552 -3672,11564 -3674,11580 -3680,11590 -3675,11605 -3674,11627 -3666,11641 -3657,11646 -3648,11655 -3644,11650 -3621,11635 -3595,11623 -3596,11601 -3588,11575 -3602,11546 -3597,11530 -3607,11516 -3603,11509 -3628,11503 -3633,11501 -3659,11498 -3670,11509 -3689,11515 -3690,11524 -3723,11527 -3700,11542 -3705,11542 -3716,11543 -3707,11546 -3703,11549 -3726,11545 -3705,11549 -3707,11547 -3706,11551 " style="fill: white; stroke: black; stroke-width: 30" />
<polyline points="-3792,11608 -3801,11606 -3806,11604 -3808,11603 -3808,11603 -3807,11601 -3815,11602 -3808,11604 -3813,11602 -3804,11606 -3804,11605 -3803,11604 -3810,11602 -3804,11604 -3814,11598 -3810,11600 -3812,11599 -3813,11596 -3828,11595 -3807,11598 -3818,11594 -3821,11594 -3820,11593 -3827,11590 " style="fill: white; stroke: black; stroke-width: 30" />
<polyline points="-3828,11585 -3822,11592 -3811,11596 -3837,11597 " style="fill: white; stroke: black; stroke-width: 30" />
<polyline points="-3928,11634 -3920,11640 -3933,11641 -3927,11647 -3943,11647 -3938,11648 -3923,11648 -3909,11647 -3898,11630 -3879,11587 -3852,11528 -3823,11469 -3776,11433 -3760,11409 -3765,11392 -3748,11380 -3748,11369 -3751,11363 -3747,11360 -3746,11363 -3745,11361 -3731,11364 -3735,11362 " style="fill: white; stroke: black; stroke-width: 30" />
<polyline points="-3828,11502 -3839,11495 -3840,11492 -3830,11491 -3836,11494 -3827,11497 -3823,11501 -3828,11509 -3793,11533 -3789,11559 -3788,11573 -3768,11589 -3765,11594 -3763,11603 -3770,11612 -3770,11612 -3758,11621 " style="fill: white; stroke: black; stroke-width: 30" />
<polyline points="-3809,10904 " style="fill: white; stroke: black; stroke-width: 30" />
<polyline points="-3964,11386 -3957,11395 -3956,11400 -3954,11401 -3931,11414 -3910,11421 -3847,11421 -3791,11402 -3741,11387 -3697,11381 -3648,11383 -3624,11377 -3585,11374 -3575,11372 -3560,11369 -3551,11366 -3552,11362 " style="fill: white; stroke: black; stroke-width: 30" />
<polyline points="-3524,11341 " style="fill: white; stroke: black; stroke-width: 30" />
<polyline points="-3595,11300 -3595,11309 -3596,11312 -3607,11308 -3597,11299 -3602,11269 -3599,11228 -3595,11178 -3588,11140 -3592,11105 -3589,11095 -3582,11089 -3576,11085 -3586,11081 -3580,11084 -3575,11084 -3592,11084 " style="fill: white; stroke: black; stroke-width: 30" />
<polyline points="-3684,11137 -3693,11164 -3695,11193 -3711,11211 -3704,11218 -3698,11224 -3684,11233 -3675,11236 -3654,11233 -3639,11216 -3623,11180 -3599,11143 -3594,11112 -3583,11100 -3581,11094 -3587,11091 -3582,11090 -3605,11086 -3608,11089 -3607,11093 -3612,11092 -3619,11093 -3640,11090 -3631,11092 -3644,11093 -3626,11100 -3638,11099 -3641,11101 -3652,11097 -3645,11099 " style="fill: white; stroke: black; stroke-width: 30" />
<polyline points="-3826,11192 -3811,11140 -3770,11106 -3764,11090 -3760,11082 -3775,11076 -3770,11078 -3763,11077 -3767,11075 " style="fill: white; stroke: black; stroke-width: 30" />
<polyline points="-3925,11081 -3937,11082 -3928,11085 -3933,11091 -3904,11114 -3897,11137 -3865,11182 -3823,11222 -3763,11265 " style="fill: white; stroke: black; stroke-width: 30" />
<polyline points="-1672,16350 " style="fill: white; stroke: black; stroke-width: 30" />
<polyline points="8317,6423 " style="fill: white; stroke: black; stroke-width: 30" />
<polyline points="-1910,8781 -1771,8780 -1658,8777 -1575,8781 -1521,8791 -1492,8797 -1477,8800 -1472,8801 -1470,8799 -1469,8800 -1470,8798 -1468,8796 " style="fill: white; stroke: black; stroke-width: 30" />
<polyline points="-1731,8611 -1693,8559 -1660,8500 -1626,8454 -1586,8412 -1547,8374 -1498,8332 -1443,8286 -1380,8243 -1326,8211 -1270,8182 -1211,8153 -1157,8132 -1103,8108 -1048,8083 -989,8064 -938,8044 -889,8025 -846,8013 -808,8007 -769,8000 -732,7997 -696,7995 -653,7991 -615,7991 -562,7990 -501,7988 -445,7990 -373,7995 -291,7997 -227,8015 -183,8030 -138,8049 -100,8074 -62,8090 -34,8111 -5,8138 18,8166 40,8189 54,8213 86,8239 111,8276 140,8320 170,8363 201,8413 231,8470 260,8519 281,8576 296,8636 325,8708 341,8770 370,8831 374,8893 396,8960 398,9016 406,9074 417,9138 420,9198 428,9262 419,9333 422,9401 411,9483 405,9551 397,9633 396,9699 390,9767 372,9841 350,9910 319,9977 284,10034 244,10093 209,10148 163,10188 114,10227 65,10256 0,10285 -72,10310 -148,10321 -227,10331 -323,10343 -405,10351 -506,10361 -607,10370 -708,10375 -797,10378 -874,10380 -957,10380 -1043,10379 -1124,10376 -1207,10368 -1290,10359 -1366,10338 -1430,10310 -1498,10279 -1548,10242 -1580,10202 -1604,10149 -1613,10090 -1616,10022 -1622,9964 -1615,9915 -1610,9883 -1604,9849 -1591,9827 -1592,9799 -1588,9785 -1600,9777 -1590,9771 -1592,9770 -1593,9765 -1590,9760 " style="fill: white; stroke: black; stroke-width: 30" />
<polyline points="-1784,9913 -1788,9908 -1757,9889 -1704,9852 -1666,9804 -1625,9742 -1596,9679 -1571,9627 -1546,9589 -1535,9557 -1525,9527 -1513,9509 -1505,9499 -1517,9500 -1512,9505 -1507,9510 -1509,9525 -1477,9572 -1444,9639 -1399,9705 -1360,9752 -1311,9801 -1281,9844 -1250,9888 -1234,9914 " style="fill: white; stroke: black; stroke-width: 30" />
<polyline points="2259,10107 2243,10108 2234,10105 2222,10104 2230,10105 2274,10107 2395,10095 2574,10074 2754,10054 2936,10030 3061,10025 3157,10020 3185,10019 3193,10017 3188,10014 3187,10012 3192,10013 3196,10011 3195,10009 3198,10011 3208,10008 3218,10005 3202,10003 " style="fill: white; stroke: black; stroke-width: 30" />
<polyline points="1744,8446 1747,8445 1771,8442 1818,8441 1866,8441 1925,8436 2010,8429 2099,8415 2192,8403 2288,8394 2397,8389 2523,8380 2651,8367 2778,8357 2894,8355 3017,8352 3130,8355 3240,8358 3364,8355 3486,8345 3588,8334 3657,8335 3701,8331 3718,8332 3722,8333 3714,8334 3721,8330 3719,8332 3719,8331 3719,8331 3730,8328 3725,8331 3745,8329 3778,8329 3803,8330 3827,8328 3837,8336 3838,8338 3843,8335 3845,8336 3841,8336 3844,8333 3836,8338 3837,8336 3839,8331 3838,8333 3843,8330 3840,8329 3850,8324 3846,8324 3852,8318 3859,8314 3862,8313 3860,8313 3859,8315 3859,8314 3842,8320 3849,8317 3853,8315 3849,8313 3850,8314 3846,8315 3855,8312 " style="fill: white; stroke: black; stroke-width: 30" />
<polyline points="-2943,10903 -2951,10898 -2948,10895 -2950,10886 -2955,10870 -2939,10852 -2940,10832 -2936,10822 -2928,10821 -2929,10822 -2921,10825 -2933,10830 -2921,10845 -2929,10873 -2941,10901 -2956,10918 -2976,10922 -2982,10926 -2983,10924 -2979,10918 -2984,10911 -2991,10902 -2976,10898 -2978,10894 -2963,10893 -2935,10895 -2931,10901 -2935,10906 -2940,10914 -2947,10924 -2959,10928 -2967,10925 -2989,10921 -2992,10907 -2998,10894 -2979,10882 -2984,10868 -2985,10861 -2954,10865 -2932,10877 -2919,10898 -2929,10917 -2928,10933 -2944,10939 -2960,10939 -2972,10933 -2985,10921 -2989,10904 -2979,10875 -2968,10860 -2974,10855 -2959,10858 -2925,10876 -2918,10901 -2920,10927 -2927,10944 -2943,10946 -2953,10938 -2965,10924 -2981,10906 -2986,10884 -2993,10865 -2985,10855 -2968,10851 -2946,10852 -2924,10872 -2907,10895 -2899,10916 -2898,10940 -2919,10957 -2939,10963 -2961,10961 -2976,10948 -2986,10927 -3000,10894 -3004,10858 -2993,10850 -2970,10850 -2961,10850 -2925,10870 -2920,10894 -2930,10912 -2950,10928 -2969,10937 -2972,10942 -2988,10934 -2979,10925 -2986,10911 -2991,10901 -2984,10900 -2983,10897 -2977,10899 " style="fill: white; stroke: black; stroke-width: 30" />
<polyline points="4976,18226 " style="fill: white; stroke: black; stroke-width: 30" />
<polyline points="-1442,9758 -1439,9747 -1444,9742 -1453,9741 -1456,9747 -1461,9753 -1459,9767 -1450,9798 -1438,9846 -1432,9886 -1433,9931 -1415,9988 -1408,10046 -1391,10098 -1374,10144 -1355,10178 -1336,10230 -1307,10272 -1283,10302 -1255,10337 -1230,10371 -1193,10404 -1168,10432 -1146,10451 -1102,10473 -1078,10491 -1037,10505 -994,10515 -952,10524 -895,10532 -832,10531 -762,10530 -682,10528 -609,10522 -511,10513 -409,10494 -301,10468 -193,10441 -96,10416 -4,10390 80,10368 164,10329 245,10285 325,10244 378,10213 417,10178 447,10154 471,10122 474,10097 490,10079 492,10046 511,10008 529,9974 553,9937 557,9901 559,9870 582,9820 590,9761 597,9702 614,9638 610,9576 608,9517 616,9449 613,9366 610,9295 611,9225 607,9140 607,9079 596,9016 591,8939 580,8879 571,8812 565,8749 555,8697 539,8639 524,8590 500,8537 468,8484 435,8421 394,8361 357,8304 301,8251 241,8202 184,8157 111,8113 43,8071 -38,8039 -113,8003 -199,7983 -284,7973 -369,7965 -457,7965 -541,7965 -622,7970 -702,7991 -783,8018 -882,8046 -982,8074 -1080,8092 -1166,8116 -1264,8151 -1350,8190 -1432,8221 -1508,8257 -1565,8288 -1605,8327 -1622,8373 -1631,8412 -1637,8451 -1642,8493 -1658,8524 -1661,8562 -1676,8601 -1684,8629 -1705,8654 -1710,8681 -1716,8704 -1726,8722 -1716,8732 -1715,8736 -1713,8736 -1714,8737 -1711,8735 -1711,8734 -1701,8736 -1706,8733 -1716,8747 " style="fill: white; stroke: black; stroke-width: 30" />
<polyline points="-2006,8764 -2016,8771 -2011,8772 -2010,8773 -1994,8782 -1948,8797 -1886,8806 -1795,8828 -1691,8832 -1609,8833 -1545,8841 -1531,8841 -1531,8840 -1540,8842 -1538,8842 -1526,8841 -1521,8841 " style="fill: white; stroke: black; stroke-width: 30" />
<polyline points="2958,5126 3185,5087 3435,5053 3696,5010 3978,4959 4200,4922 4365,4900 4509,4880 4635,4868 4741,4855 4819,4842 4847,4839 4855,4846 4853,4847 4852,4841 4846,4845 4839,4848 4839,4843 4837,4843 4838,4841 4832,4843 4838,4837 4834,4841 4833,4839 4837,4838 4836,4837 4833,4839 4837,4838 4835,4838 4835,4838 4838,4840 4833,4844 4832,4845 4839,4843 4836,4847 4832,4851 4834,4853 4834,4856 4831,4859 4835,4859 4828,4868 4827,4872 4831,4873 4830,4875 4834,4871 4838,4870 4836,4872 4838,4870 4844,4866 4840,4867 4841,4862 4845,4857 4850,4851 4847,4851 4852,4848 4849,4848 4849,4846 4853,4844 4849,4848 4850,4844 4848,4847 4851,4845 4848,4845 4846,4847 4848,4846 4848,4844 4844,4847 4842,4849 4842,4848 4839,4850 4836,4853 4836,4850 4840,4849 4836,4853 4839,4850 4841,4849 4839,4851 4840,4849 4842,4851 4842,4850 4843,4849 4848,4846 4840,4852 4839,4853 4845,4849 4839,4853 4833,4858 4841,4855 4834,4864 4835,4864 4842,4862 4838,4865 4839,4866 4843,4865 4838,4870 4843,4864 4842,4867 4844,4866 4844,4863 4844,4864 4845,4862 4848,4857 4845,4862 4849,4858 4848,4857 4847,4861 4851,4858 4850,4855 4844,4864 4847,4861 4850,4857 4844,4863 4849,4859 4851,4855 4850,4860 4852,4859 4857,4854 4859,4858 4860,4857 4859,4856 4859,4858 4858,4859 4860,4854 " style="fill: white; stroke: black; stroke-width: 30" />
<polyline points="3440,13951 " style="fill: white; stroke: black; stroke-width: 30" />
<polyline points="2822,10457 2815,10485 2812,10536 2802,10587 2790,10602 2796,10599 2795,10589 2781,10574 2762,10554 2774,10539 2774,10530 2787,10505 2805,10491 2811,10490 2829,10498 2832,10524 2825,10548 2803,10575 2787,10582 2761,10575 2760,10553 2756,10545 2760,10519 2773,10494 2787,10479 2809,10471 2818,10482 2837,10513 2843,10551 2835,10587 2836,10608 2813,10620 2813,10615 2813,10606 2812,10578 2809,10557 2818,10541 2817,10537 2834,10532 2847,10540 2856,10543 2863,10545 2858,10558 2849,10567 2832,10577 2822,10581 2813,10579 2817,10569 2820,10565 2815,10562 2822,10555 2820,10557 2836,10552 2830,10551 2833,10555 2831,10556 2832,10559 2824,10563 2823,10566 2822,10563 " style="fill: white; stroke: black; stroke-width: 30" />
<polyline points="-982,18158 " style="fill: white; stroke: black; stroke-width: 30" />

</svg>