<?xml version="1.0" standalone="no"?>
<!DOCTYPE svg PUBLIC "-//W3C//DTD SVG 1.1//EN" "http://www.w3.org/Graphics/SVG/1.1/DTD/svg11.dtd">
<svg width="210mm" height="297mm" viewBox="-7000 500 14000 20000" version="1.1" xmlns="http://www.w3.org/2000/svg">

<polyline points="-3144,1732 -3142,1718 -3133,1715 -3131,1708 -3120,1695 -3111,1666 -3103,1629 -3105,1624 -3106,1632 -3104,1686 -3098,1788 -3102,1894 -3099,1967 -3095,2005 -3092,2004 -3090,1972 -3087,1877 -3105,1766 -3119,1649 -3131,1601 -3131,1601 -3132,1614 -3123,1667 -3113,1754 -3089,1817 -3046,1854 -2987,1844 -2932,1819 -2898,1795 -2891,1790 -2883,1801 -2880,1837 -2878,1887 -2866,1921 -2843,1919 -2783,1900 -2717,1875 -2689,1876 -2677,1911 -2681,1975 -2672,2021 -2660,2037 -2637,2031 -2607,2010 -2579,1990 -2559,1971 -2539,1956 -2530,1956 -2526,1967 -2525,1997 -2521,2051 -2523,2093 -2522,2119 -2520,2126 -2515,2125 -2506,2120 -2495,2109 " style="fill: white; stroke: black; stroke-width: 30" />
<polyline points="-2295,2005 -2293,1997 -2276,1991 -2250,1982 -2208,1970 -2172,1964 -2145,1956 -2136,1951 -2141,1940 -2167,1926 -2211,1918 -2257,1939 -2273,1975 -2273,2019 -2252,2069 -2214,2113 -2154,2130 -2061,2104 " style="fill: white; stroke: black; stroke-width: 30" />
<polyline points="-1892,1962 -1911,1947 -1937,1939 -1957,1948 -1977,1967 -1981,2008 -1963,2071 -1941,2146 -1934,2205 -1945,2238 -1966,2245 -1997,2234 -2029,2194 -2042,2165 -2029,2132 -1970,2085 " style="fill: white; stroke: black; stroke-width: 30" />
<polyline points="-1794,1966 -1746,1932 -1746,1926 -1766,1948 -1802,2000 -1836,2066 -1848,2103 -1836,2117 -1812,2122 -1766,2129 -1709,2115 -1629,2076 -1541,2001 -1478,1939 -1446,1900 -1439,1893 -1443,1902 -1461,1948 -1480,2007 -1486,2042 -1483,2060 -1478,2088 -1469,2123 -1462,2131 -1432,2111 -1372,2072 -1322,2051 -1292,2044 -1280,2039 -1283,2040 -1289,2035 -1302,2040 -1335,2061 -1360,2089 -1363,2108 -1341,2126 -1299,2134 -1247,2128 -1200,2106 -1166,2092 -1142,2093 -1122,2105 -1102,2120 -1083,2137 -1073,2142 -1056,2141 " style="fill: white; stroke: black; stroke-width: 30" />
<polyline points="557,2030 554,2032 549,2029 549,2029 549,2024 548,2021 536,2009 510,2002 455,2011 383,2043 310,2084 260,2144 252,2201 282,2254 356,2296 466,2309 585,2284 " style="fill: white; stroke: black; stroke-width: 30" />
<polyline points="810,2022 797,2019 789,2018 781,2024 764,2047 741,2101 717,2157 715,2203 724,2228 749,2247 807,2256 870,2267 897,2282 908,2302 918,2315 946,2323 " style="fill: white; stroke: black; stroke-width: 30" />
<polyline points="1119,2192 1120,2184 1119,2176 1109,2167 1077,2162 1025,2179 971,2202 933,2239 927,2266 943,2291 984,2300 1044,2295 1077,2275 1084,2263 1077,2254 1072,2245 1065,2230 1061,2202 1056,2157 " style="fill: white; stroke: black; stroke-width: 30" />
<polyline points="1042,2032 1038,2024 1063,2016 1113,2010 1179,2006 1267,2031 " style="fill: white; stroke: black; stroke-width: 30" />
<polyline points="1266,2298 1280,2282 1307,2246 1344,2216 1365,2204 1376,2209 1391,2223 1409,2250 1424,2276 1438,2293 " style="fill: white; stroke: black; stroke-width: 30" />
<polyline points="1573,2244 1553,2242 1555,2239 1575,2232 1612,2216 1642,2213 1659,2230 1660,2261 1659,2287 1669,2300 1716,2295 1787,2276 1830,2249 1838,2241 1812,2246 1768,2262 1739,2288 1743,2309 1772,2336 1847,2375 " style="fill: white; stroke: black; stroke-width: 30" />
<polyline points="2658,1851 2656,1854 2647,1893 2632,1967 2607,2069 2582,2172 2569,2245 2570,2289 2572,2296 2579,2291 2604,2258 2641,2226 2664,2218 2680,2226 2687,2245 2682,2270 2667,2293 2646,2313 2620,2317 2597,2312 2563,2292 2544,2258 2536,2241 " style="fill: white; stroke: black; stroke-width: 30" />
<polyline points="2764,2350 2768,2340 2777,2324 2809,2283 2848,2226 2878,2198 2886,2191 2887,2195 2892,2201 2911,2222 2919,2256 2920,2309 2916,2355 2912,2400 2918,2417 2926,2423 " style="fill: white; stroke: black; stroke-width: 30" />
<polyline points="3031,2143 3024,2093 3014,2062 3008,2061 3007,2068 3013,2101 " style="fill: white; stroke: black; stroke-width: 30" />
<polyline points="3004,2381 3045,2364 3101,2339 3155,2322 3179,2320 3191,2339 3194,2369 3208,2400 3239,2415 3285,2414 3312,2389 3320,2358 3308,2332 3284,2330 3257,2338 3247,2369 3247,2407 3251,2440 3256,2473 3263,2492 3261,2496 3267,2495 3274,2489 3285,2481 3292,2474 3294,2474 3287,2480 3282,2496 3265,2542 3236,2611 3196,2666 3144,2714 3108,2729 3098,2718 3098,2680 3129,2608 3198,2536 3300,2480 3424,2420 3544,2353 3599,2291 3590,2273 3543,2277 3519,2287 3518,2302 3568,2332 3687,2389 " style="fill: white; stroke: black; stroke-width: 30" />
<polyline points="-2844,3066 -2829,3057 -2779,3038 -2695,3008 -2590,2955 -2509,2899 -2476,2860 -2491,2834 -2535,2813 -2594,2808 -2643,2824 -2674,2856 -2679,2897 -2664,2940 -2618,2983 -2541,3004 -2429,2993 " style="fill: white; stroke: black; stroke-width: 30" />
<polyline points="-2147,2803 -2177,2793 -2199,2794 -2205,2797 -2201,2814 -2194,2862 -2190,2927 -2203,2996 -2220,3029 -2243,3037 -2265,3023 -2286,3004 -2306,2977 -2317,2965 " style="fill: white; stroke: black; stroke-width: 30" />
<polyline points="-837,2800 -844,2783 -850,2769 -860,2751 -882,2739 -932,2761 -996,2818 -1054,2907 -1069,2973 -1042,3019 -983,3026 -877,2991 -762,2911 -676,2825 -639,2766 -640,2750 -654,2756 -696,2815 -727,2879 -723,2922 -692,2949 -633,2984 -587,3028 -567,3062 -547,3088 -512,3082 -433,3039 -363,3004 -323,2988 -320,2997 -335,3014 -354,3048 -364,3071 -360,3094 -336,3103 " style="fill: white; stroke: black; stroke-width: 30" />
<polyline points="-179,2730 -201,2698 -207,2698 -207,2721 " style="fill: white; stroke: black; stroke-width: 30" />
<polyline points="-180,3091 -187,3086 -171,3069 -115,3030 -58,3012 -21,3027 5,3065 19,3122 31,3163 59,3199 " style="fill: white; stroke: black; stroke-width: 30" />
<polyline points="379,2984 365,2973 327,2974 265,3004 213,3051 199,3119 204,3176 231,3209 279,3204 381,3130 498,3020 586,2906 616,2845 611,2829 605,2829 598,2833 591,2854 577,2915 571,2984 577,3079 610,3182 682,3307 " style="fill: white; stroke: black; stroke-width: 30" />
<polyline points="-2780,4683 -2762,4689 -2678,4695 -2513,4664 -2293,4613 -2065,4564 -1852,4521 -1686,4496 -1594,4483 -1577,4485 -1584,4481 -1612,4482 -1657,4485 -1742,4498 " style="fill: white; stroke: black; stroke-width: 30" />
<polyline points="-2462,4615 -2623,4631 -2750,4655 -2836,4682 -2861,4685 -2855,4684 -2814,4682 -2745,4681 -2649,4688 -2533,4706 -2382,4740 -2215,4777 -2063,4803 -1945,4838 -1873,4869 -1833,4889 -1819,4897 -1816,4901 -1817,4900 -1821,4902 -1824,4903 " style="fill: white; stroke: black; stroke-width: 30" />
<polyline points="391,4675 366,4668 311,4665 236,4671 160,4683 106,4718 87,4762 128,4825 217,4894 325,4963 384,5012 385,5031 338,5057 255,5092 181,5102 135,5099 120,5072 138,5024 211,4957 312,4912 394,4887 469,4875 527,4869 571,4881 579,4904 561,4935 534,4971 521,4998 526,5012 539,5014 594,4977 " style="fill: white; stroke: black; stroke-width: 30" />
<polyline points="706,4685 678,4638 646,4621 628,4625 634,4632 661,4652 702,4670 " style="fill: white; stroke: black; stroke-width: 30" />
<polyline points="788,5002 780,4992 792,4965 821,4933 850,4909 874,4908 890,4914 896,4933 902,4949 921,4970 942,4983 958,4999 971,5016 999,5033 1045,5034 1085,5031 1092,5033 1085,5040 1082,5045 1099,5050 " style="fill: white; stroke: black; stroke-width: 30" />
<polyline points="1366,4919 1321,4950 1269,4997 1261,5023 1280,5036 1342,5033 1432,5017 1484,5019 1493,5034 1482,5065 1480,5092 1511,5117 " style="fill: white; stroke: black; stroke-width: 30" />
<polyline points="1947,4713 1938,4711 1933,4717 1906,4763 1863,4846 1823,4938 1813,5011 1821,5076 1850,5111 " style="fill: white; stroke: black; stroke-width: 30" />
<polyline points="2075,4871 2067,4862 2083,4862 2104,4873 2114,4909 2124,4976 2125,5050 2118,5110 2103,5164 2091,5207 2073,5229 2046,5224 2008,5185 1981,5124 1957,5050 1961,5008 1973,4996 1993,4999 2033,5008 2072,5028 2122,5049 2151,5076 2158,5103 2163,5122 2162,5125 2160,5129 2164,5128 2167,5131 2172,5128 2184,5115 " style="fill: white; stroke: black; stroke-width: 30" />
<polyline points="2058,4456 2038,4523 2004,4630 1966,4772 1941,4913 1940,5032 1946,5119 " style="fill: white; stroke: black; stroke-width: 30" />
<polyline points="1966,4703 1963,4704 1990,4712 2033,4721 2115,4730 " style="fill: white; stroke: black; stroke-width: 30" />
<polyline points="2571,4874 2580,4856 2632,4828 2691,4826 2726,4862 2736,4930 2714,5011 2662,5077 2599,5115 2563,5130 2537,5121 2520,5100 2502,5065 2497,5038 2499,5015 2503,5013 2513,5010 2545,5018 2576,5036 2602,5062 2624,5098 2648,5133 2664,5160 2677,5173 " style="fill: white; stroke: black; stroke-width: 30" />
<polyline points="2524,5112 2552,5054 2610,4965 2667,4889 2720,4844 2801,4832 2884,4857 2946,4925 2966,5003 2980,5078 2978,5144 2972,5207 2973,5252 " style="fill: white; stroke: black; stroke-width: 30" />
<polyline points="-1955,5844 -1979,5825 -2025,5807 -2094,5806 -2180,5827 -2268,5889 -2313,5951 -2312,5998 -2283,6044 -2249,6091 -2208,6138 -2175,6170 -2153,6184 -2139,6189 -2134,6185 -2131,6185 -2132,6180 -2134,6181 -2134,6177 -2135,6176 -2137,6175 -2136,6178 -2137,6177 -2133,6180 -2130,6179 -2125,6183 -2124,6181 -2123,6181 -2119,6179 -2120,6180 -2118,6180 -2118,6186 -2119,6192 -2115,6211 -2096,6250 -2076,6288 -2038,6319 -1978,6343 -1910,6335 -1839,6302 -1773,6232 -1733,6142 -1707,6013 -1704,5874 -1703,5777 -1729,5730 -1771,5703 -1841,5709 -1938,5743 -2011,5786 -2060,5821 -2083,5845 " style="fill: white; stroke: black; stroke-width: 30" />
<polyline points="-2048,6004 -2069,5983 -2071,5942 -2043,5867 -1960,5761 -1841,5666 -1731,5621 -1622,5611 -1510,5625 -1414,5658 " style="fill: white; stroke: black; stroke-width: 30" />
<polyline points="1490,6380 1466,6374 1446,6391 1405,6479 1362,6606 1337,6724 1345,6788 1364,6802 1385,6774 1407,6701 1431,6582 1459,6457 1493,6355 1534,6316 1563,6322 1602,6363 1626,6418 1632,6488 1617,6546 1569,6609 1508,6665 1479,6705 1481,6724 1516,6748 1596,6756 1704,6729 1771,6688 1795,6671 1788,6664 1782,6664 1778,6654 1766,6640 1740,6632 1712,6646 1701,6660 1710,6685 1742,6717 1793,6758 1872,6781 1976,6773 2064,6743 2153,6688 2263,6587 2380,6447 2435,6343 2430,6299 2400,6283 2375,6285 2317,6316 2248,6407 2175,6543 2125,6675 2096,6770 2086,6845 2079,6899 2080,6914 2079,6892 2087,6825 2100,6767 2120,6747 2177,6721 2274,6691 2397,6649 2555,6582 2711,6487 2774,6437 2765,6419 2735,6410 2652,6430 2569,6485 2515,6548 2501,6602 2514,6634 2552,6677 2606,6698 2680,6710 2744,6711 " style="fill: white; stroke: black; stroke-width: 30" />
<polyline points="2851,6642 2822,6643 2814,6646 2820,6648 2818,6648 2823,6649 2817,6650 2817,6651 2819,6648 2814,6648 2815,6644 2813,6646 2805,6646 2805,6646 2804,6643 2807,6641 2805,6640 2799,6641 2775,6658 2757,6687 2749,6709 2762,6735 2792,6757 2853,6775 2935,6772 3038,6743 3154,6669 3241,6563 3293,6466 3286,6431 3270,6428 3213,6480 3128,6577 3081,6670 3066,6734 3064,6776 3064,6781 3072,6764 3091,6727 3125,6693 3161,6676 3225,6670 3298,6672 3350,6687 " style="fill: white; stroke: black; stroke-width: 30" />
<polyline points="1272,7318 1252,7322 1231,7346 1193,7429 1135,7544 1137,7622 1184,7664 1303,7672 1477,7632 1639,7604 1752,7590 1827,7586 " style="fill: white; stroke: black; stroke-width: 30" />
<polyline points="1777,7474 1751,7447 1749,7438 1777,7440 1846,7452 1922,7480 1985,7513 2032,7547 2055,7573 2048,7595 2008,7621 1925,7657 1854,7685 1812,7712 " style="fill: white; stroke: black; stroke-width: 30" />
<polyline points="1921,8576 1947,8559 1953,8555 1956,8566 1943,8612 1899,8709 1801,8826 1699,8936 1615,9043 1523,9173 1452,9310 1378,9427 1314,9511 1274,9546 1261,9550 1262,9542 1277,9485 " style="fill: white; stroke: black; stroke-width: 30" />
<polyline points="1298,9369 1363,9348 1425,9351 1466,9389 1461,9453 1442,9485 1405,9490 1352,9468 1296,9436 1286,9416 1291,9409 1326,9400 1369,9394 1382,9406 1380,9415 1373,9430 1363,9441 1352,9456 1359,9466 " style="fill: white; stroke: black; stroke-width: 30" />
<polyline points="1206,9661 1200,9671 1187,9701 1146,9783 1059,9915 973,10052 891,10167 832,10258 778,10325 767,10364 765,10384 " style="fill: white; stroke: black; stroke-width: 30" />
<polyline points="445,10699 429,10727 429,10727 431,10713 463,10653 506,10593 559,10560 613,10555 652,10572 668,10607 664,10640 641,10660 589,10667 564,10657 549,10645 557,10642 571,10634 582,10617 605,10589 620,10574 " style="fill: white; stroke: black; stroke-width: 30" />
<polyline points="581,10671 600,10655 610,10653 603,10662 591,10712 537,10842 447,11018 346,11192 273,11323 230,11427 197,11509 185,11562 194,11567 " style="fill: white; stroke: black; stroke-width: 30" />
<polyline points="139,11521 158,11477 226,11443 282,11437 322,11467 317,11518 272,11572 203,11610 142,11611 116,11606 115,11591 128,11548 155,11456 " style="fill: white; stroke: black; stroke-width: 30" />
<polyline points="2597,8780 2581,8815 2547,8916 2509,9048 2481,9151 2474,9199 2478,9206 2486,9200 " style="fill: white; stroke: black; stroke-width: 30" />
<polyline points="2427,8828 2383,8809 2381,8806 2426,8804 2514,8797 2618,8795 2731,8786 2786,8799 2823,8816 " style="fill: white; stroke: black; stroke-width: 30" />
<polyline points="2583,9107 2569,9129 2578,9130 2607,9133 2649,9131 2657,9138 2661,9139 2658,9140 2659,9137 2664,9135 2658,9125 2675,9069 2698,9015 2730,8968 2761,8936 2785,8920 2805,8915 2833,8932 " style="fill: white; stroke: black; stroke-width: 30" />
<polyline points="2986,8958 2974,8943 2978,8933 2986,8943 2995,8973 3010,9018 2993,9063 2959,9107 2906,9128 2872,9135 2847,9131 2842,9118 2860,9083 2900,9063 2952,9054 3023,9057 3079,9076 3115,9099 " style="fill: white; stroke: black; stroke-width: 30" />
<polyline points="3147,9158 3134,9151 3149,9123 3197,9096 3245,9076 3267,9074 3289,9071 3288,9074 3274,9089 3275,9120 3261,9157 3270,9176 3280,9186 3310,9189 " style="fill: white; stroke: black; stroke-width: 30" />
<polyline points="3632,9034 3620,9031 3612,9027 3598,9039 3590,9042 3553,9072 3512,9124 3471,9180 3419,9225 3376,9252 3356,9256 3365,9245 3417,9180 3508,9120 3607,9097 3702,9105 3731,9134 3730,9181 3686,9244 3655,9288 3629,9316 3628,9324 3656,9289 " style="fill: white; stroke: black; stroke-width: 30" />
<polyline points="3836,8992 3834,8952 3822,8934 3838,8930 " style="fill: white; stroke: black; stroke-width: 30" />
<polyline points="3965,8988 3960,8997 3940,9027 3941,9055 3936,9090 3965,9117 3982,9127 3991,9122 3982,9110 3988,9098 3992,9093 3992,9098 3953,9135 3914,9196 3888,9251 3865,9304 3832,9347 3816,9368 3802,9365 3796,9328 3817,9265 3817,9233 3841,9211 3907,9199 4005,9191 4110,9199 4204,9210 4264,9226 4260,9234 4230,9234 4200,9238 4167,9262 4162,9286 4142,9325 4139,9344 4125,9370 4113,9379 4123,9387 4124,9394 " style="fill: white; stroke: black; stroke-width: 30" />
<polyline points="4411,9043 4397,9018 4392,9013 4386,9035 " style="fill: white; stroke: black; stroke-width: 30" />
<polyline points="4365,9213 4369,9197 4338,9217 4319,9266 4290,9330 4288,9383 4267,9437 4294,9490 4339,9529 4400,9553 4458,9540 4533,9476 4542,9424 4545,9385 4533,9359 4520,9347 4487,9339 " style="fill: white; stroke: black; stroke-width: 30" />
<polyline points="1762,9742 1756,9730 1766,9724 1768,9725 1760,9733 1756,9775 1718,9871 1684,9997 1650,10118 1633,10220 1611,10304 1597,10371 1582,10403 1588,10405 " style="fill: white; stroke: black; stroke-width: 30" />
<polyline points="1455,10202 1398,10329 1368,10457 1370,10537 1386,10563 1404,10560 1442,10537 1489,10508 1546,10476 1597,10451 1635,10433 " style="fill: white; stroke: black; stroke-width: 30" />
<polyline points="2107,9845 2088,9853 2081,9865 2045,9912 2024,9969 2006,10028 2005,10057 2031,10074 2113,10060 2200,10023 2261,9994 2277,9992 2262,10008 2221,10089 2148,10202 2126,10282 2093,10347 2080,10405 " style="fill: white; stroke: black; stroke-width: 30" />
<polyline points="2393,10070 2394,10058 2391,10061 2411,10087 2437,10127 2458,10178 2466,10223 2459,10253 2429,10271 2415,10275 2412,10260 2407,10219 2413,10166 2419,10131 2438,10104 " style="fill: white; stroke: black; stroke-width: 30" />
<polyline points="2639,10083 2630,10086 2597,10114 2566,10157 2564,10184 2601,10198 2667,10192 2713,10188 2730,10186 2735,10191 2728,10204 2717,10227 2726,10239 2724,10254 2731,10266 " style="fill: white; stroke: black; stroke-width: 30" />
<polyline points="3460,10103 3473,10070 3478,10051 3468,10048 3421,10053 3360,10085 3288,10137 3249,10197 3229,10253 3242,10295 3233,10332 3250,10356 3248,10379 3250,10388 3237,10390 3226,10395 3218,10390 3197,10382 3172,10350 3174,10328 " style="fill: white; stroke: black; stroke-width: 30" />
<polyline points="3536,10174 3527,10162 3527,10155 3511,10163 3547,10168 3555,10206 3584,10237 3599,10266 3579,10303 3548,10340 3502,10366 3469,10378 3456,10373 3470,10352 3481,10330 3518,10319 3562,10313 3572,10322 3588,10329 3603,10338 3613,10347 3609,10363 3635,10363 3687,10365 3752,10359 3788,10356 3792,10352 3793,10349 3782,10359 3781,10376 3784,10389 3769,10401 3781,10406 3824,10416 3872,10418 3868,10427 3870,10432 3892,10434 3864,10455 3882,10458 3899,10453 3907,10455 3953,10443 4001,10450 4058,10467 4151,10473 4210,10456 4241,10423 4222,10405 4202,10397 4197,10391 4178,10413 4167,10451 4179,10508 4247,10587 4365,10713 4566,10830 " style="fill: white; stroke: black; stroke-width: 30" />
<polyline points="-3658,10081 -3651,10087 -3637,10091 -3634,10096 -3627,10096 -3604,10101 -3599,10086 -3561,10075 -3515,10052 -3448,10006 -3358,9944 -3253,9876 -3144,9804 -3063,9740 -2997,9682 -2941,9636 -2887,9599 -2831,9568 -2800,9546 -2769,9531 -2756,9512 -2742,9505 -2742,9497 -2741,9496 -2756,9491 -2772,9491 -2773,9488 -2779,9487 -2770,9485 -2778,9483 -2760,9485 -2754,9490 -2756,9490 -2758,9491 -2745,9494 -2748,9493 -2754,9491 -2752,9492 -2744,9492 -2757,9489 -2756,9485 -2758,9486 -2769,9480 -2773,9479 -2766,9478 -2770,9478 -2763,9480 -2778,9492 -2757,9532 -2764,9615 -2729,9722 -2693,9857 -2660,10000 -2621,10168 -2581,10348 -2529,10533 -2493,10715 -2452,10892 -2409,11061 -2370,11209 -2356,11315 -2351,11394 -2338,11429 -2334,11442 -2325,11443 -2318,11444 -2331,11439 -2337,11437 -2326,11436 -2326,11437 -2330,11436 -2339,11433 -2350,11410 " style="fill: white; stroke: black; stroke-width: 30" />
<polyline points="-2393,11454 -2393,11449 -2401,11448 -2394,11446 -2389,11446 -2380,11446 -2375,11443 -2362,11445 -2357,11444 -2366,11443 -2365,11440 -2375,11442 -2366,11443 -2364,11444 -2359,11444 -2364,11446 -2357,11446 -2347,11449 -2352,11445 -2359,11444 -2357,11443 -2365,11440 -2358,11439 -2345,11440 -2359,11430 -2325,11421 -2321,11403 -2295,11385 -2266,11364 -2225,11342 -2189,11320 -2138,11298 -2070,11267 -1997,11233 -1916,11200 -1825,11164 -1731,11126 -1615,11086 -1480,11041 -1327,10996 -1172,10946 -1021,10900 -877,10864 -770,10841 -680,10820 -618,10815 -573,10813 -520,10819 -491,10823 -469,10831 -469,10833 -479,10836 -479,10837 -473,10839 -500,10839 -492,10839 -502,10833 " style="fill: white; stroke: black; stroke-width: 30" />
<polyline points="-3403,8373 -3426,8371 -3420,8371 -3385,8384 -3305,8395 -3176,8408 -2990,8413 -2766,8414 -2481,8407 -2177,8403 -1865,8400 -1553,8407 -1241,8421 -925,8434 -648,8443 -387,8446 -180,8438 -38,8426 36,8411 49,8407 51,8404 51,8405 44,8405 44,8406 63,8414 " style="fill: white; stroke: black; stroke-width: 30" />
<polyline points="-2060,8397 -2064,8400 -2061,8452 -2048,8638 -2044,8919 -2034,9220 -2016,9472 -1998,9621 -1983,9728 -1965,9775 " style="fill: white; stroke: black; stroke-width: 30" />
<polyline points="-2095,9527 -2097,9528 -2082,9551 -2035,9670 -2010,9804 -1978,9894 -1942,9923 -1921,9905 -1860,9819 -1813,9704 -1757,9595 -1704,9532 " style="fill: white; stroke: black; stroke-width: 30" />
<polyline points="-980,8390 -995,8386 -999,8383 -999,8385 -991,8412 -970,8548 -955,8780 -939,9001 -938,9115 -931,9207 -920,9260 " style="fill: white; stroke: black; stroke-width: 30" />
<polyline points="-1111,8985 -1110,9021 -1083,9167 -1063,9325 -1040,9407 -1005,9441 -981,9434 -935,9409 -891,9360 -837,9299 " style="fill: white; stroke: black; stroke-width: 30" />
<polyline points="2130,11404 2135,11405 2136,11436 2118,11548 2110,11682 2112,11786 2122,11860 2129,11885 2140,11880 2144,11838 2152,11754 " style="fill: white; stroke: black; stroke-width: 30" />
<polyline points="1909,11402 1900,11400 1911,11396 1933,11396 1991,11393 2066,11397 2162,11394 2231,11396 2290,11399 " style="fill: white; stroke: black; stroke-width: 30" />
<polyline points="1966,11652 1938,11675 1943,11676 1966,11677 2023,11675 2110,11670 2199,11664 2289,11663 2366,11665 2419,11660 2447,11651 2448,11652 2410,11663 2348,11702 2307,11756 2289,11809 2296,11847 2323,11863 2381,11858 2437,11829 2467,11792 2468,11761 2455,11733 2435,11715 2393,11706 2353,11716 2340,11722 2352,11725 2419,11706 2515,11647 2618,11562 2679,11470 2703,11401 2686,11377 2674,11375 2650,11402 2617,11485 2592,11593 2587,11678 2592,11732 2616,11744 2611,11742 2605,11717 2598,11694 2605,11682 2638,11671 2689,11657 2751,11648 2816,11630 2868,11602 2879,11584 2881,11585 2887,11590 2894,11619 2899,11647 2914,11661 2905,11664 2913,11658 2890,11651 2879,11644 2881,11625 2868,11600 2861,11579 2833,11582 2819,11582 2811,11590 2774,11626 2756,11668 2758,11698 2758,11731 2773,11743 2789,11750 2813,11748 2846,11727 2875,11696 2883,11673 2884,11646 2867,11637 2861,11628 2865,11628 2859,11631 2849,11640 2853,11648 " style="fill: white; stroke: black; stroke-width: 30" />
<polyline points="2234,12206 2218,12173 2158,12160 2084,12185 2019,12240 2008,12327 2043,12420 2098,12490 2120,12531 2132,12561 2125,12575 2117,12587 2093,12594 2080,12587 2056,12559 2056,12534 2109,12497 " style="fill: white; stroke: black; stroke-width: 30" />
<polyline points="2301,12385 2295,12394 2287,12421 2286,12468 2271,12510 2283,12533 2310,12520 2356,12458 2402,12375 2442,12303 2454,12254 2465,12233 2474,12229 2478,12236 2452,12277 2473,12325 2497,12372 2507,12406 2533,12414 2557,12411 2593,12403 2629,12397 2629,12398 2654,12398 2684,12386 2714,12362 2763,12315 2792,12286 2816,12270 2816,12270 2809,12283 2783,12323 2761,12371 2753,12404 2747,12421 2774,12420 2810,12411 2822,12408 2819,12407 2827,12410 2840,12410 2873,12412 " style="fill: white; stroke: black; stroke-width: 30" />
<polyline points="3349,12385 3361,12390 3350,12390 3338,12393 3356,12384 3357,12386 3356,12382 3372,12373 3392,12352 3401,12338 3428,12313 3440,12303 3454,12295 3460,12290 3473,12289 3475,12295 3478,12299 3476,12311 3488,12325 3495,12352 3488,12381 3484,12412 3498,12419 3504,12420 3521,12405 3534,12385 3565,12368 3577,12365 3603,12364 3639,12368 3632,12390 3661,12409 3678,12439 3700,12462 " style="fill: white; stroke: black; stroke-width: 30" />
<polyline points="3914,12113 3911,12111 3943,12129 3956,12186 3994,12255 3992,12339 3963,12419 3937,12474 3894,12501 3855,12505 3848,12484 3837,12463 3838,12431 3869,12410 3887,12398 3926,12395 3931,12412 3972,12439 4037,12458 4133,12465 4232,12443 4311,12383 4371,12308 4365,12268 4352,12240 4308,12239 4272,12246 4268,12250 4297,12256 4292,12281 4314,12313 4302,12374 4281,12433 4284,12467 4305,12471 4337,12451 4392,12400 4437,12355 4465,12324 4515,12310 4505,12318 4488,12343 4501,12363 4509,12408 4548,12440 4583,12458 4581,12462 4579,12454 4570,12447 4562,12447 4597,12434 4664,12416 4747,12403 " style="fill: white; stroke: black; stroke-width: 30" />
<polyline points="2057,12958 2073,12952 2084,12939 2116,12932 2158,12926 2213,12923 2283,12918 2316,12928 " style="fill: white; stroke: black; stroke-width: 30" />
<polyline points="2307,12893 2276,12879 2263,12874 2262,12882 2252,12926 2253,12995 2273,13050 2305,13087 " style="fill: white; stroke: black; stroke-width: 30" />
<polyline points="2780,12858 2770,12847 2757,12838 2745,12841 2747,12837 2752,12838 2754,12837 2757,12836 2742,12839 2749,12837 2772,12834 2758,12839 2762,12837 2748,12843 2752,12839 2736,12846 2735,12843 2750,12842 2754,12837 2766,12830 2760,12824 2756,12821 2749,12812 2725,12806 2697,12808 2667,12839 2649,12886 2671,12944 2678,12995 2721,13025 2766,13040 2826,13040 2866,13017 2908,12980 2918,12934 2926,12884 2912,12858 2895,12853 2898,12852 2879,12862 2898,12877 2937,12899 " style="fill: white; stroke: black; stroke-width: 30" />
<polyline points="3192,12770 3172,12772 3160,12789 3130,12848 3110,12920 3138,12981 3142,13023 3172,13045 3200,13041 3206,13035 3245,13017 3255,13016 3258,13016 3258,13025 3255,13045 3234,13072 3227,13076 3207,13081 3194,13073 3179,13053 3183,13035 3181,13030 3198,13022 3218,13027 3268,13023 3316,13023 3369,13019 3384,13026 3371,13028 3384,13025 3375,13023 3390,13017 3393,13006 3452,12985 3475,12981 3539,12977 3587,12984 3628,12995 3646,13009 3666,13020 3664,13036 3680,13054 3709,13068 3732,13080 " style="fill: white; stroke: black; stroke-width: 30" />

</svg>