<?xml version="1.0" standalone="no"?>
<!DOCTYPE svg PUBLIC "-//W3C//DTD SVG 1.1//EN" "http://www.w3.org/Graphics/SVG/1.1/DTD/svg11.dtd">
<svg width="210mm" height="297mm" viewBox="-7000 500 14000 20000" version="1.1" xmlns="http://www.w3.org/2000/svg">

<polyline points="-1501,1478 -1513,1481 -1515,1480 -1512,1476 -1506,1477 -1504,1498 -1503,1605 -1503,1734 -1502,1823 -1496,1849 -1495,1841 -1492,1795 -1508,1697 -1540,1607 -1573,1516 -1572,1438 -1534,1353 -1455,1305 -1370,1302 -1316,1335 -1304,1376 -1329,1428 -1382,1467 -1457,1496 -1516,1503 -1552,1504 -1560,1501 -1549,1490 -1510,1462 " style="fill: white; stroke: black; stroke-width: 30" />
<polyline points="-1510,1384 -1513,1383 -1516,1382 -1513,1382 -1513,1384 -1513,1392 -1513,1399 -1510,1421 -1503,1447 -1496,1470 -1492,1510 -1494,1555 -1498,1604 -1502,1653 -1506,1699 -1507,1730 -1506,1750 -1504,1752 -1502,1726 " style="fill: white; stroke: black; stroke-width: 30" />
<polyline points="-1292,1636 -1296,1708 -1296,1747 -1296,1747 -1297,1733 -1293,1689 -1295,1628 -1295,1586 -1290,1578 -1273,1564 -1237,1555 -1191,1568 -1135,1584 -1063,1582 -1007,1559 -986,1545 -986,1547 -988,1568 -992,1620 -992,1668 -988,1693 -984,1697 " style="fill: white; stroke: black; stroke-width: 30" />
<polyline points="-950,1310 -987,1288 -1010,1279 -1017,1277 -1016,1278 -1013,1279 -1009,1281 -978,1302 -927,1329 -874,1336 " style="fill: white; stroke: black; stroke-width: 30" />
<polyline points="-795,1522 -815,1527 -829,1549 -836,1580 -821,1615 -804,1652 -798,1691 -810,1716 -828,1730 -845,1739 -845,1732 -837,1683 -782,1614 -698,1546 -642,1506 -636,1506 -642,1558 -667,1660 -676,1740 -669,1762 -634,1753 -568,1706 -528,1682 -516,1685 -507,1704 -486,1727 -467,1736 -458,1750 -450,1786 -445,1842 " style="fill: white; stroke: black; stroke-width: 30" />
<polyline points="-1926,3754 -1925,3759 -1912,3768 -1880,3782 -1162,3589 -1224,3569 -1262,3566 -1302,3590 -1343,3645 -1346,3692 -1326,3755 -1316,3816 -1318,3856 -1331,3874 -1361,3887 -1395,3884 -1430,3864 -1447,3846 " style="fill: white; stroke: black; stroke-width: 30" />
<polyline points="-1188,3744 -1187,3732 -1161,3710 -1118,3696 -1074,3713 -1050,3759 -1054,3824 -1085,3885 -1137,3928 -1190,3936 -1209,3925 -1216,3907 -1199,3892 -1174,3893 -1137,3908 -1092,3925 -798,3550 -815,3545 -824,3557 -854,3633 -886,3758 -895,3854 -893,3921 -890,3959 -886,3954 -882,3899 -881,3847 -885,3830 -873,3832 " style="fill: white; stroke: black; stroke-width: 30" />
<polyline points="-1721,4383 -1743,4374 -1760,4370 -1765,4367 -1761,4371 -1753,4366 -1725,4364 -1668,4367 -1573,4363 -1455,4366 " style="fill: white; stroke: black; stroke-width: 30" />
<polyline points="-1304,4378 -1301,4321 -1300,4249 -1308,4217 -1309,4211 -1308,4210 -1308,4212 -1311,4220 -1310,4248 -1304,4326 -1293,4385 -1257,4423 -1210,4439 -1150,4417 -1078,4352 -1020,4274 -997,4203 -1003,4162 -1016,4154 -1031,4151 -1045,4151 -1061,4158 -1069,4181 -1064,4256 " style="fill: white; stroke: black; stroke-width: 30" />
<polyline points="-990,4332 -964,4334 -934,4321 -914,4306 -906,4298 -910,4289 -938,4270 -984,4269 -1020,4292 -1029,4326 -1009,4377 -964,4422 -900,4444 -821,4427 -738,4349 -670,4254 -645,4175 -645,4141 -652,4140 -658,4166 -674,4234 -681,4312 -678,4376 -668,4404 -667,4402 -672,4378 -683,4347 -685,4330 -682,4329 -667,4327 -634,4316 -582,4309 " style="fill: white; stroke: black; stroke-width: 30" />
<polyline points="-1738,4986 -1771,4993 -1771,4995 -1763,4994 -1733,4995 -1670,4998 -1576,4995 -1475,4982 " style="fill: white; stroke: black; stroke-width: 30" />
<polyline points="-1238,4821 -1245,4833 -1246,4898 -1247,4978 -1241,5035 -1236,5053 -1232,5048 " style="fill: white; stroke: black; stroke-width: 30" />
<polyline points="-1298,4905 -1338,4883 -1342,4880 -1333,4879 -1312,4878 -1255,4874 -1188,4867 -1110,4853 " style="fill: white; stroke: black; stroke-width: 30" />
<polyline points="-1026,4941 -1066,4941 -1085,4963 -1082,4992 -1060,5030 -1022,5055 " style="fill: white; stroke: black; stroke-width: 30" />
<polyline points="-824,4839 -826,4824 -828,4830 -836,4863 -861,4934 -869,4989 -855,5033 -819,5054 -761,5056 -697,5031 -645,5001 -639,4970 -655,4937 -675,4936 -704,4958 -721,4988 -720,5025 -709,5046 -684,5060 " style="fill: white; stroke: black; stroke-width: 30" />
<polyline points="-309,4942 -323,4935 -347,4929 -372,4936 " style="fill: white; stroke: black; stroke-width: 30" />
<polyline points="-393,5025 -355,5031 -310,5012 -300,4985 -302,4974 -309,4972 -313,4974 -308,4976 -283,4967 -238,4952 -215,4961 -212,4982 -204,5005 -178,5021 -123,5006 -50,4989 -1,4989 1,4992 7,4999 19,5010 52,5020 70,5027 77,4808 " style="fill: white; stroke: black; stroke-width: 30" />
<polyline points="1417,4906 1416,4909 1416,4932 1405,4968 1399,5010 1379,5062 1378,5090 1384,5096 " style="fill: white; stroke: black; stroke-width: 30" />
<polyline points="1442,4815 1417,4789 1414,4784 1442,4772 1493,4747 1526,4745 1528,4759 1516,4771 1493,4778 1480,4781 1475,4777 1458,4766 1453,4752 1448,4743 " style="fill: white; stroke: black; stroke-width: 30" />
<polyline points="1632,5054 1638,5100 1685,5102 1794,5041 1902,4940 1992,4821 2017,4789 2004,4800 1945,4877 1854,5000 1807,5079 1801,5100 1804,5095 1825,5052 1858,5019 1890,5023 1937,5044 1989,5067 2028,5071 2028,5065 2015,5058 2004,5067 2006,5096 2030,5128 2073,5146 2098,5128 2107,5095 2122,5058 2138,5042 2155,5038 " style="fill: white; stroke: black; stroke-width: 30" />
<polyline points="2226,5208 2212,5234 2219,5217 2249,5154 2296,5079 2338,5033 2360,5015 2378,4998 2381,4990 2383,4989 2371,5002 2380,5016 2419,5029 2482,5027 2538,5024 2560,5030 2557,5042 2542,5076 2534,5117 2504,5151 2477,5170 2450,5176 2422,5167 2420,5141 2434,5112 2469,5089 2505,5091 2543,5120 2589,5149 2646,5159 " style="fill: white; stroke: black; stroke-width: 30" />
<polyline points="2783,5102 2798,5077 2793,5067 2777,5064 2747,5081 2721,5106 2722,5121 2731,5132 2763,5134 2806,5129 2841,5116 2852,5107 2852,5104 2851,5106 2851,5106 2850,5103 2847,5103 2840,5109 2844,5105 2840,5110 2849,5104 2838,5110 2844,5109 2842,5106 2838,5107 2842,5105 2840,5107 2845,5106 2845,5109 2841,5112 2841,5112 2849,5109 2848,5109 2850,5108 2861,5108 2887,5099 2921,5077 2948,5056 2943,5045 2928,5042 2904,5049 2882,5065 2905,5098 " style="fill: white; stroke: black; stroke-width: 30" />
<polyline points="-1802,5874 -1805,5880 -1812,5878 -1811,5875 -1811,5875 -1794,5878 -1756,5884 -1682,5890 " style="fill: white; stroke: black; stroke-width: 30" />
<polyline points="-1231,5718 -1234,5720 -1238,5725 -1245,5756 -1262,5822 -1273,5896 -1282,5955 -1287,6007 -1289,6038 -1289,6047 -1289,6051 -1290,6049 -1287,6047 -1285,6050 -1284,6049 -1282,6050 -1283,6053 -1282,6054 -1281,6054 -1279,6056 -1282,6054 -1283,6053 " style="fill: white; stroke: black; stroke-width: 30" />
<polyline points="-1385,5676 -1409,5667 -1407,5664 -1389,5662 -1342,5663 -1263,5670 -1176,5683 " style="fill: white; stroke: black; stroke-width: 30" />
<polyline points="-1375,5849 -1364,5850 -1335,5850 -1268,5853 -1182,5849 -1109,5849 " style="fill: white; stroke: black; stroke-width: 30" />
<polyline points="-921,5764 -931,5760 -934,5764 -947,5796 -968,5881 -992,5972 -996,6020 -996,6025 -973,5984 -930,5889 -898,5791 -888,5744 -899,5739 -914,5757 -942,5789 -942,5809 -928,5829 -909,5846 -879,5859 -855,5862 -825,5840 -810,5820 -805,5817 -810,5819 -813,5834 -821,5877 -821,5912 -814,5949 -808,5988 -794,6014 -771,6041 " style="fill: white; stroke: black; stroke-width: 30" />
<polyline points="-459,5745 -447,5728 -456,5723 -490,5727 -548,5748 -572,5779 -570,5834 -540,5913 -519,5976 -514,6025 -536,6036 -572,6025 -603,5976 " style="fill: white; stroke: black; stroke-width: 30" />
<polyline points="962,5671 966,5671 959,5688 946,5768 912,5945 " style="fill: white; stroke: black; stroke-width: 30" />
<polyline points="893,5628 872,5584 903,5537 956,5516 1022,5548 1065,5627 1073,5728 1048,5826 1015,5875 981,5884 936,5863 897,5830 869,5810 " style="fill: white; stroke: black; stroke-width: 30" />
<polyline points="1170,5814 1157,5867 1153,5893 1156,5898 1165,5880 1156,5838 1166,5791 1164,5768 1159,5767 1186,5777 1228,5788 1286,5792 " style="fill: white; stroke: black; stroke-width: 30" />
<polyline points="1355,5805 1335,5833 1306,5858 1302,5870 1298,5879 1292,5886 1305,5895 1315,5906 1357,5904 1385,5891 1413,5874 1414,5860 1405,5844 1379,5819 1358,5803 1346,5798 1351,5794 1363,5790 " style="fill: white; stroke: black; stroke-width: 30" />
<polyline points="1516,5878 1542,5849 1569,5838 1571,5846 1575,5875 1584,5904 1602,5918 1648,5918 1703,5892 1729,5879 1724,5881 1698,5927 1712,5932 1712,5932 1737,5930 1754,5932 1757,5935 1770,5939 1802,5951 1856,5960 1874,5973 " style="fill: white; stroke: black; stroke-width: 30" />
<polyline points="-1744,6537 -1753,6533 -1747,6529 -1730,6529 -1704,6535 -1658,6546 -1594,6556 " style="fill: white; stroke: black; stroke-width: 30" />
<polyline points="-1242,6511 " style="fill: white; stroke: black; stroke-width: 30" />
<polyline points="-1343,6444 -1387,6445 -1403,6441 -1401,6439 -1384,6436 -1343,6435 -1274,6430 -1159,6226 " style="fill: white; stroke: black; stroke-width: 30" />
<polyline points="-1174,6650 -1168,6652 -1132,6640 -1065,6608 -1027,6581 -1022,6564 -1029,6558 -1047,6557 -1081,6565 -1110,6591 -1120,6613 -1115,6640 -1094,6657 -1059,6676 -1010,6680 -946,6665 -876,6625 -822,6563 -799,6495 -800,6442 -814,6423 -829,6424 -867,6458 -907,6518 -911,6566 -897,6619 -864,6644 -826,6655 -780,6663 -737,6664 -722,6663 -713,6645 -707,6624 -703,6604 -707,6596 -708,6590 -710,6589 -712,6591 -716,6593 -721,6595 -726,6602 -727,6607 -725,6607 -722,6609 -721,6609 -721,6606 -720,6607 -718,6608 -717,6606 -716,6608 -716,6606 -712,6605 -711,6606 -717,6606 -711,6613 -714,6643 -701,6656 -683,6661 -656,6664 -618,6663 -582,6661 -562,6661 -553,6646 -552,6632 -556,6634 -563,6642 -572,6655 -575,6660 -570,6656 -562,6643 -546,6635 -536,6638 -532,6651 -516,6675 -490,6683 -451,6674 -410,6680 -396,6694 -378,6706 -368,6709 -347,6695 -317,6681 -299,6680 -295,6680 -284,6680 -268,6673 -249,6657 -235,6645 -227,6634 -227,6620 -231,6613 -246,6615 -272,6630 -283,6653 -280,6686 -270,6711 -246,6722 -199,6490 " style="fill: white; stroke: black; stroke-width: 30" />
<polyline points="53,6285 12,6312 -52,6387 -106,6491 -130,6573 -133,6618 -131,6625 -122,6619 -108,6603 -97,6589 -97,6590 -95,6593 -76,6596 -37,6601 12,6594 46,6584 55,6578 58,6574 51,6570 50,6569 47,6567 49,6567 40,6583 24,6619 20,6644 24,6651 31,6643 60,6603 86,6565 105,6550 105,6551 110,6562 118,6575 132,6581 159,6585 184,6591 214,6603 241,6616 246,6616 247,6613 248,6614 243,6615 247,6617 240,6623 236,6623 237,6621 242,6622 250,6622 251,6618 267,6613 271,6607 287,6594 334,6578 1068,6611 1092,6612 " style="fill: white; stroke: black; stroke-width: 30" />
<polyline points="1127,6610 504,6560 504,6560 495,6560 492,6561 488,6562 487,6561 479,6564 469,6580 441,6640 361,6781 203,6983 71,7163 " style="fill: white; stroke: black; stroke-width: 30" />
<polyline points="1579,6520 1585,6529 1573,6554 1570,6587 1569,6639 1565,6686 1565,6716 1570,6733 1570,6739 1580,6740 1582,6744 1590,6743 1608,6743 1613,6742 1622,6735 1638,6717 1657,6700 1667,6681 1676,6657 1683,6615 1692,6569 1689,6530 1694,6493 1695,6452 1690,6422 1695,6396 1699,6367 1711,6327 1723,6301 1736,6285 1743,6278 1744,6280 1749,6279 1751,6280 1765,6296 1778,6310 1787,6325 1800,6349 1796,6370 1796,6394 1800,6411 1799,6421 1803,6440 1819,6470 " style="fill: white; stroke: black; stroke-width: 30" />
<polyline points="1931,6686 1937,6711 1946,6719 1947,6724 1950,6722 1959,6713 1991,6686 2057,6621 2159,6530 2237,6465 2279,6422 2285,6411 2291,6409 2291,6411 2305,6409 " style="fill: white; stroke: black; stroke-width: 30" />
<polyline points="2486,1792 2477,1789 2472,1789 2472,1786 2476,1788 2493,1792 2531,1792 2590,1794 2645,1798 2690,1799 2720,1793 2720,1796 2715,1795 " style="fill: white; stroke: black; stroke-width: 30" />
<polyline points="2580,1785 2577,1799 2583,1820 2589,1865 2600,1924 2607,1988 2611,2050 2620,2100 2627,2137 2643,2150 2647,2152 2647,2149 2650,2143 2652,2141 2654,2132 2680,2095 2731,2035 2790,1971 2849,1916 2900,1868 2931,1836 2937,1827 2939,1830 2938,1831 2939,1829 2939,1831 2936,1833 2935,1833 2936,1834 2935,1838 2940,1837 " style="fill: white; stroke: black; stroke-width: 30" />
<polyline points="298,12091 " style="fill: white; stroke: black; stroke-width: 30" />
<polyline points="-1640,7320 -1652,7319 -1659,7321 -1660,7321 -1656,7324 -1643,7328 -1623,7330 -1578,7332 " style="fill: white; stroke: black; stroke-width: 30" />
<polyline points="-1231,7265 -1234,7263 -1240,7264 -1237,7269 -1233,7307 -1242,7363 -1239,7400 -1239,7416 -1231,7413 -1233,7402 -1229,7378 -1226,7313 -1227,7235 -1224,7186 -1233,7160 -1228,7159 -1229,7165 -1227,7193 -1222,7253 -1212,7321 -1189,7380 -1151,7427 -1093,7444 -1034,7438 -975,7409 -929,7375 -921,7332 -929,7282 -961,7254 -992,7233 -1023,7222 -1036,7223 -1034,7225 -1031,7226 " style="fill: white; stroke: black; stroke-width: 30" />
<polyline points="-703,7353 -714,7340 -741,7326 -802,7332 -845,7359 -865,7379 -861,7402 -838,7435 -801,7461 -746,7482 -687,7484 -634,7465 -592,7436 -580,7409 -584,7394 -601,7380 -625,7362 -644,7357 -656,7364 -657,7373 -654,7390 -641,7423 -613,7446 -591,7457 -563,7468 -544,7467 -537,7462 -535,7455 -539,7431 -549,7391 -561,7377 -571,7368 -585,7365 -594,7367 -602,7368 -594,7369 " style="fill: white; stroke: black; stroke-width: 30" />
<polyline points="-228,7223 -241,7219 -257,7216 -295,7214 -357,7232 -426,7274 -467,7334 -490,7399 -474,7443 -425,7473 -340,7484 -254,7469 -180,7443 -117,7417 -76,7387 -53,7367 -56,7361 -67,7354 -84,7344 -109,7343 -123,7343 -126,7342 -132,7344 -132,7346 -129,7350 -128,7374 -123,7400 -109,7425 -94,7447 -71,7462 -46,7462 -31,7458 -28,7450 -28,7429 -38,7399 -68,7373 -97,7363 -107,7368 -104,7369 -93,7377 -51,7397 -11,7420 24,7433 51,7441 52,7439 52,7433 52,7425 49,7402 56,7375 57,7373 59,7373 68,7376 107,7381 160,7375 221,7349 266,7312 287,7279 284,7259 280,7259 280,7263 273,7295 244,7370 224,7438 209,7484 211,7501 210,7495 216,7479 240,7441 278,7410 302,7396 341,7386 379,7376 396,7365 386,7360 363,7351 344,7355 339,7365 336,7380 346,7411 369,7443 407,7467 463,7484 " style="fill: white; stroke: black; stroke-width: 30" />
<polyline points="580,7366 574,7371 571,7372 571,7372 571,7371 579,7362 593,7349 598,7341 598,7336 605,7331 606,7331 599,7331 593,7330 593,7333 589,7333 589,7331 592,7333 585,7337 573,7347 534,7390 489,7438 434,7484 404,7507 410,7510 422,7499 465,7449 492,7379 496,7337 482,7330 478,7328 472,7329 477,7341 486,7358 511,7384 549,7419 594,7447 649,7470 " style="fill: white; stroke: black; stroke-width: 30" />
<polyline points="2543,2750 2536,2732 2522,2711 2503,2696 2479,2689 2451,2689 2425,2696 2416,2711 2413,2740 2431,2778 2458,2819 2468,2840 2462,2845 2435,2853 2392,2853 2365,2846 2357,2840 2356,2830 2353,2824 2358,2825 " style="fill: white; stroke: black; stroke-width: 30" />
<polyline points="2546,2847 2579,2835 2622,2804 2674,2759 2720,2709 2750,2673 2751,2668 2750,2669 2734,2685 2692,2741 2654,2785 2653,2807 2666,2819 2721,2822 2786,2825 2822,2838 2826,2843 2826,2850 2836,2852 2856,2845 2882,2834 2905,2828 2933,2810 2953,2784 2951,2775 2934,2768 2898,2780 2856,2824 2850,2839 2862,2850 2900,2858 2957,2844 2992,2839 3000,2845 2996,2861 2992,2886 " style="fill: white; stroke: black; stroke-width: 30" />
<polyline points="3212,2803 3169,2819 3121,2844 3090,2869 3071,2889 3067,2899 3070,2902 3076,2902 3096,2900 3129,2902 3186,2901 3247,2904 3275,2908 3253,2917 3207,2933 3169,2957 3146,2972 3139,2979 3142,2983 3151,2978 3163,2966 " style="fill: white; stroke: black; stroke-width: 30" />
<polyline points="3356,2925 3340,2937 3318,2944 3301,2945 3298,2940 3318,2926 " style="fill: white; stroke: black; stroke-width: 30" />
<polyline points="3773,2956 3752,2959 3771,2938 3835,2884 3906,2835 3958,2787 3981,2755 3970,2762 3966,2768 3947,2814 3934,2876 3934,2926 3924,2958 3901,2977 3867,2966 3833,2928 3825,2891 3826,2886 3838,2882 3882,2874 3930,2890 3981,2910 4006,2935 4015,2945 4020,2946 4017,2951 4031,2934 4045,2916 4041,2921 4040,2920 4049,2919 4064,2926 4084,2937 4100,2944 4113,2954 4132,2971 4158,2981 4177,2997 4191,2995 4197,2993 4193,3011 4214,3013 4228,3017 4232,3019 4235,3014 4232,3019 4265,3004 4307,2994 4348,2984 4381,2987 4400,2975 4398,2962 4373,2957 4349,2957 4333,2970 4337,2988 4408,3018 4550,3061 4535,2966 " style="fill: white; stroke: black; stroke-width: 30" />
<polyline points="9761,2583 " style="fill: white; stroke: black; stroke-width: 30" />
<polyline points="10063,2809 " style="fill: white; stroke: black; stroke-width: 30" />
<polyline points="-1658,8142 -1668,8135 -1678,8131 -1684,8127 -1679,8128 -1672,8126 -1655,8121 -1599,8109 -1506,8100 -1421,8103 " style="fill: white; stroke: black; stroke-width: 30" />
<polyline points="-1167,8010 -1194,8045 -1196,8062 -1192,8088 -1159,8124 -1107,8160 " style="fill: white; stroke: black; stroke-width: 30" />
<polyline points="-866,8053 -871,8042 -846,8027 -809,8030 -779,8058 -765,8091 -774,8132 -788,8163 -804,8188 -832,8201 -867,8201 -886,8189 -892,8180 -888,8179 -873,8169 -836,8156 -793,8158 -771,8171 -751,8195 -725,8219 -706,8222 -685,8214 -663,8191 -651,8163 -645,8152 -651,8149 -643,8140 -629,8118 -607,8099 -592,8089 -588,8089 -584,8094 -564,8108 -509,8120 " style="fill: white; stroke: black; stroke-width: 30" />
<polyline points="-83,8090 -97,8087 -97,8083 -77,8084 -23,8087 30,8085 92,8079 127,8073 141,8068 148,8059 133,8038 117,8037 78,8057 36,8101 20,8142 28,8185 53,8218 100,8230 182,8215 273,8161 358,8083 422,7999 430,7954 425,7942 387,7946 343,7972 290,8021 276,8073 279,8116 294,8151 342,8190 395,8206 463,8194 520,8161 571,8118 580,8054 555,8007 541,8001 486,8026 437,8076 416,8129 421,8165 451,8203 512,8205 582,8195 627,8186 637,8176 647,8175 641,8180 641,8184 632,8188 640,8187 644,8181 666,8176 658,8180 652,8179 656,8191 671,8201 710,8203 738,8199 743,8200 752,8198 760,8200 780,8208 824,8204 878,8187 921,8162 938,8130 927,8121 900,8133 863,8164 839,8194 836,8211 847,8226 877,8241 921,8247 959,8234 983,8207 997,8188 1007,8171 1015,8165 1042,8158 1093,8134 1131,8095 1162,8048 1169,8026 1171,8021 1163,8032 1156,8067 1148,8104 1149,8135 1153,8144 1179,8147 1231,8139 1278,8123 1320,8104 1350,8093 1363,8091 1348,8099 1296,8132 1257,8174 1249,8198 1260,8213 1282,8222 1329,8221 1357,8005 " style="fill: white; stroke: black; stroke-width: 30" />
<polyline points="4119,7604 " style="fill: white; stroke: black; stroke-width: 30" />
<polyline points="-634,9429 -642,9417 -672,9407 -712,9399 -773,9410 -829,9442 -868,9488 -874,9553 -867,9620 -829,9656 -759,9673 -676,9659 -593,9616 -548,9574 -541,9540 -551,9499 -579,9473 -610,9458 -631,9451 -644,9454 -648,9453 -653,9454 " style="fill: white; stroke: black; stroke-width: 30" />
<polyline points="-392,9612 -385,9631 -388,9659 -389,9698 -383,9722 -372,9726 " style="fill: white; stroke: black; stroke-width: 30" />
<polyline points="181,9461 170,9457 171,9454 198,9443 235,9433 280,9426 323,9426 " style="fill: white; stroke: black; stroke-width: 30" />
<polyline points="198,9460 165,9500 143,9566 142,9621 164,9641 210,9657 267,9674 322,9681 376,9682 " style="fill: white; stroke: black; stroke-width: 30" />
<polyline points="188,9559 153,9560 161,9555 188,9554 " style="fill: white; stroke: black; stroke-width: 30" />
<polyline points="548,9416 545,9424 539,9445 543,9484 547,9519 569,9555 598,9590 628,9609 656,9616 701,9605 747,9575 802,9517 835,9449 846,9411 845,9395 834,9391 826,9391 821,9391 825,9391 814,9395 825,9396 825,9399 838,9401 836,9403 829,9217 " style="fill: white; stroke: black; stroke-width: 30" />
<polyline points="950,9665 948,9661 943,9648 963,9610 1001,9548 1051,9465 1093,9400 1106,9370 1108,9363 1109,9364 1110,9378 1117,9422 1122,9479 1148,9534 1175,9583 1195,9615 1197,9421 " style="fill: white; stroke: black; stroke-width: 30" />
<polyline points="1030,9508 998,9502 999,9497 1002,9491 1069,9481 1154,9473 1229,9472 " style="fill: white; stroke: black; stroke-width: 30" />
<polyline points="1896,9497 1873,9533 1861,9562 1886,9593 1937,9616 2000,9625 " style="fill: white; stroke: black; stroke-width: 30" />
<polyline points="2276,9518 2276,9485 2290,9460 2309,9443 2328,9448 2357,9470 2373,9511 2397,9564 2388,9606 2380,9629 2337,9651 2318,9648 2280,9633 2284,9618 2285,9607 2299,9597 2339,9593 2374,9598 2397,9621 2443,9646 2462,9675 2489,9693 2517,9690 2555,9668 2567,9622 2562,9593 2532,9586 2535,9584 2534,9587 2553,9583 2591,9581 2613,9383 " style="fill: white; stroke: black; stroke-width: 30" />
<polyline points="2933,9630 2915,9633 2940,9633 2977,9639 3049,9650 3162,9655 3277,9660 3372,9673 3429,9682 3439,9686 3441,9691 3457,9688 3451,9689 " style="fill: white; stroke: black; stroke-width: 30" />
<polyline points="3528,9618 3570,9642 3569,9660 3566,9675 3518,9707 3465,9735 3432,9747 3416,9754 3407,9758 " style="fill: white; stroke: black; stroke-width: 30" />
<polyline points="3099,9509 3098,9480 3088,9481 3079,9484 3063,9501 3006,9550 2953,9593 2919,9625 2908,9635 2916,9642 2971,9667 3041,9704 3131,9737 " style="fill: white; stroke: black; stroke-width: 30" />
<polyline points="4657,9232 3775,9501 " style="fill: white; stroke: black; stroke-width: 30" />
<polyline points="4603,9300 4623,9246 4647,9210 4703,9192 4728,9199 4753,9220 4763,9233 4747,9250 4696,9276 4689,9277 4647,9291 4656,9283 4646,9293 4679,9305 4721,9331 4734,9362 4814,9375 4863,9363 4869,9359 4902,9346 5772,8940 " style="fill: white; stroke: black; stroke-width: 30" />
<polyline points="5849,8940 5852,8931 5832,8945 5838,8938 5853,8943 5858,8956 5889,8964 " style="fill: white; stroke: black; stroke-width: 30" />
<polyline points="11319,10564 " style="fill: white; stroke: black; stroke-width: 30" />
<polyline points="1844,3742 1840,3726 1833,3724 1825,3724 1817,3745 1809,3802 1802,3868 1807,3916 1813,3939 1821,3948 " style="fill: white; stroke: black; stroke-width: 30" />
<polyline points="1604,3734 1588,3731 1591,3727 1627,3717 1679,3713 1754,3705 1840,3699 " style="fill: white; stroke: black; stroke-width: 30" />
<polyline points="1718,3802 1721,3800 1746,3796 1793,3799 1843,3806 1901,3819 1961,3834 2017,3827 2065,3811 2075,3809 2068,3815 2054,3830 2044,3853 2033,3881 2027,3916 2027,3958 2025,4001 2031,4012 " style="fill: white; stroke: black; stroke-width: 30" />
<polyline points="1990,3618 2017,3613 2052,3614 2073,3623 2080,3642 2076,3649 2070,3650 2067,3649 2059,3638 2048,3622 2036,3615 2028,3610 2031,3608 " style="fill: white; stroke: black; stroke-width: 30" />
<polyline points="2239,3844 2280,3862 2306,3884 2311,3908 2304,3930 2303,3930 2312,3925 2325,3913 2355,3888 2263,3685 " style="fill: white; stroke: black; stroke-width: 30" />
<polyline points="2477,3744 2496,3775 2519,3819 2531,3866 2528,3904 2503,3937 2471,3950 2442,3949 2418,3929 2418,3898 2437,3872 2471,3853 2511,3852 2548,3873 2564,3896 2592,3922 2637,3927 2696,3910 2738,3890 2757,3877 2762,3868 2777,3849 2809,3824 2846,3814 2863,3822 2862,3844 2858,3890 2859,3925 " style="fill: white; stroke: black; stroke-width: 30" />
<polyline points="3081,3768 3081,3772 3096,3788 3104,3809 3102,3831 3068,3884 3022,3939 3003,3979 3005,3998 3010,4013 3040,4034 3086,4035 3116,4016 " style="fill: white; stroke: black; stroke-width: 30" />
<polyline points="2958,3893 2960,3889 3005,3897 3057,3904 " style="fill: white; stroke: black; stroke-width: 30" />
<polyline points="11106,10278 " style="fill: white; stroke: black; stroke-width: 30" />
<polyline points="-59,1743 -68,1740 -68,1736 -53,1736 -14,1752 40,1767 126,1780 232,1774 347,1748 425,1729 447,1729 447,1729 444,1730 444,1731 442,1726 440,1711 437,1654 428,1555 412,1448 389,1336 356,1241 337,1196 328,1185 325,1181 327,1179 327,1181 328,1181 330,1179 332,1186 330,1186 330,1189 336,1196 362,1208 423,1221 502,1239 580,1254 638,1262 662,1268 664,1267 662,1264 661,1266 658,1265 657,1263 658,1266 657,1272 657,1279 " style="fill: white; stroke: black; stroke-width: 30" />
<polyline points="688,1180 673,1175 672,1167 686,1163 726,1173 776,1192 821,1223 833,1248 817,1258 759,1303 719,1331 708,1341 714,1354 750,1384 " style="fill: white; stroke: black; stroke-width: 30" />
<polyline points="1408,1158 1382,1136 1330,1134 1271,1170 1220,1233 1203,1281 1222,1315 1262,1332 1326,1334 1413,1319 1497,1284 1557,1244 1590,1210 1590,1200 1581,1202 1570,1211 1544,1240 1522,1286 1523,1316 1535,1333 1550,1346 1587,1353 1623,1354 1660,1343 1704,1329 1750,1303 1770,1284 1771,1282 1759,1276 1732,1262 1710,1253 1689,1246 1685,1244 1689,1245 1688,1248 1686,1248 1689,1250 1686,1252 1690,1256 1700,1268 1719,1283 1747,1306 1784,1330 1842,1346 1919,1348 1968,1339 1978,1323 1974,1300 1954,1276 1907,1267 1860,1281 1837,1315 1839,1349 1868,1375 1920,1403 1978,1410 2038,1394 2099,1364 2152,1323 2201,1305 2224,1309 2227,1324 2233,1369 2240,1423 2249,1460 2261,1477 " style="fill: white; stroke: black; stroke-width: 30" />
<polyline points="2514,1139 2506,1128 2491,1133 2460,1166 2411,1251 2371,1332 2349,1395 2345,1413 2339,1411 2347,1396 2372,1381 2417,1366 2485,1358 2376,1230 " style="fill: white; stroke: black; stroke-width: 30" />
<polyline points="2801,1182 2837,1169 2871,1158 2907,1160 2957,1163 3022,1170 3086,1182 3125,1203 3152,1225 " style="fill: white; stroke: black; stroke-width: 30" />
<polyline points="3089,1294 3048,1335 3010,1379 2991,1421 2992,1448 3002,1456 3015,1460 3037,1464 3065,1433 3083,1399 3093,1386 3122,1370 3150,1362 3169,1378 3184,1405 3193,1423 3184,1446 3169,1478 3159,1501 3163,1518 3174,1522 3192,1511 " style="fill: white; stroke: black; stroke-width: 30" />
<polyline points="3272,1303 3250,1251 3224,1244 3217,1236 " style="fill: white; stroke: black; stroke-width: 30" />
<polyline points="3334,1500 3344,1514 3340,1537 3342,1558 3329,1595 3327,1616 3317,1649 3314,1666 3309,1671 3308,1678 3306,1670 3289,1643 3242,1632 3209,1629 3188,1632 3181,1632 3185,1624 3188,1615 3185,1582 3199,1529 3238,1499 " style="fill: white; stroke: black; stroke-width: 30" />
<polyline points="3456,1597 3456,1660 3462,1710 3454,1727 3438,1724 3411,1699 3403,1663 3421,1618 3463,1582 3522,1564 3586,1547 3634,1530 3647,1522 3636,1517 3607,1527 3571,1554 3554,1575 3551,1614 3557,1660 3583,1672 3604,1683 3635,1668 3647,1658 3667,1633 3505,1505 " style="fill: white; stroke: black; stroke-width: 30" />
<polyline points="1277,1443 1265,1440 1253,1448 1215,1513 1169,1607 1157,1658 1179,1673 1236,1672 1303,1651 1359,1635 1398,1633 1421,1634 1443,1637 " style="fill: white; stroke: black; stroke-width: 30" />
<polyline points="1476,1539 1488,1541 1522,1545 1571,1553 1601,1565 1602,1582 1575,1625 1531,1679 1508,1704 1506,1708 " style="fill: white; stroke: black; stroke-width: 30" />
<polyline points="1710,1742 1729,1727 1767,1701 1828,1653 1899,1582 1948,1516 1966,1485 1971,1480 1969,1480 1962,1495 1952,1543 1946,1602 1949,1658 1963,1701 1975,1721 1984,1735 1990,1737 1990,1737 1992,1732 1993,1730 1995,1712 2006,1682 " style="fill: white; stroke: black; stroke-width: 30" />
<polyline points="2218,1658 2178,1682 2142,1686 2114,1681 2100,1663 2088,1636 " style="fill: white; stroke: black; stroke-width: 30" />
<polyline points="2378,1560 2371,1564 2374,1572 2403,1611 2452,1655 2500,1692 " style="fill: white; stroke: black; stroke-width: 30" />
<polyline points="2899,1610 2918,1595 2946,1585 2980,1584 3009,1601 3011,1627 3010,1664 2974,1721 2931,1773 2919,1806 2928,1817 2954,1839 3004,1850 " style="fill: white; stroke: black; stroke-width: 30" />
<polyline points="2916,1686 2885,1690 2885,1697 2914,1704 2991,1728 3091,1740 3159,1753 3179,1761 3171,1767 3175,1772 3176,1770 3171,1763 3145,1754 3118,1752 3094,1771 3090,1783 3097,1804 3129,1827 3164,1836 3185,1823 3178,1809 3171,1811 3177,1808 3178,1811 3192,1809 3205,1806 3203,1811 3203,1813 3217,1824 3257,1835 3314,1851 3364,1869 3378,1872 3373,1890 3382,1901 3398,1916 3426,1931 3464,1929 3472,1926 3468,1929 " style="fill: white; stroke: black; stroke-width: 30" />
<polyline points="3732,1741 3711,1755 3678,1802 3633,1860 3592,1925 3554,1983 3540,2006 3545,2004 3554,2001 3604,1978 3658,1973 3675,1980 3668,1996 3640,2015 3610,2017 3581,2006 3571,1995 3571,1991 3592,1955 3653,1928 3725,1911 3780,1916 3819,1924 3825,1930 3812,1942 3805,1956 3785,1992 3769,2028 3759,2047 3758,2055 3786,2026 " style="fill: white; stroke: black; stroke-width: 30" />
<polyline points="3928,1810 3919,1800 3899,1811 3891,1819 " style="fill: white; stroke: black; stroke-width: 30" />
<polyline points="4323,1986 4318,2001 4322,2011 4324,2012 4376,1938 4949,213 " style="fill: white; stroke: black; stroke-width: 30" />
<polyline points="4921,815 4932,896 4959,941 5015,942 5092,856 5138,756 5166,616 5080,872 5071,965 5077,1016 5105,981 5124,979 5182,865 5256,677 " style="fill: white; stroke: black; stroke-width: 30" />
<polyline points="1551,730 1548,733 1546,729 1539,719 1514,731 1480,741 1444,763 1427,784 1421,812 1429,844 1450,883 1468,920 1481,950 1485,953 1477,961 1451,956 1413,944 1384,928 1369,915 1363,922 1366,927 1387,930 " style="fill: white; stroke: black; stroke-width: 30" />
<polyline points="1629,899 1642,894 1668,903 1716,887 1762,876 1786,862 1782,851 1748,839 1691,840 1655,852 1643,889 1643,922 1666,954 " style="fill: white; stroke: black; stroke-width: 30" />
<polyline points="1894,899 1913,919 1946,933 1994,938 2049,930 2098,908 2146,872 2165,845 2161,832 2156,833 2132,830 2109,834 2113,834 2114,830 2113,834 2116,832 2115,828 2114,830 2117,831 2115,826 2112,828 2116,828 2117,822 2115,824 2118,831 2122,845 2137,869 2148,884 2163,890 2188,895 2229,889 2258,882 2266,873 2267,876 2265,875 2265,873 2266,878 2266,886 2271,910 2297,933 2328,942 2353,940 2370,919 2387,876 2393,856 2396,852 2400,848 2408,849 2442,847 2482,847 2521,838 2557,822 2565,823 2566,821 2567,821 2560,827 2557,836 2561,863 2564,883 2571,892 " style="fill: white; stroke: black; stroke-width: 30" />
<polyline points="2607,666 2588,647 2578,641 2570,637 2567,637 2564,631 2563,625 2565,625 2566,625 2567,625 2574,626 2577,626 2577,626 2581,626 2581,624 2577,626 2578,626 2576,629 2577,626 2582,624 2582,632 2604,652 " style="fill: white; stroke: black; stroke-width: 30" />
<polyline points="2804,614 2798,604 2789,604 2763,624 2723,701 2699,775 2687,839 2691,869 2694,865 2695,849 2710,798 2716,762 2711,766 2711,774 2726,773 2770,780 2821,782 2859,768 2878,754 2877,756 2865,763 2830,793 2820,824 2825,830 2846,842 2900,838 2922,850 2916,868 2883,924 2854,975 2850,1003 " style="fill: white; stroke: black; stroke-width: 30" />
<polyline points="3596,847 3580,849 3583,829 3573,848 3557,895 3533,962 3516,1024 " style="fill: white; stroke: black; stroke-width: 30" />
<polyline points="3482,843 3498,836 3538,853 3626,861 3716,861 3769,871 " style="fill: white; stroke: black; stroke-width: 30" />
<polyline points="3574,973 3583,984 3630,991 3708,1007 3779,1011 3802,999 3787,992 3737,985 3678,979 3651,998 3653,1030 3688,1052 3743,1072 3819,1080 3874,1079 3905,1066 3936,1030 3953,999 3958,1010 3952,1034 3952,1034 3952,1044 3940,1074 3924,1101 3915,1121 3921,1119 3933,1116 3983,1091 4016,1109 4026,1098 4026,1098 4015,1127 3995,1166 3991,1184 3995,1197 4017,1187 4056,1175 4079,1171 4086,1174 4096,1180 4119,1198 4141,1223 4155,1238 4154,1257 4159,1258 4166,1265 " style="fill: white; stroke: black; stroke-width: 30" />
<polyline points="6359,3355 " style="fill: white; stroke: black; stroke-width: 30" />
<polyline points="1872,5312 " style="fill: white; stroke: black; stroke-width: 30" />
<polyline points="-1674,11000 -1673,10985 -1649,10953 -1617,10877 -1577,10777 -1528,10694 -1499,10638 -1484,10621 -1471,10627 -1451,10646 -1424,10691 -1393,10745 -1366,10807 -1332,10855 -1301,10877 " style="fill: white; stroke: black; stroke-width: 30" />
<polyline points="-1102,10646 -1109,10641 -1119,10637 -1140,10640 -1192,10666 -1232,10715 -1238,10764 -1223,10814 -1189,10847 -1114,10869 " style="fill: white; stroke: black; stroke-width: 30" />
<polyline points="-827,10594 -845,10592 -860,10596 -870,10628 -888,10701 -902,10792 -904,10865 -900,10891 " style="fill: white; stroke: black; stroke-width: 30" />
<polyline points="-727,10432 " style="fill: white; stroke: black; stroke-width: 30" />
<polyline points="-749,10907 -745,10904 -726,10892 -692,10855 -637,10784 -583,10698 -547,10624 -545,10599 -557,10597 -548,10617 -543,10669 -518,10738 -484,10804 " style="fill: white; stroke: black; stroke-width: 30" />
<polyline points="477,10605 490,10622 491,10687 497,10776 494,10845 499,10880 516,10879 " style="fill: white; stroke: black; stroke-width: 30" />
<polyline points="610,10548 543,10601 462,10633 428,10637 432,10632 422,10630 440,10627 456,10624 512,10617 " style="fill: white; stroke: black; stroke-width: 30" />
<polyline points="734,10810 731,10823 741,10817 735,10797 740,10748 744,10690 742,10657 748,10657 748,10658 777,10669 827,10681 869,10690 909,10686 924,10690 918,10699 906,10727 898,10774 897,10811 903,10837 " style="fill: white; stroke: black; stroke-width: 30" />
<polyline points="949,10519 940,10521 929,10518 915,10519 901,10520 894,10530 874,10553 877,10566 880,10577 " style="fill: white; stroke: black; stroke-width: 30" />
<polyline points="1095,10709 1063,10677 1035,10657 1025,10656 1026,10667 1054,10703 1077,10754 1078,10803 1068,10830 1038,10846 1011,10846 987,10831 972,10796 " style="fill: white; stroke: black; stroke-width: 30" />
<polyline points="1206,10762 1209,10790 1210,10802 1200,10802 1220,10792 1267,10772 1308,10764 1338,10771 1340,10776 1345,10779 1354,10781 1363,10793 1382,10806 1407,10822 1434,10826 1476,10823 " style="fill: white; stroke: black; stroke-width: 30" />
<polyline points="-1440,11303 -1444,11403 -1440,11497 -1431,11550 -1422,11570 -1424,11568 -1422,11552 -1451,11516 -1468,11456 -1480,11379 -1485,11310 -1455,11262 -1429,11249 -1406,11256 -1386,11269 -1373,11290 -1368,11305 -1385,11315 -1409,11330 -1429,11351 -1430,11381 -1419,11415 -1390,11452 -1360,11471 -1336,11498 -1354,11523 -1374,11539 -1388,11543 -1416,11540 -1441,11526 -1464,11508 -1459,11507 -1424,11492 -1353,11457 -1300,11429 -1246,11401 -1216,11383 -1194,11385 -1191,11393 -1197,11431 -1189,11486 -1190,11518 -1157,11520 -1107,11499 -1059,11476 -1030,11470 -1018,11485 -991,11510 -969,11505 " style="fill: white; stroke: black; stroke-width: 30" />
<polyline points="-687,11366 -713,11365 -750,11369 -796,11377 -821,11389 -826,11395 -828,11402 -808,11431 -813,11471 -807,11508 -822,11533 -820,11537 -840,11536 -850,11524 -860,11512 -853,11500 " style="fill: white; stroke: black; stroke-width: 30" />
<polyline points="-657,11393 -640,11398 -637,11424 -647,11485 -659,11557 -659,11598 -640,11602 -615,11545 " style="fill: white; stroke: black; stroke-width: 30" />
<polyline points="-586,11317 -608,11241 -620,11229 -622,11227 " style="fill: white; stroke: black; stroke-width: 30" />
<polyline points="300,11472 263,11447 213,11433 183,11425 174,11416 163,11421 163,11432 170,11470 189,11526 189,11573 183,11595 157,11604 126,11595 126,11586 146,11569 212,11519 304,11454 393,11395 461,11355 450,11355 427,11388 401,11441 403,11498 416,11549 432,11584 439,11595 433,11596 389,11585 373,11572 " style="fill: white; stroke: black; stroke-width: 30" />
<polyline points="1262,11269 1239,11261 1238,11272 1229,11346 1201,11458 1192,11544 1183,11588 1190,11591 1189,11555 1188,11480 1189,11407 1174,11367 1173,11356 1178,11356 1187,11360 1197,11377 1214,11410 1229,11431 1258,11452 1281,11466 1337,11455 1391,11424 1448,11402 1462,11397 1456,11402 1419,11423 1411,11464 1396,11507 1401,11543 1423,11576 " style="fill: white; stroke: black; stroke-width: 30" />
<polyline points="1600,11485 1596,11452 1616,11424 1629,11406 1643,11410 1648,11430 1623,11474 1608,11512 1571,11535 1540,11536 1527,11522 1536,11507 1542,11466 1585,11421 " style="fill: white; stroke: black; stroke-width: 30" />
<polyline points="1989,11491 1938,11482 1920,11464 1876,11458 1854,11460 1837,11470 1814,11493 1800,11520 1802,11533 1792,11540 1790,11543 1810,11540 1842,11527 1866,11509 1930,11475 1984,11430 2024,11378 2059,11323 2059,11297 2046,11289 2030,11298 2020,11342 1987,11408 1993,11457 2018,11496 2073,11513 2139,11502 2176,11478 2171,11455 2153,11444 2098,11466 2080,11488 2089,11501 2133,11507 2196,11492 2297,11454 2525,11299 2529,11296 2490,11317 2453,11366 2420,11430 2422,11481 2451,11513 2504,11522 2545,11516 2585,11497 2619,11484 2615,11486 2608,11486 2618,11487 2595,11492 2597,11490 2609,11480 2632,11449 2670,11402 2702,11367 2720,11346 2707,11350 2726,11343 2724,11343 2723,11346 " style="fill: white; stroke: black; stroke-width: 30" />
<polyline points="2101,10799 " style="fill: white; stroke: black; stroke-width: 30" />
<polyline points="-2668,12706 -2669,12708 -2660,12700 -2632,12676 -2608,12633 -2553,12562 -2502,12492 -2439,12422 -2396,12356 -2353,12308 -2340,12290 -2339,12285 -2354,12290 " style="fill: white; stroke: black; stroke-width: 30" />
<polyline points="-2733,12380 -2739,12384 -2727,12385 -2696,12391 -2651,12418 -2584,12453 -2506,12488 -2438,12521 -2365,12559 -2293,12588 " style="fill: white; stroke: black; stroke-width: 30" />
<polyline points="-2509,12281 -2523,12278 -2521,12281 -2525,12285 -2503,12334 -2490,12405 -2470,12508 -2452,12609 -2422,12689 -2411,12722 " style="fill: white; stroke: black; stroke-width: 30" />
<polyline points="-1957,12365 -1958,12357 -1966,12345 -2000,12329 -2040,12328 -2117,12351 -2169,12401 -2198,12467 -2186,12525 -2143,12579 -2093,12603 -2001,12600 -1911,12574 " style="fill: white; stroke: black; stroke-width: 30" />
<polyline points="-1811,12421 -1856,12418 -1884,12444 -1908,12490 -1924,12548 -1887,12593 -1841,12600 -1791,12573 -1764,12517 -1758,12471 -1766,12458 -1770,12453 -1779,12453 -1787,12458 -1799,12456 -1801,12454 -1782,12457 -1782,12455 -1765,12454 " style="fill: white; stroke: black; stroke-width: 30" />
<polyline points="-1826,12394 -1846,12396 -1843,12409 -1823,12434 -1788,12483 -1773,12544 -1762,12590 -1728,12610 " style="fill: white; stroke: black; stroke-width: 30" />
<polyline points="-1707,12451 -1712,12455 -1702,12486 -1664,12545 -1647,12589 -1638,12594 -1614,12571 -1601,12530 -1593,12488 -1603,12471 -1603,12466 -1614,12460 -1589,12453 " style="fill: white; stroke: black; stroke-width: 30" />
<polyline points="-861,12289 -875,12289 -887,12296 -904,12337 -955,12424 -987,12498 -987,12524 -945,12541 -870,12528 -774,12497 -704,12478 -668,12475 -652,12473 -645,12474 -642,12475 -652,12480 -642,12508 -636,12527 -619,12524 " style="fill: white; stroke: black; stroke-width: 30" />
<polyline points="-575,12282 -586,12235 -607,12229 -593,12229 " style="fill: white; stroke: black; stroke-width: 30" />
<polyline points="-436,12513 -403,12495 -360,12480 -360,12482 -355,12491 -357,12534 -363,12591 -367,12646 -375,12677 -392,12683 -418,12671 -459,12615 -462,12377 " style="fill: white; stroke: black; stroke-width: 30" />
<polyline points="-171,12257 -188,12303 -213,12393 -221,12480 -203,12517 -191,12521 -144,12505 -89,12499 -61,12514 -40,12533 " style="fill: white; stroke: black; stroke-width: 30" />
<polyline points="161,12265 148,12281 144,12335 123,12412 108,12467 103,12481 110,12470 84,12451 72,12445 82,12444 82,12448 117,12452 157,12455 " style="fill: white; stroke: black; stroke-width: 30" />
<polyline points="425,12534 423,12541 404,12546 368,12549 349,12543 328,12539 " style="fill: white; stroke: black; stroke-width: 30" />
<polyline points="1343,12223 1352,12216 1346,12224 1325,12276 1304,12388 1297,12475 1294,12521 1294,12544 1332,12542 1381,12531 1434,12527 " style="fill: white; stroke: black; stroke-width: 30" />
<polyline points="1618,12456 1605,12471 1586,12469 1517,12456 1524,12433 1503,12417 " style="fill: white; stroke: black; stroke-width: 30" />
<polyline points="1761,12410 1771,12397 1778,12376 1799,12357 1826,12362 1877,12378 1892,12403 1880,12435 1854,12455 1813,12459 1784,12457 1770,12442 1751,12429 " style="fill: white; stroke: black; stroke-width: 30" />
<polyline points="1850,12697 1863,12648 1899,12548 1948,12484 1989,12446 1985,12439 1981,12442 1990,12452 1968,12467 1962,12478 1973,12473 1976,12472 1936,12482 1957,12476 1959,12475 1952,12478 1952,12479 1954,12474 1951,12470 1916,12448 1901,12428 1881,12411 1877,12396 1857,12390 1848,12184 " style="fill: white; stroke: black; stroke-width: 30" />
<polyline points="2493,12439 2498,12422 2503,12377 2513,12317 2491,12277 2485,12258 2510,12250 2554,12248 2589,12254 2597,12257 2599,12255 2581,12263 2601,12274 2614,12313 2644,12372 2671,12418 2671,12444 2633,12463 2582,12483 2549,12482 2546,12477 2546,12480 2559,12483 2574,12471 2640,12436 2707,12387 2743,12335 2781,12280 2800,12254 2789,12254 2798,12256 2780,12301 2740,12381 2746,12444 2729,12478 2795,12490 2852,12489 2898,12476 2934,12466 2927,12469 2924,12480 2906,12503 2917,12514 2932,12516 2925,12506 " style="fill: white; stroke: black; stroke-width: 30" />
<polyline points="2985,12339 2955,12311 2976,12291 2987,12284 3087,12490 3097,12488 3104,12487 3099,12487 3098,12492 3084,12496 3084,12506 " style="fill: white; stroke: black; stroke-width: 30" />
<polyline points="3195,12531 " style="fill: white; stroke: black; stroke-width: 30" />
<polyline points="3290,12466 3314,12450 3273,12449 3260,12442 3240,12453 3197,12488 3190,12510 3185,12523 3194,12516 3249,12467 3324,12400 3367,12338 3349,12309 3393,12282 3405,12277 3403,12316 3392,12383 3397,12440 3395,12480 3398,12512 " style="fill: white; stroke: black; stroke-width: 30" />
<polyline points="3698,12563 3751,12544 3784,12520 3843,12474 3880,12428 3918,12385 3937,12344 3935,12322 " style="fill: white; stroke: black; stroke-width: 30" />
<polyline points="3728,12313 3732,12310 3758,12327 3796,12380 3858,12445 3904,12508 3960,12557 3990,12609 " style="fill: white; stroke: black; stroke-width: 30" />
<polyline points="3883,12300 3917,12282 3937,12284 3942,12344 3937,12463 3927,12563 3928,12656 " style="fill: white; stroke: black; stroke-width: 30" />
<polyline points="-2556,13122 -2543,13099 -2523,13062 -2478,13014 -2443,12976 -2398,12943 -2356,12911 " style="fill: white; stroke: black; stroke-width: 30" />
<polyline points="-2575,12890 -2586,12890 -2580,12901 -2526,12956 " style="fill: white; stroke: black; stroke-width: 30" />
<polyline points="-2710,12982 -2705,12981 -2669,12982 -2649,12988 -2580,13007 -2523,13020 -2453,13017 -2343,13008 " style="fill: white; stroke: black; stroke-width: 30" />
<polyline points="-1865,12848 -1936,12843 -2008,12855 -2073,12882 -2101,12918 -2082,12970 -2044,13036 -2027,13073 -2018,13086 -2008,13085 -2034,13068 -2058,13045 -2064,13035 -2062,13039 -2033,13045 -1981,13041 -1900,13026 -1847,12985 -1788,12941 -1787,12920 -1819,12915 -1866,12943 -1894,13001 -1889,13033 -1843,13051 -1781,13038 -1718,13019 -1697,13010 -1675,13016 -1658,13025 -1663,13039 " style="fill: white; stroke: black; stroke-width: 30" />
<polyline points="-1443,12974 -1448,12959 -1462,12945 -1478,12938 -1519,12950 -1528,12980 -1526,13010 -1518,13026 -1487,13017 -1437,12968 -1409,12893 -1414,12847 -1406,12846 -1445,12887 -1473,12960 -1472,13020 -1434,13057 " style="fill: white; stroke: black; stroke-width: 30" />
<polyline points="-843,12909 -816,12918 -768,12924 -711,12921 -662,12912 -645,12906 -642,12906 -657,12907 -694,12916 -727,12945 -739,12980 -719,13011 -676,13035 -649,13038 -604,13027 -588,13009 -580,12979 -618,12950 -639,12939 -651,12939 -651,12943 -631,12733 " style="fill: white; stroke: black; stroke-width: 30" />
<polyline points="19,13170 44,13078 93,12999 153,12956 180,12938 199,12937 182,12947 178,12975 144,13006 102,13015 73,13009 66,12998 " style="fill: white; stroke: black; stroke-width: 30" />
<polyline points="366,12986 362,13016 360,13023 333,13020 308,12996 305,12974 300,12962 309,12952 348,12944 397,12954 444,12969 476,12975 508,12971 512,12952 536,12931 548,12927 540,12928 558,12936 581,12953 608,12961 654,12960 711,12962 714,12969 717,12979 730,13001 734,13029 742,13038 740,13041 730,13040 727,13042 718,13053 723,13058 738,13050 " style="fill: white; stroke: black; stroke-width: 30" />
<polyline points="1445,12847 1441,12827 1401,12825 1340,12853 1284,12903 1265,12941 1265,12964 1300,12993 1331,13007 1369,12991 1374,12966 1366,12934 1367,12925 1382,12925 1395,12926 1417,12924 1450,12936 1473,12961 1498,12984 1522,12996 1542,13000 1572,12996 1573,12986 1594,12954 1602,12900 1627,12860 1634,12833 1646,12815 1642,12820 1666,12830 1687,12839 1727,12843 1765,12848 1796,12857 1824,12866 1814,12899 1804,12937 1796,12972 1794,12990 1797,12992 1792,12995 1779,12991 1789,12987 1771,12990 1762,12993 1752,12994 1752,12997 1737,12999 1740,12998 1734,12996 1724,12992 1714,12972 1726,12950 1724,12933 1710,12927 1720,12920 1737,12905 1788,12894 1831,12896 1863,12907 1903,12922 1946,12944 1951,12961 1956,12977 1944,12984 1911,12981 1861,12969 1816,12966 1802,12957 1796,12930 1827,12903 1857,12886 1875,12885 1899,12898 1925,12920 1949,12946 1975,12971 1964,12995 1974,12996 " style="fill: white; stroke: black; stroke-width: 30" />
<polyline points="2057,12692 2052,12693 2062,12690 2029,12704 " style="fill: white; stroke: black; stroke-width: 30" />
<polyline points="2194,12858 2206,12854 2206,12852 2228,12850 2201,12851 2180,12848 2182,12844 2169,12841 2208,12833 2201,12838 2230,12832 2201,12837 2144,12649 " style="fill: white; stroke: black; stroke-width: 30" />
<polyline points="2446,12998 2460,12989 2547,12959 2589,12924 2647,12890 2664,12861 2616,12853 " style="fill: white; stroke: black; stroke-width: 30" />
<polyline points="2395,12846 2403,12850 2457,12878 2468,12922 2533,12954 2545,12987 2552,13014 " style="fill: white; stroke: black; stroke-width: 30" />
<polyline points="2295,12925 2334,12901 2437,12880 2514,12880 " style="fill: white; stroke: black; stroke-width: 30" />

</svg>