<?xml version="1.0" standalone="no"?>
<!DOCTYPE svg PUBLIC "-//W3C//DTD SVG 1.1//EN" "http://www.w3.org/Graphics/SVG/1.1/DTD/svg11.dtd">
<svg width="210mm" height="297mm" viewBox="-7000 500 14000 20000" version="1.1" xmlns="http://www.w3.org/2000/svg">

<polyline points="-2848,1532 -2843,1516 -2824,1470 -2791,1376 -2754,1247 -2701,1090 -2647,989 -2625,942 -2619,943 -2599,991 -2576,1083 -2537,1199 -2482,1322 -2425,1427 -2395,1475 -2398,1475 -2429,1448 -2502,1396 -2632,1329 -2751,1270 -2798,1231 -2796,1229 -2775,1229 -2713,1231 -2622,1241 -2496,1262 " style="fill: white; stroke: black; stroke-width: 30" />
<polyline points="-2264,1362 -2259,1365 -2250,1353 -2202,1309 -2126,1262 -2037,1249 -1957,1281 -1915,1335 -1927,1391 -1980,1432 -2059,1449 -2123,1432 -2187,1391 -2221,1352 -2225,1342 " style="fill: white; stroke: black; stroke-width: 30" />
<polyline points="-1601,1164 -1681,1128 -1749,1127 -1778,1163 -1769,1233 -1730,1311 -1700,1372 -1735,1421 -1781,1425 -1808,1417 -1815,1405 -1782,1366 " style="fill: white; stroke: black; stroke-width: 30" />
<polyline points="-1599,1345 -1599,1295 -1589,1254 -1577,1235 -1534,1220 -1464,1223 " style="fill: white; stroke: black; stroke-width: 30" />
<polyline points="-1359,1340 -1362,1322 -1351,1262 -1328,1192 -1297,1138 -1277,1114 -1258,1117 " style="fill: white; stroke: black; stroke-width: 30" />
<polyline points="-1032,1425 -1062,1416 -1103,1370 -1115,1300 -1094,1243 -1047,1231 -992,1260 -953,1307 -928,1342 " style="fill: white; stroke: black; stroke-width: 30" />
<polyline points="-570,951 " style="fill: white; stroke: black; stroke-width: 30" />
<polyline points="-709,1386 " style="fill: white; stroke: black; stroke-width: 30" />
<polyline points="-612,1154 " style="fill: white; stroke: black; stroke-width: 30" />
<polyline points="1164,838 1137,827 1128,832 1101,901 1050,1025 991,1177 964,1288 987,1355 1046,1362 1135,1323 " style="fill: white; stroke: black; stroke-width: 30" />
<polyline points="1384,1109 1398,1053 1367,1023 1296,1036 1166,1106 1047,1209 1015,1282 1032,1340 1102,1395 1224,1416 1365,1385 " style="fill: white; stroke: black; stroke-width: 30" />
<polyline points="1668,910 1654,906 1646,932 1638,1026 1639,1161 1640,1282 1636,1369 1628,1412 1624,1414 1626,1412 1636,1408 1683,1378 1765,1357 1866,1370 1974,1386 2054,1382 " style="fill: white; stroke: black; stroke-width: 30" />
<polyline points="2110,1249 2084,1221 2052,1198 2024,1183 2019,1170 2024,1160 2038,1156 2069,1178 2101,1251 2113,1338 2107,1403 2085,1428 2047,1429 1993,1391 1967,1341 1966,1318 1990,1308 2079,1300 2216,1286 2374,1251 2514,1196 2570,1160 2564,1147 2529,1143 2475,1144 2439,1161 2405,1212 2379,1278 2365,1338 2358,1369 2360,1373 2369,1368 2390,1326 2459,1260 2563,1205 2675,1151 2757,1111 2784,1098 2781,1103 2779,1133 2782,1188 2785,1248 2789,1307 2783,1377 2763,1414 2735,1434 2715,1438 2687,1417 2649,1390 2622,1355 2606,1330 2613,1325 2662,1323 2765,1319 2869,1307 2969,1294 3033,1261 3045,1237 3028,1232 2990,1218 2950,1211 2947,1221 2947,1252 2990,1301 " style="fill: white; stroke: black; stroke-width: 30" />
<polyline points="-2649,1851 -2649,1848 -2650,1845 -2651,1844 -2653,1840 -2650,1842 -2650,1846 -2648,1847 -2649,1845 " style="fill: white; stroke: black; stroke-width: 30" />
<polyline points="-2541,1858 -2507,1955 -2472,2088 -2434,2205 -2381,2286 -2332,2326 -2302,2335 -2311,2313 -2377,2254 -2510,2179 -2638,2115 -2699,2085 -2700,2088 -2690,2085 -2628,2096 -2523,2114 -2395,2139 -2277,2176 -2186,2217 -2144,2257 -2141,2281 -2146,2277 -2140,2226 -2098,2147 -2024,2084 -1958,2079 -1907,2114 -1879,2172 -1871,2227 -1870,2256 " style="fill: white; stroke: black; stroke-width: 30" />
<polyline points="-1632,2029 -1649,2040 -1658,2085 -1644,2163 -1621,2243 -1621,2300 -1637,2316 -1666,2305 -1719,2261 -1763,2192 -1757,2121 -1678,2042 -1546,1947 -1424,1865 -1358,1818 -1354,1817 -1364,1865 -1398,1976 -1434,2096 -1443,2172 -1439,2193 -1440,2187 -1436,2151 -1429,2123 -1423,2114 -1379,2102 -1284,2079 -1183,2058 -1128,2047 -1125,2042 -1155,2043 -1213,2055 -1250,2082 -1258,2115 -1239,2172 -1189,2232 " style="fill: white; stroke: black; stroke-width: 30" />
<polyline points="-528,2000 -532,1998 -537,1996 -538,1992 -538,1987 -538,1975 -542,1971 -544,1971 -547,1969 -555,1964 -570,1965 -615,1981 -675,2022 -716,2075 -706,2119 -662,2177 " style="fill: white; stroke: black; stroke-width: 30" />
<polyline points="-135,1843 -189,1885 -266,1974 -328,2091 -344,2157 -336,2184 -325,2190 -289,2163 -225,2101 -182,2062 -180,2050 -201,2057 -239,2091 -280,2137 -295,2191 -273,2236 -216,2261 -129,2247 -40,2205 4,2141 6,2102 -27,2107 -80,2145 -113,2187 -109,2213 -74,2222 -16,2217 26,2217 38,2224 39,2245 42,2273 52,2298 66,2308 77,2305 " style="fill: white; stroke: black; stroke-width: 30" />
<polyline points="-1743,2991 " style="fill: white; stroke: black; stroke-width: 30" />
<polyline points="-1827,2882 -1823,2846 -1820,2845 -1820,2890 -1824,3042 -1821,3193 -1766,3286 -1642,3345 -1466,3362 -1284,3346 -1075,3123 -1016,3190 -988,3255 -1007,3314 " style="fill: white; stroke: black; stroke-width: 30" />
<polyline points="55,2831 43,2818 32,2832 12,2920 -17,3081 -28,3223 -26,3311 -23,3373 -6,3396 44,3389 156,3327 274,3259 342,3225 392,3216 431,3215 466,3211 503,3201 533,3185 546,3175 556,3174 560,3167 558,3162 563,3156 577,3158 598,3201 618,3272 619,3339 601,3380 573,3394 524,3372 460,3321 430,3277 439,3207 526,3130 " style="fill: white; stroke: black; stroke-width: 30" />
<polyline points="1118,3272 1090,3280 1040,3265 984,3216 949,3159 941,3109 905,2849 " style="fill: white; stroke: black; stroke-width: 30" />
<polyline points="1303,3511 1337,3370 1397,3237 1448,3161 1491,3131 1528,3147 1561,3205 1573,3261 1565,3311 1541,3345 1499,3355 1439,3339 " style="fill: white; stroke: black; stroke-width: 30" />
<polyline points="-400,3947 -423,3955 -453,3993 -472,4080 -485,4202 -474,4334 -463,4432 " style="fill: white; stroke: black; stroke-width: 30" />
<polyline points="88,4290 157,4310 258,4315 358,4296 442,4252 489,4201 488,4153 449,4128 365,4138 286,4180 256,4229 267,4283 303,4323 372,4362 452,4377 530,4364 625,4308 709,4222 754,4140 756,4109 738,4110 701,4129 656,4183 641,4237 655,4282 697,4310 775,4327 846,4326 923,4298 967,4251 978,4199 962,4169 925,4158 897,4164 894,4183 912,4215 955,4250 1009,4273 1107,4284 1199,4271 1260,4252 1269,4243 1250,4245 1187,4263 1139,4284 1131,4304 1162,4353 1238,4408 1348,4448 1479,4467 1593,4453 1655,4394 1669,4330 1674,4283 1696,4257 1778,4227 1919,4211 2107,4216 2315,4246 " style="fill: white; stroke: black; stroke-width: 30" />
<polyline points="-3691,9883 " style="fill: white; stroke: black; stroke-width: 30" />
<polyline points="-3401,6244 -3447,6241 -3462,6241 -3444,6240 -3351,6233 -3181,6211 -2894,6174 -2484,6118 -1950,6066 -1315,6027 -617,6006 99,5996 834,5993 1570,6002 2304,6003 3034,5994 3724,5984 4260,5977 4588,5949 4740,5886 4791,5825 " style="fill: white; stroke: black; stroke-width: 30" />
<polyline points="-2348,6907 -2364,6916 -2365,6938 -2328,7015 -2262,7112 -2186,7203 -2135,7290 -2120,7354 -2132,7382 -2163,7391 -2221,7365 -2279,7298 " style="fill: white; stroke: black; stroke-width: 30" />
<polyline points="-1935,7195 -1897,7278 -1827,7315 -1749,7298 -1678,7235 -1643,7171 -1641,7154 -1657,7160 -1670,7192 -1671,7232 -1648,7256 -1626,7251 -1606,7218 -1603,7163 -1598,7118 -1594,7093 -1582,7066 -1528,7043 -1462,7041 -1414,7055 -1375,7079 -1354,7117 -1347,7157 -1347,7184 -1342,7196 -1338,7193 -1330,7189 " style="fill: white; stroke: black; stroke-width: 30" />
<polyline points="-1301,6746 -1314,6743 -1329,6741 -1352,6754 -1379,6787 " style="fill: white; stroke: black; stroke-width: 30" />
<polyline points="-1079,7076 -1117,7078 -1133,7094 -1130,7147 -1126,7233 -1124,7334 -1119,7418 -1117,7481 -1116,7491 -1116,7471 -1120,7385 -1110,7251 -1062,7157 -993,7111 -929,7100 -890,7120 -886,7163 -928,7215 -986,7250 -1031,7256 -1070,7228 -1097,7163 -1065,7077 -984,6942 -867,6819 -771,6732 -700,6690 -661,6698 -656,6783 -686,6939 -717,7073 -739,7165 -747,7202 -749,7201 -745,7189 -737,7158 -721,7108 -701,7076 -687,7066 -648,7067 " style="fill: white; stroke: black; stroke-width: 30" />
<polyline points="-1804,7931 -1812,7938 -1824,7975 -1842,8075 -1829,8179 -1768,8245 -1662,8268 -1540,8253 -1427,8222 -1353,8197 " style="fill: white; stroke: black; stroke-width: 30" />
<polyline points="-1432,7637 " style="fill: white; stroke: black; stroke-width: 30" />
<polyline points="-459,7860 -482,7874 -495,7934 -498,8038 -497,8150 -495,8222 -489,8257 -478,8261 -466,8216 -454,8100 -446,7949 -412,7858 -352,7818 -278,7833 -208,7905 -184,8002 -216,8109 -279,8195 -370,8236 -453,8237 -502,8216 -505,8204 -477,8206 -372,8203 -246,8173 -124,8125 -14,8069 25,8034 10,8033 -35,8061 -85,8114 -104,8169 -95,8213 -39,8247 58,8246 " style="fill: white; stroke: black; stroke-width: 30" />
<polyline points="422,7952 490,7834 494,7773 470,7754 429,7769 347,7851 268,7997 210,8149 183,8248 179,8289 188,8281 245,8219 334,8125 435,8040 533,7967 620,7910 685,7867 731,7835 745,7822 742,7824 737,7826 723,7822 710,7821 705,7820 684,7835 620,7904 535,7999 475,8077 455,8142 466,8190 502,8220 544,8218 589,8177 626,8110 643,8033 638,8006 621,7997 598,7998 592,7998 590,7997 609,7999 645,8008 677,8024 706,8040 745,8043 763,8044 765,8048 754,8057 746,8069 752,8069 778,8045 837,8019 885,8017 902,8048 901,8098 " style="fill: white; stroke: black; stroke-width: 30" />
<polyline points="1098,8099 1165,8145 1272,8165 1397,8155 1476,8123 1509,8089 1515,8069 1530,8040 1569,7999 1618,7952 1640,7887 1640,7845 1613,7845 1561,7889 1519,7962 1515,8029 1548,8102 1636,8160 1745,8012 " style="fill: white; stroke: black; stroke-width: 30" />
<polyline points="205,8639 191,8605 171,8604 141,8652 80,8793 55,8911 69,8990 114,9044 196,9080 287,9087 367,8878 " style="fill: white; stroke: black; stroke-width: 30" />
<polyline points="120,8552 121,8559 135,8571 177,8591 240,8609 350,8612 476,8608 " style="fill: white; stroke: black; stroke-width: 30" />
<polyline points="2018,8861 2100,8857 2138,8854 2155,8857 2143,8860 2084,8864 " style="fill: white; stroke: black; stroke-width: 30" />
<polyline points="1479,8974 1443,9005 1438,9023 1468,9032 1555,9030 1662,9016 1779,8999 1917,8982 2053,8964 2152,8956 2185,8959 2197,8959 2196,8960 2189,8963 2180,8964 2181,8958 " style="fill: white; stroke: black; stroke-width: 30" />
<polyline points="2295,8682 2268,8660 2265,8642 2264,8630 2265,8626 2263,8626 2280,8622 2279,8626 2275,8644 2268,8696 2255,8781 2238,8890 2221,9011 2216,9122 2218,9204 2221,9234 2222,9236 2224,9221 2223,9151 2235,9069 " style="fill: white; stroke: black; stroke-width: 30" />
<polyline points="2203,8666 2208,8660 2219,8654 2215,8657 2207,8661 2212,8660 2205,8662 2211,8669 2249,8680 2313,8694 2375,8695 2415,8688 2405,8689 2399,8690 2396,8691 2387,8690 2394,8690 2393,8693 2397,8702 2395,8734 2397,8784 2382,8869 2361,8965 2350,9043 2355,9092 2355,9143 2354,9201 2355,9252 2357,9289 2357,9305 2364,9302 2373,9300 2372,9295 2367,9291 2366,9293 2379,9291 2379,9291 2376,9296 2376,9296 2369,9298 2364,9302 2366,9300 2365,9298 2368,9301 2366,9301 2360,9303 2358,9307 2356,9309 2367,9305 2371,9307 2369,9308 2367,9307 2362,9308 2353,9310 2341,9309 2334,9312 2335,9310 2335,9310 2332,9315 2315,9332 2293,9343 2277,9347 2266,9343 2258,9342 2263,9340 2283,9333 2297,9329 2306,9331 2306,9331 2300,9334 2307,9335 2301,9335 2300,9331 2293,9319 2276,9266 2232,9190 2202,9090 2201,9022 2201,8996 2199,8999 " style="fill: white; stroke: black; stroke-width: 30" />
<polyline points="3129,9371 3107,9355 3099,9328 3088,9283 3069,9219 3066,9114 3064,8969 3083,8815 3126,8707 3196,8632 3286,8588 3406,8566 3518,8584 3604,8618 3647,8655 3675,8672 3670,8686 3663,8703 3655,8718 3659,8730 3666,8730 3670,8725 3671,8724 3676,8719 3664,8721 3684,8714 3694,8707 3699,8704 3690,8709 3684,8707 3664,8715 3651,8720 3651,8719 3669,8708 3672,8695 3680,8683 3688,8668 3700,8661 3702,8661 3702,8660 3686,8668 3676,8674 3670,8674 3653,8673 3651,8664 3639,8663 3601,8678 3540,8706 3499,8734 3449,8782 3390,8843 3328,8913 3259,8987 3200,9068 3163,9145 3142,9224 3137,9296 3158,9358 3171,9397 3184,9412 3177,9416 3184,9417 3192,9417 3187,9420 3190,9423 3199,9425 3201,9426 3216,9425 " style="fill: white; stroke: black; stroke-width: 30" />
<polyline points="3233,9390 3234,9380 3233,9371 3235,9366 3236,9374 3233,9433 3261,9536 3271,9681 3305,9816 3332,9946 3349,10043 3375,10103 3404,10139 3409,10160 3403,10161 3388,10151 3384,10078 3370,9934 3307,9752 3252,9579 3214,9450 3200,9403 3205,9400 3213,9430 3243,9546 3300,9706 3376,9878 3453,10018 3529,10108 3590,10135 3604,10134 3607,10112 3616,10014 3589,9870 3537,9687 3457,9522 3365,9412 3342,9370 3336,9372 3364,9417 3433,9522 3476,9669 3527,9821 3555,9937 3574,10003 3577,10018 3592,10011 3585,9964 3549,9837 3514,9671 3468,9488 3435,9364 3409,9333 3419,9333 3430,9387 3459,9522 3480,9697 3535,9886 " style="fill: white; stroke: black; stroke-width: 30" />
<polyline points="3145,6410 3091,6417 3062,6447 3049,6511 3057,6569 3081,6611 3130,6633 3177,6633 3219,6621 3163,6413 " style="fill: white; stroke: black; stroke-width: 30" />
<polyline points="3384,6651 3385,6635 3406,6600 3429,6553 3444,6506 3457,6454 3481,6395 3502,6357 3504,6349 3511,6347 3508,6362 3505,6403 3495,6463 3504,6515 3514,6558 3525,6585 3531,6598 3541,6599 3539,6596 3518,6582 3476,6553 3443,6511 3430,6476 3429,6463 3425,6470 3442,6487 3484,6509 3534,6524 3600,6521 3667,6497 3711,6463 3729,6445 3735,6436 3727,6438 3726,6438 3708,6459 3705,6489 3693,6551 3685,6598 3681,6615 3684,6617 3681,6611 3691,6562 3731,6459 3763,6398 3800,6370 3830,6381 3873,6415 3895,6462 3889,6498 3873,6507 3832,6503 3788,6484 3776,6463 3778,6454 3835,6421 3923,6386 3993,6365 4038,6358 4045,6363 4052,6361 4047,6376 4032,6429 4040,6478 4040,6532 4014,6583 4022,6588 " style="fill: white; stroke: black; stroke-width: 30" />
<polyline points="-2158,10748 -2164,10737 -2172,10732 -2176,10729 -2171,10729 -2177,10734 -2173,10761 -2156,10859 -2146,10965 -2144,11034 -2133,11057 -2132,11053 -2130,11021 -2118,10934 -2126,10826 -2126,10736 -2123,10711 -2124,10717 -2118,10741 -2109,10793 -2080,10845 -2042,10884 -1992,10894 " style="fill: white; stroke: black; stroke-width: 30" />
<polyline points="-1786,10820 -1790,10922 -1798,11012 -1800,11054 " style="fill: white; stroke: black; stroke-width: 30" />
<polyline points="-1481,10750 -1507,10753 -1531,10759 -1536,10767 -1521,10797 -1497,10853 -1482,10925 -1485,10996 -1500,11062 -1516,11101 -1530,11107 -1552,11081 -1596,11028 -1601,11000 -1586,10985 -1543,10988 -1494,11001 -1461,11012 -1404,11015 -1351,10995 -1276,10954 -1223,10908 -1192,10876 -1193,10848 -1186,10825 -1192,10804 -1210,10791 -1227,10795 -1258,10812 -1259,10844 -1240,10895 -1211,10939 -1171,10993 -1152,11074 -1129,11164 -1123,11236 -1132,11289 -1149,11308 -1170,11295 -1209,11218 -1244,11103 -1232,11047 -1201,11025 -1145,11011 -1080,10987 -998,10941 -937,10888 -926,10864 -938,10874 -958,10917 -963,10974 -942,11001 -908,10990 -848,10953 -798,10951 -776,10969 -758,11000 " style="fill: white; stroke: black; stroke-width: 30" />
<polyline points="-1606,11397 -1633,11397 -1641,11410 -1657,11488 -1649,11657 -1606,11789 -1510,11845 -1390,11852 -1290,11812 -1238,11765 " style="fill: white; stroke: black; stroke-width: 30" />
<polyline points="-1075,11487 -1087,11549 -1086,11610 -1064,11638 -1039,11655 -1019,11654 -997,11655 -987,11667 -958,11696 -946,11738 -948,11789 -979,11841 -1009,11882 -1034,11905 -1033,11917 -1037,11908 " style="fill: white; stroke: black; stroke-width: 30" />
<polyline points="-409,11353 -410,11439 -398,11591 -410,11739 -415,11835 -416,11866 -423,11860 -401,11813 -386,11677 -365,11514 -352,11429 -360,11413 -358,11424 -351,11483 -325,11567 -279,11635 -229,11667 -154,11651 -72,11585 -33,11546 -30,11543 -28,11581 -31,11676 -40,11743 -29,11757 13,11756 50,11740 77,11722 " style="fill: white; stroke: black; stroke-width: 30" />
<polyline points="293,11697 310,11758 366,11773 423,11742 473,11677 473,11626 462,11613 458,11618 465,11634 495,11667 555,11673 649,11648 719,11616 755,11590 753,11582 753,11582 746,11581 750,11582 750,11582 772,11581 770,11583 775,11583 763,11580 767,11573 774,11573 757,11588 747,11633 738,11674 743,11680 768,11657 777,11615 794,11574 807,11549 823,11547 849,11550 891,11552 942,11551 989,11536 1048,11513 " style="fill: white; stroke: black; stroke-width: 30" />
<polyline points="1296,11147 1259,11169 1213,11240 1182,11352 1157,11474 1143,11558 1138,11595 1138,11600 1141,11579 1172,11535 1213,11505 1252,11504 1266,11529 1258,11579 1246,11629 1231,11663 1221,11668 1184,11637 1160,11593 1668,11537 1651,11578 1647,11581 1648,11574 1674,11548 1715,11525 1721,11531 1727,11559 1732,11593 1736,11618 " style="fill: white; stroke: black; stroke-width: 30" />
<polyline points="2229,11402 2202,11399 2191,11401 2190,11412 2197,11449 2211,11508 2216,11570 2241,11629 2232,11668 2194,11691 2190,11693 2162,11680 2168,11649 " style="fill: white; stroke: black; stroke-width: 30" />
<polyline points="3189,10902 3198,10901 3191,10928 3170,11049 3140,11221 3115,11364 3109,11467 " style="fill: white; stroke: black; stroke-width: 30" />
<polyline points="3692,11509 3706,11497 3717,11429 3716,11335 3734,11260 3772,11211 3825,11191 3904,11198 3991,11237 " style="fill: white; stroke: black; stroke-width: 30" />
<polyline points="4244,11373 4270,11386 4269,11386 4253,11370 4193,11368 4124,11362 4066,11372 4033,11388 4055,11407 4058,11452 4111,11471 4134,11470 4165,11450 4170,11432 4174,11402 4188,11361 4172,11330 4174,11303 4172,11295 4180,11297 4197,11301 4247,11303 " style="fill: white; stroke: black; stroke-width: 30" />
<polyline points="4516,11349 4554,11366 4557,11387 4570,11405 4590,11423 4665,11404 4725,11385 4773,11369 4775,11373 4779,11390 4754,11430 4783,11452 4803,11480 4830,11505 4866,11527 4905,11548 4953,11563 5010,11558 5033,11555 5052,11544 5034,11549 5046,11559 5071,11576 5101,11594 " style="fill: white; stroke: black; stroke-width: 30" />
<polyline points="-452,12285 -454,12287 -448,12321 -468,12402 -455,12514 -440,12619 -397,12686 -328,12696 -231,12626 -125,12523 -49,12460 -9,12446 2,12468 9,12526 16,12578 28,12600 33,12600 52,12563 " style="fill: white; stroke: black; stroke-width: 30" />
<polyline points="172,12234 169,12181 153,12167 128,12168 " style="fill: white; stroke: black; stroke-width: 30" />
<polyline points="389,12239 352,12368 338,12468 360,12511 391,12517 454,12481 531,12425 584,12389 579,12383 558,12390 504,12435 468,12500 475,12555 505,12597 582,12614 675,12619 757,12623 805,12623 843,12617 " style="fill: white; stroke: black; stroke-width: 30" />

</svg>