<?xml version="1.0" standalone="no"?>
<!DOCTYPE svg PUBLIC "-//W3C//DTD SVG 1.1//EN" "http://www.w3.org/Graphics/SVG/1.1/DTD/svg11.dtd">
<svg width="210mm" height="297mm" viewBox="-7000 500 14000 20000" version="1.1" xmlns="http://www.w3.org/2000/svg">

<polyline points="-2744,2427 -2751,2420 -2758,2425 -2762,2429 -2766,2432 -2765,2435 -2762,2441 -2735,2449 -2671,2448 -2566,2441 -2449,2428 -2325,2414 -2241,2410 -2190,2407 -2180,2408 -2179,2405 -2180,2405 -2180,2402 -2181,2399 -2177,2394 -2176,2391 -2174,2382 -2174,2365 -2177,2314 -2194,2261 -2217,2200 -2237,2171 -2254,2158 -2271,2151 -2274,2150 -2276,2152 -2273,2156 -2273,2164 -2272,2173 -2270,2186 -2272,2186 -2279,2187 -2287,2190 -2334,2192 -2393,2192 -2483,2190 -2588,2193 -2665,2197 -2721,2200 -2775,2210 -2806,2213 -2823,2214 -2822,2215 -2819,2216 -2818,2214 -2817,2217 -2815,2214 -2814,2214 -2813,2212 -2811,2212 -2812,2209 -2810,2210 -2809,2208 -2809,2206 -2799,2183 -2783,2141 -2763,2082 -2749,2020 -2747,1959 -2752,1924 -2760,1910 -2762,1910 -2761,1911 -2763,1911 -2762,1912 -2761,1913 -2760,1914 -2754,1918 -2699,1934 -2595,1958 -2483,1964 -2391,1970 -2314,1975 -2247,1975 " style="fill: white; stroke: black; stroke-width: 30" />
<polyline points="944,4120 935,4122 926,4130 926,4178 926,4310 913,4484 912,4615 926,4700 946,4724 971,4711 " style="fill: white; stroke: black; stroke-width: 30" />
<polyline points="1127,4098 1121,4100 1110,4097 1108,4091 1112,4086 1109,4081 1112,4076 1107,4074 1097,4074 1097,4093 1093,4200 1079,4343 1075,4465 1083,4541 1095,4557 1104,4547 1094,4491 1057,4407 990,4314 939,4291 905,4303 903,4330 930,4362 982,4390 1078,4405 1188,4397 1275,4361 1317,4320 1327,4277 1316,4245 1288,4225 1249,4247 1212,4296 1208,4364 1239,4418 1311,4447 1402,4430 1494,4387 1546,4352 1555,4348 1551,4352 1547,4371 1552,4421 1561,4463 1580,4484 1596,4485 1619,4446 1632,4353 1624,4221 1604,4105 1575,4058 1555,4051 1556,4055 1565,4088 " style="fill: white; stroke: black; stroke-width: 30" />
<polyline points="1870,4287 1851,4286 1824,4308 1790,4374 1760,4443 1743,4496 1739,4511 1750,4503 1802,4452 1864,4401 1895,4387 1905,4403 1908,4450 1917,4486 1943,4504 1963,4516 1975,4523 1976,4548 1989,4563 2036,4575 " style="fill: white; stroke: black; stroke-width: 30" />
<polyline points="3029,3921 2962,4024 2850,4238 2734,4506 2682,4691 2712,4776 " style="fill: white; stroke: black; stroke-width: 30" />
<polyline points="3381,4103 3380,4091 3371,4094 3336,4149 3284,4264 3249,4387 3258,4454 3292,4484 3356,4473 3452,4415 3540,4326 3620,4212 3652,4147 3649,4144 3643,4146 3639,4151 3637,4151 3639,4150 3637,4149 3636,4149 3629,4148 3624,4147 3625,4145 3628,4150 " style="fill: white; stroke: black; stroke-width: 30" />
<polyline points="3592,4027 3563,4026 3539,4065 3472,4204 3367,4410 3285,4620 3259,4798 " style="fill: white; stroke: black; stroke-width: 30" />
<polyline points="700,3476 608,3496 532,3509 504,3512 514,3511 591,3512 763,3501 1043,3489 1436,3463 1911,3443 2443,3429 2964,3439 3428,3444 3783,3461 3991,3466 4046,3462 4035,3460 4024,3455 4016,3456 4022,3454 " style="fill: white; stroke: black; stroke-width: 30" />
<polyline points="1785,2419 1774,2385 1767,2369 1761,2373 1753,2413 1720,2557 1677,2703 1664,2793 1667,2831 1681,2835 1704,2805 1731,2728 1744,2622 1748,2533 1745,2512 1746,2516 1741,2527 1734,2580 1736,2653 1753,2696 1813,2718 1905,2705 2003,2647 2080,2591 2108,2564 2107,2564 2103,2569 2095,2615 2084,2688 2089,2770 2104,2837 2126,2871 2154,2878 2205,2859 2271,2810 2318,2781 2332,2778 2344,2789 2354,2802 2358,2837 2360,2880 2370,2901 2401,2909 2449,2874 2494,2778 2513,2651 2492,2551 2464,2502 2437,2494 2432,2498 2449,2504 2499,2510 2580,2478 2646,2428 2675,2387 2675,2384 2663,2406 2634,2539 2593,2719 2574,2857 2570,2958 2591,3019 2641,3030 " style="fill: white; stroke: black; stroke-width: 30" />
<polyline points="-2826,5064 -2940,4986 -3047,4880 -3110,4761 -3109,4612 -3037,4434 -2886,4251 -2675,4113 -2399,4040 -2070,4046 -1724,4138 -1431,4338 -1231,4621 -1138,4951 -1140,5281 -1255,5571 -1475,5798 -1795,5945 -2170,5989 -2563,5931 -2910,5788 -3147,5606 -3268,5383 -3268,5139 -3132,4865 -2863,4609 " style="fill: white; stroke: black; stroke-width: 30" />
<polyline points="-2553,4617 -2542,4610 -2533,4642 -2542,4752 -2566,4889 -2578,5006 -2567,5086 -2557,5125 " style="fill: white; stroke: black; stroke-width: 30" />
<polyline points="-2723,4850 -2769,4798 -2773,4779 -2754,4772 -2677,4751 -2539,4732 -2401,4725 " style="fill: white; stroke: black; stroke-width: 30" />
<polyline points="-2595,4944 -2541,4946 -2480,4952 -2424,4957 -2367,4955 -2303,4946 -2237,4914 -2185,4866 -2163,4811 -2176,4765 -2218,4735 -2277,4745 -2329,4796 -2355,4866 -2343,4922 -2294,4957 -2188,4943 -2054,4864 -1931,4760 -1856,4653 -1840,4564 -1861,4533 -1914,4549 -2003,4630 -2061,4738 -2061,4822 -2005,4883 -1916,4915 -1816,4906 -1739,4874 -1685,4825 -1651,4759 -1622,4687 -1607,4641 -1607,4622 -1615,4624 -1624,4642 -1654,4716 -1680,4807 -1677,4891 -1644,4952 -1581,4984 -1495,4968 -1433,4934 -1422,4920 -1427,4929 -1444,4943 -1455,4957 -1461,4974 -1457,4985 " style="fill: white; stroke: black; stroke-width: 30" />
<polyline points="-1471,4692 -1484,4590 -1491,4530 -1494,4493 -1490,4485 " style="fill: white; stroke: black; stroke-width: 30" />
<polyline points="-2545,5304 -2571,5325 -2582,5386 -2585,5477 -2572,5570 -2548,5643 -2536,5672 -2538,5673 -2548,5637 -2562,5529 -2566,5381 -2545,5295 -2495,5255 -2424,5254 -2358,5281 -2317,5325 -2315,5373 -2360,5430 -2430,5501 -2478,5560 -2478,5594 -2434,5624 -2330,5608 -2201,5556 -2103,5487 -2069,5461 -2077,5469 -2109,5515 -2127,5578 -2120,5620 -2095,5626 -2057,5575 " style="fill: white; stroke: black; stroke-width: 30" />
<polyline points="-2080,5385 -2127,5330 -2156,5301 -2158,5297 -2154,5295 " style="fill: white; stroke: black; stroke-width: 30" />
<polyline points="-2023,5563 -2037,5554 -2018,5511 -1965,5453 -1917,5434 -1879,5465 -1864,5531 -1862,5592 -1860,5607 -1849,5597 -1807,5556 -1762,5507 -1711,5449 -1675,5388 -1662,5338 -1666,5328 -1663,5342 -1658,5404 -1647,5506 -1653,5623 -1660,5740 -1682,5842 -1720,5881 -1766,5874 -1811,5820 -1821,5742 -1765,5630 -1595,5497 -1361,5372 " style="fill: white; stroke: black; stroke-width: 30" />
<polyline points="-2725,5682 -2724,5697 -2720,5733 -2729,5817 -2761,5929 -2795,6021 -2772,6071 -2708,6102 -2596,6113 -2455,6120 -2318,6129 -2208,6134 -2148,6132 " style="fill: white; stroke: black; stroke-width: 30" />
<polyline points="-2244,5977 -2178,5985 -2100,6012 -2050,6066 -2056,6131 -2096,6188 -2152,6231 -2187,6261 " style="fill: white; stroke: black; stroke-width: 30" />
<polyline points="-1599,5766 -1599,5758 -1607,5771 -1643,5857 -1695,6000 -1716,6118 -1707,6188 -1682,6214 -1632,6179 -1588,6090 -1576,5980 -1588,5881 -1612,5834 -1626,5828 -1637,5865 -1645,5934 -1628,5998 -1591,6048 -1515,6067 -1398,6038 -1296,6000 -1269,6001 -1278,6034 -1320,6124 -1359,6202 -1361,6261 -1331,6292 -1263,6297 " style="fill: white; stroke: black; stroke-width: 30" />
<polyline points="-1177,6145 -1179,6059 -1178,5994 -1169,5971 -1157,5983 -1136,6050 -1140,6141 -1155,6200 -1181,6208 -1222,6199 -1258,6166 -1281,6123 -1278,6085 -1250,6066 -1182,6060 -1124,6087 -1079,6136 -1032,6189 -994,6211 -976,6206 -960,6171 -940,6110 -928,6054 -921,6020 -889,5993 -826,5982 -750,5988 " style="fill: white; stroke: black; stroke-width: 30" />
<polyline points="-566,6022 -564,5997 -598,5976 -664,5978 -730,5996 -748,6015 -738,6032 -700,6088 -678,6195 -689,6309 -716,6407 -743,6477 -784,6494 -830,6477 -869,6411 -862,6335 -805,6250 -677,6162 -534,6083 -437,6040 -422,6039 -460,6072 -529,6137 -552,6185 -539,6210 -492,6217 -411,6186 -332,6172 -277,6184 -232,6213 -203,6240 -193,6271 -192,6283 -211,6303 " style="fill: white; stroke: black; stroke-width: 30" />
<polyline points="-1521,6608 -1533,6614 -1561,6685 -1594,6816 -1619,6921 -1616,6994 -1590,7043 -1569,7057 -1555,7022 -1572,6951 -1636,6844 -1710,6718 -1756,6642 -1768,6607 -1734,6571 -1639,6539 -1486,6524 -1323,6523 -1219,6528 -1195,6547 " style="fill: white; stroke: black; stroke-width: 30" />
<polyline points="-1716,6729 -1740,6742 -1728,6743 -1664,6752 -1544,6748 -1419,6751 -1328,6769 -1271,6804 -1240,6829 -1207,6844 -1154,6838 -1094,6804 -1051,6756 -1046,6725 -1076,6708 -1147,6729 -1219,6795 -1252,6870 -1231,6930 -1155,6974 -1034,6969 -911,6914 -835,6868 -823,6859 -830,6868 -849,6915 -861,6964 -864,6998 -851,7000 -804,6950 -763,6829 -755,6679 -771,6573 -798,6512 -817,6491 -825,6506 -810,6573 -740,6669 -648,6736 -547,6764 -492,6757 -489,6755 -539,6779 -641,6858 -698,6930 -683,6979 -616,6994 -490,6968 -391,6920 -355,6867 -333,6812 -276,6757 -103,6716 220,6714 694,6756 1250,6867 " style="fill: white; stroke: black; stroke-width: 30" />
<polyline points="11286,8871 " style="fill: white; stroke: black; stroke-width: 30" />
<polyline points="-1212,8726 -1213,8724 -1207,8719 -1217,8715 -1226,8706 -1247,8698 -1296,8697 -1350,8717 -1401,8745 -1447,8793 -1456,8860 -1442,8917 -1387,8958 -1306,8973 -1227,8967 -1170,8948 -1150,8923 -1148,8909 -1172,8892 " style="fill: white; stroke: black; stroke-width: 30" />
<polyline points="-995,8959 -986,8928 -943,8847 -882,8730 -823,8595 -785,8483 -770,8425 -773,8424 -782,8455 -807,8551 -810,8653 -796,8742 -786,8803 -785,8845 -796,8858 -820,8854 -864,8815 -918,8764 -947,8739 -955,8731 -944,8721 -891,8697 -793,8651 -670,8596 -543,8538 -465,8514 -451,8526 -462,8576 -499,8669 -541,8781 -568,8872 -584,8934 -578,8942 -579,8927 -570,8841 -583,8702 -594,8592 -582,8535 -548,8521 -498,8553 -434,8618 -371,8684 -355,8737 -377,8772 -452,8805 -560,8817 -608,8801 -617,8771 -582,8715 -493,8643 -385,8573 -305,8525 -254,8501 -246,8510 -261,8593 -322,8752 -370,8889 -393,8998 -387,9059 " style="fill: white; stroke: black; stroke-width: 30" />
<polyline points="4896,1112 4899,1107 4897,1131 4900,1132 4898,1150 4901,1200 4911,1297 4934,1439 4955,1636 4966,1887 4986,2146 5014,2423 5040,2722 5074,3039 5089,3382 5104,3732 5096,4071 5081,4387 5077,4658 5089,4879 5110,5057 5141,5189 5159,5281 5172,5329 5179,5348 5170,5355 5168,5346 5170,5333 5165,5293 " style="fill: white; stroke: black; stroke-width: 30" />
<polyline points="-1032,1554 -1020,1549 -1010,1563 -980,1620 -916,1747 -835,1928 -733,2152 -628,2430 -525,2741 -431,3081 -361,3464 -284,3858 -190,4251 -82,4628 25,4970 122,5258 208,5480 262,5632 " style="fill: white; stroke: black; stroke-width: 30" />
<polyline points="1481,5873 1486,5864 1487,5852 1482,5841 1462,5823 1433,5825 1374,5841 1331,5866 1317,5894 1320,5950 1349,6016 1397,6081 1430,6139 1423,6178 1392,6200 1346,6211 1285,6190 1246,6156 1234,6124 1245,6088 1301,6045 " style="fill: white; stroke: black; stroke-width: 30" />
<polyline points="1651,5995 1640,6034 1629,6065 1618,6084 1621,6088 1625,6088 1641,6071 " style="fill: white; stroke: black; stroke-width: 30" />
<polyline points="1685,5725 1677,5708 1669,5703 1664,5707 1664,5737 " style="fill: white; stroke: black; stroke-width: 30" />
<polyline points="1815,6022 1804,6037 1795,6050 1793,6058 1796,6055 1801,6050 1819,6022 1852,5986 1886,5960 1914,5958 1941,5989 1950,6045 1947,6073 1955,6075 1981,6069 1998,6069 2004,6071 2006,6078 2016,6081 " style="fill: white; stroke: black; stroke-width: 30" />
<polyline points="2340,5947 2328,5947 2314,5986 2293,6098 2270,6230 2274,6348 2281,6403 2281,6403 2288,6352 2316,6237 2367,6098 2442,6003 2522,5954 2582,5954 2597,5976 2594,6012 2560,6042 2512,6063 2443,6076 2403,6077 2361,6071 2346,6062 2339,6058 2350,6060 " style="fill: white; stroke: black; stroke-width: 30" />
<polyline points="2996,5866 2959,5868 2923,5891 2894,5941 2882,6008 2888,6068 2872,6112 2858,6122 2823,6116 2794,6096 2780,6075 2791,6064 2826,6050 2892,6047 2971,6033 3063,6016 3138,5994 3177,5981 3162,5981 3107,6000 3039,6036 3007,6082 3007,6114 3030,6127 3066,6113 3120,6074 3154,6033 3181,6011 3197,6000 3228,6009 3261,6042 3292,6078 3315,6099 3329,6110 3358,6104 3384,6102 3405,6093 3414,6090 " style="fill: white; stroke: black; stroke-width: 30" />
<polyline points="3729,5960 3799,5924 3844,5895 3849,5888 3836,5889 3814,5907 3797,5938 3792,5989 3793,6026 3801,6068 3805,6109 3805,6127 3802,6112 3812,6101 3808,6105 3812,6105 " style="fill: white; stroke: black; stroke-width: 30" />
<polyline points="1286,6728 1293,6718 1294,6724 1283,6791 1273,6902 1255,7017 1262,7097 1278,7134 1318,7150 1379,7160 1455,7170 1529,7177 1575,7179 1595,7180 1601,7178 " style="fill: white; stroke: black; stroke-width: 30" />
<polyline points="1952,7115 1939,7126 1922,7136 1891,7147 1854,7142 1815,7129 1799,7115 1797,7117 1808,7121 1843,7136 1871,7147 1909,7149 " style="fill: white; stroke: black; stroke-width: 30" />
<polyline points="2404,6696 2399,6707 2394,6750 2379,6829 2349,6924 2312,7021 2295,7095 2291,7139 2303,7146 " style="fill: white; stroke: black; stroke-width: 30" />
<polyline points="2109,6720 2165,6691 2286,6663 2448,6646 2610,6646 2736,6671 " style="fill: white; stroke: black; stroke-width: 30" />
<polyline points="2643,7006 2670,7031 2682,7058 2661,7094 2612,7130 2544,7153 2523,7149 2525,7141 2560,7121 2574,7110 2571,7107 2567,7110 2564,7111 " style="fill: white; stroke: black; stroke-width: 30" />
<polyline points="3760,6498 3725,6502 3675,6539 3641,6603 3617,6686 3612,6768 3606,6850 3596,6915 3552,6953 3487,6966 3421,6957 3366,6935 3338,6906 3309,6892 3306,6891 3342,6895 " style="fill: white; stroke: black; stroke-width: 30" />
<polyline points="3737,6921 3735,6926 3738,6926 3768,6907 3805,6875 3850,6838 3917,6791 4003,6769 4018,6788 4015,6825 4018,6854 4005,6877 4022,6869 4073,6870 4144,6881 4148,6912 4150,6930 4167,6935 4167,6950 4138,6988 4163,7007 " style="fill: white; stroke: black; stroke-width: 30" />
<polyline points="4476,6725 4490,6702 4498,6712 4506,6751 4520,6799 4511,6847 4485,6889 4427,6935 4361,6964 4318,6972 4278,6958 4259,6922 4230,6898 4254,6858 4275,6841 4351,6826 4458,6822 4529,6852 4563,6877 4594,6905 4600,6935 4620,6951 " style="fill: white; stroke: black; stroke-width: 30" />
<polyline points="5053,6638 5028,6647 4994,6663 4947,6708 4860,6838 4810,6899 4786,6932 4760,6945 4745,6947 4734,6937 4749,6907 4771,6865 " style="fill: white; stroke: black; stroke-width: 30" />
<polyline points="5250,6514 5222,6550 5155,6644 5075,6748 5020,6820 5015,6844 5035,6841 5061,6860 5133,6879 5190,6899 5204,6925 5219,6949 5236,6969 5231,7004 5217,7037 5179,7082 " style="fill: white; stroke: black; stroke-width: 30" />
<polyline points="1266,9604 1253,9571 1234,9520 1257,9458 1314,9381 1450,9309 1631,9262 1829,9255 2039,9289 2216,9398 2333,9569 2421,9800 2503,10063 2573,10342 2680,10609 2857,10844 3122,11020 3122,11020 3485,11150 3966,11223 " style="fill: white; stroke: black; stroke-width: 30" />
<polyline points="5085,9516 5041,9501 4990,9458 4914,9393 4796,9313 4628,9250 4421,9237 4217,9286 4003,9410 3773,9624 3557,9885 3399,10163 3197,10450 2928,10729 2629,10968 2205,11192 1751,11375 1266,11528 870,11623 547,11652 361,11607 267,11540 " style="fill: white; stroke: black; stroke-width: 30" />
<polyline points="3039,8835 3008,9011 2952,9295 2895,9656 2864,10061 2843,10519 2842,11008 2868,11492 2882,11941 " style="fill: white; stroke: black; stroke-width: 30" />
<polyline points="410,8493 407,8715 397,9020 381,9412 362,9871 302,10377 248,10890 205,11339 182,11662 248,11854 324,11930 456,11930 663,11865 962,11772 1320,11675 1748,11596 2249,11527 2249,11527 2928,11467 3924,11447 " style="fill: white; stroke: black; stroke-width: 30" />
<polyline points="-1222,9662 -1201,9658 -1167,9656 -1153,9661 -1156,9660 -1167,9659 -1163,9654 -1163,9650 -1148,9634 -1084,9597 -947,9540 -751,9485 -488,9426 -195,9363 112,9314 393,9302 579,9310 699,9321 759,9315 792,9286 " style="fill: white; stroke: black; stroke-width: 30" />
<polyline points="-1297,9680 -1360,9681 -1389,9686 -1403,9695 -1398,9709 -1352,9721 -1219,9710 -1038,9666 -816,9603 -517,9527 -177,9446 154,9372 457,9318 684,9291 802,9271 828,9267 780,9264 656,9263 " style="fill: white; stroke: black; stroke-width: 30" />
<polyline points="-1113,9949 -1292,10054 -1372,10099 -1353,10102 -1238,10063 -1028,9971 -759,9851 -407,9715 -56,9587 304,9496 631,9428 919,9377 " style="fill: white; stroke: black; stroke-width: 30" />
<polyline points="-2272,10904 -2276,10895 -2289,10882 -2288,10875 -2300,10870 -2302,10870 -2292,10876 -2283,10905 -2266,10941 -2254,10976 -2256,10989 -2267,10987 -2256,10989 -2273,10985 " style="fill: white; stroke: black; stroke-width: 30" />
<polyline points="1311,5190 1296,5199 1291,5237 1286,5330 1272,5442 1273,5508 1297,5526 1310,5524 1315,5477 1291,5407 1235,5308 1198,5223 1210,5163 1243,5139 1303,5152 1381,5212 1443,5286 1476,5348 1474,5386 1438,5412 1387,5424 1323,5415 1270,5376 1238,5343 1229,5331 " style="fill: white; stroke: black; stroke-width: 30" />
<polyline points="1510,5406 1507,5412 1504,5406 1509,5398 1527,5370 1552,5324 1570,5257 1581,5209 1595,5165 1608,5151 1640,5145 1688,5159 1751,5183 " style="fill: white; stroke: black; stroke-width: 30" />
<polyline points="1921,5186 1895,5166 1864,5165 1828,5197 1815,5241 1822,5289 1852,5314 1897,5329 1924,5320 1942,5297 1951,5256 1950,5213 1946,5176 1948,5171 1953,5178 1963,5201 2002,5218 " style="fill: white; stroke: black; stroke-width: 30" />
<polyline points="2191,5173 2203,5146 2191,5135 2178,5138 2149,5166 2136,5220 2131,5294 2123,5389 2108,5459 2090,5493 2065,5490 2046,5459 2042,5406 2064,5354 2100,5328 2167,5306 2243,5283 2291,5262 2300,5244 2284,5242 2249,5261 2238,5294 2251,5318 2293,5330 2350,5310 2399,5280 2425,5263 2454,5267 2486,5280 2521,5308 2542,5326 2552,5345 2561,5361 2583,5383 " style="fill: white; stroke: black; stroke-width: 30" />
<polyline points="1283,12028 1542,12006 1796,11997 2084,11989 2372,11982 2750,11949 3145,11899 3561,11848 3989,11787 4444,11713 4941,11627 5412,11558 5835,11505 5835,11505 6222,11463 6520,11434 " style="fill: white; stroke: black; stroke-width: 30" />
<polyline points="-2986,1732 -2982,1725 -2977,1718 -2980,1720 -2979,1722 -2980,1733 -2974,1765 -2968,1821 -2956,1898 -2945,2021 -2942,2172 -2937,2343 -2920,2511 -2895,2669 -2864,2818 -2826,2951 -2782,3070 -2728,3170 -2633,3247 -2496,3299 -2324,3312 -2124,3304 -1913,3286 -1707,3278 -1511,3256 -1324,3213 -1160,3150 -1049,3084 -997,3031 -992,3006 -1007,2983 -1029,2961 -1047,2935 -1068,2912 -1085,2886 -1098,2865 -1105,2839 -1111,2810 -1117,2760 -1128,2670 -1141,2543 -1160,2394 -1200,2224 -1249,2048 -1297,1875 -1355,1723 -1417,1584 -1498,1467 -1605,1354 -1738,1256 -1894,1183 -2073,1161 -2278,1176 -2498,1220 -2719,1273 -2951,1321 -3154,1355 -3306,1383 -3394,1405 -3425,1429 -3412,1449 " style="fill: white; stroke: black; stroke-width: 30" />
<polyline points="3035,3678 3030,3677 3023,3679 3027,3675 3031,3666 3058,3628 3114,3546 3199,3429 3288,3308 3382,3194 3455,3104 3493,3054 3502,3036 3503,3035 3499,3037 3500,3037 3503,3038 3510,3038 " style="fill: white; stroke: black; stroke-width: 30" />
<polyline points="3367,2925 3367,2921 3403,2912 3463,2899 3521,2878 3569,2869 3594,2871 3611,2881 3619,2894 3616,2922 3602,2962 3590,3022 3584,3080 " style="fill: white; stroke: black; stroke-width: 30" />
<polyline points="3933,3020 3913,3011 3904,3013 3907,3025 3901,3070 3899,3128 3900,3167 3895,3205 3890,3218 3890,3219 3896,3191 3894,3116 3908,3006 3927,2944 3942,2919 3955,2921 3956,2935 3948,2962 3925,2994 3922,2999 3927,3000 3957,3008 3994,3027 4014,3057 3997,3089 3977,3108 3968,3114 3968,3112 3969,3107 3967,3105 3953,3098 3948,3088 3950,3075 3973,3054 " style="fill: white; stroke: black; stroke-width: 30" />
<polyline points="4085,3140 4088,3135 4097,3128 4124,3107 4151,3073 4160,3057 4163,3047 4159,3055 4158,3055 4166,3062 4188,3073 4226,3061 4249,3042 4248,3036 4244,3031 4227,3037 4200,3055 4179,3081 4182,3093 4195,3110 4233,3115 4295,3109 " style="fill: white; stroke: black; stroke-width: 30" />
<polyline points="4400,2990 4392,2988 4395,2987 4407,2994 4425,3003 4440,3021 4445,3045 4443,3071 4422,3096 4397,3115 4389,3112 4389,3106 4388,3106 4387,3112 4388,3114 4402,3119 4424,3114 4466,3101 4501,3086 4525,3082 4523,3086 4528,3084 4524,3092 4523,3107 4525,3124 4533,3143 4553,3155 " style="fill: white; stroke: black; stroke-width: 30" />
<polyline points="4736,2837 4709,2878 4695,2922 4685,2980 4686,3027 4690,3068 4691,3096 4715,3104 " style="fill: white; stroke: black; stroke-width: 30" />
<polyline points="4814,3002 4810,2993 4802,2990 4760,3021 4696,3064 4656,3095 4639,3117 4645,3130 4677,3140 4728,3160 " style="fill: white; stroke: black; stroke-width: 30" />
<polyline points="5077,3114 5069,3126 5067,3147 5072,3178 5076,3211 5086,3243 5103,3265 5110,3290 5127,3284 5151,3268 5180,3227 5210,3182 5236,3120 5236,3072 5229,3020 5219,2979 5204,2945 5195,2925 5186,2896 5185,2871 5187,2840 5186,2828 5189,2801 5186,2784 5191,2761 5189,2767 5198,2755 5197,2765 5203,2767 5212,2791 5226,2820 5239,2864 5251,2902 5266,2931 5279,2929 " style="fill: white; stroke: black; stroke-width: 30" />
<polyline points="3858,2274 3883,2227 3923,2185 3961,2176 3981,2194 3990,2249 3967,2320 3931,2368 3890,2395 3876,2387 3858,2361 3847,2319 3841,2289 3840,2282 " style="fill: white; stroke: black; stroke-width: 30" />
<polyline points="3886,2448 3880,2475 3876,2518 3885,2556 3892,2606 3900,2658 " style="fill: white; stroke: black; stroke-width: 30" />
<polyline points="3802,2587 3808,2573 3863,2559 3939,2546 4021,2535 " style="fill: white; stroke: black; stroke-width: 30" />
<polyline points="4377,1853 4370,1855 4366,1871 4372,1897 4374,1939 4371,1993 4378,2013 " style="fill: white; stroke: black; stroke-width: 30" />
<polyline points="4338,1865 4336,1838 4347,1823 4377,1810 4417,1793 4459,1793 4503,1777 " style="fill: white; stroke: black; stroke-width: 30" />
<polyline points="4350,1941 4359,1938 4381,1939 4412,1949 4436,1960 4438,1994 4448,1997 4443,2017 " style="fill: white; stroke: black; stroke-width: 30" />
<polyline points="4474,2034 4499,1997 4521,1967 4547,1943 4553,1952 4572,1954 4605,1958 4636,1953 4655,1952 4656,1947 4644,1948 4609,1974 4599,1997 4605,2007 4636,2005 4666,2010 4701,2000 4716,1998 4730,1997 4728,2020 4742,2033 4745,2061 4755,2058 " style="fill: white; stroke: black; stroke-width: 30" />
<polyline points="4757,1923 4744,1890 4739,1863 4731,1865 4732,1860 4750,1850 4800,1823 " style="fill: white; stroke: black; stroke-width: 30" />
<polyline points="4251,2243 4281,2246 4420,2210 4667,2156 4982,2054 " style="fill: white; stroke: black; stroke-width: 30" />

</svg>