<?xml version="1.0" standalone="no"?>
<!DOCTYPE svg PUBLIC "-//W3C//DTD SVG 1.1//EN" "http://www.w3.org/Graphics/SVG/1.1/DTD/svg11.dtd">
<svg width="210mm" height="297mm" viewBox="-7000 500 14000 20000" version="1.1" xmlns="http://www.w3.org/2000/svg">

<polyline points="-2354,1654 -2366,1674 -2371,1726 -2368,1812 -2367,1902 -2368,1951 -2364,1970 -2362,1969 -2355,1939 -2354,1872 -2374,1799 -2398,1731 -2425,1674 -2451,1633 -2457,1608 -2452,1583 -2431,1548 -2377,1511 -2308,1502 -2247,1532 -2200,1577 -2185,1627 -2205,1684 -2239,1725 -2280,1733 -2336,1725 -2372,1706 -2403,1681 " style="fill: white; stroke: black; stroke-width: 30" />
<polyline points="-2144,1902 -2147,1843 -2144,1795 -2144,1777 -2144,1775 -2142,1772 -2133,1780 -2105,1788 -2065,1786 -2036,1783 -2027,1779 -2027,1779 -2028,1780 -2029,1776 -2029,1775 -2028,1778 -2027,1774 -2026,1774 -2026,1778 -2028,1776 -2027,1782 -2028,1798 -2025,1820 -2017,1835 " style="fill: white; stroke: black; stroke-width: 30" />
<polyline points="-1913,1719 -1924,1795 -1936,1874 -1951,1954 -1958,1996 -1955,2002 -1950,1992 -1941,1942 -1937,1862 -1941,1780 -1952,1705 -1954,1638 -1952,1574 -1953,1520 -1941,1482 -1925,1461 -1901,1458 -1878,1469 -1863,1499 -1858,1543 -1866,1576 -1872,1589 -1894,1598 -1932,1594 -1973,1566 -2003,1528 -2008,1485 -1998,1453 " style="fill: white; stroke: black; stroke-width: 30" />
<polyline points="-1814,1742 -1824,1736 -1822,1733 -1809,1741 -1787,1774 -1763,1817 -1750,1855 -1758,1874 -1779,1883 -1811,1888 -1835,1891 -1836,1887 -1835,1879 -1830,1847 -1795,1792 -1741,1726 -1687,1670 -1657,1649 -1650,1666 -1659,1731 -1665,1803 -1666,1836 -1660,1842 -1638,1827 -1602,1793 -1576,1771 -1569,1770 -1556,1792 -1543,1817 -1528,1832 -1512,1844 " style="fill: white; stroke: black; stroke-width: 30" />
<polyline points="-588,1697 -590,1694 -580,1692 -544,1704 -470,1724 -384,1735 -319,1746 -278,1738 -266,1727 -270,1729 -293,1737 -345,1762 -404,1806 -429,1836 -431,1851 -407,1864 -354,1863 -304,1846 -291,1824 -293,1783 -304,1745 -313,1737 -313,1737 -312,1738 -304,1755 -292,1784 -270,1809 -229,1828 -182,1822 -132,1793 -69,1759 -28,1739 -16,1737 -16,1748 -23,1773 -27,1799 -23,1805 0,1803 54,1799 93,1811 110,1829 117,1849 130,1866 167,1867 222,1849 259,1831 " style="fill: white; stroke: black; stroke-width: 30" />
<polyline points="420,1515 425,1525 412,1585 375,1687 342,1786 329,1844 328,1860 331,1862 348,1851 401,1804 464,1767 508,1756 534,1761 536,1774 517,1799 467,1831 410,1857 338,1862 303,1847 291,1831 298,1813 345,1783 424,1751 508,1733 579,1736 632,1756 661,1777 675,1803 671,1859 654,1917 635,1956 " style="fill: white; stroke: black; stroke-width: 30" />
<polyline points="685,1506 685,1504 690,1503 704,1503 726,1518 746,1534 753,1549 753,1563 739,1573 711,1582 688,1581 677,1569 674,1548 " style="fill: white; stroke: black; stroke-width: 30" />
<polyline points="882,1679 853,1682 829,1705 818,1755 812,1824 804,1884 785,1923 745,1944 709,1942 686,1931 676,1907 680,1871 " style="fill: white; stroke: black; stroke-width: 30" />
<polyline points="1921,1758 1912,1752 1909,1746 1905,1744 1907,1746 1930,1756 1971,1776 2017,1803 2050,1818 2067,1826 2071,1831 2071,1830 2069,1832 2066,1835 2051,1844 2008,1886 1960,1922 1882,1960 1832,1972 1812,1983 1809,1983 1813,1980 1816,1983 1821,1983 1830,1985 " style="fill: white; stroke: black; stroke-width: 30" />
<polyline points="2151,2083 2154,2077 2182,2055 2230,2016 2304,1945 2377,1863 2418,1803 2421,1786 2416,1784 2408,1791 2389,1839 2350,1906 2322,1985 2307,2047 2295,2097 2315,2115 " style="fill: white; stroke: black; stroke-width: 30" />
<polyline points="2605,1893 2624,1878 2644,1853 2645,1827 2622,1793 2577,1782 2523,1804 2493,1843 2494,1871 2523,1891 2563,1901 2595,1890 2586,1894 2588,1894 2581,1897 2575,1902 2575,1903 2569,1904 2565,1904 2565,1907 2566,1904 2565,1903 2568,1903 2566,1904 2563,1916 2550,2002 2530,2091 2514,2150 2503,2178 2493,2179 2474,2172 2454,2151 2439,2114 2443,2072 " style="fill: white; stroke: black; stroke-width: 30" />
<polyline points="2808,1811 2819,1797 2844,1787 2873,1783 2891,1794 2892,1809 2877,1840 2829,1897 2754,1976 2708,2050 2692,2116 2696,2169 2722,2194 2751,2197 2765,2175 2764,2133 2754,2042 2719,1959 2691,1904 2690,1883 2702,1876 2758,1861 " style="fill: white; stroke: black; stroke-width: 30" />
<polyline points="3030,1935 3026,1920 3037,1906 3081,1882 3136,1882 3164,1907 3165,1947 3138,2016 3083,2071 3021,2109 2997,2114 2992,2110 2994,2092 3002,2057 3004,2013 3024,1965 " style="fill: white; stroke: black; stroke-width: 30" />
<polyline points="-1799,3790 -1770,3785 -1733,3779 -1680,3769 -1626,3763 -1583,3767 " style="fill: white; stroke: black; stroke-width: 30" />
<polyline points="-1823,3859 -1840,3935 -1831,4014 -1791,4063 -1717,4093 -1623,4097 -1543,4094 -1497,4101 " style="fill: white; stroke: black; stroke-width: 30" />
<polyline points="-1406,3848 -1440,3854 -1450,3864 -1447,3904 -1422,3961 -1389,4020 -1371,4049 -1371,4054 -1377,4053 -1405,4049 " style="fill: white; stroke: black; stroke-width: 30" />
<polyline points="-923,3711 -944,3715 -950,3724 -938,3743 -918,3760 -889,3772 -860,3792 -822,3823 -780,3871 -761,3929 -775,3979 -817,4025 -888,4051 -952,4043 -978,4008 -970,3969 -943,3953 -895,3955 -832,3968 -755,3970 -678,3941 -599,3883 -550,3801 -533,3696 -533,3606 -544,3562 -564,3564 -615,3625 -671,3728 -690,3807 -665,3863 -611,3917 -526,3972 " style="fill: white; stroke: black; stroke-width: 30" />
<polyline points="-418,3793 -421,3783 -397,3777 -361,3789 -335,3827 -332,3882 -369,3939 -421,3975 -461,3974 -474,3953 -464,3926 -424,3906 -369,3907 -310,3913 -234,3896 -147,3839 -73,3748 -28,3627 -24,3562 -29,3563 -46,3595 -74,3707 -92,3810 -100,3881 -98,3912 -88,3924 -59,3925 -16,3899 27,3845 57,3785 66,3774 62,3785 63,3812 69,3840 82,3857 98,3865 111,3870 122,3884 124,3909 122,3934 " style="fill: white; stroke: black; stroke-width: 30" />
<polyline points="324,3776 350,3817 354,3856 329,3886 293,3906 268,3904 263,3893 262,3855 266,3815 256,3567 " style="fill: white; stroke: black; stroke-width: 30" />
<polyline points="550,3817 546,3822 543,3821 541,3817 547,3802 585,3740 638,3684 669,3669 684,3683 692,3739 665,3579 " style="fill: white; stroke: black; stroke-width: 30" />
<polyline points="2094,3430 2075,3463 2038,3575 2001,3706 " style="fill: white; stroke: black; stroke-width: 30" />
<polyline points="1826,3608 1826,3619 1877,3625 1985,3630 2075,3658 2110,3697 2105,3721 2095,3727 2090,3728 2089,3736 2086,3758 2075,3806 2073,3830 2074,3826 2094,3801 2136,3748 2183,3692 2224,3668 2262,3660 2288,3662 2305,3667 2314,3677 2313,3682 2313,3685 2318,3692 2325,3702 2351,3709 2401,3701 2463,3666 2518,3624 2533,3612 2530,3612 2507,3631 2462,3687 2439,3733 2441,3749 2488,3758 2603,3733 2702,3718 2713,3735 2663,3825 2571,3966 2506,4087 2488,4178 2515,4205 " style="fill: white; stroke: black; stroke-width: 30" />
<polyline points="2832,3666 2809,3719 2822,3736 2875,3729 2983,3661 3069,3578 3106,3521 3096,3521 3084,3533 3043,3601 3015,3682 3006,3758 3013,3808 3037,3826 3105,3806 3209,3721 3284,3621 3288,3600 3277,3610 3262,3629 3245,3674 3231,3724 3208,3761 3182,3779 3150,3794 3134,3800 3140,3795 3146,3795 3175,3772 3217,3734 3241,3734 3245,3740 3252,3757 3281,3775 3340,3776 3412,3749 3533,3653 3513,3671 3466,3714 3466,3735 3482,3752 3542,3762 3654,3758 3715,3775 3696,3824 3673,3922 3635,4028 3628,4101 3672,4102 " style="fill: white; stroke: black; stroke-width: 30" />
<polyline points="-984,4598 -952,4602 -911,4635 -889,4705 -909,4786 -957,4840 -1020,4866 -1053,4854 -1067,4815 -1052,4754 -1013,4732 -966,4743 -912,4784 -872,4817 -839,4822 -824,4794 -811,4746 -793,4693 -781,4673 -754,4664 -696,4661 -622,4665 " style="fill: white; stroke: black; stroke-width: 30" />
<polyline points="-457,4546 -462,4548 -462,4558 -451,4613 -452,4702 -485,4777 -523,4810 -538,4810 -551,4783 -549,4730 -519,4695 -483,4692 -438,4718 -395,4747 -347,4748 -310,4719 -288,4681 -279,4662 -280,4662 -281,4678 -269,4702 -246,4720 -209,4735 -189,4750 -169,4778 " style="fill: white; stroke: black; stroke-width: 30" />
<polyline points="1278,4253 1260,4244 1253,4255 1218,4341 1175,4465 1149,4560 1141,4619 " style="fill: white; stroke: black; stroke-width: 30" />
<polyline points="1489,4304 1418,4325 1300,4391 1178,4474 1128,4527 1139,4550 1192,4581 " style="fill: white; stroke: black; stroke-width: 30" />
<polyline points="1443,4467 1461,4452 1521,4428 1606,4443 1654,4494 1650,4547 1609,4587 1556,4584 1519,4562 1502,4539 1496,4503 1506,4483 1535,4484 " style="fill: white; stroke: black; stroke-width: 30" />
<polyline points="1916,4602 1927,4629 1983,4628 2084,4594 2183,4544 2235,4499 2234,4492 2220,4496 2191,4520 2169,4563 2144,4614 2129,4647 2116,4659 2102,4658 2093,4652 2092,4635 2109,4610 2153,4578 2120,4356 " style="fill: white; stroke: black; stroke-width: 30" />
<polyline points="2430,4580 2454,4591 2459,4599 2467,4613 2502,4617 2545,4609 2578,4603 2603,4602 2614,4601 2622,4598 2652,4586 2713,4559 2764,4540 2799,4527 2813,4521 2829,4517 2841,4505 2843,4493 2820,4491 2770,4511 2729,4543 2721,4568 2738,4583 2802,4579 2907,4551 2993,4527 3036,4523 3043,4535 3052,4545 3054,4551 3067,4561 3093,4561 3150,4536 3248,4474 3385,4370 3523,4289 3591,4276 3596,4302 3553,4368 3477,4452 3410,4515 3372,4545 3361,4549 3370,4537 3385,4524 3427,4510 3500,4502 3648,4471 3641,4287 " style="fill: white; stroke: black; stroke-width: 30" />
<polyline points="-1188,5518 -1201,5526 -1216,5574 -1221,5659 -1205,5715 -1171,5729 -1097,5692 -993,5606 -919,5552 -883,5554 -855,5605 -826,5667 -785,5706 -704,5495 " style="fill: white; stroke: black; stroke-width: 30" />
<polyline points="-752,5997 -746,5916 -711,5720 -636,5574 -557,5519 -509,5528 -517,5570 -577,5623 -646,5645 -700,5642 -706,5633 -687,5616 -616,5588 -527,5557 -422,5516 -333,5466 -306,5430 -309,5418 -316,5428 -332,5513 -331,5629 -331,5721 -340,5749 -355,5746 -378,5731 -393,5678 -377,5615 -313,5569 -210,5513 -93,5445 0,5359 35,5289 31,5276 -3,5308 -79,5430 -135,5558 -160,5635 -164,5642 -158,5624 -129,5598 -79,5589 -18,5609 44,5638 71,5650 74,5646 77,5636 80,5614 96,5584 143,5535 194,5505 221,5502 245,5514 283,5532 331,5540 382,5539 396,5535 378,5534 338,5542 315,5557 312,5569 " style="fill: white; stroke: black; stroke-width: 30" />
<polyline points="761,5632 712,5650 694,5643 687,5624 705,5585 746,5570 815,5585 896,5601 971,5606 1024,5593 1048,5576 1049,5574 1044,5583 1057,5596 1105,5609 1176,5600 1235,5577 1256,5572 1260,5575 1283,5582 1333,5589 1404,5593 1490,5584 1583,5573 1698,5561 1825,5528 1962,5495 2052,5479 2082,5481 2087,5482 2094,5494 2135,5518 2211,5534 " style="fill: white; stroke: black; stroke-width: 30" />
<polyline points="11170,9371 " style="fill: white; stroke: black; stroke-width: 30" />
<polyline points="14270,9675 " style="fill: white; stroke: black; stroke-width: 30" />
<polyline points="-1102,7112 -1116,7112 -1122,7142 -1123,7219 -1110,7288 -1084,7318 -1050,7299 -1011,7248 -975,7195 -966,7184 -947,7187 -923,7208 -891,7238 -870,7265 -830,7071 " style="fill: white; stroke: black; stroke-width: 30" />
<polyline points="-1052,6919 -1108,6914 -1117,6913 -1114,6913 -1087,6917 -1022,6924 -934,6928 -868,6930 -835,6938 -817,6953 -800,6996 -777,7066 -755,7163 -745,7246 -745,7280 -742,7283 -746,7266 -739,7227 -703,7168 -659,7145 -624,7145 -617,7172 -641,7221 -686,7258 -740,7271 -752,7271 -743,7266 -733,7258 -698,7263 -659,7271 -623,7270 -585,7266 -553,7261 -536,7257 -525,7251 -501,7229 -497,7191 -484,7164 -477,7157 -463,7149 " style="fill: white; stroke: black; stroke-width: 30" />
<polyline points="-198,7143 -213,7235 -222,7271 -226,7268 -228,7219 -209,7149 -184,7118 -160,7114 -118,7124 -65,6922 " style="fill: white; stroke: black; stroke-width: 30" />
<polyline points="-58,7242 -85,7253 -93,7245 -87,7228 -72,7216 -33,7208 " style="fill: white; stroke: black; stroke-width: 30" />
<polyline points="247,6786 225,6845 211,6988 190,7124 199,7201 230,7225 279,7199 324,7133 351,7036 347,6973 324,6969 283,6995 237,7059 216,7111 229,7131 271,7139 340,7114 410,7046 491,6924 551,6821 568,6790 566,6794 533,6857 479,6963 425,7058 393,7106 387,7111 389,7097 411,7074 452,7057 519,7062 590,7076 643,7077 655,7074 649,7076 638,7084 632,7094 656,7111 695,7113 728,7093 731,7081 725,7062 730,7042 " style="fill: white; stroke: black; stroke-width: 30" />
<polyline points="806,6700 776,6758 742,6882 694,7037 664,7154 661,7204 665,7200 680,7148 701,7065 723,7000 740,6985 775,6983 812,6986 859,6982 887,6966 891,6946 876,6944 863,6956 856,7001 855,7055 870,7086 889,7086 899,7061 911,7013 918,6972 937,6952 974,6935 1041,6912 " style="fill: white; stroke: black; stroke-width: 30" />
<polyline points="1839,7044 1902,6995 1940,6958 1947,6958 1950,6976 1971,7012 1996,7055 2020,7067 2042,7054 2071,7037 2072,7036 2070,7042 2093,7053 2119,7053 2146,7031 " style="fill: white; stroke: black; stroke-width: 30" />
<polyline points="2066,6646 2031,6644 2027,6645 2031,6644 2047,6649 2087,6656 2136,6665 " style="fill: white; stroke: black; stroke-width: 30" />
<polyline points="2091,7019 2066,7009 2070,6982 2102,6926 2154,6889 2185,6891 2214,6939 2238,7017 2244,7063 2272,7067 2317,7024 2367,6955 2404,6898 2405,6890 2403,6896 2390,6932 2376,6993 2379,7036 2394,7043 " style="fill: white; stroke: black; stroke-width: 30" />
<polyline points="2461,6800 2430,6688 2408,6642 2402,6634 2402,6630 " style="fill: white; stroke: black; stroke-width: 30" />
<polyline points="3067,6955 3075,6898 3120,6808 3205,6742 3274,6729 3314,6757 3323,6811 3275,6877 3225,6917 3182,6934 3140,6919 3112,6860 3100,6744 3127,6647 3149,6606 3168,6603 3182,6641 3224,6710 3282,6779 3304,6829 3303,6846 3262,6872 3188,6893 3106,6905 3050,6918 3032,6927 3042,6934 3072,6958 3112,6982 3137,7020 3141,7050 3122,7074 3090,7085 3032,7088 2960,7065 2912,7009 " style="fill: white; stroke: black; stroke-width: 30" />
<polyline points="3432,6746 3434,6728 3433,6719 3444,6716 3469,6741 3495,6801 3515,6867 3482,6929 3427,6967 3363,6975 3316,6957 3307,6924 3322,6906 3369,6892 3461,6878 3544,6878 3628,6858 3692,6812 3699,6769 3690,6761 3678,6771 3675,6819 3651,6907 3641,6971 3616,7001 3567,7010 3559,6991 3575,6959 3657,6900 3800,6834 3921,6783 3982,6735 3953,6716 3888,6715 3864,6743 3854,6796 3910,6847 3988,6890 4063,6900 4127,6863 4177,6791 4233,6678 4275,6576 4263,6563 4234,6575 4174,6643 4129,6745 4113,6849 4136,6910 4064,6764 " style="fill: white; stroke: black; stroke-width: 30" />
<polyline points="-706,8014 -790,7898 -867,7804 -885,7787 -872,7793 -794,7817 -665,7838 -535,7845 -423,7842 -361,7830 -339,7807 -347,7780 -367,7753 -379,7752 -390,7765 -409,7836 -406,7894 -385,7922 -346,7921 -284,7882 -221,7843 -175,7847 -147,7903 -146,8013 -145,8090 -145,8132 -151,8163 " style="fill: white; stroke: black; stroke-width: 30" />
<polyline points="-5,8299 -22,8309 -22,8291 -25,8191 -27,8021 -19,7851 11,7755 66,7731 122,7766 172,7853 179,7939 156,7987 124,8000 " style="fill: white; stroke: black; stroke-width: 30" />
<polyline points="1581,7449 1554,7461 1535,7490 1536,7543 1543,7644 1552,7752 1565,7837 1567,7881 1566,7880 1571,7858 1565,7778 1544,7657 1502,7533 1476,7435 1464,7389 1483,7363 1539,7355 1631,7373 1681,7413 1658,7461 1573,7536 1490,7590 1482,7613 1528,7676 1645,7738 1744,7791 1754,7827 1714,7857 1647,7889 1602,7890 1575,7864 1561,7782 1582,7712 1627,7647 1683,7603 1760,7591 1842,7613 1906,7652 1946,7677 1945,7694 1948,7725 1951,7777 1957,7802 1963,7807 1976,7788 2004,7691 2017,7549 1988,7425 1976,7382 1969,7381 1972,7381 1976,7384 " style="fill: white; stroke: black; stroke-width: 30" />
<polyline points="2194,7593 2202,7582 2199,7575 2165,7561 2092,7568 2054,7595 2055,7608 2093,7631 2169,7628 2230,7623 2238,7638 2252,7705 2256,7796 2273,7872 2285,7926 2274,7947 2243,7957 2180,7933 2123,7856 2110,7783 " style="fill: white; stroke: black; stroke-width: 30" />
<polyline points="2753,7770 2731,7668 2726,7498 2753,7323 2831,7238 2924,7231 3002,7308 3029,7432 2998,7543 2933,7633 2846,7694 2764,7719 2704,7708 2671,7660 2665,7588 2699,7517 2773,7452 2880,7411 3020,7388 3151,7383 3251,7382 3298,7395 3322,7419 3299,7486 3252,7583 3207,7657 3160,7701 3126,7717 3101,7711 3100,7678 3124,7614 3169,7580 3229,7572 3273,7591 3284,7616 3285,7642 3287,7659 3296,7677 3337,7684 " style="fill: white; stroke: black; stroke-width: 30" />
<polyline points="3391,7587 3388,7572 3414,7512 3481,7452 3565,7417 3607,7426 3653,7430 3662,7426 3663,7406 3676,7370 3680,7362 3707,7366 3761,7392 3788,7447 3800,7483 3750,7539 3707,7571 3689,7579 3694,7583 3715,7581 3754,7588 3799,7607 3841,7633 3881,7660 " style="fill: white; stroke: black; stroke-width: 30" />
<polyline points="-647,9207 -565,9179 -465,9139 -383,9133 -333,9151 -293,9181 -267,9204 -237,9206 -200,9178 -156,9123 -144,9038 -165,8947 -197,8873 -230,8835 -231,8827 -223,8830 -220,8833 -201,8844 -154,8654 " style="fill: white; stroke: black; stroke-width: 30" />
<polyline points="46,8997 35,9020 37,9090 45,9161 70,8868 " style="fill: white; stroke: black; stroke-width: 30" />
<polyline points="254,9078 234,9091 230,9088 244,9068 279,9041 313,9032 350,9049 374,9094 387,9127 407,9145 460,9149 " style="fill: white; stroke: black; stroke-width: 30" />
<polyline points="10162,7303 " style="fill: white; stroke: black; stroke-width: 30" />
<polyline points="-5902,3288 " style="fill: white; stroke: black; stroke-width: 30" />
<polyline points="-6120,5366 " style="fill: white; stroke: black; stroke-width: 30" />

</svg>