<?xml version="1.0" standalone="no"?>
<!DOCTYPE svg PUBLIC "-//W3C//DTD SVG 1.1//EN" "http://www.w3.org/Graphics/SVG/1.1/DTD/svg11.dtd">
<svg width="210mm" height="297mm" viewBox="-7000 500 14000 20000" version="1.1" xmlns="http://www.w3.org/2000/svg">

<polyline points="-2172,9485 -2174,9517 -2162,9578 -2153,9663 -2159,9735 -2145,9779 " style="fill: white; stroke: black; stroke-width: 30" />
<polyline points="-2075,9373 -2090,9381 -2088,9418 -2098,9481 -2103,9550 -2099,9604 -2088,9635 " style="fill: white; stroke: black; stroke-width: 30" />
<polyline points="-2175,9558 -2209,9555 -2235,9550 -2241,9548 -2242,9545 -2245,9539 -2188,9521 -2109,9507 -2009,9504 " style="fill: white; stroke: black; stroke-width: 30" />
<polyline points="-1930,9447 -1948,9422 -1968,9415 -1966,9418 -1958,9444 -1928,9492 -1926,9531 -1927,9565 -1937,9585 -1962,9597 -1997,9595 -2023,9581 -2033,9566 -2031,9557 -2006,9546 -1968,9556 -1932,9579 -1895,9599 " style="fill: white; stroke: black; stroke-width: 30" />
<polyline points="-1851,9576 -1851,9555 -1840,9520 -1844,9497 -1826,9494 -1800,9529 -1790,9577 -1779,9603 " style="fill: white; stroke: black; stroke-width: 30" />
<polyline points="-1666,9576 -1657,9566 -1659,9546 -1656,9528 -1668,9520 -1684,9525 -1704,9545 -1714,9564 -1702,9576 -1667,9588 -1616,9604 -1586,9628 -1571,9667 -1539,9714 -1524,9754 -1522,9776 -1525,9785 -1544,9785 -1583,9750 -1637,9685 -1649,9654 " style="fill: white; stroke: black; stroke-width: 30" />
<polyline points="-1478,9453 -1472,9450 -1468,9459 -1455,9510 -1439,9567 -1439,9606 -1435,9614 -1430,9607 -1452,9576 -1479,9544 -1487,9536 -1482,9538 -1471,9545 -1440,9574 -1388,9603 -1339,9625 -1294,9625 -1273,9611 -1264,9585 -1255,9557 -1256,9530 -1247,9508 -1247,9503 -1248,9503 -1252,9504 -1240,9522 -1218,9541 " style="fill: white; stroke: black; stroke-width: 30" />
<polyline points="-1076,9331 -1081,9337 -1102,9377 -1123,9453 -1148,9543 -1169,9610 -1168,9630 -1156,9623 -1150,9575 -1145,9531 -1138,9520 -1140,9522 -1146,9525 -1105,9533 " style="fill: white; stroke: black; stroke-width: 30" />
<polyline points="-1034,9596 -1056,9590 -1052,9573 -1029,9533 -1006,9501 -983,9495 -960,9515 -936,9555 -920,9581 -919,9588 -893,9583 -858,9567 -824,9548 -795,9530 -807,9516 -825,9514 -861,9533 -877,9566 -869,9607 -835,9637 -788,9645 -720,9629 -679,9589 -665,9548 -658,9525 -658,9522 -658,9520 -660,9522 -626,9531 " style="fill: white; stroke: black; stroke-width: 30" />
<polyline points="-390,9383 -397,9391 -413,9437 -427,9505 -437,9576 -436,9630 -428,9656 -419,9658 -415,9644 -386,9614 -358,9582 -330,9576 -305,9590 -290,9613 -286,9629 -283,9632 -274,9629 " style="fill: white; stroke: black; stroke-width: 30" />
<polyline points="-110,9553 -121,9534 -155,9527 -188,9547 -223,9587 -220,9620 -195,9637 -140,9630 -100,9600 -78,9574 -87,9569 -94,9570 -91,9569 -87,9565 -71,9547 -49,9533 -27,9532 " style="fill: white; stroke: black; stroke-width: 30" />
<polyline points="134,9370 132,9351 115,9350 95,9359 56,9397 17,9461 5,9529 7,9587 45,9621 " style="fill: white; stroke: black; stroke-width: 30" />
<polyline points="309,9371 305,9363 308,9363 305,9365 292,9365 307,9365 305,9363 303,9363 307,9361 305,9361 315,9359 321,9360 326,9360 324,9396 310,9472 300,9554 295,9614 301,9635 301,9633 313,9629 320,9617 331,9606 338,9593 334,9594 345,9593 347,9594 345,9593 341,9596 345,9594 343,9595 338,9594 336,9595 343,9594 336,9595 " style="fill: white; stroke: black; stroke-width: 30" />
<polyline points="258,9464 263,9453 261,9451 257,9451 252,9448 263,9448 290,9450 367,9453 446,9460 " style="fill: white; stroke: black; stroke-width: 30" />
<polyline points="278,9664 285,9664 301,9656 339,9641 386,9627 457,9627 " style="fill: white; stroke: black; stroke-width: 30" />
<polyline points="225,9529 213,9530 216,9530 209,9532 225,9534 298,9551 " style="fill: white; stroke: black; stroke-width: 30" />
<polyline points="1565,9317 1561,9316 1549,9334 1530,9398 1514,9471 1512,9533 1510,9559 1503,9561 1502,9551 1517,9513 1533,9473 1566,9458 1601,9478 1626,9520 1635,9561 1630,9587 1601,9597 1545,9586 1499,9558 1479,9535 1482,9531 " style="fill: white; stroke: black; stroke-width: 30" />
<polyline points="1762,9616 1768,9596 1779,9570 1805,9539 1818,9514 1849,9486 1858,9474 1866,9480 1894,9505 1919,9536 1944,9553 1983,9552 2041,9521 2095,9495 2101,9469 2050,9445 2004,9444 1962,9472 1953,9506 1988,9544 2041,9571 2079,9586 2118,9583 2154,9572 2185,9537 2213,9497 2254,9464 2266,9459 2267,9470 2270,9506 2258,9542 2251,9561 2255,9568 2282,9567 " style="fill: white; stroke: black; stroke-width: 30" />
<polyline points="2364,9572 2362,9557 2372,9526 2388,9502 2397,9493 2426,9504 2448,9539 2465,9573 2461,9583 2469,9580 2494,9571 2537,9565 2604,9549 2679,9527 2725,9499 2753,9476 2750,9472 2711,9484 2666,9508 2654,9531 2650,9546 2697,9564 2761,9577 " style="fill: white; stroke: black; stroke-width: 30" />
<polyline points="3378,9578 3365,9554 3354,9541 3344,9523 3312,9506 3264,9512 3203,9541 3187,9567 3189,9587 3225,9594 3269,9604 3306,9632 3324,9684 3326,9743 3308,9801 3287,9835 3235,9855 3171,9863 3109,9845 3089,9805 3111,9761 3181,9712 3267,9657 3348,9599 3401,9560 3404,9549 3397,9548 3388,9558 3377,9581 3374,9606 3390,9620 3425,9622 3462,9622 3488,9622 3517,9616 3544,9619 3607,9599 3657,9587 3680,9584 3698,9591 " style="fill: white; stroke: black; stroke-width: 30" />
<polyline points="3872,9370 3860,9357 3840,9367 3790,9421 3732,9503 3689,9577 3678,9607 3686,9604 3699,9576 3708,9557 3734,9539 3777,9535 3819,9545 3869,9570 " style="fill: white; stroke: black; stroke-width: 30" />
<polyline points="-2188,9869 -2190,9859 -2183,9857 -2186,9868 -2174,9909 -2169,9948 -2167,9960 -2155,9961 " style="fill: white; stroke: black; stroke-width: 30" />
<polyline points="-2237,9818 -2248,9769 -2248,9751 -2236,9752 -2226,9753 -2194,9761 -2156,9768 -2126,9777 -2115,9788 -2108,9802 -2140,9822 -2170,9840 -2192,9833 -2196,9807 -2168,9759 " style="fill: white; stroke: black; stroke-width: 30" />
<polyline points="-2015,9961 -2024,9985 -2034,9985 -2035,9971 -2022,9914 -1988,9873 -1940,9872 -1895,9916 -1880,9970 -1870,10006 -1864,10004 " style="fill: white; stroke: black; stroke-width: 30" />
<polyline points="-1045,9787 -1053,9793 -1046,9838 -1045,9920 -1057,9983 -1059,10020 -1040,10014 " style="fill: white; stroke: black; stroke-width: 30" />
<polyline points="-1163,9779 -1198,9777 -1193,9779 -1182,9782 -1130,9789 -1034,9791 -926,9787 " style="fill: white; stroke: black; stroke-width: 30" />
<polyline points="-959,9971 -964,9967 -930,9954 -896,9933 -872,9916 -852,9902 -843,9887 -859,9877 -891,9875 -914,9903 -928,9944 -917,9974 -875,9980 -820,9949 -737,9883 -681,9813 -659,9757 -653,9719 -669,9714 -695,9737 -724,9788 -739,9859 -745,9913 -724,9936 -671,9919 -584,9848 -503,9766 -453,9707 -446,9688 -454,9693 -500,9736 -543,9805 -573,9875 -575,9915 -543,9923 -468,9893 -386,9834 -319,9795 -287,9782 -287,9785 -301,9809 -322,9841 -338,9864 -338,9874 -340,9875 -333,9872 -313,9854 " style="fill: white; stroke: black; stroke-width: 30" />
<polyline points="-246,9640 -265,9645 -278,9662 -289,9707 -310,9743 -312,9748 -311,9723 -315,9683 -313,9660 -302,9654 -263,9644 " style="fill: white; stroke: black; stroke-width: 30" />
<polyline points="-2068,10206 -2078,10207 -2084,10238 -2097,10310 -2105,10397 -2096,10454 -2081,10487 -2058,10497 -1998,10487 -1930,10456 " style="fill: white; stroke: black; stroke-width: 30" />
<polyline points="-1966,10394 -1972,10393 -1981,10398 -1974,10413 -1925,10427 -1887,10438 -1867,10454 -1878,10480 -1870,10496 -1852,10499 -1890,10488 -1867,10490 -1842,10497 " style="fill: white; stroke: black; stroke-width: 30" />
<polyline points="-1501,10341 -1508,10337 -1500,10366 -1503,10443 -1508,10536 -1510,10614 -1499,10638 " style="fill: white; stroke: black; stroke-width: 30" />
<polyline points="-1298,10409 -1282,10409 -1283,10413 -1321,10431 -1361,10460 -1385,10492 -1413,10516 -1427,10529 -1444,10532 -1444,10548 -1431,10561 -1391,10550 " style="fill: white; stroke: black; stroke-width: 30" />
<polyline points="-1170,10269 -1184,10273 -1214,10306 -1239,10387 -1256,10480 -1261,10540 -1254,10564 -1241,10562 " style="fill: white; stroke: black; stroke-width: 30" />
<polyline points="-1213,10353 -1208,10341 -1214,10342 -1249,10383 -1286,10445 -1281,10497 -1257,10517 -1211,10530 -1167,10531 " style="fill: white; stroke: black; stroke-width: 30" />
<polyline points="-1011,10280 -1016,10291 -1036,10334 -1057,10427 -1074,10510 -1060,10551 -1041,10563 -1021,10543 -1003,10483 -1007,10418 -1010,10368 -1028,10324 -1023,10300 -1037,10300 -1033,10301 -1030,10311 -1032,10349 -1038,10391 -1020,10432 -995,10462 -955,10464 -894,10424 -845,10360 -826,10325 -831,10315 -822,10316 -834,10351 -840,10422 -825,10495 -807,10542 -784,10553 " style="fill: white; stroke: black; stroke-width: 30" />
<polyline points="-733,10400 -733,10375 -720,10350 -689,10339 -668,10350 -641,10382 -628,10430 -649,10483 -681,10510 -716,10508 -736,10475 -742,10448 -729,10433 -711,10430 -678,10445 -634,10467 -595,10472 " style="fill: white; stroke: black; stroke-width: 30" />
<polyline points="-409,10200 -417,10206 -418,10230 -413,10293 -418,10368 -415,10441 -401,10506 -397,10538 -389,10537 -397,10502 -403,10453 -418,10431 -430,10423 -437,10417 -411,10399 -353,10361 -318,10309 -279,10243 -243,10198 -247,10202 -273,10239 -281,10324 -293,10413 -275,10463 -277,10471 -251,10465 -198,10459 -178,10473 -151,10488 -145,10484 " style="fill: white; stroke: black; stroke-width: 30" />
<polyline points="-1562,10645 -1595,10642 -1611,10650 -1632,10653 -1642,10651 -1655,10651 -1616,10670 -1554,10702 -1480,10724 -1391,10725 -1270,10706 -1157,10683 " style="fill: white; stroke: black; stroke-width: 30" />
<polyline points="1109,10599 1114,10754 1074,10918 1028,11047 1013,11121 1010,11155 1092,11162 1156,11170 1234,11176 1300,11182 1371,11188 1424,11197 1468,11218 1513,11246 1538,11273 1565,11277 1584,11274 1600,11243 1609,11198 1612,11158 1613,11104 1610,11040 1574,10964 1541,10853 1476,10758 1357,10676 1306,10594 1212,10524 1190,10448 1191,10384 1244,10328 1331,10289 1446,10285 1518,10323 1583,10398 1621,10512 1664,10647 1682,10780 1697,10891 1726,10957 1794,10988 1876,10989 1975,10947 2095,10848 2214,10720 2312,10573 2312,10573 2408,10427 2459,10290 " style="fill: white; stroke: black; stroke-width: 30" />
<polyline points="-1572,11353 -1596,11352 -1615,11350 -1598,11352 -1572,11357 -1547,11365 -1502,11395 -1440,11446 -1348,11522 -1302,11614 -1316,11700 -1297,11769 -1311,11817 -1337,11847 -1342,11853 -1340,11853 -1265,11853 -1171,11863 -1123,11882 -1127,11909 -1116,11934 -1096,11941 -1092,11941 -1092,11940 -1119,11936 -1148,11931 -1180,11910 " style="fill: white; stroke: black; stroke-width: 30" />
<polyline points="-994,11669 -1010,11647 -1036,11588 -1007,11486 -933,11387 -853,11352 -756,11357 -687,11388 -679,11437 -649,11494 -633,11564 -635,11639 -641,11707 -665,11737 -671,11730 -700,11697 -717,11647 -705,11618 " style="fill: white; stroke: black; stroke-width: 30" />
<polyline points="479,4046 " style="fill: white; stroke: black; stroke-width: 30" />

</svg>