<?xml version="1.0" standalone="no"?>
<!DOCTYPE svg PUBLIC "-//W3C//DTD SVG 1.1//EN" "http://www.w3.org/Graphics/SVG/1.1/DTD/svg11.dtd">
<svg width="210mm" height="297mm" viewBox="-7000 500 14000 20000" version="1.1" xmlns="http://www.w3.org/2000/svg">

<polyline points="-2439,4293 -2443,4288 -2446,4280 -2447,4274 -2420,4250 -2325,4207 -2209,4192 -2130,4226 -2121,4296 -2184,4396 -2251,4479 -2285,4530 -2285,4543 -2281,4546 -2245,4548 -2164,4543 -2093,4523 " style="fill: white; stroke: black; stroke-width: 30" />
<polyline points="-2315,4376 -2322,4373 -2321,4371 -2313,4372 -2286,4371 -2239,4377 -2144,4384 -1991,4371 " style="fill: white; stroke: black; stroke-width: 30" />
<polyline points="-1886,4186 -1903,4190 -1917,4234 -1931,4345 -1913,4441 -1858,4490 -1780,4476 -1706,4400 -1663,4309 -1658,4283 -1658,4291 -1660,4330 -1650,4394 -1636,4467 -1612,4518 " style="fill: white; stroke: black; stroke-width: 30" />
<polyline points="-117,4229 -123,4216 -141,4196 -186,4181 -274,4181 -399,4230 -531,4308 -583,4370 -540,4447 -437,4552 -349,4639 -329,4692 -370,4712 -459,4712 -530,4673 -561,4631 -544,4596 " style="fill: white; stroke: black; stroke-width: 30" />
<polyline points="-70,4427 -159,4442 -223,4495 -242,4564 -195,4613 -100,4612 37,4527 150,4392 210,4275 218,4208 197,4189 171,4198 113,4276 28,4444 9,4562 72,4593 168,4528 239,4476 256,4485 233,4548 212,4603 233,4614 " style="fill: white; stroke: black; stroke-width: 30" />
<polyline points="387,4436 361,4435 341,4451 331,4491 362,4513 439,4492 517,4441 546,4437 541,4475 508,4552 511,4601 555,4605 614,4548 645,4501 644,4483 642,4487 639,4500 638,4523 650,4532 675,4548 720,4569 786,4570 825,4530 830,4467 819,4421 803,4420 796,4444 800,4528 869,4609 977,4653 1100,4638 1176,4583 1182,4521 1171,4472 1181,4445 1211,4421 1282,4398 1446,4378 1703,4356 " style="fill: white; stroke: black; stroke-width: 30" />
<polyline points="-2787,5145 -2820,5148 -2810,5151 -2786,5154 -2723,5148 -2581,5130 -2329,5106 -1930,5084 -1393,5044 -746,4985 -30,4934 641,4902 1190,4894 1519,4895 1614,4886 1613,4880 1598,4878 1584,4879 1579,4878 1580,4880 1588,4881 1598,4888 " style="fill: white; stroke: black; stroke-width: 30" />
<polyline points="-2324,5482 -2237,5378 -2160,5310 -2140,5311 -2176,5383 -2292,5571 -2367,5698 -2329,5763 -2204,5791 -2021,5778 -1869,5737 " style="fill: white; stroke: black; stroke-width: 30" />
<polyline points="-1742,5548 -1735,5554 -1694,5570 -1613,5602 -1539,5634 -1527,5661 -1559,5697 -1626,5744 -1655,5765 " style="fill: white; stroke: black; stroke-width: 30" />
<polyline points="-1342,5889 -1246,5833 -1115,5739 -949,5610 -805,5489 -771,5457 -799,5472 -869,5566 -906,5704 -878,5825 -825,5900 -770,5912 " style="fill: white; stroke: black; stroke-width: 30" />
<polyline points="-1158,5685 -1138,5684 -1060,5687 -929,5688 -760,5694 " style="fill: white; stroke: black; stroke-width: 30" />
<polyline points="-479,5487 -507,5472 -534,5483 -600,5572 -675,5718 -681,5815 -643,5861 -561,5857 " style="fill: white; stroke: black; stroke-width: 30" />
<polyline points="-131,5534 -134,5539 -156,5602 -210,5738 -255,5851 -268,5914 -272,5922 -279,5871 -277,5762 -281,5697 -269,5685 -226,5695 -139,5725 -45,5763 " style="fill: white; stroke: black; stroke-width: 30" />
<polyline points="42,5678 19,5677 7,5700 -8,5792 -23,5882 -48,5940 -83,5963 -114,5956 -118,5915 -87,5857 -1,5807 " style="fill: white; stroke: black; stroke-width: 30" />
<polyline points="460,5494 432,5468 396,5476 317,5594 222,5760 169,5870 157,5902 148,5882 147,5801 190,5723 230,5700 281,5715 335,5762 " style="fill: white; stroke: black; stroke-width: 30" />
<polyline points="402,5677 437,5661 491,5673 530,5718 511,5798 419,5884 309,5932 233,5934 229,5886 287,5807 358,5774 390,5787 409,5842 414,5923 " style="fill: white; stroke: black; stroke-width: 30" />
<polyline points="724,5773 746,5723 744,5700 697,5721 610,5803 547,5893 566,5953 625,5957 734,5852 845,5695 913,5567 904,5531 857,5554 770,5691 741,5835 777,5937 818,5965 " style="fill: white; stroke: black; stroke-width: 30" />
<polyline points="1825,5820 1808,5793 1774,5768 1697,5744 1590,5761 1521,5809 1525,5861 1598,5930 1740,5953 1911,5914 " style="fill: white; stroke: black; stroke-width: 30" />
<polyline points="1992,5827 1961,5836 1935,5880 1918,5940 1923,5965 1931,5962 1953,5922 1996,5823 2024,5753 2032,5738 2041,5735 2075,5755 2126,5801 " style="fill: white; stroke: black; stroke-width: 30" />
<polyline points="2305,5791 2276,5762 2241,5745 2185,5793 2147,5883 2155,5956 2191,5985 2245,5962 2316,5885 2353,5809 2350,5772 2349,5769 2341,5777 2335,5809 2338,5846 2344,5871 " style="fill: white; stroke: black; stroke-width: 30" />
<polyline points="2513,5766 2506,5747 2501,5743 2493,5761 2452,5831 2423,5911 2416,5947 2425,5959 2457,5962 2524,5916 2585,5864 2588,5863 2559,5905 2531,5995 2534,6073 2596,6122 2673,6109 2744,6033 2772,5966 2771,5954 2765,5955 2767,5962 2766,5977 " style="fill: white; stroke: black; stroke-width: 30" />
<polyline points="3076,5870 3076,5826 3033,5806 2941,5829 2837,5901 2811,5980 2832,6030 2925,6025 3075,5931 3181,5812 3235,5727 3240,5679 3227,5665 3220,5666 3203,5703 3183,5802 3177,5896 3171,5959 3161,6010 3161,6069 " style="fill: white; stroke: black; stroke-width: 30" />
<polyline points="-1274,6335 -1283,6333 -1277,6333 -1234,6341 -1143,6353 -1015,6364 " style="fill: white; stroke: black; stroke-width: 30" />
<polyline points="-1134,6361 -1150,6357 -1156,6362 -1195,6483 -1267,6653 -1285,6739 -1259,6783 -1162,6821 -1017,6846 -883,6841 " style="fill: white; stroke: black; stroke-width: 30" />
<polyline points="-917,6693 -914,6687 -857,6688 -774,6706 -722,6727 -704,6747 -709,6761 -720,6770 -765,6798 -835,6858 " style="fill: white; stroke: black; stroke-width: 30" />
<polyline points="-441,6912 -452,6910 -438,6898 -344,6827 -199,6701 -75,6599 -33,6566 -38,6570 -68,6596 -91,6676 -91,6784 -49,6878 15,6929 " style="fill: white; stroke: black; stroke-width: 30" />
<polyline points="-402,6692 -384,6693 -289,6707 -138,6735 7,6749 " style="fill: white; stroke: black; stroke-width: 30" />
<polyline points="212,6544 196,6547 162,6604 101,6737 68,6830 65,6863 74,6860 115,6825 193,6769 266,6759 316,6790 309,6847 264,6896 211,6912 158,6894 119,6835 103,6764 116,6726 " style="fill: white; stroke: black; stroke-width: 30" />
<polyline points="452,6697 395,6706 345,6755 308,6853 331,6899 389,6904 458,6863 487,6842 484,6846 484,6885 502,6929 542,6942 583,6922 600,6881 595,6869 598,6872 602,6879 618,6894 670,6893 731,6874 770,6832 782,6804 782,6788 779,6785 777,6786 766,6795 734,6813 722,6848 722,6893 759,6924 848,6923 979,6887 " style="fill: white; stroke: black; stroke-width: 30" />
<polyline points="1172,6510 1129,6518 1061,6606 981,6750 942,6852 944,6882 979,6876 1048,6847 1086,6850 1091,6909 1087,6957 1100,6971 1119,6949 1138,6898 1151,6866 1154,6862 1161,6853 1171,6835 1188,6807 1211,6782 1259,6764 1333,6768 " style="fill: white; stroke: black; stroke-width: 30" />
<polyline points="1556,6935 1526,6941 1499,6950 1490,6956 1494,6950 1519,6930 1541,6898 1560,6873 1574,6851 1581,6840 1592,6821 1595,6809 1593,6807 1598,6811 1596,6814 1598,6818 1596,6819 1597,6822 1595,6822 1594,6834 1585,6854 1591,6862 1612,6877 1650,6896 1673,6914 1682,6930 1691,6930 1702,6926 1754,6892 1799,6872 1817,6881 1820,6904 1806,6933 1801,6947 1822,6946 " style="fill: white; stroke: black; stroke-width: 30" />
<polyline points="1978,6959 2010,6944 2047,6921 2071,6896 2081,6865 2059,6836 1995,6831 1926,6863 1887,6922 1910,6997 1988,7043 2131,7036 " style="fill: white; stroke: black; stroke-width: 30" />
<polyline points="2458,6743 2429,6717 2393,6712 2343,6743 2277,6815 2231,6894 2233,6945 2258,6977 2318,6977 2420,6942 2491,6938 2500,6961 2486,6999 2486,7023 " style="fill: white; stroke: black; stroke-width: 30" />
<polyline points="2662,6919 2667,6908 2698,6888 2736,6873 2765,6877 2772,6907 2750,6961 2691,7013 2621,7034 2548,7031 2535,7003 2553,6968 2604,6943 2674,6945 2727,6978 " style="fill: white; stroke: black; stroke-width: 30" />
<polyline points="2802,7049 2840,6990 2894,6933 2956,6914 2979,6925 2957,6973 2926,7022 2929,7056 2968,7065 3057,7040 " style="fill: white; stroke: black; stroke-width: 30" />
<polyline points="3200,6903 3198,6898 3170,6918 3133,6963 3115,7002 3109,7027 3117,7031 " style="fill: white; stroke: black; stroke-width: 30" />
<polyline points="3363,6658 3355,6657 3352,6658 " style="fill: white; stroke: black; stroke-width: 30" />
<polyline points="3539,6972 3471,6937 3417,6908 3396,6908 3399,6916 3404,6967 3399,7026 3375,7067 3338,7080 3317,7069 3325,7039 3390,6999 3505,6972 " style="fill: white; stroke: black; stroke-width: 30" />
<polyline points="3732,6895 3718,6905 3653,6954 3604,7013 3583,7055 3590,7068 3617,7065 3674,7055 3714,7038 3712,7040 3719,7043 3744,7065 3785,7068 3812,7059 3808,7056 3798,7060 3808,7059 3854,7065 3919,7058 3979,7042 4030,7008 4066,6972 4069,6963 4050,6975 4013,6999 3985,7017 3985,7028 4001,7050 4008,7077 4020,7088 4079,7066 4160,7048 4238,7053 4293,7082 4328,7117 4334,7134 " style="fill: white; stroke: black; stroke-width: 30" />
<polyline points="-73,7376 -69,7372 -28,7341 34,7259 64,7175 17,7138 -99,7166 -200,7257 -203,7317 -132,7373 -23,7394 53,7429 61,7506 18,7624 -38,7698 -100,7739 -158,7738 -168,7679 -104,7504 36,7367 184,7333 " style="fill: white; stroke: black; stroke-width: 30" />
<polyline points="418,7319 411,7286 400,7243 377,7226 346,7214 300,7236 287,7268 307,7319 362,7348 462,7330 " style="fill: white; stroke: black; stroke-width: 30" />
<polyline points="738,7272 727,7251 711,7232 689,7236 654,7285 614,7408 589,7516 561,7586 517,7623 483,7624 469,7592 491,7499 574,7397 655,7360 723,7356 781,7363 805,7360 805,7347 770,7328 711,7331 684,7360 693,7388 723,7413 769,7417 819,7399 878,7377 935,7355 978,7360 999,7386 992,7414 988,7424 988,7425 995,7425 1014,7442 " style="fill: white; stroke: black; stroke-width: 30" />
<polyline points="1639,7458 1612,7469 1599,7472 1605,7469 1624,7455 1692,7402 1729,7356 1728,7347 1726,7340 1723,7338 1746,7314 1796,7274 1844,7257 1878,7283 1902,7360 1898,7451 1859,7502 1808,7517 1754,7494 1733,7449 1745,7387 1763,7374 1797,7384 1852,7427 1904,7471 1962,7494 " style="fill: white; stroke: black; stroke-width: 30" />
<polyline points="2061,7492 2020,7468 2022,7441 2049,7407 2094,7383 2138,7388 2165,7423 2188,7480 2199,7526 " style="fill: white; stroke: black; stroke-width: 30" />
<polyline points="2436,7434 2439,7403 2418,7370 2349,7371 2256,7416 2220,7468 2250,7501 2348,7486 2473,7411 2560,7327 2572,7283 2534,7283 2454,7346 2403,7447 2405,7518 2438,7538 2488,7520 2515,7503 2504,7506 2506,7518 2542,7530 2595,7515 2631,7486 2646,7452 2646,7432 2651,7427 2691,7411 2771,7408 2816,7415 2804,7425 2773,7434 2774,7434 2796,7426 2848,7406 2871,7388 2859,7379 2825,7375 2790,7397 2793,7427 2831,7480 2930,7514 " style="fill: white; stroke: black; stroke-width: 30" />
<polyline points="3141,7369 3122,7369 3090,7395 3066,7464 3055,7539 3041,7580 3013,7596 2988,7591 2968,7561 2982,7501 " style="fill: white; stroke: black; stroke-width: 30" />
<polyline points="540,7906 538,7907 537,7908 534,7913 526,7914 524,7915 523,7912 520,7910 521,7907 520,7907 520,7906 520,7907 526,7906 571,7907 666,7911 785,7916 919,7917 " style="fill: white; stroke: black; stroke-width: 30" />
<polyline points="552,7940 568,7943 583,7964 580,8030 531,8136 500,8210 516,8243 603,8272 741,8286 867,8297 968,8300 " style="fill: white; stroke: black; stroke-width: 30" />
<polyline points="862,8192 846,8190 890,8197 963,8226 1022,8264 1014,8295 961,8339 904,8374 " style="fill: white; stroke: black; stroke-width: 30" />
<polyline points="1571,8332 1584,8331 1600,8310 1628,8256 1636,8205 1588,8177 1495,8177 1405,8219 1369,8271 1397,8314 1494,8346 1605,8344 1649,8341 1631,8361 1576,8450 1507,8561 1443,8667 1381,8742 1336,8761 1321,8710 1365,8516 1480,8303 1643,8180 1822,8125 " style="fill: white; stroke: black; stroke-width: 30" />
<polyline points="2059,8078 2039,8071 1995,8074 1941,8100 1874,8154 1796,8248 1753,8337 1750,8424 1788,8458 1909,8447 2066,8371 2152,8308 2154,8273 2098,8278 1994,8339 1945,8403 1964,8447 2036,8466 2135,8440 2205,8426 2217,8424 2197,8436 2180,8440 2170,8448 2133,8484 2101,8520 2107,8528 2136,8519 " style="fill: white; stroke: black; stroke-width: 30" />
<polyline points="2295,8190 2272,8184 2265,8183 2279,8184 2286,8189 2307,8199 " style="fill: white; stroke: black; stroke-width: 30" />
<polyline points="2410,8457 2466,8421 2500,8400 2486,8393 2445,8383 2379,8400 2333,8444 2327,8485 2354,8522 2436,8513 2598,8413 2763,8294 2868,8211 2878,8192 2851,8193 2767,8260 2652,8386 2615,8464 2637,8504 2710,8504 2763,8488 2771,8485 " style="fill: white; stroke: black; stroke-width: 30" />
<polyline points="3014,8375 2987,8358 2958,8354 2929,8379 2897,8447 2877,8512 2859,8558 2841,8568 2829,8547 2813,8510 2852,8475 " style="fill: white; stroke: black; stroke-width: 30" />
<polyline points="3252,8370 3239,8340 3206,8335 3136,8370 3055,8436 3039,8484 3059,8510 3132,8508 3256,8449 3375,8354 3399,8320 3370,8321 3305,8367 3223,8459 3208,8513 3225,8548 3309,8546 " style="fill: white; stroke: black; stroke-width: 30" />
<polyline points="3499,8429 3505,8415 3547,8392 3609,8378 3635,8384 3637,8421 3584,8484 3506,8532 3462,8544 3447,8543 3461,8526 3483,8506 3497,8505 3499,8526 3520,8559 3561,8585 " style="fill: white; stroke: black; stroke-width: 30" />
<polyline points="3931,8245 3881,8312 3792,8423 3719,8523 3693,8574 3709,8588 3792,8548 " style="fill: white; stroke: black; stroke-width: 30" />
<polyline points="4118,8239 4112,8222 4103,8226 4062,8279 3943,8404 3826,8514 3759,8583 3744,8597 3780,8553 3858,8477 3926,8421 3950,8413 3962,8430 4021,8476 4091,8500 4114,8502 4108,8480 4080,8476 4053,8492 4056,8513 4062,8527 4076,8533 4081,8530 4074,8534 4083,8538 4114,8558 " style="fill: white; stroke: black; stroke-width: 30" />
<polyline points="4317,8474 4316,8478 4302,8493 4285,8514 4281,8533 4299,8551 4363,8554 4421,8546 4439,8541 4448,8542 4438,8549 4425,8559 4369,8588 4280,8645 4200,8709 4172,8763 4165,8768 4177,8745 4190,8711 4203,8696 4245,8672 4334,8660 4422,8676 4462,8705 4499,8758 " style="fill: white; stroke: black; stroke-width: 30" />
<polyline points="6070,15924 " style="fill: white; stroke: black; stroke-width: 30" />
<polyline points="2855,1610 2833,1616 2811,1624 2802,1664 2794,1787 2801,2047 2787,2499 2743,2963 2695,3264 2653,3470 2642,3530 2645,3542 2658,3523 " style="fill: white; stroke: black; stroke-width: 30" />
<polyline points="2703,3563 2763,3579 2998,3544 3349,3480 3796,3411 4226,3380 4522,3411 4714,3446 4870,3469 5036,3425 " style="fill: white; stroke: black; stroke-width: 30" />
<polyline points="3004,1418 3079,1376 3346,1323 3742,1343 4209,1416 4676,1490 5057,1508 " style="fill: white; stroke: black; stroke-width: 30" />
<polyline points="3327,1107 3314,1095 3303,1096 3300,1106 3299,1147 3299,1226 3282,1312 3265,1392 " style="fill: white; stroke: black; stroke-width: 30" />
<polyline points="3418,1196 3394,1204 3384,1236 3386,1257 3381,1301 3396,1312 3441,1303 3511,1274 3539,1262 3541,1280 3534,1322 3536,1366 " style="fill: white; stroke: black; stroke-width: 30" />
<polyline points="3849,1055 3808,1089 3716,1165 3642,1248 3615,1325 3609,1374 3617,1379 3642,1355 3670,1289 3679,1253 3676,1259 3680,1275 3708,1306 3766,1350 3844,1368 3896,1367 3894,1351 3848,1347 3791,1359 3768,1393 3786,1428 3837,1448 3907,1414 3939,1359 3937,1302 3942,1276 3945,1276 3972,1288 " style="fill: white; stroke: black; stroke-width: 30" />
<polyline points="4119,1289 4113,1295 4083,1342 4053,1409 4011,1492 3995,1535 3997,1540 4021,1510 4070,1430 4114,1336 4132,1282 4137,1283 4143,1288 4151,1333 4158,1370 4158,1411 4158,1423 4171,1428 4238,1388 4298,1349 4294,1358 4281,1367 4250,1409 4247,1435 4254,1449 4265,1450 " style="fill: white; stroke: black; stroke-width: 30" />
<polyline points="4364,1386 4372,1397 4411,1389 4438,1395 4466,1369 4474,1364 4440,1347 4376,1368 4348,1406 4362,1461 4414,1501 4509,1484 " style="fill: white; stroke: black; stroke-width: 30" />
<polyline points="4694,1264 4699,1281 4700,1297 4702,1302 4712,1314 4736,1328 4755,1362 4759,1395 4762,1428 4760,1465 4748,1493 4703,1525 " style="fill: white; stroke: black; stroke-width: 30" />
<polyline points="4714,1388 4777,1386 4829,1399 4865,1405 " style="fill: white; stroke: black; stroke-width: 30" />
<polyline points="4934,1353 4938,1353 4948,1357 4971,1370 4993,1387 4996,1405 4977,1414 4881,1446 4786,1460 4777,1480 4812,1513 4878,1545 4930,1552 " style="fill: white; stroke: black; stroke-width: 30" />
<polyline points="4859,1407 4838,1389 4851,1406 4901,1433 4964,1437 5014,1453 5046,1435 5064,1426 5067,1424 5059,1439 5048,1442 5017,1456 4989,1465 4988,1474 4992,1489 4995,1500 4996,1500 5003,1495 5006,1497 5020,1490 5049,1475 5072,1453 5063,1426 5033,1418 5003,1406 4988,1404 " style="fill: white; stroke: black; stroke-width: 30" />
<polyline points="3289,1844 3240,1897 3202,2000 3179,2088 3187,2125 3210,2130 3243,2078 3257,1986 3249,1872 3274,1753 3342,1690 3425,1708 3471,1779 3435,1873 3348,1939 3285,1954 3270,1932 3311,1879 3398,1826 " style="fill: white; stroke: black; stroke-width: 30" />
<polyline points="3510,2013 3546,2016 3613,2001 3666,1969 3711,1914 3712,1864 3662,1841 3593,1868 3566,1926 3590,1985 3662,2026 3759,2032 3837,2001 3843,1955 3802,1925 3769,1922 3771,1922 3793,1949 3828,1972 3859,1983 3885,1967 3922,1930 3933,1901 3928,1878 3913,1860 3899,1859 3900,1859 3919,1875 3956,1902 4004,1912 4019,1915 4022,1915 4044,1915 4101,1907 " style="fill: white; stroke: black; stroke-width: 30" />
<polyline points="4167,1846 4169,1853 4159,1887 4119,1954 4093,2011 4091,2044 " style="fill: white; stroke: black; stroke-width: 30" />
<polyline points="4206,1656 4220,1649 4234,1675 " style="fill: white; stroke: black; stroke-width: 30" />
<polyline points="4291,2038 4307,2007 4359,1947 4414,1912 4436,1910 4436,1925 4430,1953 4432,1991 4475,2024 " style="fill: white; stroke: black; stroke-width: 30" />
<polyline points="4697,1959 4695,1915 4664,1884 4642,1889 4618,1935 4606,2032 4594,2159 4571,2274 4527,2367 4472,2397 4431,2376 4408,2305 4420,2189 " style="fill: white; stroke: black; stroke-width: 30" />
<polyline points="3397,2481 3406,2481 3446,2458 3490,2421 3492,2376 3447,2352 3383,2361 3350,2402 3367,2447 3426,2483 3492,2504 3523,2542 3511,2640 3480,2766 3425,2864 3363,2914 3318,2903 3322,2790 3387,2584 " style="fill: white; stroke: black; stroke-width: 30" />
<polyline points="3691,2618 3703,2567 3751,2478 3800,2381 3830,2322 3845,2316 3858,2330 3887,2374 " style="fill: white; stroke: black; stroke-width: 30" />
<polyline points="4024,2410 3980,2380 3915,2372 3854,2402 3851,2432 3891,2479 3965,2489 4029,2474 4037,2450 4023,2417 4000,2416 4008,2422 4041,2458 4104,2485 4167,2476 4226,2430 4247,2376 4240,2353 4231,2355 4224,2381 4221,2438 4220,2481 4222,2497 4228,2497 4258,2495 4321,2469 4346,2459 4342,2459 4333,2469 4339,2499 4369,2518 " style="fill: white; stroke: black; stroke-width: 30" />
<polyline points="4626,2314 4625,2309 4628,2315 4634,2322 4633,2338 4629,2356 4623,2365 4623,2361 4620,2356 4620,2352 4615,2356 4599,2399 4544,2515 4492,2630 4449,2707 4439,2725 4461,2679 4527,2559 4626,2413 4728,2333 4785,2344 4792,2388 4736,2449 4626,2497 4540,2504 4534,2498 4569,2436 " style="fill: white; stroke: black; stroke-width: 30" />
<polyline points="-2574,8945 -2563,8925 -2568,8921 -2569,8931 -2565,8993 -2579,9141 -2581,9248 -2557,9282 " style="fill: white; stroke: black; stroke-width: 30" />
<polyline points="-2372,8905 -2408,8959 -2422,9078 -2415,9212 -2401,9286 -2384,9318 " style="fill: white; stroke: black; stroke-width: 30" />
<polyline points="-2502,9164 -2559,9111 -2573,9090 -2571,9091 -2545,9094 -2484,9104 -2391,9095 -2307,9084 -2246,9088 -2224,9116 -2216,9176 -2224,9234 -2217,9271 -2220,9276 -2213,9270 " style="fill: white; stroke: black; stroke-width: 30" />
<polyline points="-2229,8891 -2239,8892 -2244,8888 -2238,8890 -2234,8894 " style="fill: white; stroke: black; stroke-width: 30" />
<polyline points="-2076,8837 -2103,8859 -2133,8948 -2141,9138 -2131,9278 -2113,9332 -2100,9331 -2102,9280 -2117,9202 -2124,9153 -2122,9150 -2104,9153 -2031,9138 -1938,9090 -1851,9001 -1799,8895 -1819,8867 -1858,8910 -1888,9023 -1908,9184 -1909,9282 -1896,9304 -1887,9276 -1871,9184 -1875,9076 -1875,9061 -1872,9081 -1866,9106 -1850,9116 -1823,9108 -1802,9078 -1791,9050 -1795,9043 -1790,9044 -1792,9043 -1785,9043 -1789,9040 -1794,9042 -1794,9043 -1801,9044 -1803,9044 -1802,9046 -1800,9046 -1795,9048 -1805,9044 -1802,9046 -1801,9044 -1801,9044 -1799,9042 -1792,9044 -1792,9042 -1799,9040 -1799,9040 -1799,9041 -1802,9039 -1799,9040 -1800,9039 -1797,9041 -1797,9041 -1802,9040 -1797,9040 -1790,9041 -1784,9041 -1786,9041 -1788,9039 -1788,9041 -1790,9041 -1785,9043 -1791,9040 -1797,9041 -1793,9040 -1787,9044 -1791,9041 -1793,9042 -1791,9040 -1797,9041 -1790,9041 -1788,9042 -1791,9041 -1792,9042 -1793,9040 -1795,9042 -1795,9042 -1792,9043 -1795,9042 -1793,9042 -1791,9038 -1774,9032 -1758,9014 -1757,8992 -1762,8984 -1783,8978 -1819,8980 -1847,8994 -1849,9004 -1851,9066 -1832,9146 -1808,9214 -1778,9250 -1760,9259 -1715,9237 -1655,9190 " style="fill: white; stroke: black; stroke-width: 30" />
<polyline points="-1644,9136 -1661,9151 -1671,9173 -1662,9194 -1656,9203 -1651,9198 -1640,9162 -1626,9095 -1621,9025 -1613,9007 -1605,9007 -1601,9014 -1567,9044 " style="fill: white; stroke: black; stroke-width: 30" />
<polyline points="-922,8908 -933,8916 -948,8974 -978,9110 -991,9222 -969,9287 " style="fill: white; stroke: black; stroke-width: 30" />
<polyline points="-809,9020 -861,9037 -956,9105 -1002,9194 -982,9241 -915,9264 -812,9237 -739,9191 -710,9172 -723,9187 -749,9208 -754,9217 -751,9210 -754,9200 -764,9187 -746,9168 -713,9143 -662,9140 -630,9181 -628,9235 -653,9269 -684,9276 -728,9247 -761,9200 -759,9175 -748,9175 " style="fill: white; stroke: black; stroke-width: 30" />
<polyline points="-592,9336 -600,9329 -586,9296 -549,9242 -533,9231 -526,9239 -527,9257 -502,9275 -488,9276 -481,9276 -475,9281 -471,9296 -466,9307 -449,9309 -431,9306 -424,9312 -419,9329 -409,9340 " style="fill: white; stroke: black; stroke-width: 30" />
<polyline points="-247,9252 -272,9319 -293,9424 -297,9510 -304,9539 -298,9524 -303,9466 -302,9381 -266,9287 -207,9233 -145,9224 -119,9251 -136,9292 -185,9320 -240,9315 -282,9298 -287,9279 -267,9267 -184,9229 -98,9191 -5,9141 68,9074 100,9016 82,9012 42,9038 -5,9123 -38,9201 -46,9241 -25,9259 15,9277 75,9287 131,9282 187,9242 " style="fill: white; stroke: black; stroke-width: 30" />
<polyline points="195,9185 167,9199 157,9217 160,9231 183,9236 213,9234 229,9230 218,9237 205,9243 201,9251 219,9253 " style="fill: white; stroke: black; stroke-width: 30" />
<polyline points="217,9254 " style="fill: white; stroke: black; stroke-width: 30" />
<polyline points="304,9268 323,9273 342,9268 387,9241 425,9198 454,9172 466,9163 473,9163 462,9162 427,9155 380,9151 361,9155 363,9162 379,9187 413,9234 452,9288 504,9332 " style="fill: white; stroke: black; stroke-width: 30" />
<polyline points="-2573,9697 -2582,9706 -2587,9703 -2568,9699 -2518,9685 -2433,9667 -2361,9659 " style="fill: white; stroke: black; stroke-width: 30" />
<polyline points="-2436,9632 -2456,9645 -2463,9691 -2474,9782 -2480,9867 -2464,9918 -2443,9934 -2410,9941 -2358,9936 -2292,9928 " style="fill: white; stroke: black; stroke-width: 30" />
<polyline points="-2282,9833 -2283,9828 -2266,9822 -2220,9824 -2180,9824 -2151,9827 -2155,9837 -2181,9883 -2204,9927 -2208,9953 -2193,9958 -2189,9958 -2182,9955 -2183,9947 -2164,9935 -2159,9932 -2157,9932 " style="fill: white; stroke: black; stroke-width: 30" />
<polyline points="-1932,9766 -1941,9764 -1947,9757 -1949,9757 -1954,9791 -1979,9889 -1994,9965 -1990,9985 -1996,9975 -1967,9929 -1941,9843 -1931,9775 -1926,9749 -1919,9752 -1919,9762 -1927,9795 -1934,9842 -1923,9862 -1877,9880 -1831,9856 -1766,9797 -1750,9784 -1758,9794 -1765,9833 -1762,9884 -1753,9910 -1735,9923 " style="fill: white; stroke: black; stroke-width: 30" />
<polyline points="-1614,9848 -1628,9851 -1630,9853 -1629,9861 -1643,9884 -1655,9933 -1656,9953 -1656,9954 -1617,9942 -1579,9938 -1570,9943 -1552,9951 -1527,9940 " style="fill: white; stroke: black; stroke-width: 30" />
<polyline points="-1424,9859 -1434,9858 -1446,9862 -1464,9882 -1472,9908 -1459,9936 -1451,9952 -1456,9962 -1471,9971 -1491,9973 -1496,9966 -1506,9955 " style="fill: white; stroke: black; stroke-width: 30" />
<polyline points="-1198,9762 -1202,9760 -1202,9762 -1210,9778 -1240,9841 -1287,9939 -1311,9990 -1309,10005 -1292,10008 -1253,10007 -1213,9978 -1180,9931 -1150,9885 -1123,9860 -1126,9855 -1156,9870 -1213,9897 -1285,9941 -1305,9972 -1293,9988 -1241,10004 -1162,10004 -1058,9967 -974,9911 -951,9889 -963,9893 -1000,9904 -1037,9928 -1066,9958 -1068,9987 -1045,10009 -976,10016 -876,9964 -786,9886 -737,9806 -723,9763 -734,9761 -759,9777 -800,9821 -854,9908 -861,9969 -837,10000 -792,10007 -724,9994 -690,9967 -658,9939 " style="fill: white; stroke: black; stroke-width: 30" />
<polyline points="-666,9955 -691,9980 -691,9982 -685,9976 -636,9952 -613,9947 -602,9954 -606,9965 -602,9988 " style="fill: white; stroke: black; stroke-width: 30" />
<polyline points="357,6135 362,6125 354,6122 334,6125 304,6135 269,6164 246,6216 238,6304 268,6385 296,6433 293,6446 276,6447 221,6427 142,6384 88,6340 54,6299 50,6258 92,6226 " style="fill: white; stroke: black; stroke-width: 30" />
<polyline points="271,6168 224,6165 221,6156 259,6142 336,6124 408,6146 488,6190 " style="fill: white; stroke: black; stroke-width: 30" />
<polyline points="481,6321 474,6293 491,6263 535,6248 598,6254 647,6294 649,6350 596,6416 526,6445 483,6435 459,6388 471,6284 516,6227 " style="fill: white; stroke: black; stroke-width: 30" />
<polyline points="800,6291 782,6270 810,6253 868,6260 925,6300 934,6345 900,6384 831,6405 773,6392 741,6366 730,6337 735,6312 764,6283 " style="fill: white; stroke: black; stroke-width: 30" />
<polyline points="1313,6294 1291,6285 1285,6279 1286,6278 1294,6275 1315,6278 1377,6286 1507,6305 " style="fill: white; stroke: black; stroke-width: 30" />
<polyline points="1573,6447 1590,6419 1659,6355 1788,6240 1900,6150 1922,6133 1905,6144 1869,6190 1829,6267 1811,6345 1810,6436 1834,6501 " style="fill: white; stroke: black; stroke-width: 30" />
<polyline points="2008,6334 1975,6320 1987,6279 2036,6236 2128,6214 2195,6246 2224,6313 2180,6401 2101,6458 2020,6477 1967,6458 1963,6415 2015,6301 2117,6226 " style="fill: white; stroke: black; stroke-width: 30" />
<polyline points="2351,6321 2344,6289 2356,6272 2410,6277 2475,6310 2494,6374 2468,6432 2403,6466 2339,6462 2302,6442 2305,6397 2351,6317 2413,6265 2477,6264 " style="fill: white; stroke: black; stroke-width: 30" />
<polyline points="2505,6389 2471,6376 2476,6364 2548,6324 2655,6293 2739,6289 2774,6308 2780,6344 2758,6379 2703,6415 2636,6420 2590,6406 2571,6385 2575,6366 2584,6350 " style="fill: white; stroke: black; stroke-width: 30" />
<polyline points="3471,6329 3439,6336 3430,6357 3415,6425 3405,6482 3397,6525 3378,6541 3375,6530 3364,6467 3387,6347 3453,6259 3535,6257 3579,6305 3568,6371 3496,6420 3404,6429 3354,6415 3343,6397 3374,6370 3456,6324 3553,6286 " style="fill: white; stroke: black; stroke-width: 30" />
<polyline points="3722,6217 3756,6213 3746,6225 3715,6279 3663,6346 3623,6403 3605,6456 3620,6515 3671,6559 3754,6585 " style="fill: white; stroke: black; stroke-width: 30" />
<polyline points="3780,6357 3793,6349 3846,6355 3885,6407 3887,6472 3853,6539 3804,6567 3757,6574 3740,6546 3736,6494 3739,6481 3760,6490 3797,6541 3867,6591 3980,6581 " style="fill: white; stroke: black; stroke-width: 30" />
<polyline points="4188,6260 4174,6245 4162,6254 4137,6317 4090,6426 4052,6509 4025,6566 4021,6579 4022,6569 4053,6507 4096,6436 4125,6422 4156,6429 4162,6453 " style="fill: white; stroke: black; stroke-width: 30" />
<polyline points="4190,6413 4174,6404 4173,6402 4181,6402 4187,6405 4192,6407 4213,6415 4262,6430 4304,6451 4319,6467 4330,6465 4329,6466 4331,6463 4324,6466 4325,6465 4320,6468 4318,6469 4301,6474 4238,6506 4205,6538 4211,6574 4243,6620 4298,6641 4343,6640 " style="fill: white; stroke: black; stroke-width: 30" />
<polyline points="4168,6475 4177,6471 4248,6475 4318,6491 4381,6508 " style="fill: white; stroke: black; stroke-width: 30" />
<polyline points="4452,6309 4461,6305 4452,6328 4409,6409 4344,6493 4304,6532 4317,6546 4361,6550 4451,6540 4514,6548 4526,6560 4511,6592 4502,6614 4516,6619 4546,6593 4568,6560 4562,6552 4559,6556 4559,6563 4567,6565 4561,6572 4563,6576 4569,6577 " style="fill: white; stroke: black; stroke-width: 30" />
<polyline points="4728,6286 4701,6262 4696,6255 4695,6254 4701,6249 4694,6262 4675,6324 " style="fill: white; stroke: black; stroke-width: 30" />
<polyline points="4669,6603 4657,6586 4659,6563 4678,6523 4716,6473 4749,6456 4768,6466 " style="fill: white; stroke: black; stroke-width: 30" />
<polyline points="4846,6433 4833,6423 4829,6423 4806,6461 4783,6520 4744,6584 4715,6611 4684,6615 4676,6604 4682,6593 4722,6566 4802,6550 " style="fill: white; stroke: black; stroke-width: 30" />
<polyline points="4958,6529 4907,6527 4883,6532 4879,6540 4882,6557 4920,6567 4992,6546 5044,6504 5077,6441 5078,6421 5068,6427 5060,6446 5043,6497 5012,6550 5011,6568 5021,6582 5036,6588 5045,6602 5050,6615 5059,6627 " style="fill: white; stroke: black; stroke-width: 30" />
<polyline points="412,10812 416,10797 418,10797 398,10808 393,10853 358,10960 349,11072 373,11115 398,11112 431,11029 451,10906 446,10788 420,10738 405,10735 393,10744 386,10777 387,10850 387,10914 432,10943 494,10939 580,10885 632,10828 644,10807 637,10808 634,10818 630,10854 620,10934 614,11008 629,11026 678,10999 732,10931 785,10893 807,10885 809,10901 809,10943 787,11008 794,11049 807,11055 825,11010 " style="fill: white; stroke: black; stroke-width: 30" />
<polyline points="850,10734 827,10738 832,10739 836,10745 847,10759 " style="fill: white; stroke: black; stroke-width: 30" />
<polyline points="1095,10941 1009,10953 940,10960 910,10978 901,10995 915,11031 936,11060 952,11078 955,11088 954,11095 954,11093 957,11088 " style="fill: white; stroke: black; stroke-width: 30" />
<polyline points="1171,10937 1166,10934 1158,10936 1142,10944 1128,10949 1108,10960 1110,10965 1116,10975 1118,11024 1111,11079 1107,11124 1081,11139 1062,11139 1033,11131 1026,11124 1044,11108 " style="fill: white; stroke: black; stroke-width: 30" />
<polyline points="1315,10911 1285,10948 1266,10997 1259,11048 1251,11093 1249,11135 1263,11127 " style="fill: white; stroke: black; stroke-width: 30" />
<polyline points="1346,10803 1325,10790 1309,10791 1309,10796 1313,10810 " style="fill: white; stroke: black; stroke-width: 30" />
<polyline points="1384,11025 1366,11018 1364,11007 1386,10996 1419,10989 1472,11001 1483,11019 1482,11047 1476,11061 " style="fill: white; stroke: black; stroke-width: 30" />
<polyline points="1672,10991 1638,10977 1604,10965 1566,10973 1563,11007 1575,11050 1600,11076 1611,11108 1605,11174 1576,11258 1547,11324 1536,11352 1533,11345 1526,11324 1539,11262 1560,11208 1579,11188 1607,11167 " style="fill: white; stroke: black; stroke-width: 30" />
<polyline points="2068,10947 2042,10921 2029,10914 2034,10915 2041,10917 2049,10926 2061,10934 2051,10938 2043,10927 2042,10922 2037,10920 2040,10923 2042,10926 " style="fill: white; stroke: black; stroke-width: 30" />
<polyline points="2086,11117 2083,11111 2084,11104 2082,11103 2090,11099 2089,11105 2085,11110 2089,11110 " style="fill: white; stroke: black; stroke-width: 30" />
<polyline points="2286,11265 2301,11258 2351,11226 2466,11143 2583,11013 2692,10895 2723,10838 2712,10830 2708,10833 2698,10847 2676,10903 2688,10981 2718,11075 2768,11169 2837,11242 " style="fill: white; stroke: black; stroke-width: 30" />
<polyline points="2433,11081 2433,11084 2476,11088 2629,11096 2779,11092 2927,11063 3035,11018 3088,10956 3087,10910 3061,10874 3000,10852 2937,10872 2902,10955 2904,11087 2943,11185 3002,11243 3061,11258 " style="fill: white; stroke: black; stroke-width: 30" />
<polyline points="3326,10872 3306,10867 3302,10869 3276,10901 3248,10987 3229,11092 3237,11169 3262,11215 3241,11225 " style="fill: white; stroke: black; stroke-width: 30" />
<polyline points="3191,11099 3153,11081 3166,11076 3178,11078 3229,11083 3307,11091 " style="fill: white; stroke: black; stroke-width: 30" />
<polyline points="665,11515 687,11476 726,11438 740,11425 742,11422 729,11424 708,11433 691,11463 645,11551 626,11640 622,11695 623,11702 629,11698 625,11697 624,11693 620,11691 620,11687 622,11685 619,11684 624,11683 664,11683 770,11683 884,11695 970,11715 1012,11731 1017,11740 " style="fill: white; stroke: black; stroke-width: 30" />
<polyline points="526,11419 487,11417 506,11415 575,11416 658,11419 775,11426 909,11441 " style="fill: white; stroke: black; stroke-width: 30" />
<polyline points="1126,11686 1122,11686 1113,11682 1099,11684 1104,11681 1127,11695 1179,11725 1203,11758 1202,11793 1172,11837 1141,11867 1110,11875 1093,11866 1075,11860 1075,11859 1080,11863 " style="fill: white; stroke: black; stroke-width: 30" />
<polyline points="1590,11639 1619,11639 1612,11672 1602,11748 1579,11830 1571,11878 1571,11890 1577,11869 1594,11773 1605,11621 1644,11510 1686,11476 1743,11502 1779,11589 1767,11674 1726,11721 1667,11727 1595,11694 1582,11665 1588,11642 1673,11607 1759,11621 1817,11662 1842,11716 1847,11768 1843,11812 1844,11821 1845,11813 1841,11786 1851,11729 1863,11675 1873,11653 1884,11651 1895,11662 1932,11682 1983,11710 2026,11721 2054,11720 2042,11716 2051,11716 2045,11721 2040,11734 2032,11766 2028,11825 2019,11886 " style="fill: white; stroke: black; stroke-width: 30" />
<polyline points="2068,11472 2049,11471 2061,11470 2060,11480 2090,11522 " style="fill: white; stroke: black; stroke-width: 30" />
<polyline points="2276,11690 2251,11684 2220,11694 2209,11717 2195,11785 2187,11842 2178,11882 2175,11893 2165,11890 2148,11872 2144,11848 2167,11823 " style="fill: white; stroke: black; stroke-width: 30" />
<polyline points="2419,11682 2396,11684 2370,11718 2326,11781 2317,11831 2310,11860 2328,11853 2348,11834 2368,11802 2386,11788 2391,11790 2401,11802 2422,11815 2415,11824 2411,11828 2433,11835 2449,11843 2457,11849 2456,11853 2446,11865 2461,11868 2462,11869 2465,11865 2454,11868 2463,11866 2457,11870 2466,11867 2458,11866 2460,11864 2470,11862 2474,11860 2465,11865 2468,11864 2469,11869 2484,11886 " style="fill: white; stroke: black; stroke-width: 30" />
<polyline points="2491,11826 2477,11828 2495,11821 2519,11813 2560,11794 2626,11771 2658,11775 2674,11780 2659,11798 2647,11820 2661,11841 " style="fill: white; stroke: black; stroke-width: 30" />
<polyline points="1710,12100 1696,12102 1703,12099 1710,12095 1758,12086 1821,12087 1920,12103 " style="fill: white; stroke: black; stroke-width: 30" />
<polyline points="1794,12126 1794,12127 1794,12141 1773,12174 1759,12215 1753,12253 1767,12287 1850,12313 1946,12325 2011,12329 2062,12316 2099,12304 2099,12304 " style="fill: white; stroke: black; stroke-width: 30" />
<polyline points="2073,12195 2063,12193 2069,12198 2110,12225 2171,12259 2205,12285 2207,12300 2158,12339 2096,12375 2086,12387 2085,12393 2104,12407 " style="fill: white; stroke: black; stroke-width: 30" />
<polyline points="2733,12188 2752,12152 2739,12139 2700,12127 2607,12139 2523,12180 2512,12201 2526,12233 2594,12277 2708,12301 2802,12308 2885,12302 2932,12277 2951,12248 2924,12241 2893,12247 2882,12255 2883,12270 2873,12280 2888,12279 2873,12283 2876,12281 2884,12276 2877,12276 2880,12268 2896,12251 2919,12211 2941,12186 2948,12177 2960,12182 2994,12200 " style="fill: white; stroke: black; stroke-width: 30" />
<polyline points="3190,12279 3170,12260 3137,12230 3094,12207 3043,12218 3022,12241 3048,12286 3122,12321 3183,12321 3229,12289 3210,12245 3184,12213 3166,12205 3174,12207 3188,12232 3233,12265 3267,12281 3308,12269 3319,12244 3312,12236 3302,12239 3314,12263 3318,12308 3353,12334 3407,12322 3446,12284 3446,12259 3448,12256 3445,12264 3459,12293 3494,12320 3513,12330 3515,12319 3503,12296 3501,12278 3519,12276 3552,12283 " style="fill: white; stroke: black; stroke-width: 30" />
<polyline points="3733,12232 3726,12245 3737,12245 3727,12250 3732,12249 3734,12254 " style="fill: white; stroke: black; stroke-width: 30" />
<polyline points="3744,12259 3750,12254 3736,12253 3736,12245 3726,12234 3696,12231 3640,12256 3597,12305 3578,12340 3620,12356 3667,12357 3754,12312 3851,12224 3907,12157 3914,12129 3893,12122 3857,12132 3851,12146 3840,12204 3824,12298 3849,12387 3889,12459 " style="fill: white; stroke: black; stroke-width: 30" />
<polyline points="2524,12595 2509,12592 2500,12585 2504,12582 2510,12575 2508,12575 2532,12570 2605,12559 2695,12545 2773,12529 2788,12530 " style="fill: white; stroke: black; stroke-width: 30" />
<polyline points="2620,12570 2605,12572 2611,12579 2604,12628 2583,12699 2572,12759 2576,12792 2586,12818 2585,12825 2587,12825 2587,12821 2594,12819 2586,12817 2596,12816 2616,12812 2693,12802 2762,12787 2840,12780 2881,12779 2899,12777 2894,12777 2891,12777 2883,12777 2894,12776 2893,12774 2884,12777 2894,12776 2900,12781 " style="fill: white; stroke: black; stroke-width: 30" />
<polyline points="2941,12711 2920,12710 2912,12708 2923,12709 2960,12714 2990,12730 3047,12743 3070,12764 3076,12778 3056,12793 3041,12807 3002,12828 2958,12842 2933,12846 2908,12851 2908,12851 2905,12848 2917,12845 2929,12841 " style="fill: white; stroke: black; stroke-width: 30" />
<polyline points="3356,12641 3334,12634 3337,12637 3322,12701 3311,12821 3309,12888 3304,12901 3308,12885 3298,12803 3285,12711 3280,12630 3286,12601 3341,12581 3393,12601 3422,12630 3434,12655 3406,12677 3324,12707 3244,12706 3205,12696 3204,12691 3217,12692 3253,12700 3314,12711 3348,12721 3362,12724 3355,12725 3348,12729 3348,12731 3343,12731 3338,12731 3343,12742 3359,12791 3389,12848 3409,12881 3425,12894 " style="fill: white; stroke: black; stroke-width: 30" />
<polyline points="3518,12710 3498,12705 3490,12707 3481,12743 3480,12796 3491,12837 3492,12842 3490,12835 3486,12800 3492,12732 3499,12697 3499,12699 3535,12704 3568,12719 3597,12735 3645,12744 3665,12747 3650,12753 3655,12750 3636,12760 3632,12775 3623,12807 3617,12828 3627,12833 " style="fill: white; stroke: black; stroke-width: 30" />
<polyline points="3761,12578 3735,12572 3739,12564 3731,12565 3733,12563 3723,12566 3731,12564 3728,12566 3726,12567 3737,12570 " style="fill: white; stroke: black; stroke-width: 30" />
<polyline points="3821,12698 3799,12689 3793,12695 3815,12715 3825,12784 3847,12849 3841,12894 3815,12909 3788,12901 3746,12880 3733,12862 3735,12859 3788,12835 3878,12807 " style="fill: white; stroke: black; stroke-width: 30" />
<polyline points="4025,12730 3998,12733 3973,12757 3937,12819 3919,12861 3938,12878 3932,12878 3957,12860 3975,12845 4005,12844 4018,12869 4036,12899 4081,12909 4094,12914 4083,12915 4073,12921 4081,12920 4095,12920 4118,12922 " style="fill: white; stroke: black; stroke-width: 30" />
<polyline points="3408,12981 3402,12978 3403,12974 3380,12978 3299,13008 3228,13077 3203,13120 3258,13159 3376,13176 3539,13129 3660,13061 " style="fill: white; stroke: black; stroke-width: 30" />
<polyline points="3684,12959 3641,12961 3614,12972 3588,13006 3574,13055 3583,13089 3588,13099 3606,13103 3644,13111 3670,13125 3672,13135 3668,13140 3680,13143 " style="fill: white; stroke: black; stroke-width: 30" />
<polyline points="3836,13153 3866,13134 3877,13104 3880,13075 3821,13063 3728,13097 3718,13130 3762,13179 3838,13221 3918,13234 " style="fill: white; stroke: black; stroke-width: 30" />
<polyline points="4024,13153 4023,13149 4016,13136 4019,13118 4004,13108 3956,13116 3955,13139 3934,13182 3946,13215 3992,13225 4057,13188 4099,13130 4154,13063 4190,13024 4203,13011 4207,13015 4176,13032 4129,13073 4100,13124 4063,13178 4064,13194 4083,13208 4084,13213 4100,13208 4115,13201 4131,13189 4147,13167 4146,13155 4155,13148 4158,13148 4164,13147 4216,13141 4245,13134 4254,13125 4248,13108 4205,13098 4150,13104 4125,13124 4133,13158 4147,13202 4193,13240 4261,13255 " style="fill: white; stroke: black; stroke-width: 30" />

</svg>