<?xml version="1.0" standalone="no"?>
<!DOCTYPE svg PUBLIC "-//W3C//DTD SVG 1.1//EN" "http://www.w3.org/Graphics/SVG/1.1/DTD/svg11.dtd">
<svg width="210mm" height="297mm" viewBox="-7000 500 14000 20000" version="1.1" xmlns="http://www.w3.org/2000/svg">

<polyline points="-3088,1769 -3091,1754 -3098,1755 -3123,1753 -3185,1767 -3247,1807 -3282,1859 -3292,1941 -3265,2027 -3213,2106 -3167,2185 -3152,2247 -3160,2281 -3172,2286 -3202,2277 -3250,2238 -2933,2184 -2969,2311 -3001,2389 -3011,2431 -3011,2430 -2999,2383 -2970,2275 -2923,2136 -2854,2034 -2789,1977 -2736,1978 -2710,2023 -2715,2085 -2747,2149 -2793,2176 -2830,2177 -2856,2155 -2865,2122 -2857,2088 " style="fill: white; stroke: black; stroke-width: 30" />
<polyline points="-2540,2128 -2526,2099 -2508,2055 -2496,2017 -2492,1995 -2495,1979 -2503,1973 -2525,1975 -2562,1996 -2586,2040 -2594,2102 -2576,2142 -2537,2163 -2477,2161 -2399,2116 -2350,2068 " style="fill: white; stroke: black; stroke-width: 30" />
<polyline points="-2231,1982 -2264,1970 -2315,1978 -2361,2007 -2374,2046 -2359,2089 -2312,2131 -2253,2143 -2203,2113 -2152,2058 -2110,1998 -2079,1941 -2043,1879 -2020,1828 -2004,1786 -2004,1769 -2008,1757 -2014,1756 -2020,1761 -2023,1766 -2030,1785 -2035,1806 -2040,1850 -2063,1910 -2083,1990 -2090,2036 -2085,2056 -2081,2052 -2050,2042 -2010,2015 -1985,1984 -1962,1946 -1954,1918 -1953,1901 -1955,1890 -1956,1876 -1960,1875 -1956,1876 -1957,1875 -1961,1876 -1960,1876 -1960,1876 -1962,1880 -1961,1880 -1961,1880 -1962,1883 -1961,1882 -1962,1880 -1961,1883 -1959,1881 -1958,1879 -1958,1883 -1958,1881 -1958,1879 -1959,1881 -1957,1880 -1956,1877 -1958,1878 -1956,1877 -1956,1876 -1958,1878 -1958,1879 -1958,1876 -1961,1879 -1956,1877 -1951,1858 -1927,1794 -1887,1708 -1864,1643 -1858,1624 -1858,1623 -1860,1627 -1866,1634 -1878,1663 -1903,1724 -1927,1798 -1961,1901 -1974,2029 -1978,2144 -1968,2221 -1964,2247 " style="fill: white; stroke: black; stroke-width: 30" />
<polyline points="-3064,2695 -3037,2665 -3031,2679 -3016,2751 -2999,2838 -2977,2924 -2954,2993 -2934,3034 -2933,3037 -2964,3023 -3036,2993 -3119,2933 -3175,2871 -3180,2850 -3168,2843 -3104,2857 -3002,2884 -2874,2902 -2737,2908 -2636,2924 -2599,2979 -2610,3055 -2631,3105 -2633,3109 -2621,3075 -2584,3002 -2535,2943 -2502,2923 -2486,2928 -2469,2951 -2452,2979 -2432,2989 -2405,2997 -2390,3008 -2376,3020 -2371,3020 -2358,3021 -2335,3011 -2324,3014 " style="fill: white; stroke: black; stroke-width: 30" />
<polyline points="-2211,2919 -2236,3008 -2267,3120 -2280,3211 -2275,3268 -2272,3275 -2270,3261 -2257,3208 -2250,3106 -2234,2990 -2198,2903 -2158,2869 -2119,2882 -2098,2926 -2100,2980 -2121,3022 -2151,3042 -2191,3040 -2219,3020 -2232,2975 -2203,2917 -2109,2830 -1997,2724 -1889,2607 -1844,2542 -1857,2556 -1906,2642 -1975,2798 -2007,2913 -1999,2976 -1990,2985 -1970,2979 -1927,2978 -1891,3002 -1862,3017 -1822,3012 -1784,2995 -1766,2962 -1777,2944 -1802,2950 -1831,2972 -1838,2999 -1828,3027 -1802,3044 -1757,3050 " style="fill: white; stroke: black; stroke-width: 30" />
<polyline points="-1499,2517 -1497,2519 -1502,2540 -1518,2617 -1569,2737 -1608,2838 -1625,2904 -1629,2922 -1621,2905 -1608,2866 -1598,2848 -1592,2842 -1574,2839 -1517,2834 -1457,2817 -1422,2799 " style="fill: white; stroke: black; stroke-width: 30" />
<polyline points="-1382,2796 -1383,2801 -1386,2808 -1391,2831 -1418,2876 -1453,2922 -1470,2940 -1472,2939 -1469,2928 -1465,2917 -1458,2904 -1450,2899 -1435,2902 -1403,2910 -1348,2904 -1297,2899 -1285,2903 -1287,2911 -1292,2925 -1294,2935 -1287,2932 -1265,2928 -1230,2940 -1213,2953 -1190,2967 -1157,2974 -1120,2962 -1080,2946 -1064,2943 -1073,2949 -1084,2967 -1083,2992 -1066,3002 -1048,2998 -1019,2990 -1004,2974 -999,2959 -992,2927 -981,2877 -979,2858 -982,2861 -992,2881 -1010,2918 -1027,2956 -1031,2975 -1026,2970 " style="fill: white; stroke: black; stroke-width: 30" />
<polyline points="-960,2789 -956,2741 -952,2711 -954,2704 -955,2708 -955,2744 -935,2806 -855,2869 -779,2920 -763,2962 -798,3010 -825,3044 -829,3054 -821,3053 -811,3051 -809,3051 " style="fill: white; stroke: black; stroke-width: 30" />
<polyline points="-2689,3849 -2690,3850 -2706,3897 -2747,4022 -2792,4143 -2774,4207 -2686,4244 -2497,4243 -2288,4215 -2133,4192 " style="fill: white; stroke: black; stroke-width: 30" />
<polyline points="-2728,3688 -2747,3666 -2733,3666 -2663,3661 -2512,3667 -2314,3673 -2106,3675 " style="fill: white; stroke: black; stroke-width: 30" />
<polyline points="-1913,4413 -1954,4448 -1996,4467 " style="fill: white; stroke: black; stroke-width: 30" />
<polyline points="-672,3887 -681,3896 -686,3969 -710,4083 -741,4181 -743,4231 -724,4237 " style="fill: white; stroke: black; stroke-width: 30" />
<polyline points="-670,4027 -681,3897 -670,3806 -636,3764 -582,3779 -484,3864 -407,3990 -377,4105 -395,4198 -461,4256 -546,4283 -635,4263 -693,4212 -697,4177 -672,4160 -575,4137 -434,4096 -307,4040 -201,4014 -155,4036 -153,4086 -175,4144 -195,4186 -193,4190 -170,4181 -103,4177 -59,4189 -45,4212 -39,4233 -29,4234 3,4226 " style="fill: white; stroke: black; stroke-width: 30" />
<polyline points="273,3647 191,3653 87,3709 -75,3803 -310,3933 -615,4114 -966,4315 -1174,4251 " style="fill: white; stroke: black; stroke-width: 30" />
<polyline points="1062,3903 1057,3882 1048,3865 1039,3860 1035,3859 1035,3856 1032,3854 1034,3856 1034,3855 1033,3853 1030,3854 1026,3854 1019,3862 1001,3927 986,4018 988,4099 1008,4145 1039,4152 1083,4119 " style="fill: white; stroke: black; stroke-width: 30" />
<polyline points="1106,3558 1102,3517 1097,3515 1100,3538 1105,3573 1113,3603 1104,3619 1093,3632 1086,3633 1086,3630 1088,3629 1101,3608 1119,3573 1138,3582 " style="fill: white; stroke: black; stroke-width: 30" />
<polyline points="1373,3912 1339,3897 1305,3916 1260,3986 1211,4065 1198,4108 1214,4107 1295,4078 1418,4015 1505,3954 1564,3904 1571,3884 1562,3879 1559,3880 1553,3889 1542,3926 1530,3989 1524,4029 1536,4042 1572,4043 1607,4030 1623,4021 1626,4022 1624,4020 1636,4011 1668,4003 1687,4009 1694,4031 " style="fill: white; stroke: black; stroke-width: 30" />
<polyline points="-820,4943 -779,4948 -739,4942 -707,4942 -686,4948 -677,4971 -657,5005 -619,5027 -553,5034 -465,5023 -400,4993 -376,4958 -375,4915 -388,4885 -403,4868 -403,4857 -394,4833 -373,4807 -348,4796 -322,4800 -307,4809 -294,4822 -273,4820 -240,4810 " style="fill: white; stroke: black; stroke-width: 30" />
<polyline points="-88,4755 -94,4747 -102,4739 -108,4732 -120,4733 -131,4738 -154,4771 -178,4826 -177,4869 -160,4902 -124,4926 -74,4930 -22,4915 24,4902 42,4902 48,4915 55,4933 58,4944 61,4951 80,4952 " style="fill: white; stroke: black; stroke-width: 30" />
<polyline points="40,4636 23,4635 20,4634 36,4636 " style="fill: white; stroke: black; stroke-width: 30" />
<polyline points="319,4948 307,4915 306,4857 314,4802 332,4760 374,4739 " style="fill: white; stroke: black; stroke-width: 30" />
<polyline points="449,4865 432,4892 435,4909 459,4917 493,4910 534,4880 581,4825 633,4756 675,4681 704,4608 706,4580 698,4586 671,4634 637,4724 634,4805 655,4871 706,4912 791,4916 853,4883 877,4847 869,4835 841,4835 807,4862 798,4881 814,4899 854,4914 923,4924 1015,4931 1067,4943 1080,4944 1076,4942 1069,4938 1060,4920 1063,4891 1070,4859 1083,4819 1095,4786 1096,4779 1092,4779 1091,4781 " style="fill: white; stroke: black; stroke-width: 30" />
<polyline points="2098,4887 2119,4854 2146,4812 2150,4757 2130,4711 2077,4696 2001,4714 1925,4774 1887,4842 1891,4898 1928,4935 2010,4925 2129,4863 2220,4787 2275,4719 2295,4671 2296,4630 2280,4613 2265,4609 2246,4623 2206,4679 2188,4747 2208,4821 2244,4877 2306,4912 " style="fill: white; stroke: black; stroke-width: 30" />
<polyline points="2580,4822 2549,4895 2514,4940 2471,4951 2443,4935 2439,4911 2454,4897 2526,4862 2609,4835 2716,4813 2847,4779 2936,4757 2940,4753 2924,4754 2891,4764 2872,4791 2866,4851 2857,4940 2849,5008 2837,5051 2832,5055 2830,5051 2820,5036 2803,5000 " style="fill: white; stroke: black; stroke-width: 30" />
<polyline points="-696,5623 -701,5616 -712,5615 -723,5614 -734,5619 -755,5635 -774,5676 -783,5731 -755,5799 -696,5845 -600,5866 -507,5844 -435,5804 -402,5764 -407,5722 -429,5688 -453,5676 -483,5678 -487,5687 -480,5713 -439,5741 -363,5754 -267,5754 -187,5749 -129,5740 -85,5741 -58,5735 -29,5716 -8,5686 -3,5649 -20,5615 -51,5591 -95,5595 -146,5629 -168,5680 -151,5734 -95,5788 -30,5824 25,5827 67,5794 90,5740 111,5679 115,5647 " style="fill: white; stroke: black; stroke-width: 30" />
<polyline points="455,5797 410,5838 363,5853 312,5839 297,5805 300,5773 343,5748 413,5748 477,5767 536,5792 599,5800 665,5809 " style="fill: white; stroke: black; stroke-width: 30" />
<polyline points="884,5435 876,5420 850,5431 791,5506 742,5612 726,5708 740,5779 750,5803 757,5812 762,5814 771,5810 796,5783 821,5744 845,5712 872,5705 907,5731 927,5773 930,5822 910,5857 877,5877 837,5883 794,5863 755,5807 744,5747 744,5503 " style="fill: white; stroke: black; stroke-width: 30" />
<polyline points="1293,5684 1339,5695 1395,5700 1433,5700 1450,5691 1450,5679 1439,5671 1406,5661 1351,5677 1304,5715 1305,5743 1331,5778 1395,5806 1472,5815 1542,5799 1578,5783 1580,5777 1577,5779 1570,5790 1564,5814 1554,5843 1547,5873 1558,5889 1583,5889 " style="fill: white; stroke: black; stroke-width: 30" />
<polyline points="1765,5845 1805,5839 1897,5799 2014,5736 2122,5653 2197,5572 2215,5519 2209,5508 2196,5520 2167,5580 2160,5633 2174,5673 2203,5719 2224,5754 2251,5769 2285,5771 2361,5751 2470,5702 2602,5615 2737,5516 2820,5444 2853,5397 2855,5389 2808,5429 2711,5509 2646,5584 2619,5637 2618,5654 2617,5652 2622,5641 2669,5616 2763,5590 2885,5573 " style="fill: white; stroke: black; stroke-width: 30" />
<polyline points="-584,6392 -558,6360 -544,6355 -529,6376 -501,6442 -483,6519 -484,6589 -495,6653 -512,6691 -520,6702 -517,6693 -483,6633 -423,6565 -338,6518 -269,6512 -236,6537 -232,6579 -265,6636 -315,6676 -370,6695 -420,6691 -448,6664 -457,6631 -434,6603 -359,6577 -251,6565 -136,6554 -16,6527 73,6505 100,6487 92,6479 48,6480 -9,6513 -29,6567 -15,6620 39,6661 129,6670 " style="fill: white; stroke: black; stroke-width: 30" />
<polyline points="489,6243 426,6369 379,6486 366,6561 381,6598 413,6608 500,6570 589,6498 656,6446 668,6427 642,6429 573,6448 500,6481 443,6531 437,6577 476,6615 542,6634 632,6618 720,6590 801,6546 834,6508 821,6486 800,6467 789,6445 802,6424 839,6421 873,6448 889,6490 869,6535 838,6563 801,6575 766,6562 743,6527 739,6467 " style="fill: white; stroke: black; stroke-width: 30" />
<polyline points="1186,6506 1174,6546 1173,6548 1182,6537 1210,6506 1243,6483 1264,6479 1265,6484 1283,6497 1297,6515 1319,6524 1350,6527 1386,6526 1403,6522 1411,6521 1412,6525 1415,6528 1425,6531 1435,6537 1476,6531 1514,6519 1568,6504 1643,6489 1710,6483 1740,6483 1742,6479 1728,6479 1722,6483 1730,6480 1746,6473 1804,6459 1872,6434 1909,6405 1928,6381 1939,6363 1966,6341 1996,6327 2008,6324 1988,6335 1951,6362 1917,6404 1904,6456 1903,6523 1919,6581 1961,6619 2048,6628 2198,6601 2341,6566 2435,6544 2466,6542 2466,6551 2470,6574 2465,6608 2458,6655 2386,6508 " style="fill: white; stroke: black; stroke-width: 30" />
<polyline points="-2123,7989 -2115,7973 -2122,7959 -2131,7945 -2142,7940 -2178,7937 -2226,7953 -2283,7996 -2323,8059 -2316,8127 -2280,8204 -2219,8249 -2130,8265 -2054,8256 -1991,8236 -1964,8220 -1965,8216 -1971,8193 -1969,8121 -1967,8041 -1960,7995 -1955,7963 -1951,7957 -1950,7956 -1924,7963 -1867,7985 -1788,8014 -1714,8042 -1635,8059 -1583,8062 -1547,8047 -1534,8023 -1534,7981 -1565,7941 -1600,7932 -1627,7945 -1662,8009 -1674,8077 -1642,8121 -1593,8154 -1508,8152 -1408,8119 -1340,8075 -1322,8045 -1328,8040 -1336,8043 -1342,8046 -1335,8043 -1314,8030 -1279,8002 -1250,7958 -1238,7929 -1236,7926 -1250,7933 -1290,7971 -1329,8030 -1328,8078 -1308,8116 -1263,8149 -1202,8159 -1116,8148 -1037,8132 -979,8102 -950,8069 -951,8045 -968,8034 -998,8025 -1048,8045 -1090,8083 -1112,8129 -1112,8167 -1082,8199 -1036,8222 -957,8228 -857,8197 -763,8131 -692,8051 -673,7959 -672,7845 -691,7769 -709,7735 -717,7728 -719,7731 -721,7734 -720,7744 -722,7763 -726,7790 -728,7834 -745,7899 -758,7979 -754,8075 -738,8170 -691,8247 -624,8310 -531,8114 " style="fill: white; stroke: black; stroke-width: 30" />
<polyline points="-1969,8818 -1962,8792 -1962,8787 -1972,8787 -1983,8799 -1994,8823 -2001,8865 -2008,8889 -1994,8922 -1964,8988 -1933,9094 -1931,9189 -1917,9266 -1899,9334 -1881,9389 -1874,9437 -1850,9460 -1854,9460 -1854,9460 -1848,9461 -1855,9459 -1862,9456 -1849,9456 -1798,9445 -1724,9433 -1635,9426 -1545,9409 -1462,9397 -1405,9398 -1393,9404 -1397,9404 " style="fill: white; stroke: black; stroke-width: 30" />
<polyline points="-2169,8771 -2182,8763 -2186,8759 -2193,8756 -2199,8758 -2199,8758 -2190,8758 -2168,8760 -2080,8767 -1959,8786 -1841,8810 -1750,8833 -1669,8857 " style="fill: white; stroke: black; stroke-width: 30" />
<polyline points="-1396,9147 -1391,9154 -1354,9170 -1319,9199 -1283,9237 -1276,9293 -1283,9364 -1325,9458 -1378,9532 -1419,9570 " style="fill: white; stroke: black; stroke-width: 30" />
<polyline points="-463,8791 -478,8802 -485,8867 -502,8992 -510,9130 -544,9240 -559,9321 -567,9357 -561,9350 -544,9273 -529,9139 -513,8978 -477,8864 -438,8807 -383,8802 -336,8837 -309,8901 -329,8981 -367,9043 -426,9090 -497,9115 -576,9111 -614,9096 -633,9082 -607,9079 " style="fill: white; stroke: black; stroke-width: 30" />
<polyline points="-49,9276 -81,9344 -114,9380 -148,9399 -176,9401 -206,9384 -225,9344 -250,9289 -238,9245 -213,9224 -170,9229 -112,9266 -60,9316 -27,9343 7,9361 50,9146 " style="fill: white; stroke: black; stroke-width: 30" />
<polyline points="-134,8833 -146,8836 -138,8851 -116,8893 -66,8941 5,8993 79,9065 " style="fill: white; stroke: black; stroke-width: 30" />
<polyline points="116,9326 120,9344 131,9375 145,9397 156,9399 161,9392 170,9349 200,9267 230,9214 249,9183 276,9166 341,9151 " style="fill: white; stroke: black; stroke-width: 30" />
<polyline points="672,8810 626,8808 592,8854 561,8973 518,9136 496,9271 485,9376 492,9400 521,9387 " style="fill: white; stroke: black; stroke-width: 30" />
<polyline points="645,9393 770,9340 899,9247 1007,9141 1036,9085 1034,9066 1016,9060 983,9066 944,9109 918,9188 900,9271 909,9335 933,9379 958,9416 982,9430 1016,9433 1095,9408 1172,9376 1240,9355 1280,9330 1296,9311 1290,9305 1296,9301 1287,9303 1281,9320 1262,9369 1251,9424 1260,9468 1283,9473 1343,9453 " style="fill: white; stroke: black; stroke-width: 30" />
<polyline points="1442,9103 1397,9044 1352,9010 1337,8984 1353,8968 1388,8932 1466,8904 " style="fill: white; stroke: black; stroke-width: 30" />
<polyline points="-272,9997 -236,9980 -172,9965 -85,9962 -4,9955 99,9946 189,9938 " style="fill: white; stroke: black; stroke-width: 30" />
<polyline points="0,9988 -17,10024 -15,10071 -33,10152 -37,10270 -25,10359 9,10416 74,10442 167,10446 282,10436 384,10420 450,10398 509,10357 " style="fill: white; stroke: black; stroke-width: 30" />
<polyline points="1460,9894 1462,9896 1445,9950 1417,10076 1387,10206 1385,10296 1379,10337 1397,10341 1391,10325 1393,10243 1418,10121 1461,10023 1541,9958 1608,9947 1632,9964 1620,10004 1551,10065 1439,10121 1350,10149 1284,10150 1250,10130 1250,10113 1315,10084 " style="fill: white; stroke: black; stroke-width: 30" />
<polyline points="1743,10229 1725,10255 1715,10283 1700,10304 1701,10310 1700,10303 1727,10259 1774,10188 1808,10119 1838,10072 1856,10039 1879,10026 1895,10044 1915,10087 " style="fill: white; stroke: black; stroke-width: 30" />
<polyline points="1911,10264 1922,10304 1976,10328 2049,10324 2111,10291 2144,10239 2156,10180 2139,10135 2122,10124 2122,10124 2122,10133 2136,10155 2142,10213 2150,10268 2171,10330 2193,10376 2215,10412 2239,10440 " style="fill: white; stroke: black; stroke-width: 30" />
<polyline points="1983,9870 2013,9871 2061,9896 2154,9946 2190,9796 " style="fill: white; stroke: black; stroke-width: 30" />
<polyline points="1308,11185 1311,11187 1343,11131 " style="fill: white; stroke: black; stroke-width: 30" />
<polyline points="1388,10860 1385,10700 1399,10581 1410,10531 1419,10531 1467,10568 1531,10664 1554,10763 1543,10840 1496,10893 1403,10929 1304,10944 1232,10921 1214,10908 1234,10903 1324,10878 " style="fill: white; stroke: black; stroke-width: 30" />
<polyline points="1845,10931 1834,10890 1836,10838 1857,10801 1878,10795 1904,10828 1932,10903 1911,11001 1879,11070 1816,11125 1770,11142 1740,11130 1734,11087 1774,11014 1835,10949 1893,10925 1965,10919 2029,10924 2085,10923 2150,10910 2241,10849 2299,10754 2354,10679 2355,10643 2356,10626 2347,10626 2344,10643 2304,10736 2267,10863 2234,10959 2233,10996 2227,11003 2225,11001 2233,10986 2264,10945 2318,10876 2349,10825 2369,10807 2422,10797 2466,10812 2539,10839 2625,10868 2718,10882 2760,10898 2771,10896 2738,10918 2706,10953 2690,10979 2698,10985 2668,10786 " style="fill: white; stroke: black; stroke-width: 30" />
<polyline points="2915,10476 2900,10474 2892,10495 2885,10569 2870,10687 2858,10794 2828,10879 2814,10932 2814,10942 2816,10941 2833,10937 2868,10912 2932,10880 2968,10870 2994,10872 3020,10884 3054,10900 3043,10927 3039,10954 " style="fill: white; stroke: black; stroke-width: 30" />
<polyline points="3411,10864 3413,10855 3395,10843 3358,10837 3303,10856 3265,10903 3274,10964 3324,11013 3386,11045 3465,11057 3556,11032 3605,10981 3613,10919 3580,10867 3535,10817 3483,10786 3459,10771 3448,10781 " style="fill: white; stroke: black; stroke-width: 30" />
<polyline points="2202,11236 2224,11254 2224,11348 2236,11461 2241,11572 2255,11657 2289,11722 2284,11784 2307,11819 2315,11846 2310,11855 2311,11852 2272,11859 2194,11867 2086,11866 1956,11856 1799,11847 1690,11837 1634,11830 1624,11829 1622,11827 1642,11821 " style="fill: white; stroke: black; stroke-width: 30" />
<polyline points="1656,11593 1633,11578 1635,11572 1618,11580 1578,11616 1538,11654 1527,11679 1525,11695 1536,11713 1566,11735 1625,11765 1709,11793 1785,11810 " style="fill: white; stroke: black; stroke-width: 30" />
<polyline points="1951,11177 1953,11174 1978,11179 1990,11194 2004,11214 2051,11228 2119,11246 2193,11268 " style="fill: white; stroke: black; stroke-width: 30" />
<polyline points="-2018,11418 -2018,11446 -2022,11506 -2007,11578 -1966,11660 -1905,11723 -1842,11747 -1751,11736 -1642,11670 -1573,11594 -1559,11537 -1590,11486 -1609,11449 -1629,11428 -1632,11422 " style="fill: white; stroke: black; stroke-width: 30" />
<polyline points="-1266,11606 -1285,11593 -1355,11588 -1406,11619 -1435,11675 -1412,11724 -1369,11751 -1317,11747 -1265,11719 -1249,11676 -1248,11643 -1268,11621 -1295,11627 -1299,11642 -1307,11653 " style="fill: white; stroke: black; stroke-width: 30" />
<polyline points="-986,11623 -990,11622 -999,11625 -1027,11644 -1083,11697 -1115,11752 -1112,11787 -1107,11788 -1074,11766 -1025,11722 -970,11651 -904,11571 -854,11512 -835,11504 -833,11528 -819,11608 -819,11707 -800,11766 -779,11779 -726,11793 -667,11811 -649,11815 " style="fill: white; stroke: black; stroke-width: 30" />
<polyline points="-1708,12162 -1661,12098 -1653,12055 -1696,12026 -1765,12033 -1829,12086 -1850,12227 -1791,12251 -1699,12235 -1573,12179 -1456,12143 -1394,12150 -1364,12193 -1356,12247 -1359,12278 -1350,12284 -1344,12268 -1342,12204 -1330,12093 -1330,11967 -1329,11921 -1351,11908 -1358,11913 -1384,11935 -1391,11981 -1373,12044 " style="fill: white; stroke: black; stroke-width: 30" />
<polyline points="-1196,12194 -1170,12235 -1175,12242 -1167,12230 -1123,12215 -1100,12217 -1082,12244 -1068,12282 -1065,12292 -1037,12295 " style="fill: white; stroke: black; stroke-width: 30" />
<polyline points="-1973,12755 -1963,12785 -1912,12795 -1837,12758 -1771,12690 -1736,12650 -1726,12649 -1712,12671 -1703,12712 -1674,12754 -1640,12783 -1595,12795 -1525,12785 -1475,12740 -1449,12683 -1449,12632 -1467,12602 -1484,12601 -1482,12608 -1485,12611 -1480,12613 " style="fill: white; stroke: black; stroke-width: 30" />
<polyline points="-1298,12629 -1239,12641 -1186,12646 -1154,12634 -1133,12617 -1133,12591 -1133,12560 -1181,12533 -1219,12533 -1246,12559 -1265,12607 -1276,12668 -1257,12721 -1216,12753 -1174,12748 -1092,12699 -1020,12615 -936,12544 -873,12502 -829,12511 -797,12562 -775,12629 -761,12676 -750,12696 -740,12699 -716,12694 -658,12650 -582,12596 -528,12557 -468,12536 -433,12546 -418,12599 -425,12683 -440,12749 -450,12777 -448,12769 -424,12700 -408,12368 " style="fill: white; stroke: black; stroke-width: 30" />
<polyline points="-354,12270 -362,12226 -380,12216 -396,12221 " style="fill: white; stroke: black; stroke-width: 30" />
<polyline points="-147,12604 -62,12652 9,12707 72,12784 92,12869 87,12924 60,12945 -5,12950 -66,12924 " style="fill: white; stroke: black; stroke-width: 30" />
<polyline points="1206,12452 1253,12444 1262,12442 1271,12435 1261,12426 1233,12411 1189,12402 1121,12429 1076,12481 1054,12542 1055,12601 1083,12652 1106,12698 1115,12745 1093,12769 1069,12779 1035,12778 956,12761 900,12716 860,12661 855,12593 887,12540 " style="fill: white; stroke: black; stroke-width: 30" />
<polyline points="1484,12563 1497,12533 1517,12494 1516,12468 1523,12445 1525,12446 1532,12459 1569,12511 1592,12560 1604,12598 1582,12633 1553,12658 1510,12663 1425,12646 1369,12594 1347,12551 1330,12521 1357,12480 1397,12430 " style="fill: white; stroke: black; stroke-width: 30" />
<polyline points="1850,12479 1890,12451 1947,12444 2010,12471 2089,12505 2122,12547 2123,12594 2110,12636 2103,12655 2103,12655 2125,12634 2159,12576 2210,12525 2258,12489 2314,12461 2372,12451 2392,12466 2397,12507 2389,12566 2377,12609 2376,12621 2367,12628 2377,12625 2395,12616 2453,12592 2531,12554 2662,12496 2819,12429 2895,12368 2933,12324 2903,12315 2878,12315 2821,12350 2770,12423 2767,12490 2793,12554 2870,12602 2980,12642 3125,12675 " style="fill: white; stroke: black; stroke-width: 30" />

</svg>