<?xml version="1.0" standalone="no"?>
<!DOCTYPE svg PUBLIC "-//W3C//DTD SVG 1.1//EN" "http://www.w3.org/Graphics/SVG/1.1/DTD/svg11.dtd">
<svg width="210mm" height="297mm" viewBox="-7000 500 14000 20000" version="1.1" xmlns="http://www.w3.org/2000/svg">

<polyline points="-3122,1218 -3117,1206 -3113,1186 -3108,1156 -3116,1117 -3136,1071 -3171,1058 -3231,1072 -3282,1102 -3310,1150 -3306,1225 -3272,1302 -3214,1380 -3166,1450 -3140,1512 -3147,1553 -3167,1586 -3213,1585 -3250,1570 -3289,1542 -3313,1509 -3325,1492 " style="fill: white; stroke: black; stroke-width: 30" />
<polyline points="-2990,1543 -2966,1570 -2930,1581 -2882,1566 -2832,1520 -2778,1447 -2733,1354 -2703,1283 -2691,1242 -2693,1228 -2697,1229 -2701,1240 -2729,1297 -2753,1376 -2758,1442 -2737,1490 -2707,1519 -2681,1529 -2649,1525 -2588,1485 -2539,1463 -2514,1469 -2499,1497 -2501,1532 " style="fill: white; stroke: black; stroke-width: 30" />
<polyline points="-2424,1553 -2422,1553 -2418,1544 -2404,1517 -2380,1474 -2348,1438 -2326,1420 -2318,1425 -2294,1445 -2284,1474 -2282,1512 -2277,1524 -2273,1523 -2264,1518 -2220,1487 -2175,1463 -2142,1450 -2123,1451 -2108,1468 -2105,1501 -2104,1536 -2103,1544 -2098,1543 -2071,1533 -2033,1512 -1909,1486 -1923,1527 -1928,1551 -1926,1550 " style="fill: white; stroke: black; stroke-width: 30" />
<polyline points="-1765,1214 -1771,1187 -1776,1178 -1786,1166 " style="fill: white; stroke: black; stroke-width: 30" />
<polyline points="-1503,1323 -1545,1337 -1572,1362 -1578,1388 -1578,1433 -1570,1482 -1569,1524 -1580,1552 -1587,1554 -1594,1550 -1619,1533 -1625,1517 -1631,1500 -1616,1480 -1562,1440 -1478,1396 -1384,1348 -1320,1304 -1298,1290 -1305,1306 -1320,1345 -1343,1409 -1365,1476 -1382,1521 -1402,1543 -1425,1548 -1443,1542 -1455,1527 " style="fill: white; stroke: black; stroke-width: 30" />
<polyline points="-404,1493 -361,1535 -275,1552 -181,1529 -128,1488 -110,1446 -113,1419 -128,1411 -136,1411 -145,1417 -137,1426 -89,1449 -22,1465 64,1466 139,1445 195,1431 206,1423 202,1424 189,1433 176,1442 175,1441 177,1443 181,1439 182,1434 181,1433 184,1423 196,1393 223,1348 250,1318 284,1308 316,1320 351,1359 358,1417 336,1482 302,1522 259,1541 236,1536 204,1498 194,1444 206,1406 239,1375 298,1364 " style="fill: white; stroke: black; stroke-width: 30" />
<polyline points="1642,1233 1646,1238 1643,1237 1643,1237 1643,1236 1642,1234 1641,1234 1637,1235 1635,1233 1633,1267 1626,1330 1617,1385 1613,1436 1614,1470 1615,1499 1621,1524 1625,1543 1625,1542 " style="fill: white; stroke: black; stroke-width: 30" />
<polyline points="1384,1175 1406,1164 1457,1147 1561,1127 1707,1118 1819,1122 1889,1134 1913,1149 1901,1165 1841,1196 " style="fill: white; stroke: black; stroke-width: 30" />
<polyline points="1833,1423 1845,1434 1847,1448 1854,1450 1862,1445 1889,1419 1920,1381 1957,1338 1990,1308 2033,1287 2062,1280 2068,1287 2071,1301 2068,1325 2076,1348 2096,1366 2126,1374 2162,1368 2183,1363 2190,1354 2192,1350 2197,1351 2203,1348 2218,1356 2253,1368 2299,1369 2339,1358 2358,1348 2369,1318 2351,1308 2313,1304 2241,1316 2191,1344 2189,1374 2200,1428 2252,1471 2314,1507 2381,1508 2456,1487 2527,1428 2577,1368 2588,1343 2587,1343 2577,1349 2550,1385 2524,1428 2512,1463 2522,1474 2548,1480 2592,1479 2647,1471 2667,1478 2670,1489 2674,1510 2678,1530 2671,1549 2666,1558 " style="fill: white; stroke: black; stroke-width: 30" />
<polyline points="2854,1532 2834,1535 2833,1536 2846,1530 2886,1513 2923,1508 2950,1522 2959,1549 2954,1585 2958,1615 2788,1497 " style="fill: white; stroke: black; stroke-width: 30" />
<polyline points="3088,1528 3079,1559 3085,1591 3111,1601 3180,1584 3282,1525 3386,1445 3454,1379 3477,1338 3471,1340 3453,1356 3417,1404 3409,1452 3415,1500 3437,1536 3457,1560 3464,1556 3461,1562 3461,1579 3468,1591 3487,1599 3550,1597 3605,1569 3612,1559 3609,1557 3610,1556 3613,1548 " style="fill: white; stroke: black; stroke-width: 30" />
<polyline points="3676,1160 " style="fill: white; stroke: black; stroke-width: 30" />
<polyline points="-2684,2046 -2668,2021 -2645,1995 -2635,1988 -2636,1993 -2641,2026 -2654,2109 -2673,2198 -2671,2249 -2654,2288 -2609,2321 -2527,2351 -2435,2374 -2365,2385 -2330,2381 -2311,2364 -2168,2172 " style="fill: white; stroke: black; stroke-width: 30" />
<polyline points="-2298,2095 -2295,2095 -2280,2108 -2233,2143 -2166,2190 -2094,2222 -2050,2253 -2041,2277 -2051,2305 -2080,2341 -2125,2376 -2157,2396 -2174,2401 " style="fill: white; stroke: black; stroke-width: 30" />
<polyline points="-1417,2015 -1420,2012 -1420,2012 -1421,2012 -1422,2013 -1422,2013 -1424,2011 -1426,2016 -1426,2020 -1426,2032 -1425,2055 -1420,2065 -1416,2069 -1419,2073 -1417,2073 -1419,2073 -1421,2073 -1421,2072 -1423,2071 -1423,2089 -1421,2157 -1428,2235 -1436,2309 -1435,2363 -1430,2399 -1427,2421 -1426,2423 -1429,2420 -1429,2417 -1430,2392 -1429,2357 " style="fill: white; stroke: black; stroke-width: 30" />
<polyline points="-1243,2108 -1196,2205 -1199,2290 -1232,2366 -1274,2417 -1320,2434 -1350,2422 -1388,2371 -1423,2304 -1434,2265 -1428,2262 -1383,2272 " style="fill: white; stroke: black; stroke-width: 30" />
<polyline points="-1042,2372 -1041,2369 -1031,2348 -1013,2304 -994,2242 -984,2185 -969,2148 -957,2137 -950,2136 -929,2163 -902,2208 -858,2232 -800,2225 " style="fill: white; stroke: black; stroke-width: 30" />
<polyline points="-733,2234 -743,2232 -771,2233 -800,2238 -828,2266 -846,2322 -840,2374 -810,2414 -779,2416 -734,2389 -703,2354 -694,2316 -699,2290 -709,2284 -718,2282 -722,2279 -720,2286 -707,2297 -686,2308 -635,2310 -575,2291 -527,2253 -486,2214 -472,2193 -474,2194 -486,2217 -517,2265 -542,2335 -558,2415 -566,2494 -578,2575 -607,2635 -636,2660 -667,2658 -698,2633 -711,2573 -697,2519 -645,2460 -541,2383 -437,2313 -341,2244 -312,2207 -324,2207 -363,2233 -411,2271 -415,2297 -398,2317 -347,2320 -289,2310 -255,2299 -230,2297 -200,2296 -146,2294 -118,2305 -115,2327 -135,2374 -154,2408 -152,2414 -144,2412 " style="fill: white; stroke: black; stroke-width: 30" />
<polyline points="709,1861 713,1863 703,1913 642,2012 571,2128 527,2212 514,2267 " style="fill: white; stroke: black; stroke-width: 30" />
<polyline points="767,2054 671,2094 568,2153 531,2205 538,2245 579,2287 660,2328 738,2347 776,2342 792,2330 799,2317 816,2291 849,2259 879,2213 909,2168 945,2140 990,2126 1033,2140 1053,2188 1047,2241 1029,2281 1007,2305 984,2308 956,2291 939,2256 942,2209 959,2168 " style="fill: white; stroke: black; stroke-width: 30" />
<polyline points="1351,2266 1373,2292 1442,2299 1548,2278 1631,2229 1665,2185 1668,2165 1661,2166 1643,2180 1597,2221 1546,2273 1505,2327 1486,2361 1483,2368 1478,2367 1477,2365 1478,2335 1489,2299 " style="fill: white; stroke: black; stroke-width: 30" />
<polyline points="1865,2151 1868,2143 1861,2147 1812,2185 1754,2238 1730,2280 1737,2300 1769,2316 1853,2309 1930,2295 1949,2293 1945,2298 1932,2319 1911,2355 1902,2366 1899,2370 1925,2364 2003,2346 2072,2334 2088,2331 2083,2331 2080,2332 2083,2332 2086,2332 2094,2334 2121,2341 2138,2345 2140,2346 2144,2351 2148,2362 2155,2375 2160,2381 2185,2386 2233,2387 2267,2395 2269,2398 2263,2406 " style="fill: white; stroke: black; stroke-width: 30" />
<polyline points="-1273,2887 -1263,2861 -1246,2840 -1237,2842 -1226,2873 -1236,2950 -1262,3037 -1257,3090 -1216,3116 -1117,3132 -1009,3143 -935,3147 -883,3135 " style="fill: white; stroke: black; stroke-width: 30" />
<polyline points="-92,3241 -83,3242 -69,3220 -41,3165 -25,3081 -6,2973 18,2891 45,2852 73,2852 110,2893 134,2938 138,2975 126,3001 91,3017 42,3020 9,3009 -16,2977 -27,2948 " style="fill: white; stroke: black; stroke-width: 30" />
<polyline points="541,2795 526,2799 473,2841 403,2950 335,3111 290,3253 276,3347 280,3378 291,3374 311,3340 357,3251 398,3170 420,3144 445,3140 501,3141 571,3146 627,3142 664,3125 670,3114 655,3109 621,3119 579,3155 572,3188 587,3228 625,3269 662,3290 701,3292 734,3268 776,3214 809,3163 824,3142 840,3127 856,3120 " style="fill: white; stroke: black; stroke-width: 30" />
<polyline points="1114,3131 1114,3115 1110,3101 1069,3101 1005,3130 974,3159 972,3179 997,3185 1064,3166 1138,3122 1208,3069 1252,3019 1264,2994 1262,2988 1258,2980 1256,2976 1252,2980 1252,2980 1249,2984 1230,3029 1192,3099 1181,3169 1192,3229 1212,3252 1244,3276 " style="fill: white; stroke: black; stroke-width: 30" />
<polyline points="2055,3027 2052,3078 2031,3109 1996,3146 1960,3183 1952,3229 " style="fill: white; stroke: black; stroke-width: 30" />
<polyline points="1952,3384 1934,3378 1945,3377 1946,3377 1956,3376 1962,3377 1973,3378 " style="fill: white; stroke: black; stroke-width: 30" />
<polyline points="-2474,4019 -2458,4001 -2435,3986 -2425,3987 -2420,4010 -2443,4076 -2488,4168 -2502,4230 -2477,4260 -2373,4289 -2217,4310 -2076,4325 -1997,4339 " style="fill: white; stroke: black; stroke-width: 30" />
<polyline points="-1883,4136 -1841,4194 -1822,4247 -1829,4289 -1862,4341 -1894,4382 -1912,4403 " style="fill: white; stroke: black; stroke-width: 30" />
<polyline points="-1289,4110 -1282,4028 -1286,4000 -1287,4005 -1297,4048 -1325,4151 -1337,4268 -1328,4340 -1290,4383 -1229,4397 -1134,4368 -1016,4309 -931,4240 -885,4165 -886,4135 -893,4130 -894,4131 -895,4130 -897,4133 -897,4135 -898,4146 -893,4172 -883,4208 -857,4244 -815,4272 -765,4275 -731,4262 -708,4255 -703,4256 -703,4283 -722,4340 -743,4393 -755,4428 -762,4451 -762,4458 -759,4455 " style="fill: white; stroke: black; stroke-width: 30" />
<polyline points="-614,4151 -626,4119 -641,4102 -646,4091 -647,4069 -645,4042 -641,4035 " style="fill: white; stroke: black; stroke-width: 30" />
<polyline points="-273,4254 -303,4236 -330,4228 -334,4236 -364,4265 -404,4311 -435,4350 -446,4375 -440,4386 -391,4400 -276,4389 -137,4340 -38,4286 -3,4258 -9,4260 -42,4308 -93,4391 -115,4449 -112,4477 -64,4478 52,4435 171,4380 248,4343 278,4317 309,4299 338,4287 342,4289 323,4308 298,4351 264,4400 245,4440 246,4460 248,4465 241,4467 237,4464 236,4444 252,4407 279,4370 321,4330 357,4289 388,4259 391,4255 383,4260 359,4277 347,4286 342,4289 344,4290 351,4287 356,4286 357,4288 354,4287 337,4291 275,4314 217,4331 161,4343 137,4349 138,4346 152,4338 195,4332 254,4329 309,4340 403,4375 532,4406 639,4424 " style="fill: white; stroke: black; stroke-width: 30" />
<polyline points="1626,4241 1636,4207 1637,4191 1631,4194 1611,4223 1552,4293 1538,4337 1547,4366 1595,4381 1691,4386 1778,4384 1792,4389 1787,4405 1776,4435 1778,4457 1783,4484 1796,4501 " style="fill: white; stroke: black; stroke-width: 30" />
<polyline points="1741,4147 1727,4105 1739,4082 1755,4072 1830,4066 1916,4077 1982,4095 2023,4115 2042,4127 2047,4155 2042,4214 2027,4290 2006,4361 1985,4417 1976,4449 1981,4463 1981,4468 1987,4465 2004,4456 2053,4428 2094,4413 2110,4419 2120,4437 2116,4469 2103,4495 2087,4512 2079,4512 2066,4503 2049,4480 2042,4451 2046,4427 2059,4417 2097,4410 2154,4418 2224,4445 2278,4478 2308,4504 2324,4514 2322,4512 2322,4503 2341,4481 2376,4451 2419,4433 2486,4425 2561,4421 2659,4421 " style="fill: white; stroke: black; stroke-width: 30" />
<polyline points="-1536,4921 -1552,4875 -1554,4857 -1528,4852 -1446,4859 -1336,4882 -1224,4912 -1113,4932 -1058,4942 " style="fill: white; stroke: black; stroke-width: 30" />
<polyline points="-1384,5068 -1421,5097 -1417,5108 -1385,5116 -1307,5116 -1222,5122 -1147,5144 -1090,5174 -1067,5193 -1066,5203 -1081,5227 -1104,5257 -1108,5284 -1103,5292 -1095,5280 -1063,5241 -1031,5190 -998,5145 -979,5114 -965,5108 -939,5115 -905,5135 -847,5159 -784,5169 -725,5163 -699,5147 -698,5133 -712,5124 -749,5132 -784,5151 -794,5172 -776,5197 -723,5214 -636,5204 -548,5175 -485,5139 -454,5118 -459,5120 -467,5135 -490,5160 -503,5188 -503,5194 -482,5205 -447,5223 -416,5248 -410,5263 -411,5265 -401,5264 -359,5257 " style="fill: white; stroke: black; stroke-width: 30" />
<polyline points="-275,5190 -281,5200 -293,5208 -299,5208 -277,5200 -214,5176 -155,5164 -116,5179 -99,5215 -100,5259 " style="fill: white; stroke: black; stroke-width: 30" />
<polyline points="72,5308 166,5292 237,5246 301,5182 324,5132 322,5108 317,5101 300,5101 249,5113 232,5134 235,5163 279,5197 332,5226 377,5245 393,5259 391,5285 383,5322 383,5349 384,5357 381,5355 410,5336 " style="fill: white; stroke: black; stroke-width: 30" />
<polyline points="523,5078 516,5036 506,5022 497,5019 717,5376 773,5354 832,5351 851,5374 847,5406 834,5445 818,5469 " style="fill: white; stroke: black; stroke-width: 30" />
<polyline points="1938,4955 1939,4957 1925,4992 1897,5063 1863,5151 1839,5223 1821,5270 1813,5292 1813,5296 1810,5296 1807,5284 1834,5228 1869,5142 1918,5053 1975,4982 2024,4958 2050,4965 2077,4997 2074,5039 2043,5085 1999,5120 1936,5157 1853,5206 1796,5245 1794,5273 1827,5298 1904,5326 2022,5333 2116,5327 2158,5304 2173,5263 2179,5216 2176,5175 2164,5157 2153,5153 2112,5164 2069,5202 2066,5248 2094,5299 2159,5345 2461,5221 2398,5266 2371,5308 2363,5339 2380,5349 2423,5339 2520,5292 2626,5217 2699,5143 2735,5099 2731,5095 2726,5097 2707,5110 2660,5160 2616,5220 2612,5275 2644,5327 2722,5366 2831,5365 2912,5333 2946,5290 2941,5267 2926,5259 2864,5259 2838,5272 2844,5291 2878,5321 2946,5351 2964,5379 2964,5387 2975,5389 3032,5391 3136,5402 3210,5419 3218,5440 3217,5460 3219,5478 3236,5508 3263,5533 3273,5546 " style="fill: white; stroke: black; stroke-width: 30" />
<polyline points="-1067,5906 -1030,5877 -1012,5851 -1023,5842 -1041,5834 -1086,5837 -1139,5864 -1161,5881 -1164,5903 -1151,5942 -1102,5978 -1025,5999 " style="fill: white; stroke: black; stroke-width: 30" />
<polyline points="-672,5775 -681,5744 -705,5743 -739,5771 -775,5834 -789,5899 -779,5943 -749,5971 -689,5976 -618,5965 -569,5949 -542,5929 -539,5911 -544,5887 -551,5851 -567,5824 -580,5823 -584,5824 -581,5839 -563,5873 " style="fill: white; stroke: black; stroke-width: 30" />
<polyline points="619,5829 605,5828 603,5831 595,5854 565,5928 533,6005 510,6066 502,6099 502,6120 496,6129 502,6136 514,6129 530,6099 542,6050 541,6000 529,5958 515,5926 513,5907 507,5907 499,5917 506,5920 508,5918 507,5911 505,5892 491,5861 473,5830 468,5814 466,5807 465,5808 472,5806 477,5805 477,5806 470,5806 472,5805 464,5807 459,5807 472,5814 " style="fill: white; stroke: black; stroke-width: 30" />
<polyline points="781,5773 785,5761 754,5767 657,5807 554,5866 482,5911 467,5940 471,5968 503,5989 577,6005 648,6022 657,6033 641,6055 591,6104 540,6146 528,6168 " style="fill: white; stroke: black; stroke-width: 30" />
<polyline points="1068,6081 1089,6127 1145,6160 1231,6164 1339,6139 1403,6097 1424,6039 1394,5976 1342,5941 1303,5935 1294,5941 1295,5949 1320,5967 1380,5987 1421,6020 1454,6061 1457,6097 1432,6137 1410,6160 1404,6165 1414,6167 1465,6168 1545,6152 1618,6122 1692,6083 1747,6049 1776,6021 1784,6007 1763,5998 1732,5991 1665,6005 1632,6038 1632,6082 1658,6122 1715,6147 1791,6149 1849,6143 1880,6135 1883,6138 1879,6161 1856,6195 1857,6209 1863,6207 1871,6183 1897,6117 1923,6018 1929,5914 1938,5838 1945,5802 1948,5792 1962,5794 " style="fill: white; stroke: black; stroke-width: 30" />
<polyline points="2272,5946 2228,5950 2198,5971 2162,6010 2153,6043 2166,6060 2176,6076 " style="fill: white; stroke: black; stroke-width: 30" />
<polyline points="2431,5993 2432,5990 2454,5991 2500,5993 2546,5999 2585,5998 2630,5985 2656,5977 2649,5971 2628,5953 2588,5953 2540,5981 2509,6021 2526,6057 2573,6085 2663,6086 2799,6044 2948,5963 3073,5878 3136,5831 3131,5822 3121,5824 3106,5830 3066,5847 3008,5888 2979,5924 2964,5963 2965,5981 2981,5982 2993,5974 3001,5960 3026,5925 3058,5862 3075,5816 3072,5805 3058,5806 3007,5855 2944,5960 2924,6046 2916,6130 2941,6195 2989,6238 3082,6245 " style="fill: white; stroke: black; stroke-width: 30" />
<polyline points="-1006,6741 -1020,6719 -1015,6713 -1002,6716 -995,6721 -991,6730 -987,6768 -973,6806 -955,6847 -912,6894 -870,6925 -806,6934 -733,6903 -680,6851 -668,6814 -682,6772 -704,6736 -715,6712 -727,6699 -711,6703 -687,6712 -663,6732 -627,6749 -550,6750 -457,6743 -382,6741 -322,6749 -306,6766 -314,6801 -325,6842 -347,6884 -340,6914 -333,6925 -325,6923 -303,6906 -270,6868 -258,6825 -261,6805 -261,6801 -259,6799 -250,6800 -248,6798 -247,6793 -250,6792 -251,6781 -252,6751 -265,6712 -276,6684 -286,6677 -303,6699 -340,6762 -359,6816 -354,6864 -335,6889 -300,6893 -244,6877 -193,6847 -175,6814 -174,6774 -191,6738 -210,6723 -224,6726 -226,6740 -229,6781 -201,6815 -147,6832 -80,6835 -14,6830 19,6823 19,6826 17,6845 28,6869 42,6882 83,6886 126,6890 144,6902 151,6924 138,6947 141,6959 " style="fill: white; stroke: black; stroke-width: 30" />
<polyline points="863,6825 " style="fill: white; stroke: black; stroke-width: 30" />
<polyline points="1234,6666 1227,6668 1216,6686 1188,6727 1168,6771 1153,6830 1138,6904 1132,6971 1114,7017 1112,7029 1115,7029 1111,7026 1118,7016 1128,7001 1131,6992 1129,6985 1124,6984 1117,6983 1123,6974 1142,6945 1177,6898 1204,6847 1217,6829 1219,6825 1227,6831 1246,6853 1263,6871 1287,6889 1300,6909 1300,6935 1296,6962 1299,6988 1306,6995 1349,7002 " style="fill: white; stroke: black; stroke-width: 30" />
<polyline points="1498,6942 1467,6962 1450,6982 1434,7019 1428,7053 1430,7076 1442,7071 1472,7045 1509,6993 1538,6955 1563,6935 1589,6929 1635,6942 " style="fill: white; stroke: black; stroke-width: 30" />
<polyline points="2445,6706 2444,6692 2452,6685 2444,6689 2444,6694 2443,6695 2439,6693 2442,6692 2445,6689 2436,6689 2438,6690 2433,6700 2409,6760 2366,6869 2315,6964 2267,7056 " style="fill: white; stroke: black; stroke-width: 30" />
<polyline points="2793,6865 2739,6963 2706,7041 2693,7096 2694,7114 2707,7108 2735,7079 2803,7009 2874,6900 2917,6780 2960,6709 2985,6679 3012,6680 3028,6717 3035,6794 3021,6877 2998,6924 2979,6942 2963,6943 2925,6923 2883,6891 2871,6862 2880,6846 2885,6850 " style="fill: white; stroke: black; stroke-width: 30" />
<polyline points="3291,6889 3290,6886 3279,6893 3288,6904 3299,6945 3300,6997 3289,7035 3249,7064 3193,7086 3143,7088 3119,7077 3108,7043 3122,7006 3158,6977 3230,6968 3288,6995 3320,7030 3330,7072 3346,7106 3403,7132 3497,7133 3576,7100 3636,7051 3640,7036 3628,7040 3602,7066 3543,7114 3492,7169 3481,7213 3466,7233 3478,7218 3543,7137 3647,7028 3745,6965 3818,6936 3836,6941 3827,6961 3807,6999 3768,7038 3741,7049 3721,7056 3713,7047 3688,7034 3684,7012 3686,6985 3687,6967 3700,6947 3724,6934 3806,6925 3902,6925 3993,6929 4073,6934 4100,6935 4084,6943 4043,6988 4019,7031 3995,7072 3972,7096 3971,7112 3982,7110 3981,7109 4021,7064 " style="fill: white; stroke: black; stroke-width: 30" />
<polyline points="4123,6872 4142,6749 4163,6683 4168,6647 4175,6625 4225,6567 4289,6482 " style="fill: white; stroke: black; stroke-width: 30" />
<polyline points="-1489,7777 -1495,7776 -1499,7790 -1487,7835 -1487,7905 -1500,7983 -1526,8067 -1527,8124 -1517,8158 -1504,8159 -1483,8161 -1487,8157 -1495,8144 " style="fill: white; stroke: black; stroke-width: 30" />
<polyline points="-1494,7706 -1493,7707 -1483,7707 -1473,7710 -1480,7723 -1473,7795 -1473,7888 -1450,7943 -1403,7966 -1306,7931 -1195,7846 -1108,7762 -1066,7724 -1067,7728 -1077,7794 -1103,7896 -1107,7976 -1101,8031 -1082,8066 -1046,8083 -996,8070 -960,8030 -926,7980 -923,7963 -922,7967 -912,7976 -873,7973 -822,7954 -782,7922 -779,7898 -790,7891 -818,7898 -847,7919 -861,7961 -859,8005 -836,8046 " style="fill: white; stroke: black; stroke-width: 30" />
<polyline points="-454,7824 -465,7950 -454,8050 -439,8123 -437,8141 -430,8127 -437,8072 -466,7992 -482,7945 -483,7939 -458,7933 -419,7931 -345,7938 -277,7935 -225,7912 -186,7880 -160,7857 -158,7838 -151,7830 -146,7832 -117,7864 -97,7927 -113,8006 -137,8076 -186,8127 -236,8143 -275,8126 -285,8086 -274,8048 -232,8031 -174,8028 -90,8015 -5,7978 101,7922 179,7830 224,7732 224,7697 211,7701 180,7757 123,7880 89,7974 93,8020 116,8026 185,7992 262,7934 335,7886 364,7875 365,7883 365,7925 336,7985 308,8054 " style="fill: white; stroke: black; stroke-width: 30" />
<polyline points="1523,7783 1515,7820 1502,7913 1502,8017 1528,8114 1548,8169 1550,8181 1531,8159 1479,8087 1420,8016 1408,7989 1411,7979 1432,7983 1484,8008 1546,8049 1602,8097 1671,8131 1729,8140 1782,8133 1820,8109 1834,8078 1839,8031 1840,7979 1848,7939 1864,7930 1899,7921 1926,7918 1958,7893 1984,7828 2028,7787 2061,7770 2083,7766 2118,7782 2141,7842 2134,7913 2103,7984 2075,8040 2058,8062 2037,8071 2019,8072 2009,8049 2020,7993 2041,7957 2073,7928 2105,7917 2131,7931 2141,7958 2133,7998 2131,8030 2120,8046 2106,8050 2087,8048 2080,8022 2096,7998 2100,7988 2124,7976 2163,7978 2229,7993 2310,7997 2399,7991 2464,7972 2483,7944 2476,7924 2457,7918 2437,7922 2413,7957 2428,7997 2456,8027 2499,8041 2515,8055 2514,8068 2494,8100 2506,8123 2548,8130 2569,8128 " style="fill: white; stroke: black; stroke-width: 30" />
<polyline points="2635,7871 2617,7808 2604,7783 2640,7768 2669,7771 2721,7777 2774,7773 2798,7771 2809,7760 2810,7761 2798,7827 2723,7940 2687,8013 2656,8067 2662,8075 2663,8071 2673,8064 2730,8059 2814,8057 2918,8049 3003,8026 3032,8009 3018,8010 2982,8033 2943,8072 2932,8099 2945,8116 2994,8112 3011,8102 3010,8090 3013,8082 " style="fill: white; stroke: black; stroke-width: 30" />
<polyline points="-1288,8667 -1298,8731 -1275,8823 -1249,8914 -1224,8986 -1215,9036 -1207,9054 -1231,9054 -1248,9046 -1291,9023 -1336,8970 -1373,8925 " style="fill: white; stroke: black; stroke-width: 30" />
<polyline points="-845,8482 -862,8557 -893,8680 -931,8828 -964,8930 -969,8975 " style="fill: white; stroke: black; stroke-width: 30" />
<polyline points="-746,8664 -790,8693 -846,8755 -872,8826 -869,8871 -840,8910 -436,8585 -429,8555 -431,8551 -427,8577 -433,8670 -454,8790 -471,8880 -482,8933 -486,8947 -488,8948 -476,8947 -411,8913 -365,8863 -343,8820 -337,8785 -309,8743 -288,8708 -252,8685 -226,8688 -181,8722 -173,8773 -188,8822 -219,8866 -265,8899 -303,8913 -323,8906 -337,8888 -333,8859 -317,8831 -264,8813 -220,8829 -187,8864 -171,8897 -142,8918 " style="fill: white; stroke: black; stroke-width: 30" />
<polyline points="164,8729 123,8699 94,8690 62,8704 39,8762 31,8852 55,8915 91,8951 166,8962 254,8940 346,8898 388,8849 394,8810 379,8801 356,8808 318,8839 318,8863 342,8895 386,8922 451,8933 554,8921 661,8891 742,8829 773,8766 757,8739 702,8750 649,8780 621,8814 642,8849 680,8903 775,8952 920,8996 " style="fill: white; stroke: black; stroke-width: 30" />
<polyline points="-1352,9360 -1319,9342 -1316,9337 -1300,9376 -1286,9483 -1296,9623 -1299,9735 -1282,9792 -1266,9803 -1180,9768 -1082,9675 -991,9567 -930,9455 -901,9394 -914,9382 -944,9396 -1019,9452 -1119,9546 -1169,9629 -1160,9691 -1122,9741 -1043,9767 -956,9762 -871,9714 -800,9661 -748,9635 -736,9621 -715,9603 -682,9585 -669,9573 -666,9566 -683,9569 -721,9585 -743,9617 -739,9632 -725,9643 -689,9655 -649,9663 -583,9667 -532,9674 -496,9687 -487,9693 -476,9693 -472,9695 -464,9667 -450,9572 " style="fill: white; stroke: black; stroke-width: 30" />
<polyline points="-435,9319 -445,9265 -446,9246 -451,9243 -444,9253 -431,9302 -387,9399 -342,9503 -288,9572 -242,9618 -235,9632 -232,9626 -213,9610 -183,9587 -152,9578 -116,9586 -97,9618 -86,9648 -81,9680 " style="fill: white; stroke: black; stroke-width: 30" />
<polyline points="643,9776 631,9769 640,9737 682,9668 770,9565 843,9462 869,9402 868,9396 865,9417 874,9500 899,9592 921,9676 930,9727 935,9747 930,9747 897,9720 833,9663 754,9619 713,9593 712,9580 728,9572 795,9566 " style="fill: white; stroke: black; stroke-width: 30" />
<polyline points="1323,9376 1298,9405 1291,9469 1282,9541 1263,9592 1262,9612 1274,9616 1306,9607 1377,9580 1460,9570 1521,9602 1548,9657 1549,9697 1522,9719 1471,9734 1403,9735 1333,9714 1277,9686 1258,9666 1269,9655 1298,9630 " style="fill: white; stroke: black; stroke-width: 30" />
<polyline points="1848,9503 1903,9481 1901,9471 1876,9471 1834,9489 1784,9529 1752,9583 1742,9651 1752,9709 1761,9741 1748,9751 1737,9747 1717,9732 1697,9714 1693,9699 1684,9691 1702,9689 " style="fill: white; stroke: black; stroke-width: 30" />
<polyline points="2188,9445 2117,9472 2069,9508 2009,9554 1992,9592 1989,9628 2009,9667 2053,9702 2133,9716 2241,9700 2358,9657 2464,9591 2537,9519 2565,9454 2563,9424 2557,9422 2542,9448 2507,9511 2497,9572 2498,9623 2535,9653 2586,9672 2658,9666 2764,9635 2862,9592 2936,9536 2972,9479 3008,9416 3077,9356 3147,9324 3197,9313 3199,9319 3180,9361 3115,9454 3068,9548 3037,9604 3030,9642 3031,9651 3042,9646 3089,9629 3178,9600 3265,9568 3319,9549 3364,9544 3367,9546 3340,9569 3335,9597 3339,9621 3354,9640 3379,9663 3414,9670 3430,9674 3422,9680 3434,9680 3446,9682 " style="fill: white; stroke: black; stroke-width: 30" />
<polyline points="3732,9721 3768,9703 3845,9670 3957,9642 4090,9620 4183,9609 4218,9601 4207,9604 4186,9616 4133,9661 4097,9702 4086,9745 4054,9796 4020,9828 3967,9854 " style="fill: white; stroke: black; stroke-width: 30" />
<polyline points="-913,10084 -919,10123 -918,10230 -913,10351 -914,10458 -917,10533 -924,10567 -932,10570 -945,10529 -924,10387 -918,10198 -880,10061 -823,9991 -770,9996 -738,10051 -740,10139 -777,10241 -831,10339 -884,10406 -900,10451 -883,10493 -850,10521 -762,10536 -653,10521 -537,10472 -441,10403 -394,10356 -405,10330 -426,10328 -456,10349 -496,10405 -513,10471 -480,10522 -431,10553 -351,10368 " style="fill: white; stroke: black; stroke-width: 30" />
<polyline points="-129,10466 -14,10366 102,10262 181,10183 189,10146 186,10144 167,10169 110,10265 88,10370 92,10447 122,10475 184,10480 261,10482 317,10479 373,10449 " style="fill: white; stroke: black; stroke-width: 30" />
<polyline points="616,10142 614,10077 587,10077 537,10140 466,10268 436,10393 429,10477 432,10500 438,10491 446,10453 465,10417 486,10402 529,10396 584,10392 651,10387 734,10371 802,10350 841,10340 827,10341 805,10370 782,10431 782,10483 811,10516 844,10535 923,10542 " style="fill: white; stroke: black; stroke-width: 30" />
<polyline points="1342,10343 1347,10434 1362,10484 1397,10506 " style="fill: white; stroke: black; stroke-width: 30" />
<polyline points="1688,10293 1671,10273 1646,10264 1608,10279 1574,10336 1567,10412 1611,10462 1661,10496 1723,10494 1756,10471 1746,10436 1725,10383 1702,10354 1692,10353 1668,10368 1665,10387 1701,10411 1783,10422 1886,10425 2000,10421 2108,10392 2186,10345 2222,10307 2209,10288 2198,10284 2185,10297 2164,10339 2162,10401 2195,10489 2218,10571 2241,10622 2250,10641 2238,10637 2222,10622 2194,10597 2180,10580 2172,10572 " style="fill: white; stroke: black; stroke-width: 30" />
<polyline points="-608,11161 -624,11155 -637,11157 -646,11175 -635,11237 -622,11317 -607,11392 -586,11441 -563,11462 -544,11467 -534,11458 " style="fill: white; stroke: black; stroke-width: 30" />
<polyline points="-407,11054 -409,11059 -407,11109 -413,11220 -429,11350 -463,11448 -465,11516 -473,11534 -459,11523 -472,11460 -516,11377 -535,11321 -538,11301 -540,11294 -525,11287 -473,11291 " style="fill: white; stroke: black; stroke-width: 30" />
<polyline points="-38,11186 -55,11187 -68,11200 -72,11262 -79,11376 -67,11491 -55,11564 -52,11588 -50,11582 -54,11546 -39,11462 -39,11397 " style="fill: white; stroke: black; stroke-width: 30" />
<polyline points="-234,11153 -236,11148 -223,11145 -170,11140 -50,11139 48,11149 145,11159 " style="fill: white; stroke: black; stroke-width: 30" />
<polyline points="-103,11364 -73,11360 -4,11351 83,11338 " style="fill: white; stroke: black; stroke-width: 30" />
<polyline points="-329,11954 -306,11921 -303,11916 -311,11934 -310,12016 -304,12115 -292,12181 -246,12220 -136,12221 -32,12194 82,12154 184,12108 225,12073 " style="fill: white; stroke: black; stroke-width: 30" />
<polyline points="194,11998 155,11983 117,11973 117,11967 112,11963 180,11948 261,11948 322,11970 353,12014 364,12077 329,12153 287,12222 258,12256 217,12276 222,12280 240,12276 " style="fill: white; stroke: black; stroke-width: 30" />
<polyline points="889,11826 868,11808 861,11812 853,11857 841,11966 827,12097 828,12187 819,12219 837,12210 857,12140 912,12011 973,11884 1018,11803 1067,11768 1111,11763 1106,11783 1099,11832 1059,11906 989,11995 938,12081 896,12136 907,12161 927,12179 987,12179 1064,12157 1142,12121 1228,12080 1274,12050 1292,12028 1279,12010 1240,11995 1185,12014 1154,12056 1152,12108 1166,12151 1205,12193 1266,12219 1372,12228 " style="fill: white; stroke: black; stroke-width: 30" />
<polyline points="1716,12072 1691,12029 1672,11995 1649,11996 1621,12024 1583,12090 1560,12150 1580,12180 1607,12185 1689,12149 1796,12077 1885,11995 1929,11932 1944,11912 1937,11912 1939,11925 1934,11966 1937,12015 1969,12053 1983,12094 2012,12111 2029,12117 2063,12092 2170,12007 2305,11870 2422,11756 2504,11685 2512,11669 2514,11690 2439,11782 2350,11894 2255,11993 2206,12050 2185,12068 2194,12064 2207,12043 2246,12008 2288,11977 2371,11953 2442,11947 2532,11956 2616,11976 2665,11990 2701,11987 2690,11985 2670,11978 2622,11984 2581,12006 2549,12047 2553,12091 2546,12150 2594,12185 2683,12198 2823,12161 2978,12071 3137,11944 3238,11810 3254,11723 3230,11699 3186,11700 3135,11748 3071,11849 3061,11947 3067,12051 3108,12135 3151,12195 3203,12227 3296,12214 3419,12149 3533,12073 3608,12014 3678,11972 3688,11955 3662,11954 3590,11961 3493,11988 3445,12026 3452,12066 3493,12112 3614,12141 3732,12144 3812,12121 3842,12086 3822,12063 3795,12035 3728,12011 3660,12006 3642,12009 3703,12006 3819,12003 3987,11981 4116,11971 4224,11966 4293,11988 4350,12034 4377,12093 4371,12161 4329,12212 4273,12242 4226,12254 4199,12255 4187,12250 4197,12240 4191,12239 4188,12231 4223,12212 " style="fill: white; stroke: black; stroke-width: 30" />

</svg>