<?xml version="1.0" standalone="no"?>
<!DOCTYPE svg PUBLIC "-//W3C//DTD SVG 1.1//EN" "http://www.w3.org/Graphics/SVG/1.1/DTD/svg11.dtd">
<svg width="210mm" height="297mm" viewBox="-7000 500 14000 20000" version="1.1" xmlns="http://www.w3.org/2000/svg">

<polyline points="3495,1882 " style="fill: white; stroke: black; stroke-width: 30" />
<polyline points="5970,11529 " style="fill: white; stroke: black; stroke-width: 30" />
<polyline points="-2813,1135 -2815,1128 -2819,1127 -2828,1143 -2839,1228 -2844,1316 -2841,1345 -2838,1340 -2824,1299 -2818,1208 -2819,1107 -2822,1046 -2826,1044 -2835,1055 -2844,1106 -2851,1164 -2845,1238 -2818,1312 -2771,1334 -2714,1329 -2655,1291 -2616,1241 -2612,1196 -2617,1186 -2621,1184 -2634,1182 -2639,1180 -2637,1182 -2636,1186 -2636,1186 -2635,1189 -2639,1187 -2638,1186 -2638,1186 -2642,1184 -2640,1186 -2642,1183 -2645,1184 -2646,1182 -2643,1182 -2634,1182 -2619,1187 -2618,1183 " style="fill: white; stroke: black; stroke-width: 30" />
<polyline points="-2472,1266 -2466,1258 -2465,1263 -2469,1267 -2459,1283 -2432,1297 -2407,1294 -2388,1297 -2383,1300 -2381,1301 -2372,1270 -2364,1239 -2364,1212 -2359,1205 -2353,1203 " style="fill: white; stroke: black; stroke-width: 30" />
<polyline points="-1882,1316 -1882,1285 -1878,1240 -1867,1214 -1854,1216 -1820,1242 -1794,1309 -1803,1387 -1827,1444 -1874,1469 -1931,1456 -1942,1416 -1926,1374 -1898,1362 -1859,1385 -1818,1423 " style="fill: white; stroke: black; stroke-width: 30" />
<polyline points="-1655,1412 -1623,1431 -1571,1410 -1531,1371 -1506,1356 -1495,1348 -1490,1335 -1483,1317 -1482,1299 -1484,1300 -1485,1308 -1489,1308 -1489,1315 -1488,1313 -1489,1307 -1490,1309 -1489,1309 -1492,1303 -1493,1306 -1489,1310 -1490,1306 -1491,1306 -1488,1308 -1488,1303 -1490,1305 -1486,1307 -1488,1302 -1489,1301 -1487,1304 -1488,1301 -1491,1300 -1487,1303 -1487,1302 -1490,1299 -1487,1302 -1488,1301 -1490,1299 -1488,1302 -1488,1303 -1491,1300 -1488,1302 -1488,1303 -1491,1301 -1490,1302 -1490,1304 -1492,1300 -1491,1302 -1489,1305 -1492,1303 -1493,1301 -1493,1300 -1494,1306 -1493,1307 -1495,1302 -1495,1307 -1493,1307 -1495,1302 -1495,1307 -1493,1308 -1494,1302 -1494,1305 -1492,1307 -1493,1301 -1495,1303 -1493,1307 -1494,1302 -1496,1305 -1494,1307 -1495,1303 -1495,1303 -1493,1306 -1494,1302 -1496,1301 -1491,1305 -1492,1301 -1497,1299 -1494,1303 -1492,1301 -1495,1300 -1494,1302 -1493,1302 -1497,1299 -1495,1302 -1493,1303 -1495,1299 -1493,1302 -1492,1303 -1495,1300 -1493,1302 -1487,1302 -1471,1273 -1448,1231 -1438,1203 -1445,1158 -1460,1151 -1497,1160 -1541,1206 -1562,1276 -1560,1343 -1541,1392 -1499,1421 -1440,1424 " style="fill: white; stroke: black; stroke-width: 30" />
<polyline points="-1365,1316 -1349,1297 -1316,1277 -1286,1284 -1265,1304 -1267,1352 -1312,1408 -1372,1454 -1421,1471 -1429,1464 -1422,1448 -1386,1430 -1317,1416 -1240,1397 -1159,1356 -1090,1295 -1035,1237 -1021,1180 -1040,1171 -1070,1187 -1105,1224 -1123,1289 -1128,1347 -1101,1380 -1057,1390 -1022,1385 -1006,1401 -1000,1423 " style="fill: white; stroke: black; stroke-width: 30" />
<polyline points="-42,1423 -16,1434 18,1458 43,1493 62,1535 69,1559 65,1562 56,1564 38,1560 -3,1545 -52,1530 -75,1515 -74,1510 " style="fill: white; stroke: black; stroke-width: 30" />
<polyline points="193,1548 187,1583 187,1587 187,1584 194,1547 213,1498 242,1460 279,1441 313,1441 " style="fill: white; stroke: black; stroke-width: 30" />
<polyline points="853,1495 839,1517 809,1601 761,1705 736,1776 728,1802 731,1794 754,1725 803,1603 856,1512 894,1493 916,1503 909,1543 865,1579 813,1579 782,1557 786,1537 820,1522 898,1550 1005,1602 1114,1618 1181,1603 1185,1574 1138,1536 1070,1532 1043,1570 1075,1623 1168,1647 1274,1628 1321,1588 1321,1544 1311,1515 1309,1508 1327,1501 " style="fill: white; stroke: black; stroke-width: 30" />
<polyline points="1695,1381 1669,1348 1623,1319 1585,1321 1543,1381 1503,1497 1473,1622 " style="fill: white; stroke: black; stroke-width: 30" />
<polyline points="1660,1485 1607,1526 1600,1565 1651,1610 1739,1611 1802,1579 1808,1567 1795,1568 1794,1581 1816,1588 1854,1578 1877,1553 1880,1534 1876,1529 1875,1528 1880,1531 1883,1532 1886,1529 " style="fill: white; stroke: black; stroke-width: 30" />
<polyline points="1828,1589 1839,1625 1880,1626 " style="fill: white; stroke: black; stroke-width: 30" />
<polyline points="2047,1538 2041,1525 2008,1511 1937,1519 1873,1569 1854,1622 1896,1663 1987,1657 2088,1620 2167,1550 2203,1500 2210,1475 2226,1447 2265,1400 2292,1345 2285,1331 2246,1359 2177,1453 2099,1579 2061,1677 2060,1716 2074,1709 2107,1672 2146,1636 2197,1610 2116,1438 " style="fill: white; stroke: black; stroke-width: 30" />

</svg>