<?xml version="1.0" standalone="no"?>
<!DOCTYPE svg PUBLIC "-//W3C//DTD SVG 1.1//EN" "http://www.w3.org/Graphics/SVG/1.1/DTD/svg11.dtd">
<svg width="210mm" height="297mm" viewBox="-7000 500 14000 20000" version="1.1" xmlns="http://www.w3.org/2000/svg">

<polyline points="-2199,5156 " style="fill: white; stroke: black; stroke-width: 30" />
<polyline points="-30,1498 -72,1525 -89,1561 -83,1584 -54,1602 18,1619 149,1608 233,1615 261,1624 263,1631 256,1636 247,1645 234,1663 222,1683 215,1699 " style="fill: white; stroke: black; stroke-width: 30" />
<polyline points="-3650,2134 -3649,2126 -3651,2118 -3648,2129 -3649,2150 -3657,2205 -3661,2290 -3661,2372 -3652,2418 -3637,2441 -3627,2439 -3613,2406 -3602,2338 -3600,2257 -3609,2177 -3615,2132 -3618,2109 -3626,2101 -3629,2099 -3630,2108 -3625,2141 -3613,2199 -3579,2242 -3511,2272 -3417,2268 -3320,2233 -3244,2190 -3216,2156 -3213,2152 -3220,2163 -3238,2196 -3251,2264 -3255,2352 -3235,2421 -3213,2447 " style="fill: white; stroke: black; stroke-width: 30" />
<polyline points="-3079,2299 -3089,2347 -3097,2407 -3101,2449 -3099,2459 -3097,2452 -3087,2426 -3078,2367 -3074,2301 -3068,2261 -3058,2244 -3039,2240 -2999,2255 -2953,2279 -2913,2306 " style="fill: white; stroke: black; stroke-width: 30" />
<polyline points="-1583,2165 -1578,2153 -1574,2143 -1580,2135 -1593,2133 -1636,2142 -1694,2177 -1743,2222 -1770,2270 -1775,2320 -1762,2357 -1714,2388 -1625,2390 -1522,2374 " style="fill: white; stroke: black; stroke-width: 30" />
<polyline points="-1369,2276 -1371,2275 -1370,2278 -1372,2281 -1374,2285 -1380,2288 -1385,2290 -1389,2292 -1390,2291 -1393,2294 -1401,2293 -1418,2298 -1434,2304 -1453,2321 -1467,2339 -1465,2355 -1450,2369 -1416,2381 -1354,2377 -1306,2367 -1284,2352 -1276,2336 -1281,2318 -1299,2303 -1327,2281 -1343,2272 -1344,2270 -1342,2272 -1333,2279 -1309,2299 " style="fill: white; stroke: black; stroke-width: 30" />
<polyline points="-1106,2295 -1102,2293 -1104,2293 -1113,2291 -1127,2285 -1158,2283 -1192,2292 -1220,2312 -1229,2331 -1219,2359 -1195,2379 -1153,2386 -1116,2374 -1089,2353 -1071,2327 -1071,2306 -1084,2289 -1111,2286 -1128,2289 -1130,2301 -1121,2309 -1100,2325 -1073,2336 -1035,2335 -978,2313 -922,2277 -872,2226 -849,2171 -847,2129 -870,2125 -917,2147 -962,2198 -981,2247 -969,2293 -927,2331 -872,2359 -809,2358 -750,2332 -704,2291 -680,2239 -666,2189 -671,2166 -690,2156 -730,2170 -758,2205 -765,2255 -743,2297 -689,2329 -622,2337 " style="fill: white; stroke: black; stroke-width: 30" />
<polyline points="67,2184 68,2182 67,2202 55,2270 41,2353 32,2432 31,2480 38,2488 50,2463 62,2402 67,2314 76,2204 109,2123 136,2098 160,2106 185,2160 184,2222 158,2270 121,2288 92,2284 65,2259 57,2241 62,2223 " style="fill: white; stroke: black; stroke-width: 30" />
<polyline points="255,2237 267,2211 294,2179 336,2161 355,2165 372,2200 378,2257 371,2311 341,2353 296,2380 256,2386 235,2379 232,2364 244,2347 272,2328 307,2320 328,2323 352,2340 " style="fill: white; stroke: black; stroke-width: 30" />
<polyline points="270,2037 276,2031 282,2029 303,2038 345,2055 403,2085 " style="fill: white; stroke: black; stroke-width: 30" />
<polyline points="547,2261 543,2234 525,2218 493,2224 454,2245 421,2281 417,2299 446,2319 496,2326 537,2321 579,2298 612,2266 643,2218 659,2173 650,2140 637,2124 620,2125 598,2148 593,2189 610,2237 646,2280 687,2317 732,2329 " style="fill: white; stroke: black; stroke-width: 30" />
<polyline points="863,2245 857,2233 837,2226 801,2230 757,2246 732,2281 739,2313 777,2340 827,2344 876,2333 895,2313 897,2285 885,2254 853,2239 817,2229 802,2232 821,2235 878,2258 " style="fill: white; stroke: black; stroke-width: 30" />
<polyline points="1330,2149 1324,2169 1316,2214 1312,2272 1296,2343 1285,2402 1280,2429 1281,2430 1285,2402 1282,2351 1277,2271 1278,2176 1294,2096 1315,2066 1351,2055 1391,2079 1413,2127 1410,2186 1377,2232 1331,2268 1279,2289 1243,2298 1243,2296 1252,2296 1288,2297 1341,2311 1380,2340 1391,2381 1380,2412 1361,2436 1340,2441 1292,2434 1230,2409 1203,2390 1213,2382 " style="fill: white; stroke: black; stroke-width: 30" />
<polyline points="1578,2282 1572,2292 1562,2323 1550,2362 1539,2380 1536,2383 1536,2370 1541,2345 1550,2304 1568,2253 1582,2211 1598,2185 1607,2182 1615,2201 1631,2238 1652,2270 1680,2293 1727,2300 1781,2286 1822,2267 1840,2250 1839,2247 1835,2247 1825,2255 1811,2268 1803,2288 1803,2314 1822,2347 1848,2369 " style="fill: white; stroke: black; stroke-width: 30" />
<polyline points="1907,2001 1902,1993 1909,1990 1919,1999 1943,2044 1960,2110 1957,2161 1931,2192 1898,2200 1859,2192 1840,2163 1843,2116 1869,2073 " style="fill: white; stroke: black; stroke-width: 30" />
<polyline points="2114,2048 2108,2044 2102,2047 2088,2069 2059,2116 2025,2180 2014,2239 2029,2280 2046,2292 2075,2291 2103,2281 2146,2258 " style="fill: white; stroke: black; stroke-width: 30" />
<polyline points="2305,2118 2308,2097 2294,2094 2262,2107 2206,2150 2171,2214 2174,2276 2202,2324 2235,2347 2280,2347 2334,2326 2393,2291 2438,2254 2445,2235 2432,2220 2383,2221 2333,2239 2329,2263 2350,2303 2428,2360 2544,2418 " style="fill: white; stroke: black; stroke-width: 30" />
<polyline points="-3506,2896 -3513,2906 -3518,2935 -3533,2977 -3544,3030 -3551,3080 -3534,3114 -3480,3128 -3385,3110 -3306,3091 -3258,3069 -3243,3054 " style="fill: white; stroke: black; stroke-width: 30" />
<polyline points="-3234,2986 -3237,2985 -3238,2985 -3238,2989 -3219,3008 -3187,3037 -3157,3063 -3150,3087 -3172,3111 -3213,3135 -3237,3147 -3239,3147 " style="fill: white; stroke: black; stroke-width: 30" />
<polyline points="-2731,3048 -2737,3040 -2751,3028 -2776,3021 -2815,3018 -2864,3029 -2917,3054 -2945,3105 -2950,3156 -2917,3192 -2846,3200 -2763,3185 -2693,3160 " style="fill: white; stroke: black; stroke-width: 30" />
<polyline points="-2577,3080 -2585,3079 -2611,3082 -2644,3100 -2665,3120 -2669,3145 -2653,3167 -2614,3173 -2552,3152 -2496,3127 -2466,3113 -2466,3106 -2486,3098 -2526,3102 -2558,3106 -2552,3109 -2528,3115 -2491,3132 -2454,3146 -2398,3162 -2335,3162 -2287,3153 -2257,3136 -2256,3125 -2269,3108 -2298,3099 -2339,3093 -2372,3097 -2394,3105 -2411,3124 -2412,3153 -2392,3177 -2354,3188 -2305,3183 -2248,3170 -2227,3155 -2219,3133 -2228,3116 -2242,3100 -2264,3104 -2275,3114 -2278,3126 -2270,3142 -2256,3152 -2232,3154 -2201,3146 -2153,3126 -2094,3093 -2053,3051 -2031,3007 -2033,2983 -2050,2975 -2084,2986 -2131,3023 -2152,3069 -2157,3117 -2138,3164 -2110,3203 -2077,3217 -2036,3199 -1990,3161 -1968,3116 -1959,3073 -1965,3053 -1977,3046 -2008,3057 -2048,3084 -2060,3116 -2045,3143 -2009,3164 -1963,3175 -1893,3178 -1830,3159 " style="fill: white; stroke: black; stroke-width: 30" />
<polyline points="-1802,3069 -1817,3060 -1823,3055 -1822,3058 -1817,3069 -1821,3104 -1816,3148 -1804,3194 -1802,3227 -1812,3239 -1823,3235 -1847,3217 -1859,3186 -1866,3160 " style="fill: white; stroke: black; stroke-width: 30" />
<polyline points="-936,2977 -973,3014 -1018,3083 -1035,3139 -1017,3171 -947,3183 -837,3162 -745,3130 -704,3095 -700,3053 -727,3019 -775,3005 -810,3003 -811,3005 -797,3009 -754,3034 -699,3069 -642,3095 -569,3090 -493,3070 -442,3043 -428,3017 -439,2987 -473,2985 -542,3008 -592,3042 -596,3071 -569,3109 -511,3136 -450,3149 -399,3138 -365,3113 -350,3074 -347,3034 -354,3008 -347,2993 " style="fill: white; stroke: black; stroke-width: 30" />
<polyline points="-80,2833 -97,2831 -130,2844 -185,2900 -221,2973 -230,3038 -221,3079 -203,3105 -189,3110 -171,3097 -137,3062 -111,3040 -90,3034 -69,3048 -49,3075 -38,3100 -38,3106 -41,3111 " style="fill: white; stroke: black; stroke-width: 30" />
<polyline points="111,2965 114,2956 121,2958 133,2989 133,3037 108,3089 68,3117 21,3131 -17,3123 -38,3102 -33,3074 -5,3063 29,3066 86,3073 149,3070 209,3056 254,3028 285,2990 296,2939 289,2897 275,2886 245,2899 205,2939 193,2992 208,3040 251,3084 313,3103 374,3098 " style="fill: white; stroke: black; stroke-width: 30" />
<polyline points="462,3024 491,2950 518,2887 527,2853 528,2843 525,2850 503,2884 480,2941 460,2997 455,3044 462,3090 466,3138 470,3158 " style="fill: white; stroke: black; stroke-width: 30" />
<polyline points="479,3091 466,3030 453,2973 441,2949 438,2942 445,2948 469,2969 524,3003 587,3027 645,3039 672,3036 673,3024 654,3003 608,3002 574,3020 560,3050 569,3091 596,3131 631,3156 658,3169 682,3155 713,3136 735,3123 757,3127 769,3141 771,3165 761,3192 739,3217 722,3231 " style="fill: white; stroke: black; stroke-width: 30" />
<polyline points="-2907,3387 -2913,3422 -2926,3470 -2947,3528 -2959,3585 -2955,3624 -2924,3641 -2842,3645 -2752,3632 -2677,3613 -2630,3588 " style="fill: white; stroke: black; stroke-width: 30" />
<polyline points="-2648,3541 -2622,3544 -2581,3540 -2533,3546 -2496,3561 -2487,3585 -2508,3613 -2557,3648 -2601,3669 -2617,3673 -2612,3669 " style="fill: white; stroke: black; stroke-width: 30" />
<polyline points="-1938,3462 -1979,3473 -2059,3502 -2123,3540 -2147,3576 -2135,3622 -2098,3670 -2061,3707 -2047,3732 -2056,3742 -2086,3744 -2125,3728 -2157,3702 -2175,3681 -2173,3678 -2159,3685 -2095,3679 -2009,3668 -1904,3643 -1802,3612 -1743,3583 -1741,3568 -1770,3551 -1828,3554 -1885,3571 -1907,3591 -1899,3617 -1862,3651 -1796,3677 -1728,3688 " style="fill: white; stroke: black; stroke-width: 30" />
<polyline points="-1587,3452 -1598,3441 -1598,3438 -1604,3443 -1613,3473 -1622,3521 -1624,3585 -1625,3659 -1620,3716 " style="fill: white; stroke: black; stroke-width: 30" />
<polyline points="-1437,3418 -1440,3414 -1442,3422 -1462,3475 -1489,3548 -1503,3607 -1505,3642 -1506,3648 -1503,3647 -1466,3629 -1409,3604 -1367,3602 -1347,3622 -1357,3643 -1391,3658 -1429,3661 -1463,3647 -1491,3632 -1506,3617 -1503,3612 " style="fill: white; stroke: black; stroke-width: 30" />
<polyline points="-1154,3481 -1186,3460 -1221,3452 -1250,3462 -1267,3485 -1258,3531 -1225,3577 -1200,3616 -1197,3637 -1203,3649 -1224,3649 -1252,3640 -1281,3615 -1295,3591 -1288,3578 -1253,3570 -1188,3557 -1111,3534 -1048,3501 -998,3461 -971,3418 -966,3384 -965,3362 -965,3360 -966,3364 -972,3392 -992,3447 -1012,3511 -1026,3565 -1025,3605 -1024,3630 -1024,3630 -1021,3608 -1022,3562 -1011,3521 -993,3502 -953,3491 -908,3490 -853,3494 -823,3496 -815,3496 -820,3500 -833,3507 -851,3524 -860,3537 -865,3544 -865,3544 -861,3542 -855,3535 -852,3532 -850,3530 -846,3529 -841,3516 -843,3512 -847,3511 -852,3512 -854,3510 -857,3513 -863,3526 -874,3547 -884,3561 -893,3581 -901,3597 -915,3614 -924,3622 -928,3623 -927,3619 -923,3612 -924,3594 -930,3565 -929,3555 -928,3554 -926,3555 " style="fill: white; stroke: black; stroke-width: 30" />
<polyline points="-705,3503 -714,3520 -729,3560 -746,3601 -749,3630 -744,3652 " style="fill: white; stroke: black; stroke-width: 30" />
<polyline points="-669,3456 -674,3407 -680,3379 -688,3365 -689,3364 " style="fill: white; stroke: black; stroke-width: 30" />
<polyline points="-562,3509 -599,3501 -624,3513 -635,3542 -621,3575 -584,3602 -535,3614 -495,3612 -446,3586 -388,3538 -339,3477 -309,3425 -311,3400 -323,3397 -365,3431 -396,3479 -396,3522 -373,3558 -326,3587 -280,3613 -251,3622 -232,3610 -216,3583 -220,3552 -234,3527 -253,3523 -264,3531 -268,3554 -258,3581 -240,3615 -208,3633 -170,3629 -132,3608 -118,3581 -102,3553 -92,3538 -92,3533 -92,3539 -85,3545 " style="fill: white; stroke: black; stroke-width: 30" />
<polyline points="0,3497 10,3461 31,3427 47,3411 51,3406 52,3406 51,3403 54,3400 60,3379 68,3351 69,3340 68,3345 56,3367 40,3416 38,3476 37,3543 36,3596 35,3634 40,3648 51,3649 73,3634 108,3612 137,3593 156,3587 169,3582 179,3583 206,3578 228,3563 238,3533 222,3518 196,3518 168,3535 158,3555 166,3583 179,3605 200,3622 231,3616 " style="fill: white; stroke: black; stroke-width: 30" />
<polyline points="372,3499 384,3471 394,3456 400,3460 398,3472 379,3509 356,3559 343,3604 329,3628 332,3631 " style="fill: white; stroke: black; stroke-width: 30" />
<polyline points="434,3399 441,3342 442,3305 442,3279 439,3266 443,3268 450,3282 491,3321 " style="fill: white; stroke: black; stroke-width: 30" />
<polyline points="653,3351 647,3352 633,3384 619,3464 621,3558 637,3635 633,3682 " style="fill: white; stroke: black; stroke-width: 30" />
<polyline points="581,3613 590,3557 614,3517 651,3499 713,3493 " style="fill: white; stroke: black; stroke-width: 30" />
<polyline points="1023,3530 1019,3524 1030,3520 1063,3516 1123,3508 1205,3506 " style="fill: white; stroke: black; stroke-width: 30" />
<polyline points="1171,3373 1168,3394 1165,3431 1168,3484 1179,3547 " style="fill: white; stroke: black; stroke-width: 30" />
<polyline points="-1985,3869 -1983,3859 -1986,3856 -1985,3868 -1981,3905 -1983,3978 -1991,4049 -1993,4105 -1988,4137 " style="fill: white; stroke: black; stroke-width: 30" />
<polyline points="-2102,3984 -2100,3984 -2089,3987 -2049,3997 -1977,4000 " style="fill: white; stroke: black; stroke-width: 30" />
<polyline points="-1836,3998 -1854,3992 -1881,3997 -1913,4019 -1929,4040 -1930,4063 -1899,4091 -1834,4113 -1763,4112 -1702,4092 -1681,4071 -1692,4056 -1720,4038 -1761,4028 -1803,4013 -1816,4004 -1824,3989 " style="fill: white; stroke: black; stroke-width: 30" />
<polyline points="-1836,3956 -1858,3948 -1856,3937 -1841,3930 -1803,3920 -1740,3922 -1667,3939 " style="fill: white; stroke: black; stroke-width: 30" />
<polyline points="-1458,3955 -1488,3950 -1532,3968 -1577,4009 -1592,4042 -1573,4059 -1517,4061 -1438,4044 -1350,3997 -1274,3936 -1232,3877 -1227,3828 -1247,3807 -1278,3811 -1325,3850 -1345,3909 -1334,3963 -1299,3997 -1252,4005 -1194,4007 -1162,4020 -1153,4044 -1156,4062 -1154,4066 " style="fill: white; stroke: black; stroke-width: 30" />
<polyline points="-919,3818 -950,3830 -992,3870 -1032,3937 -1050,3997 -1045,4024 -1039,4025 -1026,4010 -1008,3978 -989,3954 -963,3940 -929,3942 -888,3945 -854,3952 -850,3955 -865,3959 -901,3968 -933,3993 -933,4023 -900,4059 -842,4085 -778,4091 -742,4067 -725,4027 -720,3990 -711,3970 -703,3963 -701,3963 -695,3965 " style="fill: white; stroke: black; stroke-width: 30" />
<polyline points="-379,3896 -396,3887 -420,3885 -485,3907 -560,3947 -586,3976 -574,3991 -522,3999 -430,3994 -321,3965 -220,3914 -145,3862 -124,3825 -136,3817 -168,3822 -213,3853 -257,3907 -271,3964 -244,4009 -196,4032 -128,4036 -84,4043 -73,4045 -78,4049 -82,4047 -57,4026 -10,4003 30,3991 28,3985 -2,3991 -47,4003 -68,4020 -59,4043 -21,4076 24,4105 " style="fill: white; stroke: black; stroke-width: 30" />
<polyline points="154,4044 164,4023 180,4004 197,3988 210,3978 214,3977 219,3983 228,4003 241,4028 244,4052 241,4067 " style="fill: white; stroke: black; stroke-width: 30" />
<polyline points="-1914,4334 -1912,4334 -1927,4348 -1963,4405 -1994,4469 -1992,4516 -1960,4530 -1895,4528 -1818,4521 -1744,4521 -1677,4512 " style="fill: white; stroke: black; stroke-width: 30" />
<polyline points="-1631,4435 -1613,4444 -1578,4460 -1556,4474 -1543,4481 -1550,4487 -1587,4513 -1640,4546 -1666,4563 -1662,4569 " style="fill: white; stroke: black; stroke-width: 30" />
<polyline points="2103,3911 2091,3905 2084,3902 2076,3905 2054,3909 2031,3915 2014,3924 1998,3943 1997,3965 2010,3992 2026,4023 2041,4048 2047,4065 2038,4074 2015,4080 1981,4079 1947,4069 1931,4061 1928,4054 1934,4053 1959,4044 " style="fill: white; stroke: black; stroke-width: 30" />
<polyline points="2226,3971 2207,3974 2193,3980 2175,3997 2165,4017 2158,4034 2154,4049 2167,4060 2196,4058 2244,4036 2300,4006 2318,3992 2323,3987 2322,3987 2313,3996 2280,4028 2244,4076 2221,4117 2225,4143 2245,4154 " style="fill: white; stroke: black; stroke-width: 30" />
<polyline points="2461,4051 2418,4073 2387,4094 2387,4102 2390,4100 2401,4093 2428,4075 2458,4055 2481,4043 2487,4041 2488,4043 2490,4056 2477,4085 2480,4104 " style="fill: white; stroke: black; stroke-width: 30" />
<polyline points="2677,4025 2637,4029 2605,4035 2584,4053 2577,4072 2593,4090 2621,4101 2648,4105 2662,4099 2663,4096 2674,4084 2683,4076 2685,4067 2687,4064 2683,4063 2683,4064 2679,4067 2676,4075 2677,4085 " style="fill: white; stroke: black; stroke-width: 30" />
<polyline points="3028,3996 3023,3989 3015,3992 2998,4005 2975,4028 2967,4055 2969,4082 3001,4099 3057,4095 3097,4076 3125,4049 3125,4042 3117,4042 3110,4044 3097,4056 3092,4078 3085,4099 3092,4118 " style="fill: white; stroke: black; stroke-width: 30" />
<polyline points="3182,4027 3166,4042 3139,4084 3115,4139 3092,4194 3083,4226 3095,4222 3115,4172 3153,4123 3194,4074 3233,4045 3251,4034 3249,4037 3243,4041 3236,4049 3224,4054 3209,4059 3205,4060 3206,4060 3203,4058 3194,4065 " style="fill: white; stroke: black; stroke-width: 30" />
<polyline points="3367,4049 3345,4046 3317,4040 3292,4047 3281,4057 3295,4073 3316,4100 3334,4122 3319,4141 3290,4152 3268,4147 3259,4137 3266,4121 " style="fill: white; stroke: black; stroke-width: 30" />
<polyline points="3565,3926 3555,3929 3518,3952 3478,3994 3450,4042 3430,4079 3432,4095 3433,4098 3436,4093 3449,4074 3461,4050 3473,4036 3478,4030 3480,4034 3490,4033 3501,4045 3506,4062 3507,4083 3503,4108 3499,4133 3499,4140 3521,4133 3542,4117 3556,4101 3570,4083 3581,4079 3577,4084 " style="fill: white; stroke: black; stroke-width: 30" />
<polyline points="4224,3752 " style="fill: white; stroke: black; stroke-width: 30" />
<polyline points="3630,4112 3645,4126 3670,4149 3693,4174 " style="fill: white; stroke: black; stroke-width: 30" />
<polyline points="4341,3719 4369,3710 4381,3718 4389,3765 4433,3776 " style="fill: white; stroke: black; stroke-width: 30" />
<polyline points="3863,4157 3871,4162 3873,4162 3872,4174 3893,4184 " style="fill: white; stroke: black; stroke-width: 30" />
<polyline points="-1261,4597 -1236,4555 -1209,4504 -1200,4455 -1198,4405 -1198,4373 -1200,4356 -1198,4354 -1198,4355 -1199,4368 -1197,4400 -1200,4449 -1196,4493 -1183,4535 -1159,4554 -1111,4543 -1029,4493 -971,4437 -929,4384 -914,4364 -917,4367 -930,4396 -943,4429 -940,4480 -926,4532 -902,4565 " style="fill: white; stroke: black; stroke-width: 30" />
<polyline points="-889,4471 -881,4456 -850,4435 -808,4430 -763,4446 -725,4480 -710,4515 -723,4542 -758,4563 -796,4576 -830,4573 -844,4564 -845,4541 -827,4522 -786,4503 -753,4502 -735,4513 -719,4538 " style="fill: white; stroke: black; stroke-width: 30" />
<polyline points="-551,4486 -579,4466 -602,4454 -615,4456 -637,4473 -646,4505 -643,4535 -644,4564 -655,4583 -669,4595 -687,4595 -701,4588 -710,4564 -708,4552 " style="fill: white; stroke: black; stroke-width: 30" />
<polyline points="-425,4367 -456,4351 -469,4353 -468,4381 -457,4425 -454,4483 -457,4532 -452,4563 -432,4578 " style="fill: white; stroke: black; stroke-width: 30" />
<polyline points="-273,4513 -266,4489 -270,4470 -280,4467 -322,4483 -370,4517 -382,4545 -364,4565 -323,4570 -279,4561 -261,4541 -260,4523 -274,4508 -297,4499 -316,4500 -305,4511 " style="fill: white; stroke: black; stroke-width: 30" />
<polyline points="-126,4491 -132,4476 -147,4466 -171,4474 -211,4493 -233,4527 -231,4555 -214,4574 -175,4582 -141,4575 -118,4557 -118,4547 -127,4543 -123,4551 -102,4564 -71,4587 -45,4606 -32,4614 -39,4607 -35,4580 -23,4535 -8,4505 6,4486 11,4481 " style="fill: white; stroke: black; stroke-width: 30" />
<polyline points="-1212,4801 -1214,4790 -1221,4791 -1249,4837 -1287,4907 -1300,4953 -1282,4973 -1235,4985 -1149,4980 -1061,4958 -1000,4937 -960,4930 " style="fill: white; stroke: black; stroke-width: 30" />
<polyline points="-873,4827 -845,4834 -820,4857 -814,4893 -831,4933 -868,4966 -907,4985 -927,4983 " style="fill: white; stroke: black; stroke-width: 30" />
<polyline points="-690,5106 -684,5099 -644,5064 -566,5010 -490,4949 -436,4893 -425,4848 -415,4837 -425,4843 -448,4879 -458,4924 -445,4983 -423,5034 -409,5069 -397,5073 -398,5060 -429,5024 -471,4986 -509,4965 -526,4962 -522,4964 -509,4973 -478,4980 -431,4983 -386,4978 -339,4967 -302,4948 -292,4937 -292,4929 -294,4929 -307,4935 -326,4955 -328,4968 -321,4979 -300,4982 -267,4980 -240,4975 -238,4979 -239,4993 -242,5006 -240,5014 -231,5023 " style="fill: white; stroke: black; stroke-width: 30" />
<polyline points="42,4875 22,4836 -2,4815 -26,4816 -49,4835 -72,4892 -104,4978 -128,5064 -136,5121 -130,5140 -130,5133 -120,5091 -113,5025 -100,4985 -91,4965 -76,4962 -32,4984 37,5020 " style="fill: white; stroke: black; stroke-width: 30" />
<polyline points="570,4946 574,4925 581,4918 570,4924 531,4957 496,5011 494,5049 519,5071 571,5070 628,5051 660,5022 675,5001 672,4994 674,4994 675,4997 676,5011 690,5032 708,5051 745,5065 783,5058 835,5028 882,4991 901,4965 905,4953 898,4948 890,4948 890,4947 894,4953 907,4966 933,4987 978,5001 1027,5000 1055,4986 1059,4970 1045,4954 1009,4947 971,4954 954,4973 963,5001 1001,5040 1061,5068 " style="fill: white; stroke: black; stroke-width: 30" />
<polyline points="1319,4943 1298,4923 1271,4915 1234,4921 1199,4936 1166,4966 1143,4997 1120,5026 1115,5034 1125,5037 1146,5037 1181,5035 1212,5028 1244,5025 1272,5022 " style="fill: white; stroke: black; stroke-width: 30" />
<polyline points="1452,4914 1440,4912 1421,4920 1398,4941 1370,4966 1353,4992 1337,5011 1333,5035 1337,5060 1343,5083 1330,5092 1306,5094 1275,5085 1253,5081 1247,5077 " style="fill: white; stroke: black; stroke-width: 30" />
<polyline points="1519,4993 1542,4966 1552,4940 1554,4923 1544,4914 1509,4923 1466,4942 1443,4971 1446,4995 1471,5027 1501,5044 1529,5050 1552,5035 1567,5013 1577,4989 1597,4971 1640,4954 1679,4959 1697,4982 1696,5011 1684,5038 1678,5062 " style="fill: white; stroke: black; stroke-width: 30" />
<polyline points="2320,4854 2313,4852 2297,4863 2279,4898 2249,4950 2233,5011 2225,5073 " style="fill: white; stroke: black; stroke-width: 30" />
<polyline points="2344,4922 2283,4937 2265,4956 2283,4977 2317,5012 2369,5041 2405,5047 2444,5038 2466,5017 2471,5007 " style="fill: white; stroke: black; stroke-width: 30" />
<polyline points="2442,4994 2435,4990 2453,4981 2475,4978 2496,4988 2519,5010 2525,5033 2518,5045 2497,5048 2459,5045 2443,5035 2436,5022 2440,5002 2450,4985 2475,4972 " style="fill: white; stroke: black; stroke-width: 30" />
<polyline points="2775,4994 2758,4988 2732,4981 2683,4982 2636,4994 2613,5017 2618,5042 2637,5081 2653,5111 2654,5121 2642,5122 2625,5120 2618,5110 2622,5092 2642,5050 2686,5007 " style="fill: white; stroke: black; stroke-width: 30" />
<polyline points="2820,4927 2860,4909 2896,4902 2899,4914 2891,4929 2848,4963 2787,5000 2750,5037 2738,5060 2742,5074 2759,5081 2796,5081 2842,5069 2898,5055 2940,5032 2946,5024 2927,5017 2875,5028 2852,5041 2847,5064 2855,5085 2893,5087 2923,5085 2950,5077 2956,5074 2948,5082 2944,5093 2938,5110 2943,5116 2956,5120 " style="fill: white; stroke: black; stroke-width: 30" />
<polyline points="3241,4910 3285,4908 3331,4909 3364,4915 3374,4928 3357,4954 3305,4983 3264,5009 3264,5022 3285,5045 " style="fill: white; stroke: black; stroke-width: 30" />
<polyline points="3339,5100 3339,5093 3333,5095 3348,5096 3365,5099 3364,5100 3359,5100 3359,5101 3364,5101 " style="fill: white; stroke: black; stroke-width: 30" />
<polyline points="2333,3261 2321,3257 2321,3256 2325,3260 2325,3274 2320,3335 2314,3391 2302,3463 2294,3511 2296,3543 " style="fill: white; stroke: black; stroke-width: 30" />
<polyline points="2465,3264 2457,3270 2435,3306 2407,3367 2389,3423 2382,3474 2390,3504 2407,3516 " style="fill: white; stroke: black; stroke-width: 30" />
<polyline points="2326,3339 2294,3338 2292,3333 2304,3337 2325,3348 2360,3365 2403,3381 " style="fill: white; stroke: black; stroke-width: 30" />
<polyline points="2614,3373 2603,3367 2593,3361 2579,3361 2564,3358 2538,3355 2509,3356 2489,3365 2473,3377 2470,3392 2478,3404 2500,3430 2546,3454 2608,3467 2659,3461 2682,3448 2684,3421 2669,3387 2647,3354 2636,3344 2636,3336 2638,3338 2637,3339 2639,3343 " style="fill: white; stroke: black; stroke-width: 30" />
<polyline points="2793,3350 2785,3367 2773,3399 2769,3437 2775,3465 2782,3481 2786,3478 2796,3465 2808,3425 2815,3386 2815,3349 2814,3338 2814,3331 2817,3335 2825,3349 2865,3369 2907,3379 2940,3382 " style="fill: white; stroke: black; stroke-width: 30" />
<polyline points="3031,3347 3030,3354 3024,3365 3022,3376 3025,3378 3036,3375 3053,3365 3069,3357 3080,3348 3079,3351 3078,3352 3080,3359 3082,3372 3086,3403 3094,3418 3100,3429 3109,3431 " style="fill: white; stroke: black; stroke-width: 30" />
<polyline points="3311,3219 3295,3217 3269,3237 3235,3278 3202,3337 3197,3389 3217,3425 3246,3438 3283,3424 " style="fill: white; stroke: black; stroke-width: 30" />
<polyline points="3443,3354 3437,3344 3419,3343 3387,3353 3358,3375 3359,3394 3383,3411 3409,3436 3438,3452 3463,3454 3471,3442 3478,3413 3474,3383 3470,3360 3465,3347 3448,3346 3448,3346 " style="fill: white; stroke: black; stroke-width: 30" />
<polyline points="3626,3378 3620,3372 3610,3369 3590,3366 3539,3377 3523,3385 3535,3386 3587,3375 3650,3361 3676,3364 3668,3380 3644,3428 3632,3478 3632,3530 3631,3568 3614,3584 3586,3590 3572,3587 3561,3559 3565,3508 3582,3434 3585,3400 3587,3401 " style="fill: white; stroke: black; stroke-width: 30" />
<polyline points="3808,3383 3786,3376 3767,3379 3759,3388 3746,3414 3741,3438 3747,3453 3757,3460 " style="fill: white; stroke: black; stroke-width: 30" />
<polyline points="3878,3239 3850,3224 3839,3218 3845,3216 3849,3221 " style="fill: white; stroke: black; stroke-width: 30" />
<polyline points="3986,3259 3963,3262 3931,3294 3902,3339 3893,3388 3890,3435 3893,3462 3899,3461 " style="fill: white; stroke: black; stroke-width: 30" />
<polyline points="3999,3358 3970,3354 3941,3359 3920,3375 3916,3395 3926,3430 3950,3456 " style="fill: white; stroke: black; stroke-width: 30" />
<polyline points="-1598,5647 -1609,5647 -1604,5676 -1625,5724 -1651,5807 -1676,5905 -1686,5971 -1658,6012 -1600,6025 -1544,6014 -1485,5996 -1406,5988 -1346,5994 " style="fill: white; stroke: black; stroke-width: 30" />
<polyline points="-1317,5858 -1309,5860 -1298,5871 -1297,5892 -1289,5918 -1277,5962 -1271,6003 -1304,6033 -1353,6049 -1399,6050 " style="fill: white; stroke: black; stroke-width: 30" />
<polyline points="-914,5796 -909,5799 -914,5848 -946,5942 -983,6026 -975,6096 -963,6130 -957,6123 -946,6053 -941,5951 -931,5828 -927,5744 -924,5696 -910,5689 -891,5707 -859,5746 -820,5784 -807,5819 -797,5847 -798,5885 -845,5931 -917,5984 -983,6020 -1031,6056 -1048,6063 -1044,6060 -1010,6058 -968,6048 -907,6037 -842,6018 -779,5985 -707,5956 -658,5934 -651,5919 -657,5909 -660,5899 -667,5896 -679,5900 -700,5912 -722,5941 -710,5965 -688,5988 -650,5996 -599,5998 -545,5982 -526,5968 -524,5958 -525,5962 -536,5971 -556,5990 -556,6002 -541,6020 -537,6040 " style="fill: white; stroke: black; stroke-width: 30" />
<polyline points="-471,6006 -488,6010 -488,6008 -441,5979 -379,5931 -321,5893 -290,5883 -279,5894 -282,5935 -294,5991 -303,6027 " style="fill: white; stroke: black; stroke-width: 30" />

</svg>