<?xml version="1.0" standalone="no"?>
<!DOCTYPE svg PUBLIC "-//W3C//DTD SVG 1.1//EN" "http://www.w3.org/Graphics/SVG/1.1/DTD/svg11.dtd">
<svg width="210mm" height="297mm" viewBox="-7000 500 14000 20000" version="1.1" xmlns="http://www.w3.org/2000/svg">

<polyline points="-2923,1544 -2931,1531 -2939,1540 -2960,1583 -2984,1681 -2979,1776 -2959,1812 -2952,1812 -2968,1765 -3004,1695 -3040,1620 -3058,1532 -3040,1475 -2996,1442 -2919,1434 -2855,1459 -2814,1532 -2826,1632 -2878,1722 -2941,1773 -2997,1777 -3054,1742 -3097,1696 -3105,1670 -3074,1650 " style="fill: white; stroke: black; stroke-width: 30" />
<polyline points="-2794,1780 -2783,1788 -2775,1784 -2746,1772 -2713,1738 -2697,1709 -2709,1691 -2750,1682 -2813,1723 -2845,1781 -2821,1835 -2738,1863 -2619,1847 -2522,1796 -2478,1744 -2484,1718 -2501,1714 -2514,1728 -2515,1753 -2503,1818 -2490,1896 -2488,1947 -2504,1965 -2545,1957 -2606,1902 -2649,1846 -2657,1831 -2650,1830 -2578,1816 -2467,1789 -2377,1769 -2334,1762 -2337,1767 -2351,1798 -2371,1840 -2375,1873 -2366,1885 -2347,1869 " style="fill: white; stroke: black; stroke-width: 30" />
<polyline points="-2346,1547 -2366,1529 -2375,1519 -2381,1515 -2375,1512 -2370,1514 -2363,1515 -2354,1528 -2348,1542 -2349,1551 -2353,1552 -2365,1546 -2377,1524 -2383,1512 -2385,1495 -2383,1488 -2361,1488 -2323,1524 -2299,1582 -2305,1613 -2333,1613 -2376,1586 -2398,1541 -2392,1518 " style="fill: white; stroke: black; stroke-width: 30" />
<polyline points="-2104,1771 -2095,1757 -2093,1729 -2098,1684 -2133,1636 -2198,1638 -2251,1685 -2264,1753 -2232,1816 -2159,1843 -2061,1789 -1974,1683 " style="fill: white; stroke: black; stroke-width: 30" />
<polyline points="-2066,1694 -2080,1709 -2086,1760 -2081,1884 -2078,2041 -2101,2170 -2138,2248 -2167,2271 -2186,2234 -2207,2093 " style="fill: white; stroke: black; stroke-width: 30" />
<polyline points="-1977,1853 -1990,1835 -1981,1772 -1939,1707 -1887,1684 -1838,1700 -1807,1736 -1801,1776 -1802,1807 -1801,1835 " style="fill: white; stroke: black; stroke-width: 30" />
<polyline points="1169,1516 1163,1516 1157,1532 1154,1646 1143,1903 1125,2231 1119,2479 1125,2631 1142,2725 1164,2734 " style="fill: white; stroke: black; stroke-width: 30" />
<polyline points="1126,1602 1082,1618 1072,1617 1085,1622 1133,1624 1239,1630 1342,1622 1415,1603 1431,1595 1428,1593 1423,1591 1417,1591 1414,1592 1414,1592 1413,1593 1412,1600 1402,1630 1379,1761 1311,2071 1265,2359 1258,2521 1260,2608 1258,2631 1258,2632 1258,2629 1258,2629 1258,2627 1258,2629 1259,2628 1259,2629 1266,2607 " style="fill: white; stroke: black; stroke-width: 30" />
<polyline points="1097,2746 1067,2752 1041,2756 1040,2758 1063,2752 1151,2737 1249,2707 1322,2688 1361,2675 " style="fill: white; stroke: black; stroke-width: 30" />
<polyline points="1614,1683 1603,1679 1596,1677 1588,1689 1581,1725 1572,1891 1531,2332 1488,2904 1458,3282 1449,3532 1450,3720 1469,3828 1488,3862 1506,3864 " style="fill: white; stroke: black; stroke-width: 30" />
<polyline points="1793,1729 1799,1703 1790,1698 1784,1704 1775,1730 1768,1821 1744,2098 1723,2414 1716,2639 1728,2765 1729,2851 1729,2880 1732,2878 1734,2830 " style="fill: white; stroke: black; stroke-width: 30" />
<polyline points="1773,1679 1760,1680 1760,1677 1767,1677 1780,1686 1809,1698 1854,1708 1901,1711 1937,1707 1971,1701 1979,1697 1978,1700 1977,1699 1976,1699 1975,1695 1972,1695 1965,1696 1963,1696 1958,1696 1953,1709 1939,1824 1923,2067 1900,2341 1875,2535 1866,2660 1862,2741 1860,2798 1859,2822 1859,2820 1862,2819 1863,2817 1862,2820 1864,2820 1869,2823 " style="fill: white; stroke: black; stroke-width: 30" />
<polyline points="1656,2866 1663,2862 1702,2853 1772,2849 1822,2844 1865,2834 1897,2815 " style="fill: white; stroke: black; stroke-width: 30" />
<polyline points="1325,1902 1342,1895 1340,1893 1345,1892 1363,1887 1398,1887 " style="fill: white; stroke: black; stroke-width: 30" />
<polyline points="1277,2259 1293,2253 1318,2251 1363,2254 1423,2258 1476,2265 " style="fill: white; stroke: black; stroke-width: 30" />
<polyline points="1268,2506 1304,2494 1363,2476 1409,2472 1461,2472 1530,2473 " style="fill: white; stroke: black; stroke-width: 30" />
<polyline points="1659,1934 1665,1927 1681,1925 1711,1923 1759,1913 1808,1902 " style="fill: white; stroke: black; stroke-width: 30" />
<polyline points="1583,2223 1591,2221 1603,2216 1631,2213 1681,2203 1750,2191 " style="fill: white; stroke: black; stroke-width: 30" />
<polyline points="1565,2542 1612,2540 1635,2537 1637,2538 1655,2535 1708,2531 " style="fill: white; stroke: black; stroke-width: 30" />
<polyline points="893,2070 861,2071 802,2106 713,2262 697,2503 807,2753 " style="fill: white; stroke: black; stroke-width: 30" />
<polyline points="535,2059 425,2118 303,2278 271,2512 370,2798 536,2975 " style="fill: white; stroke: black; stroke-width: 30" />
<polyline points="109,1914 -60,2085 -158,2359 -102,2719 120,3196 " style="fill: white; stroke: black; stroke-width: 30" />
<polyline points="2234,2169 2216,2158 2222,2152 2263,2179 2326,2269 2364,2451 2341,2671 2233,2841 2092,2957 " style="fill: white; stroke: black; stroke-width: 30" />
<polyline points="2573,2138 2606,2126 2680,2213 2675,2400 2543,2678 2377,2891 2268,3000 " style="fill: white; stroke: black; stroke-width: 30" />
<polyline points="3119,2031 3142,2157 3118,2358 3011,2635 2837,2924 2665,3124 " style="fill: white; stroke: black; stroke-width: 30" />
<polyline points="-1828,4185 -1840,4199 -1873,4296 -1937,4567 -1975,4817 -1933,4958 " style="fill: white; stroke: black; stroke-width: 30" />
<polyline points="-1841,4182 -1844,4184 -1826,4185 -1751,4197 -1627,4212 -1495,4225 -1404,4222 -1363,4216 -1363,4215 -1375,4216 -1384,4216 -1393,4216 -1397,4215 -1397,4220 -1409,4252 -1462,4442 -1539,4704 -1592,4859 -1621,4939 -1619,4955 -1620,4953 -1621,4948 -1623,4943 -1622,4944 -1619,4945 -1619,4945 -1617,4944 -1619,4945 -1625,4943 -1642,4940 -1709,4931 -1819,4927 -1933,4915 -1962,4911 -1961,4908 -1956,4907 -1942,4904 -1924,4903 -1897,4893 " style="fill: white; stroke: black; stroke-width: 30" />
<polyline points="-1410,4239 -1416,4234 -1417,4219 -1405,4204 -1358,4150 -1264,4069 -1179,4013 -1141,3995 -1137,3990 -1137,3991 -1141,3993 -1144,3996 -1145,3994 -1143,3996 " style="fill: white; stroke: black; stroke-width: 30" />
<polyline points="-1194,3977 -1200,3950 -1176,3908 -1129,3870 -1086,3863 -1061,3892 -1063,3945 -1108,4007 -1153,4027 -1184,4005 -1189,3976 -1183,3946 -1167,3936 -1152,3948 -1138,3971 -1137,3996 -1154,3998 -1181,3994 -1196,3977 -1195,3966 -1186,3944 -1156,3894 " style="fill: white; stroke: black; stroke-width: 30" />
<polyline points="-1068,3682 -1085,3667 -1072,3678 -1009,3748 -953,3860 -926,3963 -942,4042 " style="fill: white; stroke: black; stroke-width: 30" />
<polyline points="-1125,3483 -1092,3475 -1025,3503 -939,3600 -883,3734 -884,3873 -924,3977 " style="fill: white; stroke: black; stroke-width: 30" />
<polyline points="-921,3138 -843,3103 -761,3144 -714,3289 -722,3506 -785,3718 -832,3884 " style="fill: white; stroke: black; stroke-width: 30" />
<polyline points="-1766,5740 -1792,5685 -1794,5621 -1742,5563 -1628,5528 -1518,5572 -1466,5671 -1491,5811 -1578,5916 -1696,5982 -1795,5982 -1879,5931 -1912,5867 -1884,5785 -1791,5708 " style="fill: white; stroke: black; stroke-width: 30" />
<polyline points="-1751,5987 -1745,5986 -1717,6046 -1706,6281 -1740,6594 -1772,6812 -1785,7001 " style="fill: white; stroke: black; stroke-width: 30" />
<polyline points="-2113,7426 -2167,7438 -2145,7383 -2047,7281 -1875,7148 -1692,7057 -1560,7102 -1513,7281 -1520,7445 -1509,7534 " style="fill: white; stroke: black; stroke-width: 30" />
<polyline points="-1981,6009 -1981,6125 -1942,6300 -1851,6407 -1707,6430 -1555,6388 -1431,6313 " style="fill: white; stroke: black; stroke-width: 30" />
<polyline points="-1449,7400 -1443,7386 -1438,7353 -1440,7316 -1442,7304 -1433,7306 -1422,7313 -1411,7334 -1409,7361 -1434,7394 -1469,7403 -1501,7402 -1539,7374 -1553,7348 -1540,7336 -1514,7331 -1477,7353 -1448,7406 -1437,7426 " style="fill: white; stroke: black; stroke-width: 30" />
<polyline points="-2072,7323 -2090,7315 -2092,7295 -2086,7266 -2053,7248 -2000,7256 -1955,7295 -1957,7319 -1987,7336 -2043,7330 -2082,7309 -2095,7293 -2098,7287 -2092,7280 " style="fill: white; stroke: black; stroke-width: 30" />
<polyline points="-1421,6368 -1428,6360 -1400,6314 -1384,6264 -1368,6254 -1361,6269 -1350,6323 -1362,6383 -1385,6398 -1403,6390 -1420,6364 -1426,6348 -1425,6343 " style="fill: white; stroke: black; stroke-width: 30" />
<polyline points="-2113,6268 -2094,6239 -2052,6175 -2028,6146 -2021,6151 -2017,6186 -2014,6219 -2005,6234 -2007,6243 -2020,6254 -2050,6256 -2072,6247 -2076,6226 -2055,6202 -2023,6189 -1997,6198 -1980,6220 -1989,6250 -2010,6262 -2029,6263 -2036,6257 -2039,6253 -2033,6245 " style="fill: white; stroke: black; stroke-width: 30" />
<polyline points="-1717,6077 -1731,6062 -1729,6040 -1709,5996 -1680,5979 -1643,5979 -1605,6004 -1594,6061 -1615,6094 -1646,6104 -1693,6087 -1729,6050 -1741,6010 -1738,5995 -1712,5988 -1654,5982 -1611,5996 -1598,6022 -1621,6051 -1680,6079 -1755,6088 -1783,6077 -1778,6063 -1727,6011 -1657,5972 -1600,5979 -1575,6001 -1577,6032 -1602,6056 -1667,6075 -1723,6063 -1737,6048 -1731,6042 -1708,6031 -1672,6021 -1646,6024 -1638,6030 " style="fill: white; stroke: black; stroke-width: 30" />
<polyline points="-1064,5587 -1070,5588 -1078,5607 -1096,5677 -1099,5747 -1094,5785 -1093,5788 -1093,5779 -1095,5729 -1083,5643 -1040,5557 -994,5521 -950,5520 -935,5547 -959,5609 -1022,5676 -1091,5714 -1113,5726 -1110,5726 -1090,5745 -1065,5763 -1030,5783 -973,5790 -884,5770 " style="fill: white; stroke: black; stroke-width: 30" />
<polyline points="-751,5564 -759,5588 -784,5666 -814,5757 -817,5808 -809,5822 " style="fill: white; stroke: black; stroke-width: 30" />
<polyline points="-872,5624 -889,5562 -889,5530 -881,5526 -846,5524 -769,5530 -678,5539 -598,5546 " style="fill: white; stroke: black; stroke-width: 30" />
<polyline points="-913,5638 -921,5640 -907,5645 -851,5665 -756,5691 -669,5707 -602,5724 -573,5747 -568,5762 -574,5778 -585,5792 -595,5818 -596,5832 -599,5835 -590,5829 -573,5799 " style="fill: white; stroke: black; stroke-width: 30" />
<polyline points="-508,5560 -508,5550 -493,5549 -451,5572 -426,5613 -442,5641 -481,5647 -532,5623 -566,5581 -573,5547 -545,5519 " style="fill: white; stroke: black; stroke-width: 30" />
<polyline points="-449,5804 -442,5796 -416,5777 -382,5741 -381,5718 -416,5709 -480,5722 -520,5765 -516,5798 -474,5819 -397,5794 -298,5685 -235,5572 -232,5529 -248,5525 -264,5541 -273,5612 -288,5723 -294,5838 " style="fill: white; stroke: black; stroke-width: 30" />
<polyline points="-948,5919 -950,5910 -955,5912 -972,5937 -1009,6031 -1045,6152 -1045,6207 -1014,6228 -945,6227 -850,6217 -781,6214 -732,6214 " style="fill: white; stroke: black; stroke-width: 30" />
<polyline points="-1031,5891 -1044,5885 -1042,5884 -1009,5886 -950,5893 -852,5916 " style="fill: white; stroke: black; stroke-width: 30" />
<polyline points="-785,6129 -777,6128 -758,6129 -713,6130 -658,6138 -606,6169 -570,6212 -572,6243 -611,6271 -689,6312 -755,6340 -788,6356 -793,6357 -786,6349 " style="fill: white; stroke: black; stroke-width: 30" />
<polyline points="-348,6049 -345,6046 -353,6090 -383,6191 -408,6292 -429,6367 -407,6394 " style="fill: white; stroke: black; stroke-width: 30" />
<polyline points="-160,6047 -218,6058 -283,6085 -361,6162 -391,6232 -375,6269 -327,6297 -249,6303 -183,6291 -140,6270 -120,6255 -125,6258 -131,6256 -141,6251 -144,6240 -150,6233 -173,6231 -225,6265 -233,6290 -215,6318 -160,6342 -89,6337 -2,6293 " style="fill: white; stroke: black; stroke-width: 30" />
<polyline points="120,5946 106,5945 82,5974 30,6082 -12,6208 -5,6262 30,6297 88,6296 130,6304 138,6329 135,6347 147,6347 " style="fill: white; stroke: black; stroke-width: 30" />
<polyline points="271,6061 267,6070 " style="fill: white; stroke: black; stroke-width: 30" />
<polyline points="301,6039 291,6031 281,6035 269,6059 234,6152 203,6262 202,6314 225,6337 291,6331 381,6309 " style="fill: white; stroke: black; stroke-width: 30" />
<polyline points="535,6017 522,6022 501,6062 443,6187 385,6305 378,6362 411,6377 " style="fill: white; stroke: black; stroke-width: 30" />
<polyline points="575,6166 511,6169 428,6207 391,6268 393,6316 445,6350 535,6343 630,6303 672,6259 667,6245 659,6242 651,6242 640,6244 619,6252 610,6257 604,6263 599,6265 598,6268 599,6274 595,6297 605,6312 631,6326 673,6328 703,6313 710,6296 714,6270 703,6236 681,6214 657,6207 646,6213 638,6225 648,6251 686,6266 742,6274 818,6275 863,6273 877,6260 870,6245 861,6237 850,6241 848,6250 836,6284 828,6317 819,6374 813,6435 821,6479 822,6507 828,6503 828,6470 840,6389 869,6283 913,6214 954,6191 994,6214 1010,6260 997,6303 958,6340 889,6355 825,6337 805,6304 814,6269 852,6242 938,6211 1024,6198 " style="fill: white; stroke: black; stroke-width: 30" />
<polyline points="1181,6165 1186,6156 1184,6142 1181,6129 1182,6106 1181,6086 1173,6056 1151,6041 1109,6043 1067,6090 1032,6184 1022,6321 1036,6437 1052,6518 1057,6562 1058,6562 1035,6534 1021,6487 1041,6450 1073,6414 1119,6396 1167,6393 1218,6398 " style="fill: white; stroke: black; stroke-width: 30" />
<polyline points="1543,5293 1527,5272 1497,5258 1450,5253 1388,5262 1320,5299 1285,5342 1290,5398 1338,5450 1447,5482 1589,5464 " style="fill: white; stroke: black; stroke-width: 30" />
<polyline points="1854,5256 1838,5253 1789,5289 1701,5391 1652,5464 1675,5497 1729,5521 1811,5507 1869,5461 1872,5422 1839,5411 1794,5416 1766,5445 1772,5498 1812,5558 " style="fill: white; stroke: black; stroke-width: 30" />
<polyline points="2039,5265 2019,5271 1987,5303 1957,5372 1971,5419 2026,5445 2100,5437 2139,5429 2143,5428 2144,5432 " style="fill: white; stroke: black; stroke-width: 30" />
<polyline points="2157,5315 2111,5306 2080,5334 2028,5455 2005,5564 2011,5640 " style="fill: white; stroke: black; stroke-width: 30" />
<polyline points="2780,5285 2734,5261 2637,5267 2538,5317 2526,5358 2556,5431 2592,5494 2590,5529 2554,5536 2496,5517 2438,5475 2434,5458 2462,5450 2579,5427 " style="fill: white; stroke: black; stroke-width: 30" />
<polyline points="2864,5276 2867,5249 2866,5247 2842,5282 2773,5389 2714,5488 2691,5540 2689,5555 2696,5547 2707,5523 2735,5466 2745,5438 2743,5434 2742,5435 2742,5439 2757,5452 2812,5456 2877,5445 2960,5394 3014,5359 3011,5351 2977,5363 2921,5405 2887,5449 2882,5481 2897,5501 2938,5513 3008,5484 3032,5463 3033,5462 3027,5465 2987,5496 2882,5582 2803,5657 2759,5729 2739,5776 " style="fill: white; stroke: black; stroke-width: 30" />
<polyline points="3256,5281 3247,5290 3200,5337 3113,5433 3072,5500 3088,5530 3144,5537 3244,5497 3312,5439 3314,5416 3270,5404 3222,5435 3209,5480 3223,5527 3256,5554 3304,5554 3331,5539 3335,5528 3335,5529 3345,5529 3364,5534 3386,5531 3390,5526 3393,5513 3398,5507 3398,5504 3400,5504 3399,5502 3401,5502 3405,5498 3406,5500 3403,5501 3402,5502 3402,5502 3399,5514 " style="fill: white; stroke: black; stroke-width: 30" />
<polyline points="663,7966 689,7938 690,7911 657,7881 587,7855 498,7864 456,7893 461,7933 501,8020 551,8120 572,8200 559,8228 525,8232 475,8209 440,8172 433,8154 434,8141 448,8143 " style="fill: white; stroke: black; stroke-width: 30" />
<polyline points="802,7823 769,7827 739,7856 699,7948 669,8049 664,8111 671,8128 683,8125 728,8099 774,8071 793,8082 793,8114 811,8146 " style="fill: white; stroke: black; stroke-width: 30" />
<polyline points="965,8001 963,7971 972,7963 1002,7973 1036,8006 1042,8052 1010,8097 953,8124 903,8116 890,8076 896,8034 921,8023 956,8041 995,8097 1028,8132 " style="fill: white; stroke: black; stroke-width: 30" />
<polyline points="1081,8085 1058,8092 1061,8092 1070,8089 1112,8061 1148,8045 1159,8046 1164,8062 1170,8092 1187,8113 " style="fill: white; stroke: black; stroke-width: 30" />
<polyline points="1383,8033 1343,8008 1273,8027 1224,8078 1226,8124 1279,8151 1365,8123 1414,8079 1412,8052 1382,8041 1362,8046 1375,8057 1408,8084 1428,8114 1422,8141 1424,8140 1451,8109 1519,8066 1567,8057 1569,8077 1551,8109 1536,8134 " style="fill: white; stroke: black; stroke-width: 30" />
<polyline points="2308,7868 2277,7899 2209,7982 2155,8097 2140,8144 2135,8160 2147,8138 2204,8051 2265,7944 2300,7893 2289,7893 2252,7918 2193,8002 2163,8084 2180,8134 2256,8163 2389,8130 2508,8043 2543,7963 2520,7935 2489,7925 2471,7927 2465,7942 2453,7975 2442,7997 2441,8006 2459,8001 " style="fill: white; stroke: black; stroke-width: 30" />
<polyline points="2541,8054 2541,8048 2535,8051 2516,8074 2467,8121 2442,8163 2460,8178 2524,8173 2622,8123 2647,8105 2627,8114 2539,8181 2444,8272 2412,8330 2408,8365 " style="fill: white; stroke: black; stroke-width: 30" />
<polyline points="2918,7886 2914,7884 2891,7894 2806,7987 2753,8056 2708,8116 2704,8131 2696,8135 2697,8132 2694,8129 2697,8127 2702,8122 2701,8122 2697,8122 2703,8123 2705,8120 2701,8123 2700,8124 2695,8128 2699,8127 2701,8128 2701,8128 2703,8129 2701,8129 2704,8128 2703,8128 2704,8128 2701,8129 2704,8131 2698,8131 2697,8132 2697,8132 2704,8131 2695,8132 2698,8131 2693,8132 2697,8133 2697,8132 2697,8134 2724,8137 2799,8129 2859,8098 2880,8069 2872,8046 2863,8030 2843,8020 2833,8013 2825,8006 2820,8005 2823,8003 2825,8005 2822,8005 2819,8007 2815,8008 2821,8008 2824,8007 2825,8009 2826,8007 2836,8010 2851,8016 2872,8021 2883,8026 2909,8032 2926,8039 2925,8046 2919,8047 2918,8047 2916,8048 2876,8117 2826,8227 2770,8352 2740,8451 2714,8535 " style="fill: white; stroke: black; stroke-width: 30" />
<polyline points="2643,8194 2642,8192 2707,8190 2867,8164 2994,8102 3064,8030 3076,8003 3069,8003 3069,8004 3060,8010 3032,8043 3003,8085 3002,8103 3005,8111 3019,8116 3066,8121 3098,8116 3096,8121 3084,8129 3080,8144 3085,8164 3098,8181 3150,8175 " style="fill: white; stroke: black; stroke-width: 30" />
<polyline points="3263,8113 3258,8114 3245,8121 3219,8146 3191,8183 3171,8216 " style="fill: white; stroke: black; stroke-width: 30" />
<polyline points="3329,7929 3320,7921 3321,7923 3340,7948 " style="fill: white; stroke: black; stroke-width: 30" />
<polyline points="3512,8064 3470,8033 3429,8037 3413,8059 3390,8126 3368,8178 3350,8202 3337,8208 3337,8195 3389,8126 " style="fill: white; stroke: black; stroke-width: 30" />
<polyline points="3759,7911 3739,7909 3685,7965 3584,8061 3494,8133 3449,8175 3446,8183 3460,8173 3503,8154 3537,8145 3582,8135 3649,8124 " style="fill: white; stroke: black; stroke-width: 30" />
<polyline points="1995,12756 " style="fill: white; stroke: black; stroke-width: 30" />
<polyline points="-2981,9367 -2988,9338 -2998,9319 -3004,9313 -3025,9320 -3054,9348 -3072,9415 -3070,9488 -3051,9539 -3011,9552 -2952,9519 -2920,9488 -2911,9488 -2913,9506 -2901,9535 -2844,9556 -2746,9504 -2675,9438 -2663,9402 -2693,9389 -2719,9375 -2735,9373 -2724,9372 -2726,9371 -2726,9371 -2727,9375 -2722,9377 -2727,9377 -2725,9376 -2720,9377 -2721,9375 -2719,9376 -2723,9374 -2717,9374 " style="fill: white; stroke: black; stroke-width: 30" />
<polyline points="-2604,9462 -2601,9476 -2601,9497 -2605,9548 -2616,9614 -2621,9656 -2626,9650 " style="fill: white; stroke: black; stroke-width: 30" />
<polyline points="-2632,9256 -2636,9254 -2628,9253 -2574,9279 -2538,9326 -2541,9362 -2570,9388 -2625,9378 -2664,9328 -2687,9274 -2668,9243 " style="fill: white; stroke: black; stroke-width: 30" />
<polyline points="-2537,9525 -2552,9552 -2548,9600 -2530,9647 -2530,9654 -2529,9643 -2534,9590 -2534,9521 -2526,9498 -2514,9493 -2475,9508 -2454,9534 -2418,9552 -2377,9553 -2322,9537 -2309,9521 -2320,9503 -2371,9503 -2420,9533 -2444,9583 -2422,9636 -2358,9662 -2267,9628 -2166,9551 -2120,9468 -2110,9406 -2112,9378 -2133,9368 -2163,9375 -2207,9418 -2226,9492 -2230,9579 -2201,9624 -2150,9642 -2107,9620 -2065,9578 -2026,9543 -1980,9520 -1963,9504 -1966,9502 -2003,9494 -2061,9503 -2081,9525 -2082,9558 -2059,9607 -1999,9637 -1922,9627 " style="fill: white; stroke: black; stroke-width: 30" />
<polyline points="-1741,9424 -1785,9424 -1810,9440 -1822,9502 -1834,9565 -1837,9625 -1849,9650 -1869,9652 -1877,9636 -1884,9620 -1845,9586 -1744,9533 -1657,9487 -1607,9457 -1611,9450 -1622,9455 -1639,9479 -1661,9545 -1661,9624 -1659,9688 -1665,9706 -1682,9701 -1712,9674 -1730,9645 -1735,9640 " style="fill: white; stroke: black; stroke-width: 30" />
<polyline points="-649,9492 -641,9488 -644,9475 -659,9437 -701,9387 -792,9357 -896,9382 -986,9490 -997,9627 -952,9739 -873,9794 -809,9795 -762,9736 " style="fill: white; stroke: black; stroke-width: 30" />
<polyline points="-837,9558 -834,9558 -812,9561 -786,9575 -778,9591 -788,9643 -827,9716 -840,9767 -817,9784 " style="fill: white; stroke: black; stroke-width: 30" />
<polyline points="-702,9632 -715,9634 -686,9640 -625,9634 -558,9612 -522,9586 -530,9564 -583,9551 -676,9569 -723,9617 -716,9672 -634,9719 -510,9712 " style="fill: white; stroke: black; stroke-width: 30" />
<polyline points="-289,9538 -334,9536 -362,9543 -368,9563 -380,9636 -383,9729 -378,9782 -397,9789 -420,9776 -449,9720 -398,9596 -271,9469 -141,9388 -85,9364 -123,9389 -189,9492 -264,9611 -288,9673 -282,9685 -286,9671 -275,9619 -264,9608 -257,9614 -214,9640 -146,9657 -80,9642 -62,9620 -84,9621 -128,9647 -145,9685 -138,9709 -79,9712 -44,9698 -37,9702 -42,9737 -43,9772 " style="fill: white; stroke: black; stroke-width: 30" />
<polyline points="51,9722 35,9759 38,9776 38,9779 46,9762 53,9733 58,9703 82,9690 128,9687 180,9708 248,9722 308,9708 300,9678 228,9668 172,9698 158,9765 221,9824 333,9846 427,9820 " style="fill: white; stroke: black; stroke-width: 30" />
<polyline points="2209,1536 2198,1535 2199,1523 2221,1495 2279,1418 2349,1335 2385,1287 2398,1272 2388,1276 2354,1294 " style="fill: white; stroke: black; stroke-width: 30" />
<polyline points="2225,1311 2212,1303 2207,1300 2212,1310 2237,1356 2293,1425 2362,1483 2421,1530 " style="fill: white; stroke: black; stroke-width: 30" />
<polyline points="2588,1207 2579,1203 2576,1196 2574,1200 2571,1210 2567,1240 2563,1317 2563,1423 2568,1500 2572,1540 2572,1543 2572,1526 2574,1438 2572,1314 2561,1211 2549,1183 2537,1173 2533,1174 2534,1178 2543,1200 2565,1276 2580,1363 2610,1435 2669,1504 2744,1538 2828,1517 2888,1452 2922,1375 2929,1263 2906,1188 2854,1156 2830,1161 2831,1167 2839,1171 2844,1170 2851,1163 2855,1159 2854,1163 " style="fill: white; stroke: black; stroke-width: 30" />
<polyline points="-1191,4596 -1202,4594 -1199,4585 -1174,4564 -1109,4505 -1046,4449 -1013,4417 -1007,4404 " style="fill: white; stroke: black; stroke-width: 30" />
<polyline points="-1182,4394 -1192,4403 -1197,4412 -1188,4440 -1136,4530 -1076,4623 -1008,4693 " style="fill: white; stroke: black; stroke-width: 30" />
<polyline points="-883,4639 -885,4635 -884,4619 -867,4558 -849,4477 -844,4391 -842,4342 -839,4332 -839,4330 -839,4337 -839,4345 -837,4367 -834,4417 -822,4471 -792,4519 -739,4562 -677,4577 -611,4556 -559,4498 -538,4426 -544,4362 -558,4303 -568,4268 -572,4267 -576,4264 -589,4261 " style="fill: white; stroke: black; stroke-width: 30" />
<polyline points="-1019,7523 -1028,7526 -1030,7520 -1008,7499 -962,7444 -929,7398 -897,7360 -889,7354 -891,7357 " style="fill: white; stroke: black; stroke-width: 30" />
<polyline points="-1052,7371 -1077,7358 -1083,7353 -1086,7352 -1061,7368 -1016,7427 -941,7521 -852,7609 " style="fill: white; stroke: black; stroke-width: 30" />
<polyline points="-787,7638 -784,7635 -787,7616 -770,7565 -745,7448 -714,7324 -694,7251 -700,7237 -703,7241 -707,7251 -711,7269 -722,7350 -716,7430 -682,7528 -617,7570 -554,7571 -497,7540 -439,7453 -386,7318 -380,7224 -391,7198 -417,7187 -439,7182 -437,7183 -433,7180 -427,7177 -406,7175 " style="fill: white; stroke: black; stroke-width: 30" />
<polyline points="-2769,10905 -2770,10891 -2771,10892 -2777,10909 -2792,10985 -2802,11082 -2795,11147 -2794,11171 -2790,11165 -2792,11127 -2792,11012 -2782,10892 -2749,10831 -2707,10814 -2668,10831 -2656,10875 -2656,10930 -2695,10997 -2742,11051 -2768,11092 -2761,11121 -2738,11146 -2683,11158 -2610,11155 " style="fill: white; stroke: black; stroke-width: 30" />
<polyline points="-2561,11089 -2577,11091 -2565,11097 -2522,11109 -2477,11100 -2457,11079 -2455,11059 -2516,11040 -2576,11059 -2601,11086 -2589,11115 -2537,11153 -2457,11181 -2400,11199 " style="fill: white; stroke: black; stroke-width: 30" />
<polyline points="-2353,11096 -2377,11093 -2378,11096 -2363,11154 -2384,11209 -2383,11250 -2386,11254 -2391,11253 -2394,11247 -2384,11242 -2399,11207 -2378,11148 -2367,11110 -2352,11088 -2337,11080 -2310,11091 -2290,11123 -2297,11158 -2291,11171 -2282,11174 -2276,11164 -2245,11155 -2231,11152 -2227,11156 -2234,11157 -2218,11166 -2226,11170 -2203,11192 " style="fill: white; stroke: black; stroke-width: 30" />
<polyline points="-2096,11108 -2114,11121 -2121,11159 -2144,11246 -2154,11335 -2173,11389 -2178,11417 -2185,11416 -2184,11385 -2142,11248 -2095,11147 -2055,11109 -2026,11109 -2021,11130 -2033,11161 -2085,11203 -2132,11227 -2153,11223 -2149,11213 -2119,11207 -2072,11204 -2018,11203 -1930,11180 -1827,11135 -1787,11080 -1794,11055 -1826,11061 -1869,11101 -1890,11161 -1880,11197 -1852,11214 -1796,11204 -1737,11162 -1703,11107 -1651,11034 -1619,10978 -1635,10972 -1650,10986 -1678,11042 -1711,11120 -1712,11171 -1702,11218 -1673,11249 -1642,11260 -1607,11231 " style="fill: white; stroke: black; stroke-width: 30" />
<polyline points="-1215,11169 -1231,11161 -1217,11153 -1202,11152 -1185,11153 -1148,11164 -1102,11171 " style="fill: white; stroke: black; stroke-width: 30" />
<polyline points="-1168,11130 -1172,11129 -1161,11128 -1114,11128 -1050,11125 " style="fill: white; stroke: black; stroke-width: 30" />
<polyline points="-507,11123 -486,11078 -474,11054 -487,11058 -496,11082 -552,11184 -579,11305 -564,11390 " style="fill: white; stroke: black; stroke-width: 30" />
<polyline points="-350,11112 -441,11126 -565,11194 -634,11261 -604,11288 -517,11315 -375,11298 " style="fill: white; stroke: black; stroke-width: 30" />
<polyline points="-282,11239 -303,11234 -310,11231 -333,11237 -372,11265 -390,11295 -382,11304 -350,11314 -294,11305 -273,11290 -264,11282 -266,11275 -287,11270 -300,11269 -300,11271 -302,11276 -286,11289 -237,11294 -168,11262 -70,11187 2,11089 10,11026 -10,11017 -81,11055 -152,11161 -168,11250 -139,11306 -81,11315 -4,11252 44,11180 39,11150 33,11151 21,11159 -11,11208 -36,11256 -47,11303 -24,11335 21,11345 113,11322 185,11299 200,11276 184,11261 172,11256 161,11256 165,11254 167,11255 165,11256 165,11257 161,11257 165,11258 157,11256 163,11255 161,11251 163,11248 152,11244 137,11239 114,11238 110,11248 95,11278 126,11324 154,11348 197,11356 " style="fill: white; stroke: black; stroke-width: 30" />
<polyline points="341,11101 320,11086 307,11093 292,11151 267,11241 239,11314 235,11354 238,11362 263,11343 " style="fill: white; stroke: black; stroke-width: 30" />
<polyline points="397,11244 358,11239 278,11249 225,11276 217,11298 247,11325 316,11337 401,11311 514,11257 586,11201 608,11180 599,11176 589,11179 564,11195 539,11235 507,11284 462,11346 479,11391 499,11406 526,11388 " style="fill: white; stroke: black; stroke-width: 30" />
<polyline points="490,11280 480,11267 480,11261 502,11264 513,11274 554,11291 623,11306 656,11310 662,11306 649,11309 637,11320 619,11339 611,11359 635,11369 667,11349 " style="fill: white; stroke: black; stroke-width: 30" />
<polyline points="723,11188 701,11174 694,11170 686,11170 696,11167 698,11166 690,11168 701,11175 " style="fill: white; stroke: black; stroke-width: 30" />
<polyline points="776,11210 757,11211 729,11244 699,11308 691,11368 702,11400 728,11406 798,11382 841,11348 855,11331 850,11326 844,11330 834,11336 834,11342 831,11356 867,11374 927,11394 1022,11394 1091,11362 1104,11311 1079,11275 1035,11269 977,11296 967,11326 987,11358 1062,11401 1158,11419 1204,11421 1200,11404 1187,11386 1192,11371 1213,11361 1234,11356 1245,11356 1241,11362 1240,11394 1235,11446 1227,11491 1213,11513 1186,11506 1168,11476 1160,11461 1177,11453 1181,11455 " style="fill: white; stroke: black; stroke-width: 30" />
<polyline points="2136,11099 2120,11087 2122,11072 2106,11066 2066,11069 2022,11089 1965,11131 1928,11168 1916,11199 1925,11219 1982,11254 2079,11297 2158,11323 2220,11331 " style="fill: white; stroke: black; stroke-width: 30" />
<polyline points="2064,11163 2060,11164 2074,11173 2136,11218 2162,11251 2178,11276 2156,11313 2135,11335 " style="fill: white; stroke: black; stroke-width: 30" />
<polyline points="2245,11273 2232,11273 2265,11272 2336,11267 2361,11254 2378,11240 2363,11212 2326,11185 2273,11185 2251,11210 2264,11266 2310,11337 2370,11366 2416,11365 " style="fill: white; stroke: black; stroke-width: 30" />
<polyline points="2589,11215 2570,11212 2549,11209 2538,11213 2537,11220 2534,11265 2536,11327 2521,11383 2502,11404 2476,11398 2462,11336 2493,11234 2579,11181 2665,11148 2721,11126 2728,11119 2706,11119 2690,11132 2659,11184 2627,11283 2613,11354 2617,11379 2614,11379 2619,11349 2630,11287 2625,11246 2631,11232 2632,11233 2643,11231 2654,11232 2660,11235 2696,11243 2735,11251 2780,11266 2814,11264 2827,11268 2822,11269 2837,11271 2819,11295 2813,11336 2768,11391 2746,11426 2735,11429 2726,11401 2715,11344 2725,11326 2732,11325 2727,11335 2761,11351 2783,11376 " style="fill: white; stroke: black; stroke-width: 30" />
<polyline points="2795,11147 2766,11133 2763,11131 2776,11137 2817,11155 2871,11186 2903,11220 " style="fill: white; stroke: black; stroke-width: 30" />
<polyline points="2891,11393 2863,11396 2865,11384 2864,11372 2883,11344 2897,11334 2910,11330 2927,11331 2920,11342 2926,11364 2938,11375 2966,11374 2992,11366 " style="fill: white; stroke: black; stroke-width: 30" />
<polyline points="3141,11416 3109,11420 3092,11413 3099,11403 3090,11397 3102,11385 3084,11382 3074,11380 3066,11377 3076,11377 3086,11373 3145,11344 3212,11293 3251,11251 3255,11226 3242,11222 3234,11225 3205,11258 3188,11310 3191,11361 3218,11390 3248,11404 3293,11391 3309,11380 3307,11375 3316,11370 3315,11368 3306,11371 3303,11377 3299,11388 3327,11392 3346,11399 3365,11400 3368,11401 3369,11404 " style="fill: white; stroke: black; stroke-width: 30" />
<polyline points="3546,11383 3546,11391 3528,11396 3498,11418 3492,11431 3497,11441 " style="fill: white; stroke: black; stroke-width: 30" />
<polyline points="3616,11275 3604,11247 3581,11244 3580,11249 3586,11291 " style="fill: white; stroke: black; stroke-width: 30" />
<polyline points="3668,11450 3658,11457 3645,11454 3616,11464 3598,11488 3556,11521 3546,11536 3536,11545 " style="fill: white; stroke: black; stroke-width: 30" />
<polyline points="-2609,11395 -2614,11406 -2646,11453 -2673,11575 -2680,11659 -2682,11687 -2680,11677 -2669,11639 -2651,11538 -2641,11444 -2633,11397 -2632,11395 -2630,11403 -2640,11437 -2651,11519 -2649,11603 -2615,11663 -2539,11706 -2431,11682 -2333,11613 -2286,11559 -2309,11525 -2317,11487 -2333,11472 -2359,11467 -2345,11474 -2344,11481 -2328,11505 -2303,11543 -2279,11597 -2237,11643 -2207,11654 -2161,11642 -2119,11615 -2101,11577 -2106,11557 -2127,11544 -2164,11559 -2220,11614 -2211,11665 -2158,11705 -2077,11715 -2012,11689 -1976,11649 -1978,11610 -1979,11589 -1990,11583 -1981,11583 -1968,11576 -1926,11570 -1873,11590 " style="fill: white; stroke: black; stroke-width: 30" />
<polyline points="-1704,11569 -1725,11557 -1725,11555 -1729,11555 -1723,11556 -1725,11555 -1729,11552 -1747,11550 -1801,11553 -1857,11580 -1877,11616 -1863,11658 -1823,11681 -1748,11665 -1682,11599 -1644,11525 -1642,11480 -1643,11471 -1655,11472 -1650,11483 -1658,11494 -1659,11504 -1661,11530 -1664,11599 -1651,11650 " style="fill: white; stroke: black; stroke-width: 30" />
<polyline points="-987,11431 -993,11431 -1017,11473 -1059,11623 -1068,11733 -1064,11779 -1048,11781 -1020,11720 -999,11574 -965,11460 -917,11427 -879,11441 -857,11497 -916,11583 -1005,11647 -1055,11681 -1064,11680 -1025,11692 -951,11713 -863,11728 -811,11722 -805,11701 -806,11677 -800,11663 -784,11651 -757,11640 -771,11625 -806,11610 -854,11616 -874,11645 -871,11688 -819,11737 -738,11761 " style="fill: white; stroke: black; stroke-width: 30" />
<polyline points="-610,11614 -631,11608 -632,11617 -645,11657 -664,11719 -638,11774 -593,11800 -523,11784 -478,11726 -454,11667 -459,11632 -472,11625 -496,11625 -492,11631 -481,11641 -467,11665 " style="fill: white; stroke: black; stroke-width: 30" />
<polyline points="-382,11697 -331,11709 -272,11718 -214,11715 -199,11698 -211,11664 -261,11634 -334,11638 -372,11678 -359,11744 -302,11787 -245,11793 -197,11744 -152,11692 -134,11674 -125,11673 -99,11684 -79,11709 -104,11742 -138,11790 " style="fill: white; stroke: black; stroke-width: 30" />
<polyline points="212,11758 225,11723 202,11686 145,11661 74,11661 33,11685 44,11711 81,11745 153,11762 177,11770 173,11779 140,11836 107,11909 88,11972 74,12004 70,11988 100,11896 171,11797 250,11746 360,11719 454,11701 485,11684 455,11647 364,11642 332,11659 338,11711 404,11791 " style="fill: white; stroke: black; stroke-width: 30" />
<polyline points="-1337,12032 -1339,12027 -1345,12025 -1353,12026 -1330,12030 -1310,12035 -1230,12042 -1046,12049 -748,12045 -318,12028 86,12009 375,12001 502,11996 520,11991 515,11983 508,11979 506,11973 499,11972 508,11972 512,11976 " style="fill: white; stroke: black; stroke-width: 30" />
<polyline points="-747,12180 -753,12194 -768,12209 -800,12247 -851,12317 -914,12404 -911,12432 -882,12447 -800,12458 -672,12452 -552,12447 -472,12443 -450,12436 -445,12433 -449,12417 " style="fill: white; stroke: black; stroke-width: 30" />
<polyline points="-361,12373 -343,12366 -298,12357 -254,12366 -238,12390 -248,12432 -270,12475 -330,12507 -354,12517 -363,12515 " style="fill: white; stroke: black; stroke-width: 30" />
<polyline points="431,12185 429,12183 410,12225 351,12332 297,12423 258,12485 261,12517 271,12519 307,12472 337,12366 393,12263 437,12207 510,12196 556,12232 573,12268 529,12313 440,12353 345,12384 308,12406 314,12434 349,12463 414,12487 485,12496 572,12498 " style="fill: white; stroke: black; stroke-width: 30" />
<polyline points="628,12380 588,12381 542,12406 495,12467 490,12510 555,12537 656,12520 727,12484 726,12461 677,12433 623,12423 595,12425 625,12428 659,12446 727,12472 805,12475 891,12449 995,12399 1039,12359 1014,12337 966,12317 902,12309 847,12325 802,12362 811,12419 887,12495 982,12533 1030,12529 1068,12499 1074,12468 1082,12440 1095,12437 1079,12442 1072,12443 1084,12440 1079,12440 1082,12440 1075,12441 1079,12441 1093,12438 1079,12434 1080,12426 1049,12416 1016,12417 1002,12427 1007,12454 1032,12501 1071,12540 1149,12556 " style="fill: white; stroke: black; stroke-width: 30" />
<polyline points="1952,12429 1929,12419 1880,12401 1773,12397 1654,12418 1602,12445 1627,12475 1717,12532 1880,12552 2022,12536 " style="fill: white; stroke: black; stroke-width: 30" />
<polyline points="2217,12331 2195,12315 2147,12331 2078,12398 1998,12476 1996,12524 2007,12549 2064,12567 2103,12581 2112,12588 2118,12595 " style="fill: white; stroke: black; stroke-width: 30" />
<polyline points="2261,12463 2257,12458 2276,12478 2297,12539 2294,12594 2262,12638 2213,12656 2183,12644 2184,12603 2211,12545 2242,12524 2273,12533 2289,12581 2311,12632 2326,12662 " style="fill: white; stroke: black; stroke-width: 30" />
<polyline points="2389,12649 2375,12617 2388,12565 2412,12534 2424,12532 2428,12550 2445,12585 2429,12633 2427,12662 2440,12669 2437,12663 2483,12616 2544,12570 2571,12563 2583,12577 2618,12598 2635,12622 2673,12630 2712,12624 2732,12601 2700,12582 2683,12570 2660,12581 2626,12638 2583,12725 2535,12820 2472,12887 2433,12915 2412,12895 2420,12827 2463,12760 2565,12714 2736,12687 2913,12677 " style="fill: white; stroke: black; stroke-width: 30" />
<polyline points="-3163,9890 -3173,9880 -3175,9875 -3187,9871 -3185,9880 -3209,9895 -3219,9961 -3220,10025 -3198,10060 -3168,10075 -3131,10082 -3102,10073 -3087,10053 -3079,10045 -3075,10049 -3080,10055 -3048,10081 -3005,10102 -2958,10105 -2925,10094 -2901,10070 -2867,10016 -2845,9960 -2856,9909 -2874,9894 -2891,9892 -2895,9898 -2894,9903 -2879,9910 -2871,9918 -2848,9929 -2833,9935 -2788,9945 -2752,9959 -2745,9973 -2738,9994 -2727,10029 -2734,10064 -2744,10085 -2741,10105 -2734,10129 " style="fill: white; stroke: black; stroke-width: 30" />
<polyline points="-2749,9842 -2780,9834 -2786,9833 -2781,9836 -2766,9844 -2751,9896 -2727,9975 " style="fill: white; stroke: black; stroke-width: 30" />
<polyline points="-2683,10096 -2688,10115 -2688,10113 -2703,10097 -2703,10058 -2694,10024 -2697,10021 -2701,10027 -2679,10041 -2649,10068 -2610,10091 -2563,10102 -2517,10101 -2502,10090 -2503,10061 -2541,10032 -2582,10035 -2626,10068 -2627,10125 -2601,10177 -2535,10201 -2451,10190 -2370,10138 -2319,10077 -2294,9995 -2271,9901 -2281,9862 -2308,9849 -2352,9866 -2381,9937 -2403,10032 -2396,10108 -2368,10139 -2324,10145 -2265,10120 -2230,10074 -2223,10021 -2229,10002 -2259,10000 -2291,10027 -2304,10074 -2284,10114 -2237,10132 -2173,10132 -2104,10112 -2063,10089 -2041,10061 -2033,10032 -2031,9999 -2038,9988 -2053,9991 -2064,10006 -2079,10031 -2073,10089 -2061,10142 -2058,10187 -2064,10207 -2075,10204 -2079,10193 -2097,10169 -2100,10151 -2027,10112 -1937,10062 -1836,10014 -1806,9990 -1838,9982 -1877,9986 -1898,10006 -1915,10030 -1912,10091 -1901,10151 -1915,10186 -1914,10189 -1920,10181 " style="fill: white; stroke: black; stroke-width: 30" />
<polyline points="-1233,9892 -1250,9902 -1279,9964 -1348,10108 -1424,10238 -1441,10300 -1413,10304 " style="fill: white; stroke: black; stroke-width: 30" />
<polyline points="-1068,9974 -1096,10020 -1127,10113 -1140,10195 -1124,10225 -1130,10227 -1136,10189 -1137,10094 -1118,9977 -1078,9904 -1023,9873 -970,9894 -959,9933 -999,9977 -1072,10013 -1084,10019 -1062,10047 -992,10118 -962,10171 -985,10208 -1053,10219 -1142,10208 -1157,10189 -1142,10156 -1083,10119 -999,10087 -926,10037 -858,9982 -825,9949 -818,9951 -826,9952 -832,9960 -860,10002 -918,10090 -935,10153 -910,10206 -861,10226 -780,10202 -716,10152 -682,10114 -690,10112 -704,10125 -732,10157 -762,10207 -756,10223 -723,10233 -640,10213 -587,10202 -599,10208 -614,10233 -609,10245 " style="fill: white; stroke: black; stroke-width: 30" />
<polyline points="-533,10230 -527,10226 -485,10208 -416,10174 -407,10142 -433,10125 -497,10132 -539,10163 -528,10209 -473,10250 -376,10256 " style="fill: white; stroke: black; stroke-width: 30" />
<polyline points="-168,9958 -185,9953 -221,9996 -289,10118 -336,10218 -339,10250 -333,10240 -332,10192 -305,10143 -292,10141 -265,10165 -208,10200 " style="fill: white; stroke: black; stroke-width: 30" />
<polyline points="-96,10156 -132,10143 -161,10139 -200,10146 -229,10182 -228,10214 -203,10240 -165,10247 -141,10228 -131,10211 -127,10192 -131,10193 -133,10200 -118,10215 -85,10224 " style="fill: white; stroke: black; stroke-width: 30" />
<polyline points="23,10202 21,10184 9,10163 -15,10147 -42,10150 -83,10194 -101,10246 -74,10277 -39,10282 7,10268 31,10249 34,10234 38,10212 30,10197 9,10187 0,10191 0,10192 1,10196 17,10200 32,10210 46,10213 " style="fill: white; stroke: black; stroke-width: 30" />
<polyline points="290,10036 289,9989 271,9962 250,9958 226,9979 161,10069 119,10173 104,10246 97,10282 89,10290 97,10289 97,10287 95,10280 104,10247 111,10187 109,10151 95,10134 90,10130 97,10128 101,10131 118,10143 144,10159 192,10170 272,10157 350,10118 398,10064 391,10036 375,10027 355,10031 303,10098 261,10177 261,10223 265,10234 294,10241 322,10255 328,10283 327,10313 332,10339 " style="fill: white; stroke: black; stroke-width: 30" />
<polyline points="1007,10102 1011,10099 1014,10095 1020,10089 1021,10083 1011,10083 1015,10081 1009,10083 1009,10081 1011,10081 1011,10080 1013,10081 1003,10080 1009,10081 1001,10080 1001,10081 1007,10077 1081,10064 1196,10051 1269,10049 1316,10049 " style="fill: white; stroke: black; stroke-width: 30" />
<polyline points="1013,10142 982,10143 963,10162 942,10240 953,10297 983,10324 1044,10331 1099,10333 1147,10337 1186,10331 " style="fill: white; stroke: black; stroke-width: 30" />
<polyline points="948,10199 946,10199 974,10205 1056,10239 1175,10251 " style="fill: white; stroke: black; stroke-width: 30" />
<polyline points="1223,10301 1223,10299 1224,10294 1233,10283 1254,10249 1269,10210 1304,10184 1335,10183 1372,10208 1394,10252 1406,10301 1397,10323 1412,10315 1482,10246 1568,10173 1591,10159 1578,10164 1564,10191 1535,10246 1524,10285 1530,10294 1570,10286 1621,10248 1652,10229 1647,10232 1639,10246 1639,10276 1642,10293 1674,10291 " style="fill: white; stroke: black; stroke-width: 30" />
<polyline points="1766,10237 1720,10242 1708,10251 1708,10264 1705,10269 1707,10269 1706,10265 1698,10265 1700,10262 1709,10260 1711,10254 1724,10248 1760,10234 1796,10225 1805,10231 1808,10255 1795,10279 1814,10293 1853,10295 1895,10301 1897,10313 1890,10329 1898,10341 1913,10344 1947,10339 1945,10347 " style="fill: white; stroke: black; stroke-width: 30" />
<polyline points="1367,9616 1360,9568 1371,9509 1374,9490 1367,9497 1304,9563 1259,9650 1266,9721 1320,9772 1398,9787 1468,9764 1490,9746 1483,9739 1479,9739 1489,9740 1491,9756 1541,9797 1591,9831 1653,9829 1707,9761 1731,9669 1722,9560 1709,9496 1707,9495 1701,9507 1710,9516 1713,9534 1723,9565 " style="fill: white; stroke: black; stroke-width: 30" />
<polyline points="1883,9718 1883,9710 1885,9708 1892,9725 1866,9782 1858,9843 1856,9875 1860,9878 " style="fill: white; stroke: black; stroke-width: 30" />
<polyline points="1884,9534 1882,9485 1892,9467 1948,9469 1995,9540 1983,9614 1933,9647 1884,9631 1855,9579 1861,9494 1919,9440 " style="fill: white; stroke: black; stroke-width: 30" />
<polyline points="2358,9630 2343,9608 2300,9593 2257,9605 2230,9639 2235,9706 2251,9787 2260,9846 2229,9886 2191,9895 2145,9884 2119,9831 2118,9766 2148,9732 2190,9744 " style="fill: white; stroke: black; stroke-width: 30" />
<polyline points="2405,9894 2465,9866 2510,9825 2517,9780 2500,9746 2428,9730 2376,9740 2343,9788 2363,9862 2462,9921 2582,9921 2668,9881 2678,9825 2619,9804 2571,9808 2555,9832 2570,9868 2638,9891 2714,9890 2771,9870 2806,9831 2798,9787 2764,9763 2702,9767 2669,9790 2675,9823 2717,9880 2792,9931 2862,9963 " style="fill: white; stroke: black; stroke-width: 30" />
<polyline points="1716,8890 1723,8881 1718,8877 1717,8871 1692,8860 1639,8838 1558,8837 1478,8873 1432,8937 1441,9017 1523,9093 1644,9125 1755,9091 1802,9034 1781,8987 1730,8928 1683,8886 1665,8883 1665,8886 1666,8891 1664,8898 1678,8909 1707,8938 1787,8938 " style="fill: white; stroke: black; stroke-width: 30" />
<polyline points="1924,8854 1933,8837 1927,8833 1908,8838 1899,8859 1878,8940 1870,9018 1874,9068 1882,9087 1880,9078 1882,9006 1871,8914 1862,8836 1863,8782 1863,8747 1862,8743 1858,8748 1849,8755 1847,8759 1856,8758 1859,8755 1878,8758 1969,8779 2056,8838 2083,8894 2057,8939 2007,8967 1914,8977 1865,8957 1853,8942 1869,8944 1927,8976 1980,9047 1980,9109 1960,9152 1923,9172 1874,9159 1852,9128 1836,9076 1870,9027 " style="fill: white; stroke: black; stroke-width: 30" />
<polyline points="2128,8860 2142,8856 2171,8856 2261,8857 2327,8862 2346,8865 2339,8867 2305,8869 " style="fill: white; stroke: black; stroke-width: 30" />
<polyline points="2240,8853 2203,8858 2186,8867 2144,8918 2095,9001 2063,9072 2074,9096 2122,9122 2192,9134 2247,9136 2290,9118 2330,9083 " style="fill: white; stroke: black; stroke-width: 30" />
<polyline points="2119,9003 2093,8992 2121,8986 2176,8987 2289,8991 2363,8998 " style="fill: white; stroke: black; stroke-width: 30" />
<polyline points="2506,8821 2482,8831 2441,8880 2422,8940 2443,8979 2486,8992 2546,8966 2592,8915 2608,8892 2612,8892 2610,8899 2580,8941 2536,9006 2496,9093 2441,9195 2405,9249 " style="fill: white; stroke: black; stroke-width: 30" />
<polyline points="1373,8614 1347,8618 1327,8631 1312,8666 1314,8752 1313,8915 1301,9035 1301,9105 1293,9134 1291,9142 1291,9143 1289,9144 1296,9142 1296,9142 1292,9139 1297,9138 1294,9138 1293,9144 1281,9153 " style="fill: white; stroke: black; stroke-width: 30" />
<polyline points="1293,9238 1291,9235 1305,9231 1311,9236 1349,9242 1436,9254 1581,9257 1775,9237 2015,9211 2270,9183 2510,9152 2715,9142 2826,9153 2862,9165 2863,9163 2857,9163 2854,9160 2857,9157 2856,9155 2860,9154 2857,9150 " style="fill: white; stroke: black; stroke-width: 30" />
<polyline points="1526,8632 1518,8633 1533,8641 1589,8660 1694,8683 1869,8702 2098,8718 2333,8723 2555,8725 2733,8736 2873,8739 2945,8737 2948,8740 2940,8743 2934,8742 2930,8742 2927,8738 2925,8739 2925,8739 2927,8745 2908,8769 2865,8922 2849,9019 2826,9165 2838,9197 2836,9285 " style="fill: white; stroke: black; stroke-width: 30" />
<polyline points="858,4418 832,4413 818,4407 817,4403 827,4395 858,4384 938,4340 1071,4262 1226,4159 1376,4061 1477,3993 1503,3980 1505,3979 1504,3981 1501,3982 1499,3986 1498,3986 1498,3989 1499,3988 1500,3988 1501,3987 1501,3988 1501,3987 1499,3988 1499,3988 1500,3988 1502,3989 1522,4001 1601,4035 1763,4082 1967,4123 2151,4166 2266,4199 2328,4227 2342,4239 2346,4241 2343,4239 2343,4238 2340,4237 2343,4236 2345,4233 2346,4235 2348,4236 2346,4237 " style="fill: white; stroke: black; stroke-width: 30" />
<polyline points="733,4550 735,4543 731,4536 735,4534 747,4528 772,4522 814,4513 887,4499 1003,4473 1174,4449 1388,4433 1639,4423 1893,4421 2133,4414 2330,4402 2424,4390 2432,4387 2428,4388 2423,4388 2421,4389 2422,4388 2424,4390 2425,4390 2427,4391 2429,4391 " style="fill: white; stroke: black; stroke-width: 30" />
<polyline points="648,4493 662,4498 691,4501 754,4516 846,4530 961,4563 1125,4596 1326,4636 1551,4664 1770,4686 1950,4701 2049,4709 2071,4711 2077,4707 2076,4704 2072,4703 2067,4700 2065,4696 2063,4686 " style="fill: white; stroke: black; stroke-width: 30" />
<polyline points="1988,4769 1986,4769 1993,4764 2014,4752 2050,4728 2113,4677 2203,4583 2310,4462 2382,4388 2419,4354 2428,4345 2429,4344 2427,4343 2420,4347 2418,4347 2417,4349 2419,4348 2422,4347 2420,4347 2423,4346 2425,4345 2428,4345 2428,4344 2429,4344 2430,4342 2430,4342 2432,4342 2432,4342 " style="fill: white; stroke: black; stroke-width: 30" />
<polyline points="2307,4398 2314,4390 2314,4382 2325,4378 2389,4358 2540,4330 2782,4279 3026,4233 3191,4196 3242,4181 3243,4180 3243,4180 3238,4182 3239,4184 3239,4185 3242,4188 3242,4191 3239,4195 " style="fill: white; stroke: black; stroke-width: 30" />
<polyline points="1584,3953 1580,3953 1591,3950 1622,3950 1695,3956 1820,3981 2004,4005 2250,4026 2514,4054 2759,4080 2941,4108 3069,4141 3137,4157 3155,4159 3151,4158 3147,4158 3143,4155 3141,4157 3144,4154 3143,4157 3143,4155 3142,4155 3140,4156 3137,4160 3139,4163 " style="fill: white; stroke: black; stroke-width: 30" />
<polyline points="3202,4192 3260,4131 3340,4034 3417,3934 3467,3861 3523,3788 3553,3750 3577,3720 3587,3709 3587,3711 3584,3713 3577,3720 3580,3719 3580,3724 3582,3727 " style="fill: white; stroke: black; stroke-width: 30" />
<polyline points="3611,3687 3601,3686 3595,3682 3592,3680 3589,3679 3589,3685 3598,3710 3635,3765 3707,3849 3816,3935 3914,4000 3969,4046 3996,4065 4003,4072 4008,4069 4006,4072 4009,4069 4010,4070 4013,4069 4017,4069 4018,4071 4017,4074 4013,4074 3955,4050 " style="fill: white; stroke: black; stroke-width: 30" />
<polyline points="3161,4317 3138,4301 3124,4284 3122,4275 3131,4262 3148,4255 3185,4247 3255,4235 3334,4230 3446,4222 3584,4211 3726,4192 3825,4176 3893,4159 3904,4152 3909,4150 3907,4151 3907,4154 3906,4154 3907,4155 3909,4155 3917,4153 3916,4156 3926,4152 3919,4147 " style="fill: white; stroke: black; stroke-width: 30" />
<polyline points="2095,4753 2101,4745 2133,4728 2207,4703 2336,4661 2501,4618 2707,4572 2964,4507 3259,4431 3580,4338 3841,4271 4015,4232 4105,4209 4155,4184 4181,4168 4187,4161 4185,4157 4183,4161 4189,4158 4191,4162 4191,4165 4196,4164 4193,4167 4187,4172 4183,4174 4184,4174 4185,4174 4172,4176 " style="fill: white; stroke: black; stroke-width: 30" />
<polyline points="1693,3919 1669,3921 1667,3917 1683,3913 1743,3899 1882,3880 2091,3858 2355,3841 2690,3816 3069,3788 3426,3741 3662,3715 3754,3711 3764,3712 3755,3716 3750,3719 3745,3722 3748,3723 3749,3727 " style="fill: white; stroke: black; stroke-width: 30" />
<polyline points="-4435,2689 -4440,2680 -4439,2680 -4434,2687 -4435,2677 -4434,2674 -4434,2669 -4434,2674 -4435,2677 -4441,2674 -4440,2676 -4441,2679 -4443,2679 " style="fill: white; stroke: black; stroke-width: 30" />
<polyline points="-4540,2986 -4575,2982 -4579,2974 -4570,2962 -4533,2931 -4480,2917 -4425,2933 -4414,2972 -4438,3014 -4490,3049 -4538,3045 -4543,3040 -4545,3006 -4536,2972 -4531,2970 -4536,2966 -4531,2970 -4528,2976 -4534,2973 -4538,2975 -4540,2973 -4537,2973 -4537,2970 -4532,2974 -4515,2966 -4477,2947 -4448,2936 -4428,2949 -4418,2969 -4413,2999 -4428,3017 -4460,3043 -4498,3037 -4515,3014 -4524,2966 -4524,2957 -4512,2947 -4491,2955 -4467,2979 -4456,3013 -4466,3040 -4493,3043 -4513,3014 -4526,2974 -4523,2965 -4507,2956 " style="fill: white; stroke: black; stroke-width: 30" />
<polyline points="-4212,2782 -4212,2787 -4215,2793 -4224,2819 -4239,2906 -4235,3001 -4222,3037 -4211,3036 -4208,3012 -4224,2943 -4248,2845 -4266,2757 -4272,2705 -4273,2701 -4271,2715 -4264,2783 -4249,2865 -4218,2918 -4156,2939 -4076,2920 -4005,2857 -3966,2795 -3958,2772 -3961,2768 -3959,2773 -3961,2786 -3974,2854 -3974,2914 -3956,2959 -3932,2997 -3902,3020 -3870,3018 -3820,2979 -3763,2912 -3715,2842 -3700,2822 -3706,2824 -3714,2843 -3728,2875 -3725,2940 -3725,3009 -3712,3066 -3700,3076 -3699,3051 " style="fill: white; stroke: black; stroke-width: 30" />
<polyline points="-3735,2652 -3733,2639 -3711,2634 -3660,2655 -3621,2696 -3613,2737 -3635,2750 -3679,2740 -3703,2712 -3706,2684 -3687,2653 -3656,2631 " style="fill: white; stroke: black; stroke-width: 30" />
<polyline points="-3476,2665 -3547,2685 -3579,2719 -3587,2828 -3565,2940 -3519,3013 -3464,3040 " style="fill: white; stroke: black; stroke-width: 30" />
<polyline points="-4365,3184 -4388,3209 -4406,3283 -4412,3416 -4402,3513 -4385,3553 -4370,3555 -4366,3517 -4370,3407 -4379,3306 -4395,3231 -4401,3210 -4404,3206 -4401,3212 -4402,3211 -4404,3213 -4399,3222 -4400,3229 -4395,3240 -4395,3244 -4399,3241 -4396,3247 -4394,3245 -4396,3243 -4395,3242 -4396,3241 -4394,3244 -4399,3241 -4397,3241 -4400,3240 -4400,3239 -4400,3241 -4398,3243 -4404,3242 -4397,3265 -4370,3366 -4323,3454 -4248,3518 -4156,3538 -4076,3503 -4028,3442 -4022,3371 -4034,3281 -4061,3230 -4093,3202 -4119,3196 -4118,3205 -4114,3224 -4094,3281 -4043,3361 -3971,3433 -3888,3476 -3810,3479 -3756,3453 -3747,3412 -3769,3365 -3814,3333 -3868,3343 -3899,3384 -3891,3447 -3837,3493 -3726,3499 -3618,3443 -3547,3357 -3526,3243 -3516,3134 -3520,3083 -3534,3072 -3550,3081 -3581,3140 -3603,3292 -3599,3443 -3568,3540 -3537,3581 -3515,3546 -3526,3447 -3562,3341 -3599,3315 -3603,3312 -3601,3313 -3581,3321 -3545,3337 -3494,3354 -3441,3362 -3411,3358 -3394,3334 -3402,3308 -3415,3289 -3422,3287 -3427,3300 -3449,3365 -3448,3433 -3428,3471 -3396,3478 -3367,3450 -3362,3416 -3361,3410 -3365,3411 -3352,3431 -3322,3464 -3259,3479 -3183,3462 -3143,3400 -3158,3347 -3203,3314 -3224,3307 -3224,3308 -3220,3313 -3203,3328 -3184,3366 " style="fill: white; stroke: black; stroke-width: 30" />
<polyline points="-3075,3445 -3027,3425 -2990,3382 -2990,3343 -3015,3312 -3067,3304 -3116,3334 -3137,3416 -3109,3480 -3035,3516 -2956,3507 -2931,3475 -2941,3429 -2974,3391 -2999,3379 -2995,3388 -2978,3409 -2936,3468 -2898,3506 -2868,3527 -2863,3518 -2863,3464 -2858,3368 -2837,3290 -2827,3274 -2825,3281 -2800,3313 -2738,3368 -2636,3405 -2540,3392 " style="fill: white; stroke: black; stroke-width: 30" />
<polyline points="-2469,3122 -2492,3111 -2499,3112 -2501,3121 -2502,3151 -2515,3233 -2532,3342 -2543,3462 -2543,3516 -2539,3530 -2521,3503 " style="fill: white; stroke: black; stroke-width: 30" />
<polyline points="-2334,3285 -2433,3315 -2554,3381 -2587,3429 -2548,3481 -2409,3504 -2183,3479 " style="fill: white; stroke: black; stroke-width: 30" />
<polyline points="-4497,4542 -4510,4559 -4490,4572 -4438,4569 -4343,4507 -4224,4403 -4099,4268 -3993,4157 -3959,4123 -3955,4123 -3958,4121 -3965,4123 -3973,4126 -3981,4125 " style="fill: white; stroke: black; stroke-width: 30" />
<polyline points="-3975,4130 -3976,4129 -3967,4123 -3912,4129 -3760,4139 -3538,4135 -3262,4131 -3002,4135 -2823,4152 -2748,4170 -2739,4169 -2744,4168 -2751,4162 -2756,4157 -2756,4153 " style="fill: white; stroke: black; stroke-width: 30" />
<polyline points="-2650,4164 -2659,4161 -2664,4164 -2684,4198 -2761,4329 -2890,4529 -3036,4725 -3136,4841 -3156,4885 -3146,4903 -3124,4899 " style="fill: white; stroke: black; stroke-width: 30" />
<polyline points="-4552,4680 -4535,4680 -4485,4671 -4399,4668 -4230,4674 -3980,4689 -3674,4704 -3376,4708 -3172,4715 -3095,4722 -3090,4721 -3094,4721 -3102,4712 " style="fill: white; stroke: black; stroke-width: 30" />
<polyline points="-3133,4812 -3150,4852 -3177,4945 -3227,5099 -3259,5214 -3271,5297 -3270,5337 " style="fill: white; stroke: black; stroke-width: 30" />
<polyline points="-4534,4684 -4532,4697 -4501,4761 -4454,4897 -4391,5092 -4326,5253 -4261,5357 -4207,5428 -4173,5437 " style="fill: white; stroke: black; stroke-width: 30" />
<polyline points="-4330,5425 -4332,5420 -4287,5411 -4200,5384 -4060,5333 -3856,5269 -3611,5200 -3368,5153 -3194,5131 -3107,5127 -3098,5122 -3111,5116 -3121,5113 -3128,5111 -3122,5111 -3114,5113 -3109,5112 -3103,5112 " style="fill: white; stroke: black; stroke-width: 30" />
<polyline points="-2562,4281 -2580,4329 -2651,4447 -2796,4662 -2962,4888 -3094,5083 -3134,5195 " style="fill: white; stroke: black; stroke-width: 30" />
<polyline points="-4399,4658 -4370,4667 -4275,4699 -4095,4792 -3861,4920 -3645,5039 -3459,5102 -3294,5140 " style="fill: white; stroke: black; stroke-width: 30" />
<polyline points="-4501,4707 -4499,4698 -4482,4680 -4449,4662 -4372,4632 -4212,4581 -3980,4517 -3674,4424 -3333,4335 -3073,4281 -2942,4259 -2912,4263 -2913,4265 -2912,4273 " style="fill: white; stroke: black; stroke-width: 30" />
<polyline points="-4402,5582 -4413,5579 -4413,5579 -4418,5578 -4423,5581 -4424,5610 -4436,5683 -4455,5775 -4459,5829 -4459,5845 -4454,5841 -4439,5817 -4402,5744 -4402,5654 -4399,5619 -4409,5613 -4413,5616 -4418,5625 -4413,5673 -4404,5726 -4373,5770 -4314,5778 -4236,5734 -4179,5676 -4156,5661 -4164,5663 -4164,5683 -4168,5750 -4167,5838 -4140,5886 -4091,5889 " style="fill: white; stroke: black; stroke-width: 30" />
<polyline points="-3980,5809 -3964,5817 -3961,5812 -3963,5804 -3976,5792 -4027,5788 -4083,5803 -4107,5830 -4095,5860 -4051,5893 -3982,5882 -3961,5853 -3967,5839 -3989,5833 -4004,5840 -3994,5857 -3975,5890 -3929,5907 -3888,5887 -3854,5843 -3841,5769 -3831,5707 -3827,5666 -3830,5653 -3839,5647 -3835,5653 -3838,5652 -3839,5653 -3838,5652 -3837,5653 -3832,5657 -3831,5661 -3833,5662 -3835,5664 -3830,5670 -3839,5693 -3840,5753 -3840,5831 -3839,5890 -3834,5908 -3827,5903 -3814,5879 -3796,5848 -3769,5832 -3746,5828 -3720,5838 -3719,5849 -3729,5884 -3769,5919 -3808,5932 -3830,5914 -3843,5866 -3840,5837 -3817,5812 -3764,5802 -3704,5813 -3648,5820 -3614,5820 -3600,5811 -3601,5804 -3600,5801 -3607,5800 -3601,5804 -3606,5812 -3603,5860 -3599,5902 -3602,5928 -3593,5928 " style="fill: white; stroke: black; stroke-width: 30" />
<polyline points="-3544,5586 -3576,5584 -3580,5585 -3576,5588 -3570,5590 -3539,5604 -3510,5601 -3468,5588 -3433,5588 -3430,5603 -3442,5644 -3477,5725 -3508,5824 -3526,5888 -3514,5913 -3499,5941 -3469,5952 -3427,5941 -3392,5898 -3379,5851 -3384,5835 -3405,5843 -3423,5867 -3433,5891 -3409,5926 -3384,5936 -3321,5937 " style="fill: white; stroke: black; stroke-width: 30" />
<polyline points="-4180,6129 -4192,6120 -4201,6109 -4218,6107 -4274,6112 -4348,6139 -4375,6172 -4370,6230 -4317,6307 -4280,6370 -4273,6394 -4285,6404 -4328,6397 -4381,6366 -4385,6343 -4377,6324 -4332,6304 -4253,6311 -4140,6308 -4041,6283 -4008,6253 -4042,6239 -4120,6241 -4177,6274 -4191,6308 -4157,6346 -4077,6380 -3979,6383 " style="fill: white; stroke: black; stroke-width: 30" />
<polyline points="-3763,6224 -3758,6207 -3751,6181 -3730,6154 -3699,6152 -3672,6175 -3648,6236 -3662,6311 -3715,6382 -3781,6434 -3787,6449 -3783,6447 -3755,6442 -3695,6426 -3611,6403 -3531,6381 " style="fill: white; stroke: black; stroke-width: 30" />
<polyline points="-3485,6198 -3503,6184 -3491,6178 -3450,6167 -3408,6179 -3408,6217 -3438,6258 -3492,6297 -3501,6307 -3490,6313 -3461,6328 -3446,6342 -3453,6353 -3471,6370 -3490,6373 -3501,6374 -3510,6368 -3523,6368 -3528,6367 -3527,6370 -3521,6369 -3518,6369 -3518,6367 -3517,6368 -3518,6366 -3520,6364 -3517,6363 -3514,6363 -3518,6360 -3511,6362 -3508,6357 " style="fill: white; stroke: black; stroke-width: 30" />
<polyline points="-3227,6167 -3232,6168 -3242,6171 -3251,6201 -3264,6275 -3274,6352 -3279,6421 -3281,6467 -3293,6489 -3301,6490 -3308,6471 -3346,6374 " style="fill: white; stroke: black; stroke-width: 30" />
<polyline points="-3236,6119 -3248,6127 -3246,6130 -3220,6139 -3155,6148 -3062,6166 " style="fill: white; stroke: black; stroke-width: 30" />
<polyline points="-2820,5326 -2833,5334 -2821,5345 -2772,5358 -2695,5358 -2606,5357 -2509,5366 -2374,5383 -2178,5365 -1924,5324 -1640,5281 -1336,5256 -999,5227 -650,5194 -274,5144 135,5076 492,5006 747,4953 883,4920 930,4901 938,4895 940,4894 940,4891 934,4891 930,4890 928,4891 926,4892 930,4894 931,4895 935,4897 936,4898 936,4901 936,4903 933,4909 " style="fill: white; stroke: black; stroke-width: 30" />
<polyline points="840,4808 841,4803 873,4810 937,4810 1040,4813 1138,4824 1189,4831 1195,4832 1198,4831 1197,4831 1189,4831 1173,4835 1151,4838 1106,4851 1027,4879 958,4914 899,4954 884,4968 888,4967 897,4975 " style="fill: white; stroke: black; stroke-width: 30" />
<polyline points="-2766,5229 -2749,5226 -2742,5226 -2736,5226 -2736,5226 -2738,5231 -2751,5233 -2802,5251 -2907,5297 -3017,5342 -3077,5367 -3085,5373 -3081,5371 -3077,5369 -3065,5366 -3057,5368 -3045,5370 -3029,5378 -2995,5397 -2937,5424 -2866,5457 -2796,5483 -2748,5498 -2740,5497 -2739,5492 -2739,5492 -2741,5491 -2736,5487 " style="fill: white; stroke: black; stroke-width: 30" />
<polyline points="-1451,5193 -1450,5186 -1443,5174 -1429,5153 -1378,5086 -1285,4987 -1209,4914 -1173,4872 -1171,4862 -1177,4861 -1182,4865 -1187,4875 -1186,4886 -1183,4910 -1159,4958 -1126,5009 -1072,5064 -1019,5108 -979,5132 -968,5140 " style="fill: white; stroke: black; stroke-width: 30" />
<polyline points="-1385,4981 -1393,4988 -1382,4991 -1332,4995 -1241,5002 -1140,5005 -1045,5010 -969,4997 " style="fill: white; stroke: black; stroke-width: 30" />
<polyline points="-921,5122 -925,5123 -925,5120 -915,5111 -896,5085 -876,5045 -859,5005 -825,4973 -769,4950 -713,4949 -672,4963 -655,4984 -662,5004 -677,5049 -678,5077 -669,5095 -661,5096 -657,5098 " style="fill: white; stroke: black; stroke-width: 30" />
<polyline points="-465,4874 -475,4866 -481,4864 -485,4871 -494,4909 -505,4990 -510,5068 -507,5125 -501,5144 -500,5134 -503,5080 " style="fill: white; stroke: black; stroke-width: 30" />
<polyline points="-516,4922 -534,4873 -547,4842 -548,4828 -537,4813 -496,4807 -432,4817 -382,4843 -365,4865 -377,4882 -430,4911 -488,4943 -491,4950 -471,4973 -430,5021 -400,5064 -407,5100 -467,5151 -534,5170 -558,5170 -559,5161 -551,5153 -522,5097 " style="fill: white; stroke: black; stroke-width: 30" />
<polyline points="1982,3311 1972,3307 1967,3308 1964,3318 1962,3368 1967,3451 1984,3516 2011,3540 " style="fill: white; stroke: black; stroke-width: 30" />
<polyline points="1767,3323 1756,3318 1775,3312 1841,3299 1951,3283 2085,3265 2193,3245 2233,3238 2215,3243 2184,3253 2163,3257 2161,3258 2159,3259 2155,3260 2151,3263 2154,3263 2154,3263 2152,3266 " style="fill: white; stroke: black; stroke-width: 30" />
<polyline points="2179,3389 2151,3362 2150,3352 2153,3355 2147,3372 2134,3416 2142,3458 2179,3483 2242,3473 2301,3434 2309,3420 2301,3427 2285,3449 2270,3489 2279,3519 2315,3521 " style="fill: white; stroke: black; stroke-width: 30" />
<polyline points="2332,3516 2330,3512 2342,3503 2364,3487 2384,3459 2397,3441 2400,3439 2403,3445 2414,3455 2420,3477 2418,3507 2429,3535 " style="fill: white; stroke: black; stroke-width: 30" />
<polyline points="2497,3521 2505,3520 2541,3508 2606,3477 2658,3452 2675,3447 2671,3451 2663,3466 2654,3499 2663,3539 2696,3554 2750,3535 2796,3496 2814,3463 2816,3440 2807,3432 2776,3437 2736,3478 2715,3532 2733,3577 2796,3583 2918,3526 3035,3424 3095,3318 3085,3270 3065,3269 3029,3301 2986,3382 2970,3451 2973,3507 2988,3546 3003,3569 " style="fill: white; stroke: black; stroke-width: 30" />
<polyline points="3514,3306 3499,3293 3477,3294 3431,3360 3378,3478 3352,3580 3350,3631 3352,3636 3356,3615 3377,3518 3413,3391 3453,3310 3499,3277 3566,3302 3609,3380 3598,3477 3539,3556 3453,3603 3365,3616 3334,3606 3336,3579 3349,3550 3400,3503 3466,3499 3561,3520 3675,3536 3752,3531 3762,3522 3751,3519 3735,3522 3722,3534 3705,3572 3700,3609 3708,3614 3730,3572 " style="fill: white; stroke: black; stroke-width: 30" />
<polyline points="3833,3330 3815,3317 3814,3310 3820,3312 3838,3316 " style="fill: white; stroke: black; stroke-width: 30" />
<polyline points="3957,3564 3928,3544 3871,3506 3815,3489 3793,3502 3822,3553 3900,3595 3980,3586 3992,3563 3965,3528 3911,3509 3896,3514 3907,3528 3948,3556 3988,3568 " style="fill: white; stroke: black; stroke-width: 30" />
<polyline points="4099,3581 4097,3583 4081,3582 4064,3570 4033,3556 3999,3543 3976,3555 3969,3589 3985,3631 4029,3648 4093,3629 4173,3566 4231,3483 4240,3427 4215,3399 4191,3403 4162,3450 4146,3545 4176,3632 4240,3691 4308,3701 4337,3677 4318,3639 4274,3616 4253,3617 4255,3635 4283,3680 4322,3720 4351,3749 4367,3763 " style="fill: white; stroke: black; stroke-width: 30" />
<polyline points="-4294,7768 -4299,7749 -4314,7737 -4339,7732 -4361,7743 -4393,7763 -4415,7790 -4393,7819 -4356,7838 -4303,7837 -4243,7826 -4208,7812 " style="fill: white; stroke: black; stroke-width: 30" />
<polyline points="-4164,7823 -4175,7832 -4180,7834 -4176,7837 -4173,7836 -4175,7835 -4169,7833 -4171,7811 -4147,7740 -4126,7696 -4110,7682 -4109,7684 -4102,7710 -4079,7759 -4045,7787 -4003,7795 -3966,7786 -3949,7777 -3944,7759 -3942,7739 -3960,7720 -3987,7722 -4023,7753 -4038,7798 -4024,7836 -3987,7859 -3942,7859 -3901,7846 -3878,7833 -3874,7821 -3868,7821 -3871,7818 -3864,7812 -3845,7791 -3819,7761 -3820,7737 -3825,7726 -3843,7727 -3871,7738 -3900,7769 -3913,7800 -3908,7823 -3889,7846 -3862,7867 -3822,7882 -3767,7890 -3717,7886 " style="fill: white; stroke: black; stroke-width: 30" />
<polyline points="-3685,7806 -3691,7801 -3699,7795 -3711,7794 -3758,7805 -3790,7835 -3793,7854 -3781,7872 -3742,7874 -3691,7833 -3636,7761 -3600,7696 -3577,7660 -3576,7656 -3589,7661 -3607,7696 -3618,7755 -3625,7827 -3604,7875 " style="fill: white; stroke: black; stroke-width: 30" />
<polyline points="-4378,8044 -4378,8032 -4388,8042 -4412,8100 -4447,8213 -4447,8303 -4424,8343 -4377,8343 " style="fill: white; stroke: black; stroke-width: 30" />
<polyline points="-4228,8166 -4249,8154 -4295,8147 -4358,8168 -4423,8228 -4462,8298 -4438,8331 -4364,8348 -4265,8337 -4198,8318 -4167,8298 -4166,8296 -4165,8299 -4170,8306 -4177,8314 -4183,8323 -4187,8321 -4188,8319 -4185,8318 -4194,8314 -4190,8311 -4194,8305 -4195,8286 -4187,8250 -4174,8207 -4152,8188 -4128,8193 -4090,8229 " style="fill: white; stroke: black; stroke-width: 30" />
<polyline points="-3975,8251 -3986,8233 -3987,8209 -3998,8192 -3980,8200 -3942,8235 -3919,8285 -3920,8346 -3947,8383 -3982,8407 -4025,8376 -4052,8319 -4040,8285 -4023,8281 -3988,8302 -3942,8345 -3887,8358 " style="fill: white; stroke: black; stroke-width: 30" />
<polyline points="-3768,8282 -3799,8296 -3821,8326 -3832,8369 -3834,8383 -3823,8384 -3807,8362 -3793,8344 -3791,8334 -3786,8333 -3766,8328 -3736,8326 -3719,8335 -3706,8362 -3708,8385 -3707,8391 -3695,8380 -3653,8363 " style="fill: white; stroke: black; stroke-width: 30" />
<polyline points="-3584,8274 -3612,8302 -3612,8340 -3615,8397 -3621,8461 -3624,8506 -3619,8515 -3627,8499 -3618,8449 -3606,8351 -3571,8287 -3526,8266 -3484,8269 -3466,8300 -3481,8345 -3522,8373 -3554,8371 -3573,8351 -3568,8320 -3560,8309 -3523,8311 -3466,8308 -3390,8285 -3319,8256 -3278,8220 -3273,8186 -3288,8142 -3302,8105 -3318,8095 -3327,8100 -3336,8113 -3350,8138 -3353,8153 -3345,8160 -3346,8157 -3354,8152 -3353,8149 -3346,8151 -3355,8145 -3359,8145 -3362,8147 -3367,8160 -3383,8225 -3396,8322 -3413,8425 -3425,8491 -3425,8522 -3425,8521 -3435,8476 -3443,8405 -3456,8353 -3437,8350 -3416,8346 -3380,8342 -3354,8335 -3314,8327 " style="fill: white; stroke: black; stroke-width: 30" />
<polyline points="-4408,8575 -4406,8565 -4410,8569 -4424,8592 -4448,8654 -4460,8747 -4448,8787 -4401,8805 -4329,8789 -4265,8740 -4237,8696 -4232,8695 -4236,8699 -4241,8723 -4239,8766 -4226,8805 -4199,8825 -4165,8810 " style="fill: white; stroke: black; stroke-width: 30" />
<polyline points="-4100,8778 -4115,8802 -4124,8802 -4126,8792 -4102,8773 -4074,8747 -4032,8756 -4004,8800 -3994,8843 -3996,8856 " style="fill: white; stroke: black; stroke-width: 30" />
<polyline points="-3796,8574 -3813,8580 -3840,8627 -3872,8741 -3890,8843 -3888,8888 -3881,8892 -3885,8856 -3876,8804 -3854,8774 -3823,8777 -3783,8799 -3737,8811 -3722,8805 -3741,8793 -3780,8802 -3795,8826 -3775,8856 -3723,8872 -3680,8852 -3644,8808 -3641,8781 -3645,8766 -3646,8767 -3638,8770 -3616,8770 " style="fill: white; stroke: black; stroke-width: 30" />
<polyline points="-3544,8751 -3541,8718 -3508,8706 -3455,8722 -3423,8767 -3426,8829 -3455,8878 -3494,8894 -3518,8875 -3536,8832 -3527,8801 -3519,8798 -3502,8812 -3451,8852 -3406,8873 -3358,8875 -3332,8862 -3325,8837 -3313,8787 -3312,8751 -3307,8739 -3307,8739 -3300,8746 -3284,8762 " style="fill: white; stroke: black; stroke-width: 30" />
<polyline points="-3252,8807 -3267,8816 -3276,8835 -3279,8859 -3278,8868 -3272,8863 -3253,8833 -3213,8804 -3196,8795 -3184,8802 -3178,8813 -3168,8820 -3156,8825 -3136,8841 -3121,8861 -3127,8865 -3118,8862 -3092,8858 " style="fill: white; stroke: black; stroke-width: 30" />
<polyline points="-4580,7575 -4597,7580 -4624,7618 -4665,7754 -4715,8001 -4747,8354 -4754,8741 -4722,8970 -4695,9045 " style="fill: white; stroke: black; stroke-width: 30" />
<polyline points="-4640,8989 -4589,9005 -4541,9009 -4482,9019 -4386,9033 -4222,9037 -3991,9037 -3743,9043 -3528,9066 -3346,9097 -3186,9133 -3072,9176 -2995,9212 -2954,9204 " style="fill: white; stroke: black; stroke-width: 30" />
<polyline points="-4391,7577 -4373,7568 -4322,7555 -4233,7557 -4089,7570 -3903,7591 -3698,7609 -3483,7607 -3278,7575 -3126,7555 -3044,7565 -3017,7586 -2997,7617 -2982,7669 -2956,7733 " style="fill: white; stroke: black; stroke-width: 30" />
<polyline points="-2798,7924 -2809,7957 -2828,8063 -2859,8242 -2920,8481 -2966,8698 -2998,8861 -3013,8981 -3002,9058 " style="fill: white; stroke: black; stroke-width: 30" />
<polyline points="-2488,8056 -2492,8028 -2474,7999 -2436,7962 -2392,7953 -2373,7982 -2377,8054 -2415,8144 -2466,8201 -2473,8219 -2464,8220 -2422,8226 -2377,8228 -2336,8230 " style="fill: white; stroke: black; stroke-width: 30" />
<polyline points="-2015,8053 -2006,8042 -2019,8034 -2064,8023 -2139,8019 -2211,8045 -2246,8093 -2248,8162 -2201,8224 -2127,8259 -2076,8253 -2054,8226 " style="fill: white; stroke: black; stroke-width: 30" />
<polyline points="-2094,8182 -2108,8172 -2105,8163 -2106,8154 -2096,8150 -2094,8148 -2088,8146 -2077,8150 -2064,8156 -2032,8171 -2012,8189 -2015,8221 -2037,8264 -2050,8282 -2028,8269 " style="fill: white; stroke: black; stroke-width: 30" />
<polyline points="-1933,8137 -1932,8147 -1938,8161 -1958,8196 -1960,8212 -1944,8216 -1902,8199 -1850,8176 -1836,8180 -1844,8210 -1845,8246 -1831,8252 " style="fill: white; stroke: black; stroke-width: 30" />
<polyline points="-1752,8183 -1750,8167 -1744,8157 -1746,8154 -1744,8162 -1745,8166 -1739,8164 -1744,8162 -1732,8159 -1730,8159 -1718,8148 -1694,8137 -1690,8135 -1693,8146 -1712,8182 -1728,8228 -1725,8248 -1703,8256 -1667,8241 -1631,8219 -1616,8200 -1596,8192 -1600,8191 -1615,8208 -1656,8270 -1696,8343 -1725,8415 -1743,8469 " style="fill: white; stroke: black; stroke-width: 30" />
<polyline points="-1334,8081 -1367,8074 -1408,8074 -1461,8098 -1472,8123 -1459,8173 -1442,8206 -1441,8217 -1460,8217 -1498,8208 -1515,8192 " style="fill: white; stroke: black; stroke-width: 30" />
<polyline points="-2433,8664 -2426,8657 -2387,8636 -2350,8604 -2311,8573 -2301,8555 -2316,8545 -2361,8537 -2414,8547 -2462,8569 -2467,8587 -2453,8610 -2404,8643 -2342,8680 -2283,8709 " style="fill: white; stroke: black; stroke-width: 30" />
<polyline points="-2563,8527 -2562,8523 -2566,8524 -2597,8531 -2627,8545 -2639,8561 -2610,8610 -2550,8679 -2514,8728 -2518,8757 -2545,8761 -2588,8754 -2638,8726 -2667,8690 -2673,8667 " style="fill: white; stroke: black; stroke-width: 30" />
<polyline points="-2115,8589 -2132,8586 -2132,8594 " style="fill: white; stroke: black; stroke-width: 30" />
<polyline points="-2117,8583 -2119,8585 -2124,8583 -2120,8580 -2116,8572 -2114,8571 -2127,8565 -2155,8564 -2208,8578 -2251,8605 -2252,8624 -2231,8646 -2170,8668 -2088,8672 " style="fill: white; stroke: black; stroke-width: 30" />
<polyline points="-1962,8569 -1965,8567 -1968,8573 -1977,8603 -1983,8646 -1978,8672 -1959,8681 -1919,8668 -1862,8647 -1849,8652 -1846,8669 -1843,8702 -1828,8711 -1808,8709 -1795,8697 -1790,8697 -1793,8696 -1793,8695 -1796,8692 -1795,8695 -1798,8696 -1795,8699 -1795,8699 -1800,8697 -1798,8697 -1793,8694 -1792,8692 -1792,8689 -1791,8683 -1787,8674 -1771,8645 -1728,8612 -1709,8593 -1708,8597 -1714,8605 -1717,8618 -1705,8627 -1680,8631 -1659,8629 -1637,8631 -1632,8637 -1620,8646 -1589,8652 -1561,8653 -1552,8647 -1551,8641 -1557,8639 -1566,8649 -1564,8660 -1574,8674 -1585,8697 -1587,8719 -1582,8725 " style="fill: white; stroke: black; stroke-width: 30" />
<polyline points="-1519,8509 -1550,8502 -1565,8494 -1560,8495 -1545,8495 " style="fill: white; stroke: black; stroke-width: 30" />
<polyline points="-1385,8461 -1402,8462 -1414,8477 -1452,8555 -1487,8653 -1506,8712 -1507,8729 -1499,8723 -1493,8696 -1484,8683 -1472,8676 -1441,8670 -1393,8662 -1343,8645 -1287,8609 -1238,8574 -1238,8564 -1254,8569 -1276,8582 -1311,8624 -1336,8669 -1332,8687 -1300,8696 -1246,8675 -1220,8658 -1225,8663 -1242,8676 -1274,8732 -1306,8787 -1304,8837 " style="fill: white; stroke: black; stroke-width: 30" />
<polyline points="-2597,8852 -2592,8840 -2581,8829 -2553,8827 -2506,8834 -2449,8850 -2397,8865 " style="fill: white; stroke: black; stroke-width: 30" />
<polyline points="-2530,8886 -2566,8922 -2583,8989 -2584,9046 -2548,9069 -2508,9078 -2459,9080 -2434,9078 -2423,9073 -2407,9064 " style="fill: white; stroke: black; stroke-width: 30" />
<polyline points="-2422,9026 -2414,9025 -2399,9024 -2359,9037 -2329,9051 -2328,9064 -2332,9081 -2357,9103 -2368,9110 -2365,9107 " style="fill: white; stroke: black; stroke-width: 30" />
<polyline points="-2029,8934 -2049,8933 -2057,8935 -2068,8939 -2073,8952 -2087,8974 -2091,9005 -2091,9042 -2094,9103 -2102,9163 -2096,9202 -2091,9214 -2089,9214 -2087,9213 -2086,9209 -2093,9199 -2103,9151 " style="fill: white; stroke: black; stroke-width: 30" />
<polyline points="-2064,8921 -2098,8900 -2106,8890 -2101,8884 -2065,8876 -1986,8905 -1923,8959 -1927,8994 -1977,9029 -2029,9050 -2042,9058 -2047,9065 -2021,9116 -2013,9173 -2018,9207 -2034,9219 -2058,9207 -2099,9181 -2116,9151 -2128,9119 -2127,9108 -2097,9100 -2032,9098 -1934,9098 -1863,9091 -1815,9087 -1806,9088 -1807,9103 -1819,9138 -1835,9178 -1841,9211 -1835,9219 -1812,9206 " style="fill: white; stroke: black; stroke-width: 30" />
<polyline points="-1746,8952 -1772,8956 -1793,8963 -1797,8968 -1784,8967 -1776,8960 " style="fill: white; stroke: black; stroke-width: 30" />
<polyline points="-1710,8935 -1701,8932 -1700,8948 -1715,8992 -1752,9089 -1793,9162 -1777,9187 -1750,9186 " style="fill: white; stroke: black; stroke-width: 30" />
<polyline points="-1590,9128 -1606,9123 -1613,9113 -1616,9110 -1639,9108 -1678,9130 -1701,9160 -1698,9165 -1679,9159 -1630,9119 -1545,9049 -1488,8998 -1463,8973 -1471,8968 -1471,8970 -1477,8986 -1499,9020 -1509,9080 -1511,9115 -1493,9142 -1468,9153 " style="fill: white; stroke: black; stroke-width: 30" />
<polyline points="-1132,9006 -1155,9017 -1210,9049 -1236,9089 -1227,9130 -1175,9151 -1094,9140 -1055,9105 -1050,9085 -1064,9079 -1071,9081 -1071,9084 -1054,9085 -1019,9085 " style="fill: white; stroke: black; stroke-width: 30" />
<polyline points="-888,9067 -880,9064 -889,9061 -911,9057 -945,9064 -968,9088 -978,9114 -958,9153 -924,9168 -883,9167 -870,9152 -872,9141 -884,9123 -908,9115 -912,9115 -900,9117 -878,9127 -857,9146 -829,9166 -814,9185 -795,9189 -771,9172 -738,9131 -703,9109 -698,9109 -694,9121 -682,9148 -672,9179 " style="fill: white; stroke: black; stroke-width: 30" />
<polyline points="-349,9117 -357,9131 -360,9155 -361,9161 -363,9161 -367,9160 -368,9158 -372,9158 -370,9159 -370,9159 -361,9156 -347,9139 -311,9108 -288,9101 -264,9113 -255,9146 -238,9164 -224,9170 -184,9158 -153,9163 -136,9184 -127,9213 -115,9216 -78,9194 " style="fill: white; stroke: black; stroke-width: 30" />
<polyline points="62,9159 45,9185 34,9213 38,9227 45,9230 " style="fill: white; stroke: black; stroke-width: 30" />
<polyline points="135,8944 127,8945 122,8946 122,8952 124,8997 " style="fill: white; stroke: black; stroke-width: 30" />
<polyline points="131,9230 122,9240 122,9225 130,9200 151,9177 165,9168 172,9167 201,9168 " style="fill: white; stroke: black; stroke-width: 30" />
<polyline points="488,9093 498,9086 525,9072 562,9063 600,9059 622,9073 " style="fill: white; stroke: black; stroke-width: 30" />
<polyline points="505,9091 489,9110 464,9165 440,9254 446,9299 471,9310 508,9307 548,9298 " style="fill: white; stroke: black; stroke-width: 30" />
<polyline points="466,9175 464,9175 475,9175 519,9182 568,9191 " style="fill: white; stroke: black; stroke-width: 30" />
<polyline points="618,9275 612,9266 622,9258 623,9249 649,9222 682,9202 694,9203 690,9228 692,9276 699,9295 729,9293 778,9268 806,9237 812,9221 782,9220 747,9234 723,9264 715,9298 741,9311 781,9318 " style="fill: white; stroke: black; stroke-width: 30" />
<polyline points="858,9224 853,9225 848,9233 840,9257 838,9280 826,9285 829,9283 835,9280 843,9270 861,9258 871,9254 874,9259 879,9266 877,9275 882,9276 907,9274 935,9273 944,9288 941,9307 935,9310 944,9303 " style="fill: white; stroke: black; stroke-width: 30" />
<polyline points="1011,9217 1017,9215 1005,9227 980,9256 986,9278 995,9284 1030,9270 1073,9241 1093,9231 1071,9244 1054,9277 1029,9330 991,9396 953,9475 " style="fill: white; stroke: black; stroke-width: 30" />
<polyline points="-606,8873 -615,8883 -610,8884 -611,8881 -581,8855 -537,8804 -484,8755 -458,8733 -436,8716 -420,8710 " style="fill: white; stroke: black; stroke-width: 30" />
<polyline points="-438,8668 -461,8658 -467,8650 -446,8631 -387,8599 -323,8586 -294,8591 -296,8605 -324,8644 -352,8692 -378,8735 -388,8761 " style="fill: white; stroke: black; stroke-width: 30" />
<polyline points="-322,8301 -320,8282 -326,8287 -350,8333 -395,8435 -415,8527 -405,8553 -353,8565 -279,8544 " style="fill: white; stroke: black; stroke-width: 30" />
<polyline points="-164,8460 -170,8458 -157,8454 -127,8453 -87,8458 -69,8466 -69,8474 -87,8484 -132,8496 -173,8497 -176,8477 -172,8452 -155,8431 -134,8424 -112,8427 " style="fill: white; stroke: black; stroke-width: 30" />
<polyline points="-100,8368 -118,8354 -106,8342 -52,8329 9,8336 " style="fill: white; stroke: black; stroke-width: 30" />
<polyline points="104,8427 67,8415 33,8415 16,8429 19,8471 42,8515 48,8540 43,8549 17,8547 -18,8538 -23,8523 14,8500 " style="fill: white; stroke: black; stroke-width: 30" />
<polyline points="186,8441 167,8454 160,8459 159,8464 154,8469 133,8487 143,8503 142,8506 164,8502 187,8497 201,8498 198,8509 196,8538 217,8551 " style="fill: white; stroke: black; stroke-width: 30" />
<polyline points="253,8538 261,8537 281,8522 326,8497 338,8491 340,8500 337,8533 365,8551 " style="fill: white; stroke: black; stroke-width: 30" />
<polyline points="500,8488 458,8489 415,8493 397,8508 403,8560 404,8652 387,8719 369,8751 348,8743 335,8697 340,8624 382,8551 " style="fill: white; stroke: black; stroke-width: 30" />
<polyline points="574,8483 582,8471 572,8470 559,8475 557,8490 550,8531 550,8561 548,8579 543,8580 520,8569 492,8550 487,8539 503,8533 " style="fill: white; stroke: black; stroke-width: 30" />
<polyline points="691,8498 683,8497 687,8493 700,8491 739,8492 790,8495 " style="fill: white; stroke: black; stroke-width: 30" />
<polyline points="-70,8725 -61,8718 -61,8711 -59,8699 -64,8687 -94,8688 -132,8706 -139,8724 -128,8748 -97,8769 -52,8776 -23,8774 -10,8762 -12,8745 -30,8720 -45,8707 -41,8698 -38,8693 -26,8694 -15,8701 1,8717 19,8746 58,8764 91,8769 111,8752 112,8732 105,8711 110,8700 112,8696 125,8698 145,8703 160,8721 184,8736 210,8729 236,8704 231,8699 218,8704 208,8724 197,8760 198,8776 212,8800 215,8808 " style="fill: white; stroke: black; stroke-width: 30" />
<polyline points="251,8582 234,8573 231,8571 234,8576 248,8600 " style="fill: white; stroke: black; stroke-width: 30" />
<polyline points="294,8757 325,8744 355,8713 379,8684 370,8663 325,8661 273,8685 253,8730 274,8775 332,8808 409,8808 446,8795 451,8774 447,8757 445,8753 456,8757 458,8766 460,8780 471,8790 504,8791 582,8756 659,8704 718,8658 748,8634 743,8629 736,8633 709,8658 677,8704 648,8755 638,8787 640,8788 645,8765 666,8733 668,8719 681,8710 724,8710 780,8712 823,8725 829,8742 819,8754 790,8771 786,8783 784,8784 791,8778 813,8742 855,8674 881,8606 873,8585 867,8582 856,8588 853,8624 " style="fill: white; stroke: black; stroke-width: 30" />
<polyline points="882,8743 890,8745 901,8733 911,8717 895,8707 876,8720 855,8759 861,8811 893,8840 950,8829 990,8795 1006,8750 1006,8721 1011,8707 1025,8695 1060,8680 " style="fill: white; stroke: black; stroke-width: 30" />
<polyline points="1176,8576 1153,8590 1109,8638 1062,8714 1033,8779 1028,8815 1032,8807 1036,8775 1041,8753 1041,8752 1045,8756 1064,8769 " style="fill: white; stroke: black; stroke-width: 30" />

</svg>