<?xml version="1.0" standalone="no"?>
<!DOCTYPE svg PUBLIC "-//W3C//DTD SVG 1.1//EN" "http://www.w3.org/Graphics/SVG/1.1/DTD/svg11.dtd">
<svg width="210mm" height="297mm" viewBox="-7000 500 14000 20000" version="1.1" xmlns="http://www.w3.org/2000/svg">

<polyline points="-2189,2243 -2194,2236 -2197,2232 -2195,2227 -2195,2224 -2197,2225 -2193,2230 -2186,2273 -2178,2375 -2170,2458 -2159,2502 -2143,2511 " style="fill: white; stroke: black; stroke-width: 30" />
<polyline points="-2041,2225 -1992,2308 -1985,2376 -2023,2443 -2070,2489 -2119,2512 -2162,2513 -2195,2475 -2225,2409 " style="fill: white; stroke: black; stroke-width: 30" />
<polyline points="-1858,2455 -1861,2456 -1856,2458 -1834,2460 -1788,2459 -1724,2449 -1664,2424 -1620,2387 -1610,2354 -1627,2318 -1676,2293 -1742,2285 -1781,2304 -1797,2336 -1791,2385 -1760,2446 -1481,2574 -1475,2645 -1471,2688 -1475,2694 -1499,2684 -1532,2632 -1542,2530 -1501,2411 -1426,2339 -1346,2313 -1309,2330 -1315,2360 -1358,2404 -1420,2434 -1466,2433 -1473,2422 " style="fill: white; stroke: black; stroke-width: 30" />
<polyline points="-1104,2152 -1092,2093 -1089,2053 -1095,2044 -1104,2050 -1113,2094 -1126,2188 -1129,2285 -1118,2349 " style="fill: white; stroke: black; stroke-width: 30" />
<polyline points="-966,2383 -930,2423 -872,2436 -818,2416 -800,2382 -809,2340 -841,2312 -883,2297 -906,2293 -909,2297 -905,2299 -891,2312 " style="fill: white; stroke: black; stroke-width: 30" />
<polyline points="-601,2282 -636,2264 -648,2252 -653,2253 -667,2284 -688,2354 -699,2408 -659,2439 -564,2418 -450,2342 -379,2282 -374,2262 -384,2264 -409,2279 -447,2332 -485,2427 -533,2585 -557,2706 -548,2757 -538,2773 " style="fill: white; stroke: black; stroke-width: 30" />
<polyline points="-114,2428 -123,2443 -133,2447 -146,2436 -140,2416 -89,2341 -23,2255 13,2226 34,2224 32,2237 31,2289 27,2339 40,2354 78,2368 122,2369 133,2372 131,2376 135,2377 151,2377 189,2375 221,2383 257,2392 286,2395 324,2376 356,2336 380,2282 373,2252 349,2238 318,2255 292,2306 292,2350 314,2381 355,2394 433,2374 512,2327 584,2256 645,2180 671,2148 656,2152 620,2198 589,2262 583,2298 610,2312 663,2304 715,2292 733,2300 725,2334 722,2363 744,2386 821,2395 " style="fill: white; stroke: black; stroke-width: 30" />
<polyline points="1090,2323 1109,2263 1133,2207 1141,2191 1160,2183 1208,2179 " style="fill: white; stroke: black; stroke-width: 30" />
<polyline points="-2055,3027 -2068,3053 -2036,3087 -1957,3135 -1859,3171 -1757,3185 " style="fill: white; stroke: black; stroke-width: 30" />
<polyline points="-1567,2999 -1507,2794 " style="fill: white; stroke: black; stroke-width: 30" />
<polyline points="-1667,3091 -1674,3075 -1657,3070 -1590,3067 -1521,3086 -1470,3109 -1415,3110 -1357,3071 -1318,3013 -1307,2979 -1312,2965 -1319,2964 -1334,2985 -1352,3045 -1361,3102 -1344,3144 -1301,3156 -1241,3147 -1206,3135 -1202,3132 -1206,3139 -1213,3151 -1209,3166 -1198,3193 " style="fill: white; stroke: black; stroke-width: 30" />
<polyline points="-1019,3315 -1033,3383 -1046,3423 -1047,3428 -1044,3423 -1042,3409 -1035,3383 -1035,3375 -1034,3372 -1034,3374 -1033,3370 -1039,3344 -1040,3279 -1023,3212 -995,3128 -954,3057 -920,3017 -918,3014 -907,3036 -882,3078 -868,3116 -876,3132 -896,3144 -925,3145 -960,3138 -985,3123 -1003,3112 " style="fill: white; stroke: black; stroke-width: 30" />
<polyline points="-767,3213 -761,3166 -751,3125 -736,3115 -700,3122 -643,3137 -570,3145 -509,3134 -487,3116 -503,3110 -540,3110 -575,3135 -582,3161 -562,3185 -510,3203 -467,3220 -441,3226 -442,3223 -451,3218 -458,3199 -466,3166 -469,3142 -473,3138 -474,3139 -473,3143 -471,3146 -458,3148 " style="fill: white; stroke: black; stroke-width: 30" />
<polyline points="-2,3040 28,3119 69,3174 88,3203 76,3208 22,3215 -60,3221 -102,3222 -102,3221 -80,3225 -9,3217 78,3191 155,3167 190,3162 204,3167 210,3170 226,3167 253,3153 283,3133 298,3118 302,3110 308,3107 314,3096 325,3086 336,3081 343,3073 343,3071 336,3076 316,3096 289,3143 265,3195 255,3237 264,3258 282,3264 330,3244 396,3198 454,3172 470,3170 466,3176 446,3221 400,3295 347,3373 282,3452 240,3517 251,3535 " style="fill: white; stroke: black; stroke-width: 30" />
<polyline points="917,3056 894,3044 880,3034 874,3024 867,3015 856,3012 848,3032 837,3112 833,3202 825,3272 808,3305 784,3311 753,3299 726,3271 711,3215 715,3172 737,3154 806,3132 923,3103 1062,3066 1147,3033 1166,3025 1152,3033 1101,3091 1040,3166 1000,3227 983,3258 982,3258 981,3257 982,3254 995,3255 1051,3256 1138,3243 1226,3220 1299,3199 1314,3192 1307,3195 1294,3210 1294,3234 1314,3258 1372,3277 1422,3290 1431,3298 1435,3307 1445,3312 1475,3320 1521,3330 1545,3339 1558,3348 1583,3361 1627,3366 1684,3358 1718,3352 " style="fill: white; stroke: black; stroke-width: 30" />
<polyline points="-2513,5505 -2521,5492 -2521,5493 -2518,5525 -2525,5630 -2525,5803 -2523,6022 -2520,6273 -2527,6547 -2526,6828 -2533,7096 -2540,7314 -2548,7467 " style="fill: white; stroke: black; stroke-width: 30" />
<polyline points="-2530,7357 -2550,7368 -2534,7379 -2522,7379 -2408,7390 -2218,7397 -1959,7396 -1573,7400 -1131,7394 -721,7404 -363,7426 -94,7444 69,7457 " style="fill: white; stroke: black; stroke-width: 30" />
<polyline points="-45,7112 4,7136 119,7172 295,7222 503,7308 708,7382 833,7446 848,7490 788,7536 632,7588 " style="fill: white; stroke: black; stroke-width: 30" />
<polyline points="-2318,7167 -2225,7128 -2079,7056 -1862,6940 -1572,6791 -1242,6623 -937,6462 -675,6330 -504,6240 -419,6193 -416,6189 -433,6191 -473,6196 -514,6204 " style="fill: white; stroke: black; stroke-width: 30" />
<polyline points="-560,6143 -555,6130 -516,6102 -419,6052 -304,6016 -213,6007 -171,6025 -172,6084 -213,6181 -266,6263 " style="fill: white; stroke: black; stroke-width: 30" />
<polyline points="-2584,5597 -2548,5566 -2505,5521 -2452,5455 -2415,5403 -2402,5381 -2404,5382 -2384,5409 -2352,5468 -2308,5544 -2256,5615 -2209,5670 -2166,5688 " style="fill: white; stroke: black; stroke-width: 30" />
<polyline points="-2625,4749 -2637,4733 -2652,4720 -2668,4712 -2697,4714 -2744,4736 -2782,4775 -2792,4816 -2777,4837 -2730,4831 -2655,4792 -2611,4753 -2612,4749 -2621,4753 -2630,4771 -2629,4844 -2632,4954 -2644,5061 -2665,5140 -2686,5173 -2710,5161 -2753,5113 -2781,5053 -2780,5024 -2748,5019 -2667,5014 -2558,4986 -2467,4942 -2417,4901 -2411,4872 -2425,4850 -2455,4838 -2483,4838 -2504,4851 -2519,4876 -2519,4910 -2500,4942 -2468,4968 -2403,4975 -2307,4949 -2214,4905 " style="fill: white; stroke: black; stroke-width: 30" />
<polyline points="-2058,4720 -2073,4702 -2090,4695 -2117,4698 -2147,4729 -2154,4765 -2140,4804 -2113,4842 -2085,4887 -2062,4944 -2059,4993 -2078,5019 -2088,5026 -2103,5025 -2121,5016 -2136,5003 -2151,4996 -2157,4990 -2155,4988 -2154,4988 -2154,4984 -2157,4974 -2159,4969 -2159,4961 -2155,4958 -2149,4959 -2144,4958 -2143,4958 -2145,4959 -2141,4958 -2138,4952 -2109,4929 " style="fill: white; stroke: black; stroke-width: 30" />
<polyline points="-1931,4691 -1959,4721 -1955,4751 -1905,4794 -1827,4811 -1757,4799 -1707,4771 -1672,4735 -1652,4716 -1638,4719 -1624,4736 -1616,4763 -1614,4786 -1615,4795 -1613,4803 " style="fill: white; stroke: black; stroke-width: 30" />
<polyline points="-863,4747 -869,4755 -869,4755 -867,4751 -860,4733 -832,4676 -795,4606 -761,4556 -740,4530 -735,4529 -729,4546 -722,4578 -716,4617 -708,4655 -701,4678 -691,4688 -661,4685 -593,4654 -547,4631 -535,4635 -533,4660 -538,4714 -541,4759 -537,4775 -525,4775 -491,4768 -456,4751 -426,4738 -410,4739 -395,4734 -372,4723 -326,4701 -283,4667 -248,4617 -245,4597 -264,4593 -308,4611 -347,4658 -349,4703 -331,4734 -294,4759 -219,4767 -157,4762 -144,4765 -146,4777 -156,4796 -165,4814 -166,4822 -158,4823 " style="fill: white; stroke: black; stroke-width: 30" />
<polyline points="40,4762 43,4755 66,4741 108,4728 148,4714 194,4698 235,4686 239,4678 226,4678 196,4689 159,4709 133,4746 130,4792 149,4833 197,4870 238,4879 274,4868 291,4850 307,4827 332,4799 340,4784 344,4781 341,4779 344,4778 344,4778 351,4766 360,4749 363,4747 362,4743 359,4740 353,4737 343,4731 341,4729 339,4731 338,4732 342,4731 342,4733 341,4733 343,4731 344,4733 342,4732 348,4729 350,4729 351,4726 351,4724 351,4724 351,4724 351,4723 356,4724 355,4724 353,4723 349,4725 347,4724 339,4724 318,4738 316,4743 315,4742 320,4743 324,4741 324,4739 321,4743 321,4743 320,4743 320,4746 320,4745 321,4744 322,4746 322,4746 323,4744 325,4746 326,4748 328,4754 " style="fill: white; stroke: black; stroke-width: 30" />
<polyline points="-954,5134 -936,5151 -900,5149 -828,5108 -752,5055 -708,5027 -701,5027 -701,5042 -712,5084 -725,5123 -720,5142 -681,5153 -603,5147 -541,5133 -518,5128 -522,5127 -527,5122 -526,5118 -522,5115 -500,5109 -467,5124 -435,5152 -405,5171 -366,5170 " style="fill: white; stroke: black; stroke-width: 30" />
<polyline points="-282,5190 -308,5189 -319,5182 -313,5179 -285,5165 -210,5145 -136,5132 -97,5120 -102,5121 -119,5131 -150,5155 -154,5184 -135,5204 -95,5209 -44,5195 -23,5176 -20,5164 -20,5159 -16,5159 -11,5162 12,5168 69,5175 118,5171 144,5161 141,5157 119,5156 90,5170 80,5186 79,5203 94,5224 " style="fill: white; stroke: black; stroke-width: 30" />
<polyline points="1155,4910 1176,4961 1159,4985 1123,4992 1062,4972 1033,4945 1039,4930 1083,4909 1181,4885 1272,4862 1326,4834 1340,4816 1324,4812 1284,4815 1246,4830 1238,4863 1247,4897 1290,4943 " style="fill: white; stroke: black; stroke-width: 30" />
<polyline points="1653,4798 1653,4798 1651,4796 1655,4795 1661,4789 1658,4785 1655,4786 1652,4787 1654,4785 1653,4787 1653,4785 1653,4783 1651,4785 1649,4785 1646,4783 1646,4785 1646,4783 1641,4783 1636,4792 1614,4825 1577,4875 1540,4926 1524,4955 1534,4962 " style="fill: white; stroke: black; stroke-width: 30" />
<polyline points="1561,4884 1542,4846 1535,4831 1536,4825 1547,4830 1579,4851 1653,4867 1743,4868 1811,4858 1837,4844 1838,4842 1828,4845 1798,4863 1767,4896 1757,4925 1774,4940 1806,4950 1847,4951 1852,4959 1851,4971 1839,4997 1851,5018 1904,5030 " style="fill: white; stroke: black; stroke-width: 30" />
<polyline points="2209,4907 2223,4892 2221,4883 2210,4880 2171,4887 2104,4920 2075,4964 2080,4995 2121,5005 2215,4987 2331,4925 2470,4836 2566,4770 2586,4744 2582,4741 2560,4748 2499,4784 2449,4841 2423,4901 2431,4936 2462,4958 2526,4964 2593,4936 2672,4897 2746,4863 2805,4838 2828,4830 2826,4836 2804,4856 2748,4913 2699,4968 2688,5012 2699,5040 2760,5065 2869,5068 2975,5042 3063,5001 3054,4987 3010,4970 2922,4968 2860,4977 2849,5001 2878,5045 2956,5110 3077,5185 " style="fill: white; stroke: black; stroke-width: 30" />
<polyline points="1837,5473 1827,5474 1825,5471 1830,5464 1838,5463 1863,5460 1900,5461 1954,5463 1996,5476 2029,5497 2062,5518 2103,5529 2175,5512 2271,5470 2352,5395 2395,5324 2403,5285 2403,5272 2392,5275 2367,5311 2306,5402 2263,5483 2247,5530 2248,5539 2260,5531 2286,5506 2330,5478 2388,5466 2477,5469 2573,5468 2618,5458 2606,5456 2553,5455 2491,5476 2464,5503 2477,5526 2526,5562 2521,5395 " style="fill: white; stroke: black; stroke-width: 30" />
<polyline points="2777,5458 2765,5445 2769,5443 2769,5462 2775,5511 2767,5577 2741,5664 2717,5759 2691,5813 2679,5818 2668,5804 2669,5740 2682,5643 2652,5365 " style="fill: white; stroke: black; stroke-width: 30" />
<polyline points="3005,5575 3022,5560 3040,5557 3070,5568 3117,5583 3177,5587 3210,5586 3211,5584 3200,5587 3181,5609 3160,5635 3161,5654 3382,5314 3465,5319 3537,5334 3560,5355 3554,5372 3507,5423 3435,5506 3370,5587 3341,5630 3329,5642 3331,5640 3332,5624 3356,5600 3402,5585 3485,5572 3588,5578 3695,5582 3713,5589 3695,5594 3657,5615 3641,5626 3634,5644 3648,5660 3667,5681 3667,5707 3655,5756 3641,5819 3630,5881 3621,5914 3541,5912 3491,5888 3469,5851 3488,5788 3530,5732 3577,5702 3642,5694 " style="fill: white; stroke: black; stroke-width: 30" />
<polyline points="4210,5488 4207,5490 4162,5527 4065,5611 3988,5693 3946,5753 3929,5788 3915,5798 3916,5794 3913,5795 3923,5789 3970,5775 " style="fill: white; stroke: black; stroke-width: 30" />
<polyline points="-2777,8805 -2786,8870 -2757,8953 -2719,9040 -2701,9092 -2705,9126 -2736,9152 -2783,9160 -2827,9141 -2851,9117 -2844,9104 -2825,9087 -2697,8849 " style="fill: white; stroke: black; stroke-width: 30" />
<polyline points="-2540,9088 -2478,8957 -2426,8883 -2375,8874 -2347,8894 -2335,8936 -2358,8981 -2383,9008 -2416,9010 -2449,9008 -2434,9008 -2426,9013 -2381,9020 -2332,9014 -2256,8991 -2154,8953 -2063,8908 -1996,8876 -2000,8868 -2034,8860 -2085,8861 -2152,8883 -2219,8916 -2268,8963 -2261,9005 -2223,9034 -2142,9045 -2040,9024 -1927,8991 -1847,8972 -1812,8962 -1804,8958 -1837,8958 -1885,8974 -1906,8986 -1903,8989 -1857,8987 -1810,8962 -1785,8935 -1774,8925 -1783,8924 -1810,8926 -1853,8956 -1891,8995 -1900,9021 -1893,9050 -1849,9073 -1779,9081 -1712,9071 -1658,9060 -1628,9053 " style="fill: white; stroke: black; stroke-width: 30" />
<polyline points="-1578,8974 -1568,8943 -1585,8930 -1601,8942 -1653,8985 -1664,9027 -1650,9045 -1612,9042 -1521,8980 -1425,8880 -1341,8792 -1320,8746 -1325,8739 -1353,8748 -1400,8806 -1440,8895 -1470,8987 -1461,9058 -1431,9108 -1374,9121 " style="fill: white; stroke: black; stroke-width: 30" />
<polyline points="-1549,7973 -1558,7946 -1565,7941 -1578,7949 -1600,8021 -1627,8134 -1650,8232 -1649,8304 -1634,8329 -1607,8336 -1583,8334 -1565,8334 -1543,8341 " style="fill: white; stroke: black; stroke-width: 30" />
<polyline points="-1804,7901 -1819,7888 -1809,7889 -1759,7887 -1635,7892 -1482,7894 -1364,7887 -1271,7891 " style="fill: white; stroke: black; stroke-width: 30" />
<polyline points="-1527,8188 -1524,8217 -1465,8253 -1353,8251 -1217,8225 -1109,8177 -1075,8136 -1087,8116 -1133,8121 -1227,8171 -1289,8235 -1301,8294 -1262,8334 -1174,8348 -1035,8288 -883,8186 -787,8096 -762,8058 -777,8054 -833,8082 -923,8162 -981,8255 -990,8314 -957,8359 -886,8389 -792,8389 " style="fill: white; stroke: black; stroke-width: 30" />
<polyline points="-593,8253 -638,8261 -640,8264 -623,8258 -580,8242 -531,8220 -522,8210 -537,8211 -573,8235 -619,8281 -624,8328 -596,8370 -545,8393 -492,8400 -442,8385 -415,8366 -397,8353 -394,8346 -395,8343 -391,8346 -395,8346 -386,8346 -361,8349 -302,8351 -253,8355 -179,8353 -124,8332 -99,8295 -121,8274 -170,8270 -221,8288 -260,8326 -253,8362 -201,8390 " style="fill: white; stroke: black; stroke-width: 30" />
<polyline points="387,7932 333,7930 267,7991 166,8114 80,8250 30,8348 27,8399 30,8391 72,8333 127,8276 172,8251 236,8247 312,8262 378,8283 425,8308 461,8338 479,8367 475,8376 473,8370 482,8338 494,8299 506,8285 523,8285 570,8296 648,8303 736,8299 793,8278 812,8258 813,8252 794,8251 749,8266 727,8293 733,8301 772,8307 868,8307 923,8310 920,8332 868,8387 806,8450 755,8525 713,8594 " style="fill: white; stroke: black; stroke-width: 30" />
<polyline points="1998,7951 1971,7950 1974,7948 1935,7970 1858,8035 1777,8109 1720,8167 1694,8228 1713,8297 1741,8371 1748,8396 1739,8395 1698,8376 1642,8353 1604,8331 1594,8313 1606,8308 1691,8287 1808,8262 1957,8235 2081,8213 2135,8206 2135,8206 2097,8216 2046,8246 2031,8270 2033,8279 2077,8280 2130,8283 2151,8290 2133,8320 2105,8376 2079,8427 2070,8455 2075,8468 2086,8469 2131,8447 " style="fill: white; stroke: black; stroke-width: 30" />
<polyline points="2470,8439 2463,8432 2456,8402 2455,8348 2489,8298 2582,8252 " style="fill: white; stroke: black; stroke-width: 30" />
<polyline points="2988,8054 3067,8027 3055,8030 3033,8047 2910,8130 2792,8214 2727,8266 2702,8295 2721,8303 2761,8309 2838,8319 2930,8317 2997,8315 3037,8317 3042,8314 3042,8308 3070,8303 3075,8301 3103,8294 3118,8300 3113,8305 3114,8304 3133,8316 3173,8341 3230,8363 3289,8381 3289,8401 3295,8415 " style="fill: white; stroke: black; stroke-width: 30" />
<polyline points="677,8677 666,8689 654,8754 591,8867 553,8961 556,9018 595,9037 692,9039 805,9024 908,9013 968,8799 " style="fill: white; stroke: black; stroke-width: 30" />
<polyline points="1634,8732 1613,8725 1593,8748 1567,8818 1535,8919 1506,8992 1500,9019 1502,9020 1527,8986 1588,8911 1652,8814 1715,8747 1774,8725 1838,8738 1866,8761 1862,8785 1821,8820 1754,8850 1670,8881 1596,8915 1554,8938 1550,8954 1582,8990 1670,9061 1767,9127 " style="fill: white; stroke: black; stroke-width: 30" />
<polyline points="1954,8961 1920,8927 1861,8910 1794,8916 1773,8931 1778,8964 1811,9012 1863,9049 1920,9060 1973,9050 1995,9030 1995,9007 1975,8988 1960,8981 1957,8984 2009,8993 2069,8999 " style="fill: white; stroke: black; stroke-width: 30" />
<polyline points="2214,8983 2218,8966 2193,8957 2167,8946 2104,8963 2085,8983 2087,9007 2132,9034 2187,9041 2213,9031 2213,9018 2190,9006 2171,9001 2613,8764 2592,8782 2494,8848 2409,8928 2393,8976 2386,9004 2395,9004 2411,9009 2413,9010 2447,9014 2524,9020 2614,9032 2699,9061 " style="fill: white; stroke: black; stroke-width: 30" />
<polyline points="2914,8682 2908,8705 2864,8789 2809,8890 2719,8982 2673,9022 2671,9032 " style="fill: white; stroke: black; stroke-width: 30" />
<polyline points="2755,9058 2838,9099 2920,9103 2994,9087 3020,9073 2996,9073 2973,9081 2921,9101 2909,9120 " style="fill: white; stroke: black; stroke-width: 30" />
<polyline points="3429,8812 3430,8803 3434,8797 3432,8793 3443,8785 3430,8787 3406,8826 3325,8933 3250,9030 3208,9110 3209,9143 3188,9153 3184,9125 3195,9085 3204,9058 3253,9051 " style="fill: white; stroke: black; stroke-width: 30" />
<polyline points="-2780,534 -2778,502 -2779,487 -2776,478 -2774,474 -2777,478 -2779,489 -2787,550 -2798,631 -2798,717 -2791,798 -2782,858 -2755,888 -2702,894 -2618,875 -2547,852 -2491,841 " style="fill: white; stroke: black; stroke-width: 30" />
<polyline points="-2452,823 -2432,804 -2383,780 -2339,756 -2308,739 -2291,719 -2289,696 -2307,668 -2346,653 -2392,669 -2416,700 -2409,734 -2378,779 -2332,819 -2275,853 -2216,863 -1979,731 " style="fill: white; stroke: black; stroke-width: 30" />
<polyline points="-2083,479 -2086,480 -2091,483 -2107,544 -2123,640 -2134,708 -2130,759 -2122,791 -2100,801 -2052,802 -2010,798 -1981,822 -1972,867 -1980,916 -1970,948 -1936,964 " style="fill: white; stroke: black; stroke-width: 30" />
<polyline points="-1833,965 -1842,953 -1846,921 -1843,891 -1840,868 -1828,856 -1799,842 -1765,841 -1722,850 -1681,861 -1642,885 -1615,889 -1596,878 -1580,860 -1574,836 -1582,822 -1615,805 -1660,816 -1677,814 -1674,828 -1663,832 -1627,871 -1572,907 -1506,940 -1423,977 -1350,1000 -1312,1003 -1294,998 " style="fill: white; stroke: black; stroke-width: 30" />
<polyline points="-228,792 -200,809 -162,835 -135,877 -126,917 -144,953 -178,986 -204,1001 -211,1008 " style="fill: white; stroke: black; stroke-width: 30" />
<polyline points="487,735 464,726 458,716 464,711 501,708 597,694 746,684 891,702 1005,730 1042,757 " style="fill: white; stroke: black; stroke-width: 30" />
<polyline points="462,838 445,841 466,846 545,860 652,883 763,907 865,923 763,848 989,950 1011,942 1024,928 1045,899 1073,858 1108,818 1148,772 1190,729 1196,729 1193,730 1187,731 1180,745 1169,782 1163,845 1167,922 1174,988 1180,1041 1190,1073 1198,1090 1203,1094 1201,1086 1165,1039 1125,977 1091,932 1066,899 1058,886 1062,894 1084,905 1143,930 1239,942 1347,926 1437,887 1490,841 1496,811 1272,813 1483,804 1476,815 1461,867 1449,935 1436,1015 1439,1060 1454,1085 1463,1086 1486,1064 1551,996 " style="fill: white; stroke: black; stroke-width: 30" />
<polyline points="1673,828 1695,784 1695,761 1684,761 1678,760 1673,771 1681,785 1688,810 1693,811 1694,815 1698,812 1701,810 1700,812 1704,811 1701,812 1692,826 1685,894 1674,975 1686,1036 1712,1094 1753,1130 1824,1167 " style="fill: white; stroke: black; stroke-width: 30" />
<polyline points="-2148,1237 -2146,1240 -2144,1258 -2146,1320 -2162,1397 -2157,1444 -2116,1475 -2023,1488 -1891,1488 -1786,1484 " style="fill: white; stroke: black; stroke-width: 30" />
<polyline points="-1730,1309 -1663,1305 -1591,1320 -1561,1353 -1554,1389 -1563,1426 -1581,1453 -1603,1470 -1632,1480 " style="fill: white; stroke: black; stroke-width: 30" />
<polyline points="-966,1243 -934,1207 -912,1191 -915,1191 -937,1205 -988,1240 -1044,1293 -1077,1350 -1077,1399 -1052,1450 -1011,1504 -980,1548 -974,1581 -997,1608 -1050,1623 -1116,1623 -1160,1615 -1180,1605 -1176,1602 -1160,1606 -1089,1591 -992,1561 -890,1524 -806,1479 -771,1451 -778,1447 -805,1469 -847,1521 -880,1583 -880,1621 -850,1627 -758,1587 -649,1490 -580,1398 -561,1340 -570,1318 -581,1318 -607,1356 -643,1431 -644,1492 -624,1530 -570,1542 -518,1541 -326,1438 -514,1556 -517,1566 " style="fill: white; stroke: black; stroke-width: 30" />
<polyline points="-259,1437 -302,1414 -313,1402 -312,1404 -306,1438 -304,1503 -297,1562 -280,1596 -254,1597 -201,1565 -159,1533 -146,1516 -145,1514 -140,1536 -122,1562 -97,1585 -69,1612 -53,1618 -51,1612 -42,1585 -22,1526 -5,1470 2,1444 6,1436 13,1441 " style="fill: white; stroke: black; stroke-width: 30" />
<polyline points="138,1562 92,1604 49,1629 18,1637 -2,1624 -2,1596 22,1559 69,1527 126,1522 170,1545 197,1565 214,1587 226,1600 234,1590 265,1541 304,1480 344,1418 385,1369 434,1343 475,1342 494,1364 492,1401 490,1436 504,1453 536,1462 577,1458 593,1447 594,1445 582,1446 557,1463 548,1493 537,1532 523,1574 501,1608 466,1626 439,1637 430,1651 440,1665 477,1692 544,1720 631,1715 697,1690 " style="fill: white; stroke: black; stroke-width: 30" />
<polyline points="459,1519 474,1523 551,1534 621,1540 " style="fill: white; stroke: black; stroke-width: 30" />
<polyline points="-4068,5030 -4065,5096 -4071,5163 -4069,5223 -4066,5253 -4060,5258 -4054,5258 -4055,5238 -4053,5207 " style="fill: white; stroke: black; stroke-width: 30" />
<polyline points="-4194,4827 -4193,4792 -4182,4768 -4152,4749 -4090,4756 -4007,4800 -3944,4849 -3918,4906 -3945,4952 -4005,4983 -4055,4995 -4052,4997 -4037,4992 -3986,5001 -3916,5032 -3872,5074 -3864,5129 -3882,5165 -3904,5182 -3922,5189 -3958,5171 -3998,5137 -4017,5117 -4020,5108 -4014,5108 " style="fill: white; stroke: black; stroke-width: 30" />
<polyline points="-4004,5427 -4008,5428 -4011,5456 -3993,5525 -3963,5603 -3927,5671 -3904,5724 -3895,5738 -3895,5732 " style="fill: white; stroke: black; stroke-width: 30" />
<polyline points="-4030,6133 " style="fill: white; stroke: black; stroke-width: 30" />
<polyline points="-3963,6000 -3968,5972 -3993,5969 -4041,6004 -4115,6090 -4165,6168 -4159,6234 -4129,6284 -4088,6310 -4013,6326 -3934,6317 " style="fill: white; stroke: black; stroke-width: 30" />
<polyline points="-4126,6573 -4127,6603 -4127,6670 -4142,6763 -4172,6866 -4181,6940 -4180,6963 -4163,6963 " style="fill: white; stroke: black; stroke-width: 30" />
<polyline points="-4273,6568 -4291,6547 -4284,6552 -4275,6560 -4243,6575 -4175,6585 -4063,6589 " style="fill: white; stroke: black; stroke-width: 30" />
<polyline points="-4307,7178 -4300,7189 -4297,7187 -4267,7194 -4221,7204 -4169,7212 -4108,7222 " style="fill: white; stroke: black; stroke-width: 30" />
<polyline points="-4250,7410 -4232,7408 -4173,7426 -4100,7456 -4029,7486 -3971,7515 " style="fill: white; stroke: black; stroke-width: 30" />
<polyline points="-4323,8828 -4327,8856 -4333,8858 -4333,8854 -4328,8849 -4339,8809 -4358,8717 -4376,8601 -4360,8514 -4308,8473 -4229,8461 -4151,8470 -4094,8510 -4085,8565 -4107,8632 -4144,8682 -4189,8707 -4236,8703 -4270,8684 -4281,8662 -4275,8657 -4276,8654 -4277,8649 -4267,8656 -4242,8684 -4229,8703 -4223,8704 -4227,8702 -4228,8697 -4222,8697 -4223,8699 -4221,8704 -4202,8736 -4168,8788 -4132,8849 -4107,8892 " style="fill: white; stroke: black; stroke-width: 30" />
<polyline points="-4275,9855 -4302,9892 -4311,9963 -4299,10056 -4285,10139 -4250,10207 -4217,10246 -4197,10255 -4128,10270 -4073,10271 -4017,10251 -4015,10202 " style="fill: white; stroke: black; stroke-width: 30" />
<polyline points="-4336,11046 -4349,11049 -4352,11035 -4350,10997 -4337,10931 -4319,10840 -4302,10752 -4293,10696 -4289,10679 -4302,10680 -4288,10740 -4297,10808 -4262,10875 -4241,10905 -4185,10919 -4161,10889 -4105,10818 -4074,10727 -4038,10657 -4040,10603 -4028,10585 -4027,10577 -4026,10580 -4016,10586 -4023,10585 " style="fill: white; stroke: black; stroke-width: 30" />
<polyline points="-3307,10251 -3302,10264 -3318,10300 -3311,10391 -3299,10506 -3297,10590 -3283,10642 -3278,10655 -3247,10643 -3225,10572 -3219,10492 -3250,10398 -3284,10315 -3297,10247 -3315,10207 -3314,10195 -3283,10203 -3218,10230 -3148,10276 -3118,10324 -3114,10363 -3137,10389 -3178,10422 -3199,10438 -3186,10441 -3152,10471 -3079,10534 -3034,10605 -3007,10678 -3046,10729 -3085,10754 -3115,10764 -3162,10752 -3215,10723 -3225,10702 -3218,10669 -3177,10631 " style="fill: white; stroke: black; stroke-width: 30" />
<polyline points="-2900,10523 -2854,10531 -2811,10528 -2767,10512 -2698,10488 -2667,10469 -2672,10452 -2686,10439 -2711,10445 -2737,10485 -2746,10547 -2738,10611 -2716,10664 -2678,10696 -2638,10706 " style="fill: white; stroke: black; stroke-width: 30" />
<polyline points="-2528,10621 -2446,10575 -2358,10486 -2300,10396 -2271,10340 -2282,10324 -2281,10337 -2276,10404 -2305,10495 -2314,10580 -2314,10620 -2307,10618 -2277,10614 -2239,10609 -2227,10613 -2212,10623 -2201,10619 -2171,10607 -2148,10602 -2137,10607 -2125,10614 -2126,10618 -2118,10610 -2104,10591 -2112,10580 -2121,10580 -2132,10583 -2112,10588 -2092,10584 -2057,10578 -2012,10594 -1972,10633 -1930,10691 -1915,10729 -1920,10731 -1919,10727 " style="fill: white; stroke: black; stroke-width: 30" />
<polyline points="-482,10103 -412,10086 -315,10031 -244,9982 -200,9974 -191,9988 -199,10023 -205,10054 -206,10084 -203,10104 -209,10116 -197,10116 " style="fill: white; stroke: black; stroke-width: 30" />
<polyline points="-159,9772 -100,9763 -48,9758 -6,9760 -2,9760 18,9758 9,9759 11,9760 7,9764 -9,9773 -2,9798 3,9850 0,9911 -17,9972 -23,10016 -19,10045 -21,10060 -11,10066 -4,10064 30,10045 94,10005 141,9978 156,9973 181,9992 195,10037 215,10075 219,10101 206,10120 170,10123 130,10108 99,10090 91,10073 87,10062 91,10060 119,10054 155,10055 232,10052 341,10037 426,10013 489,9982 490,9960 471,9957 432,9967 387,9998 353,10042 370,10087 396,10131 440,10158 494,10169 531,10161 558,10134 562,10107 567,10081 566,10061 609,10046 635,10032 677,10034 " style="fill: white; stroke: black; stroke-width: 30" />
<polyline points="1354,9796 1367,9805 1356,9825 1359,9849 1347,9900 1314,9969 1300,10033 " style="fill: white; stroke: black; stroke-width: 30" />
<polyline points="1298,9589 1294,9589 1291,9589 1314,9585 1331,9586 1329,9587 1330,9589 1324,9590 1311,9591 1315,9594 1333,9597 1370,9609 1368,9622 1335,9628 1323,9622 1312,9608 1295,9594 1285,9590 1289,9393 " style="fill: white; stroke: black; stroke-width: 30" />
<polyline points="1574,9855 1568,9832 1571,9824 1544,9851 1484,9917 1435,9965 1432,10001 1458,10032 1496,10050 1570,10033 1657,9974 1747,9891 1801,9835 1801,9823 1793,9823 1760,9846 1717,9901 1717,9938 1723,9970 1783,9999 1832,10019 1857,10025 1859,10032 1849,10035 1868,10031 1891,10027 " style="fill: white; stroke: black; stroke-width: 30" />
<polyline points="-265,10375 -284,10433 -294,10492 -257,10522 -237,10521 -178,10472 -106,10394 -62,10332 -43,10288 -58,10273 -66,10269 -72,10269 -72,10285 -66,10324 -59,10375 -49,10426 -36,10484 -18,10545 28,10593 80,10607 110,10585 163,10528 199,10476 199,10454 199,10456 197,10464 192,10497 205,10555 222,10602 268,10617 302,10602 323,10555 351,10503 366,10481 372,10472 348,10469 354,10467 376,10467 418,10476 " style="fill: white; stroke: black; stroke-width: 30" />
<polyline points="547,10438 530,10453 517,10490 512,10536 525,10570 554,10583 593,10567 630,10535 644,10503 631,10488 633,10490 613,10492 609,10487 622,10480 642,10439 667,10391 " style="fill: white; stroke: black; stroke-width: 30" />
<polyline points="806,10273 789,10364 785,10441 788,10484 820,10487 840,10477 904,10456 910,10458 915,10469 913,10489 914,10506 899,10518 924,10529 " style="fill: white; stroke: black; stroke-width: 30" />
<polyline points="1232,10224 1226,10227 1218,10240 1220,10279 1213,10357 1192,10450 1191,10531 1180,10579 1181,10587 1194,10564 1179,10515 1177,10458 1212,10416 1233,10401 1268,10399 1323,10422 " style="fill: white; stroke: black; stroke-width: 30" />
<polyline points="1992,10537 1979,10544 1986,10551 1991,10555 1993,10556 1999,10555 1984,10553 2010,10534 2085,10484 2140,10438 2189,10410 2224,10408 2238,10432 2241,10477 2238,10514 2237,10528 2242,10532 2258,10536 2284,10532 2307,10530 2309,10528 2323,10524 2320,10530 2331,10531 2329,10540 2332,10553 2360,10557 2405,10545 2451,10534 2448,10530 2456,10528 " style="fill: white; stroke: black; stroke-width: 30" />
<polyline points="2729,10150 2734,10139 2734,10138 2721,10146 2725,10153 2752,10150 2796,10139 2843,10124 2844,10138 2843,10203 2801,10326 2744,10440 2730,10514 2723,10545 2722,10550 2712,10545 2727,10527 2748,10509 2801,10499 2881,10503 3008,10505 " style="fill: white; stroke: black; stroke-width: 30" />
<polyline points="-443,11054 -448,11026 -451,10998 -444,10978 -431,10960 -407,10947 -352,10967 -277,11011 -219,11058 -189,11098 -193,11136 -205,11176 -250,11206 -297,11227 -313,11215 -327,11175 -305,11126 -243,11081 -184,11061 -134,11062 -100,11070 -100,11080 -92,11097 -65,11101 -27,11094 14,11079 29,11066 33,11058 39,11045 66,11019 116,10989 149,10977 186,10980 218,11002 218,11035 231,11069 234,11087 222,11093 242,11093 217,11090 " style="fill: white; stroke: black; stroke-width: 30" />
<polyline points="540,11091 537,11113 535,11121 508,11120 467,11099 430,11064 409,10832 " style="fill: white; stroke: black; stroke-width: 30" />
<polyline points="725,11146 714,11143 722,11102 720,11041 734,11000 766,10978 809,10968 871,10961 902,10950 943,10940 959,10932 961,10933 937,10941 909,10962 898,10981 901,11012 911,11059 925,11105 " style="fill: white; stroke: black; stroke-width: 30" />
<polyline points="1365,10925 1373,10925 1376,10925 1369,10924 1362,10932 1353,10952 1336,10986 1320,11029 1322,11079 1351,11129 1359,11179 1418,11195 1493,11176 " style="fill: white; stroke: black; stroke-width: 30" />
<polyline points="1933,10835 1907,10821 1867,10834 1838,10878 1768,10959 1706,11046 1638,11129 1615,11180 1620,11187 1639,11183 1701,11160 1795,11115 1847,11078 1876,11054 1860,11052 1816,11058 1773,11075 1755,11096 1701,11126 1689,11152 1691,11165 1691,11177 1750,11181 1835,11165 1933,11146 2035,11128 2124,11107 2133,11094 2129,11087 2118,11085 2088,11091 2072,11112 2060,11132 2064,11142 2064,11153 2112,11149 2142,11143 2148,11138 2137,11141 2152,11140 2141,11149 2160,11155 2156,11167 " style="fill: white; stroke: black; stroke-width: 30" />
<polyline points="2563,11061 2625,11045 2637,11061 2672,11091 2675,11136 2674,11169 2665,11199 2687,11215 2727,11220 " style="fill: white; stroke: black; stroke-width: 30" />
<polyline points="2934,11106 2974,11064 3024,11026 3029,11018 3027,11038 3016,11099 2941,11205 2918,11313 2864,11428 2786,11557 2697,11671 2646,11732 2605,11740 2572,11707 2574,11629 2668,11504 2836,11373 3129,11240 3526,11128 3877,10869 " style="fill: white; stroke: black; stroke-width: 30" />
<polyline points="-3425,5486 -3428,5557 -3422,5600 -3419,5613 -3417,5616 -3419,5613 " style="fill: white; stroke: black; stroke-width: 30" />
<polyline points="-3285,5345 -3306,5377 -3319,5385 -3326,5387 -3319,5396 -3312,5418 -3281,5461 -3224,5503 -3172,5553 -3141,5604 -3145,5653 -3165,5684 -3204,5697 -3243,5697 -3297,5677 -3326,5659 -3342,5641 -3345,5632 " style="fill: white; stroke: black; stroke-width: 30" />
<polyline points="-3530,6124 -3526,6121 -3511,6113 -3469,6108 -3424,6098 -3354,6102 -3284,6109 -3228,6120 -3186,6129 -3174,6130 " style="fill: white; stroke: black; stroke-width: 30" />
<polyline points="-3409,6141 -3402,6228 -3409,6322 -3404,6397 -3403,6440 -3389,6467 -3357,6483 -3299,6498 -3233,6499 -3161,6489 " style="fill: white; stroke: black; stroke-width: 30" />
<polyline points="-3380,6813 -3408,6862 -3444,6952 -3464,7066 -3472,7161 -3458,7202 -3421,7230 -3351,7257 -3272,7270 -3198,7258 -3051,7028 " style="fill: white; stroke: black; stroke-width: 30" />
<polyline points="-3383,7084 -3407,7077 -3410,7068 -3392,7063 -3342,7068 -3279,7075 -3207,7093 " style="fill: white; stroke: black; stroke-width: 30" />
<polyline points="-3478,7600 -3481,7604 -3469,7658 -3457,7780 -3446,7912 -3430,7993 -3420,8010 -3419,7995 -3412,7931 -3425,7812 -3452,7670 -3465,7545 -3444,7457 -3384,7434 -3294,7460 -3211,7519 -3166,7587 -3165,7634 -3187,7666 -3227,7700 -3273,7741 -3322,7788 -3366,7843 -3382,7882 -3362,7916 -3318,7958 -3246,7994 -3143,8025 " style="fill: white; stroke: black; stroke-width: 30" />

</svg>