<?xml version="1.0" standalone="no"?>
<!DOCTYPE svg PUBLIC "-//W3C//DTD SVG 1.1//EN" "http://www.w3.org/Graphics/SVG/1.1/DTD/svg11.dtd">
<svg width="210mm" height="297mm" viewBox="-7000 500 14000 20000" version="1.1" xmlns="http://www.w3.org/2000/svg">

<polyline points="3,4640 -5,4637 -8,4623 -4,4616 0,4611 0,4607 0,4603 -1,4597 0,4594 0,4589 0,4589 -5,4588 -11,4591 -15,4593 -15,4595 -10,4597 -11,4595 -15,4569 " style="fill: white; stroke: black; stroke-width: 30" />
<polyline points="-946,4772 -961,4767 -972,4755 -973,4736 -961,4706 -905,4631 -802,4558 -705,4517 -650,4526 -641,4583 -660,4672 -676,4739 -664,4759 -616,4760 -541,4721 -466,4685 -425,4674 -422,4682 -420,4700 -406,4707 -368,4713 -322,4727 -281,4736 -232,4739 -202,4736 -180,4736 -177,4738 -178,4742 -168,4747 " style="fill: white; stroke: black; stroke-width: 30" />
<polyline points="-74,4921 -52,4912 22,4883 142,4857 308,4805 487,4731 617,4695 662,4688 660,4687 654,4688 649,4690 647,4690 651,4686 " style="fill: white; stroke: black; stroke-width: 30" />

</svg>