<?xml version="1.0" standalone="no"?>
<!DOCTYPE svg PUBLIC "-//W3C//DTD SVG 1.1//EN" "http://www.w3.org/Graphics/SVG/1.1/DTD/svg11.dtd">
<svg width="210mm" height="297mm" viewBox="-7000 500 14000 20000" version="1.1" xmlns="http://www.w3.org/2000/svg">

<polyline points="5184,3905 " style="fill: white; stroke: black; stroke-width: 30" />
<polyline points="-2716,834 -2698,837 -2702,816 -2701,814 -2698,858 -2697,942 -2703,1006 -2710,1044 " style="fill: white; stroke: black; stroke-width: 30" />
<polyline points="-2842,887 -2874,848 -2881,824 -2872,817 -2842,792 -2777,758 -2692,744 -2619,753 -2567,770 -2545,810 " style="fill: white; stroke: black; stroke-width: 30" />
<polyline points="-2499,940 -2457,957 -2428,960 -2420,971 -2419,1003 -2426,1060 -2432,1118 -2427,1139 -2433,1131 " style="fill: white; stroke: black; stroke-width: 30" />
<polyline points="-2436,749 -2442,733 -2435,735 -2411,730 -2364,737 -2339,772 -2351,839 -2397,891 -2425,903 -2444,882 -2445,846 -2428,807 -2415,790 " style="fill: white; stroke: black; stroke-width: 30" />
<polyline points="-2308,997 -2311,1017 -2303,1018 -2295,1016 -2262,997 -2226,977 -2191,978 -2170,1005 -2157,1054 -2149,1081 -2144,1082 -2116,1069 -2072,1036 -2033,1025 -2012,1026 -1996,1033 -1983,1037 -1975,1036 -1970,1025 -1968,1002 -1955,973 -1954,959 -1965,945 -1968,940 -1970,944 -1973,939 -1973,936 -1970,934 -1971,937 -1969,943 -1970,938 -1974,939 -1972,947 -1977,942 -1999,947 -2021,952 -2051,986 -2063,1025 -2053,1044 -2019,1057 -1987,1062 -1962,1068 -1947,1091 -1931,1151 -1911,1238 -1906,1314 -1930,1384 -1968,1422 -2009,1429 -2045,1403 -2050,1332 -2012,1269 -1942,1220 -1861,1169 -1809,1121 -1800,1087 -1817,1056 -1843,1043 -1854,1066 -1841,1108 -1805,1139 -1778,1151 -1751,1144 -1739,1125 -1716,1104 -1697,1094 -1646,1087 " style="fill: white; stroke: black; stroke-width: 30" />
<polyline points="-852,1061 -842,1009 -799,955 -740,924 -677,937 -639,995 -643,1095 -699,1189 -754,1233 -799,1236 -825,1214 -825,1183 -804,1168 -768,1177 -714,1199 -653,1213 -590,1219 -534,1196 -496,1147 -463,1061 -419,933 -393,861 -387,851 -391,855 -417,907 -295,843 -481,1085 -483,1138 -474,1156 -447,1165 -388,1163 -315,1170 -259,1189 -243,1215 -255,1238 -292,1256 -352,1258 -417,1246 -460,1210 -465,1187 " style="fill: white; stroke: black; stroke-width: 30" />
<polyline points="879,1308 872,1277 858,1194 874,1070 935,962 1016,912 1085,932 1099,982 1051,1052 957,1118 865,1163 822,1204 839,1244 901,1284 993,1306 967,1043 " style="fill: white; stroke: black; stroke-width: 30" />
<polyline points="1172,1323 1199,1312 1196,1280 1170,1222 1130,1182 1124,1163 1152,1141 1202,1108 1213,1101 1195,1095 1170,1096 1172,1092 1214,1075 1299,1041 1367,1042 " style="fill: white; stroke: black; stroke-width: 30" />
<polyline points="1490,1102 1434,1118 1414,1142 1425,1181 1458,1233 1465,1280 1433,1306 1358,1326 1298,1324 1286,1320 1301,1322 1347,1311 1410,1291 " style="fill: white; stroke: black; stroke-width: 30" />
<polyline points="1668,1124 1624,1130 1574,1164 1547,1206 1550,1249 1573,1264 1604,1266 1662,1240 1753,1174 1875,1104 1970,1075 1988,1074 1976,1082 1938,1130 1894,1182 1870,1223 1877,1256 1905,1288 1945,1310 2000,1309 2078,1276 2177,1211 " style="fill: white; stroke: black; stroke-width: 30" />
<polyline points="2277,1147 2255,1167 2219,1201 2188,1240 2164,1278 2146,1299 2127,1303 2121,1300 2125,1296 2149,1281 2208,1271 2267,1265 2322,1269 2372,1275 2405,1275 2442,1260 2467,1250 2455,1256 2437,1259 2391,1286 " style="fill: white; stroke: black; stroke-width: 30" />
<polyline points="2588,948 2687,895 " style="fill: white; stroke: black; stroke-width: 30" />
<polyline points="-2614,2131 -2619,2175 -2618,2177 -2633,2142 -2667,2068 -2713,1991 -2752,1924 -2769,1858 -2760,1799 -2710,1763 -2613,1766 -2531,1824 -2485,1919 -2485,2027 -2534,2105 -2593,2149 -2652,2160 -2696,2135 -2732,2078 -2741,2018 -2724,1988 -2684,1986 -2612,2000 -2518,2009 -2411,2011 -2317,2013 -2249,2032 -2230,2074 -2225,2134 -2236,2198 -2244,2231 -2242,2225 -2228,2180 " style="fill: white; stroke: black; stroke-width: 30" />
<polyline points="-2217,1826 -2228,1772 -2225,1763 -2223,1763 " style="fill: white; stroke: black; stroke-width: 30" />
<polyline points="-2010,1968 -2019,1966 -2031,1969 -2049,1992 -2052,2049 -2028,2106 -1997,2155 -1992,2188 -2006,2211 -2038,2226 -2083,2219 -2114,2185 -2117,2140 " style="fill: white; stroke: black; stroke-width: 30" />
<polyline points="-1806,1949 -1818,1908 -1791,1856 -1740,1816 -1685,1831 -1652,1921 -1667,2051 -1725,2151 -1776,2191 -1802,2185 -1816,2146 -1805,2096 -1781,2074 -1747,2086 -1688,2124 -1615,2148 " style="fill: white; stroke: black; stroke-width: 30" />
<polyline points="-1382,2090 -1405,2125 -1442,2142 -1456,2144 -1452,2132 -1418,2062 -1328,1976 -1239,1925 -1158,1901 -1088,1896 -1033,1913 -997,1967 -994,2059 -1024,2137 -1072,2190 -1130,2213 -1181,2216 -1218,2193 -1242,2162 -1259,2105 -1257,2064 -1131,1797 " style="fill: white; stroke: black; stroke-width: 30" />
<polyline points="-916,2141 -869,2149 -812,2137 -753,2101 -703,2051 -696,2004 -734,1969 -818,1986 -882,2056 -891,2149 -847,2208 -761,2233 -648,2202 -542,2133 -463,2033 -412,1910 -387,1811 -385,1772 -399,1766 -428,1793 -467,1837 -502,1893 -521,1943 -522,1996 -504,2047 -486,2085 -478,2096 -474,2093 -463,2087 -439,2061 -425,2041 -425,2039 -425,2038 -426,2039 -426,2038 -425,2036 -427,2032 -430,2022 -423,2004 -400,1987 -390,1991 -379,2006 -364,2042 -363,2077 -361,2095 -358,2092 -328,2075 -257,2051 -219,2057 -209,2090 -207,2132 -194,2168 " style="fill: white; stroke: black; stroke-width: 30" />
<polyline points="8,2113 61,2089 144,2056 202,2059 230,2088 221,2138 178,2189 132,2205 95,2198 78,2173 86,2116 125,2041 " style="fill: white; stroke: black; stroke-width: 30" />
<polyline points="396,1860 381,1822 390,1782 396,1765 397,1760 395,1754 394,1749 395,1750 395,1750 394,1753 368,1810 324,1914 301,2003 299,2071 323,2117 383,2136 " style="fill: white; stroke: black; stroke-width: 30" />
<polyline points="695,1839 654,1863 583,1925 517,2004 508,2043 540,2060 626,2049 747,2001 813,1967 807,1970 779,1997 733,2076 661,2203 598,2347 528,2483 481,2573 " style="fill: white; stroke: black; stroke-width: 30" />
<polyline points="-2490,2958 -2471,2881 -2471,2793 -2494,2711 -2525,2657 -2536,2643 -2539,2641 -2530,2644 -2497,2656 -2438,2682 -2394,2709 -2375,2736 -2379,2765 -2398,2789 -2419,2811 -2419,2819 -2398,2842 -2346,2884 -2318,2928 -2318,2978 -2351,3019 -2386,3047 -2420,3059 -2447,3049 -2472,3024 -2477,2972 -2443,2923 -2382,2894 -2318,2890 -2251,2912 -2193,2956 -2150,2999 -2125,3040 -2114,3068 -2115,3069 -2114,3064 " style="fill: white; stroke: black; stroke-width: 30" />
<polyline points="-2111,2658 -2127,2632 -2131,2624 -2131,2624 " style="fill: white; stroke: black; stroke-width: 30" />
<polyline points="-1933,2929 -1957,2934 -1972,2918 -1997,2884 -2033,2876 -2058,2902 -2051,2937 -2007,2971 -1948,3006 -1894,3065 -1863,3166 -1857,3276 -1866,3363 -1901,3431 -1939,3463 -1977,3453 " style="fill: white; stroke: black; stroke-width: 30" />
<polyline points="-714,2614 -735,2619 -757,2692 -790,2825 -802,2935 -803,3004 -804,3040 -813,3041 -825,3010 -836,2921 -827,2786 -786,2652 -720,2587 -661,2600 -601,2682 -578,2817 -603,2941 -657,3017 -732,3047 -817,3043 -884,2995 -916,2932 " style="fill: white; stroke: black; stroke-width: 30" />
<polyline points="-463,2804 -421,2789 -372,2805 -347,2865 -365,2954 -420,3021 -471,3045 -505,3040 -518,3016 -514,2997 -506,2994 -470,3007 " style="fill: white; stroke: black; stroke-width: 30" />
<polyline points="-170,3003 -183,2955 -175,2907 -142,2875 -78,2844 3,2835 " style="fill: white; stroke: black; stroke-width: 30" />
<polyline points="184,2823 226,2801 271,2811 310,2854 317,2934 276,3006 192,3055 102,3064 51,3041 38,3019 47,3008 71,2999 119,3000 188,3029 285,3076 400,3137 " style="fill: white; stroke: black; stroke-width: 30" />
<polyline points="-2122,3937 -2029,3923 -1955,3914 " style="fill: white; stroke: black; stroke-width: 30" />
<polyline points="-1945,3767 -1941,3775 -1914,3801 -1869,3835 -1827,3880 -1814,3923 -1834,3957 -1863,3992 -1905,4027 -1928,4061 " style="fill: white; stroke: black; stroke-width: 30" />
<polyline points="-1131,4122 -1140,4097 -1146,4064 -1143,4035 -1118,4008 -1078,3991 -1038,3996 -1018,4021 -1022,4042 -1045,4066 -1072,4078 -1110,4074 -1144,4055 -1164,4046 -1166,4041 -1162,4041 " style="fill: white; stroke: black; stroke-width: 30" />
<polyline points="-855,4135 -850,4133 -829,4101 -781,4019 -720,3909 -674,3794 -658,3717 -661,3702 -667,3706 -670,3715 -696,3786 -705,3861 -700,3929 -664,3986 -598,4014 -525,4002 -449,3963 -386,3902 -346,3857 -344,3852 -350,3852 -355,3857 -376,3894 -393,3962 -395,4025 " style="fill: white; stroke: black; stroke-width: 30" />
<polyline points="-141,3966 -149,3973 -167,4020 -198,4097 -215,4159 " style="fill: white; stroke: black; stroke-width: 30" />
<polyline points="-84,3800 -96,3782 -93,3774 -84,3772 -66,3791 -63,3829 -93,3865 -140,3883 -172,3872 -184,3846 " style="fill: white; stroke: black; stroke-width: 30" />
<polyline points="289,3738 255,3736 216,3783 128,3910 49,4071 " style="fill: white; stroke: black; stroke-width: 30" />
<polyline points="93,5256 291,5222 473,5260 643,5353 811,5498 957,5698 1076,5943 1157,6223 1174,6497 1103,6785 931,7068 718,7337 477,7574 213,7764 -72,7893 -377,7949 -675,7919 -916,7807 -1105,7655 -1199,7463 -1212,7218 " style="fill: white; stroke: black; stroke-width: 30" />
<polyline points="-709,7115 -779,7036 " style="fill: white; stroke: black; stroke-width: 30" />
<polyline points="-1131,7500 -1337,7553 -1595,7574 -1866,7553 -2113,7501 -2333,7424 -2460,7314 -2511,7149 -2489,6898 -2383,6587 -2190,6244 -1917,5901 -1582,5624 -1220,5458 -833,5419 -423,5489 -20,5362 " style="fill: white; stroke: black; stroke-width: 30" />
<polyline points="2050,4961 2022,4944 1980,4931 1884,4938 1762,4991 1692,5061 1690,5127 1738,5210 1824,5267 1934,5286 2027,5280 2089,5258 2123,5222 2147,5159 2155,5094 2146,5045 2138,5041 2137,5041 2137,5042 2147,5045 2174,5056 2222,5073 2289,5084 2358,5079 2429,5069 2484,5068 2509,5071 2519,5070 2516,5066 2514,5056 2516,5041 2513,5038 2508,5039 2499,5045 2483,5075 2453,5129 2456,5169 2479,5197 2551,5201 2657,5175 2716,5156 2717,5153 2698,5164 2659,5211 2616,5281 2577,5347 2476,5187 " style="fill: white; stroke: black; stroke-width: 30" />
<polyline points="2994,5033 2945,5087 2913,5170 2905,5246 2911,5298 2890,5325 2843,5336 2807,5335 2814,5313 2892,5221 3062,5080 3229,4975 3300,4933 3313,4926 3293,4944 3243,5041 3179,5164 3145,5254 3124,5297 3114,5308 3111,5292 3115,5248 3139,5205 3174,5184 3215,5173 3250,5174 3287,5172 3336,5149 3396,5116 3432,5100 3431,5109 3431,5126 3407,5184 3381,5239 3353,5280 3320,5304 3291,5315 3257,5321 3252,5311 3265,5293 3329,5228 3432,5159 3502,5128 3568,5094 3637,5043 3697,4978 3736,4930 3761,4901 3759,4896 3750,4899 3728,4904 3689,4930 3643,4996 3614,5096 3626,5208 3705,5320 3843,5413 4009,5465 " style="fill: white; stroke: black; stroke-width: 30" />
<polyline points="1635,8720 1637,8711 1632,8659 1612,8582 1600,8475 1596,8386 1610,8320 1653,8281 1733,8289 1820,8367 1868,8475 1848,8573 1776,8648 1686,8685 1616,8694 1598,8677 1609,8632 1654,8583 1705,8580 1769,8589 1820,8608 1880,8629 1954,8635 2020,8626 2051,8600 2044,8558 2008,8520 1979,8523 1959,8550 1962,8608 1991,8659 2030,8693 2085,8699 2167,8668 2255,8595 2353,8479 2424,8371 2438,8278 2401,8227 2350,8214 2301,8235 2245,8316 2219,8432 2211,8584 2202,8721 " style="fill: white; stroke: black; stroke-width: 30" />
<polyline points="2435,8639 2446,8685 2474,8712 2537,8721 2601,8703 2637,8679 2601,8447 " style="fill: white; stroke: black; stroke-width: 30" />
<polyline points="2745,8539 2748,8530 2775,8539 2812,8579 2824,8638 2810,8689 2768,8710 2709,8713 2685,8703 2695,8686 " style="fill: white; stroke: black; stroke-width: 30" />
<polyline points="2978,8696 2975,8679 2986,8655 3035,8629 3096,8625 3146,8640 3157,8665 3137,8694 3108,8732 " style="fill: white; stroke: black; stroke-width: 30" />
<polyline points="3690,7448 3626,7506 3619,7528 3632,7537 3663,7541 3707,7544 3663,7375 " style="fill: white; stroke: black; stroke-width: 30" />
<polyline points="3683,7833 3622,7856 3618,7869 3654,7917 3709,7992 3736,8048 3716,8070 3681,8073 3655,8070 " style="fill: white; stroke: black; stroke-width: 30" />
<polyline points="3645,8259 3635,8254 3603,8274 3564,8349 3570,8428 3630,8492 3725,8518 3817,8504 3854,8481 3834,8450 3721,8256 " style="fill: white; stroke: black; stroke-width: 30" />
<polyline points="3752,8322 3744,8321 3725,8351 3716,8425 3690,8548 3679,8637 3699,8723 " style="fill: white; stroke: black; stroke-width: 30" />
<polyline points="3661,8947 3660,8933 3645,8943 3631,8984 3640,9073 3648,9163 3632,9238 3615,9295 3548,9335 3532,9337 3511,9315 3526,9229 3556,9145 " style="fill: white; stroke: black; stroke-width: 30" />
<polyline points="3677,8933 3685,8939 3756,8961 3855,8975 3950,8979 " style="fill: white; stroke: black; stroke-width: 30" />
<polyline points="3543,9478 3485,9498 3415,9574 3350,9680 3381,9770 3439,9846 3546,9874 3611,9863 3639,9809 3614,9754 3580,9738 3577,9737 3577,9760 " style="fill: white; stroke: black; stroke-width: 30" />
<polyline points="-6501,4599 " style="fill: white; stroke: black; stroke-width: 30" />
<polyline points="-8741,4716 " style="fill: white; stroke: black; stroke-width: 30" />
<polyline points="-8664,4621 " style="fill: white; stroke: black; stroke-width: 30" />
<polyline points="-8580,4554 " style="fill: white; stroke: black; stroke-width: 30" />
<polyline points="1941,3131 1941,3115 1936,3062 1932,2978 1944,2877 1972,2827 2010,2812 2041,2825 2053,2847 2044,2877 2002,2916 1937,2963 1905,3010 1911,3048 1950,3087 2023,3115 2090,3118 2131,3098 2151,3073 2155,3057 2146,3047 2129,3040 2092,3038 2071,3048 2069,3065 2093,3095 2130,3125 2063,2951 " style="fill: white; stroke: black; stroke-width: 30" />
<polyline points="2434,2885 2429,2877 2424,2862 2415,2841 2393,2818 2364,2817 2325,2853 2291,2946 2278,3061 2278,3161 2279,3234 2286,3252 2287,3242 2302,3186 2336,3123 2376,3100 2448,3090 2523,3083 2580,3060 2615,3027 2621,2981 2610,2941 2593,2940 2549,2956 2493,3000 2467,3054 2476,3099 2503,3133 2556,3165 2623,3173 2683,3159 2744,3124 2776,3074 2777,3040 2751,3034 2694,3053 2657,3098 2657,3140 2690,3178 2747,3206 2665,3039 " style="fill: white; stroke: black; stroke-width: 30" />
<polyline points="2932,3061 2920,3054 2889,3060 2840,3097 2809,3148 2818,3165 2841,3181 " style="fill: white; stroke: black; stroke-width: 30" />
<polyline points="3092,2935 3032,3011 2987,3081 2983,3102 2990,3104 3006,3098 3018,3098 3044,3111 3087,3144 3142,3170 " style="fill: white; stroke: black; stroke-width: 30" />
<polyline points="3317,3307 3348,3274 3410,3202 3474,3098 3538,2986 3543,2967 3534,2977 3495,3063 3462,3165 3445,3230 3440,3254 3430,3254 3411,3217 3404,3156 3411,3125 3451,3102 3527,3078 3600,3071 3655,3049 3707,2997 3748,2946 3748,2945 3736,2961 3707,3014 3673,3096 3658,3160 3639,3213 3636,3240 3634,3262 3638,3266 3646,3255 3675,3193 3707,3095 3728,2996 3739,2927 3770,2918 3823,2943 3856,2994 3842,3040 3763,3078 3671,3091 3650,3089 3668,3071 3768,2961 3887,2903 3980,2902 4015,2931 4007,2985 3994,3071 3960,3183 3910,3277 " style="fill: white; stroke: black; stroke-width: 30" />
<polyline points="-2607,9220 -2582,9187 -2574,9185 -2560,9213 -2549,9309 -2576,9448 -2620,9582 -2666,9680 -2722,9749 -2806,9790 -2925,9800 -3017,9763 -3073,9692 -3071,9650 -3022,9621 -2908,9622 -2791,9666 -2683,9741 -2591,9811 -2494,9889 " style="fill: white; stroke: black; stroke-width: 30" />
<polyline points="-2813,10661 -2651,10490 -2422,10329 -2116,10212 -1803,10144 -1450,10122 -1093,10155 -767,10241 -469,10378 -246,10565 -94,10789 -29,11034 -36,11287 -107,11538 -226,11760 -444,11950 -729,12107 -1070,12221 -1416,12282 -1790,12289 -2125,12227 -2438,12094 -2708,11933 -2914,11758 -3037,11567 -3080,11347 -3015,11095 -2821,10834 -2548,10594 " style="fill: white; stroke: black; stroke-width: 30" />
<polyline points="-316,12531 -323,12528 -307,12528 -264,12529 -198,12531 -102,12536 -33,12539 37,12542 61,12540 63,12537 61,12538 56,12534 51,12530 42,12530 61,12528 47,12517 21,12481 -12,12415 -79,12349 -134,12285 -194,12236 -228,12203 -227,12180 -174,12125 -82,12062 36,12013 162,11988 282,11986 392,12016 453,12078 500,12174 493,12284 450,12391 387,12473 337,12530 330,12543 354,12541 425,12544 526,12534 644,12507 " style="fill: white; stroke: black; stroke-width: 30" />
<polyline points="-3463,9672 -3457,9558 -3398,9420 -3285,9277 -3150,9159 -2977,9056 -2775,8987 -2547,8984 -2339,9039 -2146,9141 -1978,9284 -1900,9438 -1923,9600 -2053,9758 -2250,9887 -2497,9968 -2735,9989 -2977,9948 -3168,9880 -3286,9797 -3326,9696 -3266,9551 " style="fill: white; stroke: black; stroke-width: 30" />
<polyline points="-2416,11377 -2431,11369 -2437,11377 -2443,11428 -2401,11536 -2335,11637 -2248,11690 -2151,11703 -2082,11666 -2020,11600 -2008,11530 -2008,11491 -2024,11464 -2039,11460 " style="fill: white; stroke: black; stroke-width: 30" />
<polyline points="-2282,11040 -2314,11048 -2336,11054 -2350,11048 -2349,11045 -2351,11042 " style="fill: white; stroke: black; stroke-width: 30" />
<polyline points="-2121,11125 -2128,11111 -2129,11105 -2104,11102 -2073,11112 -2073,11124 -2070,11134 -2096,11142 -2126,11136 -2135,11125 " style="fill: white; stroke: black; stroke-width: 30" />
<polyline points="-808,11124 -789,11125 -747,11151 -711,11188 -712,11214 -723,11217 -754,11200 -770,11177 -776,11152 -765,11145 " style="fill: white; stroke: black; stroke-width: 30" />
<polyline points="-1569,10781 -1503,10753 -1443,10697 -1392,10635 -1356,10584 -1337,10558 -1322,10342 " style="fill: white; stroke: black; stroke-width: 30" />
<polyline points="-1641,10268 -1636,10263 -1612,10252 -1601,10245 -1584,10254 -1579,10260 -1585,10259 -1611,10257 -1619,10248 -1624,10238 -1621,10235 -1618,10237 -1624,10238 " style="fill: white; stroke: black; stroke-width: 30" />
<polyline points="-1453,10288 -1436,10285 -1410,10280 -1369,10270 -1345,10273 -1345,10274 -1344,10277 -1344,10282 -1354,10282 -1354,10279 -1354,10279 -1354,10279 -1357,10275 -1355,10274 -1349,10272 -1349,10271 -1343,10273 -1337,10273 -1357,10272 -1376,10277 -1390,10278 -1396,10277 -1394,10278 " style="fill: white; stroke: black; stroke-width: 30" />
<polyline points="-1759,9247 -1738,9241 -1708,9237 -1648,9230 -1584,9220 -1509,9215 -1434,9225 -1349,9238 -1261,9261 -1170,9300 -1109,9345 -1071,9394 -1058,9455 -1051,9509 -1056,9540 -1051,9564 -1056,9581 -1060,9613 -1059,9636 -1059,9675 -1054,9692 -1064,9700 -1061,9726 -1071,9750 -1069,9781 -1075,9804 -1071,9808 -1075,9808 -1077,9808 -1083,9807 -1085,9809 -1092,9808 -1086,9806 -1085,9807 -1090,9804 -1086,9800 " style="fill: white; stroke: black; stroke-width: 30" />
<polyline points="-1377,9833 -1383,9837 -1391,9839 -1385,9839 -1381,9838 -1359,9830 -1331,9823 -1265,9827 -1180,9833 -1094,9840 -1003,9854 -932,9868 -876,9881 -832,9896 -824,9907 -805,9912 -809,9916 -809,9918 -798,9917 " style="fill: white; stroke: black; stroke-width: 30" />
<polyline points="-1164,9601 -1170,9605 -1175,9612 -1175,9629 -1170,9666 -1167,9705 -1158,9743 -1158,9756 -1157,9762 -1150,9771 -1151,9779 -1146,9786 -1146,9784 -1144,9784 -1135,9783 -1146,9781 -1140,9781 -1138,9781 -1144,9779 -1144,9782 -1136,9791 -1127,9799 -1131,9801 -1126,9801 -1125,9800 -1122,9801 -1121,9799 -1108,9796 -1117,9792 -1082,9763 -1050,9716 -1019,9684 -981,9651 -955,9618 -943,9606 -941,9605 -946,9603 -941,9607 -943,9606 -939,9604 " style="fill: white; stroke: black; stroke-width: 30" />
<polyline points="1309,10177 1312,10170 1312,10160 1302,10143 1271,10126 1203,10113 1120,10124 1066,10164 1044,10239 1063,10308 1113,10371 1198,10413 1286,10433 " style="fill: white; stroke: black; stroke-width: 30" />
<polyline points="1390,10373 1368,10346 1381,10307 1405,10277 1465,10266 1516,10287 1544,10337 1531,10400 1489,10439 1441,10442 1397,10425 1384,10389 1393,10325 " style="fill: white; stroke: black; stroke-width: 30" />
<polyline points="1972,10341 1964,10385 1963,10423 1947,10448 1927,10455 1924,10450 1910,10441 1929,10406 1966,10375 " style="fill: white; stroke: black; stroke-width: 30" />
<polyline points="2184,10404 2207,10404 2216,10409 2215,10435 2222,10467 2243,10486 2281,10498 2311,10498 2349,10486 2363,10267 " style="fill: white; stroke: black; stroke-width: 30" />
<polyline points="2518,10452 2503,10459 2505,10458 2502,10454 2493,10461 2512,10462 2512,10464 2511,10474 2510,10482 2543,10495 2609,10500 2666,10493 2678,10489 2678,10489 2688,10486 2696,10490 2718,10499 2769,10494 2823,10469 2860,10434 2850,10422 2853,10417 2836,10417 2834,10418 2826,10423 2851,10442 2873,10484 2936,10528 " style="fill: white; stroke: black; stroke-width: 30" />
<polyline points="1292,10934 1302,10931 1327,10944 1383,10970 1429,10995 1442,11015 1441,11040 1405,11078 1383,11108 1370,11126 1373,11130 1382,11131 " style="fill: white; stroke: black; stroke-width: 30" />
<polyline points="2013,10861 2003,10877 1972,10966 1954,11078 1944,11144 1947,11174 1927,11178 1913,11132 1881,11043 1870,11007 1865,11003 1878,10999 " style="fill: white; stroke: black; stroke-width: 30" />
<polyline points="2155,10944 2188,10959 2236,11011 2233,11097 2198,11170 2144,11202 2125,11205 2107,11195 2112,11160 2144,11118 2170,11103 2201,11104 2228,11138 2242,11189 2264,11223 2279,11238 2281,11239 2292,11224 2330,11181 2353,11110 2363,11071 2345,11071 2356,11068 2402,11055 2467,11044 2503,11037 2544,10999 2573,10948 2569,10930 2585,10924 2599,10929 2627,10942 2653,10976 2681,11026 2686,11087 2681,11139 2648,11186 2613,11201 2571,11188 2530,11165 2521,11147 2529,11143 2570,11144 2625,11147 2685,11158 " style="fill: white; stroke: black; stroke-width: 30" />
<polyline points="2880,11019 2844,11050 2804,11101 2788,11149 2806,11185 2817,11198 2848,11194 2881,11171 2907,11146 2916,11133 2910,11129 2918,11126 2926,11129 2916,11134 2903,11147 " style="fill: white; stroke: black; stroke-width: 30" />
<polyline points="1988,11440 1925,11443 1868,11494 1868,11566 1896,11611 1964,11648 1994,11452 " style="fill: white; stroke: black; stroke-width: 30" />
<polyline points="2324,11475 2291,11470 2279,11470 2272,11490 2278,11536 2305,11581 2309,11621 2289,11654 2260,11667 2232,11670 2237,11668 2253,11667 2255,11666 2243,11451 " style="fill: white; stroke: black; stroke-width: 30" />
<polyline points="2730,11498 2689,11492 2645,11506 2566,11559 2510,11612 2491,11646 2510,11670 " style="fill: white; stroke: black; stroke-width: 30" />
<polyline points="2851,11431 2844,11435 2882,11453 2895,11498 2884,11549 2856,11588 2804,11622 2799,11622 2781,11615 2810,11607 2832,11579 2865,11550 2902,11542 2903,11556 2921,11575 2960,11593 3003,11601 3073,11595 3177,11551 3249,11487 3252,11454 3241,11439 3234,11432 3199,11452 3172,11503 3168,11553 3168,11605 " style="fill: white; stroke: black; stroke-width: 30" />
<polyline points="3320,11659 3267,11656 3273,11643 3304,11629 3357,11617 3378,11622 3400,11628 3406,11635 3413,11641 3799,11362 3729,11438 3646,11539 3587,11613 3567,11657 3557,11664 3564,11654 3566,11636 3611,11610 3662,11588 3732,11571 3811,11552 3880,11529 3897,11525 3892,11526 3889,11533 3858,11572 3822,11616 3790,11650 " style="fill: white; stroke: black; stroke-width: 30" />
<polyline points="4026,11659 4016,11652 4016,11645 4012,11648 4025,11649 4020,11655 4011,11652 4015,11641 4017,11623 4028,11603 4050,11600 4100,11608 4142,11633 4167,11666 4167,11666 4163,11694 4113,11722 " style="fill: white; stroke: black; stroke-width: 30" />
<polyline points="5693,13735 " style="fill: white; stroke: black; stroke-width: 30" />
<polyline points="1999,12345 1980,12331 1990,12332 1992,12372 1999,12463 2001,12524 2002,12565 1995,12578 1998,12566 1997,12528 1988,12470 1985,12392 1985,12303 2010,12244 2047,12212 2081,12214 2107,12240 2090,12268 2039,12305 1981,12320 1962,12323 1966,12335 2037,12383 2087,12434 2098,12473 2061,12503 1991,12522 1956,12518 1953,12517 1965,12517 1995,12520 2066,12516 2157,12504 2225,12485 2295,12463 2367,12436 2379,12424 2389,12412 2347,12413 2350,12413 2337,12447 2337,12477 2364,12517 2384,12556 2418,12579 2439,12584 " style="fill: white; stroke: black; stroke-width: 30" />
<polyline points="2614,12347 2621,12323 2602,12314 2585,12317 2594,12361 2583,12450 2588,12527 2611,12575 2659,12589 2713,12581 " style="fill: white; stroke: black; stroke-width: 30" />
<polyline points="2833,12617 2846,12620 2835,12618 2832,12615 2844,12612 2847,12612 2870,12613 2866,12619 2932,12604 2988,12578 3026,12544 2995,12534 2982,12532 2954,12543 2958,12559 2975,12580 3002,12584 3028,12573 3037,12549 3044,12533 3053,12520 3113,12499 3166,12485 3211,12479 3219,12281 " style="fill: white; stroke: black; stroke-width: 30" />
<polyline points="2578,12775 2599,12740 2716,12656 2777,12549 2979,12400 2887,12398 2909,12380 2908,12377 2911,12379 3066,12350 2891,12469 2868,12548 2865,12636 2880,12693 2893,12716 2887,12725 2872,12724 2808,12737 2851,12721 3021,12667 2922,12705 3035,12661 " style="fill: white; stroke: black; stroke-width: 30" />
<polyline points="2946,12609 3101,12558 3131,12552 3022,12594 3051,12584 3244,12498 3192,12485 3248,12424 3297,12384 3302,12374 3302,12383 3246,12456 3328,12504 3218,12621 3326,12654 3212,12742 " style="fill: white; stroke: black; stroke-width: 30" />
<polyline points="3412,12562 3415,12603 3398,12659 3388,12712 3374,12747 3354,12762 3272,12765 3315,12723 3467,12620 3342,12656 3493,12599 3375,12651 3380,12668 3377,12691 3385,12709 2412,13008 2474,12916 2549,12835 2603,12776 2593,12761 2587,12759 " style="fill: white; stroke: black; stroke-width: 30" />
<polyline points="3539,12614 3529,12730 3507,12846 3597,12883 3587,12912 3473,12950 3494,12877 3514,12745 3564,12635 3606,12566 3632,12546 3641,12559 3664,12576 3683,12604 3696,12659 3823,12679 3808,12746 3690,12817 3657,12825 3794,12743 3575,12753 2534,13014 2558,12936 3732,12505 3729,12514 3760,12509 3917,12444 3653,12327 " style="fill: white; stroke: black; stroke-width: 30" />
<polyline points="4091,12780 3988,12797 3935,12777 3995,12739 3921,12768 4079,12726 4022,12790 4040,12821 4201,12787 4021,12897 " style="fill: white; stroke: black; stroke-width: 30" />
<polyline points="3155,12930 3082,12936 3057,12929 3053,12903 3114,12828 3210,12716 3295,12635 3352,12613 3426,12636 3496,12697 3567,12751 3625,12787 3667,12811 " style="fill: white; stroke: black; stroke-width: 30" />
<polyline points="3838,12855 3777,12874 3740,12858 3726,12830 3762,12784 3809,12757 3869,12748 " style="fill: white; stroke: black; stroke-width: 30" />
<polyline points="1114,13076 1135,13095 1177,13091 1202,13059 1247,13012 1258,12971 1270,12943 1271,12925 1277,12914 1303,12901 " style="fill: white; stroke: black; stroke-width: 30" />
<polyline points="2492,12969 2523,13006 2594,13015 2631,13005 2669,12972 2671,12956 2657,12951 2662,12952 2646,12962 2671,12982 2689,12998 2727,13005 2783,13008 2832,12992 2879,12979 2895,12981 2891,12986 2880,12999 2874,13007 2871,13016 2878,13025 2871,13053 2868,13087 2884,13110 2847,12929 " style="fill: white; stroke: black; stroke-width: 30" />
<polyline points="2257,12150 2871,12227 3552,12330 4348,12483 " style="fill: white; stroke: black; stroke-width: 30" />

</svg>