<?xml version="1.0" standalone="no"?>
<!DOCTYPE svg PUBLIC "-//W3C//DTD SVG 1.1//EN" "http://www.w3.org/Graphics/SVG/1.1/DTD/svg11.dtd">
<svg width="210mm" height="297mm" viewBox="-7000 500 14000 20000" version="1.1" xmlns="http://www.w3.org/2000/svg">

<polyline points="-3197,1860 -3214,1869 -3212,1862 -3167,1819 -3069,1712 -2955,1566 -2868,1468 -2837,1440 -2835,1452 -2829,1513 -2810,1587 -2793,1642 -2789,1699 -2801,1733 " style="fill: white; stroke: black; stroke-width: 30" />
<polyline points="-3080,1660 -3117,1669 -3110,1675 -3074,1681 -2989,1675 -2910,1660 -2857,1626 " style="fill: white; stroke: black; stroke-width: 30" />
<polyline points="-2663,1473 -2680,1470 -2678,1469 -2677,1472 -2672,1497 -2695,1588 -2725,1680 -2750,1733 -2760,1739 -2749,1687 -2716,1570 -2701,1462 -2698,1410 -2708,1394 -2704,1398 -2682,1430 -2638,1460 -2602,1500 -2596,1528 -2613,1560 -2628,1571 -2639,1584 -2636,1594 -2619,1619 -2596,1637 -2572,1669 -2562,1696 -2571,1720 -2625,1738 -2713,1730 -2781,1697 -2820,1643 " style="fill: white; stroke: black; stroke-width: 30" />
<polyline points="-2420,1427 -2427,1431 -2431,1453 -2453,1514 -2498,1609 -2532,1679 -2535,1696 -2531,1677 -2510,1601 -2498,1514 -2498,1451 -2507,1440 -2498,1444 -2450,1444 -2378,1439 -2354,1440 -2369,1468 -2408,1510 -2432,1538 -2436,1543 -2437,1539 -2450,1538 -2470,1544 -2482,1535 " style="fill: white; stroke: black; stroke-width: 30" />
<polyline points="-2507,1552 -2487,1558 -2419,1557 -2360,1574 -2336,1609 -2349,1669 -2412,1733 -2492,1774 -2555,1769 -2600,1739 -2627,1674 " style="fill: white; stroke: black; stroke-width: 30" />
<polyline points="-3036,2141 -3070,2135 -3134,2149 -3215,2195 -3247,2239 -3224,2285 -3152,2323 -3056,2347 -2972,2342 -2921,2317 -2897,2274 -2901,2231 -2927,2166 -2955,2117 -2969,2106 -2972,2115 -2977,2134 " style="fill: white; stroke: black; stroke-width: 30" />
<polyline points="-2818,2302 -2838,2319 -2855,2328 -2855,2325 -2834,2289 -2796,2237 -2769,2217 -2756,2242 -2753,2287 -2743,2315 -2699,2298 -2629,2247 -2580,2219 -2561,2219 -2551,2241 -2552,2264 -2554,2276 -2558,2301 -2564,2324 -2562,2335 " style="fill: white; stroke: black; stroke-width: 30" />
<polyline points="-2479,1998 -2488,1990 -2501,1988 -2511,2005 -2504,2043 " style="fill: white; stroke: black; stroke-width: 30" />
<polyline points="-2356,2041 -2371,2056 -2409,2121 -2455,2227 -2473,2298 -2454,2324 " style="fill: white; stroke: black; stroke-width: 30" />
<polyline points="-2299,2186 -2300,2143 -2315,2127 -2358,2157 -2404,2222 -2401,2271 -2362,2283 -2299,2276 " style="fill: white; stroke: black; stroke-width: 30" />
<polyline points="-2205,2188 -2231,2190 -2271,2206 -2294,2244 -2282,2283 -2242,2303 -2186,2295 -2134,2282 -2134,2272 -2159,2268 -2202,2265 -2222,2262 -2213,2243 " style="fill: white; stroke: black; stroke-width: 30" />
<polyline points="-3190,2878 -3133,2797 -3040,2682 -2953,2594 -2900,2541 -2879,2523 -2870,2539 -2856,2615 -2844,2701 -2826,2764 -2812,2804 -2813,2811 -2828,2805 " style="fill: white; stroke: black; stroke-width: 30" />
<polyline points="-3008,2698 -3035,2674 -3039,2662 -3032,2666 -3011,2677 -2974,2697 -2908,2700 " style="fill: white; stroke: black; stroke-width: 30" />
<polyline points="-2724,2624 -2732,2617 -2731,2617 -2726,2631 -2697,2668 -2661,2713 -2634,2755 -2645,2789 -2686,2814 -2733,2811 -2769,2778 -2771,2742 -2749,2733 -2712,2749 -2682,2778 -2650,2800 " style="fill: white; stroke: black; stroke-width: 30" />
<polyline points="-2560,2807 -2566,2788 -2573,2754 -2573,2722 -2562,2696 -2544,2680 -2517,2667 -2500,2666 -2487,2667 -2483,2674 -2482,2676 -2483,2676 -2476,2674 -2474,2675 -2470,2679 -2470,2683 -2468,2689 -2463,2695 -2449,2690 " style="fill: white; stroke: black; stroke-width: 30" />
<polyline points="-2337,2638 -2324,2683 -2322,2729 -2339,2771 -2375,2789 -2416,2784 -2439,2753 -2435,2726 -2411,2713 -2376,2721 -2333,2728 -2295,2723 " style="fill: white; stroke: black; stroke-width: 30" />
<polyline points="-2215,2723 -2221,2753 -2224,2771 -2221,2769 -2187,2750 -2159,2756 -2144,2784 " style="fill: white; stroke: black; stroke-width: 30" />
<polyline points="-2047,2712 -2021,2718 -1971,2700 -1939,2680 -1931,2667 -1956,2673 -2005,2717 -2030,2772 -2012,2804 -1965,2799 -1904,2753 -1879,2716 -1889,2701 -1896,2705 -1885,2716 -1825,2720 " style="fill: white; stroke: black; stroke-width: 30" />
<polyline points="-1252,2545 -1316,2564 -1385,2603 -1403,2649 -1390,2705 -1377,2761 -1382,2809 -1417,2836 -1471,2828 -1503,2768 -1488,2670 " style="fill: white; stroke: black; stroke-width: 30" />
<polyline points="-1172,2678 -1193,2738 -1197,2763 -1196,2766 -1188,2750 -1191,2723 -1213,2703 -1236,2700 -1240,2699 -1239,2702 -1219,2711 -1175,2727 -1114,2715 -1045,2679 -1005,2657 -996,2660 -1008,2675 -1032,2700 -1052,2719 -1052,2728 -1038,2733 -1006,2748 -982,2762 -972,2772 -940,2750 " style="fill: white; stroke: black; stroke-width: 30" />
<polyline points="-753,2529 -767,2542 -800,2573 -835,2625 -836,2656 -818,2672 -775,2680 -728,2721 -703,2778 -720,2816 -748,2829 -774,2811 -783,2766 -780,2746 -773,2742 -743,2741 -683,2725 -608,2697 -568,2675 -576,2676 -634,2704 -672,2744 -671,2772 -628,2787 " style="fill: white; stroke: black; stroke-width: 30" />
<polyline points="-2916,3078 -2984,3080 -3044,3101 -3079,3143 -3062,3190 -3002,3229 -2920,3242 " style="fill: white; stroke: black; stroke-width: 30" />
<polyline points="-2584,2979 -2586,2976 -2601,2999 -2630,3075 -2633,3149 -2608,3198 -2573,3229 " style="fill: white; stroke: black; stroke-width: 30" />
<polyline points="-2644,3118 -2667,3112 -2665,3110 -2636,3125 -2575,3149 " style="fill: white; stroke: black; stroke-width: 30" />
<polyline points="-2325,3099 -2363,3091 -2412,3119 -2457,3182 -2443,3244 -2379,3280 -2298,3281 " style="fill: white; stroke: black; stroke-width: 30" />
<polyline points="-2970,3541 -2975,3567 -2997,3688 -3033,3841 -3020,3912 -2958,3931 -2860,3912 -2751,3891 -2679,3888 " style="fill: white; stroke: black; stroke-width: 30" />
<polyline points="-2674,3799 -2645,3811 -2600,3844 -2573,3901 -2573,3952 -2599,3982 -2638,4004 " style="fill: white; stroke: black; stroke-width: 30" />
<polyline points="-1925,3690 -1924,3739 -1935,3850 -1950,3977 -1959,4068 " style="fill: white; stroke: black; stroke-width: 30" />
<polyline points="-2100,3720 -2112,3701 -2075,3691 -1979,3680 -1857,3671 -1727,3677 " style="fill: white; stroke: black; stroke-width: 30" />
<polyline points="-1657,3957 -1548,3896 -1481,3845 -1468,3819 -1494,3798 -1570,3814 -1662,3859 -1704,3922 -1684,3974 -1616,4003 -1521,4000 -1439,3978 -1390,3936 -1378,3889 -1389,3849 -1397,3837 -1390,3834 -1326,3829 " style="fill: white; stroke: black; stroke-width: 30" />
<polyline points="-1169,4025 -1165,4011 -1164,3996 -1168,3970 -1165,3942 -1156,3908 -1129,3880 -1090,3862 -1048,3871 -1024,3915 -1023,3956 -1022,3963 -1007,3952 -982,3944 -971,3945 -967,3953 -955,3956 -919,3948 -865,3929 -819,3926 " style="fill: white; stroke: black; stroke-width: 30" />
<polyline points="-773,3947 -772,3968 -770,3992 -763,4014 " style="fill: white; stroke: black; stroke-width: 30" />
<polyline points="-657,3705 -698,3664 -707,3652 -707,3651 -695,3652 " style="fill: white; stroke: black; stroke-width: 30" />
<polyline points="-647,3972 -648,3965 -613,3922 -572,3881 -549,3868 -526,3878 -515,3912 -500,3955 -483,3975 " style="fill: white; stroke: black; stroke-width: 30" />
<polyline points="-345,3877 -353,3867 -357,3864 -372,3879 -385,3895 -375,3916 -337,3922 -259,3916 -207,3919 -200,3935 -200,3945 -186,3950 " style="fill: white; stroke: black; stroke-width: 30" />
<polyline points="-5,3824 -3,3825 -1,3841 2,3898 7,3969 0,4014 -12,4023 -22,4018 -44,3989 -57,3954 " style="fill: white; stroke: black; stroke-width: 30" />
<polyline points="-1640,4105 -1663,4170 -1691,4278 -1691,4349 -1621,4385 -1500,4373 -1381,4346 -1305,4342 " style="fill: white; stroke: black; stroke-width: 30" />
<polyline points="-1340,4185 -1322,4200 -1278,4221 -1237,4248 -1218,4283 -1224,4323 -1249,4353 -1274,4373 -1286,4375 " style="fill: white; stroke: black; stroke-width: 30" />
<polyline points="-474,4181 -507,4144 -578,4113 -671,4119 -758,4165 -797,4250 -766,4325 -671,4375 -543,4379 -440,4351 -381,4308 -365,4258 -380,4194 -427,4135 -479,4095 -498,4085 -497,4085 -486,4088 -460,4105 " style="fill: white; stroke: black; stroke-width: 30" />
<polyline points="-462,4066 -485,4038 -498,4026 -503,4030 -523,4077 -544,4201 -569,4344 -579,4438 " style="fill: white; stroke: black; stroke-width: 30" />
<polyline points="-1534,4554 -1550,4574 -1577,4663 -1575,4753 -1529,4793 -1461,4815 -1387,4818 -1320,4820 -1252,4821 " style="fill: white; stroke: black; stroke-width: 30" />
<polyline points="-1188,4614 -1181,4615 -1148,4634 -1107,4673 -1085,4714 -1107,4776 -1161,4829 -1194,4872 " style="fill: white; stroke: black; stroke-width: 30" />
<polyline points="-274,4744 -275,4743 -278,4739 -281,4735 -285,4732 -286,4732 -286,4726 -290,4725 -294,4720 -302,4713 -312,4705 -321,4697 -340,4691 -370,4698 -409,4722 -443,4772 -443,4818 -413,4847 -364,4860 -291,4848 -230,4810 -210,4780 -207,4759 -219,4748 -252,4728 -287,4710 -307,4700 -304,4700 -304,4699 -303,4703 -297,4707 " style="fill: white; stroke: black; stroke-width: 30" />
<polyline points="-288,4882 -291,4954 -292,5042 -281,5096 " style="fill: white; stroke: black; stroke-width: 30" />
<polyline points="-383,4967 -387,4963 -349,4966 -258,4952 -153,4936 " style="fill: white; stroke: black; stroke-width: 30" />
<polyline points="293,4497 286,4561 250,4714 179,4954 " style="fill: white; stroke: black; stroke-width: 30" />
<polyline points="756,4804 746,4783 698,4762 618,4787 574,4842 586,4894 644,4924 725,4918 785,4878 806,4833 797,4781 773,4758 751,4749 733,4750 726,4751 729,4753 743,4759 760,4769 761,4767 760,4766 761,4763 761,4759 795,4698 878,4595 939,4545 952,4539 956,4543 " style="fill: white; stroke: black; stroke-width: 30" />
<polyline points="889,4545 879,4538 894,4521 946,4492 1001,4475 1022,4475 1023,4476 1025,4498 1020,4562 1011,4651 1029,4715 " style="fill: white; stroke: black; stroke-width: 30" />
<polyline points="1735,4868 1798,4809 1854,4739 1861,4694 1820,4679 1733,4729 1678,4809 1678,4856 1714,4884 1792,4888 1883,4880 " style="fill: white; stroke: black; stroke-width: 30" />
<polyline points="1936,4884 1935,4873 1968,4848 2032,4806 2099,4749 2126,4726 " style="fill: white; stroke: black; stroke-width: 30" />
<polyline points="1937,4682 1936,4706 1969,4778 2068,4877 2209,4937 " style="fill: white; stroke: black; stroke-width: 30" />

</svg>