<?xml version="1.0" standalone="no"?>
<!DOCTYPE svg PUBLIC "-//W3C//DTD SVG 1.1//EN" "http://www.w3.org/Graphics/SVG/1.1/DTD/svg11.dtd">
<svg width="210mm" height="297mm" viewBox="-7000 500 14000 20000" version="1.1" xmlns="http://www.w3.org/2000/svg">

<polyline points="-2894,1690 -2914,1724 -2923,1798 -2918,1911 -2899,1989 -2880,2037 -2865,2059 " style="fill: white; stroke: black; stroke-width: 30" />
<polyline points="-3069,1739 -3081,1732 -3076,1731 -3047,1726 -2986,1714 -2901,1709 -2793,1699 -2701,1699 " style="fill: white; stroke: black; stroke-width: 30" />
<polyline points="-3027,1920 -3029,1916 -3025,1914 -3020,1915 -3014,1915 -2998,1911 -2938,1895 -2838,1872 -2748,1868 " style="fill: white; stroke: black; stroke-width: 30" />
<polyline points="-2831,1722 -2936,1729 -3059,1740 -3158,1774 -3196,1797 -3173,1811 -3049,1831 -2865,1816 -2731,1804 -2686,1820 -2719,1879 -2819,1966 -2913,2034 -2926,2049 -2912,2047 -2890,2056 -2881,2058 -2870,2053 " style="fill: white; stroke: black; stroke-width: 30" />
<polyline points="-1958,1734 -1960,1729 -1965,1734 -1982,1766 -2020,1859 -2043,1947 -2027,1996 -1977,2031 -1896,2025 -1793,1975 -1728,1910 -1717,1850 -1730,1814 -1758,1774 -1781,1756 -1798,1745 -1798,1748 -1797,1756 -1795,1770 " style="fill: white; stroke: black; stroke-width: 30" />
<polyline points="-1538,1836 -1545,1782 -1536,1767 -1533,1777 -1509,1833 -1497,1928 -1516,2002 -1564,2058 -1631,2075 -1673,2052 -1691,1997 -1682,1948 -1651,1924 -1620,1930 -1583,1971 -1548,2019 -1489,2052 " style="fill: white; stroke: black; stroke-width: 30" />
<polyline points="-1242,1700 -1254,1696 -1257,1700 -1268,1736 -1303,1855 -1334,1984 -1333,2077 -1311,2129 " style="fill: white; stroke: black; stroke-width: 30" />
<polyline points="-1100,1845 -1140,1840 -1201,1844 -1280,1869 -1347,1901 -1352,1915 -1328,1950 -1271,1989 -1187,2008 -1124,2014 -1075,2000 -1026,1965 -987,1919 -967,1886 -971,1875 -976,1875 -976,1875 -981,1877 -981,1877 -983,1880 -983,1884 -995,1915 -1014,1965 -1024,2018 -1021,2057 -995,2076 " style="fill: white; stroke: black; stroke-width: 30" />
<polyline points="-992,1735 -985,1685 -944,1666 -890,1686 -876,1730 -905,1785 -936,1805 -956,1806 -959,1793 -962,1750 -949,1702 " style="fill: white; stroke: black; stroke-width: 30" />
<polyline points="-98,1776 -96,1765 -95,1765 -95,1771 -99,1790 -115,1856 -131,1932 -136,2015 -120,2074 " style="fill: white; stroke: black; stroke-width: 30" />
<polyline points="-237,1731 -248,1707 -234,1697 -160,1689 -32,1693 90,1708 197,1710 243,1706 232,1703 195,1707 173,1707 166,1707 164,1704 163,1706 156,1714 122,1772 75,1876 61,1955 102,1989 175,1980 262,1915 312,1871 313,1860 307,1865 290,1881 275,1920 279,1946 291,1973 305,1990 313,2003 316,2003 333,1986 356,1944 375,1891 382,1863 383,1863 387,1866 412,1861 484,1850 539,1866 " style="fill: white; stroke: black; stroke-width: 30" />
<polyline points="507,2051 504,2039 510,2007 526,1963 561,1907 591,1879 613,1866 622,1873 623,1895 624,1937 648,1968 715,1975 785,1933 800,1900 761,1875 682,1895 628,1959 650,2018 737,2043 850,2010 909,1961 919,1939 917,1932 923,1933 941,1942 953,1962 954,1978 957,1995 961,2004 " style="fill: white; stroke: black; stroke-width: 30" />
<polyline points="-2014,2425 -2018,2420 -2019,2414 -2018,2412 -1999,2412 -1952,2414 -1885,2408 -1788,2391 " style="fill: white; stroke: black; stroke-width: 30" />
<polyline points="-1900,2381 -1899,2384 -1907,2389 -1919,2429 -1937,2497 -1945,2562 -1943,2601 -1941,2606 -1938,2607 -1926,2606 -1891,2600 -1831,2596 -1763,2590 -1702,2583 -1644,2576 -1625,2576 -1623,2577 -1626,2578 -1628,2577 -1630,2576 -1628,2575 -1627,2577 -1634,2576 -1651,2581 " style="fill: white; stroke: black; stroke-width: 30" />
<polyline points="-1638,2513 -1627,2509 -1603,2509 -1574,2524 -1551,2540 -1540,2559 -1547,2574 -1585,2610 -1649,2653 -1672,2675 -1661,2672 " style="fill: white; stroke: black; stroke-width: 30" />
<polyline points="-3944,5065 -3947,5052 -3935,5019 -3894,4934 -3821,4803 -3739,4665 -3679,4593 -3664,4577 -3661,4580 -3663,4590 -3664,4609 -3653,4682 -3615,4804 -3563,4921 -3521,5005 " style="fill: white; stroke: black; stroke-width: 30" />
<polyline points="-3784,4820 -3846,4801 -3875,4777 -3881,4774 -3874,4777 -3857,4779 -3814,4776 -3742,4778 -3636,4770 -3532,4769 " style="fill: white; stroke: black; stroke-width: 30" />
<polyline points="-3433,4812 -3456,4818 -3467,4830 -3457,4897 -3435,5016 -3419,5130 -3406,5196 -3407,5203 -3414,5188 -3441,5107 -3462,4956 -3448,4814 -3392,4736 -3328,4709 -3288,4733 -3279,4785 -3324,4849 -3394,4893 -3463,4890 -3477,4875 -3462,4815 -3409,4780 " style="fill: white; stroke: black; stroke-width: 30" />
<polyline points="-3227,4798 -3235,4757 -3203,4705 -3123,4672 -3027,4710 -2978,4796 -2994,4873 -3051,4910 -3130,4905 -3207,4862 -3241,4817 -3248,4777 -3222,4754 " style="fill: white; stroke: black; stroke-width: 30" />
<polyline points="-2720,4730 -2745,4695 -2793,4673 -2866,4673 -2934,4714 -2954,4788 -2900,4860 -2786,4916 -2669,4926 " style="fill: white; stroke: black; stroke-width: 30" />
<polyline points="-2575,4795 -2614,4758 -2612,4715 -2577,4676 -2516,4668 -2452,4719 -2424,4799 -2437,4866 -2508,4918 -2612,4950 -2670,4929 -2672,4892 -2638,4844 -2590,4817 -2550,4826 -2508,4874 -2453,4916 " style="fill: white; stroke: black; stroke-width: 30" />
<polyline points="-2164,4522 -2181,4511 -2189,4520 -2235,4616 -2272,4753 -2261,4844 -2211,4899 -2128,4919 " style="fill: white; stroke: black; stroke-width: 30" />
<polyline points="-1967,4711 -1997,4699 -2014,4700 -2024,4712 -2042,4765 -2052,4830 -2042,4878 -2019,4898 -1970,4891 -1895,4843 -1818,4780 -1793,4767 -1802,4777 -1830,4833 -1866,4909 -1871,4972 -1856,5011 " style="fill: white; stroke: black; stroke-width: 30" />
<polyline points="-1653,4735 -1682,4777 -1699,4875 -1732,5019 -1761,5150 -1777,5247 -1779,5269 -1778,5255 -1761,5153 -1696,4943 -1604,4796 -1531,4747 -1504,4746 -1509,4783 -1566,4852 -1654,4909 -1721,4922 -1754,4904 -1755,4863 -1703,4812 " style="fill: white; stroke: black; stroke-width: 30" />
<polyline points="-1347,4720 -1386,4712 -1412,4721 -1429,4789 -1432,4894 -1443,4962 -1467,4979 -1503,4967 -1535,4936 -1532,4915 -1502,4904 -1411,4913 -1309,4910 -1223,4886 -1195,4839 -1227,4796 -1296,4788 -1326,4828 -1310,4900 -1238,4962 -1112,4982 " style="fill: white; stroke: black; stroke-width: 30" />
<polyline points="-187,5130 -184,5090 -166,5018 -131,4890 -77,4696 -33,4513 -29,4431 -36,4417 -40,4436 -71,4577 -81,4758 -30,4865 64,4924 186,4918 304,4829 382,4711 388,4638 361,4615 " style="fill: white; stroke: black; stroke-width: 30" />
<polyline points="406,4747 453,4649 532,4592 602,4594 648,4656 659,4756 609,4849 534,4914 447,4936 401,4921 394,4898 411,4884 444,4872 494,4876 548,4886 612,4901 " style="fill: white; stroke: black; stroke-width: 30" />
<polyline points="509,4626 534,4618 529,4616 505,4618 460,4624 395,4644 354,4690 357,4757 391,4831 468,4897 533,4896 560,4888 566,4862 570,4798 565,4718 561,4687 555,4681 551,4687 554,4693 556,4697 557,4696 569,4704 " style="fill: white; stroke: black; stroke-width: 30" />
<polyline points="767,4652 739,4647 732,4660 713,4732 694,4833 709,4903 743,4935 805,4936 874,4892 915,4835 910,4820 902,4820 898,4831 904,4868 922,4918 960,4953 1004,4968 1020,4967 1028,4949 1047,4885 1051,4804 1041,4778 1039,4776 1041,4780 1046,4786 1062,4799 " style="fill: white; stroke: black; stroke-width: 30" />
<polyline points="-831,2478 -834,2473 -836,2476 -845,2496 -854,2555 -851,2627 -838,2679 -828,2704 -819,2711 -815,2711 -818,2706 -839,2675 -858,2632 -885,2603 -910,2563 -931,2502 -953,2428 -969,2384 -970,2372 -947,2366 -872,2376 -776,2416 -708,2459 -697,2473 -719,2476 -778,2486 -805,2497 -794,2514 -749,2568 -694,2641 -691,2696 -731,2735 -782,2746 -834,2730 -873,2687 -892,2642 -896,2593 " style="fill: white; stroke: black; stroke-width: 30" />
<polyline points="-613,2569 -573,2501 -520,2472 -462,2499 -426,2582 -442,2679 -487,2735 -551,2751 -611,2717 -644,2662 -636,2638 -608,2637 -550,2660 -484,2675 -408,2649 -334,2579 -270,2470 -234,2381 -230,2363 -240,2369 -279,2408 -349,2516 -373,2595 -361,2647 -309,2673 -223,2666 -146,2621 -115,2561 -120,2523 -127,2509 -125,2499 -124,2500 -126,2505 -138,2529 -175,2596 -198,2684 -172,2730 -111,2752 -24,2734 42,2691 46,2654 17,2643 -33,2655 -54,2677 -42,2711 13,2750 77,2758 131,2730 158,2666 159,2603 154,2580 156,2582 168,2589 221,2605 281,2615 322,2614 344,2606 345,2602 341,2599 337,2602 332,2616 325,2658 322,2714 334,2751 350,2754 " style="fill: white; stroke: black; stroke-width: 30" />
<polyline points="403,2416 395,2365 391,2355 392,2359 405,2367 442,2406 " style="fill: white; stroke: black; stroke-width: 30" />
<polyline points="287,2411 290,2376 339,2334 421,2312 463,2325 451,2358 383,2395 326,2400 317,2387 329,2355 387,2296 " style="fill: white; stroke: black; stroke-width: 30" />
<polyline points="441,2778 462,2710 492,2635 519,2595 530,2590 527,2610 524,2658 530,2694 547,2697 599,2674 691,2618 750,2602 766,2610 783,2614 819,2588 868,2541 886,2524 886,2531 878,2559 872,2600 871,2643 864,2689 842,2734 813,2765 795,2770 775,2751 765,2702 780,2669 811,2661 843,2685 870,2711 900,2733 " style="fill: white; stroke: black; stroke-width: 30" />
<polyline points="2095,2639 2087,2643 2103,2644 2172,2648 2278,2634 2363,2615 2398,2595 " style="fill: white; stroke: black; stroke-width: 30" />
<polyline points="2317,2549 2312,2542 2314,2543 2349,2562 2423,2595 2489,2631 2489,2651 2438,2673 2385,2688 2389,2693 2442,2711 " style="fill: white; stroke: black; stroke-width: 30" />
<polyline points="2770,2536 2769,2531 2765,2531 2745,2555 2683,2655 2657,2735 2660,2777 2689,2768 2725,2690 2747,2591 2775,2479 2808,2436 2854,2441 2902,2509 2909,2607 2876,2683 2813,2728 2778,2730 2757,2714 2756,2690 2761,2660 2767,2659 2773,2662 2805,2673 2869,2673 2963,2663 3038,2672 3058,2698 3039,2730 3007,2760 2999,2770 3013,2767 3054,2727 " style="fill: white; stroke: black; stroke-width: 30" />
<polyline points="3115,2547 3089,2521 3074,2510 3074,2513 3089,2513 " style="fill: white; stroke: black; stroke-width: 30" />
<polyline points="3288,2593 3271,2592 3260,2590 3250,2596 3215,2631 3177,2675 3150,2705 3140,2715 3139,2712 3145,2708 3151,2697 " style="fill: white; stroke: black; stroke-width: 30" />
<polyline points="3281,2616 3293,2612 3347,2613 3399,2623 3410,2635 3392,2658 3330,2707 3276,2757 3266,2786 3294,2806 3340,2803 3363,2787 " style="fill: white; stroke: black; stroke-width: 30" />
<polyline points="3285,2719 3299,2695 3324,2687 3365,2684 3388,2692 3440,2708 3491,2724 3498,2733 3476,2739 3449,2752 3442,2764 3461,2774 " style="fill: white; stroke: black; stroke-width: 30" />
<polyline points="3636,2589 3619,2580 3617,2577 3625,2581 3643,2595 " style="fill: white; stroke: black; stroke-width: 30" />
<polyline points="3753,2585 3696,2580 3660,2585 3640,2609 3617,2687 3576,2808 3525,2915 3490,2986 3473,3006 3475,3005 3491,2965 3556,2872 3653,2743 3744,2666 3789,2644 3786,2669 3732,2738 3640,2799 3569,2826 3560,2826 3593,2792 3720,2695 3856,2634 3967,2593 4001,2564 3983,2536 3934,2511 3885,2519 3832,2601 3820,2711 3852,2789 3890,2822 3921,2805 3932,2772 3919,2769 3895,2789 3868,2835 3879,2879 3928,2873 4000,2808 4078,2662 4099,2558 4085,2538 4070,2552 4059,2606 4066,2684 " style="fill: white; stroke: black; stroke-width: 30" />
<polyline points="4056,2851 4048,2858 4081,2847 4157,2811 4196,2790 4182,2793 4126,2835 4095,2885 4092,2919 " style="fill: white; stroke: black; stroke-width: 30" />
<polyline points="2336,2932 2545,2941 3058,2962 " style="fill: white; stroke: black; stroke-width: 30" />
<polyline points="3607,3098 3833,3131 4177,3108 " style="fill: white; stroke: black; stroke-width: 30" />
<polyline points="-3075,5289 -3087,5278 -3086,5278 -3073,5281 -3013,5273 -2907,5249 " style="fill: white; stroke: black; stroke-width: 30" />
<polyline points="-3011,5289 -3030,5332 -3060,5462 -3074,5577 -3046,5610 -3004,5620 -2929,5600 -2851,5591 -2776,5590 -2694,5583 " style="fill: white; stroke: black; stroke-width: 30" />
<polyline points="-2752,5487 -2753,5484 -2722,5476 -2667,5484 -2618,5502 -2614,5527 -2638,5569 -2687,5627 -2711,5659 -2692,5675 " style="fill: white; stroke: black; stroke-width: 30" />
<polyline points="-2135,5413 -2100,5400 -2038,5387 -1977,5380 -1930,5375 -1924,5378 " style="fill: white; stroke: black; stroke-width: 30" />
<polyline points="-2156,5503 -2167,5530 -2175,5546 -2171,5556 -2160,5558 -2105,5579 -2021,5588 -1951,5593 -1880,5600 " style="fill: white; stroke: black; stroke-width: 30" />
<polyline points="-2168,5550 -2147,5532 -2080,5513 -1976,5507 " style="fill: white; stroke: black; stroke-width: 30" />
<polyline points="-1901,5593 -1885,5583 -1858,5568 -1828,5557 -1806,5552 -1799,5550 -1795,5544 -1791,5538 -1790,5533 -1787,5533 -1791,5531 -1794,5534 -1801,5537 -1840,5555 -1885,5577 -1910,5598 -1909,5619 -1893,5633 -1837,5653 -1748,5659 -1650,5628 -1569,5580 " style="fill: white; stroke: black; stroke-width: 30" />
<polyline points="-1497,5291 -1507,5297 -1541,5345 -1601,5455 -1648,5558 -1655,5603 -1646,5616 -1624,5622 -1588,5625 -1560,5636 -1528,5655 -1499,5665 -1442,5643 -1385,5590 -1344,5551 -1341,5553 -1347,5564 -1344,5573 -1331,5570 -1331,5559 -1353,5535 -1383,5532 -1398,5545 -1391,5578 -1360,5623 -1298,5651 -1242,5629 -1193,5574 -1148,5494 -1109,5402 -1083,5332 -1076,5298 -1095,5295 -1124,5331 -1156,5404 -1176,5496 -1179,5562 -1150,5607 -1107,5621 -1052,5600 -1020,5566 -1016,5554 -1016,5555 " style="fill: white; stroke: black; stroke-width: 30" />
<polyline points="-913,5568 -960,5582 -979,5575 -980,5560 -948,5518 -893,5494 -848,5504 -834,5539 -853,5587 -891,5623 -926,5616 -952,5591 -951,5558 -941,5536 -915,5530 " style="fill: white; stroke: black; stroke-width: 30" />
<polyline points="-735,5677 -751,5650 -746,5611 -715,5587 -673,5587 -639,5613 -632,5645 -640,5665 -641,5677 " style="fill: white; stroke: black; stroke-width: 30" />
<polyline points="-2039,5983 -2044,5982 -2015,5974 -1951,5960 -1854,5944 -1736,5926 " style="fill: white; stroke: black; stroke-width: 30" />
<polyline points="-1869,5916 -1865,5919 -1872,5959 -1898,6079 -1921,6178 -1921,6207 -1887,6222 -1826,6232 -1741,6232 -1650,6224 -1546,6203 -1458,6170 " style="fill: white; stroke: black; stroke-width: 30" />
<polyline points="-1530,6099 -1494,6100 -1417,6102 -1337,6110 -1315,6119 -1313,6134 -1337,6161 -1382,6210 -1402,6227 -1399,6228 -1387,6221 " style="fill: white; stroke: black; stroke-width: 30" />
<polyline points="-902,6097 -911,6101 -922,6109 -929,6113 -928,6115 -931,6115 -930,6117 -925,6124 -944,6145 -970,6235 -982,6308 -965,6347 -927,6373 -869,6372 -775,6308 -655,6191 -559,6098 -533,6071 -536,6070 -540,6074 -539,6074 " style="fill: white; stroke: black; stroke-width: 30" />
<polyline points="-535,6186 -508,6182 -475,6186 -441,6211 -415,6240 -423,6280 -460,6320 -530,6361 -598,6383 -612,6376 -606,6345 -567,6309 -527,6302 -504,6322 -476,6357 -438,6393 " style="fill: white; stroke: black; stroke-width: 30" />
<polyline points="-156,5987 -175,6006 -202,6055 -251,6153 -293,6259 -305,6344 -270,6393 " style="fill: white; stroke: black; stroke-width: 30" />
<polyline points="-25,6108 -84,6115 -170,6137 -279,6189 -354,6247 -367,6271 -335,6291 -247,6326 -148,6330 " style="fill: white; stroke: black; stroke-width: 30" />
<polyline points="-124,6366 -85,6337 -35,6293 -10,6276 " style="fill: white; stroke: black; stroke-width: 30" />
<polyline points="-35,6290 -55,6302 -66,6314 -73,6332 -77,6354 -76,6362 -67,6355 -48,6341 -38,6320 -13,6291 39,6224 105,6152 140,6127 139,6131 136,6132 139,6136 138,6135 138,6135 144,6134 144,6135 149,6133 149,6133 148,6132 147,6132 142,6131 142,6131 139,6130 133,6130 129,6128 132,6128 132,6125 139,6126 137,6125 137,6126 137,6124 136,6125 139,6125 147,6128 151,6129 " style="fill: white; stroke: black; stroke-width: 30" />
<polyline points="244,5875 257,5896 282,5947 291,6000 280,6032 249,6047 203,6037 180,6018 183,5990 200,5963 236,5929 " style="fill: white; stroke: black; stroke-width: 30" />
<polyline points="1423,6241 1403,6241 1398,6240 1432,6243 1501,6245 1620,6235 1773,6215 1938,6196 2049,6190 2098,6192 2106,6191 2114,6191 2112,6192 2110,6193 2103,6193 2102,6192 2106,6187 2118,6165 2157,6111 2184,6069 2203,6032 2215,6007 2213,6004 2209,6004 2201,6006 2205,6005 2205,6005 2206,6005 2203,6004 2204,6004 2199,6003 2191,6004 2142,6006 2060,6006 1960,6008 1849,6013 1760,6021 1724,6028 1717,6028 1724,6028 1721,6027 1723,6026 1723,6023 1725,6025 1726,6024 1730,6027 1730,6027 1730,6029 1733,6028 1731,6030 1729,6029 1731,6028 1732,6026 1731,6026 1726,6026 1714,6027 1682,6027 1600,6033 1525,6041 1483,6051 1461,6061 1471,6060 1470,6058 1475,6056 1481,6053 1477,6056 1471,6055 1473,6057 1472,6056 1476,6055 1479,6051 1490,6039 1511,5970 1521,5896 1511,5838 1509,5821 1507,5799 1505,5798 1507,5796 1508,5796 1509,5795 1507,5796 1502,5795 1503,5796 1503,5795 1505,5795 1509,5793 1526,5794 1587,5792 1671,5793 1778,5791 1906,5788 2032,5777 2117,5773 2129,5770 2134,5770 2133,5769 2132,5770 2130,5769 2133,5770 2134,5769 2135,5771 2129,5772 2135,5771 2132,5770 2137,5772 2142,5772 " style="fill: white; stroke: black; stroke-width: 30" />
<polyline points="-2617,7609 -2624,7620 -2637,7654 -2636,7745 -2644,7820 -2631,7878 -2622,7881 -2613,7865 -2613,7801 -2611,7704 -2611,7627 -2614,7595 -2617,7595 -2620,7602 -2629,7636 -2638,7729 -2628,7804 -2570,7871 -2482,7894 -2375,7866 -2296,7812 -2258,7742 -2255,7669 -2280,7619 -2301,7606 -2312,7607 -2322,7617 -2329,7628 -2338,7656 -2317,7724 -2282,7800 -2238,7840 -2183,7850 -2138,7831 -2091,7791 -2071,7744 -2082,7704 -2112,7679 -2169,7689 -2207,7727 -2193,7802 -2124,7855 -2027,7851 -1945,7806 -1912,7734 " style="fill: white; stroke: black; stroke-width: 30" />
<polyline points="-1898,7533 -1908,7521 -1934,7530 -1950,7551 -1953,7555 -1938,7547 -1919,7519 -1916,7514 -1920,7512 -1917,7515 -1922,7516 -1921,7528 -1923,7594 -1922,7700 -1903,7792 -1869,7852 -1847,7861 " style="fill: white; stroke: black; stroke-width: 30" />
<polyline points="-1929,7671 -1978,7669 -1988,7670 -1968,7670 -1893,7662 -1803,7648 " style="fill: white; stroke: black; stroke-width: 30" />
<polyline points="-1734,7577 -1730,7572 -1717,7568 -1675,7570 -1618,7588 -1606,7620 -1635,7694 -1693,7763 -1701,7780 -1690,7788 -1654,7803 -1608,7810 -1574,7806 " style="fill: white; stroke: black; stroke-width: 30" />
<polyline points="-1638,7693 -1634,7698 -1620,7700 -1568,7711 -1499,7714 " style="fill: white; stroke: black; stroke-width: 30" />
<polyline points="-360,7549 -380,7543 -388,7547 -390,7594 -387,7722 -366,7845 -335,7908 -312,7917 -309,7866 -336,7758 -379,7618 -392,7539 -366,7510 -291,7521 -219,7589 -205,7676 -247,7744 -321,7767 -400,7737 -435,7680 -442,7611 -401,7580 " style="fill: white; stroke: black; stroke-width: 30" />
<polyline points="-103,7728 -105,7661 -95,7636 -64,7635 -20,7673 0,7758 -15,7837 -49,7875 -93,7868 -140,7825 -158,7769 -157,7754 -140,7758 -91,7791 -18,7833 61,7849 125,7831 154,7792 160,7746 157,7723 152,7717 160,7719 167,7724 184,7735 209,7742 236,7745 249,7742 246,7738 241,7735 247,7736 252,7736 264,7738 278,7735 317,7714 341,7678 335,7634 289,7616 226,7646 202,7698 214,7766 290,7817 391,7841 479,7835 523,7811 521,7785 511,7743 502,7719 503,7713 502,7712 509,7716 513,7721 527,7733 538,7750 553,7776 568,7799 578,7831 577,7856 580,7880 " style="fill: white; stroke: black; stroke-width: 30" />
<polyline points="747,7401 736,7427 699,7533 651,7691 631,7793 625,7828 619,7816 616,7789 619,7777 618,7779 634,7779 694,7778 781,7763 " style="fill: white; stroke: black; stroke-width: 30" />
<polyline points="1480,7707 1491,7693 1490,7682 1470,7665 1417,7641 1351,7650 1329,7667 1330,7729 1356,7825 1371,7902 1357,7937 1315,7945 1253,7910 1209,7854 1216,7778 1275,7741 " style="fill: white; stroke: black; stroke-width: 30" />
<polyline points="1731,7696 1675,7672 1575,7686 1493,7771 1482,7846 1533,7899 1645,7905 1793,7840 1905,7746 1913,7682 1864,7668 1814,7699 1813,7750 " style="fill: white; stroke: black; stroke-width: 30" />
<polyline points="2032,7701 2016,7696 2016,7694 2025,7698 2027,7699 2026,7698 2026,7695 2024,7695 2025,7694 2020,7694 2013,7688 2002,7686 1999,7685 2004,7687 1995,7690 1999,7691 1999,7690 2004,7691 1999,7691 1995,7694 1995,7693 1996,7693 1993,7694 1998,7694 1998,7692 1999,7693 1994,7691 1999,7691 1994,7689 1993,7688 1990,7686 1988,7686 1990,7683 1993,7686 1993,7686 1998,7687 1996,7687 1996,7688 1991,7686 1987,7684 1955,7675 1861,7677 1768,7703 1729,7741 1748,7787 1837,7855 1934,7895 2005,7904 2043,7886 2068,7855 2078,7817 2074,7769 2068,7740 2047,7734 2039,7740 2033,7749 2038,7767 2055,7799 2094,7818 2149,7817 2228,7774 2289,7727 2306,7700 2309,7688 2305,7680 2297,7685 2282,7696 2275,7740 2291,7811 2333,7858 2418,7854 2524,7788 2593,7726 2597,7716 2586,7730 2585,7784 2602,7861 2647,7896 " style="fill: white; stroke: black; stroke-width: 30" />
<polyline points="2944,7404 2906,7398 2890,7425 2869,7540 2874,7699 2892,7816 2889,7859 2863,7821 2815,7760 2776,7728 2778,7714 2801,7700 2899,7679 3088,7673 3352,7676 " style="fill: white; stroke: black; stroke-width: 30" />
<polyline points="4138,7383 4119,7386 4051,7432 3869,7623 3656,7923 3569,8211 " style="fill: white; stroke: black; stroke-width: 30" />
<polyline points="-590,8788 -569,8751 -484,8627 -345,8471 -228,8345 -191,8300 -194,8299 -198,8313 -212,8399 -196,8524 -161,8633 -114,8722 -76,8761 " style="fill: white; stroke: black; stroke-width: 30" />
<polyline points="-487,8676 -533,8620 -526,8578 -470,8544 -362,8528 -247,8567 -103,8623 " style="fill: white; stroke: black; stroke-width: 30" />
<polyline points="-34,8500 -39,8462 15,8413 89,8404 152,8456 169,8577 103,8695 26,8745 -25,8733 -51,8696 -49,8662 -16,8634 40,8625 118,8654 204,8698 " style="fill: white; stroke: black; stroke-width: 30" />
<polyline points="253,8678 244,8650 251,8600 280,8540 355,8463 402,8435 439,8431 485,8444 " style="fill: white; stroke: black; stroke-width: 30" />
<polyline points="641,8458 652,8397 716,8353 752,8361 767,8415 739,8542 670,8646 589,8684 542,8662 512,8608 521,8585 535,8578 578,8581 666,8623 766,8652 883,8643 976,8591 1016,8519 1008,8476 976,8469 973,8471 950,8538 952,8584 998,8625 1084,8626 1154,8612 1154,8612 1130,8633 " style="fill: white; stroke: black; stroke-width: 30" />
<polyline points="2291,8202 2263,8195 2193,8249 2020,8433 1801,8719 1688,8979 " style="fill: white; stroke: black; stroke-width: 30" />
<polyline points="2564,8298 2524,8286 2479,8296 2387,8386 2280,8525 2275,8610 2322,8666 2441,8668 2614,8607 2695,8570 2697,8569 2677,8589 2639,8629 2633,8673 2644,8684 2672,8665 " style="fill: white; stroke: black; stroke-width: 30" />
<polyline points="2863,8271 2862,8268 2857,8264 2855,8264 2847,8263 2849,8263 2847,8264 2845,8272 " style="fill: white; stroke: black; stroke-width: 30" />
<polyline points="3002,8329 2990,8301 2983,8293 2980,8299 2922,8386 2838,8528 2803,8626 2801,8681 2827,8708 2924,8690 3026,8642 3091,8568 3103,8525 3101,8517 3099,8519 3090,8542 3048,8603 3017,8660 3016,8699 3030,8724 3080,8719 " style="fill: white; stroke: black; stroke-width: 30" />
<polyline points="3325,8267 3312,8253 3301,8255 3300,8257 3299,8260 3300,8278 " style="fill: white; stroke: black; stroke-width: 30" />
<polyline points="3400,8545 3480,8507 3552,8442 3534,8389 3440,8360 3328,8405 3288,8481 3326,8591 3483,8728 3712,8849 " style="fill: white; stroke: black; stroke-width: 30" />
<polyline points="-2778,8263 -2736,8235 -2604,8206 -2295,8170 -1770,8138 -1155,8148 " style="fill: white; stroke: black; stroke-width: 30" />
<polyline points="-143,9429 -143,9427 -132,9423 -107,9429 -50,9441 37,9450 144,9419 " style="fill: white; stroke: black; stroke-width: 30" />
<polyline points="122,9336 93,9341 77,9350 51,9402 16,9500 1,9579 " style="fill: white; stroke: black; stroke-width: 30" />
<polyline points="433,9405 431,9404 438,9406 471,9411 564,9418 691,9413 820,9396 923,9371 " style="fill: white; stroke: black; stroke-width: 30" />
<polyline points="850,9274 844,9271 860,9267 902,9274 983,9288 1056,9315 1081,9343 1042,9397 950,9442 873,9476 868,9477 888,9476 " style="fill: white; stroke: black; stroke-width: 30" />
<polyline points="1385,9272 1362,9279 1353,9306 1320,9398 1281,9477 1276,9532 1285,9534 1297,9529 1321,9500 1361,9430 1395,9331 1416,9279 1416,9278 1411,9291 1396,9364 1385,9429 1401,9472 1450,9489 1561,9449 1701,9357 1779,9295 1770,9298 1727,9357 1669,9482 1642,9579 1687,9620 1796,9574 " style="fill: white; stroke: black; stroke-width: 30" />
<polyline points="1845,9428 1861,9432 1895,9411 1945,9370 1998,9343 2025,9354 2037,9404 2007,9496 1962,9548 1931,9569 1885,9548 1845,9509 1838,9493 1846,9495 1871,9505 1934,9537 2019,9538 " style="fill: white; stroke: black; stroke-width: 30" />
<polyline points="2228,9468 2230,9460 2217,9447 2172,9445 2116,9469 2069,9509 2077,9548 2122,9576 2225,9541 2348,9468 2457,9361 2472,9280 2430,9256 2375,9278 2332,9343 2335,9403 2381,9449 2469,9450 2567,9430 2631,9432 2628,9452 2615,9469 2627,9462 2658,9436 " style="fill: white; stroke: black; stroke-width: 30" />
<polyline points="2880,9270 2865,9267 2848,9272 2814,9313 2791,9377 2743,9453 2691,9513 2685,9529 2697,9521 2734,9495 2773,9469 2800,9462 2840,9454 2927,9440 " style="fill: white; stroke: black; stroke-width: 30" />
<polyline points="3115,9475 3241,9476 3436,9481 3627,9472 " style="fill: white; stroke: black; stroke-width: 30" />
<polyline points="1421,9799 1397,9765 1379,9760 1373,9782 1353,9892 1328,10009 1323,10072 1323,10088 1352,10075 1406,10009 1443,9902 1457,9836 1444,9824 1454,9827 1445,9845 1431,9910 1428,9956 1450,9973 1490,9996 1593,9993 1710,9950 1785,9919 1789,9920 1773,9941 1736,10014 1723,10077 1761,10111 1856,10117 1971,10085 2014,10082 2002,10103 1983,10139 1981,10158 2015,10161 2077,10122 " style="fill: white; stroke: black; stroke-width: 30" />
<polyline points="2079,9993 2046,9978 2049,9972 2060,9957 2070,9929 2058,9907 2032,9899 2040,9900 2061,9905 2104,9907 " style="fill: white; stroke: black; stroke-width: 30" />
<polyline points="2348,9982 2339,9971 2308,9960 2251,9957 2188,9964 2183,9980 2190,10029 2233,10108 2270,10164 2250,10178 2188,10157 2143,10115 2165,10067 2261,10033 2400,10012 2527,9991 2568,9966 2557,9954 2525,9958 2493,9997 2472,10056 2462,10110 2445,10142 2425,10152 2415,10147 2412,10143 2421,10136 " style="fill: white; stroke: black; stroke-width: 30" />
<polyline points="2835,9801 2816,9791 2807,9798 2762,9853 2679,9961 2621,10036 2608,10067 2609,10072 2621,10061 2670,10032 2751,9995 2796,9999 2800,10028 2794,10079 2765,10112 2754,10118 2742,10106 2718,10086 2719,10057 2719,10059 2732,10074 " style="fill: white; stroke: black; stroke-width: 30" />
<polyline points="2863,10142 2866,10137 2864,10108 2898,10031 2955,9955 2983,9942 2995,9955 3005,9986 " style="fill: white; stroke: black; stroke-width: 30" />
<polyline points="3160,9972 3160,9960 3162,9958 3171,9959 3181,9972 3189,9988 3180,10010 3102,10082 3058,10137 3043,10153 3045,10144 3045,10108 3050,10060 3062,10042 3087,10040 3131,10055 3177,10070 3195,10088 3226,10096 " style="fill: white; stroke: black; stroke-width: 30" />
<polyline points="3520,10023 3529,10017 3484,10023 3427,10052 3406,10075 3408,10102 3450,10122 3503,10131 3509,10135 3506,10139 3519,10144 3550,10144 " style="fill: white; stroke: black; stroke-width: 30" />
<polyline points="3854,10058 3857,10042 3821,10020 3770,10013 3706,10036 3670,10076 3690,10120 3732,10161 3847,10140 3987,10083 4091,10016 4088,9998 4045,10002 3996,10039 3961,10095 3922,10191 3902,10281 " style="fill: white; stroke: black; stroke-width: 30" />
<polyline points="3978,10206 4034,10190 4090,10169 4117,10165 4120,10169 4116,10188 4103,10246 " style="fill: white; stroke: black; stroke-width: 30" />
<polyline points="1922,10865 1913,10862 1917,10875 1900,11004 1900,11200 1892,11338 1909,11397 1920,11412 " style="fill: white; stroke: black; stroke-width: 30" />
<polyline points="1877,11276 1881,11244 1922,11183 1988,11122 2062,11107 2128,11148 2171,11239 2172,11325 2127,11376 2073,11398 2002,11392 1970,11365 1939,11312 1914,11295 " style="fill: white; stroke: black; stroke-width: 30" />
<polyline points="1525,10938 1561,10827 1660,10677 1809,10575 2020,10554 2279,10667 2488,10910 2637,11149 2705,11293 2704,11406 2624,11536 2491,11647 2331,11700 2115,11699 1888,11635 1712,11550 1609,11418 1522,11228 1468,11002 " style="fill: white; stroke: black; stroke-width: 30" />
<polyline points="1030,12103 1124,12071 1335,12023 1745,11967 2322,11933 3144,11923 4122,11965 4688,12032 " style="fill: white; stroke: black; stroke-width: 30" />
<polyline points="1870,12369 1849,12387 1811,12439 1760,12526 1700,12604 1704,12617 1777,12629 1916,12642 2037,12646 " style="fill: white; stroke: black; stroke-width: 30" />
<polyline points="2072,12481 2081,12475 2125,12486 2193,12539 2246,12605 2229,12649 2171,12673 2111,12687 2102,12707 " style="fill: white; stroke: black; stroke-width: 30" />
<polyline points="2463,12656 2454,12646 2457,12639 2469,12636 2526,12632 2620,12619 " style="fill: white; stroke: black; stroke-width: 30" />
<polyline points="2646,12551 2620,12549 2634,12554 2594,12629 2561,12741 2570,12828 " style="fill: white; stroke: black; stroke-width: 30" />
<polyline points="2925,12476 2916,12481 2883,12521 2809,12614 2767,12678 2799,12698 2875,12713 3002,12715 3098,12726 " style="fill: white; stroke: black; stroke-width: 30" />
<polyline points="3133,12571 3120,12561 3117,12560 3124,12567 3156,12593 3200,12642 3223,12695 3211,12739 3143,12786 3083,12797 3052,12774 3054,12730 3098,12682 3147,12670 3159,12688 3170,12735 3181,12788 3228,12808 " style="fill: white; stroke: black; stroke-width: 30" />
<polyline points="3416,12605 3391,12592 3366,12595 3359,12609 3335,12650 3332,12697 3361,12728 3425,12732 3485,12705 3485,12695 3480,12700 3447,12742 3462,12781 3523,12807 3585,12788 3623,12742 3593,12703 3564,12695 3575,12694 3598,12719 3680,12734 3739,12732 3758,12695 3752,12657 3757,12635 3784,12618 3815,12615 3800,12629 3784,12647 3738,12682 3751,12691 3792,12711 3864,12714 3913,12704 3909,12701 3880,12714 3831,12751 3784,12811 3747,12891 3748,12954 " style="fill: white; stroke: black; stroke-width: 30" />
<polyline points="4119,12720 4165,12725 4198,12718 4215,12684 4200,12629 4145,12605 4113,12608 4106,12654 4128,12716 4174,12755 4189,12756 4200,12740 4193,12736 4211,12738 4284,12747 4403,12743 4505,12700 4520,12637 4508,12611 4534,12606 4652,12616 " style="fill: white; stroke: black; stroke-width: 30" />

</svg>