<?xml version="1.0" standalone="no"?>
<!DOCTYPE svg PUBLIC "-//W3C//DTD SVG 1.1//EN" "http://www.w3.org/Graphics/SVG/1.1/DTD/svg11.dtd">
<svg width="210mm" height="297mm" viewBox="-7000 500 14000 20000" version="1.1" xmlns="http://www.w3.org/2000/svg">

<polyline points="-478,12957 " style="fill: white; stroke: black; stroke-width: 30" />
<polyline points="-2673,1836 -2689,1842 -2684,1867 -2671,1890 -2662,1898 -2662,1895 -2668,1889 -2678,1867 -2686,1816 -2687,1769 -2680,1727 -2675,1719 -2667,1725 -2638,1736 -2588,1762 " style="fill: white; stroke: black; stroke-width: 30" />
<polyline points="-2396,1741 -2399,1735 -2394,1726 -2385,1719 -2381,1717 -2373,1716 -2355,1727 -2328,1766 -2315,1827 -2325,1889 -2351,1925 -2388,1943 -2440,1929 -2463,1893 -2453,1866 -2431,1854 -2399,1860 -2352,1885 -2301,1901 " style="fill: white; stroke: black; stroke-width: 30" />
<polyline points="-2196,1934 -2167,1931 -2116,1883 -2070,1791 -2047,1703 -2054,1624 -2083,1603 -2107,1606 -2120,1643 -2126,1733 -2102,1805 -2067,1871 " style="fill: white; stroke: black; stroke-width: 30" />
<polyline points="-1896,1649 -1934,1645 -1937,1643 -1929,1643 -1924,1648 -1925,1652 -1929,1660 -1934,1668 -1935,1675 -1942,1693 -1958,1742 -1964,1797 -1954,1849 -1935,1885 -1893,1917 -1831,1926 -1748,1906 -1683,1869 -1656,1824 -1664,1787 -1698,1770 -1750,1781 -1780,1823 -1768,1864 -1726,1898 " style="fill: white; stroke: black; stroke-width: 30" />
<polyline points="-903,1726 -928,1722 -943,1742 -961,1816 -962,1913 -943,1974 -912,2000 " style="fill: white; stroke: black; stroke-width: 30" />
<polyline points="-825,1837 -862,1855 -880,1890 -865,1934 -808,1970 -734,1975 -676,1958 -661,1924 -681,1871 -723,1838 -764,1819 -768,1814 " style="fill: white; stroke: black; stroke-width: 30" />
<polyline points="29,1851 6,1827 -47,1809 -121,1807 -210,1833 -260,1870 -257,1938 -210,2011 -99,2052 3,2062 75,2042 " style="fill: white; stroke: black; stroke-width: 30" />
<polyline points="143,1868 220,1866 296,1878 " style="fill: white; stroke: black; stroke-width: 30" />
<polyline points="399,1891 390,1863 389,1854 397,1857 422,1894 443,1971 427,2042 378,2088 328,2088 291,2054 287,2005 308,1962 333,1958 625,1938 611,1945 584,1965 539,1997 505,2028 503,2044 512,2050 528,2053 561,2039 629,1994 716,1922 769,1846 781,1798 779,1769 768,1739 764,1737 763,1745 762,1760 755,1819 746,1894 749,1968 781,2014 831,2029 " style="fill: white; stroke: black; stroke-width: 30" />
<polyline points="1038,1753 1025,1744 1022,1745 1018,1745 1016,1748 991,1754 952,1780 923,1819 907,1879 920,1946 957,2005 998,2042 1044,2054 1090,2048 1142,2016 1196,1961 1212,1936 1210,1915 1194,1902 1156,1905 1129,1931 1131,1980 1163,2031 1228,2064 1321,2074 " style="fill: white; stroke: black; stroke-width: 30" />
<polyline points="-2932,2136 -2936,2139 -2932,2144 -2931,2146 -2930,2155 -2939,2163 -2961,2208 -2984,2288 -2995,2360 -2976,2429 -2946,2466 -2894,2483 -2819,2478 " style="fill: white; stroke: black; stroke-width: 30" />
<polyline points="-2674,2499 -2694,2525 -2679,2517 " style="fill: white; stroke: black; stroke-width: 30" />
<polyline points="-2300,2555 -2267,2588 -2210,2614 -2139,2625 " style="fill: white; stroke: black; stroke-width: 30" />
<polyline points="-1935,2483 -1962,2526 -1981,2580 -1986,2628 -1973,2640 -1957,2626 -1939,2579 -1924,2514 -1919,2492 -1920,2488 -1907,2490 -1866,2501 " style="fill: white; stroke: black; stroke-width: 30" />
<polyline points="-1577,2434 -1627,2419 -1672,2419 -1686,2432 -1691,2493 -1677,2576 -1661,2640 -1667,2669 -1683,2669 -1722,2637 " style="fill: white; stroke: black; stroke-width: 30" />
<polyline points="-1625,2572 -1620,2586 -1605,2647 -1600,2740 -1613,2829 -1628,2875 -1629,2876 -1620,2826 -1597,2713 -1559,2587 -1512,2535 -1462,2523 -1432,2545 -1444,2587 -1493,2634 -1557,2650 -1601,2634 -1605,2600 -1574,2525 " style="fill: white; stroke: black; stroke-width: 30" />
<polyline points="-1325,2485 -1333,2466 -1314,2464 -1266,2489 -1236,2541 -1248,2605 -1300,2653 -1355,2668 -1376,2647 -1378,2611 -1354,2583 -1314,2568 -1269,2574 -1224,2600 -1202,2626 -1194,2642 " style="fill: white; stroke: black; stroke-width: 30" />
<polyline points="-1186,2642 -1189,2640 -1180,2632 -1153,2603 -1132,2568 -1128,2544 -1132,2531 -1133,2532 -1133,2534 -1133,2535 -1133,2539 -1133,2538 -1134,2537 -1132,2538 -1129,2530 -1120,2514 -1093,2454 -1079,2405 -1071,2380 -1071,2379 -1070,2377 -1070,2376 -1069,2379 -1070,2376 -1070,2374 " style="fill: white; stroke: black; stroke-width: 30" />
<polyline points="-1150,2600 -1142,2576 -1114,2547 -1074,2532 -1043,2541 -1035,2555 -1050,2590 " style="fill: white; stroke: black; stroke-width: 30" />
<polyline points="-1127,2375 -1128,2373 -1125,2373 -1115,2392 -1104,2456 -1096,2554 -1062,2647 -985,2711 " style="fill: white; stroke: black; stroke-width: 30" />
<polyline points="-984,2601 -1000,2628 -1011,2649 -1010,2661 -1006,2664 -1003,2658 -995,2638 -984,2605 -973,2570 -969,2556 -969,2558 -952,2560 -899,2573 -840,2595 " style="fill: white; stroke: black; stroke-width: 30" />
<polyline points="-759,2572 -772,2609 -781,2654 -782,2680 -779,2680 -776,2668 -768,2637 -755,2605 -731,2578 -696,2563 -667,2579 -640,2612 -617,2644 -592,2656 -556,2635 -515,2603 -506,2597 -509,2599 -512,2606 -513,2632 -511,2660 -501,2675 -483,2673 " style="fill: white; stroke: black; stroke-width: 30" />
<polyline points="-286,2597 -336,2596 -371,2609 -381,2642 -371,2697 -358,2731 -367,2738 -391,2729 -428,2698 -436,2671 " style="fill: white; stroke: black; stroke-width: 30" />
<polyline points="355,2600 352,2657 337,2730 320,2775 306,2795 299,2786 312,2724 348,2636 389,2540 427,2497 475,2478 511,2489 520,2520 484,2562 401,2588 326,2583 300,2568 307,2556 352,2523 " style="fill: white; stroke: black; stroke-width: 30" />
<polyline points="573,2745 539,2775 522,2779 528,2766 552,2708 584,2624 596,2577 601,2570 610,2573 652,2595 " style="fill: white; stroke: black; stroke-width: 30" />
<polyline points="816,2703 813,2683 794,2654 776,2641 774,2640 784,2640 " style="fill: white; stroke: black; stroke-width: 30" />
<polyline points="984,2677 952,2652 904,2644 859,2666 844,2707 870,2739 927,2746 1003,2712 1060,2651 1080,2595 1068,2561 1044,2550 1032,2558 1025,2607 1050,2664 1091,2707 1133,2732 1143,2738 1143,2735 1154,2729 1188,2702 1218,2681 1223,2681 1212,2693 1203,2737 1207,2777 1225,2796 1252,2789 " style="fill: white; stroke: black; stroke-width: 30" />
<polyline points="1446,2529 1442,2526 1441,2538 1426,2583 1382,2655 1355,2716 1357,2765 1370,2798 " style="fill: white; stroke: black; stroke-width: 30" />
<polyline points="1174,2636 " style="fill: white; stroke: black; stroke-width: 30" />
<polyline points="1509,2685 1498,2684 1480,2685 1420,2712 1378,2745 1378,2771 1423,2799 " style="fill: white; stroke: black; stroke-width: 30" />
<polyline points="1754,2503 1716,2540 1664,2633 1625,2722 1606,2775 1600,2794 1601,2789 1615,2765 1654,2734 1700,2721 1751,2715 1802,2712 1829,2717 1817,2743 1783,2789 1763,2827 1765,2839 1793,2822 " style="fill: white; stroke: black; stroke-width: 30" />
<polyline points="1924,2580 1918,2548 1912,2541 1913,2542 1916,2545 " style="fill: white; stroke: black; stroke-width: 30" />
<polyline points="1958,2784 1954,2746 1966,2714 1971,2707 1981,2714 1993,2751 1974,2788 1933,2820 1903,2817 1892,2797 1898,2775 1930,2736 1995,2699 " style="fill: white; stroke: black; stroke-width: 30" />
<polyline points="2094,2800 2102,2757 2134,2726 2189,2721 2225,2747 2223,2788 2190,2840 " style="fill: white; stroke: black; stroke-width: 30" />
<polyline points="2760,2530 2703,2558 2586,2679 2487,2831 2461,2934 " style="fill: white; stroke: black; stroke-width: 30" />
<polyline points="2894,2653 2873,2666 2817,2705 2744,2771 2700,2825 2691,2857 2701,2855 2724,2828 2781,2748 2850,2654 2896,2583 2895,2572 2873,2584 2826,2659 2809,2740 2826,2796 2867,2825 2929,2802 2988,2759 2998,2747 2986,2749 2965,2768 2942,2805 2938,2842 2942,2867 " style="fill: white; stroke: black; stroke-width: 30" />
<polyline points="3154,2716 3141,2711 3131,2723 3121,2758 3096,2811 3056,2852 3019,2872 3008,2873 3015,2849 3043,2807 3083,2785 3111,2789 3130,2807 3153,2834 " style="fill: white; stroke: black; stroke-width: 30" />
<polyline points="3213,2855 3202,2878 3208,2871 3240,2849 3314,2801 3376,2768 3403,2757 3391,2761 3348,2785 3319,2821 3315,2860 3327,2883 3345,2892 3383,2862 3436,2811 3479,2767 3493,2751 3493,2751 3491,2773 3480,2811 3462,2848 " style="fill: white; stroke: black; stroke-width: 30" />
<polyline points="3607,2804 3591,2780 3593,2769 3606,2765 3620,2783 3622,2813 3580,2849 3520,2867 3491,2866 3494,2863 3515,2863 3570,2863 3633,2864 3691,2850 3735,2814 3768,2767 3780,2738 3779,2728 3774,2729 3762,2737 3726,2763 3705,2806 " style="fill: white; stroke: black; stroke-width: 30" />
<polyline points="-2942,2790 -2961,2794 -2977,2800 -3001,2824 -3026,2883 -3039,2935 -3033,2961 -3004,2985 -2955,3005 -2897,3025 -2831,3030 " style="fill: white; stroke: black; stroke-width: 30" />
<polyline points="-2706,2884 -2711,2883 -2712,2884 -2705,2889 -2694,2909 -2691,2920 -2691,2928 -2691,2935 -2689,2938 -2675,2952 -2658,2967 -2632,2980 -2610,2989 -2600,3004 -2599,3018 -2608,3028 -2627,3039 -2661,3044 -2700,3046 -2725,3052 -2736,3050 -2726,3050 " style="fill: white; stroke: black; stroke-width: 30" />
<polyline points="-2166,2859 -2188,2880 -2224,2969 -2267,3083 -2282,3160 -2254,3198 -2203,3192 -2117,3126 -2029,3022 -1983,2959 -1980,2956 -1985,2964 -2003,2996 -2019,3041 -2025,3100 -2014,3157 -1970,3184 -1901,3156 -1849,3106 -1826,3081 -1833,3084 -1849,3100 -1859,3113 -1864,3118 -1863,3116 -1864,3115 -1863,3113 -1863,3111 -1866,3112 -1858,3109 -1822,3097 -1776,3084 -1749,3088 -1743,3101 -1743,3123 -1735,3131 -1729,3129 -1716,3127 -1706,3131 -1695,3144 " style="fill: white; stroke: black; stroke-width: 30" />
<polyline points="-1368,3049 -1396,3050 -1429,3060 -1456,3087 -1449,3120 -1411,3149 -1344,3151 -1294,3142 -1290,3142 -1296,3150 -1300,3171 -1271,3190 -1210,3187 -1153,3163 -1135,3141 -1140,3140 -1151,3146 -1146,3150 -1128,3153 -1087,3153 -1024,3139 -968,3126 -934,3116 -931,3106 -942,3096 -962,3095 -989,3098 -998,3102 -993,3114 -961,3148 -898,3181 -825,3204 -754,3210 -680,3192 -612,3162 -556,3115 -517,3061 -509,3007 -516,2982 -529,2972 -549,2977 -580,2996 -603,3042 -598,3107 -552,3162 -475,3189 -381,3195 " style="fill: white; stroke: black; stroke-width: 30" />
<polyline points="-166,2873 -174,2877 -189,2909 -239,3016 -276,3114 -283,3180 -274,3199 -268,3189 -256,3160 -250,3147 -236,3144 -196,3136 -125,3122 -51,3104 " style="fill: white; stroke: black; stroke-width: 30" />
<polyline points="660,3168 636,3213 631,3266 642,3315 686,3365 770,3393 883,3371 982,3314 1017,3256 1008,3220 " style="fill: white; stroke: black; stroke-width: 30" />
<polyline points="874,3088 887,3077 883,3074 856,3065 824,3050 808,3018 806,2987 808,2971 809,2968 821,2977 864,3024 883,3073 867,3101 834,3104 799,3078 789,3031 814,2994 " style="fill: white; stroke: black; stroke-width: 30" />
<polyline points="-13317,8795 " style="fill: white; stroke: black; stroke-width: 30" />
<polyline points="-5394,9959 " style="fill: white; stroke: black; stroke-width: 30" />
<polyline points="-2939,3974 -2941,3976 -2935,3977 -2915,3977 -2861,3977 -2797,3974 -2726,3956 " style="fill: white; stroke: black; stroke-width: 30" />
<polyline points="-2789,3886 -2815,3907 -2834,3949 -2849,4017 -2719,3892 " style="fill: white; stroke: black; stroke-width: 30" />
<polyline points="-2465,3942 -2497,3946 -2525,3976 -2537,4045 -2511,4113 -2430,4148 -2337,4142 -2264,4109 -2232,4076 -2241,4035 -2273,3999 -2317,3978 -2343,3975 -2340,3978 -2306,3994 -2239,4015 -2155,4019 -2046,4016 -1963,4021 -1936,4033 -1940,4041 -1946,4052 -1966,4084 -1984,4120 -1984,4155 " style="fill: white; stroke: black; stroke-width: 30" />
<polyline points="-1944,3851 -1969,3798 -1971,3775 -1950,3770 -1899,3797 -1863,3841 -1863,3877 -1900,3900 -1951,3894 -1981,3874 -1979,3863 -1956,3818 -1896,3768 " style="fill: white; stroke: black; stroke-width: 30" />
<polyline points="-1747,4072 -1730,4037 -1698,3994 -1662,3949 -1654,3927 -1679,3932 -1744,3984 -1783,4035 -1768,4077 -1704,4110 -1613,4128 -1504,4111 -1401,4059 -1333,4005 -1311,3947 -1328,3890 -1301,3641 -1422,3851 -1450,3891 -1452,3983 -1420,4085 -1369,4164 " style="fill: white; stroke: black; stroke-width: 30" />
<polyline points="199,3897 135,3874 42,3869 -50,3902 -98,3965 -113,4055 -111,4143 -119,4209 -136,4244 -161,4252 -195,4224 -210,4159 -202,4139 -167,4131 -84,4152 28,4167 152,4167 238,4152 248,4140 206,4117 123,4110 61,4136 67,4177 146,4224 292,4238 408,4228 " style="fill: white; stroke: black; stroke-width: 30" />
<polyline points="1575,3842 1664,3798 1725,3808 1733,3834 1668,3871 1569,3882 1521,3860 1523,3841 1570,3812 1653,3803 " style="fill: white; stroke: black; stroke-width: 30" />
<polyline points="1809,3949 1793,3893 1833,3863 1892,3877 1934,3930 1920,3982 1877,4001 1834,3979 1791,3928 1804,3867 " style="fill: white; stroke: black; stroke-width: 30" />
<polyline points="-3101,5178 " style="fill: white; stroke: black; stroke-width: 30" />
<polyline points="-2894,5213 -2904,5218 -2902,5220 -2878,5222 -2816,5230 -2746,5230 -2699,5224 " style="fill: white; stroke: black; stroke-width: 30" />
<polyline points="-2298,5353 -2313,5331 " style="fill: white; stroke: black; stroke-width: 30" />
<polyline points="-1929,5087 -1965,5101 -1971,5110 -1975,5189 " style="fill: white; stroke: black; stroke-width: 30" />
<polyline points="-1604,5202 -1651,5213 -1716,5243 -1769,5292 -1769,5326 -1695,5344 -1613,5309 -1585,5265 " style="fill: white; stroke: black; stroke-width: 30" />
<polyline points="-1509,5255 -1445,5282 -1356,5275 -1316,5266 -1333,5252 -1379,5220 -1413,5205 -1405,5203 -1348,5195 -1275,5183 " style="fill: white; stroke: black; stroke-width: 30" />
<polyline points="-1127,5050 -1127,5007 -1138,4991 -1144,4995 -1178,5045 -1243,5181 -1277,5283 -1281,5313 -1283,5304 -1264,5254 -1232,5214 -1196,5188 -1136,5170 " style="fill: white; stroke: black; stroke-width: 30" />
<polyline points="-319,5151 -317,5142 -317,5136 -318,5123 -329,5101 -366,5070 -425,5069 -510,5153 -571,5301 -605,5450 -618,5534 -605,5549 -575,5511 -527,5406 -487,5323 -470,5297 -468,5298 -439,5302 -396,5300 -344,5286 -319,5280 -323,5283 -327,5302 " style="fill: white; stroke: black; stroke-width: 30" />
<polyline points="-246,5185 -269,5163 -268,5144 -248,5126 -227,5121 -223,5124 -226,5137 -241,5161 -255,5172 -274,5171 -277,5163 -268,5151 " style="fill: white; stroke: black; stroke-width: 30" />
<polyline points="-206,5356 -216,5351 -212,5348 -210,5345 -200,5319 -185,5288 -175,5267 -151,5249 -93,5244 -2,5253 91,5252 140,5236 105,5224 35,5221 -4,5233 -12,5273 4,5337 18,5397 8,5430 -8,5427 " style="fill: white; stroke: black; stroke-width: 30" />
<polyline points="246,5215 202,5305 182,5346 185,5341 184,5313 189,5293 215,5265 265,5253 340,5259 " style="fill: white; stroke: black; stroke-width: 30" />
<polyline points="-2459,5407 -2472,5424 -2480,5476 -2483,5533 -2472,5566 -2454,5546 -2415,5465 -2387,5414 -2385,5423 -2404,5480 " style="fill: white; stroke: black; stroke-width: 30" />
<polyline points="-802,4929 -824,4932 -827,4943 -829,4978 -830,5033 -830,5066 -822,5071 -799,5052 -771,5016 -775,5007 -776,5012 -783,5019 -786,5042 -790,5067 " style="fill: white; stroke: black; stroke-width: 30" />
<polyline points="1428,5191 1427,5178 1412,5168 1367,5159 1291,5175 1208,5229 1181,5292 1189,5379 1199,5436 1192,5467 1170,5477 1132,5456 1114,5418 1180,5335 " style="fill: white; stroke: black; stroke-width: 30" />
<polyline points="1402,5511 1395,5476 1381,5434 1380,5410 1382,5400 1391,5393 1400,5395 1425,5403 1478,5426 " style="fill: white; stroke: black; stroke-width: 30" />
<polyline points="1841,5408 1821,5457 1803,5488 1769,5506 " style="fill: white; stroke: black; stroke-width: 30" />
<polyline points="1747,5407 1784,5379 1853,5378 1920,5411 " style="fill: white; stroke: black; stroke-width: 30" />
<polyline points="1922,5332 2002,5509 2029,5457 2076,5414 2139,5388 " style="fill: white; stroke: black; stroke-width: 30" />
<polyline points="2403,5417 2396,5388 2376,5364 2343,5352 " style="fill: white; stroke: black; stroke-width: 30" />
<polyline points="3013,4331 2998,4308 2990,4284 2990,4272 3017,4276 3062,4321 3079,4394 3040,4457 2983,4484 2951,4495 2943,4512 2935,4556 2930,4584 2928,4584 2922,4555 2938,4486 2986,4414 " style="fill: white; stroke: black; stroke-width: 30" />
<polyline points="3211,4334 3215,4327 3218,4323 3217,4330 3241,4376 3285,4453 3304,4523 3293,4570 3240,4619 3182,4649 3149,4666 3143,4663 3148,4658 3157,4614 " style="fill: white; stroke: black; stroke-width: 30" />
<polyline points="3255,4351 3233,4326 3286,4339 3438,4393 3539,4445 " style="fill: white; stroke: black; stroke-width: 30" />
<polyline points="2912,4600 2906,4600 2903,4596 2902,4592 " style="fill: white; stroke: black; stroke-width: 30" />
<polyline points="3415,4638 3395,4629 3388,4625 3380,4627 3374,4636 3361,4662 3320,4710 3254,4768 3163,4822 3048,4868 2913,4894 2764,4905 2584,4902 2399,4891 2238,4852 2114,4783 2049,4706 2075,4618 2203,4498 2384,4411 2554,4370 2661,4356 " style="fill: white; stroke: black; stroke-width: 30" />
<polyline points="2604,4272 2591,4277 2602,4279 2631,4280 2665,4289 2694,4316 2689,4378 2649,4454 2583,4512 2518,4544 " style="fill: white; stroke: black; stroke-width: 30" />
<polyline points="-2269,5765 -2276,5760 -2278,5761 -2286,5769 -2314,5825 -2348,5897 -2358,5936 -2351,5949 -2311,5960 -2227,5946 " style="fill: white; stroke: black; stroke-width: 30" />
<polyline points="-2079,5850 -2082,5850 -2074,5858 -2062,5873 -2049,5891 -2060,5908 -2080,5931 -2107,5948 -2126,5962 -2057,5770 " style="fill: white; stroke: black; stroke-width: 30" />
<polyline points="3765,4242 3769,4246 3778,4255 3779,4274 3769,4338 3740,4477 3669,4680 3475,4657 " style="fill: white; stroke: black; stroke-width: 30" />
<polyline points="3946,4249 3938,4255 3921,4311 3867,4520 " style="fill: white; stroke: black; stroke-width: 30" />
<polyline points="-1724,6168 -1728,6163 -1714,6147 -1688,6085 -1610,5806 -1645,5913 " style="fill: white; stroke: black; stroke-width: 30" />
<polyline points="-1625,5763 -1663,6040 -1631,6061 -1558,6071 -1439,6048 -1340,5994 -1308,5944 -1312,5919 -1329,5903 -1340,5896 -1337,5901 -1335,5916 -1302,5960 -1257,5992 -1215,5999 -1167,6000 -1133,6003 -1123,6012 -1121,6033 -1123,6043 -1118,6050 -1103,6049 " style="fill: white; stroke: black; stroke-width: 30" />
<polyline points="-1043,5775 -1072,5750 -1073,5745 -1061,5750 -1025,5774 -1008,5816 -1025,5848 -1063,5858 -1100,5844 -1109,5819 -1103,5783 -1069,5753 " style="fill: white; stroke: black; stroke-width: 30" />
<polyline points="-517,5965 -468,5963 " style="fill: white; stroke: black; stroke-width: 30" />
<polyline points="26,5920 46,5906 88,5887 145,5891 184,5945 174,6040 112,6126 29,6170 -31,6168 -55,6134 -43,6075 0,6046 51,6065 97,6120 130,6159 162,6172 176,6160 205,6124 233,6094 249,6086 267,6093 276,6107 289,6122 299,6142 315,6165 " style="fill: white; stroke: black; stroke-width: 30" />
<polyline points="1179,6040 1122,6021 1051,6017 969,6039 926,6072 939,6113 994,6160 1089,6180 1166,6169 1175,6156 1168,6154 1165,6150 1163,6148 1165,6150 1165,6150 1164,6151 1164,6155 1167,6158 1171,6163 1170,6168 1167,6169 1166,6169 1162,6172 1161,6171 1164,6168 1166,6166 1165,6160 1165,6156 1168,6154 1184,6134 1228,6088 1275,6071 1320,6071 1352,6094 1355,6126 1330,6159 1288,6182 1244,6193 1199,6183 1163,6153 1166,6132 1188,6088 1254,6040 " style="fill: white; stroke: black; stroke-width: 30" />
<polyline points="1472,6068 1462,6078 1451,6109 1444,6164 1414,6242 1364,6316 1307,6376 1260,6411 1250,6414 1254,6402 1303,6328 1418,6173 1527,6059 1594,6018 1636,6031 1651,6081 1614,6143 1539,6191 1477,6198 1439,6171 1449,6146 1485,6124 1563,6131 1683,6143 1819,6141 1959,6113 2028,6050 2022,5967 1968,5918 1913,5910 1861,5960 1826,6069 1794,6225 1760,6372 " style="fill: white; stroke: black; stroke-width: 30" />
<polyline points="2656,5936 2652,5920 2656,5916 2659,5919 2655,5945 2614,6028 2561,6112 " style="fill: white; stroke: black; stroke-width: 30" />
<polyline points="3498,5955 3475,5978 3413,6038 3338,6120 3311,6196 3324,6255 " style="fill: white; stroke: black; stroke-width: 30" />
<polyline points="3733,5929 3734,5919 3714,5937 3667,5990 3595,6090 3516,6213 3465,6309 " style="fill: white; stroke: black; stroke-width: 30" />
<polyline points="2730,6334 2729,6328 2744,6326 2805,6329 " style="fill: white; stroke: black; stroke-width: 30" />
<polyline points="2903,6410 2898,6403 2903,6396 2945,6386 3028,6381 " style="fill: white; stroke: black; stroke-width: 30" />
<polyline points="3100,6406 3116,6423 3141,6432 3161,6433 3155,6435 3145,6438 3149,6440 3177,6441 " style="fill: white; stroke: black; stroke-width: 30" />
<polyline points="3277,6444 3284,6442 3292,6443 3323,6436 " style="fill: white; stroke: black; stroke-width: 30" />
<polyline points="3504,6462 3511,6465 3515,6469 3518,6472 3531,6479 3569,6486 3604,6498 " style="fill: white; stroke: black; stroke-width: 30" />
<polyline points="-3350,4475 -3331,4478 -3271,4493 -3147,4512 -2954,4529 -2688,4551 -2358,4565 -1977,4578 -1536,4587 -1060,4596 -539,4597 -2,4595 495,4611 850,4630 1011,4642 1042,4640 " style="fill: white; stroke: black; stroke-width: 30" />
<polyline points="-4068,4686 -4037,4641 -4013,4643 -3996,4684 -3969,4763 -3956,4828 -3820,4697 " style="fill: white; stroke: black; stroke-width: 30" />
<polyline points="-4093,5203 -4082,5207 -4089,5246 -4090,5284 -4061,5292 -3998,5260 -3939,5237 -3918,5247 -3909,5276 " style="fill: white; stroke: black; stroke-width: 30" />
<polyline points="-3596,4477 -3594,4434 -3526,4420 -3448,4515 -3431,4805 -3525,5144 -3668,5436 -3677,5466 " style="fill: white; stroke: black; stroke-width: 30" />
<polyline points="1774,1227 1746,1362 1767,1436 1836,1467 1964,1438 2098,1362 " style="fill: white; stroke: black; stroke-width: 30" />
<polyline points="3000,1242 3058,1270 3092,1280 3101,1285 3091,1282 3075,1271 3073,1269 3071,1267 3061,1257 3027,1272 3017,1295 3034,1333 2889,1269 " style="fill: white; stroke: black; stroke-width: 30" />
<polyline points="3178,1381 3217,1357 3264,1333 3283,1320 3288,1298 3269,1285 3229,1293 3206,1320 3216,1357 3256,1387 " style="fill: white; stroke: black; stroke-width: 30" />
<polyline points="3402,1311 3400,1337 3415,1364 3427,1371 3433,1370 3453,1366 3501,1334 3528,1297 3539,1256 3533,1236 3529,1236 3530,1255 3521,1327 3520,1399 3539,1455 " style="fill: white; stroke: black; stroke-width: 30" />
<polyline points="-2804,4700 -2529,4681 -2199,4662 -1813,4642 -1392,4622 -935,4588 -466,4565 -29,4547 318,4550 543,4560 660,4568 698,4569 703,4568 703,4564 696,4561 690,4561 683,4557 667,4555 " style="fill: white; stroke: black; stroke-width: 30" />
<polyline points="-3251,4498 -3243,4502 -3220,4502 -3174,4491 -3089,4482 -2958,4467 -2770,4460 -2528,4464 -2251,4466 -1975,4453 -1720,4429 -1528,4407 -1392,4400 -1333,4403 -1322,4403 -1325,4402 -1331,4402 -1339,4399 -1358,4393 " style="fill: white; stroke: black; stroke-width: 30" />
<polyline points="-3007,4329 -3062,4314 -3104,4301 -3115,4297 -3101,4298 -3059,4306 -2990,4308 -2894,4315 -2754,4326 -2556,4341 -2302,4366 -2020,4372 -1705,4368 -1429,4360 -1230,4354 -1139,4364 -1120,4373 -1121,4373 -1123,4371 " style="fill: white; stroke: black; stroke-width: 30" />
<polyline points="-3470,7268 -3459,7229 -3465,7142 -3476,7033 -3491,6928 -3483,6860 -3458,6834 -3402,6833 -3324,6886 -3252,6959 -3205,7012 -3207,7036 -3255,7045 -3334,7016 -3406,6962 -3452,6905 -3451,6892 -3409,6905 " style="fill: white; stroke: black; stroke-width: 30" />
<polyline points="-3157,7202 -3171,7214 -3173,7223 -3165,7234 -3160,7234 -3149,7224 -3131,7174 -3101,7095 -3081,7059 -3060,7057 -3021,7076 -2977,7101 -2942,7119 -2906,7127 -2878,7120 -2856,7112 -2849,7109 -2849,7107 -2854,7106 -2861,7110 -2869,7120 -2883,7150 " style="fill: white; stroke: black; stroke-width: 30" />
<polyline points="-2835,6840 -2853,6834 -2858,6830 -2854,6828 " style="fill: white; stroke: black; stroke-width: 30" />
<polyline points="-2690,7093 -2711,7097 -2743,7108 -2776,7125 -2811,7147 -2827,7193 -2820,7236 -2784,7261 -2712,7263 -2658,7235 -2632,7204 -2634,7179 -2649,7168 " style="fill: white; stroke: black; stroke-width: 30" />
<polyline points="-2436,7068 -2402,7094 -2379,7125 -2370,7173 -2393,7221 -2443,7260 -2503,7276 -2551,7253 -2553,7217 -2521,7184 -2470,7172 -2406,7187 -2328,7221 " style="fill: white; stroke: black; stroke-width: 30" />
<polyline points="-1925,7023 " style="fill: white; stroke: black; stroke-width: 30" />
<polyline points="-1888,7057 -1927,7064 -1943,7071 -1935,7073 -1930,7084 -1923,7096 -1925,7108 -1925,7121 -1933,7150 -1943,7184 -1934,7206 -1894,7212 -1811,7175 -1719,7134 -1679,7121 -1699,7130 -1749,7188 -1811,7272 -1845,7352 " style="fill: white; stroke: black; stroke-width: 30" />
<polyline points="-1324,6989 " style="fill: white; stroke: black; stroke-width: 30" />
<polyline points="-3295,7437 -3300,7435 -3307,7431 -3301,7431 -3311,7428 -3306,7429 -3306,7429 -3310,7429 -3305,7431 -3304,7433 -3305,7438 -3315,7487 -3338,7625 -3355,7745 -3358,7809 -3316,7836 " style="fill: white; stroke: black; stroke-width: 30" />
<polyline points="-3070,7735 -3081,7733 -3066,7733 -3041,7739 -3018,7759 -3029,7779 -3068,7814 " style="fill: white; stroke: black; stroke-width: 30" />
<polyline points="-2683,7876 -2703,7927 -2702,7954 -2703,7951 -2693,7934 -2655,7897 -2619,7861 -2585,7862 -2543,7895 -2507,7953 -2505,7987 -2530,7999 -2577,7982 -2618,7933 -2639,7876 -2572,7648 " style="fill: white; stroke: black; stroke-width: 30" />
<polyline points="-2432,7828 -2420,7824 -2378,7819 -2310,7846 -2281,7886 -2288,7941 -2337,7995 -2372,8031 -2357,8047 -2301,8062 " style="fill: white; stroke: black; stroke-width: 30" />
<polyline points="-2035,7892 -2064,7908 -2106,7923 -2125,7927 -2136,7926 -2128,7925 -2137,7921 -2141,7922 -2138,7926 -2139,7947 -2124,7982 -2095,7998 -2052,7985 -2020,7959 -2020,7952 -2028,7951 -2028,7958 -2018,7969 -1969,7973 -1919,7963 -1914,7949 -1915,7939 -1942,7920 -1953,7907 -1942,7888 " style="fill: white; stroke: black; stroke-width: 30" />
<polyline points="-1661,8006 -1661,8004 -1666,7999 -1668,7998 " style="fill: white; stroke: black; stroke-width: 30" />
<polyline points="-665,7859 -646,7821 -604,7786 -572,7784 -559,7834 -585,7914 -638,7975 -691,8025 -695,8056 -656,8089 -597,8112 -558,8105 -561,8082 -610,8012 -680,7908 -733,7850 " style="fill: white; stroke: black; stroke-width: 30" />
<polyline points="310,7835 306,7837 302,7854 293,7950 282,8108 250,8245 195,8345 138,8403 99,8413 73,8393 63,8327 88,8195 131,8126 " style="fill: white; stroke: black; stroke-width: 30" />
<polyline points="278,7990 287,7981 330,7959 401,7918 472,7861 " style="fill: white; stroke: black; stroke-width: 30" />
<polyline points="448,8007 465,7976 499,7941 554,7910 600,7906 616,7932 594,8014 532,8097 461,8135 398,8140 385,8122 411,8092 461,8066 " style="fill: white; stroke: black; stroke-width: 30" />
<polyline points="825,7869 779,7866 758,7906 735,8002 735,8078 737,8116 736,8117 734,8116 734,8112 729,8108 740,8097 785,8080 817,8085 852,8105 879,8127 879,8137 877,8136 880,8123 887,8112 911,8096 961,8070 1026,8053 1075,8051 1109,8053 1127,8051 1133,8043 1138,8032 1141,8027 1141,8028 1137,8026 1130,8027 1119,8032 1105,8045 1085,8096 1087,8133 " style="fill: white; stroke: black; stroke-width: 30" />
<polyline points="1202,7845 1181,7809 1196,7806 1225,7824 " style="fill: white; stroke: black; stroke-width: 30" />
<polyline points="1350,8053 1304,8012 1250,7987 1234,7986 1239,7991 1276,7997 1322,8010 1343,8040 1329,8111 1303,8183 1269,8241 1241,8263 1239,8258 1261,8243 1334,8171 1458,8077 1542,8024 1555,8017 1534,8019 1494,8051 1474,8082 1499,8116 1575,8142 1658,8131 1698,8100 1693,8091 1687,8090 1677,8102 1674,8139 1653,8180 1634,8203 " style="fill: white; stroke: black; stroke-width: 30" />
<polyline points="2369,7954 2347,8007 2341,8045 2342,8061 2359,8060 2360,8058 2376,8048 2378,8044 2389,8039 2390,8042 2387,8062 2358,8142 2339,8194 2329,8215 2324,8210 2314,8168 2315,8071 2350,7953 2393,7877 2449,7853 2491,7869 2494,7901 2479,7930 2421,7956 2375,7954 2353,7930 2356,7911 2370,7890 2404,7875 " style="fill: white; stroke: black; stroke-width: 30" />
<polyline points="2493,8134 2453,8124 2449,8103 2452,8083 2490,8057 2525,8064 " style="fill: white; stroke: black; stroke-width: 30" />
<polyline points="2576,8239 2589,8199 2621,8142 2670,8078 2723,8042 2749,8040 2790,8056 " style="fill: white; stroke: black; stroke-width: 30" />
<polyline points="2854,8123 2848,8124 2840,8129 2833,8151 2848,8186 2896,8206 2955,8215 2987,8212 2994,8210 " style="fill: white; stroke: black; stroke-width: 30" />
<polyline points="3147,8169 3120,8165 3100,8167 3101,8175 3107,8212 3128,8237 3138,8244 3149,8232 3156,8192 3146,8176 3149,8177 3151,8179 3151,8182 " style="fill: white; stroke: black; stroke-width: 30" />
<polyline points="95,8669 75,8692 58,8740 51,8798 52,8857 50,8884 64,8891 75,8881 68,8837 82,8735 108,8671 137,8629 173,8617 188,8636 191,8672 163,8711 119,8727 86,8713 74,8675 " style="fill: white; stroke: black; stroke-width: 30" />
<polyline points="320,8730 326,8686 352,8635 379,8607 424,8596 470,8612 498,8430 " style="fill: white; stroke: black; stroke-width: 30" />
<polyline points="570,8699 570,8694 573,8687 582,8678 577,8676 577,8676 576,8678 574,8680 584,8680 " style="fill: white; stroke: black; stroke-width: 30" />
<polyline points="793,8697 784,8679 752,8663 705,8659 652,8678 633,8695 649,8708 689,8712 745,8674 792,8625 800,8603 785,8598 769,8603 772,8619 768,8637 790,8657 813,8677 832,8703 830,8733 844,8758 878,8758 931,8734 946,8717 939,8715 933,8718 928,8731 967,8751 1011,8756 " style="fill: white; stroke: black; stroke-width: 30" />
<polyline points="1266,8755 1320,8758 1338,8762 1333,8763 1336,8762 1339,8759 1354,8754 1353,8750 1322,8745 1280,8753 1248,8770 1256,8776 1267,8797 1288,8813 1313,8829 1364,8835 1431,8820 1473,8800 1481,8794 1473,8797 1464,8805 1477,8812 1516,8825 1554,8837 " style="fill: white; stroke: black; stroke-width: 30" />
<polyline points="1901,8659 1869,8703 1816,8788 1774,8851 1764,8874 1769,8874 1776,8844 1779,8805 1791,8786 1819,8776 1867,8768 1901,8761 1907,8753 1891,8738 1853,8735 1833,8756 1853,8787 1895,8816 1963,8851 2012,8875 2046,8875 2062,8856 2083,8821 2089,8800 2090,8797 2086,8802 2097,8802 2097,8812 2128,8827 2146,8843 2164,8857 2181,8877 " style="fill: white; stroke: black; stroke-width: 30" />
<polyline points="2512,8608 2499,8625 2474,8660 2423,8714 2360,8789 2338,8833 2335,8871 " style="fill: white; stroke: black; stroke-width: 30" />
<polyline points="2436,8852 2494,8835 2531,8824 2517,8830 2504,8841 2502,8861 2484,8885 2486,8888 2497,8878 " style="fill: white; stroke: black; stroke-width: 30" />
<polyline points="2652,8918 2705,8884 2753,8872 2768,8876 2767,8886 2757,8916 2700,8744 " style="fill: white; stroke: black; stroke-width: 30" />
<polyline points="3031,8876 3000,8841 2952,8823 2890,8823 2849,8856 2864,8892 2913,8930 2988,8934 3049,8907 3106,8848 3127,8805 3126,8780 3118,8778 3110,8784 3103,8800 3084,8834 " style="fill: white; stroke: black; stroke-width: 30" />
<polyline points="256,8938 251,8939 227,8954 172,9024 119,9125 132,9207 212,9282 " style="fill: white; stroke: black; stroke-width: 30" />
<polyline points="506,9139 534,9146 620,9172 735,9186 841,9193 893,9184 880,9179 853,9170 830,9168 825,9169 828,9170 815,9174 803,9183 789,9204 789,9220 804,9239 831,9276 866,9315 942,9342 1039,9339 1100,9310 1100,9262 1069,9204 1038,9182 1031,9180 1035,9188 1035,9204 1037,9226 1033,9248 1039,9270 1048,9295 " style="fill: white; stroke: black; stroke-width: 30" />
<polyline points="1222,8990 1156,8946 1146,8936 1151,8936 1150,8728 " style="fill: white; stroke: black; stroke-width: 30" />
<polyline points="1252,9281 1269,9257 1326,9240 1413,9222 1497,9200 1555,9181 1544,9187 1501,9215 1438,9268 1412,9296 1420,9317 1464,9329 1519,9328 1536,9331 1533,9335 " style="fill: white; stroke: black; stroke-width: 30" />
<polyline points="1657,9337 1679,9329 1713,9322 1761,9321 1790,9328 1791,9340 " style="fill: white; stroke: black; stroke-width: 30" />
<polyline points="2046,9383 2050,9374 2044,9354 2021,9312 1986,9271 1934,9261 1927,9282 1948,9329 1986,9379 1996,9434 1956,9518 1908,9587 1884,9620 1886,9625 1880,9599 1893,9522 " style="fill: white; stroke: black; stroke-width: 30" />
<polyline points="2299,9056 2355,9063 2404,9143 2403,9282 2352,9433 2254,9533 2152,9605 " style="fill: white; stroke: black; stroke-width: 30" />
<polyline points="251,9830 261,9789 278,9726 305,9657 335,9621 333,9622 326,9629 321,9656 324,9678 312,9711 304,9742 321,9768 345,9768 382,9756 411,9749 410,9750 401,9761 398,9781 409,9784 " style="fill: white; stroke: black; stroke-width: 30" />
<polyline points="447,9685 442,9683 425,9684 400,9702 393,9743 390,9770 406,9793 441,9796 517,9778 585,9736 629,9699 647,9696 642,9699 628,9713 609,9737 597,9764 603,9787 644,9818 711,9815 752,9794 760,9790 745,9794 " style="fill: white; stroke: black; stroke-width: 30" />
<polyline points="839,9775 849,9768 882,9757 926,9751 947,9755 963,9765 " style="fill: white; stroke: black; stroke-width: 30" />
<polyline points="1476,9666 1484,9656 1479,9647 1486,9643 1488,9642 1500,9640 1500,9640 1483,9650 1455,9690 1422,9728 1417,9753 1438,9771 1471,9787 1519,9777 1533,9767 1527,9764 1523,9764 1529,9763 1541,9759 1539,9759 1543,9758 1545,9758 1537,9758 1528,9761 1524,9760 1532,9760 1532,9760 1534,9759 1537,9757 " style="fill: white; stroke: black; stroke-width: 30" />
<polyline points="1481,9827 1475,9826 1463,9838 1436,9878 " style="fill: white; stroke: black; stroke-width: 30" />
<polyline points="1270,9793 1268,9789 1291,9783 1331,9783 1386,9790 1467,9800 1597,9796 " style="fill: white; stroke: black; stroke-width: 30" />
<polyline points="1698,9764 1694,9762 1692,9763 1677,9787 1655,9834 1637,9867 1637,9877 1648,9883 1674,9878 1693,9864 1703,9839 1717,9811 1722,9805 1727,9809 1729,9813 1771,9829 1832,9844 1897,9844 1933,9838 1921,9835 1879,9830 1818,9840 1810,9849 1817,9859 1856,9876 1924,9874 2017,9851 2075,9828 2092,9822 2084,9824 2081,9827 2064,9850 2040,9887 2033,9921 2049,9943 " style="fill: white; stroke: black; stroke-width: 30" />
<polyline points="3544,668 3827,648 " style="fill: white; stroke: black; stroke-width: 30" />
<polyline points="2231,9689 2230,9675 2222,9673 2223,9672 " style="fill: white; stroke: black; stroke-width: 30" />
<polyline points="2279,9785 2292,9774 2283,9776 2257,9804 2204,9865 2183,9914 2194,9944 2266,9953 2324,9940 2354,9922 2336,9921 2318,9924 2316,9940 2346,9966 2430,9975 2507,9952 2520,9924 2521,9884 2493,9862 2494,9851 2526,9840 2598,9824 2666,9812 2710,9791 2702,9785 2686,9786 2667,9808 2666,9840 2674,9888 2686,9924 2686,9933 2687,9922 " style="fill: white; stroke: black; stroke-width: 30" />
<polyline points="2818,9596 2845,9627 2872,9650 2875,9666 2876,9682 2869,9717 2850,9780 2828,9829 2831,9863 " style="fill: white; stroke: black; stroke-width: 30" />
<polyline points="3118,9892 3125,9880 3124,9871 3080,9848 2999,9838 2932,9854 2928,9891 2984,9925 3067,9922 3157,9881 3225,9830 3235,9800 3215,9779 3205,9769 3180,9770 3176,9776 3139,9845 3105,9949 3113,10024 3125,10066 " style="fill: white; stroke: black; stroke-width: 30" />
<polyline points="3508,10039 3500,10038 3495,10042 3495,10048 3490,10048 3477,10054 " style="fill: white; stroke: black; stroke-width: 30" />
<polyline points="180,10363 332,10346 447,10335 " style="fill: white; stroke: black; stroke-width: 30" />
<polyline points="921,10171 920,10164 933,10160 971,10154 1033,10150 1081,10139 1113,10133 " style="fill: white; stroke: black; stroke-width: 30" />
<polyline points="937,10134 880,10156 812,10222 776,10286 751,10321 785,10339 853,10350 " style="fill: white; stroke: black; stroke-width: 30" />
<polyline points="981,10336 992,10332 1048,10314 1135,10296 1189,10281 1219,10265 " style="fill: white; stroke: black; stroke-width: 30" />
<polyline points="1385,10397 1383,10353 1389,10292 1393,10274 1402,10270 1449,10278 1518,10287 1576,10285 1609,10277 1594,10265 1558,10246 1476,10242 1435,10265 1439,10293 1485,10320 1551,10348 1617,10366 1663,10361 1691,10333 1699,10306 1699,10295 1702,10300 1729,10320 1761,10353 " style="fill: white; stroke: black; stroke-width: 30" />
<polyline points="1987,10299 1949,10303 1906,10318 1877,10340 1893,10358 1921,10378 1947,10395 1995,10399 2033,10380 2095,10338 2174,10284 2237,10232 2246,10208 2237,10195 2215,10189 2171,10204 2133,10257 2131,10321 2151,10366 2194,10402 2257,10406 2315,10391 2349,10363 2352,10338 2334,10321 2307,10322 2287,10348 2284,10384 2317,10418 2370,10438 2433,10445 " style="fill: white; stroke: black; stroke-width: 30" />
<polyline points="2606,10310 2603,10308 2601,10308 2606,10304 2601,10307 2600,10306 2600,10305 2600,10306 2608,10302 2606,10301 2602,10304 2590,10306 2566,10311 2526,10334 2479,10367 2467,10379 2462,10395 2469,10407 2508,10411 2584,10380 2651,10338 2708,10291 2717,10270 2713,10262 2707,10264 2694,10273 2665,10315 2624,10376 2604,10433 " style="fill: white; stroke: black; stroke-width: 30" />
<polyline points="957,10749 1000,10698 1085,10645 1148,10623 1169,10626 1170,10637 1135,10679 1107,10704 1057,10712 1021,10707 1014,10698 1020,10697 1028,10711 1044,10748 1063,10794 1053,10824 1036,10841 1005,10847 994,10841 966,10824 954,10806 960,10804 986,10797 1055,10781 " style="fill: white; stroke: black; stroke-width: 30" />
<polyline points="1222,10795 1219,10801 1230,10808 1285,10798 1343,10778 1367,10755 1354,10735 1311,10721 1250,10732 1250,10748 1284,10790 1363,10824 1447,10854 " style="fill: white; stroke: black; stroke-width: 30" />
<polyline points="1661,10763 1638,10752 1630,10754 1613,10769 1589,10806 1594,10821 1591,10830 1576,10843 1560,10853 1550,10855 1532,10850 1523,10840 1524,10838 1530,10837 1529,10839 1535,10839 " style="fill: white; stroke: black; stroke-width: 30" />
<polyline points="1926,10599 1884,10634 1814,10705 1744,10786 1721,10836 1726,10859 1730,10857 1735,10832 1725,10809 1704,10795 1703,10790 1715,10789 1753,10785 1802,10790 1875,10792 1932,10788 " style="fill: white; stroke: black; stroke-width: 30" />
<polyline points="1934,10767 1925,10762 1902,10779 1886,10822 1904,10863 1925,10874 1958,10854 1985,10811 1992,10758 1995,10736 1984,10737 1980,10739 2013,10731 2068,10719 " style="fill: white; stroke: black; stroke-width: 30" />
<polyline points="2269,10745 2290,10733 2323,10725 2330,10725 2329,10733 2301,10762 2256,10808 2212,10838 2167,10850 2126,10841 2126,10832 2140,10822 2166,10815 " style="fill: white; stroke: black; stroke-width: 30" />
<polyline points="2640,10554 2632,10537 2607,10526 2585,10525 2561,10541 2504,10621 2443,10758 2391,10899 2349,10994 2523,10789 2572,10791 2623,10785 2614,10792 2613,10797 2615,10813 2626,10826 2654,10839 2680,10837 2680,10836 2660,10845 2653,10863 2672,10878 " style="fill: white; stroke: black; stroke-width: 30" />
<polyline points="2864,10861 2867,10857 2865,10858 2866,10861 2877,10859 2896,10856 2912,10856 2929,10858 2942,10858 2952,10868 3004,10877 3060,10888 3073,10895 3074,10897 3062,10894 3045,10891 3043,10893 3053,10912 3008,10984 2957,11079 2903,11183 2838,11274 2768,11324 2720,11325 2715,11294 2796,11197 2960,11072 3105,10977 " style="fill: white; stroke: black; stroke-width: 30" />
<polyline points="3401,10751 3414,10701 3454,10666 3506,10670 3558,10726 3554,10803 3525,10837 3502,10846 3490,10853 3474,10894 " style="fill: white; stroke: black; stroke-width: 30" />
<polyline points="3444,11103 3451,11105 3458,11102 3467,11095 3462,11093 3469,11085 3483,11076 3514,11042 " style="fill: white; stroke: black; stroke-width: 30" />
<polyline points="942,11213 944,11212 925,11240 898,11302 847,11375 855,11414 907,11450 " style="fill: white; stroke: black; stroke-width: 30" />
<polyline points="1028,11432 1045,11432 1101,11437 1113,11450 1109,11456 1093,11468 1074,11482 " style="fill: white; stroke: black; stroke-width: 30" />
<polyline points="1565,11573 1563,11558 1567,11535 1548,11509 1488,11490 1418,11501 1370,11547 1380,11633 1439,11709 1516,11733 1565,11725 1630,11671 1624,11612 1619,11540 1599,11492 1593,11467 1593,11465 1598,11465 1613,11467 " style="fill: white; stroke: black; stroke-width: 30" />
<polyline points="1442,11810 1493,11801 1591,11801 1671,11799 1654,11598 " style="fill: white; stroke: black; stroke-width: 30" />
<polyline points="1897,11477 1892,11472 1889,11455 1928,11421 1950,11405 1971,11411 1950,11433 1918,11481 1859,11523 1822,11548 1834,11561 1839,11581 1869,11601 1910,11616 " style="fill: white; stroke: black; stroke-width: 30" />
<polyline points="2131,11611 2087,11633 2050,11634 2009,11620 2001,11587 2008,11545 " style="fill: white; stroke: black; stroke-width: 30" />
<polyline points="2523,11633 2539,11609 2540,11601 2547,11613 2515,11672 2475,11737 2451,11769 2452,11775 2476,11766 2481,11745 2527,11682 2571,11594 2615,11529 2665,11511 2709,11536 2714,11599 2713,11648 2669,11665 2625,11655 2574,11629 2560,11606 2560,11609 " style="fill: white; stroke: black; stroke-width: 30" />
<polyline points="2767,11605 2776,11582 2794,11579 2838,11585 2864,11605 2875,11639 2880,11677 2873,11711 2857,11731 2830,11741 2803,11747 2794,11739 2777,11718 2770,11699 2794,11688 2820,11698 " style="fill: white; stroke: black; stroke-width: 30" />
<polyline points="3063,11717 3046,11715 3021,11752 2966,11812 2934,11861 2937,11883 2923,11884 2934,11872 2941,11831 3004,11770 3059,11717 3124,11679 3137,11672 3138,11676 3121,11703 3109,11742 3104,11751 3096,11739 3093,11719 3086,11710 3085,11706 3092,11704 3083,11708 3116,11694 3139,11699 3169,11727 3208,11754 3251,11768 3281,11762 3321,11726 3325,11686 3317,11648 3284,11638 3262,11657 " style="fill: white; stroke: black; stroke-width: 30" />
<polyline points="2582,11964 2658,11971 2723,11959 2752,11945 2743,11937 2729,11918 2722,11890 2723,11862 2735,11839 2736,11841 2745,11852 2785,11870 2839,11889 2884,11916 2922,11932 2945,11946 2957,11946 2961,11942 2961,11940 2955,11935 2948,11928 2936,11928 2939,11932 2937,11943 2881,11791 " style="fill: white; stroke: black; stroke-width: 30" />
<polyline points="2961,11820 2955,11797 2968,11793 2957,11798 " style="fill: white; stroke: black; stroke-width: 30" />
<polyline points="3166,11867 3172,11859 3160,11854 3140,11841 3093,11843 3053,11856 3038,11876 3078,11917 3132,11954 3223,11960 " style="fill: white; stroke: black; stroke-width: 30" />
<polyline points="3425,11796 3420,11752 3380,11741 3341,11744 3302,11772 3244,11834 3222,11899 3219,11925 3203,11931 3198,11923 3188,11920 3203,11904 3235,11894 3272,11892 3309,11899 3355,11902 3407,11891 3410,11892 3410,11892 3381,11904 3362,11926 3346,11951 " style="fill: white; stroke: black; stroke-width: 30" />
<polyline points="3484,11730 3473,11728 3465,11732 3472,11749 " style="fill: white; stroke: black; stroke-width: 30" />
<polyline points="3464,11948 3458,11944 3484,11930 3507,11912 3514,11904 3513,11901 3520,11898 3508,11908 3511,11925 3528,11935 3557,11944 3568,11946 3578,11947 3573,11955 3589,11957 3585,11970 " style="fill: white; stroke: black; stroke-width: 30" />
<polyline points="1491,12378 1500,12374 1530,12365 1550,12353 1559,12351 1521,12348 1449,12345 1356,12362 1322,12381 1344,12408 1377,12464 1449,12494 1504,12489 1518,12469 1530,12429 1521,12389 1513,12347 1490,12334 1485,12326 1487,12326 1492,12327 1531,12333 " style="fill: white; stroke: black; stroke-width: 30" />
<polyline points="1551,12348 1573,12328 1590,12299 1642,12258 " style="fill: white; stroke: black; stroke-width: 30" />
<polyline points="1667,12180 1668,12172 1714,12160 1771,12165 1790,12194 1805,12218 " style="fill: white; stroke: black; stroke-width: 30" />
<polyline points="2093,12257 2103,12240 2081,12226 2038,12215 1959,12229 1916,12272 1858,12352 1841,12435 1873,12486 1928,12509 2010,12503 2054,12476 2081,12445 2057,12419 2001,12417 1952,12431 1949,12460 " style="fill: white; stroke: black; stroke-width: 30" />
<polyline points="2213,12389 2234,12356 2271,12329 2321,12335 2339,12367 2349,12410 2338,12444 2329,12460 2297,12458 2240,12445 2199,12436 2181,12427 2181,12402 " style="fill: white; stroke: black; stroke-width: 30" />
<polyline points="2819,12274 2821,12261 2791,12284 2742,12356 2613,12308 2662,12272 2728,12270 2796,12294 " style="fill: white; stroke: black; stroke-width: 30" />
<polyline points="2802,12522 2786,12542 2799,12544 2869,12541 2921,12546 2957,12557 " style="fill: white; stroke: black; stroke-width: 30" />
<polyline points="3042,12567 3047,12558 3065,12547 3108,12534 3127,12525 3146,12508 3159,12498 3142,12484 3111,12471 3074,12480 3051,12498 3062,12523 3109,12546 3147,12575 3173,12597 3185,12604 3202,12600 3217,12588 3220,12578 3231,12572 3231,12569 3249,12560 3248,12555 3239,12552 3242,12553 3239,12552 3248,12546 3246,12537 3262,12516 3293,12489 3298,12486 3298,12487 3317,12492 3298,12321 " style="fill: white; stroke: black; stroke-width: 30" />
<polyline points="3500,12471 3528,12479 3530,12505 3496,12551 3470,12593 3441,12620 3408,12636 3359,12640 3329,12626 3347,12594 3412,12572 3449,12573 3510,12583 3497,12412 " style="fill: white; stroke: black; stroke-width: 30" />
<polyline points="3477,12744 3466,12745 3477,12728 3530,12665 3572,12606 3610,12572 3658,12562 3648,12574 3662,12585 3638,12613 3632,12633 3608,12649 3585,12655 3564,12656 3564,12656 3598,12660 3654,12660 3729,12650 3755,12647 3784,12629 3759,12615 3717,12610 3683,12614 3686,12631 3724,12663 3766,12686 3815,12686 3832,12678 3829,12662 3804,12658 3794,12662 3798,12676 3803,12690 3824,12700 3856,12696 3850,12695 3841,12700 3858,12703 3873,12709 4089,12617 4105,12617 4079,12632 4063,12660 4023,12704 3992,12756 3984,12802 3987,12831 4002,12832 4018,12823 4051,12796 4062,12750 4038,12702 4023,12671 4025,12661 4029,12671 4065,12691 4107,12719 4152,12747 " style="fill: white; stroke: black; stroke-width: 30" />
<polyline points="966,12513 1075,12452 1272,12329 1582,12176 2032,11987 2530,11809 3011,11683 3426,11626 3785,11571 4023,11528 " style="fill: white; stroke: black; stroke-width: 30" />
<polyline points="820,10885 872,10913 1028,11005 1298,11206 1729,11510 2288,11915 2946,12398 " style="fill: white; stroke: black; stroke-width: 30" />
<polyline points="-9598,17611 " style="fill: white; stroke: black; stroke-width: 30" />
<polyline points="-5400,17348 " style="fill: white; stroke: black; stroke-width: 30" />

</svg>