<?xml version="1.0" standalone="no"?>
<!DOCTYPE svg PUBLIC "-//W3C//DTD SVG 1.1//EN" "http://www.w3.org/Graphics/SVG/1.1/DTD/svg11.dtd">
<svg width="210mm" height="297mm" viewBox="-7000 500 14000 20000" version="1.1" xmlns="http://www.w3.org/2000/svg">

<polyline points="-1771,5297 -1730,5256 -1650,5200 -1519,5104 -1314,4933 -1036,4696 -717,4403 -341,4086 61,3747 491,3379 927,3005 1320,2677 1653,2409 1870,2220 2000,2110 2063,2044 2084,2019 2080,2017 2073,2020 2067,2020 2056,2014 " style="fill: white; stroke: black; stroke-width: 30" />
<polyline points="-1906,1786 -1847,1869 -1748,1970 -1582,2084 -1357,2204 -1082,2348 -775,2517 -445,2732 -95,2952 285,3174 677,3384 1071,3594 1446,3803 1776,3979 2041,4135 2253,4262 2402,4356 2500,4422 " style="fill: white; stroke: black; stroke-width: 30" />
<polyline points="362,1162 283,1161 221,1212 185,1350 182,1562 193,1872 195,2277 172,2740 148,3229 134,3727 129,4218 153,4674 193,5084 226,5432 244,5690 " style="fill: white; stroke: black; stroke-width: 30" />
<polyline points="2631,1837 2635,1788 2612,1726 2546,1678 2451,1681 2360,1742 2310,1840 2324,1953 2414,2015 2544,2022 2668,1956 2732,1873 2730,1800 2693,1746 2628,1708 2583,1691 2575,1689 2582,1695 2596,1705 2610,1714 2614,1717 2619,1719 2618,1717 2619,1716 2620,1712 2623,1710 2624,1706 2626,1703 2627,1700 2641,1694 2716,1640 2835,1547 2901,1494 2913,1480 2900,1472 2858,1478 " style="fill: white; stroke: black; stroke-width: 30" />
<polyline points="2818,1432 2812,1421 2842,1385 2932,1335 3007,1312 3041,1319 3033,1361 2994,1461 2944,1567 2937,1641 " style="fill: white; stroke: black; stroke-width: 30" />
<polyline points="-2419,5806 -2433,5741 -2417,5650 -2377,5557 -2317,5506 -2231,5528 -2149,5630 -2113,5762 -2134,5876 -2196,5960 -2270,5982 -2338,5948 -2402,5855 -2436,5747 -2425,5692 " style="fill: white; stroke: black; stroke-width: 30" />
<polyline points="-2280,5963 -2255,6004 -2223,6104 -2220,6247 -2226,6357 -2226,6425 " style="fill: white; stroke: black; stroke-width: 30" />
<polyline points="-2326,6209 -2298,6181 -2259,6171 -2217,6175 -2141,6183 -2032,6174 " style="fill: white; stroke: black; stroke-width: 30" />
<polyline points="193,5983 169,5983 123,6008 74,6101 54,6252 106,6364 242,6415 428,6372 589,6244 678,6136 703,6052 686,6017 635,6008 " style="fill: white; stroke: black; stroke-width: 30" />
<polyline points="470,5977 437,6005 431,6090 431,6278 445,6591 " style="fill: white; stroke: black; stroke-width: 30" />
<polyline points="3025,4663 3030,4646 3034,4627 3029,4607 3002,4585 2921,4563 2803,4567 2697,4612 2633,4686 2623,4787 2671,4892 2787,4977 2914,5021 3042,4997 3124,4938 3147,4866 3139,4775 3111,4689 3072,4629 3046,4616 3036,4616 3037,4620 3043,4627 3051,4636 3053,4642 3056,4639 " style="fill: white; stroke: black; stroke-width: 30" />
<polyline points="3025,4648 3020,4645 3013,4640 3009,4634 3009,4626 3013,4623 " style="fill: white; stroke: black; stroke-width: 30" />
<polyline points="2926,4854 2977,4880 3059,4932 3130,4990 3158,5049 " style="fill: white; stroke: black; stroke-width: 30" />
<polyline points="2397,4500 2410,4523 2405,4627 2408,4773 2415,4939 2451,5129 " style="fill: white; stroke: black; stroke-width: 30" />
<polyline points="357,711 346,714 331,723 319,759 303,864 296,1022 318,1141 371,1210 " style="fill: white; stroke: black; stroke-width: 30" />
<polyline points="542,702 514,685 495,675 477,687 438,726 377,829 327,940 320,1005 345,1043 393,1074 465,1098 546,1106 " style="fill: white; stroke: black; stroke-width: 30" />
<polyline points="668,1092 642,1099 626,1085 634,1032 645,951 666,871 700,813 738,801 781,826 815,906 820,989 811,1052 807,1078 819,1082 856,1048 913,1006 " style="fill: white; stroke: black; stroke-width: 30" />
<polyline points="1043,901 1032,873 1002,838 947,860 896,936 890,1021 935,1068 1013,1067 1080,1016 1112,957 1096,907 1066,888 1050,893 1056,919 1093,950 1145,962 1198,928 1223,904 1209,900 1184,915 1167,952 1178,986 1216,1009 1277,1007 1332,992 1347,988 1342,992 1343,994 1341,1000 1349,1002 1364,1006 1397,990 1425,953 1432,934 1423,931 1416,920 1414,910 1412,915 1405,896 " style="fill: white; stroke: black; stroke-width: 30" />
<polyline points="1574,807 1586,814 1635,828 1700,834 1767,841 1834,862 " style="fill: white; stroke: black; stroke-width: 30" />
<polyline points="422,1283 409,1310 391,1385 380,1490 411,1542 515,1562 651,1522 751,1475 791,1433 774,1413 736,1410 707,1400 695,1393 681,1393 656,1410 640,1469 658,1510 723,1552 810,1564 891,1542 " style="fill: white; stroke: black; stroke-width: 30" />
<polyline points="1021,1332 964,1361 888,1428 853,1495 867,1531 932,1541 1023,1470 1117,1356 1159,1253 1151,1219 1115,1217 1076,1240 1064,1263 1075,1337 1110,1429 1162,1522 1226,1557 " style="fill: white; stroke: black; stroke-width: 30" />
<polyline points="1331,1378 1321,1377 1299,1370 1261,1370 1215,1380 1197,1401 1212,1415 1261,1419 1325,1385 1370,1361 1371,1360 1372,1387 1374,1464 1366,1563 1339,1661 1299,1746 1267,1778 1264,1762 1292,1643 1376,1536 1489,1454 1587,1393 1615,1353 1585,1348 1515,1369 1483,1402 1498,1428 1561,1464 1681,1471 1803,1454 " style="fill: white; stroke: black; stroke-width: 30" />
<polyline points="-1361,4915 -1363,4882 -1351,4865 -1326,4850 -1275,4857 -1236,4896 -1220,4955 -1240,5017 -1284,5058 -1334,5069 -1373,5043 -1398,5000 -1403,4943 -1379,4895 -1334,4857 -1275,4856 -1233,4886 -1231,4941 -1261,4995 -1310,5025 -1350,5010 -1373,4966 -1368,4904 -1345,4858 -1304,4851 -1266,4892 -1260,4963 -1284,5023 -1333,5045 -1379,5031 -1407,4988 -1411,4943 -1395,4906 -1363,4887 -1329,4886 -1323,4892 -1313,4903 -1292,4922 -1258,4923 " style="fill: white; stroke: black; stroke-width: 30" />
<polyline points="-1147,4980 -1121,4981 -1089,4985 -1035,5001 -969,5028 -878,5071 -764,5126 -634,5184 -477,5254 -304,5328 -142,5388 8,5444 125,5482 211,5519 253,5548 261,5572 259,5579 253,5579 259,5577 261,5574 275,5566 285,5567 284,5565 284,5567 277,5565 266,5563 263,5545 261,5503 278,5449 302,5417 328,5402 348,5418 365,5476 349,5538 317,5585 282,5594 265,5575 249,5531 261,5485 280,5470 319,5486 347,5524 340,5565 298,5597 237,5609 215,5600 210,5578 221,5542 244,5492 273,5430 " style="fill: white; stroke: black; stroke-width: 30" />
<polyline points="-2970,1300 -2964,1291 -2962,1304 -2960,1398 -2965,1564 -2961,1696 -2952,1748 -2950,1765 -2959,1753 " style="fill: white; stroke: black; stroke-width: 30" />
<polyline points="-3171,1440 -3191,1419 -3197,1415 -3191,1419 -3164,1432 -3113,1451 -3052,1475 -2979,1481 -2880,1460 " style="fill: white; stroke: black; stroke-width: 30" />
<polyline points="-2923,1680 -2910,1683 -2871,1674 -2830,1662 -2787,1630 -2764,1596 -2777,1577 -2823,1584 -2873,1620 -2888,1663 -2874,1685 -2825,1697 -2755,1701 -2702,1685 -2662,1666 " style="fill: white; stroke: black; stroke-width: 30" />
<polyline points="-2624,1269 -2667,1310 -2695,1411 -2711,1559 -2705,1669 -2671,1711 -2611,1702 -2542,1659 -2502,1639 -2491,1655 -2494,1700 -2496,1714 -2476,1684 " style="fill: white; stroke: black; stroke-width: 30" />
<polyline points="-2409,1638 -2415,1664 -2412,1657 -2395,1632 -2372,1602 -2351,1601 -2327,1621 -2311,1653 -2289,1672 -2268,1662 -2239,1621 -2227,1600 -2231,1613 -2246,1647 -2250,1656 -2242,1640 -2224,1570 " style="fill: white; stroke: black; stroke-width: 30" />
<polyline points="-2234,1375 -2272,1359 -2303,1366 -2310,1369 -2288,1353 -2242,1321 " style="fill: white; stroke: black; stroke-width: 30" />
<polyline points="-2128,1242 -2126,1243 -2123,1246 -2123,1252 -2122,1255 -2122,1261 -2123,1263 -2127,1281 -2127,1330 -2129,1421 -2141,1545 -2153,1624 -2150,1639 -2122,1611 -2079,1523 " style="fill: white; stroke: black; stroke-width: 30" />
<polyline points="-2007,1440 -2034,1469 -2096,1519 -2160,1598 -2165,1634 -2110,1662 -1997,1663 " style="fill: white; stroke: black; stroke-width: 30" />
<polyline points="316,5630 345,5596 398,5531 490,5418 642,5250 872,5043 1124,4829 1351,4654 1516,4527 1604,4460 1648,4407 1682,4375 1707,4347 1738,4329 1778,4305 1810,4291 1822,4279 1822,4280 1823,4281 1829,4284 1838,4281 1875,4258 " style="fill: white; stroke: black; stroke-width: 30" />
<polyline points="1944,4188 1966,4165 1975,4153 1982,4145 1989,4135 1990,4136 1992,4136 1983,4146 1959,4170 1934,4188 1924,4191 1925,4184 1940,4149 1967,4123 1992,4112 2010,4124 2021,4152 2008,4192 1976,4217 1912,4218 1853,4181 1828,4138 1845,4093 1900,4052 1981,4052 2040,4096 2042,4163 1996,4215 1937,4231 1867,4218 1837,4171 1837,4121 1859,4093 1885,4091 1928,4098 1960,4117 1978,4133 " style="fill: white; stroke: black; stroke-width: 30" />
<polyline points="1916,4016 1910,4017 1903,4011 1901,3970 1900,3850 1901,3631 1910,3348 1931,3060 1958,2795 1978,2598 1991,2477 1989,2399 1973,2353 1954,2332 1948,2324 1950,2327 1951,2328 1950,2335 1948,2338 1950,2342 1949,2340 1953,2340 1952,2336 1950,2336 1947,2334 1949,2332 1949,2332 1949,2333 1949,2327 1942,2323 1936,2320 1933,2320 1931,2317 1929,2315 1924,2313 1921,2311 1917,2308 1917,2308 1919,2306 1921,2308 1920,2309 1923,2310 1920,2310 1923,2310 1921,2308 1921,2310 1919,2308 1919,2309 1917,2308 1918,2309 1917,2308 1917,2309 1916,2308 1915,2308 1914,2308 1916,2309 1915,2307 1915,2309 1913,2309 1915,2309 1914,2308 1915,2309 1914,2308 1914,2311 1914,2308 1913,2310 1912,2308 1914,2308 1911,2307 1912,2308 1911,2307 1913,2308 1912,2307 1912,2308 1912,2306 1913,2307 1913,2305 1912,2308 1914,2304 1918,2298 " style="fill: white; stroke: black; stroke-width: 30" />
<polyline points="1817,4057 1817,4057 1816,4056 1812,4052 1815,4038 1809,4007 1800,3965 1768,3881 1695,3738 1597,3553 1497,3377 1412,3236 1351,3139 1306,3055 1263,2989 1214,2937 1177,2887 1156,2862 1145,2842 1140,2834 1137,2821 1135,2816 1133,2811 1132,2810 1131,2805 1130,2806 1129,2803 1131,2806 1132,2807 1136,2812 1141,2817 1152,2841 1155,2865 1143,2901 1101,2944 1047,2977 1002,2978 979,2959 985,2918 1025,2869 1093,2829 1168,2818 1221,2824 1232,2848 1185,2897 1108,2945 1066,2957 1055,2945 1050,2898 1065,2848 1107,2812 1169,2814 1207,2831 1208,2868 1154,2907 1079,2947 1032,2946 1022,2933 1042,2889 1097,2835 1170,2813 1221,2829 1225,2843 1187,2881 1124,2914 1082,2928 1053,2913 1048,2890 1071,2840 1134,2773 1209,2730 1234,2736 1208,2776 1152,2852 1106,2896 1092,2903 1089,2890 1085,2854 1091,2771 1115,2729 1143,2725 1159,2763 1133,2839 1093,2901 1077,2907 1081,2895 1085,2852 1091,2776 1110,2728 " style="fill: white; stroke: black; stroke-width: 30" />
<polyline points="1041,2807 1034,2805 1023,2791 1004,2762 950,2694 842,2593 711,2482 573,2361 439,2210 330,2061 255,1938 208,1851 179,1795 153,1761 139,1747 142,1746 145,1746 148,1747 148,1745 150,1746 153,1745 158,1749 " style="fill: white; stroke: black; stroke-width: 30" />
<polyline points="190,1765 176,1756 179,1735 196,1725 216,1735 235,1777 233,1824 206,1867 170,1879 143,1873 137,1838 157,1755 199,1697 244,1672 284,1685 293,1748 251,1827 198,1880 154,1881 127,1867 122,1837 143,1775 196,1718 268,1706 325,1726 318,1787 256,1856 186,1890 131,1877 115,1849 121,1813 158,1765 212,1730 243,1733 243,1737 238,1743 230,1754 232,1758 " style="fill: white; stroke: black; stroke-width: 30" />
<polyline points="103,1849 107,1850 102,1842 97,1840 79,1842 21,1864 -65,1888 -163,1910 -267,1923 -402,1936 -562,1948 -748,1964 -914,1974 -1028,1972 -1086,1961 -1103,1956 -1103,1957 -1109,1963 -1112,1966 -1115,1967 -1119,1965 -1141,1970 -1180,1983 -1226,2004 -1260,2018 -1294,2037 -1326,2050 -1355,2063 -1394,2071 -1445,2081 -1474,2083 -1487,2082 -1488,2081 -1486,2082 -1483,2081 -1480,2081 -1469,2086 -1448,2092 " style="fill: white; stroke: black; stroke-width: 30" />
<polyline points="122,1806 111,1808 100,1809 89,1826 67,1879 27,1991 -32,2129 -111,2306 -180,2459 -226,2579 -250,2672 -257,2744 -259,2809 -263,2854 -265,2871 -268,2876 -263,2871 -259,2866 -252,2859 -236,2839 " style="fill: white; stroke: black; stroke-width: 30" />
<polyline points="-258,2900 -294,2899 -323,2890 -346,2869 -356,2820 -343,2754 -312,2700 -277,2688 -245,2728 -234,2813 -257,2880 -283,2905 -306,2899 -323,2868 -323,2814 -308,2780 -283,2773 -259,2801 -253,2859 -270,2912 -297,2944 -322,2946 -342,2912 -347,2854 -319,2802 -282,2781 -244,2794 -227,2839 -251,2894 -293,2932 -327,2920 -350,2890 -359,2851 -350,2831 -332,2817 -314,2816 -305,2824 -309,2834 -319,2839 -328,2839 -333,2833 -332,2830 -329,2822 -315,2796 " style="fill: white; stroke: black; stroke-width: 30" />
<polyline points="-1563,2079 -1574,2061 -1567,2023 -1538,2001 -1475,2005 -1398,2039 -1359,2080 -1370,2124 -1425,2157 -1500,2174 -1562,2166 -1588,2141 -1583,2083 -1544,2013 -1473,1975 -1403,1992 -1367,2051 -1392,2134 -1450,2210 -1507,2240 -1539,2224 -1559,2172 -1551,2093 -1510,2033 -1445,2000 -1384,2021 -1375,2084 -1418,2161 -1477,2207 -1516,2217 -1537,2197 -1551,2156 -1545,2107 -1529,2073 -1498,2047 -1453,2045 " style="fill: white; stroke: black; stroke-width: 30" />
<polyline points="-953,2463 -975,2409 -978,2359 -964,2330 -920,2325 -856,2360 -822,2411 -845,2463 -917,2500 -997,2508 -1042,2485 -1050,2450 -1026,2395 -964,2348 -878,2333 -800,2363 -778,2431 -820,2512 -896,2562 -973,2570 -1025,2526 -1041,2458 -1021,2374 -965,2330 -898,2333 -842,2390 -839,2467 -879,2517 -926,2519 -980,2494 -1007,2467 -1005,2459 -989,2450 -949,2437 -893,2423 -850,2426 " style="fill: white; stroke: black; stroke-width: 30" />
<polyline points="-927,2496 -924,2479 -923,2472 -914,2465 -891,2446 -837,2404 -734,2321 -575,2193 -354,2024 -99,1844 136,1721 291,1657 350,1626 357,1622 351,1620 342,1625 334,1626 332,1631 334,1629 336,1631 344,1634 " style="fill: white; stroke: black; stroke-width: 30" />
<polyline points="-942,2453 -951,2454 -962,2493 -988,2556 -1017,2667 -1055,2804 -1098,2962 -1139,3122 -1169,3267 -1198,3405 -1229,3541 -1260,3669 -1292,3776 -1314,3868 -1333,3947 -1351,4042 -1360,4136 -1372,4221 -1380,4295 -1391,4373 -1397,4443 -1393,4515 -1379,4579 -1363,4635 -1356,4683 -1352,4740 -1350,4788 -1355,4811 -1349,4847 -1345,4879 -1338,4898 -1330,4914 -1329,4915 -1331,4915 -1331,4912 -1326,4910 " style="fill: white; stroke: black; stroke-width: 30" />
<polyline points="-450,18038 " style="fill: white; stroke: black; stroke-width: 30" />
<polyline points="-4026,7704 -4042,7692 -4069,7650 -4088,7638 -4102,7627 -4101,7616 -4105,7596 -4102,7599 -4098,7602 -4096,7611 -4100,7638 -4078,7712 -4067,7789 -4053,7833 -4045,7838 -4031,7842 -4004,7838 -3965,7823 -3919,7786 -3877,7772 -3853,7773 -3831,7791 -3811,7821 -3804,7869 -3815,7910 -3834,7973 -3854,7997 -3871,8006 -3878,8000 -3921,7973 -3977,7905 -4013,7785 -4010,7718 -3982,7708 -3915,7729 -3808,7792 -3714,7879 -3671,8045 -3702,8215 -3748,8324 -3775,8355 -3777,8349 -3775,8336 -3765,8280 -3717,8168 -3666,8052 " style="fill: white; stroke: black; stroke-width: 30" />
<polyline points="1933,2335 1899,2309 1884,2264 1895,2229 1945,2189 2024,2172 2073,2192 2081,2250 2021,2340 1929,2424 1852,2461 1828,2455 1831,2393 1875,2284 1935,2204 1991,2177 2020,2204 2018,2298 1964,2407 1910,2460 1857,2459 1824,2417 1833,2326 1894,2219 1966,2170 2022,2190 2041,2267 2011,2375 1950,2447 1883,2485 1842,2467 1830,2409 1865,2286 1923,2217 1967,2210 1995,2268 1984,2340 1943,2401 1927,2408 1930,2401 1936,2387 1947,2372 " style="fill: white; stroke: black; stroke-width: 30" />
<polyline points="1871,2412 1869,2410 1864,2420 1842,2487 1789,2591 1712,2734 1620,2866 1532,3007 1444,3148 1370,3281 1319,3383 1290,3461 1254,3527 1220,3581 1186,3616 1153,3663 1131,3694 1118,3708 1118,3705 1117,3702 1117,3698 1115,3700 1114,3699 1113,3701 1110,3700 1109,3704 1106,3705 1103,3711 1096,3712 1098,3713 1096,3714 1091,3727 1081,3747 1082,3746 1087,3724 1111,3666 1145,3605 1174,3580 1205,3563 1233,3565 1267,3591 1300,3641 1302,3685 1263,3725 1185,3756 1105,3760 1064,3734 1056,3720 1069,3670 1125,3617 1205,3577 1286,3566 1330,3583 1315,3645 1242,3735 1170,3773 1149,3762 1146,3725 1151,3594 1176,3552 1186,3545 1206,3555 1231,3587 1240,3666 1223,3715 1187,3740 1146,3736 1111,3710 1091,3659 1108,3618 1156,3593 1200,3604 1226,3674 1196,3770 1143,3798 1109,3784 1059,3731 1042,3684 1047,3653 1056,3650 1085,3654 1100,3674 1100,3685 1096,3688 1088,3684 1087,3678 1086,3668 1085,3664 1084,3639 " style="fill: white; stroke: black; stroke-width: 30" />
<polyline points="1113,3869 1094,3871 1068,3870 1038,3886 962,3934 865,3997 751,4062 642,4120 534,4172 430,4227 329,4293 225,4361 167,4390 156,4397 159,4392 164,4388 171,4381 170,4382 170,4382 169,4383 171,4381 173,4382 172,4380 176,4378 182,4352 217,4292 241,4252 259,4248 294,4259 321,4321 296,4412 222,4496 148,4532 109,4528 99,4494 105,4427 131,4368 169,4338 212,4332 232,4353 233,4395 213,4455 175,4490 161,4491 147,4461 145,4402 173,4336 213,4318 236,4324 238,4376 214,4444 172,4493 150,4495 147,4488 147,4473 144,4447 143,4434 151,4417 172,4391 " style="fill: white; stroke: black; stroke-width: 30" />
<polyline points="100,4333 95,4331 93,4322 85,4314 72,4296 56,4270 22,4203 -13,4134 -36,4081 -56,4015 -70,3940 -82,3865 -94,3835 -93,3832 -93,3831 -90,3835 -88,3836 -87,3841 -86,3840 -85,3842 -84,3840 -83,3840 -82,3841 -74,3863 -63,3912 -55,3961 -56,3982 -72,3995 -94,3985 -109,3955 -119,3884 -108,3842 -84,3821 -55,3824 -28,3847 -23,3899 -59,3958 -113,3999 -154,3998 -167,3981 -169,3928 -148,3869 -112,3833 -71,3829 -42,3854 -37,3936 -62,4020 -100,4061 -128,4057 -148,4011 -158,3904 -135,3846 -105,3830 -59,3845 -25,3904 -34,3979 -56,4015 -79,4016 -100,3999 -113,3980 -114,3962 -104,3892 -79,3815 " style="fill: white; stroke: black; stroke-width: 30" />
<polyline points="-133,3845 -145,3844 -157,3825 -184,3785 -214,3733 -242,3694 -297,3617 -369,3510 -456,3365 -552,3212 -629,3071 -703,2969 -786,2864 -868,2743 -950,2601 -1019,2466 -1075,2357 -1121,2268 -1152,2194 -1168,2154 -1183,2119 -1186,2109 -1184,2105 -1182,2106 -1181,2102 -1181,2103 -1181,2100 -1182,2102 -1182,2101 -1182,2105 -1182,2104 -1181,2109 -1182,2109 -1181,2114 -1181,2113 -1180,2116 -1179,2116 -1180,2118 -1179,2117 -1175,2122 -1171,2128 -1179,2169 " style="fill: white; stroke: black; stroke-width: 30" />
<polyline points="-1259,2277 -1300,2283 -1337,2264 -1362,2228 -1380,2160 -1385,2105 -1377,2086 -1360,2083 -1329,2089 -1298,2113 -1272,2140 -1264,2162 -1273,2172 -1291,2175 -1304,2166 -1309,2155 -1307,2139 -1291,2125 -1264,2123 -1223,2149 -1196,2190 -1200,2247 -1223,2289 -1253,2305 -1284,2295 -1318,2249 -1322,2162 -1291,2085 -1243,2049 -1190,2062 -1157,2122 -1164,2201 -1196,2258 -1249,2295 -1298,2296 -1322,2273 -1331,2203 -1301,2116 -1238,2059 -1171,2051 -1138,2089 -1157,2200 -1210,2292 -1259,2332 -1272,2325 -1295,2281 -1302,2195 -1271,2088 -1204,2039 -1150,2065 -1137,2139 -1164,2227 -1198,2263 -1224,2261 -1233,2243 -1235,2226 -1223,2183 -1187,2101 " style="fill: white; stroke: black; stroke-width: 30" />
<polyline points="-1285,2300 " style="fill: white; stroke: black; stroke-width: 30" />
<polyline points="-1249,2259 -1242,2248 -1242,2243 -1244,2241 -1242,2238 -1235,2238 -1212,2238 -1186,2240 -1158,2236 -1128,2237 -1075,2245 -1002,2263 -918,2280 -834,2306 -750,2327 -670,2347 -572,2360 -472,2370 -371,2378 -280,2387 -206,2408 -142,2431 -84,2444 -31,2450 17,2451 47,2456 54,2456 53,2457 58,2455 74,2459 85,2458 94,2460 99,2461 119,2466 145,2475 168,2486 183,2494 189,2502 198,2512 208,2522 214,2526 215,2529 215,2528 211,2532 205,2532 202,2530 199,2519 195,2496 201,2475 205,2471 216,2477 235,2494 261,2533 276,2570 264,2604 217,2640 158,2649 101,2630 83,2590 83,2538 109,2497 159,2471 228,2480 275,2502 287,2547 249,2625 180,2657 126,2649 92,2610 83,2523 109,2442 147,2412 194,2404 234,2427 241,2492 206,2576 152,2624 117,2624 107,2607 114,2564 147,2500 203,2464 255,2460 282,2481 276,2539 230,2604 174,2619 150,2603 134,2547 137,2490 149,2454 155,2456 171,2462 228,2479 " style="fill: white; stroke: black; stroke-width: 30" />
<polyline points="196,2570 188,2564 177,2555 167,2549 171,2538 211,2518 287,2483 386,2443 500,2403 621,2375 737,2348 838,2329 916,2313 971,2309 1006,2307 1040,2306 1075,2301 1116,2301 1155,2296 1196,2295 1237,2288 1288,2282 1345,2272 1395,2264 1445,2248 1483,2243 1507,2243 1535,2239 1553,2237 1566,2236 1595,2226 1649,2217 1699,2207 1741,2201 1773,2196 1804,2192 1813,2189 1812,2191 1811,2191 1813,2193 1812,2193 1813,2196 1815,2196 1815,2198 1815,2198 1816,2201 1817,2199 1821,2200 1826,2199 1855,2191 " style="fill: white; stroke: black; stroke-width: 30" />
<polyline points="-1841,8003 -1832,7999 -1832,7996 -1864,7986 -1929,7977 -1973,7998 -2000,8032 -1993,8102 -1950,8181 -1896,8235 -1879,8255 -1898,8263 -1968,8260 -2037,8234 -2051,8224 -2049,8227 -2029,8237 " style="fill: white; stroke: black; stroke-width: 30" />
<polyline points="-1753,8191 -1765,8184 -1774,8181 -1781,8187 -1802,8196 -1832,8224 -1849,8251 -1847,8277 -1810,8289 -1741,8270 -1669,8184 -1605,8084 -1582,8019 -1593,8002 -1609,8003 -1630,8044 -1655,8129 -1648,8178 -1612,8196 -1551,8183 -1514,8181 -1511,8188 -1515,8204 -1493,8211 " style="fill: white; stroke: black; stroke-width: 30" />
<polyline points="-1385,8232 -1390,8226 -1389,8198 -1397,8151 -1395,8129 -1393,8123 -1367,8126 -1337,8155 -1328,8201 -1339,8249 -1376,8271 -1409,8252 -1430,8201 -1429,8150 -1399,8122 " style="fill: white; stroke: black; stroke-width: 30" />
<polyline points="-1390,8042 -1383,8038 -1360,8035 -1317,8042 -1249,8052 " style="fill: white; stroke: black; stroke-width: 30" />
<polyline points="-1275,8251 -1274,8253 -1267,8250 -1245,8230 -1215,8182 -1197,8153 -1182,8152 -1158,8194 -1158,8256 -1145,8281 " style="fill: white; stroke: black; stroke-width: 30" />
<polyline points="-1029,8203 -1044,8243 -1052,8365 -1060,8470 -1045,8509 -1038,8504 -1039,8429 -1045,8292 -1030,8209 -985,8176 -925,8168 -890,8183 -888,8204 -958,8233 -1046,8238 -1062,8236 -1036,8234 -934,8232 -824,8215 -724,8169 -654,8102 -652,8036 -675,7978 -712,7946 -713,7957 -727,8030 -753,8219 -756,8377 -752,8457 -724,8461 " style="fill: white; stroke: black; stroke-width: 30" />
<polyline points="-803,8281 -799,8287 -762,8285 -711,8262 -635,8225 -563,8185 -508,8135 -468,8083 -440,8023 -440,7992 -446,7984 -483,7997 -543,8061 -581,8152 -576,8215 -539,8247 -464,8240 -385,8181 -332,8120 -330,8102 -336,8101 -340,8121 -349,8159 -337,8191 -311,8209 -288,8222 -280,8227 -279,8228 -255,8215 -220,8199 " style="fill: white; stroke: black; stroke-width: 30" />
<polyline points="-36,8205 -22,8199 -22,8200 -22,8201 -34,8202 -39,8189 -53,8173 -78,8162 -120,8182 -134,8214 -124,8240 -96,8252 -71,8244 -69,8244 -58,8288 -57,8404 -73,8522 -111,8621 -157,8634 -195,8550 -196,8394 -160,8274 " style="fill: white; stroke: black; stroke-width: 30" />
<polyline points="1112,7316 1110,7305 1107,7300 1109,7306 1102,7349 1085,7454 1070,7528 1068,7550 1073,7544 1088,7515 1121,7411 1141,7329 1138,7316 1139,7320 1133,7352 1131,7437 1149,7537 1192,7606 1272,7620 1389,7577 1466,7501 1480,7433 1457,7394 1432,7379 1423,7379 1421,7390 1427,7397 1430,7406 1437,7412 1433,7414 1438,7411 1440,7411 1439,7409 " style="fill: white; stroke: black; stroke-width: 30" />
<polyline points="1617,7487 1611,7488 1609,7491 1617,7500 1609,7544 1591,7590 1580,7624 1584,7625 1591,7618 1612,7564 " style="fill: white; stroke: black; stroke-width: 30" />
<polyline points="1625,7459 1596,7425 1574,7389 1575,7342 1603,7308 1657,7303 1701,7332 1695,7375 1640,7414 1575,7416 1552,7395 1566,7335 1620,7287 " style="fill: white; stroke: black; stroke-width: 30" />
<polyline points="1870,7510 1802,7476 1719,7474 1666,7505 1669,7574 1745,7634 1845,7646 1953,7608 2001,7549 " style="fill: white; stroke: black; stroke-width: 30" />
<polyline points="1923,7545 1931,7548 1957,7542 1993,7516 2007,7494 1991,7478 1948,7483 1926,7506 1942,7558 1996,7609 2127,7645 2251,7651 " style="fill: white; stroke: black; stroke-width: 30" />
<polyline points="-1975,8573 -1992,8575 -2008,8576 -2011,8574 -1983,8576 -1919,8563 -1810,8546 -1745,8540 -1730,8546 -1738,8552 -1763,8563 -1783,8568 " style="fill: white; stroke: black; stroke-width: 30" />
<polyline points="-1924,8648 -1913,8649 -1891,8650 -1876,8656 -1876,8675 -1908,8758 -1955,8859 -1955,8918 -1934,8950 -1850,8980 -1748,8995 -1701,8993 -1691,8994 -1693,8984 " style="fill: white; stroke: black; stroke-width: 30" />
<polyline points="-1702,8882 -1695,8880 -1672,8874 -1632,8887 -1596,8910 -1594,8933 -1613,8958 -1647,8979 -1652,8987 -1649,8991 " style="fill: white; stroke: black; stroke-width: 30" />
<polyline points="-1240,8855 -1244,8849 -1238,8844 -1249,8846 -1258,8853 -1276,8869 -1281,8877 -1270,8901 -1259,8935 -1233,8971 -1205,9013 -1164,9035 -1093,9029 -1008,8985 -965,8922 -973,8905 -1011,8887 -1070,8878 -1087,8879 -1083,8881 -1067,8883 -1021,8888 -984,8907 " style="fill: white; stroke: black; stroke-width: 30" />
<polyline points="-769,8935 -791,8931 -817,8920 -860,8904 -902,8896 -934,8907 -939,8922 -905,8975 -849,9007 -784,9012 -765,8993 -779,8973 -812,8942 -829,8932 -825,8931 -807,8938 -775,8952 -737,8990 -700,9027 -655,9043 -622,9012 -616,8950 -620,8906 -623,8883 -613,8887 -595,8897 -544,8917 " style="fill: white; stroke: black; stroke-width: 30" />
<polyline points="-420,8803 -404,8783 -403,8763 -400,8763 -407,8781 -436,8897 -469,9008 -471,9063 -463,9071 -430,9056 -372,8989 -314,8941 -272,8955 -226,9009 -218,9063 -229,9087 -247,9092 " style="fill: white; stroke: black; stroke-width: 30" />
<polyline points="-132,8930 -142,8920 -140,8912 -110,8916 -61,8949 -43,8994 -57,9042 -105,9075 -167,9079 -182,9060 -180,9019 -145,8985 -97,8978 -56,9006 -31,9042 -2,9069 27,9082 27,9081 24,9076 37,9053 73,9017 104,9013 121,9033 144,9075 186,9117 " style="fill: white; stroke: black; stroke-width: 30" />
<polyline points="375,8954 396,8957 418,8957 433,8951 422,8942 367,8927 271,8936 224,8977 231,9025 281,9057 380,9021 481,8927 521,8843 496,8802 444,8794 403,8823 389,8886 423,8962 487,9010 555,9021 570,9018 558,9021 543,9027 548,9026 579,9023 653,8997 688,8979 695,8982 712,8985 749,8992 790,9009 799,9031 785,9053 789,9062 790,9064 820,9075 " style="fill: white; stroke: black; stroke-width: 30" />
<polyline points="893,9107 884,9108 906,9097 960,9066 995,9028 991,9009 959,8999 954,9006 959,9019 973,9057 1002,9095 1049,9135 " style="fill: white; stroke: black; stroke-width: 30" />
<polyline points="1310,8940 1264,8937 1252,8961 1247,9032 1246,9103 1232,9143 1214,9145 1183,9133 1147,9103 1130,9081 1123,9048 " style="fill: white; stroke: black; stroke-width: 30" />
<polyline points="2099,8883 2089,8879 2059,8894 2026,8948 2009,9019 2025,9075 2042,9114 2068,9121 2087,9108 2101,9093 2102,9091 2111,9100 2149,9125 2223,9155 2293,9155 2335,9125 2343,9058 2340,8992 2312,8950 2306,8934 2307,8936 2308,8941 2312,8943 2299,8950 2304,8949 2304,8950 2306,8949 2311,8948 2313,8945 2316,8945 2312,8943 2311,8944 2305,8943 2310,8944 2310,8942 2314,8943 2306,8943 2303,8944 2299,8944 2298,8945 2298,8944 2296,8944 2294,8943 2298,8944 2294,8946 2295,8948 2295,8949 2303,8950 " style="fill: white; stroke: black; stroke-width: 30" />
<polyline points="1789,9183 1778,9175 1770,9170 1781,9163 1848,9138 2020,9096 2244,9031 2454,8972 2579,8935 2594,8927 2592,8923 2579,8929 2576,8931 2582,8933 2586,8933 2586,8936 2599,8928 " style="fill: white; stroke: black; stroke-width: 30" />
<polyline points="2995,8881 2971,8879 2940,8887 2902,8927 2887,8973 2901,9017 2916,9039 2934,9047 2927,9049 2930,9047 2921,9048 2921,9049 2923,9049 2921,9051 2916,9052 2924,9052 2918,9053 2916,9054 2918,9051 2916,9053 2925,9049 2928,9047 " style="fill: white; stroke: black; stroke-width: 30" />
<polyline points="2831,8867 2833,8864 2833,8862 2859,8859 2926,8856 3013,8865 3103,8868 " style="fill: white; stroke: black; stroke-width: 30" />
<polyline points="2723,9003 2736,9003 2810,9013 2924,9029 3017,9033 " style="fill: white; stroke: black; stroke-width: 30" />
<polyline points="2880,9090 2876,9088 2871,9091 2868,9121 2867,9177 2901,9236 " style="fill: white; stroke: black; stroke-width: 30" />
<polyline points="3157,9032 3159,9026 3200,9015 3200,9028 3198,9057 3165,9111 3116,9146 3086,9158 3089,9142 3092,9098 3115,9069 3136,9072 3178,9092 3198,9127 3220,9157 3254,9165 " style="fill: white; stroke: black; stroke-width: 30" />
<polyline points="3205,8892 3182,8888 3186,8888 3226,8907 3313,8928 3376,8938 3402,8937 3394,8941 3381,8958 3353,9021 3339,9073 3338,9100 3351,9101 3353,9100 3362,9098 3369,9106 3390,9124 3422,9137 " style="fill: white; stroke: black; stroke-width: 30" />
<polyline points="3552,9078 3535,9085 3516,9095 3504,9108 3504,9126 3518,9141 " style="fill: white; stroke: black; stroke-width: 30" />
<polyline points="3630,9019 3647,8983 3639,8967 3635,8955 3634,8938 " style="fill: white; stroke: black; stroke-width: 30" />
<polyline points="3705,9121 3706,9125 3712,9117 3716,9106 3704,9088 3681,9079 3658,9085 3650,9117 3649,9165 3669,9194 3659,9220 3639,9239 3595,9250 3581,9252 3575,9252 3603,9223 " style="fill: white; stroke: black; stroke-width: 30" />
<polyline points="4013,8926 3995,8926 3972,8938 3939,8989 3905,9064 3895,9119 3887,9153 3899,9159 " style="fill: white; stroke: black; stroke-width: 30" />
<polyline points="3991,9074 3968,9072 3930,9082 3903,9106 3919,9128 3948,9157 4008,9154 4032,9138 4041,9107 4030,9103 4032,9102 4038,9112 4058,9116 4073,9114 4062,9105 4036,9102 4023,9101 4018,9115 4030,9138 4045,9157 4082,9155 4134,9135 4165,9119 4165,9122 4144,9126 4125,9134 4131,9134 4132,9137 " style="fill: white; stroke: black; stroke-width: 30" />
<polyline points="4227,8936 4217,8933 4226,8928 4226,8932 4224,8944 " style="fill: white; stroke: black; stroke-width: 30" />
<polyline points="4179,9150 4164,9140 4201,9117 4230,9115 4241,9124 4245,9133 4234,9139 4228,9143 4233,9138 4234,9141 4240,9137 4245,9138 4246,9136 4247,9137 4253,9131 4268,9113 4275,9098 4282,9088 4288,9082 4293,9078 4300,9069 4300,9068 4302,9062 4311,9057 4306,9057 4312,9053 4306,9051 4308,9047 4306,9042 4316,9029 4313,9017 4314,9015 4316,9010 4316,9012 4312,9010 " style="fill: white; stroke: black; stroke-width: 30" />
<polyline points="4248,9095 4235,9092 4240,9083 4240,9083 4256,9077 4253,9081 4257,9079 4258,9081 4266,9079 4256,9088 4259,9089 4264,9089 4258,9093 4270,9087 4272,9083 " style="fill: white; stroke: black; stroke-width: 30" />
<polyline points="4263,9044 4252,9045 4243,9043 4253,9040 4263,9042 4290,9062 4323,9074 4347,9090 4372,9093 " style="fill: white; stroke: black; stroke-width: 30" />
<polyline points="4429,9161 4416,9158 4413,9156 4434,9156 4455,9156 4472,9156 4486,9146 4493,9136 4482,9124 4454,9122 4410,9150 4391,9184 4390,9202 4401,9211 4423,9217 4475,9213 4505,9210 4527,9211 4532,9217 4542,9227 4536,9236 4540,9244 4546,9247 4548,9260 4550,9265 " style="fill: white; stroke: black; stroke-width: 30" />
<polyline points="-1346,9434 -1359,9438 -1361,9437 -1343,9437 -1286,9428 -1228,9404 -1198,9376 -1202,9366 -1218,9352 -1264,9339 -1331,9349 -1380,9372 -1376,9388 -1338,9431 -1270,9472 -1169,9486 -1077,9462 -1005,9423 -975,9397 -975,9396 -977,9399 -977,9411 -973,9443 -964,9468 -957,9465 " style="fill: white; stroke: black; stroke-width: 30" />
<polyline points="-941,9255 -976,9244 -984,9241 -988,9245 -968,9273 " style="fill: white; stroke: black; stroke-width: 30" />
<polyline points="-874,9513 -880,9520 -877,9507 -845,9460 -813,9425 -788,9425 -768,9442 -750,9471 -719,9483 -662,9476 " style="fill: white; stroke: black; stroke-width: 30" />
<polyline points="-502,9379 -514,9366 -519,9360 -533,9371 -554,9420 -554,9487 -555,9526 -563,9544 -579,9538 -606,9512 -612,9485 -589,9470 -522,9460 -447,9458 -385,9443 -364,9423 -380,9410 -420,9415 -435,9435 -424,9475 -373,9517 -260,9514 " style="fill: white; stroke: black; stroke-width: 30" />
<polyline points="-37,9195 -65,9209 -93,9272 -138,9370 -166,9446 -173,9488 -167,9489 -167,9484 -156,9464 -116,9448 -80,9438 -25,9435 33,9422 74,9410 74,9401 44,9404 -5,9411 -32,9428 -23,9435 -13,9462 16,9485 19,9494 26,9492 35,9490 39,9483 52,9484 62,9482 79,9481 80,9481 77,9484 77,9484 77,9486 75,9486 80,9486 79,9484 80,9485 80,9483 79,9484 75,9483 79,9483 79,9482 80,9482 80,9483 86,9480 " style="fill: white; stroke: black; stroke-width: 30" />
<polyline points="78,9377 76,9372 72,9369 79,9372 103,9391 121,9425 93,9473 36,9519 -5,9551 -9,9561 23,9581 101,9585 172,9572 222,9543 " style="fill: white; stroke: black; stroke-width: 30" />
<polyline points="64,9443 67,9438 92,9437 161,9443 255,9444 332,9442 362,9429 349,9417 308,9403 249,9409 235,9425 243,9454 280,9481 314,9495 341,9494 365,9490 426,9485 478,9494 508,9508 519,9519 522,9527 541,9546 " style="fill: white; stroke: black; stroke-width: 30" />
<polyline points="1440,9342 1427,9335 1400,9341 1339,9385 1277,9471 1295,9554 1368,9608 1465,9621 1552,9571 1592,9504 1580,9452 1542,9429 1525,9422 1527,9428 1534,9436 1569,9469 1605,9513 1650,9548 1706,9567 1758,9559 1794,9528 1795,9505 1791,9480 1760,9479 1720,9494 1702,9522 1731,9560 1790,9604 1859,9623 1910,9616 1910,9586 1915,9534 1906,9489 1929,9450 1964,9420 2014,9428 " style="fill: white; stroke: black; stroke-width: 30" />
<polyline points="2222,9410 2204,9398 2191,9392 2186,9395 2188,9397 2175,9408 2164,9433 2159,9444 2156,9443 2152,9442 2159,9437 2173,9433 2183,9426 2209,9420 2257,9417 2306,9437 2323,9467 2303,9506 2272,9551 2225,9575 2158,9590 2099,9586 2084,9569 2084,9562 2099,9541 2161,9509 2234,9488 2284,9500 2313,9532 2326,9564 2346,9588 2375,9604 2393,9613 2389,9620 2380,9621 2351,9625 2286,9627 2235,9629 2228,9623 2235,9617 2244,9605 2276,9577 2303,9556 2343,9541 " style="fill: white; stroke: black; stroke-width: 30" />
<polyline points="2505,9574 2511,9581 2522,9580 2556,9563 2571,9534 2563,9513 2546,9508 2528,9526 2533,9567 2549,9620 2598,9654 2632,9668 2633,9672 2595,9698 2566,9717 2554,9725 2534,9720 2499,9707 2485,9684 2487,9676 2513,9646 " style="fill: white; stroke: black; stroke-width: 30" />
<polyline points="2916,9546 2873,9532 2867,9532 2853,9554 2840,9630 2829,9700 2813,9731 2779,9741 2769,9722 2768,9688 2809,9638 2910,9603 3011,9588 3069,9593 3079,9597 3075,9598 3038,9613 2996,9646 2970,9670 2952,9686 2959,9682 2981,9674 3057,9661 3130,9664 3189,9651 3181,9647 3160,9642 3138,9645 3135,9662 3156,9689 3200,9700 3232,9693 3241,9687 3243,9693 3263,9710 " style="fill: white; stroke: black; stroke-width: 30" />
<polyline points="-3869,2069 -3847,2024 -3841,2019 -3845,2029 -3877,2040 -3919,2071 -3940,2098 -3948,2109 -3930,2151 -3890,2216 -3845,2281 -3825,2336 -3832,2375 -3840,2390 -3874,2385 -3929,2350 -3960,2321 -3982,2299 -3989,2294 -3985,2288 " style="fill: white; stroke: black; stroke-width: 30" />
<polyline points="-3571,2025 -3572,2027 -3573,2060 -3592,2166 -3615,2261 -3604,2310 -3582,2323 " style="fill: white; stroke: black; stroke-width: 30" />
<polyline points="-3675,2099 -3725,2069 -3747,2052 -3753,2047 -3748,2043 -3718,2048 -3655,2037 -3575,2042 -3508,2046 -3448,2059 " style="fill: white; stroke: black; stroke-width: 30" />
<polyline points="-3672,2145 -3679,2137 -3667,2135 -3641,2135 -3588,2127 -3531,2113 -3480,2112 " style="fill: white; stroke: black; stroke-width: 30" />
<polyline points="-3477,2142 -3480,2118 -3463,2096 -3429,2098 -3384,2140 -3350,2225 -3355,2299 -3375,2333 -3411,2342 -3455,2321 -3471,2266 -3470,2236 -3444,2212 -3400,2222 -3343,2277 -3306,2327 -3269,2358 " style="fill: white; stroke: black; stroke-width: 30" />
<polyline points="-3163,2163 -3221,2149 -3273,2164 -3308,2218 -3313,2301 -3268,2350 -3190,2347 -3107,2276 -3058,2178 -3047,2109 -3063,2096 -3085,2118 -3112,2196 -3098,2286 -3044,2327 -2990,2336 -2965,2336 -2968,2342 -2967,2366 " style="fill: white; stroke: black; stroke-width: 30" />
<polyline points="-2831,2229 -2825,2239 -2816,2266 -2816,2313 -2813,2355 -2806,2377 " style="fill: white; stroke: black; stroke-width: 30" />
<polyline points="-2829,2123 -2832,2115 -2835,2111 -2835,2109 -2833,2105 -2831,2104 " style="fill: white; stroke: black; stroke-width: 30" />
<polyline points="-2623,2276 -2648,2259 -2687,2238 -2734,2237 -2766,2257 -2781,2294 -2759,2331 -2712,2352 -2650,2335 -2598,2282 -2564,2218 -2555,2174 -2566,2155 -2580,2152 -2580,2156 -2580,2160 -2573,2168 -2568,2184 -2558,2210 -2551,2239 -2540,2268 -2524,2308 -2498,2327 -2460,2322 -2405,2266 -2356,2213 -2353,2206 -2360,2231 -2372,2286 -2372,2330 -2362,2340 -2341,2318 " style="fill: white; stroke: black; stroke-width: 30" />
<polyline points="-2348,2116 -2381,2094 -2392,2086 -2396,2081 -2390,2081 " style="fill: white; stroke: black; stroke-width: 30" />
<polyline points="-2156,2237 -2199,2217 -2251,2217 -2303,2246 -2317,2294 -2290,2342 -2233,2364 -2171,2351 -2136,2322 -2136,2304 -2152,2277 -2173,2260 -2182,2256 -2183,2259 -2184,2259 -2182,2262 -2179,2263 -2172,2267 " style="fill: white; stroke: black; stroke-width: 30" />
<polyline points="-1978,2041 -1994,2020 -2000,2018 -2001,2031 -2012,2100 -2036,2221 -2049,2296 -2046,2334 -2045,2334 -2050,2323 -2050,2296 -2046,2281 -2025,2270 -1978,2258 -1932,2247 " style="fill: white; stroke: black; stroke-width: 30" />
<polyline points="-2928,2297 -2920,2294 -2908,2288 -2895,2291 -2876,2287 -2808,2284 -2675,2275 -2490,2284 -2257,2296 -2010,2294 -1792,2264 -1670,2241 " style="fill: white; stroke: black; stroke-width: 30" />
<polyline points="-2787,2556 -2778,2547 -2778,2546 -2808,2549 -2871,2564 -2914,2588 -2914,2598 -2883,2644 -2817,2713 -2771,2790 -2762,2841 -2777,2865 -2816,2868 -2861,2852 -2905,2802 -2922,2765 -2919,2730 -2889,2702 " style="fill: white; stroke: black; stroke-width: 30" />
<polyline points="-2692,2707 -2703,2757 -2716,2812 -2729,2877 -2731,2916 -2730,2928 -2730,2923 -2732,2891 -2726,2774 -2706,2669 -2673,2612 -2640,2601 -2611,2626 -2599,2699 -2625,2770 -2663,2806 -2697,2804 -2729,2762 -2731,2727 -2720,2671 -2684,2644 -2630,2671 -2568,2703 -2494,2717 -2427,2692 -2397,2664 -2412,2640 -2469,2627 -2531,2651 -2565,2708 -2551,2766 -2483,2808 -2385,2792 " style="fill: white; stroke: black; stroke-width: 30" />
<polyline points="-2301,2605 -2318,2590 -2312,2586 -2281,2595 -2243,2619 -2229,2665 -2248,2726 -2276,2780 -2295,2812 -2294,2820 -2270,2833 -2229,2842 -2191,2834 " style="fill: white; stroke: black; stroke-width: 30" />
<polyline points="-2289,2761 -2322,2754 -2323,2748 -2308,2745 -2252,2723 -2187,2702 -2136,2682 -2125,2681 -2124,2689 -2120,2729 -2118,2773 -2112,2812 -2107,2833 -2104,2830 " style="fill: white; stroke: black; stroke-width: 30" />
<polyline points="-2137,2607 -2147,2564 -2149,2544 -2150,2542 -2144,2518 " style="fill: white; stroke: black; stroke-width: 30" />
<polyline points="-2029,2669 -2043,2671 -2036,2657 -1994,2626 -1934,2613 -1900,2642 -1905,2722 -1962,2819 -2017,2876 -2049,2890 -2053,2876 -2056,2833 -2035,2785 -2020,2782 -1969,2794 -1907,2802 -1839,2771 -1770,2711 -1747,2628 -1760,2577 -1778,2562 -1783,2568 -1794,2616 -1804,2724 -1798,2794 -1775,2843 -1741,2848 -1691,2800 -1654,2752 -1655,2750 -1666,2773 -1684,2826 -1693,2855 -1687,2860 -1658,2836 " style="fill: white; stroke: black; stroke-width: 30" />
<polyline points="-1622,2466 -1639,2449 -1638,2449 -1638,2454 -1618,2487 " style="fill: white; stroke: black; stroke-width: 30" />
<polyline points="-1460,2603 -1477,2592 -1488,2597 -1511,2638 -1521,2696 -1522,2756 -1528,2800 -1537,2817 -1552,2808 -1568,2771 -1537,2688 " style="fill: white; stroke: black; stroke-width: 30" />
<polyline points="-1363,2423 -1374,2420 -1405,2461 -1464,2591 -1513,2736 -1524,2807 -1523,2808 -1522,2798 -1516,2768 -1510,2742 -1506,2735 -1497,2733 -1436,2711 " style="fill: white; stroke: black; stroke-width: 30" />
<polyline points="-1271,2470 -1273,2468 -1274,2466 -1283,2487 -1318,2592 -1375,2726 -1414,2822 -1424,2871 -1403,2908 " style="fill: white; stroke: black; stroke-width: 30" />
<polyline points="-1421,2640 -1405,2638 -1366,2646 -1334,2654 -1297,2653 -1245,2655 " style="fill: white; stroke: black; stroke-width: 30" />
<polyline points="1609,6644 1608,6639 1593,6659 1574,6789 1556,6926 1559,7005 1572,7020 1570,7000 1556,6902 1538,6761 1519,6622 1527,6543 1560,6512 1641,6517 1733,6581 1757,6643 1705,6700 1601,6736 1509,6727 1488,6714 1511,6705 1603,6691 1717,6707 " style="fill: white; stroke: black; stroke-width: 30" />
<polyline points="1948,6669 1941,6646 1930,6614 1917,6595 1906,6595 1900,6604 1865,6684 1819,6829 1778,6943 1759,7004 1752,7018 1760,7012 1788,6939 1844,6843 1908,6798 1977,6789 2009,6804 2015,6810 2007,6813 1991,6850 1972,6902 1979,6928 2003,6914 " style="fill: white; stroke: black; stroke-width: 30" />
<polyline points="2116,6512 2085,6513 2081,6516 2088,6563 " style="fill: white; stroke: black; stroke-width: 30" />
<polyline points="2254,6821 2203,6819 2174,6826 2153,6845 2155,6872 2155,6893 2141,6900 2100,6899 2089,6886 2112,6874 2207,6841 " style="fill: white; stroke: black; stroke-width: 30" />
<polyline points="2531,6636 2510,6630 2447,6677 2372,6800 2311,6912 2287,6967 2284,6971 2301,6956 2348,6922 2391,6910 2425,6906 2456,6902 2452,6899 2434,6900 2405,6916 2406,6952 2439,6980 2497,6977 2555,6933 2583,6883 2579,6873 2578,6879 2583,6891 2609,6920 2660,6937 2708,6923 2719,6892 2702,6883 2656,6884 2634,6909 2638,6944 2675,6977 2730,6987 2780,6977 " style="fill: white; stroke: black; stroke-width: 30" />
<polyline points="2811,6908 2831,6895 2841,6901 2841,6909 2837,6911 2841,6910 2870,6894 2892,6880 2892,6876 2889,6876 2894,6872 2892,6875 2892,6876 2897,6876 2897,6876 2896,6878 2897,6875 2896,6877 2910,6879 2944,6884 " style="fill: white; stroke: black; stroke-width: 30" />
<polyline points="3573,6668 3544,6710 3496,6864 3459,6975 3445,7028 3453,7033 3457,7014 3469,6932 3463,6842 3464,6735 3496,6666 3538,6657 3592,6690 3592,6755 3561,6791 3508,6812 3432,6811 3414,6798 3420,6787 3470,6750 " style="fill: white; stroke: black; stroke-width: 30" />
<polyline points="3753,6722 3743,6720 3728,6731 3693,6817 3653,6925 3643,6998 3675,7046 3730,7065 " style="fill: white; stroke: black; stroke-width: 30" />
<polyline points="3858,6855 3868,6847 3878,6847 3898,6869 3902,6916 3876,6964 3832,6992 3793,6991 3776,6973 3774,6966 3791,6947 3826,6943 3866,6960 3908,6984 3947,7004 " style="fill: white; stroke: black; stroke-width: 30" />
<polyline points="4109,6954 4079,6945 4068,6936 4062,6936 4065,6934 4078,6928 4077,6919 4069,6902 4054,6890 4038,6889 4021,6899 4018,6932 4034,6953 4065,6963 4072,6962 4071,6963 4070,6986 4068,7046 4061,7108 4024,7168 3978,7206 3952,7214 3955,7166 4001,7024 " style="fill: white; stroke: black; stroke-width: 30" />
<polyline points="4206,6861 4198,6869 4184,6886 4177,6895 4172,6908 4178,6921 4182,6964 " style="fill: white; stroke: black; stroke-width: 30" />
<polyline points="4301,6679 4297,6666 4293,6660 4303,6655 4325,6651 4360,6663 " style="fill: white; stroke: black; stroke-width: 30" />
<polyline points="4418,6915 4375,6909 4346,6903 4341,6905 4353,6905 4393,6921 4444,6937 4448,6954 4425,6987 4364,7041 4305,7071 4284,7077 4271,7064 4276,7035 4286,6996 4303,6986 4324,6996 4383,7034 4425,7073 4460,7109 4485,7123 4506,7098 4526,7027 4543,6956 4546,6918 4550,6916 4550,6925 4571,6969 4585,7018 4595,7059 4578,7100 4529,7152 4502,7170 4527,7146 " style="fill: white; stroke: black; stroke-width: 30" />
<polyline points="4735,6770 4684,6755 4670,6755 4675,6772 4707,6827 " style="fill: white; stroke: black; stroke-width: 30" />
<polyline points="4830,7001 4783,7014 4743,7020 4743,7020 4735,7042 4734,7080 4723,7112 4703,7130 4676,7131 4657,7115 4665,7089 4726,7060 4825,7035 4859,7040 4840,7051 4812,7090 4800,7131 4826,7168 4862,7187 4865,7196 4858,7209 4858,7231 4882,7250 " style="fill: white; stroke: black; stroke-width: 30" />
<polyline points="1433,7174 1401,7175 1438,7199 1616,7264 2009,7316 2670,7348 3563,7380 4487,7462 5239,7575 " style="fill: white; stroke: black; stroke-width: 30" />
<polyline points="6403,4564 " style="fill: white; stroke: black; stroke-width: 30" />
<polyline points="-10087,11547 -10027,11587 -9967,11615 -9969,11596 -9957,11586 -9948,11564 " style="fill: white; stroke: black; stroke-width: 30" />
<polyline points="-6971,12983 " style="fill: white; stroke: black; stroke-width: 30" />
<polyline points="-5353,13477 -5358,13474 -5359,13476 -5377,13467 -5367,13464 -5393,13444 -5393,13434 -5404,13430 -5357,13456 " style="fill: white; stroke: black; stroke-width: 30" />
<polyline points="-1940,11405 -1959,11399 -1964,11391 -1970,11375 -1953,11338 -1937,11269 -1930,11191 -1935,11171 -1941,11188 -1954,11295 -1977,11430 -1978,11514 -1951,11570 -1921,11596 -1871,11595 -1845,11591 -1829,11602 -1810,11654 -1798,11723 -1766,11757 -1706,11736 -1643,11679 " style="fill: white; stroke: black; stroke-width: 30" />
<polyline points="-1325,11838 -1253,11843 -1217,11850 -1197,11848 -1111,11808 -951,11747 -808,11708 -764,11714 -813,11760 -927,11839 -973,11882 -948,11912 -818,11958 -659,12003 -541,12056 -509,12090 -502,12105 -476,12120 -424,12158 -324,12199 " style="fill: white; stroke: black; stroke-width: 30" />
<polyline points="339,3424 312,3406 303,3381 295,3383 292,3391 294,3415 312,3450 344,3514 398,3595 460,3691 521,3783 575,3870 624,3950 668,4022 705,4096 743,4167 777,4226 806,4288 837,4342 871,4397 907,4441 950,4494 989,4543 1012,4578 1034,4616 1055,4642 1073,4672 1093,4698 1116,4735 1149,4762 1170,4782 1190,4810 1205,4832 1220,4862 1239,4879 1262,4909 1293,4936 1317,4962 1331,4976 1343,4993 1351,5014 1362,5027 1374,5038 1387,5059 1405,5078 1424,5102 1437,5114 1453,5139 1471,5156 1483,5171 1499,5184 1512,5199 1526,5213 1534,5225 1536,5230 1536,5234 1537,5235 1538,5238 1540,5239 1540,5246 1544,5252 1546,5257 1544,5259 1548,5260 1548,5258 1544,5259 1541,5253 1530,5245 1514,5226 1496,5201 1470,5175 1453,5153 1429,5114 1393,5058 1345,4996 1295,4945 1248,4881 1204,4812 1145,4719 1088,4648 1038,4573 1011,4493 997,4403 972,4313 935,4225 889,4147 841,4072 811,4007 797,3942 771,3887 733,3829 688,3766 648,3725 614,3684 595,3658 569,3626 544,3598 514,3566 479,3531 448,3506 408,3466 366,3435 327,3403 304,3387 287,3374 270,3364 251,3355 223,3348 207,3341 207,3341 209,3341 211,3346 217,3350 224,3363 252,3403 292,3467 347,3537 414,3626 480,3730 560,3862 653,3989 736,4121 821,4252 920,4388 1030,4510 1122,4623 1203,4734 1261,4859 1317,4980 1387,5098 1468,5196 1548,5292 1599,5354 1624,5386 1629,5398 1631,5401 1636,5397 1637,5389 1633,5376 1632,5374 1633,5367 1631,5365 1629,5364 1631,5358 1633,5353 1626,5334 " style="fill: white; stroke: black; stroke-width: 30" />
<polyline points="1480,5299 1463,5273 1446,5225 1449,5148 1461,5097 1486,5084 1520,5113 1564,5189 1578,5261 1554,5309 1503,5310 1439,5282 1405,5239 1405,5195 1428,5158 1481,5152 1526,5180 1564,5221 1562,5256 1526,5275 1477,5264 1433,5226 1409,5182 1409,5159 1419,5151 1450,5146 1501,5150 " style="fill: white; stroke: black; stroke-width: 30" />
<polyline points="2054,5381 2057,5349 2049,5347 2032,5371 2012,5455 2003,5573 2010,5682 2031,5768 2061,5820 " style="fill: white; stroke: black; stroke-width: 30" />
<polyline points="2331,5483 2288,5449 2237,5430 2166,5435 2068,5483 2004,5554 1998,5606 2053,5669 2132,5733 2215,5778 2269,5804 " style="fill: white; stroke: black; stroke-width: 30" />
<polyline points="2606,5405 2588,5401 2574,5421 2540,5507 2484,5648 2432,5780 2417,5862 2421,5902 2435,5913 " style="fill: white; stroke: black; stroke-width: 30" />
<polyline points="2743,5516 2737,5510 2740,5513 2738,5548 2707,5647 2669,5746 2653,5802 2652,5823 2656,5826 2658,5818 2658,5798 2651,5745 2640,5663 2636,5556 2641,5455 2666,5414 2733,5392 2836,5419 2933,5496 2972,5598 2971,5678 2938,5744 2855,5808 2749,5841 2653,5835 2611,5802 2597,5763 2605,5748 2646,5724 " style="fill: white; stroke: black; stroke-width: 30" />
<polyline points="2713,5207 2713,5203 2704,5202 2696,5205 2687,5212 2678,5222 2658,5250 2629,5311 2590,5393 2542,5495 2486,5617 2448,5729 2407,5830 2386,5916 2367,5971 2353,6018 2334,6055 2324,6083 2314,6108 2306,6129 2295,6143 2286,6160 2284,6162 2287,6162 2285,6163 2283,6164 2282,6163 2286,6162 2284,6162 2288,6161 2286,6161 2287,6160 2289,6158 2292,6158 2292,6157 2297,6156 2302,6153 " style="fill: white; stroke: black; stroke-width: 30" />
<polyline points="2075,5299 2075,5286 2066,5280 2063,5283 2053,5307 2038,5390 2026,5506 2020,5614 2020,5688 2026,5724 2025,5729 2031,5730 2034,5730 " style="fill: white; stroke: black; stroke-width: 30" />
<polyline points="2217,5632 2213,5623 2213,5620 2216,5621 2214,5627 2214,5652 2213,5692 2213,5736 2212,5760 2214,5765 2219,5757 " style="fill: white; stroke: black; stroke-width: 30" />
<polyline points="2269,5522 2251,5516 2246,5514 2248,5515 2251,5516 2256,5518 2257,5518 2257,5521 " style="fill: white; stroke: black; stroke-width: 30" />
<polyline points="2428,5528 2398,5521 2372,5530 2359,5561 2340,5644 2327,5709 2325,5747 2331,5756 2353,5738 " style="fill: white; stroke: black; stroke-width: 30" />
<polyline points="2434,5542 2427,5547 2423,5574 2412,5646 2407,5714 2400,5766 2396,5795 " style="fill: white; stroke: black; stroke-width: 30" />
<polyline points="3103,5745 3116,5740 3128,5733 3169,5709 3217,5672 3243,5650 3240,5646 3217,5647 3166,5650 3112,5660 3084,5678 3090,5708 3122,5751 3173,5790 3224,5803 3269,5789 " style="fill: white; stroke: black; stroke-width: 30" />
<polyline points="3321,5652 3327,5624 3357,5602 3404,5603 3425,5619 3425,5648 3384,5695 3324,5733 3276,5748 3254,5743 3251,5723 3255,5716 3276,5715 3310,5730 3346,5747 3396,5754 3451,5733 " style="fill: white; stroke: black; stroke-width: 30" />
<polyline points="3612,5540 3620,5496 3608,5484 3598,5495 3559,5562 3513,5665 3481,5733 3465,5767 3466,5763 3470,5755 3494,5728 3540,5702 3590,5675 3634,5655 3664,5632 3694,5603 3722,5569 3738,5548 3735,5544 3717,5563 3679,5631 3654,5699 3660,5736 3692,5749 3731,5754 3747,5765 3743,5781 3749,5796 " style="fill: white; stroke: black; stroke-width: 30" />
<polyline points="-1424,7976 " style="fill: white; stroke: black; stroke-width: 30" />
<polyline points="-1431,1028 -1437,1017 -1442,1004 -1451,987 -1482,978 -1554,980 -1634,995 -1673,1024 -1692,1059 -1682,1124 -1636,1203 -1572,1278 -1532,1330 -1526,1364 -1557,1388 -1617,1388 -1673,1369 -1698,1342 -1702,1328 -1682,1296 -1638,1260 " style="fill: white; stroke: black; stroke-width: 30" />
<polyline points="-1436,1144 -1438,1141 -1444,1144 -1449,1157 -1459,1170 -1476,1216 -1478,1270 -1465,1303 -1449,1311 -1430,1313 -1391,1291 -1346,1234 -1313,1196 -1303,1193 -1304,1203 -1311,1246 -1311,1306 -1303,1337 -1284,1341 -1243,1328 -1206,1291 " style="fill: white; stroke: black; stroke-width: 30" />
<polyline points="-1095,1173 -1110,1173 -1114,1180 -1122,1215 -1141,1279 -1158,1333 -1146,1360 -1131,1355 -1095,1328 -1054,1271 -1021,1230 -1013,1230 -1013,1241 -1017,1273 -1016,1319 -997,1349 -961,1352 -913,1326 -881,1282 -880,1266 -882,1263 -882,1280 -889,1304 -900,1366 -911,1417 -914,1458 -910,1471 -905,1477 -905,1474 -907,1470 -905,1465 -905,1452 -900,1397 -889,1295 -863,1221 -833,1179 -795,1169 -760,1199 -744,1253 -750,1309 -772,1342 -819,1353 -865,1343 -895,1325 -898,1314 -878,1326 -817,1340 -739,1330 -663,1312 -624,1285 -628,1267 -654,1263 -690,1280 -697,1325 -675,1383 -637,1431 -595,1437 -561,1402 -538,1328 -535,1274 -534,1249 -526,1247 -487,1254 -427,1281 -383,1302 " style="fill: white; stroke: black; stroke-width: 30" />
<polyline points="-163,932 -161,924 -167,927 -171,941 -175,965 -186,1043 -192,1126 -191,1187 -181,1218 -178,1223 -178,1216 -181,1205 -181,1185 -177,1158 -165,1145 -148,1161 -126,1195 -113,1239 -115,1290 -133,1349 -161,1394 -192,1424 -216,1425 -230,1404 -238,1342 -232,1308 -205,1289 -157,1302 -116,1348 -111,1401 -139,1439 -176,1448 -202,1426 -214,1374 -202,1288 " style="fill: white; stroke: black; stroke-width: 30" />
<polyline points="-6,819 -9,828 -14,848 -23,926 -29,1009 -25,1075 -15,1111 " style="fill: white; stroke: black; stroke-width: 30" />
<polyline points="-8,1385 -25,1402 -29,1394 -30,1361 -18,1321 16,1297 52,1302 71,1345 53,1401 9,1448 -25,1449 -41,1423 -33,1353 -1,1279 " style="fill: white; stroke: black; stroke-width: 30" />
<polyline points="-1041,10486 -1077,10505 -1075,10578 -1068,10694 -1076,10801 -1075,10873 -1075,10898 -1070,10886 -1078,10822 -1098,10695 -1078,10532 -1065,10443 -1063,10425 -1027,10444 -976,10523 -940,10618 -943,10677 -975,10687 -1038,10666 -1092,10611 -1105,10561 " style="fill: white; stroke: black; stroke-width: 30" />
<polyline points="-931,10965 -930,10977 -942,10979 -948,10975 -950,10944 -925,10853 -911,10748 -901,10704 -885,10690 -865,10711 -829,10780 -794,10837 -761,10861 -767,10862 -778,10846 " style="fill: white; stroke: black; stroke-width: 30" />
<polyline points="-640,10769 -694,10786 -737,10814 -746,10855 -712,10909 -673,10941 -612,10939 -577,10901 -577,10853 -610,10815 -643,10797 -652,10798 -648,10800 -628,10809 -608,10818 -598,10824 -598,10824 -606,10825 -596,10820 -597,10817 -582,10803 -538,10776 -529,10761 -523,10762 -515,10769 -486,10793 -470,10810 -442,10827 -455,10833 -458,10860 -479,10925 -505,11032 -520,11150 -555,11253 -580,11319 -610,11332 -628,11257 -639,11044 " style="fill: white; stroke: black; stroke-width: 30" />
<polyline points="-540,10537 -512,10488 -510,10483 -516,10484 -516,10485 -496,10487 -472,10487 -443,10500 " style="fill: white; stroke: black; stroke-width: 30" />
<polyline points="-306,10881 -262,10841 -196,10795 -161,10765 -193,10770 -280,10808 -349,10856 -350,10903 -285,10945 -159,10934 " style="fill: white; stroke: black; stroke-width: 30" />
<polyline points="179,10571 129,10561 64,10586 -4,10675 -51,10796 -33,10889 -2,10919 51,10892 106,10826 146,10776 119,10751 71,10750 22,10772 -23,10837 -25,10888 16,10907 115,10877 248,10789 388,10643 476,10535 453,10510 392,10543 290,10683 211,10854 198,10945 192,10966 200,10926 227,10855 245,10830 270,10829 323,10853 386,10876 " style="fill: white; stroke: black; stroke-width: 30" />
<polyline points="1054,10668 1066,10638 1063,10651 1027,10764 991,10943 984,11059 993,11080 1019,11049 1063,10928 1076,10784 1058,10689 1050,10663 1040,10672 1058,10704 1061,10778 1093,10851 1127,10899 1167,10925 1245,10905 1322,10868 1364,10847 1359,10862 1356,10920 1334,10987 1331,11034 1366,11054 1427,11045 " style="fill: white; stroke: black; stroke-width: 30" />
<polyline points="1550,10855 1528,10835 1555,10816 1607,10838 1631,10905 1607,11001 1522,11086 1432,11118 1414,11099 1418,11063 1481,11003 1539,10991 1589,11024 1618,11077 1665,11109 1733,11112 1803,11086 1847,11062 1861,11044 1861,11041 1863,11042 1850,11055 1864,11076 1886,11103 1930,11118 " style="fill: white; stroke: black; stroke-width: 30" />
<polyline points="2080,10870 2081,10865 2119,10884 2133,10948 2106,11032 2060,11093 2002,11115 1973,11101 1967,11066 1981,11034 1999,11023 2020,11043 2054,11084 " style="fill: white; stroke: black; stroke-width: 30" />
<polyline points="2457,11021 2400,10972 2349,10931 2333,10925 2341,10934 2383,10986 2383,11080 2354,11187 2325,11277 2292,11337 2266,11346 2295,11317 2345,11219 2480,11075 2583,10993 2637,10972 2645,10980 2614,11018 2581,11074 2566,11106 2580,11115 2620,11106 2671,11099 2678,11108 2666,11128 2654,11154 2672,11172 2707,11182 2721,11184 2713,11190 2709,11193 2711,11202 2747,11195 2802,11168 2898,11110 2989,11076 3022,11069 3000,11066 2937,11062 2875,11073 2862,11093 2884,11128 2920,11167 2937,11209 2926,11236 2919,11248 2932,11243 2978,11230 3011,11232 3027,11240 3015,11256 " style="fill: white; stroke: black; stroke-width: 30" />
<polyline points="3280,10687 3263,10723 3219,10888 3157,11070 3119,11186 3108,11215 3140,11186 3181,11131 3215,11058 3209,11030 3209,11022 3228,11024 3303,11039 3426,11060 " style="fill: white; stroke: black; stroke-width: 30" />
<polyline points="-107,11554 -109,11551 -113,11543 -102,11535 -100,11531 -109,11537 -118,11543 -89,11561 -96,11570 -87,11575 -87,11576 -99,11610 -110,11701 -111,11785 -85,11824 -53,11813 " style="fill: white; stroke: black; stroke-width: 30" />
<polyline points="-120,11348 -117,11258 -89,11219 -36,11231 -19,11303 -41,11385 -97,11430 -142,11430 -144,11405 -135,11357 -81,11310 " style="fill: white; stroke: black; stroke-width: 30" />
<polyline points="144,11585 102,11587 70,11601 70,11642 86,11709 86,11755 73,11760 37,11738 35,11670 108,11553 216,11458 313,11384 370,11336 378,11328 359,11335 312,11403 247,11528 221,11625 219,11648 225,11628 244,11562 243,11536 245,11531 274,11537 324,11548 388,11568 " style="fill: white; stroke: black; stroke-width: 30" />
<polyline points="1005,11782 1003,11783 1038,11795 1184,11813 1493,11823 1837,11836 2121,11840 2281,11852 2352,11844 " style="fill: white; stroke: black; stroke-width: 30" />
<polyline points="2068,11601 2090,11599 2231,11649 2395,11752 2446,11815 2371,11845 2266,11863 2174,11900 " style="fill: white; stroke: black; stroke-width: 30" />
<polyline points="3209,11742 3170,11705 3090,11687 2985,11713 2886,11793 2843,11876 2868,11941 2928,11970 3014,11946 3091,11891 3100,11859 3092,11857 3093,11861 3069,11891 3018,11935 2955,11977 2883,12004 2823,12010 2792,11993 2805,11973 2815,11933 2852,11883 " style="fill: white; stroke: black; stroke-width: 30" />
<polyline points="3023,11923 3015,11901 3016,11894 3035,11933 3086,12056 3140,12223 3117,12340 3023,12375 2852,12343 2729,12281 2708,12221 " style="fill: white; stroke: black; stroke-width: 30" />
<polyline points="3446,11955 3421,11887 3418,11848 3435,11847 3477,11896 3515,11986 3513,12050 3449,12066 3312,12029 3207,11956 3188,11900 3270,11812 " style="fill: white; stroke: black; stroke-width: 30" />
<polyline points="3940,11603 3871,11642 3790,11765 3734,11937 3721,12038 3732,12074 3765,12054 3825,11989 3859,11956 3873,11959 3852,12001 3807,12057 3794,12081 3800,12085 3823,12082 3856,12080 3907,12066 " style="fill: white; stroke: black; stroke-width: 30" />
<polyline points="-1857,12438 -1877,12428 -1920,12420 -1966,12437 -1995,12470 -1976,12520 -1901,12589 -1827,12650 -1814,12682 -1854,12707 -1907,12725 -1949,12725 -1960,12704 -1911,12637 " style="fill: white; stroke: black; stroke-width: 30" />
<polyline points="-1721,12558 -1724,12577 -1732,12619 -1725,12661 -1717,12676 -1697,12670 -1685,12633 -1676,12584 -1699,12555 -1738,12542 -1760,12543 -1746,12547 -1691,12572 " style="fill: white; stroke: black; stroke-width: 30" />
<polyline points="-687,12475 -722,12465 -760,12472 -799,12517 -810,12590 -787,12679 -713,12724 -621,12721 -518,12673 -488,12639 -481,12629 -488,12629 -485,12623 -418,12606 -351,12586 -316,12591 -302,12610 -314,12645 -296,12673 -270,12682 -233,12643 -211,12566 -200,12484 -260,12412 -294,12361 -317,12350 -298,12353 " style="fill: white; stroke: black; stroke-width: 30" />
<polyline points="-33,12587 0,12656 28,12710 64,12731 81,12720 74,12678 28,12630 -10,12620 -17,12628 2,12662 64,12689 164,12680 302,12629 459,12564 538,12521 533,12519 495,12527 451,12554 441,12600 456,12676 514,12750 629,12792 759,12787 900,12757 1010,12739 1062,12744 1091,12755 1136,12765 1248,12760 1409,12765 " style="fill: white; stroke: black; stroke-width: 30" />
<polyline points="-4351,4738 -4373,4774 -4373,4791 -4352,4796 -4308,4777 -4243,4728 -4177,4663 -4137,4620 -4125,4611 -4118,4626 -4120,4686 -4141,4794 -4161,4879 -4155,4934 " style="fill: white; stroke: black; stroke-width: 30" />
<polyline points="-3908,4539 -3915,4530 -3919,4533 -3931,4557 -3956,4662 -4003,4827 -4048,4971 -4055,5041 -4026,5052 " style="fill: white; stroke: black; stroke-width: 30" />
<polyline points="-3971,4862 -3958,4832 -3912,4790 -3844,4767 -3793,4780 -3776,4818 -3813,4889 -3887,4969 -3927,5017 -3924,5022 -3890,5026 -3831,5029 -3779,5017 " style="fill: white; stroke: black; stroke-width: 30" />
<polyline points="-3291,4721 -3291,4696 -3295,4693 -3309,4736 -3331,4856 -3341,4986 -3339,5051 -3332,5075 -3330,5058 -3341,4958 -3343,4814 -3323,4707 -3298,4664 -3290,4670 -3285,4703 -3291,4756 -3308,4795 -3331,4817 -3347,4835 -3341,4854 -3309,4878 -3265,4904 -3226,4925 -3219,4943 -3227,4954 -3262,4979 -3306,5001 -3330,5009 -3336,5006 -3331,5003 -3329,4997 -3330,4976 " style="fill: white; stroke: black; stroke-width: 30" />
<polyline points="-3193,5004 -3183,4993 -3153,4965 -3117,4932 -3097,4899 -3109,4876 -3135,4870 -3170,4897 -3183,4946 -3165,4991 -3117,5007 -3069,4991 -3046,4947 -3046,4917 -3057,4883 -3058,4880 -3041,4887 -3003,4909 -2964,4937 " style="fill: white; stroke: black; stroke-width: 30" />
<polyline points="-2935,4990 -2944,4993 -2946,4980 -2933,4960 -2919,4937 -2903,4929 -2897,4929 -2882,4957 -2862,4987 -2829,5007 -2770,4991 -2716,4952 -2703,4931 -2734,4938 -2787,4966 -2818,5001 -2802,5028 -2745,5052 -2671,5051 -2627,5035 -2626,5012 -2632,4985 -2634,4958 -2625,4940 -2600,4926 -2571,4936 -2536,4960 " style="fill: white; stroke: black; stroke-width: 30" />
<polyline points="-4301,5406 -4306,5416 -4296,5422 -4281,5423 -4228,5413 -4073,5403 -3824,5375 -3518,5326 -3201,5275 -2897,5243 -2685,5227 -2573,5229 -2559,5239 -2594,5260 -2642,5263 " style="fill: white; stroke: black; stroke-width: 30" />

</svg>