<?xml version="1.0" standalone="no"?>
<!DOCTYPE svg PUBLIC "-//W3C//DTD SVG 1.1//EN" "http://www.w3.org/Graphics/SVG/1.1/DTD/svg11.dtd">
<svg width="210mm" height="297mm" viewBox="-7000 500 14000 20000" version="1.1" xmlns="http://www.w3.org/2000/svg">

<polyline points="-1734,1914 -1740,1921 -1741,1928 -1739,1949 -1738,2023 -1725,2139 -1708,2227 -1685,2280 " style="fill: white; stroke: black; stroke-width: 30" />
<polyline points="-2011,1932 -2036,1927 -2030,1926 -1998,1929 -1930,1929 -1828,1932 -1678,1942 -1528,1958 " style="fill: white; stroke: black; stroke-width: 30" />
<polyline points="-1514,1928 -1514,1923 -1514,1920 -1517,1931 -1534,2036 -1546,2189 -1534,2262 -1509,2284 -1462,2261 -1393,2191 -1333,2142 -1300,2146 -1292,2190 -1292,2249 -1279,2263 -1245,2244 " style="fill: white; stroke: black; stroke-width: 30" />
<polyline points="-1139,2216 -1141,2228 -1127,2223 -1103,2203 -1069,2154 -1048,2095 -1052,2064 -1076,2053 -1120,2063 -1136,2087 -1117,2133 -1061,2189 -994,2223 -944,2234 " style="fill: white; stroke: black; stroke-width: 30" />
<polyline points="-151,1863 -159,1872 -169,1903 -172,1975 -161,2069 -128,2165 -81,2248 " style="fill: white; stroke: black; stroke-width: 30" />
<polyline points="-403,1866 -428,1859 -414,1858 -357,1850 -240,1846 -87,1857 95,1869 " style="fill: white; stroke: black; stroke-width: 30" />
<polyline points="39,2130 52,2104 50,2095 40,2094 22,2106 2,2155 -7,2233 23,2289 97,2312 197,2282 263,2220 267,2200 258,2202 253,2215 259,2252 294,2289 " style="fill: white; stroke: black; stroke-width: 30" />
<polyline points="397,2299 384,2286 390,2253 415,2220 456,2186 493,2179 510,2185 518,2213 517,2270 507,2335 523,2360 " style="fill: white; stroke: black; stroke-width: 30" />
<polyline points="582,2339 583,2327 621,2281 678,2228 731,2187 752,2184 756,2195 765,2246 771,2300 779,2331 785,2337 817,2322 874,2289 933,2266 968,2249 975,2226 968,2181 944,2152 915,2149 908,2165 918,2217 974,2289 1085,2344 1230,2356 1385,2320 1503,2248 1545,2174 1538,2140 1513,2119 1464,2116 1413,2132 1384,2181 1376,2247 1409,2330 1517,2394 1715,2393 1910,2343 2031,2290 " style="fill: white; stroke: black; stroke-width: 30" />
<polyline points="-1450,2550 -1456,2549 -1469,2567 -1508,2679 -1557,2876 -1566,3053 -1527,3129 -1471,3154 -1414,3147 -1378,3133 -1351,3116 -1317,3098 -1278,3078 -1262,3071 -1251,3064 -1243,3060 -1237,3057 -1237,3058 -1237,3057 -1236,3058 -1237,3058 -1236,3059 -1232,3053 " style="fill: white; stroke: black; stroke-width: 30" />
<polyline points="-1259,2927 -1258,2936 -1237,2951 -1197,2979 -1153,3009 -1133,3028 -1136,3033 -1152,3043 -1195,3076 -1220,3100 -1217,3102 -1194,3106 " style="fill: white; stroke: black; stroke-width: 30" />
<polyline points="3040,2242 3021,2231 3014,2224 3012,2226 3022,2225 3038,2228 3076,2232 3151,2242 3224,2247 3274,2250 3298,2246 3303,2245 3298,2248 3299,2248 3297,2249 3303,2247 3302,2253 " style="fill: white; stroke: black; stroke-width: 30" />
<polyline points="3137,2264 3124,2253 3117,2252 3117,2256 3122,2268 3130,2300 3153,2348 3181,2403 3212,2478 3237,2528 3248,2570 3261,2591 3261,2601 3262,2606 3261,2605 3265,2602 3266,2598 3265,2599 3265,2595 3270,2591 3304,2556 3374,2492 3445,2418 3478,2360 3486,2330 3491,2305 3493,2301 3496,2304 3496,2307 3496,2309 3495,2308 3495,2307 3493,2306 3494,2305 3494,2307 3497,2306 3501,2304 3503,2305 3505,2306 " style="fill: white; stroke: black; stroke-width: 30" />
<polyline points="3348,2293 3337,2280 3346,2274 3372,2286 3389,2291 3404,2295 3432,2299 3478,2302 3511,2309 3524,2308 3525,2308 3524,2313 3527,2311 3528,2312 3530,2310 3528,2315 3531,2313 3533,2313 3534,2316 3544,2319 3557,2321 3563,2322 3561,2322 3563,2322 3565,2319 3568,2322 3585,2319 3612,2321 3625,2319 3628,2318 3624,2318 3625,2319 3624,2319 3626,2318 3625,2316 3625,2319 3627,2316 3627,2321 3633,2317 " style="fill: white; stroke: black; stroke-width: 30" />
<polyline points="3788,2264 3782,2260 3777,2260 3777,2256 3766,2261 3758,2277 3748,2313 3745,2371 3735,2435 3735,2477 3732,2498 3734,2515 3734,2517 3734,2518 3736,2515 3739,2516 3740,2514 3744,2514 3745,2518 " style="fill: white; stroke: black; stroke-width: 30" />
<polyline points="3609,2712 3579,2674 3569,2644 3582,2634 3614,2636 3657,2664 3683,2714 3679,2751 3654,2768 3627,2767 3614,2747 3621,2726 3635,2701 3658,2681 " style="fill: white; stroke: black; stroke-width: 30" />
<polyline points="316,4192 315,4163 290,4128 237,4090 156,4071 71,4096 34,4128 45,4172 105,4220 194,4252 277,4258 337,4243 357,4231 357,4229 352,4226 344,4222 326,4203 313,4193 308,4188 307,4189 309,4189 309,4191 310,4191 312,4193 316,4195 " style="fill: white; stroke: black; stroke-width: 30" />
<polyline points="201,4290 203,4285 207,4283 206,4289 204,4302 200,4357 192,4422 194,4461 205,4489 223,4503 " style="fill: white; stroke: black; stroke-width: 30" />
<polyline points="53,4349 13,4346 1,4347 6,4350 39,4352 111,4360 211,4367 307,4372 364,4373 384,4373 " style="fill: white; stroke: black; stroke-width: 30" />
<polyline points="455,4218 450,4215 454,4210 460,4207 460,4206 461,4207 475,4202 504,4201 554,4210 626,4247 719,4306 831,4392 944,4475 1039,4573 1101,4658 1125,4745 1117,4834 1073,4933 988,5024 852,5117 669,5204 459,5289 223,5360 -30,5412 -284,5436 -504,5422 -673,5354 -786,5252 -841,5115 -828,4965 -738,4793 -566,4621 -326,4446 -39,4300 " style="fill: white; stroke: black; stroke-width: 30" />
<polyline points="1492,4364 1492,4337 1463,4323 1400,4315 1319,4328 1242,4348 1213,4363 1219,4373 1253,4415 1311,4470 1375,4504 1440,4508 " style="fill: white; stroke: black; stroke-width: 30" />
<polyline points="1554,4454 1543,4454 1536,4450 1535,4450 1538,4447 " style="fill: white; stroke: black; stroke-width: 30" />
<polyline points="882,4230 882,4233 887,4237 891,4245 892,4252 888,4279 883,4324 886,4373 897,4401 910,4412 923,4419 936,4409 948,4375 953,4297 945,4235 937,4197 931,4172 928,4164 928,4165 929,4171 930,4179 941,4198 955,4216 990,4225 1036,4217 1064,4207 1080,4193 1081,4193 1080,4192 1081,4193 1081,4196 1078,4209 1077,4244 1074,4294 1076,4326 1085,4361 1101,4395 1122,4429 " style="fill: white; stroke: black; stroke-width: 30" />
<polyline points="1075,4322 1069,4323 1072,4321 1075,4320 1083,4318 1095,4318 1130,4315 " style="fill: white; stroke: black; stroke-width: 30" />
<polyline points="1591,4395 1575,4396 1561,4394 1551,4389 1558,4377 1578,4354 1617,4333 1658,4341 1687,4371 1692,4408 1671,4438 1626,4459 1575,4456 1542,4441 1524,4419 1529,4408 1546,4382 1583,4345 " style="fill: white; stroke: black; stroke-width: 30" />
<polyline points="1761,4458 1724,4468 1718,4472 1729,4474 1749,4465 1769,4449 1779,4435 1787,4421 1797,4411 1809,4409 1815,4412 1814,4423 1812,4434 1816,4443 1833,4444 1877,4434 1932,4413 1978,4407 1994,4415 2001,4433 2002,4448 2002,4463 1999,4480 2003,4488 " style="fill: white; stroke: black; stroke-width: 30" />
<polyline points="1780,3215 1785,3174 1764,3140 1718,3109 1633,3103 1490,3149 1310,3249 1176,3371 1134,3481 1172,3589 1275,3684 1422,3738 1575,3738 1732,3678 1861,3567 1928,3456 1926,3377 1901,3317 1869,3273 1848,3251 1834,3238 1834,3234 1837,3232 1839,3233 1839,3233 1841,3235 1842,3235 1845,3237 1848,3238 1858,3243 " style="fill: white; stroke: black; stroke-width: 30" />
<polyline points="1868,3258 1852,3265 1851,3262 1856,3263 1876,3253 1903,3251 1969,3221 2102,3150 2219,3083 2288,3047 2306,3035 2306,3038 2307,3037 2308,3039 2307,3041 2302,3046 " style="fill: white; stroke: black; stroke-width: 30" />
<polyline points="2112,3028 2109,3022 2148,3010 2253,2987 2395,2966 2492,2966 2522,2969 2522,2970 2512,2975 2497,3000 2442,3081 2403,3157 2373,3240 2374,3298 " style="fill: white; stroke: black; stroke-width: 30" />
<polyline points="1158,3496 1123,3461 1070,3440 986,3432 867,3434 718,3450 557,3485 365,3547 150,3635 -65,3739 -270,3852 -444,3971 -611,4105 -768,4266 -916,4431 -1036,4587 -1116,4714 -1166,4843 -1189,4974 -1183,5107 -1160,5227 -1119,5347 -1060,5470 -997,5578 -934,5669 -853,5765 -737,5845 -590,5912 -416,5960 -218,5982 -6,5982 230,5970 478,5933 733,5865 996,5773 1272,5674 1543,5545 1821,5397 2087,5249 2334,5120 2546,4992 2719,4865 2834,4750 2904,4643 2922,4565 2913,4484 2893,4405 2865,4318 2811,4234 2736,4167 2641,4095 2550,4031 2461,3961 2364,3901 2272,3848 2201,3816 2149,3787 2112,3758 2075,3737 2038,3726 2015,3724 2017,3728 2044,3730 " style="fill: white; stroke: black; stroke-width: 30" />
<polyline points="371,5445 361,5451 356,5482 339,5552 302,5750 256,6177 229,6596 199,6765 194,6860 191,6893 198,6896 198,6901 194,6903 198,6907 198,6907 198,6907 198,6907 195,6908 197,6908 199,6910 209,6897 " style="fill: white; stroke: black; stroke-width: 30" />
<polyline points="589,7138 570,7116 555,7087 534,7055 482,7018 393,7003 267,7016 124,7070 -12,7155 -102,7239 -144,7329 -154,7416 -132,7504 -83,7601 -9,7708 93,7788 207,7844 341,7891 456,7905 553,7901 639,7865 703,7811 746,7745 773,7679 784,7631 798,7574 803,7519 802,7458 793,7388 783,7333 758,7283 722,7244 686,7212 638,7174 594,7149 577,7137 575,7134 578,7134 584,7135 585,7142 " style="fill: white; stroke: black; stroke-width: 30" />
<polyline points="600,7187 578,7170 582,7137 628,7079 708,7022 772,7010 805,7027 813,7073 800,7133 761,7181 696,7198 615,7181 559,7144 537,7112 538,7097 559,7084 " style="fill: white; stroke: black; stroke-width: 30" />
<polyline points="824,7069 812,7054 823,7037 869,7010 964,6970 1054,6935 1108,6904 1113,6899 1088,6893 " style="fill: white; stroke: black; stroke-width: 30" />
<polyline points="997,6847 1022,6851 1082,6853 1156,6854 1194,6853 1194,6854 1177,6865 1130,6931 1102,7003 1100,7080 " style="fill: white; stroke: black; stroke-width: 30" />
<polyline points="382,8124 377,8120 372,8126 368,8160 363,8261 355,8351 367,8391 373,8393 366,8384 358,8340 355,8238 367,8148 371,8120 388,8101 409,8091 450,8099 509,8120 551,8143 551,8149 511,8159 431,8179 393,8200 401,8216 451,8289 490,8343 482,8371 440,8383 377,8378 343,8351 345,8324 357,8305 393,8298 447,8301 522,8322 635,8320 745,8289 818,8245 813,8218 748,8188 658,8200 602,8231 609,8263 691,8320 828,8315 932,8268 965,8226 957,8215 923,8224 883,8253 866,8311 889,8339 914,8353 969,8339 1002,8328 994,8330 987,8342 994,8356 1027,8373 " style="fill: white; stroke: black; stroke-width: 30" />
<polyline points="1257,8035 1210,8097 1145,8221 1106,8331 1098,8387 1093,8392 1089,8377 1101,8341 1104,8331 1115,8329 1170,8322 1257,8308 1331,8278 1358,8241 1314,8200 1238,8198 1208,8211 1242,8258 1323,8339 1451,8381 " style="fill: white; stroke: black; stroke-width: 30" />
<polyline points="2560,6250 2542,6254 2520,6285 2503,6376 2495,6449 2500,6481 2507,6481 2525,6473 2542,6456 2561,6447 2578,6445 2607,6448 2630,6449 2641,6448 2648,6447 2650,6449 2654,6451 2653,6457 2649,6459 2647,6465 2652,6477 2663,6498 2692,6504 2715,6500 2719,6497 2715,6500 " style="fill: white; stroke: black; stroke-width: 30" />
<polyline points="2921,6381 2943,6346 2967,6306 2970,6270 2941,6249 2906,6234 2877,6239 2844,6303 2807,6437 2781,6558 2768,6635 2776,6656 2788,6642 2811,6585 2835,6512 2842,6484 2844,6484 2854,6484 2882,6479 2925,6471 2976,6456 3004,6450 3012,6445 3003,6444 2985,6441 2978,6438 2974,6437 2967,6442 2956,6467 2964,6501 2980,6523 3001,6535 3029,6530 3046,6518 3058,6489 3053,6464 3038,6450 3038,6452 3047,6457 3072,6485 3121,6514 " style="fill: white; stroke: black; stroke-width: 30" />
<polyline points="3177,6553 3180,6544 3188,6509 3210,6473 3233,6446 3235,6445 3241,6445 3244,6452 3264,6466 3289,6478 " style="fill: white; stroke: black; stroke-width: 30" />
<polyline points="3355,6482 3345,6483 3339,6482 3345,6481 3344,6479 3344,6481 3344,6479 3345,6481 3345,6480 3345,6480 3345,6477 3353,6472 3357,6467 3385,6449 3422,6426 3449,6422 3452,6427 3454,6443 3443,6474 3447,6482 3456,6483 3486,6483 3503,6484 3504,6492 3506,6497 3531,6508 " style="fill: white; stroke: black; stroke-width: 30" />
<polyline points="3633,6367 3628,6369 3636,6377 3649,6396 3659,6411 3676,6426 3686,6438 3696,6459 3688,6492 3674,6530 3635,6567 3594,6582 3571,6577 3566,6564 3576,6548 3596,6538 3616,6535 3649,6543 3678,6557 3717,6566 " style="fill: white; stroke: black; stroke-width: 30" />
<polyline points="3968,6265 3960,6265 3957,6264 3939,6279 3892,6330 3835,6408 3800,6486 3795,6540 3800,6563 3801,6558 3805,6514 3810,6473 3809,6464 3823,6466 3891,6463 3972,6466 4026,6468 4034,6472 4022,6478 4007,6495 3993,6514 3981,6538 3975,6547 3978,6535 " style="fill: white; stroke: black; stroke-width: 30" />
<polyline points="4163,6266 4150,6264 4152,6262 4159,6266 " style="fill: white; stroke: black; stroke-width: 30" />
<polyline points="4267,6317 4259,6317 4227,6334 4167,6396 4095,6480 4054,6547 4053,6579 4085,6575 4145,6527 4203,6470 4227,6447 4231,6449 4226,6455 4212,6465 4190,6471 4156,6479 4136,6479 4127,6484 4122,6488 4122,6498 4129,6506 4143,6526 4166,6544 4189,6559 4217,6567 4247,6569 4269,6558 " style="fill: white; stroke: black; stroke-width: 30" />
<polyline points="4267,6527 4266,6531 4278,6536 4316,6535 4352,6533 4360,6528 4360,6512 4349,6501 4327,6507 4312,6527 4300,6558 4309,6579 4324,6587 4328,6592 4358,6577 4404,6556 4462,6516 4490,6492 4496,6479 4500,6475 4499,6477 4499,6480 4497,6483 4504,6493 " style="fill: white; stroke: black; stroke-width: 30" />
<polyline points="4751,6180 4750,6158 4770,6143 4813,6131 4846,6130 4867,6145 4870,6158 4868,6167 4843,6185 4781,6221 4752,6236 4746,6243 4749,6244 4751,6249 4754,6248 4767,6244 4773,6246 4800,6251 4832,6266 4876,6271 4889,6274 4904,6274 4921,6271 4915,6286 4934,6283 4969,6296 " style="fill: white; stroke: black; stroke-width: 30" />
<polyline points="2737,7001 2707,6993 2658,6989 2578,7002 2506,7022 2475,7049 2485,7106 2526,7202 2556,7267 2556,7284 2532,7292 2502,7288 2470,7274 2450,7256 2442,7245 2439,7246 2453,7249 " style="fill: white; stroke: black; stroke-width: 30" />
<polyline points="2813,7162 2756,7139 2704,7131 2662,7157 2651,7204 2686,7247 2759,7260 2849,7225 2931,7154 2969,7099 2967,7078 2960,7076 2950,7085 2924,7131 2897,7198 2910,7230 2932,7244 2969,7246 2990,7249 2993,7254 3006,7261 " style="fill: white; stroke: black; stroke-width: 30" />
<polyline points="3176,7210 3199,7186 3225,7177 3255,7187 3263,7219 3251,7261 3210,7295 3151,7318 3098,7315 3087,7302 3107,7281 3145,7266 3178,7270 3207,7292 3239,7306 3310,7298 3406,7258 3501,7184 3541,7105 3531,7077 3515,7070 3499,7080 3447,7133 3406,7203 3405,7260 3418,7293 3468,7308 " style="fill: white; stroke: black; stroke-width: 30" />
<polyline points="3717,7032 3711,7024 3702,7036 3657,7120 3585,7231 3548,7316 3536,7356 3536,7358 3541,7326 3557,7273 3559,7256 3577,7246 3590,7246 3616,7246 3625,7249 3632,7260 " style="fill: white; stroke: black; stroke-width: 30" />
<polyline points="3697,7185 3715,7168 3743,7171 3772,7192 3774,7216 3752,7248 3707,7283 3671,7307 3655,7310 3662,7305 3672,7293 3707,7267 3731,7257 3750,7256 3766,7268 3770,7301 3765,7338 3771,7358 3780,7368 3810,7357 3840,7326 3879,7283 3907,7253 3930,7240 3964,7234 3975,7250 3970,7274 3953,7315 3937,7353 3952,7367 3982,7360 " style="fill: white; stroke: black; stroke-width: 30" />
<polyline points="4199,7097 4206,7098 4197,7102 4177,7118 4129,7167 4073,7236 4056,7295 4065,7339 4107,7360 4161,7360 " style="fill: white; stroke: black; stroke-width: 30" />
<polyline points="4218,7183 4220,7178 4240,7180 4262,7225 4262,7288 4232,7338 4185,7366 4152,7365 4152,7341 4164,7312 4194,7292 4200,7298 4207,7318 4232,7349 4246,7374 " style="fill: white; stroke: black; stroke-width: 30" />
<polyline points="4363,7338 4377,7307 4403,7269 4418,7248 4397,7245 4360,7253 4332,7271 4325,7296 4334,7315 4338,7332 4338,7352 4331,7399 4305,7466 4272,7515 4246,7530 4214,7526 4206,7495 4210,7457 4299,7377 4393,7338 4469,7319 4521,7305 4519,7297 4491,7293 4459,7299 4441,7314 4438,7338 4446,7355 4468,7355 4517,7338 4589,7302 4625,7291 4621,7298 4616,7320 4596,7350 4583,7366 4577,7378 " style="fill: white; stroke: black; stroke-width: 30" />
<polyline points="4911,7000 4931,6977 4966,6969 4999,6972 5019,6986 5051,7015 5062,7041 5046,7068 4980,7108 4881,7141 4858,7148 4869,7155 4900,7170 4960,7181 5008,7189 5065,7205 5134,7216 " style="fill: white; stroke: black; stroke-width: 30" />
<polyline points="-3271,9019 -3259,9004 -3259,9008 -3272,9046 -3276,9181 -3281,9314 -3272,9373 -3249,9379 -3226,9317 -3206,9187 -3218,9056 -3241,8991 -3253,8986 -3261,8996 -3275,9026 -3271,9071 -3259,9107 -3248,9136 -3222,9154 -3180,9152 -3124,9119 -3060,9072 -3032,9049 -3034,9047 -3038,9048 -3032,9079 -3037,9163 -3042,9257 -3020,9304 -2989,9321 " style="fill: white; stroke: black; stroke-width: 30" />
<polyline points="-2907,9181 -2903,9136 -2867,9105 -2830,9112 -2798,9168 -2797,9265 -2831,9334 -2881,9368 -2927,9366 -2944,9332 -2943,9291 -2937,9284 -2919,9285 -2883,9299 -2839,9312 -2793,9299 " style="fill: white; stroke: black; stroke-width: 30" />
<polyline points="-2641,9004 -2665,9001 -2695,9010 -2716,9070 -2732,9199 -2739,9297 -2738,9331 -2734,9330 -2735,9290 -2732,9225 -2731,9181 -2716,9178 -2700,9183 -2662,9193 -2622,9176 -2557,9125 -2498,9049 -2481,9014 -2494,9012 -2507,9019 -2535,9077 -2562,9177 -2571,9252 -2568,9264 -2560,9264 -2538,9261 -2504,9257 -2471,9264 -2460,9266 -2437,9266 -2400,9245 -2356,9237 -2329,9253 -2324,9272 -2341,9277 -2339,9279 -2338,9273 -2340,9267 " style="fill: white; stroke: black; stroke-width: 30" />
<polyline points="-2271,8949 -2286,8946 -2293,8947 -2293,8947 -2297,8947 -2288,8956 " style="fill: white; stroke: black; stroke-width: 30" />
<polyline points="-2222,9155 -2237,9124 -2239,9107 -2218,9112 -2178,9143 -2164,9198 -2186,9259 -2226,9299 -2273,9304 -2298,9283 -2290,9226 -2269,9194 -2228,9188 -2168,9212 -2106,9240 " style="fill: white; stroke: black; stroke-width: 30" />
<polyline points="-1918,9128 -1950,9112 -1961,9112 -1989,9130 -2008,9178 -2022,9249 -2023,9293 -2033,9321 -2054,9328 -2083,9322 -2091,9309 -2099,9286 " style="fill: white; stroke: black; stroke-width: 30" />
<polyline points="-1380,8946 -1389,8939 -1405,8952 -1440,9019 -1486,9185 -1512,9305 -1510,9373 -1466,9386 " style="fill: white; stroke: black; stroke-width: 30" />
<polyline points="-1236,9073 -1333,9099 -1450,9153 -1535,9219 -1538,9259 -1469,9312 -1361,9329 -1256,9308 " style="fill: white; stroke: black; stroke-width: 30" />
<polyline points="-1160,9177 -1187,9163 -1186,9153 -1183,9145 -1153,9149 -1121,9193 -1126,9267 -1160,9335 -1212,9362 -1258,9350 -1269,9311 -1264,9276 -1246,9261 -1199,9271 -1153,9326 -1110,9374 -1093,9395 -1073,9394 -1041,9356 -1008,9300 -992,9262 -987,9249 -971,9248 -968,9252 " style="fill: white; stroke: black; stroke-width: 30" />
<polyline points="-771,9198 -787,9197 -798,9195 -797,9192 -809,9184 -846,9186 -894,9211 -914,9253 -901,9282 -876,9296 -850,9289 -841,9286 -842,9298 -833,9427 -844,9590 -871,9716 -907,9778 -931,9781 -957,9732 -965,9629 -950,9550 -909,9503 " style="fill: white; stroke: black; stroke-width: 30" />
<polyline points="-3218,9928 -3230,9939 -3230,9920 -3200,9878 -3179,9800 -3120,9707 -3060,9615 -2997,9566 -2963,9544 -2962,9548 -2968,9552 -2970,9558 -2975,9563 -2976,9572 -2982,9587 -2980,9605 -2986,9660 -2957,9731 -2906,9807 -2842,9860 -2795,9894 " style="fill: white; stroke: black; stroke-width: 30" />
<polyline points="-3205,9609 -3219,9612 -3198,9613 -3150,9621 -3060,9636 -2924,9654 -2778,9662 " style="fill: white; stroke: black; stroke-width: 30" />
<polyline points="-2589,9595 -2640,9597 -2700,9597 -2761,9608 -2797,9629 -2798,9648 -2777,9696 -2740,9761 -2728,9802 -2730,9824 -2745,9826 -2766,9818 -2802,9794 -2794,9779 -2753,9734 " style="fill: white; stroke: black; stroke-width: 30" />
<polyline points="-2469,9539 -2481,9533 -2501,9549 -2536,9638 -2571,9782 -2595,9867 -2593,9908 -2590,9905 -2591,9859 -2578,9787 -2567,9760 -2565,9766 -2557,9775 -2526,9804 -2495,9821 -2481,9820 -2463,9805 -2453,9780 -2448,9744 -2430,9720 -2403,9693 -2355,9683 -2299,9682 -2250,9677 -2235,9679 -2250,9691 -2277,9740 -2297,9810 -2300,9850 -2292,9858 -2263,9830 -2226,9725 -2186,9565 -2190,9488 -2198,9481 -2203,9484 -2203,9484 -2200,9488 " style="fill: white; stroke: black; stroke-width: 30" />
<polyline points="-2035,9794 -2073,9786 -2084,9772 -2098,9747 -2118,9718 -2174,9724 -2230,9760 -2232,9788 -2208,9814 -2153,9817 -2055,9746 -1940,9630 -1884,9551 -1892,9542 -1898,9550 -1922,9585 -1958,9671 -1971,9768 -1954,9833 " style="fill: white; stroke: black; stroke-width: 30" />
<polyline points="-1479,9643 -1471,9629 -1478,9654 -1499,9752 -1514,9863 -1521,9929 -1501,9948 -1484,9937 " style="fill: white; stroke: black; stroke-width: 30" />
<polyline points="-1630,9686 -1659,9669 -1652,9659 -1600,9642 -1481,9606 -1328,9588 -1210,9597 " style="fill: white; stroke: black; stroke-width: 30" />
<polyline points="-1589,9719 -1613,9712 -1591,9708 -1531,9703 -1431,9689 -1337,9679 -1285,9673 -1287,9675 -1307,9681 -1334,9717 -1347,9755 -1326,9784 -1282,9798 -1213,9785 -1164,9772 -1175,9774 -1184,9784 -1174,9826 -1133,9863 " style="fill: white; stroke: black; stroke-width: 30" />
<polyline points="-920,9575 -927,9580 -957,9618 -1010,9719 -1054,9825 -1071,9897 -1070,9905 -1061,9874 -1030,9792 -1014,9743 -1004,9736 -997,9740 -966,9746 -876,9743 -754,9711 -650,9677 -634,9665 -645,9661 -658,9660 -681,9676 -740,9728 -793,9803 -821,9852 -817,9870 -802,9867 -782,9837 -753,9752 -749,9715 -752,9705 -754,9711 -744,9725 -704,9739 -647,9743 -573,9741 -528,9737 -528,9737 -539,9736 -577,9755 -591,9796 -584,9851 -547,9881 -496,9873 -442,9805 -396,9715 -377,9670 -360,9650 -290,9634 -163,9653 -29,9687 " style="fill: white; stroke: black; stroke-width: 30" />
<polyline points="2946,1309 2940,1312 2938,1318 2937,1358 2942,1442 2957,1524 2970,1575 2980,1598 2981,1594 " style="fill: white; stroke: black; stroke-width: 30" />
<polyline points="2885,1329 2829,1273 2786,1236 2781,1225 2802,1215 2878,1205 2986,1221 3057,1277 3081,1335 3074,1365 3050,1378 3018,1382 2983,1378 2946,1356 2928,1350 2935,1347 " style="fill: white; stroke: black; stroke-width: 30" />
<polyline points="3128,1613 3182,1532 3262,1411 3319,1308 3340,1251 3342,1230 3340,1230 3337,1237 3335,1248 3340,1278 3361,1356 3392,1456 3428,1547 3466,1612 3496,1651 " style="fill: white; stroke: black; stroke-width: 30" />
<polyline points="3099,1445 3119,1435 3164,1431 3248,1415 3343,1393 3427,1396 " style="fill: white; stroke: black; stroke-width: 30" />
<polyline points="4039,1319 4028,1315 3986,1300 3920,1292 3839,1285 3773,1307 3751,1329 3753,1396 3780,1496 3809,1572 3810,1608 3796,1622 3766,1625 3742,1612 3722,1591 3714,1575 3716,1564 3734,1560 " style="fill: white; stroke: black; stroke-width: 30" />
<polyline points="4045,1515 4028,1482 3987,1460 3909,1471 3852,1517 3834,1587 3867,1625 3953,1647 4089,1595 4219,1499 4280,1411 4276,1364 4249,1349 4230,1357 4214,1381 4191,1467 4195,1553 4243,1618 4313,1634 4368,1617 4368,1610 4352,1604 4332,1612 " style="fill: white; stroke: black; stroke-width: 30" />
<polyline points="4468,1451 4482,1443 4484,1461 4480,1516 4460,1571 4415,1627 4374,1646 4344,1652 4350,1611 4375,1552 4408,1519 4425,1523 4437,1557 4450,1612 " style="fill: white; stroke: black; stroke-width: 30" />
<polyline points="4529,1640 4573,1604 4603,1566 4621,1552 4628,1550 4632,1566 4635,1584 4624,1618 4617,1643 4635,1645 " style="fill: white; stroke: black; stroke-width: 30" />
<polyline points="4782,1523 4755,1518 4704,1521 4657,1545 4637,1599 4664,1646 4734,1648 4821,1620 4897,1521 4915,1433 4897,1385 4889,1379 4891,1384 4896,1413 4892,1490 4877,1563 4857,1621 " style="fill: white; stroke: black; stroke-width: 30" />
<polyline points="5104,1511 5144,1518 5221,1514 5284,1506 " style="fill: white; stroke: black; stroke-width: 30" />
<polyline points="4021,1951 4044,1947 4073,1914 4092,1861 4069,1798 4012,1746 3945,1737 3903,1767 3862,1875 3843,2025 3855,2145 3881,2209 3902,2222 " style="fill: white; stroke: black; stroke-width: 30" />
<polyline points="3833,1988 3822,1965 3850,1955 3889,1969 3950,1993 4027,2009 4114,1998 4202,1966 4254,1911 4267,1857 4251,1825 4220,1813 4161,1836 4109,1903 4078,1986 4098,2044 4161,2098 4286,2097 4416,2062 4505,1984 4517,1926 4489,1904 4449,1909 4434,1915 4430,1950 4434,2014 4455,2081 4493,2118 4544,2130 " style="fill: white; stroke: black; stroke-width: 30" />
<polyline points="4727,1944 4709,1956 4680,1968 4651,1984 4613,2005 4583,2032 4569,2061 4580,2085 4616,2106 4703,2093 4819,2032 4916,1927 4948,1835 4932,1787 4909,1790 4898,1822 4880,1898 4869,1969 4862,2020 4866,2069 4889,2088 4923,2083 4958,2056 5003,2009 5037,1955 5037,1934 5018,1905 4964,1914 4909,1959 4902,2009 4931,2086 5005,2143 5079,2171 " style="fill: white; stroke: black; stroke-width: 30" />
<polyline points="2734,1099 2709,1066 2689,1053 2678,1058 2668,1066 2657,1099 2634,1180 2606,1364 2570,1672 2577,2087 2623,2447 2697,2675 2781,2824 2827,2880 2836,2890 2836,2890 2831,2890 2831,2889 2829,2890 2831,2890 2832,2887 2839,2887 2853,2886 2926,2882 3059,2860 3254,2830 3491,2804 3740,2802 3977,2815 4203,2828 4413,2837 4602,2836 4729,2845 4811,2855 4836,2862 4839,2860 4832,2863 4830,2862 4826,2864 4825,2865 4825,2861 4813,2843 " style="fill: white; stroke: black; stroke-width: 30" />
<polyline points="3240,2929 3237,2937 3228,2972 3209,3061 3164,3173 3116,3274 3094,3334 3099,3378 3113,3407 3133,3422 3150,3419 3184,3417 3230,3414 3298,3417 3353,3425 3391,3433 3408,3440 3436,3441 " style="fill: white; stroke: black; stroke-width: 30" />
<polyline points="3468,3331 3443,3332 3452,3331 3479,3348 3522,3381 3543,3422 3528,3470 3497,3514 3474,3530 3471,3531 3471,3527 3477,3528 3492,3523 " style="fill: white; stroke: black; stroke-width: 30" />
<polyline points="3931,3285 3911,3294 3899,3321 3879,3381 3863,3447 3848,3525 3851,3586 3882,3627 " style="fill: white; stroke: black; stroke-width: 30" />
<polyline points="4053,3318 4043,3324 4043,3370 4039,3457 4033,3541 4045,3594 4050,3615 4053,3599 " style="fill: white; stroke: black; stroke-width: 30" />
<polyline points="4003,3456 3976,3409 3992,3351 4037,3311 4105,3294 4176,3320 4221,3389 4238,3486 4216,3567 4180,3626 4143,3643 4121,3631 4064,3572 4010,3490 3992,3442 " style="fill: white; stroke: black; stroke-width: 30" />
<polyline points="4488,3330 4402,3346 4341,3385 4326,3452 4339,3518 4356,3578 4365,3611 4359,3617 4347,3613 4322,3608 4301,3576 4278,3541 " style="fill: white; stroke: black; stroke-width: 30" />
<polyline points="3525,3668 3537,3665 3569,3630 3615,3562 3665,3476 3725,3400 3762,3363 3772,3357 3771,3358 3769,3362 3756,3362 " style="fill: white; stroke: black; stroke-width: 30" />
<polyline points="3553,3321 3547,3324 3553,3326 3564,3358 3598,3421 3659,3537 3722,3631 3770,3718 " style="fill: white; stroke: black; stroke-width: 30" />
<polyline points="3515,3522 3496,3517 3501,3510 3523,3507 3563,3502 3625,3513 3654,3518 3669,3524 3705,3534 " style="fill: white; stroke: black; stroke-width: 30" />
<polyline points="4591,3633 4601,3623 4633,3601 4708,3546 4815,3458 4913,3383 4951,3342 4943,3324 " style="fill: white; stroke: black; stroke-width: 30" />
<polyline points="4616,3387 4615,3388 4634,3396 4671,3425 4734,3473 4810,3536 4880,3594 4934,3646 " style="fill: white; stroke: black; stroke-width: 30" />
<polyline points="4800,3372 4797,3358 4787,3358 4781,3359 4768,3368 4756,3400 4743,3467 4727,3591 4718,3727 " style="fill: white; stroke: black; stroke-width: 30" />
<polyline points="2425,1023 2422,1011 2440,1007 2533,996 2747,980 3102,958 3557,942 4037,965 4479,983 4871,996 5208,1020 5448,1043 " style="fill: white; stroke: black; stroke-width: 30" />
<polyline points="-62,4831 -60,4830 -57,4836 -60,4855 -64,4893 -73,4975 -65,5039 -52,5064 -41,5062 -25,5043 -8,4985 9,4921 29,4885 43,4877 53,4879 67,4893 74,4917 78,4949 82,4983 97,5004 107,5012 107,5020 " style="fill: white; stroke: black; stroke-width: 30" />
<polyline points="217,4749 214,4750 211,4752 215,4759 214,4787 207,4850 203,4913 205,4942 212,4946 222,4943 230,4926 234,4877 " style="fill: white; stroke: black; stroke-width: 30" />
<polyline points="197,5052 186,5048 202,5037 244,5029 273,5037 278,5056 264,5079 235,5093 203,5091 200,5084 200,5079 204,5074 212,5063 " style="fill: white; stroke: black; stroke-width: 30" />
<polyline points="460,6760 460,6758 457,6752 454,6743 450,6722 463,6647 484,6510 507,6381 529,6273 542,6173 544,6127 543,6118 541,6116 541,6118 539,6115 539,6112 538,6109 541,6107 547,6104 546,6108 541,6115 " style="fill: white; stroke: black; stroke-width: 30" />
<polyline points="422,6271 408,6270 411,6260 437,6224 477,6170 502,6142 513,6129 523,6122 528,6114 542,6105 547,6102 548,6102 547,6099 543,6101 545,6101 543,6104 542,6105 545,6107 545,6107 539,6111 533,6114 532,6119 530,6123 541,6146 552,6179 591,6235 643,6287 685,6314 " style="fill: white; stroke: black; stroke-width: 30" />
<polyline points="713,6392 716,6375 731,6353 765,6330 801,6318 829,6320 844,6334 838,6373 810,6441 764,6524 720,6590 715,6627 729,6663 749,6668 784,6671 809,6666 832,6646 837,6624 822,6589 786,6524 735,6465 700,6433 668,6406 661,6399 666,6392 676,6383 712,6359 " style="fill: white; stroke: black; stroke-width: 30" />
<polyline points="599,4959 596,4948 597,4933 612,4915 627,4900 626,4899 623,4898 623,4899 627,4898 629,4896 632,4892 631,4891 633,4888 643,4889 671,4896 694,4909 714,4934 723,4962 724,4998 704,5044 669,5081 640,5124 630,5135 630,5138 636,5138 649,5144 667,5150 680,5154 686,5155 694,5151 706,5141 709,5138 714,5136 711,5135 714,5130 710,5123 712,5115 709,5109 709,5089 697,5053 677,5029 647,4998 619,4970 592,4945 577,4932 578,4930 581,4929 583,4928 589,4926 590,4926 599,4929 " style="fill: white; stroke: black; stroke-width: 30" />
<polyline points="816,5096 811,5082 801,5075 801,5074 801,5075 802,5081 806,5088 804,5103 806,5117 810,5130 813,5149 818,5177 829,5201 831,5230 830,5271 " style="fill: white; stroke: black; stroke-width: 30" />
<polyline points="1622,5002 1622,4969 1648,4934 1687,4911 1722,4903 1739,4918 1732,4955 1682,5048 1610,5141 1597,5172 1613,5184 1655,5197 1710,5189 1740,5183 1760,5178 " style="fill: white; stroke: black; stroke-width: 30" />
<polyline points="1822,5137 1835,5124 1845,5121 1847,5125 1840,5129 1828,5135 1822,5135 1825,5136 1827,5136 " style="fill: white; stroke: black; stroke-width: 30" />
<polyline points="1649,4999 1640,4995 1635,4991 1633,4995 1630,5004 1634,5018 1651,5030 1690,5041 1732,5047 1767,5059 1782,5069 1796,5079 1799,5092 1797,5105 1790,5125 1776,5151 1750,5183 1730,5203 1720,5208 1704,5210 1687,5205 1675,5200 1670,5195 1676,5192 1674,5191 1676,5188 " style="fill: white; stroke: black; stroke-width: 30" />
<polyline points="1851,5189 1858,5174 1889,5159 1924,5153 1935,5155 1933,5164 1926,5178 1897,5221 1852,5273 1815,5307 1805,5314 1811,5309 1821,5303 1838,5296 1852,5288 1884,5283 1919,5281 1956,5288 " style="fill: white; stroke: black; stroke-width: 30" />
<polyline points="2137,3483 2129,3477 2122,3469 2120,3457 2114,3447 2095,3435 2058,3434 2005,3454 1957,3492 1934,3537 1942,3573 1976,3610 2017,3634 2069,3641 2108,3633 2125,3629 2126,3627 2128,3627 " style="fill: white; stroke: black; stroke-width: 30" />
<polyline points="2080,3575 2065,3570 2079,3562 2117,3552 2151,3553 2165,3567 2162,3595 2149,3643 2148,3676 " style="fill: white; stroke: black; stroke-width: 30" />
<polyline points="2212,3523 2217,3504 2238,3502 2266,3525 2280,3557 2279,3602 2252,3642 2218,3671 2191,3680 2183,3670 2181,3645 2188,3609 2214,3587 2237,3588 2265,3609 2299,3642 2325,3670 2346,3675 2353,3669 2359,3646 2367,3586 2379,3544 2382,3532 2385,3532 2385,3539 2412,3559 " style="fill: white; stroke: black; stroke-width: 30" />
<polyline points="2501,3544 2500,3546 2510,3557 2528,3575 2541,3583 2540,3583 2535,3577 2508,3552 2478,3543 2454,3549 2442,3575 2447,3602 2460,3623 2485,3631 2504,3633 2512,3637 2514,3652 2517,3715 2505,3794 2483,3860 2450,3904 2423,3906 2393,3879 2366,3789 2377,3694 " style="fill: white; stroke: black; stroke-width: 30" />
<polyline points="2581,3573 2575,3570 2595,3569 2613,3577 2625,3595 2622,3621 2602,3677 2581,3727 2567,3753 2563,3746 2548,3717 2553,3670 2569,3644 2577,3645 2595,3664 2614,3688 2628,3701 2658,3695 " style="fill: white; stroke: black; stroke-width: 30" />
<polyline points="2714,3659 2715,3653 2713,3653 2711,3653 2711,3655 2707,3654 2707,3656 2707,3658 2704,3663 2695,3672 2693,3678 2694,3677 2696,3676 2707,3662 2739,3629 2775,3594 2786,3590 2784,3596 2772,3626 2759,3662 2758,3679 2764,3677 2779,3660 2782,3655 2789,3658 2792,3661 2794,3665 2794,3665 2796,3668 2799,3670 2812,3662 " style="fill: white; stroke: black; stroke-width: 30" />
<polyline points="2848,3673 2852,3675 2901,3663 2962,3642 3001,3622 3011,3600 2998,3577 2976,3574 2953,3597 2931,3655 2936,3694 2963,3716 3011,3686 3078,3605 3150,3490 3192,3402 3191,3381 3181,3391 3146,3442 3109,3541 3095,3643 3116,3714 " style="fill: white; stroke: black; stroke-width: 30" />
<polyline points="1264,9144 1250,9143 1246,9154 1240,9208 1239,9292 1243,9351 1251,9388 1245,9407 1232,9408 1227,9382 1228,9293 1222,9206 1216,9145 1213,9116 1224,9094 1233,9086 1256,9081 1307,9092 1375,9120 1426,9161 1433,9194 1412,9224 1373,9252 1311,9264 1252,9257 1232,9251 1242,9247 1279,9231 " style="fill: white; stroke: black; stroke-width: 30" />
<polyline points="1444,9236 1429,9228 1452,9216 1543,9207 1611,9221 1654,9249 1643,9279 1604,9308 1540,9324 1494,9311 1475,9296 1473,9292 1483,9289 1499,9286 1521,9286 1550,9295 1610,9304 1678,9299 1766,9267 " style="fill: white; stroke: black; stroke-width: 30" />
<polyline points="1804,9062 1797,9072 1775,9117 1756,9211 1750,9299 1750,9351 1753,9367 1754,9363 1763,9332 1777,9306 1791,9291 1791,9292 1796,9289 1817,9282 " style="fill: white; stroke: black; stroke-width: 30" />
<polyline points="1972,9265 1948,9259 1937,9250 1918,9246 1879,9247 1843,9272 1828,9300 1832,9321 1887,9333 1976,9302 2082,9209 2168,9117 2180,9074 2172,9072 2134,9101 2067,9209 2046,9284 2076,9320 2134,9318 2192,9304 2212,9308 2205,9334 2204,9357 2224,9358 " style="fill: white; stroke: black; stroke-width: 30" />
<polyline points="1260,9942 1249,9935 1248,9926 1252,9925 1242,9923 1246,9923 1241,9916 1249,9900 1275,9865 1307,9829 1360,9800 1413,9797 1444,9814 1455,9846 1461,9876 1466,9894 1458,9899 1464,9898 1472,9899 " style="fill: white; stroke: black; stroke-width: 30" />
<polyline points="1667,9615 1669,9604 1666,9597 1663,9593 1661,9595 1659,9601 1654,9618 1629,9676 1612,9754 1604,9818 1610,9828 1616,9833 1625,9826 1632,9797 " style="fill: white; stroke: black; stroke-width: 30" />
<polyline points="1539,9996 1532,9979 1554,9952 1583,9940 1598,9946 1606,9975 1601,10007 1586,10033 1576,10035 1569,10025 1550,10005 1551,9984 1575,9937 " style="fill: white; stroke: black; stroke-width: 30" />
<polyline points="2170,9825 2155,9812 2146,9806 2138,9806 2132,9806 2132,9806 2138,9805 2158,9808 2211,9803 2292,9792 2372,9782 2438,9790 " style="fill: white; stroke: black; stroke-width: 30" />
<polyline points="2438,9724 2428,9722 2431,9725 2456,9737 2488,9752 2508,9762 2513,9764 2500,9778 2475,9807 2458,9838 2463,9864 " style="fill: white; stroke: black; stroke-width: 30" />
<polyline points="2933,9713 2928,9714 2924,9726 2886,9797 2851,9889 2846,9945 2852,9972 " style="fill: white; stroke: black; stroke-width: 30" />
<polyline points="2755,9753 2724,9737 2731,9730 2755,9723 2835,9707 2946,9687 3039,9673 3104,9665 " style="fill: white; stroke: black; stroke-width: 30" />
<polyline points="3070,9848 3064,9870 3045,9899 3030,9920 3031,9922 3034,9921 3039,9916 3047,9891 3066,9843 3076,9806 3080,9798 3094,9800 3123,9814 3175,9836 3237,9847 3309,9837 3330,9827 3325,9826 3310,9833 3286,9860 3276,9896 3262,9952 3265,9967 3273,9961 " style="fill: white; stroke: black; stroke-width: 30" />
<polyline points="3373,9672 3355,9663 3346,9663 3344,9668 3357,9700 " style="fill: white; stroke: black; stroke-width: 30" />
<polyline points="3373,9925 3388,9921 3411,9906 3443,9871 3473,9829 3467,9817 3452,9820 3420,9860 3407,9908 3426,9951 3467,9971 3553,9932 3667,9825 3764,9688 3792,9608 3764,9598 3743,9603 3713,9640 3676,9709 3660,9794 3670,9863 3672,9899 3678,9904 3679,9900 3720,9859 3755,9824 3784,9818 3794,9833 3802,9860 3785,9893 3764,9915 3732,9923 3709,9907 3685,9886 3682,9878 3690,9880 " style="fill: white; stroke: black; stroke-width: 30" />
<polyline points="4016,9813 4026,9808 4062,9805 4100,9813 4163,9817 4238,9820 " style="fill: white; stroke: black; stroke-width: 30" />
<polyline points="2874,10190 2867,10189 2863,10190 2867,10202 2842,10268 2830,10353 2836,10391 2850,10397 2873,10377 2900,10348 2928,10329 2952,10336 2971,10373 2977,10418 2952,10440 2919,10441 2874,10412 2830,10385 2836,10376 2849,10384 2895,10402 2978,10408 3054,10394 3129,10372 3164,10353 3154,10343 3140,10332 3104,10325 3070,10329 3053,10346 3058,10364 3096,10394 3141,10418 3173,10444 3217,10462 3274,10451 " style="fill: white; stroke: black; stroke-width: 30" />
<polyline points="3431,10262 3444,10217 3422,10194 3391,10188 3361,10193 3329,10223 3290,10307 3272,10414 3252,10513 3252,10580 3248,10603 3251,10599 3269,10546 3289,10460 3301,10428 3307,10418 3317,10414 3329,10423 3376,10428 3426,10427 3485,10406 3524,10378 3526,10368 3528,10367 3525,10365 3515,10369 3518,10371 3529,10373 3526,10377 3519,10383 3527,10380 3519,10382 3529,10377 3528,10374 3539,10366 3538,10364 3536,10364 3538,10364 3543,10364 3539,10365 3541,10364 3529,10371 3523,10375 3523,10380 3524,10383 3525,10386 3533,10385 3531,10392 3544,10388 3543,10386 3561,10365 3585,10345 3592,10334 3590,10335 3600,10336 3632,10336 3655,10336 3684,10337 3700,10344 3711,10350 3714,10350 3708,10361 3692,10381 3689,10401 3684,10419 3685,10435 3692,10428 " style="fill: white; stroke: black; stroke-width: 30" />
<polyline points="3855,10122 3811,10110 3788,10110 3788,10111 3804,10124 " style="fill: white; stroke: black; stroke-width: 30" />
<polyline points="3817,10442 3821,10426 3844,10399 3877,10365 3878,10358 3873,10357 3839,10359 3809,10373 3813,10379 3834,10405 3867,10437 3926,10460 " style="fill: white; stroke: black; stroke-width: 30" />
<polyline points="4130,10271 4110,10270 4077,10284 4052,10320 4037,10353 4034,10392 4048,10401 4083,10406 4181,10359 4283,10282 4307,10239 4295,10229 4268,10234 4239,10265 4217,10326 4223,10377 4251,10423 4299,10437 4356,10412 4362,10398 4349,10397 4321,10419 4314,10437 4318,10447 4329,10450 4373,10413 " style="fill: white; stroke: black; stroke-width: 30" />
<polyline points="4451,10224 4448,10155 4441,10138 4432,10141 4444,10144 " style="fill: white; stroke: black; stroke-width: 30" />
<polyline points="4635,10446 4651,10466 4653,10464 4644,10450 4623,10419 4583,10404 4571,10398 4564,10406 4562,10424 4577,10454 4571,10482 4551,10526 4528,10579 4506,10642 4495,10695 4494,10719 4494,10732 4485,10739 4473,10742 4459,10731 4461,10687 " style="fill: white; stroke: black; stroke-width: 30" />
<polyline points="4880,10108 4855,10130 4803,10181 4757,10266 4714,10368 4687,10471 4670,10539 4670,10562 4668,10557 4676,10524 4694,10476 4705,10460 4687,10465 4700,10460 4720,10465 4782,10486 4909,10500 " style="fill: white; stroke: black; stroke-width: 30" />
<polyline points="3008,10675 3015,10668 2999,10682 2968,10743 2890,10849 2890,10903 2944,10940 3052,10958 3150,10947 3212,10942 3230,10947 3257,10955 " style="fill: white; stroke: black; stroke-width: 30" />
<polyline points="3251,10863 3238,10850 3246,10846 3277,10847 3328,10861 3349,10887 3347,10894 3318,10921 3279,10949 3284,10966 " style="fill: white; stroke: black; stroke-width: 30" />
<polyline points="3715,10742 3722,10671 3726,10649 3732,10645 3735,10647 3709,10670 3669,10733 3582,10844 3557,10908 3560,10956 3584,10979 3626,10989 3667,10996 3747,10981 3818,10967 " style="fill: white; stroke: black; stroke-width: 30" />
<polyline points="3814,10890 3828,10875 3842,10873 3893,10881 3904,10905 3915,10929 3879,10967 3807,11000 3748,11006 3750,10997 3752,10988 3775,10984 3809,10983 3839,10985 3848,10997 3875,11026 3918,11058 " style="fill: white; stroke: black; stroke-width: 30" />
<polyline points="4040,10872 4067,10876 4112,10884 4131,10896 4140,10900 4124,10917 4063,10975 4020,11016 4017,11035 4030,11045 4061,11053 4104,11060 " style="fill: white; stroke: black; stroke-width: 30" />
<polyline points="4047,10965 4018,10967 4035,10973 4094,10979 4175,10980 4243,10974 4267,10962 4251,10961 4245,10958 4224,10969 4200,10986 4191,11003 4188,11014 4200,11014 4214,11015 4253,11011 4348,10968 4429,10924 4457,10904 4456,10902 4447,10906 4407,10933 4346,10989 4278,11078 4235,11182 4248,11251 " style="fill: white; stroke: black; stroke-width: 30" />
<polyline points="-1502,5995 -1533,6009 -1544,6013 -1546,6012 -1540,6008 -1526,5995 -1461,5934 -1307,5813 -1065,5642 -784,5459 -562,5331 -453,5277 -432,5264 -427,5267 -432,5271 -438,5275 -438,5275 -439,5274 -434,5270 -426,5267 -420,5264 " style="fill: white; stroke: black; stroke-width: 30" />
<polyline points="-498,5211 -478,5212 -435,5221 -382,5235 -336,5240 -324,5244 -326,5245 -332,5251 -353,5265 -389,5308 -413,5350 -433,5406 " style="fill: white; stroke: black; stroke-width: 30" />
<polyline points="-3189,11200 -3190,11196 -3171,11170 -3134,11088 -3075,10940 -2994,10805 -2962,10744 -2963,10739 -2959,10743 -2972,10754 -2976,10778 -2970,10824 -2946,10912 -2894,11003 -2831,11060 -2796,11085 " style="fill: white; stroke: black; stroke-width: 30" />
<polyline points="-3101,10952 -3143,10959 -3143,10952 -3136,10942 -3123,10929 -3076,10921 -2969,10923 -2850,10939 " style="fill: white; stroke: black; stroke-width: 30" />
<polyline points="-2667,10938 -2714,10926 -2742,10911 -2765,10907 -2795,10917 -2814,10946 -2817,10968 -2780,10992 -2721,10992 -2669,10972 -2650,10961 -2665,10959 -2670,10961 -2672,10969 -2670,10998 -2663,11074 -2671,11162 -2681,11235 -2692,11275 -2686,11288 -2691,11278 -2716,11219 -2753,11132 -2763,11072 " style="fill: white; stroke: black; stroke-width: 30" />
<polyline points="-2399,11005 -2438,10990 -2448,10975 -2486,10959 -2539,10954 -2584,10974 -2598,10998 -2584,11014 -2528,11026 -2480,11040 -2435,11061 -2435,11099 -2432,11162 -2442,11215 -2428,11237 -2441,11233 -2460,11218 -2474,11198 -2497,11179 -2489,11175 -2485,11174 -2478,11177 -2485,11175 -2471,11176 -2486,11169 -2488,11169 -2473,11173 -2486,11170 -2477,11169 -2482,11162 -2483,11157 -2480,11153 -2476,11147 " style="fill: white; stroke: black; stroke-width: 30" />
<polyline points="-2338,11021 -2342,11009 -2343,11004 -2345,11011 -2360,11041 -2374,11099 -2377,11135 -2360,11141 -2347,11110 -2316,11035 -2290,10973 -2289,10954 -2284,10954 -2275,10962 -2253,10984 -2216,11008 " style="fill: white; stroke: black; stroke-width: 30" />
<polyline points="-2066,10994 -2077,10991 -2108,10982 -2131,10979 -2173,10991 -2202,11026 -2185,11062 -2145,11085 -2078,11081 -2037,11037 -2020,10993 -2047,10962 -2091,10950 -2108,10962 -2110,10968 -2081,10989 " style="fill: white; stroke: black; stroke-width: 30" />
<polyline points="-3550,10921 -3558,10938 -3553,10940 -3532,10941 -3497,10921 -3447,10889 -3385,10848 -3337,10791 -3276,10733 -3259,10700 " style="fill: white; stroke: black; stroke-width: 30" />
<polyline points="-3480,10725 -3506,10724 -3510,10723 -3505,10728 -3468,10767 -3414,10850 -3349,10930 -3277,10979 " style="fill: white; stroke: black; stroke-width: 30" />
<polyline points="-3354,10702 -3378,10703 -3408,10712 -3433,10755 -3454,10873 -3426,11035 " style="fill: white; stroke: black; stroke-width: 30" />
<polyline points="-1736,11030 -1726,11036 -1700,11020 -1640,10976 -1586,10898 -1525,10821 -1479,10762 -1455,10739 -1476,10725 " style="fill: white; stroke: black; stroke-width: 30" />
<polyline points="-1754,10802 -1773,10813 -1763,10817 -1711,10854 -1616,10928 -1516,10994 -1428,11016 " style="fill: white; stroke: black; stroke-width: 30" />
<polyline points="-1814,10937 -1780,10923 -1779,10919 -1779,10921 -1771,10922 -1782,10922 -1777,10921 -1784,10922 -1785,10919 -1783,10919 -1762,10918 -1676,10914 -1520,10908 -1330,10895 " style="fill: white; stroke: black; stroke-width: 30" />
<polyline points="-3181,11393 -3196,11386 -3188,11378 -3183,11374 -3156,11373 -3094,11371 -2996,11353 -2889,11320 " style="fill: white; stroke: black; stroke-width: 30" />
<polyline points="-2978,11336 -3027,11362 -3067,11405 -3102,11465 -3133,11527 -3138,11573 -3116,11617 -3079,11642 -3053,11647 -3012,11648 -2972,11632 -2914,11619 -2852,11610 -2797,11609 " style="fill: white; stroke: black; stroke-width: 30" />
<polyline points="-2814,11533 -2835,11531 -2831,11532 -2826,11534 -2800,11540 -2776,11550 -2759,11558 -2760,11575 -2771,11609 -2795,11652 -2790,11669 -2785,11671 -2791,11664 " style="fill: white; stroke: black; stroke-width: 30" />
<polyline points="-2142,11553 -2137,11536 -2149,11527 -2175,11523 -2233,11525 -2307,11551 -2362,11586 -2384,11613 -2377,11623 -2353,11645 -2299,11676 -2273,11708 -2280,11725 -2304,11748 -2339,11762 -2358,11765 -2376,11757 -2373,11756 -2370,11754 -2368,11753 -2345,11756 " style="fill: white; stroke: black; stroke-width: 30" />
<polyline points="-2034,11658 -2089,11670 -2144,11677 -2167,11691 -2186,11707 -2188,11715 -2172,11729 -2147,11745 -2091,11743 -2024,11705 -1927,11631 -1892,11567 -1881,11556 -1898,11553 -1913,11561 -1933,11596 -1970,11669 -1969,11692 -1954,11697 -1920,11699 -1899,11697 -1881,11704 -1860,11713 " style="fill: white; stroke: black; stroke-width: 30" />
<polyline points="-1714,11664 -1743,11675 -1746,11683 -1750,11697 -1755,11730 -1761,11737 -1753,11730 -1693,11708 -1644,11685 -1629,11691 -1629,11721 -1627,11760 -1604,11773 " style="fill: white; stroke: black; stroke-width: 30" />
<polyline points="-1403,11483 -1452,11524 -1492,11592 -1535,11664 -1534,11705 -1508,11735 -1456,11757 -1428,11767 " style="fill: white; stroke: black; stroke-width: 30" />
<polyline points="-1311,11651 -1313,11649 -1302,11650 -1298,11659 -1292,11664 -1286,11667 -1297,11664 -1303,11658 -1320,11652 -1347,11673 -1383,11731 -1382,11798 -1362,11826 -1292,11804 -1211,11700 -1151,11608 -1151,11571 -1155,11567 -1161,11580 -1189,11634 -1197,11717 -1183,11755 -1153,11771 -1110,11765 -1078,11742 -1069,11741 -1068,11748 -1070,11771 -1062,11787 -1054,11793 -1027,11774 " style="fill: white; stroke: black; stroke-width: 30" />
<polyline points="-1013,11562 -1024,11560 -1024,11557 -1022,11556 -1013,11551 " style="fill: white; stroke: black; stroke-width: 30" />
<polyline points="-834,11729 -835,11718 -843,11708 -867,11696 -902,11687 -950,11700 -963,11730 -973,11773 -963,11818 -933,11891 -908,11982 -906,12080 -917,12155 -953,12209 -992,12230 -1041,12231 -1067,12208 -1059,12139 -1018,12041 -933,11914 -804,11791 " style="fill: white; stroke: black; stroke-width: 30" />
<polyline points="-3713,10935 " style="fill: white; stroke: black; stroke-width: 30" />
<polyline points="-3720,10582 -3728,10578 -3731,10578 -3733,10586 -3737,10596 -3741,10614 -3753,10720 -3757,11002 -3769,11366 -3747,11633 -3718,11768 -3710,11817 -3708,11818 -3712,11813 -3704,11813 -3699,11814 -3715,11806 -3707,11806 -3715,11800 -3706,11797 -3675,11759 " style="fill: white; stroke: black; stroke-width: 30" />
<polyline points="1087,11204 1076,11205 1078,11202 1081,11204 1073,11210 1069,11240 1046,11337 1026,11438 1030,11527 1071,11588 1118,11603 " style="fill: white; stroke: black; stroke-width: 30" />
<polyline points="1358,11242 1306,11239 1231,11242 1143,11268 1068,11319 1031,11389 1038,11417 1067,11451 1133,11479 1206,11505 1296,11518 " style="fill: white; stroke: black; stroke-width: 30" />
<polyline points="1730,11146 1729,11140 1730,11149 1673,11222 1581,11357 1472,11494 1418,11594 1420,11668 " style="fill: white; stroke: black; stroke-width: 30" />
<polyline points="1914,11297 1907,11294 1901,11295 1887,11331 1851,11445 1789,11579 1757,11653 1764,11669 1759,11666 1766,11653 1781,11584 1807,11504 1818,11445 1828,11411 1847,11378 1883,11334 1922,11305 1969,11304 2010,11321 2041,11359 2059,11425 2085,11494 2091,11578 2072,11655 2031,11708 1967,11750 1873,11770 1777,11759 1702,11729 1674,11695 1678,11689 1674,11690 1696,11685 " style="fill: white; stroke: black; stroke-width: 30" />
<polyline points="1042,12033 1005,12032 1007,12027 1007,12026 1028,12024 1085,12021 1190,12014 1385,11993 1636,11968 1864,11950 1997,11935 2025,11932 2019,11929 2017,11929 2022,11929 2011,11934 2003,11942 " style="fill: white; stroke: black; stroke-width: 30" />
<polyline points="1584,12064 1570,12047 1544,12046 1528,12083 1465,12201 1403,12360 1367,12484 1368,12560 1367,12601 1368,12610 1383,12608 1421,12605 1532,12583 1719,12547 1931,12514 2112,12500 2198,12498 2203,12498 2197,12495 2194,12491 2187,12478 " style="fill: white; stroke: black; stroke-width: 30" />
<polyline points="2135,12405 2156,12397 2197,12397 2271,12409 2321,12429 2347,12450 2347,12463 2280,12504 2192,12548 2154,12576 2154,12586 " style="fill: white; stroke: black; stroke-width: 30" />
<polyline points="20,6230 8,6224 7,6221 1,6223 -2,6240 -13,6321 -29,6455 -39,6581 -36,6646 -29,6679 -22,6682 -14,6679 " style="fill: white; stroke: black; stroke-width: 30" />
<polyline points="-141,6606 -143,6616 -141,6646 -137,6688 -130,6740 -121,6773 -109,6778 -90,6777 -53,6753 -3,6714 40,6684 61,6672 71,6663 " style="fill: white; stroke: black; stroke-width: 30" />
<polyline points="-1124,6149 -1122,6143 -1133,6151 -1145,6217 -1148,6319 -1131,6393 -1092,6425 " style="fill: white; stroke: black; stroke-width: 30" />
<polyline points="-1014,6202 -1029,6204 -1037,6207 -1061,6223 -1110,6264 -1146,6319 -1148,6343 -1125,6368 -1087,6371 -1045,6367 -996,6360 -944,6342 " style="fill: white; stroke: black; stroke-width: 30" />
<polyline points="-875,6230 -874,6229 -874,6238 -872,6270 -873,6324 -871,6350 -850,6359 " style="fill: white; stroke: black; stroke-width: 30" />
<polyline points="-850,6140 -860,6125 -865,6121 -866,6125 -870,6127 -871,6129 -875,6128 -875,6128 -875,6128 -871,6129 " style="fill: white; stroke: black; stroke-width: 30" />
<polyline points="-753,6123 -775,6118 -774,6123 -773,6144 -784,6224 -797,6315 -787,6370 -761,6400 " style="fill: white; stroke: black; stroke-width: 30" />
<polyline points="-700,6116 -710,6136 -718,6207 -742,6314 -739,6375 -718,6396 " style="fill: white; stroke: black; stroke-width: 30" />
<polyline points="-576,6268 -586,6274 -582,6275 -572,6276 -554,6274 -535,6275 -503,6276 -457,6275 " style="fill: white; stroke: black; stroke-width: 30" />
<polyline points="-303,6239 -291,6222 -284,6204 -284,6192 -295,6183 -319,6179 -370,6201 -403,6236 -409,6258 -385,6272 -348,6269 -313,6257 -309,6252 -311,6255 -314,6260 -317,6277 -301,6343 -290,6410 -296,6448 -302,6462 -314,6455 -339,6437 -367,6409 -384,6393 -385,6388 " style="fill: white; stroke: black; stroke-width: 30" />
<polyline points="-1184,6609 -1183,6597 -1175,6586 -1178,6590 -1186,6598 -1206,6653 -1261,6796 -1324,6946 -1355,7029 -1372,7069 -1371,7070 -1372,7066 -1360,7051 " style="fill: white; stroke: black; stroke-width: 30" />
<polyline points="-1355,6663 -1364,6657 -1347,6647 -1299,6625 -1227,6575 -1164,6529 -1149,6510 -1149,6511 -1151,6513 -1149,6515 -1149,6515 -1145,6518 -1146,6522 -1143,6529 -1142,6534 -1141,6534 -1145,6531 -1146,6529 -1147,6529 -1146,6540 -1153,6599 -1157,6666 -1125,6735 " style="fill: white; stroke: black; stroke-width: 30" />
<polyline points="-1748,7265 -1749,7263 -1736,7253 -1717,7222 -1706,7174 -1715,7158 -1750,7159 -1805,7196 -1831,7238 -1829,7249 -1795,7250 -1738,7243 -1720,7238 -1714,7249 -1709,7321 -1697,7417 -1677,7504 -1669,7553 -1679,7565 -1720,7571 -1794,7551 -1844,7502 -1846,7443 " style="fill: white; stroke: black; stroke-width: 30" />
<polyline points="-1499,7202 -1536,7201 -1556,7203 -1563,7215 -1571,7239 -1569,7275 -1560,7286 -1538,7290 -1501,7280 -1460,7268 -1443,7267 -1443,7276 -1448,7302 -1437,7321 -1411,7312 " style="fill: white; stroke: black; stroke-width: 30" />
<polyline points="-1332,7211 -1346,7222 -1357,7246 -1368,7289 -1374,7330 -1367,7343 -1352,7346 -1320,7299 " style="fill: white; stroke: black; stroke-width: 30" />
<polyline points="-1300,7085 -1311,7052 -1328,7051 -1328,7052 -1326,7051 -1317,7053 -1288,7066 " style="fill: white; stroke: black; stroke-width: 30" />
<polyline points="-1195,7060 -1197,7051 -1199,7050 -1215,7060 -1245,7145 -1267,7238 -1256,7284 -1247,7304 -1221,7318 " style="fill: white; stroke: black; stroke-width: 30" />
<polyline points="-1083,7040 -1082,7040 -1078,7042 -1082,7048 -1089,7058 -1098,7111 -1120,7176 -1135,7248 -1137,7288 -1131,7312 -1124,7315 -1112,7313 -1091,7257 " style="fill: white; stroke: black; stroke-width: 30" />
<polyline points="-1129,7165 -1166,7179 -1182,7187 -1180,7193 -1166,7197 -1129,7212 -1076,7209 -1018,7193 -981,7177 -983,7175 -988,7177 -990,7183 -997,7194 -1010,7229 -1025,7278 -1020,7282 -1011,7280 -972,7272 -921,7237 -902,7225 -905,7225 -918,7247 -990,7361 -1099,7557 -1152,7710 -1133,7770 " style="fill: white; stroke: black; stroke-width: 30" />
<polyline points="-2075,7158 -2078,7169 -2085,7222 -2085,7311 -2076,7355 -2053,7367 -2036,7340 -2007,7270 -1998,7201 -1996,7188 -2014,7194 -2024,7209 -2036,7253 -2033,7297 -2029,7305 -2018,7322 " style="fill: white; stroke: black; stroke-width: 30" />
<polyline points="-743,6933 -742,6912 -742,6913 -744,6931 -761,6974 -783,7045 -787,7066 -777,7066 -742,7040 -697,6988 -679,6971 -687,6980 -696,7005 -716,7047 -723,7085 " style="fill: white; stroke: black; stroke-width: 30" />
<polyline points="2404,1116 2398,1105 2395,1104 2393,1111 2384,1130 2373,1184 2331,1425 2276,1925 2265,2447 2257,2767 2270,2924 2299,2988 2330,3018 2342,3021 2341,3018 2339,3021 2334,3022 2335,3024 2339,3022 2363,3008 " style="fill: white; stroke: black; stroke-width: 30" />
<polyline points="2562,845 2507,835 2515,835 2579,822 2742,767 3046,668 3481,587 3964,528 4423,533 4812,553 5119,573 5346,610 5497,601 " style="fill: white; stroke: black; stroke-width: 30" />
<polyline points="2675,3222 2640,3215 2632,3212 2642,3206 2684,3199 2810,3179 3034,3172 3429,3159 3971,3130 4557,3087 5098,3035 5513,2999 " style="fill: white; stroke: black; stroke-width: 30" />
<polyline points="3031,2752 3004,2757 2996,2759 3003,2760 3015,2761 3050,2762 3127,2748 3232,2729 3311,2712 3360,2708 3399,2704 3443,2704 " style="fill: white; stroke: black; stroke-width: 30" />
<polyline points="-3310,4296 -3340,4296 -3349,4304 -3361,4346 -3370,4460 -3383,4579 -3392,4645 -3392,4678 -3392,4678 -3388,4666 -3383,4585 -3381,4438 -3377,4342 -3382,4314 -3383,4315 -3387,4326 -3388,4353 -3384,4434 -3371,4527 -3346,4575 -3290,4599 -3226,4601 -3167,4589 -3132,4553 -3108,4467 -3102,4386 -3111,4366 -3121,4363 -3141,4373 -3167,4401 -3171,4440 " style="fill: white; stroke: black; stroke-width: 30" />
<polyline points="-3094,4587 -3082,4584 -3063,4569 -3025,4545 -3000,4506 -2982,4479 -2979,4450 -2982,4449 -3010,4445 -3051,4478 -3064,4537 -3047,4599 -3005,4619 -2967,4617 -2934,4588 -2915,4557 -2901,4536 -2893,4527 -2888,4519 -2887,4513 -2889,4506 -2890,4504 -2896,4504 -2902,4507 -2905,4511 -2912,4517 -2920,4528 -2923,4548 -2917,4575 -2902,4606 -2881,4611 -2845,4612 -2818,4595 -2804,4575 -2808,4538 -2828,4508 -2847,4502 -2862,4507 -2869,4514 -2870,4518 -2869,4519 -2867,4519 -2862,4516 " style="fill: white; stroke: black; stroke-width: 30" />
<polyline points="-2442,4387 -2487,4363 -2556,4363 -2637,4390 -2710,4456 -2744,4540 -2728,4613 -2659,4652 -2554,4649 -2461,4610 -2420,4568 -2419,4547 -2436,4525 -2443,4521 -2441,4519 -2439,4519 -2440,4518 -2441,4513 -2437,4502 -2425,4499 -2407,4502 -2387,4521 -2372,4558 -2368,4592 -2374,4606 -2396,4612 -2430,4602 -2462,4577 -2474,4563 -2471,4563 -2466,4559 -2420,4547 " style="fill: white; stroke: black; stroke-width: 30" />
<polyline points="-2302,4616 -2302,4612 -2300,4601 -2298,4584 -2290,4546 -2287,4529 -2286,4527 -2283,4535 -2264,4549 -2218,4561 -2171,4547 -2124,4492 -2094,4409 -2095,4359 -2100,4347 -2102,4354 -2115,4413 -2136,4546 -2141,4632 -2141,4670 -2140,4667 -2146,4631 -2140,4577 -2137,4570 -2135,4572 -2123,4581 -2088,4588 -2051,4585 -2023,4577 -2013,4563 -2015,4551 -2028,4547 -2042,4557 -2044,4589 -2030,4621 -1998,4638 -1948,4629 -1898,4617 " style="fill: white; stroke: black; stroke-width: 30" />
<polyline points="-1891,4665 -1907,4664 -1888,4643 -1830,4586 -1777,4534 -1757,4512 -1759,4515 -1769,4522 " style="fill: white; stroke: black; stroke-width: 30" />
<polyline points="-1873,4504 -1882,4503 -1876,4506 -1859,4543 -1818,4616 -1767,4707 " style="fill: white; stroke: black; stroke-width: 30" />
<polyline points="-3188,4806 -3186,4807 -3191,4815 -3212,4870 -3244,5003 -3276,5115 -3273,5153 -3262,5156 -3241,5146 -3213,5139 -3195,5132 -3176,5124 -3127,5108 -3077,5094 -3049,5085 -3041,5087 -3045,5086 -3048,5084 -3048,5082 -3054,5071 " style="fill: white; stroke: black; stroke-width: 30" />
<polyline points="-3070,4998 -3074,4994 -3069,4994 -3064,4996 -3046,4999 -3009,5015 -2975,5030 -2949,5047 -2939,5056 -2942,5063 -2942,5072 -2945,5079 -2952,5081 -2965,5090 -2974,5098 -2984,5103 -2985,5101 -2987,5100 -2989,5095 -2993,5091 -2998,5089 -3003,5088 -2996,5087 -2995,5078 " style="fill: white; stroke: black; stroke-width: 30" />
<polyline points="-2505,4900 -2502,4890 -2505,4892 -2528,4897 -2577,4908 -2620,4929 -2641,4940 -2640,4947 -2641,4954 -2644,4975 -2643,5006 -2625,5047 -2589,5096 -2568,5125 -2564,5134 -2578,5138 -2610,5140 -2662,5135 -2722,5110 -2754,5092 -2758,5085 -2741,5082 -2684,5076 " style="fill: white; stroke: black; stroke-width: 30" />
<polyline points="-2525,5057 -2522,5062 -2497,5056 -2455,5036 -2425,5010 -2428,5001 -2447,4992 -2489,4996 -2534,5029 -2562,5086 -2550,5114 -2500,5132 -2421,5133 -2365,5120 -2338,5104 -2339,5096 -2339,5079 -2348,5049 -2343,5037 -2336,5032 -2332,5034 -2324,5037 -2285,5040 " style="fill: white; stroke: black; stroke-width: 30" />
<polyline points="-2205,5008 -2206,5004 -2203,5003 -2202,5005 -2204,5007 -2211,5012 -2220,5020 -2229,5040 -2236,5064 -2226,5103 -2203,5126 -2166,5140 -2128,5134 -2087,5114 -2065,5079 -2071,5065 -2089,5064 -2093,5075 -2089,5091 -2065,5119 -2020,5137 -1968,5138 -1928,5121 -1920,5106 -1937,5083 -1968,5068 -1993,5078 -1987,5089 -1959,5121 -1909,5145 -1866,5146 -1840,5138 -1832,5124 -1829,5104 -1824,5097 -1818,5097 -1804,5089 -1773,5073 " style="fill: white; stroke: black; stroke-width: 30" />
<polyline points="-2633,5380 -2636,5382 -2645,5375 " style="fill: white; stroke: black; stroke-width: 30" />
<polyline points="-2644,5326 -2645,5324 -2646,5323 -2646,5326 -2650,5324 -2664,5324 -2693,5323 -2725,5335 -2776,5363 -2816,5397 -2832,5409 -2834,5415 -2817,5416 -2762,5421 -2677,5395 -2594,5337 -2541,5280 -2532,5258 -2533,5254 -2545,5257 -2544,5262 -2543,5269 -2544,5294 -2545,5346 -2538,5383 -2521,5413 -2493,5432 -2451,5437 -2395,5416 -2357,5378 -2344,5349 -2354,5348 -2375,5351 -2404,5365 -2415,5386 -2417,5418 -2400,5430 -2366,5435 -2317,5431 -2268,5426 " style="fill: white; stroke: black; stroke-width: 30" />
<polyline points="-2196,5295 -2198,5300 -2206,5309 -2216,5324 -2227,5329 -2236,5348 -2235,5383 -2229,5406 -2200,5428 -2164,5433 -2121,5409 -2104,5384 -2109,5369 -2134,5358 -2149,5359 -2150,5367 -2143,5367 -2127,5372 -2097,5383 -2082,5393 -2054,5395 -2022,5381 -1983,5357 -1970,5332 -1965,5308 -1971,5297 -1997,5295 -2029,5319 -2045,5351 -2034,5391 -1999,5413 -1950,5426 -1914,5421 -1895,5411 -1889,5387 -1882,5369 -1873,5342 -1857,5319 -1845,5295 -1843,5269 " style="fill: white; stroke: black; stroke-width: 30" />
<polyline points="-1840,5232 -1842,5229 -1848,5225 -1851,5225 -1855,5223 -1856,5224 -1859,5223 -1864,5228 -1870,5238 -1882,5278 -1884,5319 -1869,5374 -1848,5418 -1818,5445 " style="fill: white; stroke: black; stroke-width: 30" />
<polyline points="-1726,5297 -1733,5298 -1739,5299 -1752,5310 -1773,5340 -1779,5375 -1766,5394 -1738,5403 -1708,5393 -1698,5380 -1707,5366 -1714,5357 -1720,5357 -1716,5359 -1707,5358 -1692,5353 -1672,5339 -1650,5324 -1629,5303 -1616,5291 -1612,5288 -1616,5290 -1625,5294 -1634,5299 -1631,5301 -1631,5304 -1636,5329 -1650,5416 -1672,5530 -1676,5639 -1665,5685 -1659,5689 -1653,5667 -1656,5581 -1663,5432 -1644,5352 -1617,5325 -1556,5321 -1508,5339 -1506,5368 -1536,5391 -1564,5395 -1588,5392 -1590,5387 -1602,5363 " style="fill: white; stroke: black; stroke-width: 30" />
<polyline points="-2629,12127 -2642,12119 -2660,12109 -2678,12103 -2684,12096 -2690,12094 -2690,12090 -2678,12092 -2667,12089 -2561,12094 -2362,12074 -2092,12050 -1734,12031 -1328,12032 -1002,12042 -761,12060 -652,12068 -633,12066 -631,12062 -635,12058 -644,12053 -641,12051 -660,12049 -662,12048 -662,12046 -655,12047 -659,12046 -657,12047 " style="fill: white; stroke: black; stroke-width: 30" />
<polyline points="-3294,12766 -3281,12765 -3261,12747 -3197,12701 -3148,12622 -3086,12567 -3069,12529 -3037,12515 -3030,12515 " style="fill: white; stroke: black; stroke-width: 30" />
<polyline points="-3328,12551 -3343,12548 -3337,12546 -3324,12545 -3279,12552 -3220,12577 -3160,12616 -3057,12673 " style="fill: white; stroke: black; stroke-width: 30" />
<polyline points="-3103,12469 -3124,12481 -3136,12498 -3142,12543 -3150,12618 -3159,12688 -3159,12772 " style="fill: white; stroke: black; stroke-width: 30" />
<polyline points="-2640,12494 -2656,12487 -2669,12488 -2686,12499 -2780,12516 -2860,12553 -2881,12582 -2862,12630 -2827,12682 -2811,12725 -2817,12756 -2837,12776 -2854,12768 -2868,12752 -2863,12729 -2869,12698 -2850,12695 -2826,12711 " style="fill: white; stroke: black; stroke-width: 30" />
<polyline points="-2642,12615 -2648,12595 -2671,12582 -2669,12587 -2694,12595 -2715,12635 -2736,12673 -2713,12697 -2708,12699 -2679,12707 -2658,12703 -2608,12681 -2590,12645 -2564,12626 -2568,12624 -2578,12624 -2576,12623 -2576,12625 -2569,12628 -2584,12627 -2586,12626 -2591,12625 -2591,12625 -2582,12629 -2586,12627 -2577,12630 -2584,12627 -2577,12629 -2579,12629 -2575,12632 -2575,12631 -2577,12631 -2572,12632 -2567,12633 -2578,12634 " style="fill: white; stroke: black; stroke-width: 30" />
<polyline points="-2593,12472 -2621,12490 -2638,12556 -2710,12661 -2765,12738 -2797,12803 -2796,12846 " style="fill: white; stroke: black; stroke-width: 30" />
<polyline points="-2495,12622 -2527,12621 -2561,12626 -2604,12649 -2664,12673 -2698,12701 -2713,12701 -2711,12700 -2674,12709 -2646,12718 -2601,12736 -2530,12752 -2455,12743 " style="fill: white; stroke: black; stroke-width: 30" />
<polyline points="-2383,12532 -2405,12548 -2434,12579 -2482,12646 -2481,12706 -2487,12739 -2459,12752 -2407,12741 -2343,12698 -2318,12667 -2309,12662 -2311,12672 -2335,12710 -2361,12766 -2362,12817 -2354,12855 -2334,12859 " style="fill: white; stroke: black; stroke-width: 30" />
<polyline points="-2243,12767 -2254,12774 -2250,12767 -2233,12744 -2218,12697 -2187,12661 -2178,12640 -2152,12632 -2140,12633 -2130,12650 -2126,12684 -2135,12723 -2133,12740 -2139,12747 -2101,12746 -2057,12720 -2024,12682 -2016,12647 -2030,12628 -2063,12630 -2094,12658 -2104,12705 -2071,12744 -2011,12760 -1944,12730 -1857,12675 " style="fill: white; stroke: black; stroke-width: 30" />
<polyline points="-1767,12502 -1776,12461 -1782,12453 -1800,12461 -1823,12475 -1815,12483 -1820,12482 -1818,12484 -1815,12484 -1816,12491 -1834,12527 -1860,12606 -1877,12690 -1882,12761 -1886,12790 -1869,12788 -1871,12750 -1874,12708 -1876,12688 -1865,12675 -1846,12664 -1811,12660 -1749,12656 " style="fill: white; stroke: black; stroke-width: 30" />
<polyline points="-1301,12581 -1321,12566 -1346,12555 -1375,12554 -1433,12561 -1478,12595 -1495,12636 -1492,12673 -1482,12710 -1457,12748 -1450,12776 -1462,12789 -1492,12796 -1519,12794 -1537,12783 -1543,12775 -1550,12769 -1545,12769 -1552,12769 -1545,12771 -1538,12770 -1540,12770 -1545,12767 -1545,12767 -1550,12766 -1552,12768 -1562,12766 -1550,12768 -1564,12765 -1562,12767 -1562,12765 -1564,12767 -1557,12766 -1567,12765 -1559,12766 -1547,12765 -1556,12760 -1549,12760 -1568,12757 -1556,12756 -1551,12756 -1546,12756 -1543,12751 -1538,12748 -1571,12723 -1591,12707 -1628,12686 -1629,12677 -1634,12673 -1641,12673 -1622,12676 -1627,12678 -1616,12684 " style="fill: white; stroke: black; stroke-width: 30" />
<polyline points="-1454,12487 -1481,12450 -1521,12427 -1558,12414 -1561,12417 -1563,12418 -1554,12422 -1531,12429 -1508,12437 -1471,12452 -1398,12480 -1292,12521 " style="fill: white; stroke: black; stroke-width: 30" />
<polyline points="-1284,12629 -1305,12628 -1334,12646 -1358,12687 -1341,12714 -1309,12737 -1263,12738 -1192,12708 -1151,12681 -1151,12678 -1168,12684 -1183,12713 -1169,12749 " style="fill: white; stroke: black; stroke-width: 30" />
<polyline points="-989,12518 -1030,12523 -1056,12556 -1082,12631 -1102,12706 -1117,12764 -1107,12789 " style="fill: white; stroke: black; stroke-width: 30" />
<polyline points="-975,12653 -1026,12652 -1055,12653 -1087,12665 -1098,12680 -1094,12689 -1073,12703 -1058,12720 -1018,12738 -944,12751 " style="fill: white; stroke: black; stroke-width: 30" />
<polyline points="-881,12678 -888,12678 -876,12681 -889,12685 -913,12698 -929,12711 -951,12716 -949,12720 -944,12717 -956,12718 -944,12722 -931,12742 -913,12761 -868,12778 -790,12772 " style="fill: white; stroke: black; stroke-width: 30" />
<polyline points="-670,12499 -675,12508 -688,12535 -688,12584 -728,12646 -733,12699 -743,12746 -752,12772 -756,12765 -722,12716 -702,12615 -688,12539 -684,12498 -681,12488 -676,12490 -658,12498 -642,12516 -615,12544 -609,12576 -643,12623 -688,12657 -710,12678 -708,12687 -688,12715 -678,12743 -682,12770 -712,12794 -730,12808 -736,12802 -757,12777 -768,12754 -769,12738 " style="fill: white; stroke: black; stroke-width: 30" />
<polyline points="-571,12728 -584,12700 -590,12667 -567,12646 -512,12642 -453,12661 -459,12689 -494,12727 -541,12759 -597,12764 -608,12755 -600,12736 -600,12720 -553,12697 -495,12679 " style="fill: white; stroke: black; stroke-width: 30" />
<polyline points="-442,12762 -457,12751 -451,12736 -405,12715 -347,12685 -315,12664 -300,12653 -310,12652 -310,12650 -319,12651 -334,12653 -331,12656 -332,12658 -327,12656 -334,12645 -357,12632 -376,12622 -428,12621 -447,12627 -453,12641 -435,12675 -431,12719 -387,12761 -354,12800 -319,12827 " style="fill: white; stroke: black; stroke-width: 30" />
<polyline points="-101,12487 -113,12479 -106,12479 -106,12492 -99,12522 -99,12546 -102,12565 -107,12576 -111,12583 -104,12585 -114,12584 -114,12585 -109,12583 -107,12585 -111,12586 -100,12588 -102,12590 -93,12592 -104,12591 -107,12596 -105,12612 -136,12649 -148,12694 -175,12745 -173,12781 -171,12813 -152,12842 -131,12881 " style="fill: white; stroke: black; stroke-width: 30" />
<polyline points="57,12676 40,12671 40,12669 45,12675 4,12692 -72,12735 -183,12790 -276,12846 -321,12896 " style="fill: white; stroke: black; stroke-width: 30" />
<polyline points="-234,12675 -225,12693 -208,12709 -190,12738 -159,12773 -80,12816 " style="fill: white; stroke: black; stroke-width: 30" />

</svg>