<?xml version="1.0" standalone="no"?>
<!DOCTYPE svg PUBLIC "-//W3C//DTD SVG 1.1//EN" "http://www.w3.org/Graphics/SVG/1.1/DTD/svg11.dtd">
<svg width="210mm" height="297mm" viewBox="-7000 500 14000 20000" version="1.1" xmlns="http://www.w3.org/2000/svg">

<polyline points="-2749,1458 -2753,1454 -2764,1448 -2787,1439 -2820,1423 -2877,1419 -2961,1456 -3048,1539 -3075,1624 -3046,1689 -2958,1729 -2839,1718 -2746,1657 -2701,1590 -2703,1535 -2737,1502 -2771,1489 -2802,1480 -2810,1473 -2808,1474 -2804,1472 -2803,1468 -2788,1455 " style="fill: white; stroke: black; stroke-width: 30" />
<polyline points="-2633,1639 -2644,1668 -2647,1675 -2644,1676 -2640,1664 -2641,1615 -2633,1574 -2624,1552 -2602,1552 -2559,1574 -2514,1629 -2492,1665 -2490,1675 -2492,1677 -2487,1666 " style="fill: white; stroke: black; stroke-width: 30" />
<polyline points="-1971,1575 -1979,1577 -1986,1582 -1996,1608 -2003,1651 -2002,1705 -1993,1728 -1981,1731 -1969,1703 -1962,1653 -1954,1618 -1956,1609 -1957,1612 -1962,1620 -1965,1646 -1970,1680 -1966,1714 -1959,1731 " style="fill: white; stroke: black; stroke-width: 30" />
<polyline points="-1696,1717 -1695,1717 -1684,1706 -1673,1690 -1657,1654 -1635,1592 -1601,1513 -1579,1467 -1568,1449 -1570,1449 -1569,1451 -1573,1459 -1576,1466 -1581,1493 -1570,1532 -1529,1596 -1469,1653 -1418,1692 -1390,1717 " style="fill: white; stroke: black; stroke-width: 30" />
<polyline points="-1738,1578 -1740,1574 -1713,1563 -1681,1554 -1650,1554 -1588,1558 -1496,1556 -1403,1539 " style="fill: white; stroke: black; stroke-width: 30" />
<polyline points="-1243,1502 -1258,1497 -1274,1488 -1294,1486 -1326,1491 -1362,1506 -1369,1523 -1364,1568 -1335,1625 -1305,1674 -1293,1700 -1295,1709 -1303,1708 -1332,1697 -1363,1673 -1389,1658 -1391,1653 -1368,1637 -1303,1581 " style="fill: white; stroke: black; stroke-width: 30" />
<polyline points="-1125,1429 -1084,1400 -1094,1403 -1113,1427 -1129,1472 -1150,1554 -1160,1639 -1158,1694 -1159,1711 -1159,1709 -1163,1680 -1167,1625 -1163,1599 -1161,1595 -1156,1593 -1144,1597 -1116,1614 -1092,1648 -1063,1681 -1038,1702 -1027,1702 -1025,1693 -1022,1672 -1020,1634 -1009,1575 -1006,1556 -1004,1551 -1003,1557 -989,1569 -943,1593 -889,1600 -851,1601 -847,1603 -851,1611 -857,1629 -869,1672 -872,1704 -872,1715 -867,1704 " style="fill: white; stroke: black; stroke-width: 30" />
<polyline points="-812,1497 -828,1485 -830,1481 -830,1478 -827,1464 -821,1416 " style="fill: white; stroke: black; stroke-width: 30" />
<polyline points="-614,1616 -619,1611 -619,1605 -621,1607 -628,1606 -637,1606 -650,1603 -674,1605 -722,1617 -776,1656 -798,1686 -788,1709 -731,1732 -635,1719 -537,1653 -474,1576 -464,1526 -474,1517 -481,1519 -480,1531 -475,1559 -473,1625 -462,1700 -443,1752 " style="fill: white; stroke: black; stroke-width: 30" />
<polyline points="-61,1661 -62,1663 -56,1660 -33,1652 -11,1650 31,1654 100,1656 167,1629 " style="fill: white; stroke: black; stroke-width: 30" />
<polyline points="129,1541 104,1583 78,1656 66,1726 83,1769 " style="fill: white; stroke: black; stroke-width: 30" />
<polyline points="401,1535 376,1530 368,1532 365,1545 353,1617 331,1714 325,1759 323,1768 325,1758 332,1688 356,1576 390,1510 443,1467 491,1464 523,1484 521,1533 477,1589 416,1611 347,1597 341,1585 349,1578 385,1576 472,1593 568,1610 675,1595 753,1561 778,1518 758,1484 716,1459 678,1466 651,1522 618,1685 607,1830 610,1918 602,1944 594,1907 606,1802 629,1727 655,1691 659,1689 669,1687 706,1681 757,1662 815,1637 832,1627 833,1627 831,1626 830,1631 821,1646 810,1707 809,1758 830,1775 881,1708 " style="fill: white; stroke: black; stroke-width: 30" />
<polyline points="946,1503 938,1484 933,1483 936,1486 940,1488 946,1514 " style="fill: white; stroke: black; stroke-width: 30" />
<polyline points="1090,1660 1028,1661 986,1671 976,1687 975,1706 975,1710 969,1709 944,1703 929,1696 934,1699 959,1703 1000,1705 1065,1689 1157,1669 1259,1637 1356,1592 1423,1533 1461,1460 1488,1384 1501,1360 1496,1363 1476,1382 1422,1447 1353,1547 1293,1653 1269,1711 1267,1736 1276,1728 1299,1674 1321,1632 1328,1619 1330,1621 1341,1622 1374,1628 1421,1618 1458,1607 1462,1604 1460,1604 1455,1602 1446,1605 1417,1615 1383,1639 1377,1676 1395,1720 1424,1741 1448,1740 1478,1704 1511,1645 1526,1597 1533,1584 1537,1584 1555,1590 1581,1603 1615,1621 1657,1628 1682,1627 1699,1611 1721,1580 1730,1545 1709,1534 1664,1550 1633,1618 1635,1683 1675,1739 1739,1762 1807,1746 1846,1698 1873,1648 1884,1611 1899,1572 1900,1557 1906,1560 1920,1566 2004,1577 2118,1598 " style="fill: white; stroke: black; stroke-width: 30" />
<polyline points="2521,1831 2517,1829 2519,1826 2542,1823 2604,1811 2704,1769 2804,1701 2867,1623 2861,1575 2808,1555 2721,1568 2653,1622 2636,1691 2672,1749 2737,1794 2805,1819 2849,1820 2881,1795 2898,1760 2896,1740 2885,1732 2869,1731 2837,1732 2821,1740 2815,1752 2828,1767 2853,1800 2891,1822 2925,1839 2983,1850 " style="fill: white; stroke: black; stroke-width: 30" />
<polyline points="3162,1701 3145,1671 3097,1668 3021,1715 2970,1790 2980,1847 3025,1875 3078,1868 3109,1839 3113,1823 3107,1825 3103,1839 3095,1900 3084,2000 3063,2083 3028,2133 2985,2142 2942,2100 2908,1984 2929,1882 3014,1810 3133,1773 3243,1756 3297,1753 3290,1766 3282,1783 3271,1805 3269,1816 3267,1829 3266,1846 3271,1848 3276,1851 3294,1830 " style="fill: white; stroke: black; stroke-width: 30" />
<polyline points="3351,1647 3341,1623 3341,1597 3341,1591 3346,1586 3350,1593 3391,1594 " style="fill: white; stroke: black; stroke-width: 30" />
<polyline points="3527,1618 3508,1619 3487,1628 3430,1717 3368,1831 3338,1911 3331,1931 3336,1914 3356,1842 3376,1786 3382,1778 3390,1779 3424,1799 3475,1809 3538,1799 3577,1784 3574,1782 3566,1789 3533,1835 3509,1888 3503,1923 3525,1910 3600,1811 3663,1674 3669,1621 3664,1617 3659,1623 3668,1619 3679,1635 " style="fill: white; stroke: black; stroke-width: 30" />
<polyline points="3680,1822 3665,1834 3659,1848 3652,1879 3649,1902 3650,1907 3648,1899 3648,1887 3658,1868 3689,1848 3743,1840 3799,1842 3807,1852 3783,1880 3755,1900 3758,1903 3779,1899 3818,1906 3832,1918 3834,1944 3843,1962 3897,1958 " style="fill: white; stroke: black; stroke-width: 30" />
<polyline points="4145,1835 4094,1860 4043,1890 4024,1913 4020,1927 4029,1925 4045,1914 4109,1837 4176,1721 4202,1635 4188,1610 4174,1622 4173,1625 4173,1635 4177,1653 4187,1681 " style="fill: white; stroke: black; stroke-width: 30" />
<polyline points="4161,1861 4165,1870 4201,1869 4233,1863 4246,1853 4246,1838 4214,1839 4171,1871 4142,1920 4149,1968 4171,1995 4202,2005 4241,1976 4276,1935 4279,1919 4282,1916 4283,1933 4295,1960 4309,1976 4320,1981 4334,1977 4382,1971 4437,1976 4462,1993 4451,2026 4442,2046 4446,2053 4496,2055 " style="fill: white; stroke: black; stroke-width: 30" />
<polyline points="-1496,2019 -1505,2022 -1520,2021 -1539,2021 -1587,2028 -1654,2052 -1698,2071 -1698,2078 -1670,2121 -1633,2164 -1612,2204 -1619,2225 -1628,2228 -1661,2220 -1689,2198 -1690,2191 -1665,2185 " style="fill: white; stroke: black; stroke-width: 30" />
<polyline points="-1308,2125 -1299,2101 -1325,2075 -1371,2070 -1422,2088 -1451,2131 -1442,2186 -1396,2232 -1333,2241 -1283,2215 -1271,2180 -1287,2151 -1319,2123 -1334,2121 -1332,2119 -1320,2123 -1288,2141 -1242,2148 -1169,2127 -1100,2081 -1047,2020 -1047,1986 -1067,1973 " style="fill: white; stroke: black; stroke-width: 30" />
<polyline points="-578,1929 -592,1910 -600,1905 -609,1921 -637,2019 -663,2160 -663,2248 -651,2277 -648,2256 -664,2182 -686,2105 -699,2083 -694,2080 -678,2080 -620,2078 -527,2067 -436,2046 -386,2034 -388,2036 -414,2040 -438,2036 -455,2024 -476,2009 -505,2012 -541,2047 -551,2102 -529,2158 -481,2209 -413,2230 -363,2231 -353,2218 -361,2196 -370,2160 -372,2104 -364,2059 -349,2033 -329,2016 -307,2022 -266,2081 " style="fill: white; stroke: black; stroke-width: 30" />
<polyline points="-176,2175 -187,2188 -203,2225 -217,2271 -222,2296 -219,2297 -214,2270 -203,2207 -193,2146 -178,2122 -148,2109 -88,2111 -27,2122 " style="fill: white; stroke: black; stroke-width: 30" />
<polyline points="33,2169 9,2152 -9,2133 -36,2126 -75,2153 -87,2214 -66,2262 -31,2281 -1,2251 25,2191 18,2139 0,2134 -4,2142 1,2189 29,2235 52,2277 63,2294 76,2292 100,2254 124,2201 135,2164 139,2160 142,2163 159,2171 215,2173 290,2170 351,2164 353,2163 340,2166 330,2186 327,2218 331,2248 342,2257 " style="fill: white; stroke: black; stroke-width: 30" />
<polyline points="462,1980 438,1958 434,1951 439,1954 445,1959 " style="fill: white; stroke: black; stroke-width: 30" />
<polyline points="538,2222 502,2201 462,2182 450,2183 451,2197 460,2252 470,2303 464,2339 440,2347 410,2334 386,2309 383,2296 403,2280 " style="fill: white; stroke: black; stroke-width: 30" />
<polyline points="552,2239 551,2235 553,2232 553,2232 553,2231 555,2229 557,2225 561,2222 573,2210 590,2199 628,2166 674,2134 692,2126 697,2137 698,2174 697,2211 709,2237 733,2243 761,2237 775,2238 776,2242 777,2256 784,2264 818,2270 886,2247 924,2232 " style="fill: white; stroke: black; stroke-width: 30" />
<polyline points="1023,2175 1020,2173 1021,2171 1017,2178 995,2212 970,2258 974,2275 990,2278 1037,2259 1085,2238 1099,2236 1091,2249 1086,2289 1099,2321 " style="fill: white; stroke: black; stroke-width: 30" />
<polyline points="1332,2155 1300,2144 1291,2147 1280,2200 1258,2274 1237,2341 1221,2360 1212,2356 1204,2339 1201,2327 1205,2324 1211,2305 " style="fill: white; stroke: black; stroke-width: 30" />
<polyline points="1711,2278 1706,2280 1685,2303 1643,2370 1623,2424 " style="fill: white; stroke: black; stroke-width: 30" />
<polyline points="2152,2131 2156,2129 2152,2136 2124,2204 2060,2320 2032,2388 2033,2413 2062,2405 " style="fill: white; stroke: black; stroke-width: 30" />
<polyline points="2036,2099 2019,2097 2013,2094 2024,2090 2064,2083 2150,2083 2266,2086 2354,2099 " style="fill: white; stroke: black; stroke-width: 30" />
<polyline points="2015,2236 2015,2234 2041,2235 2107,2246 2175,2257 2250,2268 " style="fill: white; stroke: black; stroke-width: 30" />
<polyline points="2377,2227 2358,2223 2341,2218 2319,2224 2263,2255 2223,2305 2231,2333 2263,2360 2317,2351 2360,2310 2369,2258 2354,2215 2336,2204 2335,2213 2344,2233 2371,2284 2405,2306 2471,2298 2563,2235 2663,2142 2700,2067 2686,2040 2654,2037 2597,2084 2544,2181 2540,2265 2567,2315 2615,2340 2675,2321 " style="fill: white; stroke: black; stroke-width: 30" />
<polyline points="2854,2082 2856,2073 2847,2085 2800,2163 2708,2286 2667,2360 2659,2380 2667,2365 2700,2308 2740,2273 2762,2269 2808,2283 2872,2303 2936,2310 2952,2296 2934,2281 2895,2289 2875,2335 2887,2390 2930,2429 2999,2424 3066,2367 3119,2275 3138,2235 3142,2225 3158,2228 3227,2243 3311,2268 " style="fill: white; stroke: black; stroke-width: 30" />
<polyline points="3518,2355 3512,2350 3501,2352 3486,2363 3464,2390 3419,2457 3385,2557 " style="fill: white; stroke: black; stroke-width: 30" />
<polyline points="-1542,2449 -1555,2450 -1575,2476 -1611,2579 -1633,2684 -1625,2739 -1612,2740 -1582,2698 -1553,2596 -1548,2510 -1550,2471 -1554,2468 -1556,2471 -1555,2494 -1549,2554 -1528,2618 -1481,2660 -1415,2668 -1333,2627 -1261,2550 -1227,2508 -1230,2509 -1240,2523 -1264,2572 -1276,2650 -1253,2708 -1205,2741 -1134,2737 -1065,2696 -1037,2657 -1046,2630 -1075,2624 -1112,2636 -1134,2665 -1115,2705 -1064,2740 -995,2747 -954,2752 -953,2752 -955,2736 -941,2690 -917,2653 -891,2637 -874,2642 -865,2658 -865,2698 -866,2729 " style="fill: white; stroke: black; stroke-width: 30" />
<polyline points="-652,2607 -669,2600 -683,2602 -695,2628 -696,2679 -676,2730 -666,2761 -674,2776 -692,2779 -721,2772 -741,2750 -741,2738 -730,2720 -698,2705 " style="fill: white; stroke: black; stroke-width: 30" />
<polyline points="-460,2633 -494,2612 -539,2621 -572,2671 -572,2716 -547,2744 -494,2733 -423,2666 -358,2571 -344,2517 -353,2502 -361,2512 -373,2553 -363,2608 -340,2632 -307,2640 -288,2643 -283,2670 -271,2700 -222,2712 -138,2683 " style="fill: white; stroke: black; stroke-width: 30" />
<polyline points="-77,2631 -78,2634 -75,2633 -57,2624 -56,2606 -71,2598 -95,2603 -122,2636 -127,2671 -119,2693 -98,2699 -83,2695 -61,2673 -43,2652 -16,2634 20,2624 62,2627 78,2643 76,2665 71,2690 69,2703 " style="fill: white; stroke: black; stroke-width: 30" />
<polyline points="232,2723 239,2718 256,2708 300,2680 364,2628 400,2583 380,2553 312,2555 222,2597 194,2644 230,2712 323,2753 446,2749 " style="fill: white; stroke: black; stroke-width: 30" />
<polyline points="496,2769 497,2766 515,2750 562,2711 630,2651 691,2592 700,2556 672,2535 607,2537 550,2556 535,2567 543,2597 577,2648 625,2702 681,2730 750,2726 825,2680 863,2638 865,2604 858,2589 857,2589 858,2593 857,2594 858,2596 856,2596 855,2600 847,2630 820,2726 785,2858 772,2950 771,2993 776,2988 799,2929 830,2818 857,2672 868,2595 883,2576 898,2583 913,2616 911,2663 897,2692 868,2703 821,2686 822,2676 832,2673 880,2682 965,2689 1055,2681 1126,2652 1141,2621 1118,2590 1084,2588 1065,2612 1068,2683 1091,2732 1124,2754 1162,2735 1199,2681 1229,2607 1241,2570 1244,2566 1250,2573 1270,2592 1318,2624 1364,2634 1411,2624 1420,2615 1419,2615 1411,2631 1406,2676 1400,2722 1401,2749 1406,2740 1439,2655 " style="fill: white; stroke: black; stroke-width: 30" />
<polyline points="1572,2439 1573,2415 1572,2404 1573,2398 1572,2374 1573,2343 " style="fill: white; stroke: black; stroke-width: 30" />
<polyline points="1584,2653 1569,2670 1554,2682 1552,2686 1559,2680 1580,2662 1618,2633 1669,2607 1684,2605 1691,2612 1699,2629 1705,2664 1701,2702 1696,2740 1696,2746 1700,2744 1702,2736 1706,2727 1709,2718 1738,2695 1792,2668 1825,2659 1826,2663 1826,2671 1826,2674 1831,2674 1844,2673 1867,2664 1895,2651 1931,2627 1962,2588 1971,2569 1962,2568 1947,2569 1930,2571 1909,2581 1890,2598 1864,2634 1827,2685 1823,2713 1834,2734 1867,2754 1919,2753 1964,2739 1993,2721 " style="fill: white; stroke: black; stroke-width: 30" />
<polyline points="1972,2772 1970,2757 1987,2717 2024,2675 2064,2661 2088,2675 2098,2706 2101,2747 2094,2773 2098,2780 2118,2751 2168,2704 2207,2671 2238,2649 2262,2631 2286,2614 2315,2593 2339,2578 2335,2580 2330,2587 2304,2613 2245,2689 2186,2769 2163,2813 2163,2818 2168,2808 2175,2786 2189,2763 2199,2756 2223,2756 2273,2763 2317,2771 2328,2768 2328,2757 2325,2744 2323,2738 2323,2730 2324,2722 2320,2723 2320,2727 2320,2730 2323,2736 2327,2733 2329,2731 2329,2723 2328,2713 2310,2715 2285,2723 2253,2751 2238,2786 2242,2821 2256,2857 2308,2887 " style="fill: white; stroke: black; stroke-width: 30" />
<polyline points="-2067,1301 -2069,1307 -2079,1310 -2116,1333 -2184,1418 -2237,1564 -2214,1731 -2100,1891 -1959,1982 " style="fill: white; stroke: black; stroke-width: 30" />
<polyline points="2672,2554 2665,2553 2659,2553 2650,2566 2629,2608 2603,2667 2602,2699 2625,2709 " style="fill: white; stroke: black; stroke-width: 30" />
<polyline points="2733,2626 2772,2580 2770,2571 2762,2575 2752,2581 2746,2595 2727,2637 2695,2725 2705,2776 " style="fill: white; stroke: black; stroke-width: 30" />
<polyline points="3190,2735 3190,2730 3192,2730 3209,2728 3227,2741 3242,2763 3237,2776 3225,2779 3215,2765 3205,2738 3201,2729 3206,2725 3210,2723 3216,2725 3217,2731 3219,2741 3215,2749 3213,2747 3204,2741 3204,2732 3207,2727 3218,2723 " style="fill: white; stroke: black; stroke-width: 30" />
<polyline points="3221,2825 3204,2830 3197,2834 3177,2862 3120,2944 3019,3057 2941,3171 " style="fill: white; stroke: black; stroke-width: 30" />
<polyline points="-1584,2956 -1591,2962 -1600,2978 -1612,3058 -1628,3179 -1620,3259 -1599,3293 -1575,3262 " style="fill: white; stroke: black; stroke-width: 30" />
<polyline points="-1631,2943 -1662,2917 -1689,2890 -1698,2883 -1697,2878 -1675,2878 -1594,2889 -1490,2930 -1416,2969 -1397,2994 -1427,3012 -1512,3043 -1598,3078 -1633,3103 -1615,3133 -1560,3190 -1503,3236 -1501,3274 -1544,3295 -1637,3301 -1700,3281 -1708,3266 -1674,3239 " style="fill: white; stroke: black; stroke-width: 30" />
<polyline points="-1425,3131 -1408,3092 -1387,3056 -1366,3035 -1338,3027 -1298,3041 -1267,3084 -1251,3147 -1255,3195 -1272,3221 -1314,3228 -1375,3206 -1404,3182 -1406,3178 -1392,3181 -1354,3195 -1298,3214 -1247,3223 -1190,3238 " style="fill: white; stroke: black; stroke-width: 30" />
<polyline points="-1003,3044 -1050,3032 -1076,3034 -1086,3047 -1089,3094 -1081,3157 -1073,3216 -1074,3264 -1085,3284 -1112,3286 -1152,3254 -1169,3220 -1166,3201 -1135,3184 -1048,3152 -943,3114 -838,3054 -762,2980 -751,2946 -764,2939 -785,2951 -836,3041 -884,3158 -899,3233 -896,3254 -896,3247 -860,3202 -808,3166 -778,3160 -766,3184 -764,3225 -754,3265 " style="fill: white; stroke: black; stroke-width: 30" />
<polyline points="-430,2925 -393,2961 -359,3043 -374,3152 -422,3261 -480,3358 -520,3425 " style="fill: white; stroke: black; stroke-width: 30" />
<polyline points="-3146,3807 -3166,3813 -3159,3811 -3151,3804 -3115,3798 -3067,3799 -2999,3808 -2906,3827 " style="fill: white; stroke: black; stroke-width: 30" />
<polyline points="-2995,3763 -3003,3761 -3012,3764 -3030,3786 -3055,3841 -3075,3901 -3072,3928 -3047,3963 -3003,3995 -2952,4014 -2884,4023 -2801,4020 -2741,4011 -2723,4007 -2717,4008 -2717,4013 -2713,4012 " style="fill: white; stroke: black; stroke-width: 30" />
<polyline points="-2717,3927 -2716,3928 -2690,3937 -2636,3970 -2596,4001 -2582,4034 -2593,4051 -2628,4079 -2675,4092 -2683,4092 -2660,4080 " style="fill: white; stroke: black; stroke-width: 30" />
<polyline points="-1993,4066 -1988,4062 -1965,4051 -1943,4041 -1918,4013 -1905,3972 -1923,3941 -1986,3928 -2091,3953 -2159,3996 -2166,4007 -2126,4012 -2042,3997 -1968,3985 -1957,3983 -1961,3991 -1972,4010 -1980,4057 -1972,4131 -1970,4251 -1984,4357 -2009,4428 -2045,4454 -2091,4435 -2131,4356 -2131,4254 -2075,4188 -1994,4164 -1896,4145 -1813,4125 -1754,4081 -1724,4041 -1720,4015 -1727,4010 -1743,4005 -1790,4003 -1836,4019 -1855,4046 -1854,4079 -1827,4111 -1781,4135 -1695,4144 -1592,4116 " style="fill: white; stroke: black; stroke-width: 30" />
<polyline points="-1522,3913 -1540,3927 " style="fill: white; stroke: black; stroke-width: 30" />
<polyline points="-1505,4084 -1496,4051 -1509,4011 -1546,3994 -1599,4008 -1632,4053 -1619,4103 -1571,4159 -1522,4202 -1504,4266 -1540,4344 -1601,4411 -1644,4433 -1675,4413 -1679,4337 -1648,4265 -1591,4223 -1512,4192 -1421,4164 -1347,4135 -1347,4110 -1400,4097 -1461,4107 -1473,4121 -1448,4151 -1393,4175 -1333,4172 -1290,4141 -1256,4091 -1240,4071 -1233,4068 -1222,4095 -1209,4137 -1206,4166 -1202,4174 " style="fill: white; stroke: black; stroke-width: 30" />
<polyline points="-999,4058 -1026,4074 -1054,4110 -1061,4147 -1044,4159 -1006,4158 -957,4127 -923,4100 -921,4095 -921,4097 -923,4103 -924,4115 -918,4134 -901,4176 -863,4198 " style="fill: white; stroke: black; stroke-width: 30" />
<polyline points="-1002,3920 -1004,3915 -989,3917 -934,3934 -861,3956 -780,3965 -726,3940 -695,3906 -697,3895 -703,3899 -707,3923 -722,3998 -745,4095 -764,4163 -764,4178 -766,4174 -759,4151 -740,4127 -713,4113 -684,4122 -650,4149 -648,4178 -664,4194 -708,4194 -764,4154 -777,4140 -771,4137 -749,4142 -698,4161 -630,4171 -556,4162 -493,4149 -473,4129 -478,4115 -490,4100 -497,4098 -493,4097 -487,4097 -484,4094 -483,4092 -481,4082 -468,4068 -449,4050 -429,4049 -370,4047 -270,4053 -181,4065 " style="fill: white; stroke: black; stroke-width: 30" />
<polyline points="612,3972 598,3969 588,3978 565,4048 531,4174 521,4261 528,4280 540,4261 550,4184 548,4069 554,4006 575,3985 630,3969 693,3980 720,4005 706,4024 646,4042 550,4051 520,4043 522,4040 538,4035 585,4037 666,4041 " style="fill: white; stroke: black; stroke-width: 30" />
<polyline points="967,4076 934,4063 891,4042 845,4034 817,4046 811,4107 842,4193 862,4251 846,4275 806,4287 772,4267 758,4245 778,4225 854,4197 952,4168 1042,4134 1088,4092 1083,4077 1071,4075 1047,4101 1015,4162 1024,4208 1058,4223 1112,4199 1169,4142 1171,4136 1162,4150 1091,4267 996,4432 980,4527 995,4529 " style="fill: white; stroke: black; stroke-width: 30" />
<polyline points="1457,4068 1422,4064 1353,4077 1275,4127 1257,4167 1286,4202 1374,4212 1489,4168 1586,4093 1628,4036 1617,4011 1600,4012 1554,4053 1526,4120 1536,4154 1561,4167 1592,4174 1600,4187 1605,4204 1648,4207 " style="fill: white; stroke: black; stroke-width: 30" />
<polyline points="1769,4193 1762,4200 1765,4185 1768,4155 1774,4134 1771,4134 1770,4145 1755,4192 1732,4242 1702,4266 1677,4246 1668,4194 1688,4130 1712,4113 1764,4115 1887,4119 " style="fill: white; stroke: black; stroke-width: 30" />
<polyline points="2138,4028 2150,3965 2122,3950 2076,3986 1995,4113 1955,4237 1945,4305 1943,4306 1948,4243 1982,4136 1998,4105 2001,4108 2013,4119 2064,4139 2150,4137 2241,4104 2260,4089 2247,4096 2209,4148 2185,4226 2187,4270 2208,4264 2282,4163 2355,3997 2365,3916 2361,3920 2364,3930 2366,3945 2369,3943 2372,3939 2409,3901 " style="fill: white; stroke: black; stroke-width: 30" />
<polyline points="2631,4040 2620,4039 2607,4035 2583,4032 2510,4024 2418,4046 2382,4077 2399,4144 2461,4211 2494,4242 2462,4244 2344,4233 2221,4208 2220,4203 2303,4207 2523,4177 2754,4135 2851,4084 2816,4056 2724,4064 2628,4128 2608,4200 2655,4248 2755,4238 2861,4156 2909,4083 2897,4066 2887,4068 2890,4073 2902,4095 2903,4119 2901,4153 2914,4186 2983,4210 3067,4198 " style="fill: white; stroke: black; stroke-width: 30" />
<polyline points="-2116,4744 -2110,4741 -2080,4736 -1999,4721 -1867,4686 -1740,4659 " style="fill: white; stroke: black; stroke-width: 30" />
<polyline points="-1880,4668 -1906,4670 -1926,4688 -1968,4753 -2011,4843 -2009,4893 -1957,4924 -1841,4949 -1724,4968 -1646,4976 " style="fill: white; stroke: black; stroke-width: 30" />
<polyline points="-1549,4871 -1558,4875 -1560,4882 -1565,4887 -1569,4889 -1580,4896 -1598,4923 -1625,4977 -1650,5023 -1659,5055 -1663,5061 -1665,5061 -1668,5057 -1673,5051 " style="fill: white; stroke: black; stroke-width: 30" />
<polyline points="-1561,4900 -1555,4884 -1554,4883 -1554,4884 -1512,4885 -1446,4909 -1407,4934 -1411,4955 -1476,5001 -1586,5045 -1650,5059 -1653,5058 -1646,5055 -1635,5056 -1617,5067 " style="fill: white; stroke: black; stroke-width: 30" />
<polyline points="-1025,4949 -1015,4957 -1027,4959 -1053,4961 -1127,4965 -1198,4985 -1247,5022 -1259,5071 -1239,5121 -1229,5150 -1236,5154 -1284,5145 -1351,5100 -1364,5075 -1351,5064 -1253,5050 -1130,5039 -1053,5036 -1047,5046 -1078,5095 -1143,5202 -1187,5287 -1190,5311 -1185,5300 -1166,5227 -1137,5125 -1084,5051 -1017,5016 -971,5015 -951,5030 -955,5046 -960,5059 -970,5067 -993,5073 -1018,5065 -1057,5043 -1061,5033 -1057,5031 -1042,5024 -1001,5005 " style="fill: white; stroke: black; stroke-width: 30" />
<polyline points="-803,5035 -808,5010 -790,4992 -757,4997 -725,5025 -725,5064 -751,5091 -795,5093 -838,5065 -854,5036 -846,5012 -822,5001 -766,5000 " style="fill: white; stroke: black; stroke-width: 30" />
<polyline points="-678,5142 -684,5106 -665,5062 -635,5033 -615,5030 -597,5051 -581,5091 -545,5127 -448,5109 " style="fill: white; stroke: black; stroke-width: 30" />
<polyline points="-206,4828 -240,4815 -268,4833 -357,4967 -436,5103 -468,5173 -482,5174 -491,5123 -478,5050 -460,5029 -447,5030 -412,5051 -359,5073 -310,5084 " style="fill: white; stroke: black; stroke-width: 30" />
<polyline points="-322,5085 -339,5079 -327,5054 -265,5010 -216,5003 -210,5042 -242,5128 -304,5214 -330,5237 -333,5220 -323,5161 -307,5115 -300,5111 -291,5135 -266,5189 -236,5219 -183,5211 -129,5168 -96,5145 -101,5151 -109,5164 -101,5165 -56,5146 15,5106 53,5064 43,5058 -3,5069 -71,5118 -81,5151 -57,5166 -7,5169 33,5164 35,5146 39,5107 58,5063 97,5042 174,5043 262,5067 348,5072 " style="fill: white; stroke: black; stroke-width: 30" />
<polyline points="1133,4973 1126,4967 1117,4976 1091,5042 1046,5134 1030,5167 1028,5162 1025,5100 1033,4970 1064,4899 1129,4871 1213,4895 1252,4941 1237,4985 1182,5018 1089,5042 1046,5065 1058,5113 1120,5203 1209,5259 1300,5249 " style="fill: white; stroke: black; stroke-width: 30" />
<polyline points="1352,5155 1336,5116 1361,5079 1416,5064 1458,5086 1465,5145 1417,5220 1365,5254 1333,5247 1328,5225 1338,5204 1349,5206 1395,5226 1456,5246 1530,5243 " style="fill: white; stroke: black; stroke-width: 30" />
<polyline points="1540,5331 1507,5354 1488,5397 1491,5423 1498,5418 1509,5385 1522,5321 1538,5231 1568,5181 1638,5137 1725,5118 1770,5140 1767,5181 1724,5238 1688,5255 1657,5246 1633,5216 1618,5190 1615,5172 1623,5161 1665,5123 " style="fill: white; stroke: black; stroke-width: 30" />
<polyline points="1776,5410 1724,5401 1705,5370 1711,5333 1742,5261 1779,5198 1808,5155 1829,5141 1859,5144 1899,5176 1925,5216 1919,5247 1899,5264 1868,5268 1856,5244 1876,5179 1889,5145 1896,5141 1911,5153 1944,5199 1979,5230 2038,5234 2072,5223 2076,5216 2071,5216 2062,5225 2031,5243 1978,5266 1961,5261 1966,5243 2001,5190 2040,5161 2057,5155 2069,5170 2091,5206 " style="fill: white; stroke: black; stroke-width: 30" />
<polyline points="2176,5275 2168,5274 2174,5260 2201,5216 2240,5142 2256,5110 2251,5110 2248,5132 2260,5165 2319,5189 2435,5155 2560,5078 2613,5004 2597,4994 2564,5003 2554,5028 2568,5038 2590,5042 2587,5039 2552,5045 2461,5102 2403,5159 2390,5190 2385,5245 2376,5302 2370,5334 2383,5316 2419,5257 2436,5179 2440,5124 2434,5123 2438,5132 2452,5139 2516,5147 2669,5157 2841,5168 " style="fill: white; stroke: black; stroke-width: 30" />
<polyline points="-2689,6009 -2699,6008 -2703,6007 -2701,6006 -2698,6005 -2682,6002 -2643,5993 -2561,5976 -2446,5964 " style="fill: white; stroke: black; stroke-width: 30" />
<polyline points="-2565,5979 -2604,5981 -2632,5997 -2669,6044 -2709,6137 -2718,6193 -2705,6219 -2675,6235 -2618,6244 -2556,6247 -2472,6246 -2380,6242 -2312,6238 " style="fill: white; stroke: black; stroke-width: 30" />
<polyline points="-2343,6143 -2363,6136 -2351,6134 -2324,6134 -2273,6147 -2230,6176 -2215,6198 -2221,6230 -2244,6260 -2268,6278 -2289,6279 -2298,6279 -2297,6275 " style="fill: white; stroke: black; stroke-width: 30" />
<polyline points="-1548,6081 -1533,6076 -1537,6079 -1557,6089 -1600,6106 -1664,6130 -1714,6149 -1736,6168 -1733,6197 -1714,6259 -1700,6318 -1704,6347 -1715,6353 -1754,6346 -1793,6315 -1823,6284 -1835,6269 -1830,6270 -1775,6270 " style="fill: white; stroke: black; stroke-width: 30" />
<polyline points="-1416,6102 -1457,6106 -1469,6119 -1483,6176 -1510,6258 -1542,6334 -1567,6381 -1571,6398 -1572,6381 -1572,6329 -1569,6271 -1568,6253 -1566,6246 -1567,6248 -1563,6252 -1553,6260 -1531,6277 -1490,6314 -1444,6355 -1412,6382 -1406,6384 -1414,6378 -1409,6362 -1406,6319 -1393,6269 -1385,6248 -1378,6232 -1376,6230 -1375,6230 -1366,6238 -1347,6257 -1302,6287 -1238,6301 -1169,6299 -1123,6275 -1112,6250 -1133,6216 -1176,6213 -1223,6245 -1245,6301 -1222,6340 -1176,6365 -1107,6361 -1031,6349 " style="fill: white; stroke: black; stroke-width: 30" />
<polyline points="-911,6213 -919,6201 -929,6190 -943,6188 -955,6191 -966,6208 -977,6249 -985,6305 -993,6353 -999,6372 -1008,6372 -1024,6356 -1027,6343 -1014,6340 -938,6317 -833,6289 -722,6256 -674,6224 -687,6205 -709,6200 -735,6213 -758,6264 -758,6330 -757,6380 -766,6400 -785,6403 -815,6375 -837,6345 -836,6332 -818,6312 " style="fill: white; stroke: black; stroke-width: 30" />
<polyline points="-251,6315 -256,6329 -288,6367 -326,6447 -335,6526 " style="fill: white; stroke: black; stroke-width: 30" />
<polyline points="505,6172 512,6146 520,6129 519,6128 512,6134 485,6179 430,6273 416,6347 438,6385 503,6405 598,6373 679,6307 714,6278 718,6275 715,6275 709,6283 707,6297 702,6319 706,6368 713,6419 739,6453 " style="fill: white; stroke: black; stroke-width: 30" />
<polyline points="568,5958 565,5958 588,5962 641,5977 701,6002 787,6055 " style="fill: white; stroke: black; stroke-width: 30" />
<polyline points="892,6140 854,6163 837,6226 816,6326 798,6391 794,6421 798,6419 809,6399 848,6357 896,6326 947,6323 971,6356 958,6408 924,6454 875,6466 825,6434 798,6388 802,6383 820,6380 894,6393 993,6411 1098,6424 1189,6414 1212,6386 1195,6330 1161,6300 1145,6286 1152,6292 1176,6314 1213,6354 1239,6380 1284,6378 1338,6351 1384,6305 1404,6278 1424,6267 1467,6271 " style="fill: white; stroke: black; stroke-width: 30" />
<polyline points="1797,6137 1781,6127 1768,6133 1733,6180 1672,6287 1637,6365 1644,6410 1679,6436 1743,6436 1840,6416 " style="fill: white; stroke: black; stroke-width: 30" />
<polyline points="1910,6261 1914,6256 1961,6259 2022,6288 2058,6333 2051,6394 1995,6449 1897,6479 1825,6457 1817,6412 1838,6378 1896,6359 1987,6362 2106,6379 2224,6384 2312,6366 2334,6324 2299,6291 2254,6281 2231,6292 2222,6330 2226,6383 2224,6430 2205,6477 2189,6486 2170,6479 2155,6447 2175,6426 2242,6390 2357,6349 2506,6269 2651,6156 2697,6106 2682,6101 2631,6140 2538,6269 2458,6400 2434,6470 2430,6472 2433,6435 2454,6381 2478,6362 2519,6360 2594,6379 " style="fill: white; stroke: black; stroke-width: 30" />
<polyline points="-1706,6633 -1704,6630 -1704,6640 -1713,6700 -1732,6795 -1742,6878 -1726,6911 " style="fill: white; stroke: black; stroke-width: 30" />
<polyline points="-1830,6625 -1857,6614 -1848,6609 -1814,6595 -1739,6586 -1622,6587 -1509,6594 " style="fill: white; stroke: black; stroke-width: 30" />
<polyline points="-1896,6755 -1898,6746 -1851,6742 -1767,6748 -1682,6762 -1595,6774 -1522,6767 -1468,6755 -1447,6742 -1445,6740 -1462,6731 -1515,6722 -1586,6729 -1616,6743 -1611,6772 -1585,6804 -1513,6835 -1387,6832 -1286,6798 -1245,6767 -1244,6763 -1248,6763 -1248,6767 -1254,6778 -1257,6801 -1258,6849 -1247,6880 " style="fill: white; stroke: black; stroke-width: 30" />
<polyline points="-1233,6519 -1232,6499 -1223,6498 -1205,6517 -1187,6566 " style="fill: white; stroke: black; stroke-width: 30" />
<polyline points="-1160,6879 -1173,6863 -1169,6830 -1165,6783 -1156,6753 -1138,6743 -1095,6743 -1070,6777 -1037,6830 " style="fill: white; stroke: black; stroke-width: 30" />
<polyline points="-762,6781 -795,6738 -835,6687 -891,6673 -959,6708 -986,6779 -953,6833 -879,6844 -790,6778 -730,6681 -698,6600 -705,6575 -718,6579 -734,6621 -747,6693 -739,6750 -706,6803 " style="fill: white; stroke: black; stroke-width: 30" />
<polyline points="-526,6739 -555,6711 -600,6689 -642,6697 -661,6730 -640,6764 -589,6781 -537,6770 -530,6766 -539,6775 -554,6848 -578,6944 -618,7047 -676,7104 -704,7103 -714,7038 -678,6905 -589,6800 -498,6748 -405,6723 -379,6711 -394,6707 -434,6706 -475,6724 -473,6752 -429,6804 -332,6824 " style="fill: white; stroke: black; stroke-width: 30" />
<polyline points="-78,6666 " style="fill: white; stroke: black; stroke-width: 30" />
<polyline points="-106,6607 -101,6588 -109,6587 -127,6597 -166,6640 -227,6719 -261,6785 -259,6817 -253,6819 -231,6802 -192,6767 -156,6734 -98,6707 -57,6712 -61,6752 -102,6813 -155,6862 -186,6873 -210,6851 -240,6795 -243,6747 -237,6730 -201,6737 -110,6754 -19,6765 98,6766 187,6757 205,6756 186,6759 145,6791 102,6840 82,6875 89,6879 141,6833 " style="fill: white; stroke: black; stroke-width: 30" />
<polyline points="312,6580 315,6547 297,6537 293,6539 299,6544 309,6557 " style="fill: white; stroke: black; stroke-width: 30" />
<polyline points="350,6793 351,6780 361,6774 384,6768 415,6767 437,6771 455,6766 461,6758 462,6745 431,6737 367,6747 322,6785 303,6823 316,6856 370,6876 " style="fill: white; stroke: black; stroke-width: 30" />
<polyline points="842,6584 801,6559 753,6566 681,6620 624,6710 603,6801 596,6867 600,6874 608,6835 611,6793 614,6776 621,6774 661,6788 729,6800 " style="fill: white; stroke: black; stroke-width: 30" />
<polyline points="1106,6786 1096,6816 1038,6883 973,6966 962,7030 " style="fill: white; stroke: black; stroke-width: 30" />
<polyline points="1958,6700 1950,6699 1941,6704 1922,6712 1872,6716 1824,6715 1804,6716 1803,6724 1808,6771 1803,6848 1795,6895 1788,6907 1774,6898 1756,6870 1736,6848 1739,6843 1753,6840 " style="fill: white; stroke: black; stroke-width: 30" />
<polyline points="2187,6659 2161,6640 2140,6634 2130,6651 2070,6736 1984,6856 1935,6936 1931,6968 1969,6955 " style="fill: white; stroke: black; stroke-width: 30" />
<polyline points="2195,6808 2188,6799 2146,6790 2084,6783 2002,6806 1985,6827 2001,6869 2069,6915 2166,6916 " style="fill: white; stroke: black; stroke-width: 30" />
<polyline points="2384,6679 2377,6675 2378,6682 2369,6710 2335,6783 2257,6871 2207,6924 2188,6947 2187,6960 2194,6972 2209,6983 " style="fill: white; stroke: black; stroke-width: 30" />
<polyline points="2406,6790 2417,6771 2442,6766 2482,6779 2504,6811 2510,6855 2496,6900 2460,6931 2413,6930 2364,6900 2358,6876 2364,6864 2384,6868 2425,6893 2502,6930 " style="fill: white; stroke: black; stroke-width: 30" />
<polyline points="2728,6807 2717,6793 2686,6798 2640,6831 2611,6882 2618,6931 2645,6962 2713,6958 2795,6917 2831,6872 2833,6842 2826,6830 2798,6847 2787,6880 2808,6917 2861,6926 2943,6919 2979,6893 2946,6869 2897,6862 2867,6891 2878,6947 2930,6981 2995,6980 3035,6950 3057,6898 3069,6859 3077,6853 3116,6849 3179,6872 3233,6908 3280,6942 3328,6938 3349,6921 3354,6898 3346,6867 3321,6835 3282,6822 3257,6855 3269,6914 3310,6964 3365,6977 3417,6969 3456,6932 3471,6910 3470,6909 3464,6914 3453,6929 3447,6950 3450,6969 3446,7011 " style="fill: white; stroke: black; stroke-width: 30" />
<polyline points="3526,6693 3525,6667 3532,6652 3554,6652 3590,6697 3586,6775 3549,6802 3514,6789 3498,6755 3532,6706 3629,6646 " style="fill: white; stroke: black; stroke-width: 30" />
<polyline points="-1535,7258 -1522,7239 -1512,7218 -1517,7208 -1529,7199 -1569,7189 -1636,7193 -1669,7214 -1674,7238 -1654,7294 -1631,7348 -1624,7379 -1638,7394 -1666,7397 -1696,7384 -1710,7357 -1702,7345 -1652,7334 -1587,7333 -1494,7319 -1384,7288 -1300,7241 -1288,7222 -1322,7218 -1391,7230 -1443,7262 -1456,7304 -1422,7336 -1334,7355 -1225,7314 -1148,7272 -1138,7262 -1146,7269 -1152,7283 -1155,7311 -1150,7347 -1148,7369 -1138,7373 " style="fill: white; stroke: black; stroke-width: 30" />
<polyline points="-1100,7142 -1116,7126 -1114,7122 -1115,7121 -1118,7124 -1120,7125 -1116,7127 -1117,7127 -1116,7129 -1112,7128 " style="fill: white; stroke: black; stroke-width: 30" />
<polyline points="-1704,7205 -1704,7206 -1685,7207 -1619,7209 -1495,7211 -1344,7214 -1193,7216 -1098,7215 -1085,7217 -1142,7227 -1299,7251 -1513,7275 -1673,7280 -1714,7282 -1696,7278 -1632,7277 -1508,7285 -1374,7309 -1263,7327 -1181,7349 -1168,7358 -1174,7359 -1211,7343 -1246,7326 -1254,7295 " style="fill: white; stroke: black; stroke-width: 30" />
<polyline points="-1640,7349 -1694,7363 -1733,7367 -1750,7366 -1750,7366 -1747,7357 -1740,7359 -1708,7364 -1632,7372 -1497,7371 -1300,7369 -1113,7371 -982,7396 " style="fill: white; stroke: black; stroke-width: 30" />
<polyline points="-668,7416 -663,7400 -633,7361 -599,7308 -545,7241 -494,7187 -457,7143 -452,7138 -455,7142 -453,7153 -457,7170 -443,7217 -416,7283 -362,7362 -303,7409 " style="fill: white; stroke: black; stroke-width: 30" />
<polyline points="-631,7221 -660,7217 -650,7216 -613,7220 -539,7235 -440,7226 -363,7210 -305,7196 -301,7197 -302,7204 -304,7218 -299,7239 -284,7257 -252,7273 -176,7265 -98,7240 -83,7230 -88,7234 -96,7252 -95,7284 -62,7326 18,7338 " style="fill: white; stroke: black; stroke-width: 30" />
<polyline points="216,7305 189,7290 168,7283 151,7275 134,7278 121,7282 104,7294 72,7317 43,7344 29,7363 26,7367 22,7361 18,7350 14,7339 11,7333 12,7329 23,7325 " style="fill: white; stroke: black; stroke-width: 30" />
<polyline points="402,7232 309,7235 282,7248 286,7268 298,7304 304,7339 288,7376 261,7394 241,7404 225,7391 209,7370 216,7363 224,7361 231,7361 265,7356 339,7342 428,7331 491,7324 505,7318 492,7295 432,7270 372,7274 357,7305 390,7357 468,7395 541,7392 594,7353 613,7313 622,7300 633,7298 636,7315 637,7351 635,7394 641,7424 " style="fill: white; stroke: black; stroke-width: 30" />
<polyline points="886,7280 873,7270 847,7262 838,7269 831,7314 841,7393 843,7446 833,7460 792,7445 756,7400 751,7361 773,7342 850,7334 930,7338 1026,7336 1108,7308 1107,7272 1052,7251 1003,7263 990,7304 1017,7352 1103,7364 1206,7335 1253,7292 1248,7272 1232,7279 1213,7312 1203,7354 1210,7388 1231,7408 " style="fill: white; stroke: black; stroke-width: 30" />
<polyline points="1363,7139 1325,7119 1317,7107 1322,7108 1333,7108 1342,7116 " style="fill: white; stroke: black; stroke-width: 30" />
<polyline points="1592,7148 1608,7150 1587,7171 1507,7254 1410,7354 1385,7402 1394,7403 1431,7351 1471,7266 1484,7234 1487,7235 1520,7246 1589,7271 1665,7284 1697,7287 1701,7273 1672,7256 1632,7257 1605,7290 1609,7344 1657,7401 1717,7414 1762,7383 1815,7312 1827,7277 1835,7262 1867,7250 1907,7251 1921,7272 1937,7314 " style="fill: white; stroke: black; stroke-width: 30" />
<polyline points="2394,7186 2388,7182 2373,7202 2331,7288 2287,7369 2275,7410 2275,7409 2288,7356 2340,7250 2402,7162 2483,7131 2531,7150 2532,7185 2462,7246 2339,7306 2279,7338 2290,7360 2383,7404 2511,7420 " style="fill: white; stroke: black; stroke-width: 30" />
<polyline points="2608,7317 2620,7307 2620,7300 2604,7296 2556,7309 2529,7343 2547,7386 2591,7412 2647,7401 2699,7364 2702,7312 2671,7280 2629,7277 2625,7297 2659,7339 2722,7356 2790,7340 2869,7286 2917,7226 2911,7207 2892,7213 2823,7260 2776,7334 2785,7390 2844,7426 2941,7408 3039,7337 3108,7263 3116,7247 3108,7249 3072,7273 3006,7349 2980,7406 2998,7452 3054,7491 3116,7494 3146,7473 3178,7436 3181,7416 3184,7411 3180,7416 3178,7426 3177,7434 3185,7432 3185,7428 3184,7424 3185,7418 3183,7416 3187,7409 3184,7408 3184,7406 3180,7406 3178,7402 3174,7401 3175,7395 3177,7381 3179,7352 3169,7349 3142,7358 3124,7400 3132,7446 3164,7472 3245,7485 3382,7476 " style="fill: white; stroke: black; stroke-width: 30" />
<polyline points="-1411,7605 -1396,7598 -1380,7586 -1383,7573 -1409,7557 -1469,7554 -1542,7587 -1551,7624 -1515,7684 -1460,7747 -1451,7785 -1498,7821 -1580,7837 -1623,7822 -1618,7815 -1572,7797 -1459,7779 -1340,7753 -1239,7725 -1200,7696 -1222,7682 -1284,7672 -1336,7697 -1330,7725 -1283,7778 -1201,7792 -1128,7768 -1101,7745 -1108,7743 -1110,7745 -1111,7751 -1105,7767 -1105,7801 -1095,7848 -1068,7852 " style="fill: white; stroke: black; stroke-width: 30" />
<polyline points="-994,7581 -1030,7567 -1036,7564 -1036,7563 -1034,7564 -1035,7568 -1015,7618 " style="fill: white; stroke: black; stroke-width: 30" />
<polyline points="-854,7589 -877,7578 -888,7583 -903,7613 -939,7732 -961,7841 -961,7907 -952,7908 -947,7863 -941,7779 -946,7716 -946,7693 -936,7691 -909,7697 -870,7704 -783,7720 " style="fill: white; stroke: black; stroke-width: 30" />
<polyline points="64,7640 39,7621 23,7617 24,7611 52,7606 107,7615 183,7654 236,7703 215,7727 146,7747 48,7764 17,7787 38,7840 75,7899 81,7927 43,7934 -27,7905 -73,7862 -88,7836 -79,7833 " style="fill: white; stroke: black; stroke-width: 30" />
<polyline points="275,7818 264,7765 320,7706 423,7674 523,7694 543,7737 494,7812 402,7872 330,7884 276,7853 264,7807 279,7754 343,7698 " style="fill: white; stroke: black; stroke-width: 30" />
<polyline points="1414,7650 1404,7626 1406,7621 1404,7616 1397,7620 1382,7677 1355,7816 1300,7971 1239,8061 1177,8108 1134,8117 1116,8090 1120,7968 1182,7836 1240,7753 " style="fill: white; stroke: black; stroke-width: 30" />
<polyline points="1471,7743 1474,7709 1509,7689 1574,7705 1612,7756 1614,7822 1574,7873 1511,7892 1453,7870 1434,7829 1446,7805 1475,7796 1512,7812 1570,7851 1650,7881 " style="fill: white; stroke: black; stroke-width: 30" />
<polyline points="1811,7614 1798,7607 1795,7624 1772,7707 1736,7797 1731,7849 1739,7862 1754,7850 1801,7817 1821,7815 1835,7825 1850,7871 1889,7905 1945,7909 1990,7871 2003,7845 1998,7839 1997,7845 1997,7853 2003,7866 2048,7867 2137,7846 2195,7824 2221,7809 2257,7777 2291,7757 2285,7754 2259,7755 2193,7748 2160,7766 2173,7792 2223,7840 2287,7874 2314,7890 2289,7899 2270,7903 2279,7897 2327,7870 2381,7835 2397,7834 2418,7853 2513,7906 2598,7955 2603,7983 2544,8034 " style="fill: white; stroke: black; stroke-width: 30" />
<polyline points="1131,7622 1154,7617 1207,7613 1282,7623 1428,7640 " style="fill: white; stroke: black; stroke-width: 30" />
<polyline points="-3366,5855 -3344,5860 -3307,5874 -3273,5894 -3248,5908 -3248,5916 -3297,5936 -3405,5988 -3536,6063 -3632,6155 -3657,6254 -3623,6372 -3534,6498 -3460,6615 -3435,6704 -3441,6785 -3444,6869 -3434,6987 -3419,7126 -3419,7271 -3465,7400 -3509,7516 -3539,7631 -3543,7765 -3531,7906 -3508,8030 -3499,8139 -3493,8238 -3490,8318 -3507,8384 -3529,8420 " style="fill: white; stroke: black; stroke-width: 30" />
<polyline points="-3047,8610 -3062,8611 -3061,8611 -3062,8622 -3062,8665 -3087,8763 -3106,8863 -3104,8905 -3089,8907 -3071,8871 -3042,8790 -3045,8685 -3061,8618 -3073,8596 -3078,8589 -3077,8593 -3080,8596 -3082,8623 -3088,8669 -3088,8707 -3057,8742 -2985,8766 -2875,8766 -2796,8741 -2751,8713 -2745,8705 -2750,8705 -2760,8718 -2777,8767 -2780,8840 -2757,8909 -2712,8936 " style="fill: white; stroke: black; stroke-width: 30" />
<polyline points="-2626,8736 -2633,8715 -2635,8709 -2612,8719 -2571,8748 -2549,8794 -2509,8833 -2513,8852 -2538,8881 -2561,8917 -2576,8930 -2576,8922 -2588,8890 -2613,8847 -2619,8828 -2619,8827 -2606,8829 -2593,8832 -2559,8837 -2514,8850 -2494,8861 -2483,8886 -2471,8912 " style="fill: white; stroke: black; stroke-width: 30" />
<polyline points="-2354,8835 -2373,8823 -2378,8815 -2380,8809 -2387,8799 -2396,8787 -2401,8776 -2396,8770 -2401,8763 -2396,8758 -2394,8757 -2388,8763 -2347,8774 -2290,8788 " style="fill: white; stroke: black; stroke-width: 30" />
<polyline points="-2144,8839 -2131,8815 -2121,8787 -2126,8779 -2166,8774 -2206,8793 -2224,8817 -2216,8823 -2191,8825 -2142,8801 -2122,8777 -2125,8777 -2135,8803 -2149,8875 -2173,8970 -2214,9073 -2248,9139 -2275,9153 -2283,9133 -2293,9036 -2258,8933 -2202,8868 " style="fill: white; stroke: black; stroke-width: 30" />
<polyline points="-2030,8815 -2057,8831 -2081,8865 -2090,8897 -2080,8903 -2066,8895 -2044,8865 -2028,8831 -2026,8805 -2023,8801 -2019,8798 -2013,8797 -2006,8798 -1978,8802 -1930,8795 -1860,8782 -1837,8775 -1834,8777 -1832,8782 -1844,8801 -1854,8833 -1866,8875 -1870,8902 -1862,8899 " style="fill: white; stroke: black; stroke-width: 30" />
<polyline points="-1738,8543 -1754,8536 -1749,8535 -1740,8542 -1717,8549 -1670,8552 -1621,8546 -1616,8548 -1633,8558 -1657,8609 -1696,8691 -1721,8767 -1748,8816 -1758,8842 -1758,8850 -1760,8849 -1760,8841 -1754,8826 -1755,8814 -1742,8813 -1738,8811 -1721,8813 -1666,8809 -1588,8808 " style="fill: white; stroke: black; stroke-width: 30" />
<polyline points="-1222,8754 -1231,8745 -1213,8735 -1173,8732 -1120,8738 -1047,8752 -980,8746 " style="fill: white; stroke: black; stroke-width: 30" />
<polyline points="-999,8631 -1042,8668 -1104,8764 -1128,8855 -1092,8903 " style="fill: white; stroke: black; stroke-width: 30" />
<polyline points="-624,8673 -638,8654 -667,8649 -728,8666 -816,8720 -876,8786 -881,8836 -848,8884 -779,8912 -696,8916 -643,8894 -621,8856 -634,8798 -674,8760 -703,8754 " style="fill: white; stroke: black; stroke-width: 30" />
<polyline points="-688,8777 -698,8777 -693,8776 -662,8778 -627,8783 -610,8791 -608,8801 -637,8838 -672,8881 -673,8914 -644,8930 -580,8923 -526,8907 -495,8897 -474,8886 -450,8874 -424,8851 -395,8822 -388,8793 -399,8789 -438,8794 -514,8845 -534,8892 -523,8915 -483,8929 -422,8930 -380,8924 -365,8912 -354,8883 -336,8843 -314,8802 -280,8776 -245,8768 -195,8783 -137,8820 -66,8859 " style="fill: white; stroke: black; stroke-width: 30" />
<polyline points="-167,8874 -194,8897 -224,8927 -262,8950 -290,8947 -313,8916 -314,8858 -297,8796 -279,8783 -232,8783 -155,8804 " style="fill: white; stroke: black; stroke-width: 30" />
<polyline points="-86,8923 -90,8913 -84,8883 -60,8824 -33,8774 -18,8761 18,8752 73,8766 116,8787 162,8801 215,8788 233,8766 235,8748 239,8749 237,8758 243,8775 248,8789 270,8800 277,8799 270,8796 231,8782 209,8779 180,8792 159,8826 168,8857 193,8872 240,8854 274,8826 271,8814 274,8816 252,8851 188,8955 111,9076 33,9174 -35,9214 -84,9215 -101,9175 -90,9126 3,9045 185,8987 443,8956 " style="fill: white; stroke: black; stroke-width: 30" />
<polyline points="-3333,9137 -3374,9129 -3397,9128 -3407,9133 -3403,9135 -3411,9134 -3410,9136 -3408,9136 -3393,9142 -3353,9162 -3264,9188 -3053,9216 -2644,9234 -2093,9251 -1404,9293 -664,9347 7,9390 473,9422 734,9428 785,9418 790,9413 783,9410 783,9412 780,9418 782,9420 777,9425 777,9425 782,9424 786,9422 789,9421 798,9419 807,9419 816,9414 " style="fill: white; stroke: black; stroke-width: 30" />
<polyline points="-3190,8183 -3226,8163 -3243,8154 -3247,8155 -3253,8163 -3265,8251 -3318,8522 -3411,8919 -3481,9152 -3480,9270 -3447,9292 -3405,9262 -3358,9165 " style="fill: white; stroke: black; stroke-width: 30" />
<polyline points="-3268,8293 -3285,8283 -3285,8282 -3286,8286 -3281,8292 -3279,8297 -3238,8307 -3118,8329 -2882,8339 -2435,8334 -1819,8322 -1035,8333 -284,8380 325,8440 693,8481 811,8489 810,8481 803,8479 795,8477 797,8477 805,8477 813,8480 820,8481 843,8487 " style="fill: white; stroke: black; stroke-width: 30" />
<polyline points="1010,8479 1019,8462 1019,8458 1015,8469 998,8535 935,8769 831,9080 727,9313 683,9446 688,9496 " style="fill: white; stroke: black; stroke-width: 30" />
<polyline points="-2774,9386 -2781,9383 -2783,9383 -2788,9384 -2782,9385 -2785,9382 -2789,9380 -2797,9380 -2794,9380 -2797,9380 -2795,9380 -2793,9383 -2792,9384 -2801,9382 -2803,9380 -2794,9385 -2795,9382 -2796,9384 -2793,9388 -2814,9412 -2869,9536 -2908,9651 -2894,9714 -2845,9740 -2770,9744 -2691,9742 -2629,9739 -2593,9735 -2573,9719 " style="fill: white; stroke: black; stroke-width: 30" />
<polyline points="-2545,9658 -2550,9660 -2525,9673 -2479,9708 -2468,9751 -2494,9782 -2543,9824 -2566,9851 " style="fill: white; stroke: black; stroke-width: 30" />
<polyline points="-2253,9863 -2257,9855 -2235,9827 -2171,9737 -2072,9603 -2008,9527 -2009,9513 -2016,9528 -2037,9583 -2034,9666 -1998,9756 -1944,9829 -1909,9863 -1904,9856 " style="fill: white; stroke: black; stroke-width: 30" />
<polyline points="-2189,9667 -2276,9641 -2282,9634 -2232,9638 -2122,9653 -1994,9680 -1887,9695 -1785,9676 -1696,9624 -1684,9588 -1696,9574 -1716,9575 -1720,9578 -1719,9584 -1711,9606 -1705,9634 -1709,9661 -1709,9705 -1721,9772 -1754,9861 -1796,9923 -1804,9934 " style="fill: white; stroke: black; stroke-width: 30" />
<polyline points="-1239,9678 -1220,9658 -1198,9646 -1216,9645 -1221,9657 -1241,9737 -1268,9803 -1279,9847 -1279,9847 -1272,9833 -1241,9742 -1200,9617 -1146,9540 -1103,9517 -1071,9527 -1068,9564 -1099,9613 -1167,9656 -1249,9683 -1272,9698 -1262,9754 -1196,9822 -1119,9859 -1046,9853 -1003,9801 -978,9754 -983,9736 -984,9740 -984,9745 -994,9754 -1030,9770 -1057,9798 -1068,9844 -1047,9884 -981,9907 -896,9908 " style="fill: white; stroke: black; stroke-width: 30" />
<polyline points="-755,9681 -776,9686 -794,9749 -830,9887 -876,10010 -891,10077 -890,10078 -887,10046 -860,9927 -807,9822 -726,9766 -670,9757 -647,9774 -672,9792 -728,9811 -789,9808 -813,9794 -811,9793 -767,9808 " style="fill: white; stroke: black; stroke-width: 30" />
<polyline points="-2081,10091 -2082,10085 -2078,10084 -2085,10100 -2107,10186 -2131,10298 -2130,10352 -2117,10358 -2094,10320 -2086,10235 -2114,10142 -2148,10100 -2140,10088 -2090,10053 -2002,10049 -1925,10095 -1920,10124 -1968,10153 -2055,10165 -2078,10166 -2066,10166 -1982,10218 -1946,10262 -1968,10294 -2039,10309 -2135,10295 -2145,10282 -2116,10255 " style="fill: white; stroke: black; stroke-width: 30" />
<polyline points="-1691,10037 -1692,10086 -1702,10177 -1762,10305 -1842,10417 -1897,10458 " style="fill: white; stroke: black; stroke-width: 30" />
<polyline points="-983,10128 -990,10101 -1013,10076 -1038,10060 -1092,10052 -1173,10085 -1259,10154 -1291,10220 -1265,10264 -1188,10306 -1065,10320 -980,10307 -970,10277 " style="fill: white; stroke: black; stroke-width: 30" />
<polyline points="-1101,10196 -1142,10161 -1124,10150 -1068,10155 -1001,10187 -986,10236 -1019,10298 -1047,10341 -1065,10344 -1051,10342 " style="fill: white; stroke: black; stroke-width: 30" />
<polyline points="-899,10276 -907,10284 -924,10319 -934,10357 -934,10365 -926,10359 -904,10314 -884,10263 -867,10244 -854,10236 -846,10231 -825,10231 -767,10221 -685,10210 -621,10207 -627,10213 -635,10224 -661,10239 -663,10256 -668,10287 -671,10328 -657,10358 " style="fill: white; stroke: black; stroke-width: 30" />
<polyline points="-596,9984 -596,9981 -596,9981 -598,9984 -589,9986 -572,10001 " style="fill: white; stroke: black; stroke-width: 30" />
<polyline points="-423,10265 -444,10252 -444,10240 -441,10230 -466,10225 -523,10233 -571,10255 -573,10267 -560,10265 -517,10259 -433,10216 -324,10140 -261,10075 -255,10062 -264,10057 -267,10068 -292,10104 -306,10162 -311,10223 -297,10278 " style="fill: white; stroke: black; stroke-width: 30" />
<polyline points="-2904,10628 -2933,10627 -2938,10622 -2939,10619 -2915,10626 -2813,10638 -2594,10642 -2182,10631 -1595,10601 -796,10584 18,10605 675,10645 1074,10680 " style="fill: white; stroke: black; stroke-width: 30" />
<polyline points="-3054,10850 -3058,10856 -3053,10862 -3010,10880 -2880,10887 -2619,10885 -2158,10880 -1509,10861 -549,10843 603,10856 1694,10928 " style="fill: white; stroke: black; stroke-width: 30" />
<polyline points="1878,8711 1876,8692 1887,8669 1894,8637 1882,8612 1864,8567 1828,8556 1780,8563 1723,8599 1681,8644 1662,8718 1669,8794 1697,8875 1728,8938 1757,8993 " style="fill: white; stroke: black; stroke-width: 30" />
<polyline points="1509,8847 1511,8849 1525,8850 1565,8846 1622,8841 1688,8837 " style="fill: white; stroke: black; stroke-width: 30" />
<polyline points="1890,8529 1894,8520 1891,8517 1886,8525 1878,8537 1871,8594 1866,8670 1874,8726 " style="fill: white; stroke: black; stroke-width: 30" />
<polyline points="2020,8471 2010,8468 1999,8473 1989,8512 1978,8596 1977,8684 " style="fill: white; stroke: black; stroke-width: 30" />
<polyline points="2520,8614 2505,8608 2498,8609 2472,8639 2438,8725 2403,8816 2412,8860 2426,8886 2456,8892 2499,8880 2560,8841 2615,8803 2653,8777 2663,8767 2669,8761 2661,8761 2664,8760 2655,8766 2640,8780 2632,8809 2621,8849 2624,8886 2632,8902 " style="fill: white; stroke: black; stroke-width: 30" />
<polyline points="2704,8585 2668,8577 2646,8572 2643,8570 2642,8572 2656,8594 " style="fill: white; stroke: black; stroke-width: 30" />
<polyline points="2837,8770 2819,8755 2780,8747 2729,8755 2685,8779 2656,8820 2669,8854 2702,8879 2760,8894 2815,8899 2865,8890 " style="fill: white; stroke: black; stroke-width: 30" />
<polyline points="2859,8842 2858,8849 2870,8851 2899,8850 2922,8838 2963,8801 2973,8761 2958,8745 2901,8747 2832,8791 2815,8854 2826,8907 2861,8940 2910,8946 2965,8923 3018,8875 3063,8813 3090,8790 3095,8791 3100,8806 3108,8836 3108,8883 3106,8919 3116,8947 3142,8946 " style="fill: white; stroke: black; stroke-width: 30" />
<polyline points="3310,8792 3308,8791 3299,8783 3261,8790 3228,8802 3218,8826 3215,8870 3233,8914 3233,8949 3222,8968 3197,8972 3165,8960 3153,8938 3161,8926 3176,8919 3193,8915 3215,8915 3232,8922 3266,8933 3322,8943 3391,8933 3461,8906 3497,8865 3490,8825 3457,8792 3401,8791 3362,8817 3360,8855 3389,8895 3437,8921 3485,8936 3542,8951 " style="fill: white; stroke: black; stroke-width: 30" />
<polyline points="1801,9169 1802,9165 1805,9162 1823,9157 1871,9149 1960,9136 2057,9121 " style="fill: white; stroke: black; stroke-width: 30" />
<polyline points="1859,9233 1850,9230 1835,9247 1813,9301 1788,9376 1791,9432 1835,9466 1909,9483 1973,9489 2019,9490 2046,9482 " style="fill: white; stroke: black; stroke-width: 30" />
<polyline points="2042,9394 2052,9392 2084,9393 2126,9402 2145,9416 2160,9432 2153,9445 2119,9491 2078,9524 2069,9536 2059,9537 2062,9531 " style="fill: white; stroke: black; stroke-width: 30" />
<polyline points="2112,9641 2133,9635 2176,9592 2243,9507 2315,9395 2363,9335 2368,9319 2361,9323 2352,9340 2329,9413 2339,9503 2360,9565 2379,9594 2388,9600 2367,9570 " style="fill: white; stroke: black; stroke-width: 30" />
<polyline points="2226,9445 2217,9447 2235,9449 2288,9460 2352,9459 2408,9448 2485,9410 2531,9370 2536,9344 2519,9340 2486,9364 2457,9440 2448,9512 2464,9553 2506,9569 2560,9540 2642,9442 2693,9370 2698,9345 2669,9348 2630,9364 2594,9413 2580,9482 2581,9553 2603,9589 2651,9610 2701,9601 " style="fill: white; stroke: black; stroke-width: 30" />
<polyline points="3086,9411 3087,9406 3088,9411 3088,9450 3056,9545 3033,9631 3028,9677 3044,9687 3059,9668 3075,9597 3067,9481 3050,9406 3036,9369 3023,9360 3025,9359 3031,9359 3055,9350 3051,9352 3044,9356 3045,9357 3043,9358 3035,9361 3033,9361 3044,9356 3049,9352 3075,9350 3138,9366 3199,9420 3229,9472 3224,9519 3184,9551 3123,9558 3056,9523 3008,9478 2991,9455 3005,9446 3026,9442 " style="fill: white; stroke: black; stroke-width: 30" />
<polyline points="3333,9429 3363,9414 3393,9421 3408,9445 3399,9491 3355,9561 3301,9603 3259,9614 3249,9602 3260,9564 3282,9522 3308,9512 3325,9517 3352,9534 3394,9551 3464,9548 3535,9524 3566,9505 3558,9497 3550,9497 3545,9496 3541,9498 3542,9499 3541,9509 3535,9528 3526,9546 3494,9585 3489,9606 3501,9604 3538,9598 3611,9571 3653,9553 3652,9551 3650,9555 3644,9562 3602,9599 3575,9640 3548,9679 3548,9698 " style="fill: white; stroke: black; stroke-width: 30" />
<polyline points="3803,9537 3844,9506 3840,9497 3818,9493 3758,9509 3693,9546 3669,9571 3664,9593 3688,9610 3711,9618 3754,9602 3826,9553 3904,9472 3955,9414 3967,9394 3966,9391 3965,9394 3932,9423 3903,9480 3890,9549 3893,9614 3924,9652 " style="fill: white; stroke: black; stroke-width: 30" />
<polyline points="2291,9820 2286,9808 2274,9809 2249,9840 2222,9918 2215,9988 2256,10026 2329,10034 2400,10012 2438,9999 2442,9999 " style="fill: white; stroke: black; stroke-width: 30" />
<polyline points="2465,9900 2440,9905 2427,9917 2444,9929 2474,9945 2527,9961 2556,9978 2561,9990 2549,10013 2534,10036 2528,10038 2527,10035 2533,10032 2536,10036 " style="fill: white; stroke: black; stroke-width: 30" />
<polyline points="2657,10109 2649,10111 2648,10108 2649,10104 2665,10083 2700,10034 2730,9948 2759,9880 2760,9854 2756,9846 2753,9849 2748,9868 2734,9925 2715,9993 2718,10046 2736,10083 2780,10095 2862,10079 2951,10043 3037,9987 3065,9937 3066,9921 3046,9903 3016,9895 3009,9893 3012,9896 3013,9899 3024,9915 3051,9946 " style="fill: white; stroke: black; stroke-width: 30" />
<polyline points="3169,10032 3186,10030 3197,10014 3188,10000 3165,9989 3119,9996 3088,10029 3094,10060 3144,10076 3182,10072 3226,10052 3223,10049 3208,10049 3205,10048 3201,10049 3207,10047 3211,10046 " style="fill: white; stroke: black; stroke-width: 30" />
<polyline points="3573,10111 3567,10100 3565,10087 3570,10075 3570,10050 3592,9998 3627,9926 3629,9887 3625,9871 3627,9868 3625,9874 3617,9891 3607,9921 3612,9953 3629,9981 3655,10023 3703,10049 3737,10065 3773,10064 3792,10048 3815,9996 3834,9944 3833,9910 3829,9888 3827,9876 3823,9874 3814,9872 3818,9870 3809,9872 3820,9871 3813,9877 3810,9897 " style="fill: white; stroke: black; stroke-width: 30" />
<polyline points="3840,9959 3833,9953 3832,9945 3827,9944 " style="fill: white; stroke: black; stroke-width: 30" />
<polyline points="3832,9896 3824,9893 3812,9891 3814,9890 3806,9888 3797,9889 3786,9890 3777,9889 3763,9890 3746,9892 3723,9897 3709,9902 3677,9920 3662,9942 3658,9953 3664,9958 3657,9958 3659,9958 3655,9959 3664,9966 3681,9969 3695,9969 3694,9968 3696,9965 3682,9964 3683,9963 3677,9964 3689,9959 3691,9957 3679,9963 3693,9958 " style="fill: white; stroke: black; stroke-width: 30" />
<polyline points="3648,9767 3638,9765 3638,9758 3638,9758 3629,9763 3633,9774 3618,9820 3605,9894 3581,9954 3582,9994 " style="fill: white; stroke: black; stroke-width: 30" />
<polyline points="3848,10049 3839,10050 3846,10050 3859,10047 3874,10038 3902,10020 3919,10003 3920,9987 3917,9968 3901,9963 3864,9969 3838,9984 3815,10009 3822,10023 3852,10047 3911,10054 3983,10036 4045,9990 4084,9922 " style="fill: white; stroke: black; stroke-width: 30" />
<polyline points="4102,9767 4102,9742 4079,9750 4052,9798 4041,9879 4026,9989 4011,10072 4016,10116 4021,10121 4020,10107 4016,10065 4036,10033 4047,10012 4073,9989 4101,9959 4132,9909 4150,9870 4151,9868 4145,9870 4141,9873 4147,9868 4140,9870 4140,9869 4132,9874 4138,9871 4132,9873 4132,9874 4125,9886 4096,9935 4072,10010 4059,10085 4073,10121 4089,10125 4100,10112 4108,10077 4088,10032 4071,10004 4070,10005 4072,10010 4079,10022 4092,10026 4120,10030 4143,10028 4166,10020 4164,10020 4155,10018 4134,10019 4130,10024 4119,10050 4139,10088 4165,10124 4208,10134 4240,10120 4269,10079 4286,10025 4287,9993 4299,9983 4322,9985 4388,9987 4454,9996 " style="fill: white; stroke: black; stroke-width: 30" />
<polyline points="3947,8619 3947,8624 3943,8648 3932,8711 3934,8776 3946,8833 3966,8870 3987,8877 " style="fill: white; stroke: black; stroke-width: 30" />
<polyline points="3894,8660 3889,8663 3878,8662 3880,8662 3870,8673 3874,8683 3873,8685 3870,8687 3864,8690 3872,8694 3884,8696 3911,8700 3963,8694 4023,8670 4056,8644 4064,8630 4058,8630 4063,8632 4046,8657 4032,8684 4016,8741 3997,8805 3998,8837 4004,8846 4018,8838 4065,8800 4093,8774 4121,8774 4119,8794 4132,8820 4140,8828 4150,8822 4191,8780 4217,8748 4211,8746 4180,8766 4163,8802 4168,8827 4207,8842 4264,8835 4317,8821 " style="fill: white; stroke: black; stroke-width: 30" />
<polyline points="4387,8725 4370,8705 4376,8672 4379,8631 4377,8603 4369,8593 4363,8599 4347,8631 4329,8709 4314,8807 4319,8870 4321,8907 4318,8910 4320,8896 4334,8824 4354,8776 4372,8755 4380,8753 4377,8758 4391,8762 4422,8750 4473,8714 4512,8680 4517,8673 4509,8676 4492,8697 4471,8747 4458,8805 4465,8843 4470,8862 4470,8863 4479,8860 4473,8859 4464,8854 4466,8826 4453,8789 4444,8758 4442,8750 4449,8746 4461,8746 4475,8746 4509,8758 4563,8772 " style="fill: white; stroke: black; stroke-width: 30" />
<polyline points="2927,10894 2921,10897 2935,10909 2951,10943 2963,11005 2985,11115 3008,11239 3030,11347 3048,11427 3050,11498 3058,11538 3068,11577 3080,11586 3077,11592 3072,11591 3072,11590 3066,11587 3067,11589 3069,11587 3066,11587 3069,11581 3072,11572 3070,11556 3078,11551 3091,11535 3116,11512 3145,11501 3179,11502 3223,11513 3264,11529 3286,11539 3327,11555 3338,11577 3361,11604 3384,11618 3399,11642 3413,11666 3419,11696 3428,11736 3428,11770 3429,11809 3424,11844 3406,11879 3401,11913 3393,11948 3379,11977 3358,12005 3344,12027 3320,12049 3303,12062 3267,12078 3253,12083 3200,12100 3163,12115 3114,12118 3091,12115 3050,12112 3017,12111 2998,12102 2966,12086 2948,12059 2918,12040 2896,12020 2877,11990 2867,11970 2837,11932 2823,11887 2824,11848 2809,11827 2820,11812 2825,11790 2825,11770 2829,11745 2844,11727 2850,11711 2853,11698 2866,11679 2884,11664 2900,11652 2921,11641 2944,11628 2954,11618 2969,11611 2978,11608 2994,11605 2996,11603 3000,11602 3000,11601 3009,11600 3011,11598 3025,11594 3046,11591 3039,11594 3063,11585 " style="fill: white; stroke: black; stroke-width: 30" />
<polyline points="2917,11491 2911,11496 2915,11500 2933,11516 2980,11530 3018,11540 3042,11549 3051,11556 3051,11574 3069,11578 3061,11586 3062,11609 3054,11625 3057,11645 3032,11669 3016,11681 2993,11696 2981,11707 2971,11715 2967,11718 2968,11714 2974,11709 2974,11708 2996,11700 " style="fill: white; stroke: black; stroke-width: 30" />
<polyline points="2893,11345 2893,11337 2889,11331 2889,11332 2893,11336 2902,11365 2907,11412 2932,11437 2945,11431 2974,11388 3002,11313 3000,11267 3022,11238 3032,11229 3022,11228 3020,11230 3020,11229 3025,11229 3026,11226 3026,11226 3024,11225 3034,11222 " style="fill: white; stroke: black; stroke-width: 30" />
<polyline points="3702,11369 3697,11369 3682,11376 3675,11408 3667,11508 3645,11600 3649,11654 3677,11654 3706,11641 3752,11618 3774,11601 3795,11581 " style="fill: white; stroke: black; stroke-width: 30" />
<polyline points="3840,11447 3814,11445 3804,11444 3831,11442 3864,11464 3891,11516 3900,11565 3901,11608 3885,11644 3852,11668 3838,11658 3822,11641 3818,11619 3830,11611 3835,11611 3857,11614 3898,11622 3915,11634 3923,11643 3944,11646 3948,11649 3937,11656 3954,11642 3963,11608 3975,11577 3989,11566 3998,11567 4017,11586 4033,11611 4053,11638 4060,11651 " style="fill: white; stroke: black; stroke-width: 30" />
<polyline points="4169,11605 4153,11589 4140,11567 4123,11556 4116,11559 4096,11591 4089,11644 4096,11688 4115,11691 4141,11653 4175,11558 4204,11484 4201,11456 4192,11459 4183,11485 4172,11571 4200,11634 4232,11658 4283,11637 4287,11626 4292,11605 4283,11579 4271,11561 4262,11550 4265,11545 4257,11559 4240,11593 4231,11631 4237,11650 4248,11650 4276,11633 4278,11625 4276,11613 4276,11583 4271,11562 4256,11563 4266,11569 4270,11603 4291,11623 4297,11626 4318,11604 4343,11564 4353,11519 4350,11476 4340,11442 4354,11422 4340,11422 4343,11423 4339,11432 4334,11463 4336,11517 4341,11580 4360,11617 4373,11636 4396,11627 4421,11616 " style="fill: white; stroke: black; stroke-width: 30" />
<polyline points="4450,11412 4440,11435 4437,11468 4436,11528 4433,11598 4442,11650 4440,11659 4456,11644 4439,11593 4439,11509 4431,11475 4429,11474 4427,11484 4453,11510 4461,11532 4486,11533 4502,11521 4511,11509 4519,11495 4518,11486 4516,11479 4510,11480 4510,11479 4511,11489 4511,11515 4509,11545 4511,11578 4495,11613 4510,11632 4509,11635 4482,11635 4481,11627 4474,11623 4463,11627 4458,11628 4475,11626 4485,11617 " style="fill: white; stroke: black; stroke-width: 30" />
<polyline points="-3078,11954 -3099,11947 -3123,11946 -3164,11951 -3214,11961 -3268,11985 -3294,12006 -3305,12020 -3286,12061 -3237,12126 -3198,12179 -3172,12204 -3183,12208 -3204,12211 -3261,12196 -3287,12189 -3298,12184 -3303,12184 " style="fill: white; stroke: black; stroke-width: 30" />
<polyline points="-3005,12059 -3045,12060 -3095,12080 -3098,12122 -3104,12157 -3079,12185 -3019,12207 -2955,12193 -2912,12148 -2890,12083 -2889,12049 -2891,12038 -2905,12044 -2918,12068 -2908,12132 -2900,12179 -2883,12201 -2849,12197 -2804,12164 -2777,12142 -2764,12158 -2750,12210 -2733,12255 " style="fill: white; stroke: black; stroke-width: 30" />
<polyline points="-2643,12009 -2654,12006 -2651,12002 -2656,12004 -2665,12010 -2675,12047 -2676,12118 -2673,12157 -2619,12192 -2541,12206 -2458,12209 " style="fill: white; stroke: black; stroke-width: 30" />
<polyline points="-2425,12125 -2445,12117 -2438,12109 -2398,12088 -2364,12076 -2351,12083 -2339,12120 -2343,12181 -2354,12223 -2376,12236 -2422,12225 -2442,12213 -2443,12205 -2428,12205 -2414,12206 -2372,12219 -2322,12236 -2276,12261 " style="fill: white; stroke: black; stroke-width: 30" />
<polyline points="-2418,12017 -2403,12013 -2402,12009 -2368,12019 -2311,12035 -2257,12040 " style="fill: white; stroke: black; stroke-width: 30" />
<polyline points="-2186,12082 -2198,12081 -2202,12081 -2212,12083 -2219,12096 -2263,12123 -2264,12146 -2269,12147 -2257,12144 -2252,12143 -2229,12138 -2224,12134 -2205,12135 -2213,12137 -2208,12164 -2174,12244 -2170,12346 -2181,12426 -2199,12474 -2225,12483 -2246,12446 -2255,12348 -2238,12280 -2197,12237 -2130,12201 -2090,12178 -2075,12156 -2086,12136 -2115,12130 -2104,12148 -2091,12198 -2068,12231 -2021,12240 -1971,12222 " style="fill: white; stroke: black; stroke-width: 30" />
<polyline points="-1356,12226 -1370,12222 -1334,12201 -1322,12168 -1311,12134 -1340,12106 -1390,12092 -1452,12106 -1513,12144 -1503,12181 -1449,12221 -1357,12218 -1263,12140 -1192,12036 -1187,11986 -1209,11975 -1238,11984 -1273,12038 -1287,12146 -1241,12226 -1179,12259 -1112,12243 -1081,12205 -1087,12168 -1120,12148 -1155,12151 -1151,12164 -1110,12197 -1047,12227 -993,12243 -979,12246 -982,12222 -988,12152 -995,12091 -986,12073 -988,12072 -946,12086 " style="fill: white; stroke: black; stroke-width: 30" />
<polyline points="-415,11947 -421,11923 -430,11926 -445,11974 -470,12103 -494,12238 -487,12301 -473,12302 -451,12259 -456,12146 -481,12029 -486,11972 -492,11963 -490,11964 -490,11975 -496,12007 -483,12067 -448,12113 -384,12130 -306,12108 -245,12041 -226,12010 -229,12010 -227,12017 -241,12046 -274,12117 -281,12218 -236,12265 -199,12263 -145,12204 -110,12159 -110,12155 -115,12168 -117,12198 -99,12238 -83,12244 -53,12224 -30,12221 -28,12229 -41,12231 -39,12225 -14,12199 -5,12199 -21,12235 " style="fill: white; stroke: black; stroke-width: 30" />
<polyline points="121,11966 114,11956 110,11963 113,12007 77,12116 53,12239 34,12305 44,12313 41,12271 50,12186 77,12135 80,12131 118,12127 191,12103 286,12046 350,11975 342,11962 320,11985 262,12097 223,12233 218,12313 213,12316 230,12240 249,12136 265,12118 267,12131 291,12169 328,12198 361,12201 386,12201 379,12199 370,12197 390,12168 397,12119 401,12095 399,12099 395,12115 400,12151 392,12182 384,12218 365,12267 375,12287 382,12280 399,12251 410,12225 414,12209 418,12199 404,12199 416,12198 416,12198 404,12197 411,12198 409,12196 411,12196 413,12196 414,12198 416,12200 414,12202 418,12201 446,12197 " style="fill: white; stroke: black; stroke-width: 30" />
<polyline points="513,12142 497,12165 490,12209 471,12253 476,12264 482,12241 491,12178 491,12128 490,12104 515,12099 531,12102 575,12113 682,12130 " style="fill: white; stroke: black; stroke-width: 30" />
<polyline points="983,12178 969,12179 966,12178 989,12174 1017,12172 1048,12178 1092,12179 1117,12176 " style="fill: white; stroke: black; stroke-width: 30" />
<polyline points="1015,12117 1021,12116 1033,12121 1073,12127 1126,12125 " style="fill: white; stroke: black; stroke-width: 30" />
<polyline points="-3391,12443 -3397,12438 -3370,12442 -3348,12438 -3271,12442 -3181,12442 -3113,12427 " style="fill: white; stroke: black; stroke-width: 30" />
<polyline points="-3305,12424 -3334,12454 -3368,12495 -3385,12580 -3395,12626 -3359,12650 -3318,12651 -3248,12647 -3174,12653 -3097,12666 " style="fill: white; stroke: black; stroke-width: 30" />
<polyline points="-3363,12516 -3373,12514 -3366,12516 -3320,12531 -3287,12541 -3215,12548 -3154,12539 -3140,12535 -3128,12539 -3125,12539 -3123,12541 -3120,12537 -3117,12538 -3124,12535 -3120,12538 -3120,12538 -3115,12539 -3108,12542 -3118,12539 -3113,12540 -3105,12549 -3118,12582 -3103,12647 -3073,12696 " style="fill: white; stroke: black; stroke-width: 30" />
<polyline points="-3128,12455 -3129,12451 -3123,12455 -3129,12448 -3123,12444 -3110,12444 -3083,12448 -3093,12447 -3099,12452 -3117,12472 -3140,12483 -3131,12488 -3135,12483 -3141,12468 -3122,12453 -3111,12448 " style="fill: white; stroke: black; stroke-width: 30" />
<polyline points="-2991,12633 -3000,12628 -2999,12636 -2991,12666 -2990,12688 -2997,12684 -2988,12678 -2986,12647 -2972,12607 -2955,12581 -2922,12579 -2908,12584 -2887,12595 -2869,12605 -2850,12649 " style="fill: white; stroke: black; stroke-width: 30" />
<polyline points="-2735,12576 -2755,12551 -2759,12533 -2769,12535 -2796,12551 -2794,12601 -2792,12638 -2748,12662 -2697,12661 -2674,12648 -2668,12643 -2671,12643 -2657,12648 -2634,12660 -2588,12659 -2527,12634 -2483,12612 -2480,12599 -2492,12594 -2496,12589 -2505,12583 -2502,12583 -2495,12585 -2510,12584 -2512,12584 -2505,12587 -2512,12584 -2500,12583 -2460,12582 -2416,12590 -2397,12596 -2390,12598 -2377,12597 -2362,12594 -2369,12592 -2357,12596 -2364,12607 -2370,12640 -2362,12665 -2375,12680 -2367,12688 " style="fill: white; stroke: black; stroke-width: 30" />
<polyline points="-2360,12453 -2358,12456 -2364,12457 -2336,12465 -2308,12464 -2269,12454 -2226,12445 -2221,12443 -2238,12441 -2238,12459 -2241,12504 -2252,12581 -2252,12648 -2246,12673 -2225,12679 -2191,12644 -2142,12588 " style="fill: white; stroke: black; stroke-width: 30" />
<polyline points="-2102,12507 -2097,12481 -2105,12470 -2108,12470 -2102,12480 -2104,12491 -2111,12518 -2126,12568 -2123,12635 -2099,12685 -2064,12700 -2057,12689 -2037,12685 -2032,12671 -2019,12649 -2018,12627 -2004,12620 -2004,12617 -2001,12632 -2011,12660 -2014,12698 -2023,12722 -2007,12717 " style="fill: white; stroke: black; stroke-width: 30" />
<polyline points="-1985,12422 -2007,12418 -2002,12418 -2004,12418 -1992,12421 -2001,12430 " style="fill: white; stroke: black; stroke-width: 30" />
<polyline points="-1870,12609 -1859,12599 -1846,12600 -1831,12597 -1833,12594 -1842,12589 -1844,12581 -1877,12575 -1886,12583 -1890,12600 -1884,12622 -1858,12661 -1836,12700 -1804,12751 -1784,12822 -1789,12896 -1804,12929 -1821,12929 -1863,12904 -1883,12838 -1898,12765 -1871,12719 " style="fill: white; stroke: black; stroke-width: 30" />
<polyline points="-1686,12605 -1679,12606 " style="fill: white; stroke: black; stroke-width: 30" />
<polyline points="-1665,12577 -1676,12568 -1698,12564 -1704,12575 -1714,12617 -1713,12684 -1691,12720 -1660,12724 -1600,12678 -1571,12623 -1558,12612 -1577,12626 -1581,12680 -1565,12733 " style="fill: white; stroke: black; stroke-width: 30" />
<polyline points="-1424,12719 -1425,12704 -1431,12695 -1417,12671 -1394,12639 -1373,12630 -1353,12641 -1343,12664 -1342,12681 -1331,12689 " style="fill: white; stroke: black; stroke-width: 30" />
<polyline points="-1186,12617 -1191,12615 -1198,12610 -1204,12600 -1232,12598 -1233,12602 -1224,12611 -1210,12637 -1187,12681 -1145,12749 -1126,12836 -1115,12909 -1101,12949 -1131,12955 -1172,12941 -1229,12897 -1262,12823 -1265,12758 " style="fill: white; stroke: black; stroke-width: 30" />
<polyline points="-214,12606 -225,12592 -246,12576 -260,12568 -308,12563 -353,12575 -375,12595 -359,12614 -318,12685 -283,12715 -283,12727 -319,12740 -403,12739 -434,12726 -458,12713 -445,12710 -414,12692 -322,12669 -229,12654 -138,12640 -105,12629 -109,12627 -150,12640 -188,12661 -225,12685 -233,12725 -190,12761 -135,12771 -72,12744 -48,12702 -62,12666 -95,12641 -105,12632 -107,12635 -95,12640 -74,12657 -55,12683 -7,12710 45,12726 69,12732 76,12724 74,12718 71,12711 83,12688 97,12668 90,12664 100,12667 107,12688 110,12724 124,12737 155,12732 208,12721 220,12726 225,12740 225,12747 266,12740 313,12702 " style="fill: white; stroke: black; stroke-width: 30" />
<polyline points="411,12624 416,12622 421,12627 424,12640 412,12649 408,12667 391,12683 394,12696 400,12713 400,12725 " style="fill: white; stroke: black; stroke-width: 30" />
<polyline points="448,12448 440,12441 440,12437 452,12436 456,12431 " style="fill: white; stroke: black; stroke-width: 30" />
<polyline points="655,12504 633,12486 604,12477 593,12480 598,12539 596,12648 573,12735 564,12788 564,12796 578,12781 575,12728 580,12667 569,12635 564,12630 557,12629 578,12631 607,12633 659,12629 " style="fill: white; stroke: black; stroke-width: 30" />
<polyline points="1405,12655 1427,12617 1430,12602 1417,12593 1404,12584 1357,12592 1331,12604 1335,12616 1343,12645 1357,12688 1361,12727 1329,12764 1308,12777 1282,12767 1266,12747 1267,12731 1268,12722 1303,12708 1361,12701 1432,12685 1476,12681 1479,12714 1438,12802 1389,12917 1356,13004 1351,13029 1342,13016 1367,12946 1397,12834 1441,12741 1515,12685 1578,12661 1607,12660 1615,12667 1588,12680 1537,12703 1496,12714 1496,12714 1483,12707 1490,12696 1491,12692 1487,12695 1528,12693 " style="fill: white; stroke: black; stroke-width: 30" />
<polyline points="1732,12695 1718,12666 1746,12635 1779,12614 1811,12614 1824,12635 1832,12674 1811,12732 1775,12781 1758,12798 1724,12788 1723,12759 1729,12729 1740,12717 1765,12723 1804,12756 1852,12782 1900,12769 " style="fill: white; stroke: black; stroke-width: 30" />
<polyline points="1861,12501 1857,12473 1838,12481 1855,12494 1892,12517 1932,12539 1995,12534 2080,12500 2090,12487 2087,12497 2048,12576 2024,12686 2005,12769 2006,12794 1997,12782 1997,12734 1998,12711 2011,12713 2035,12725 2098,12729 2156,12716 2167,12697 2147,12680 2131,12687 2116,12732 2142,12783 2170,12803 2237,12780 2263,12728 2284,12666 2297,12638 2296,12632 2317,12626 2385,12628 2451,12646 2514,12670 " style="fill: white; stroke: black; stroke-width: 30" />
<polyline points="3038,12509 3031,12500 3017,12517 2986,12592 2937,12714 2906,12797 2906,12842 2939,12848 2997,12806 3068,12720 3163,12642 3186,12618 3176,12621 3133,12646 3015,12693 2906,12741 2848,12770 2850,12778 2908,12795 3012,12806 3107,12809 3183,12798 3236,12777 3282,12742 3307,12712 3296,12700 3264,12690 3227,12689 3234,12695 3222,12733 3240,12773 3260,12797 3276,12832 3321,12851 3383,12846 3428,12812 3448,12776 3434,12756 3408,12746 3381,12753 3368,12786 3374,12821 3393,12853 3395,12878 " style="fill: white; stroke: black; stroke-width: 30" />
<polyline points="3474,12549 3448,12520 3434,12518 3441,12514 3439,12516 3443,12514 3434,12518 3435,12521 3449,12525 3479,12547 " style="fill: white; stroke: black; stroke-width: 30" />
<polyline points="3457,12849 3459,12847 3443,12849 3443,12840 3461,12824 3509,12765 3556,12724 3569,12721 3585,12748 3576,12805 3574,12866 3601,12895 " style="fill: white; stroke: black; stroke-width: 30" />
<polyline points="-3441,13119 -3445,13103 -3448,13103 -3440,13113 -3446,13125 -3444,13182 -3430,13222 -3381,13234 " style="fill: white; stroke: black; stroke-width: 30" />
<polyline points="-3389,13093 -3415,13071 -3410,13072 -3399,13083 -3391,13090 -3401,13109 -3390,13151 -3373,13191 -3363,13208 " style="fill: white; stroke: black; stroke-width: 30" />
<polyline points="-3259,13203 -3265,13195 -3254,13185 -3233,13130 -3186,13036 -3152,12961 -3143,12922 -3128,12915 -3133,12914 -3130,12923 -3133,12947 -3130,12990 -3108,13055 -3098,13106 -3072,13143 -3031,13185 " style="fill: white; stroke: black; stroke-width: 30" />
<polyline points="-3270,13050 -3276,13054 -3265,13051 -3219,13050 -3178,13047 -3113,13054 -3052,13055 " style="fill: white; stroke: black; stroke-width: 30" />
<polyline points="-2922,12912 -2941,12892 -2949,12891 -2944,12906 -2969,12968 -2967,13067 -2951,13138 -2917,13162 -2867,13127 " style="fill: white; stroke: black; stroke-width: 30" />
<polyline points="-2839,13000 -2853,13005 -2880,13007 -2907,13023 -2944,13057 -2970,13091 -2954,13113 -2891,13141 -2836,13145 -2782,13128 " style="fill: white; stroke: black; stroke-width: 30" />
<polyline points="-2680,12949 -2699,12940 -2718,12935 -2697,12942 -2704,12964 -2708,13035 -2727,13117 -2741,13159 -2740,13165 -2738,13157 -2737,13115 -2757,13072 -2741,13068 -2728,13056 -2655,13045 -2576,13027 -2561,13002 -2555,13000 -2565,13009 -2558,13040 -2562,13072 -2574,13096 -2569,13110 -2567,13114 -2573,13119 -2563,13120 " style="fill: white; stroke: black; stroke-width: 30" />
<polyline points="-2516,12915 -2547,12890 -2564,12884 -2554,12887 -2561,12885 -2559,12886 -2533,12900 -2495,12942 " style="fill: white; stroke: black; stroke-width: 30" />
<polyline points="-2430,13106 -2441,13067 -2426,13038 -2401,13029 -2373,13031 -2386,13031 -2405,13025 -2423,13022 -2452,13025 -2488,13056 -2479,13102 -2459,13151 -2435,13171 -2391,13175 -2350,13150 -2339,13115 -2351,13079 -2380,13054 -2410,13048 -2405,13053 -2373,13063 " style="fill: white; stroke: black; stroke-width: 30" />
<polyline points="-2254,13114 " style="fill: white; stroke: black; stroke-width: 30" />
<polyline points="-2169,13163 -2198,13165 -2223,13165 -2226,13162 -2211,13149 -2198,13104 -2194,13064 -2185,13040 -2185,13039 -2171,13052 -2146,13082 -2119,13107 -2113,13118 -2107,13131 -2110,13168 -2095,13184 " style="fill: white; stroke: black; stroke-width: 30" />
<polyline points="-1980,13019 -1977,13050 -1984,13095 -1987,13146 -1985,13184 -1979,13181 -1982,13135 " style="fill: white; stroke: black; stroke-width: 30" />
<polyline points="-1999,12959 -2016,12923 -2023,12920 -2028,12917 -2023,12921 -2019,12922 " style="fill: white; stroke: black; stroke-width: 30" />
<polyline points="-1769,13103 -1805,13087 -1817,13063 -1825,13032 -1851,13015 -1854,13017 -1860,13027 -1863,13051 -1849,13109 -1807,13173 -1800,13201 -1807,13211 -1838,13214 -1845,13210 -1883,13192 -1915,13178 -1909,13173 " style="fill: white; stroke: black; stroke-width: 30" />
<polyline points="-1678,13104 -1700,13137 -1717,13170 -1710,13190 -1700,13194 -1697,13189 -1708,13178 -1695,13156 -1675,13118 -1659,13092 -1608,13082 -1573,13091 -1570,13108 -1575,13128 -1588,13130 -1590,13129 -1563,13130 -1524,13125 -1501,13121 -1476,13123 -1462,13125 -1462,13126 -1458,13137 -1439,13149 " style="fill: white; stroke: black; stroke-width: 30" />
<polyline points="-1372,13088 -1380,13090 -1366,13099 -1363,13115 -1376,13149 -1367,13181 -1347,13184 -1314,13155 -1268,13117 -1235,13112 -1242,13135 -1250,13169 -1241,13186 " style="fill: white; stroke: black; stroke-width: 30" />
<polyline points="-1072,13072 -1096,13063 -1105,13062 -1104,13077 -1098,13126 -1065,13180 -1055,13210 -1058,13217 -1062,13207 -1071,13191 -1093,13184 -1090,13182 " style="fill: white; stroke: black; stroke-width: 30" />
<polyline points="-691,13142 -691,13143 -678,13136 -655,13114 -669,13088 -680,13076 -715,13072 -753,13092 -784,13122 -776,13149 -728,13172 -650,13155 -612,13103 -557,13025 -538,12979 -560,12970 -548,12973 -550,12983 -570,13030 -575,13088 -580,13148 -530,13197 -470,13206 -385,13179 -349,13146 -344,13124 -368,13113 -435,13125 -436,13143 -409,13170 -353,13192 -273,13197 -236,13188 -223,13161 -230,13123 -239,13085 -241,13079 -241,13077 -214,13074 -177,13069 -140,13079 " style="fill: white; stroke: black; stroke-width: 30" />
<polyline points="-926,12940 -928,12934 -930,12935 -924,12950 -937,12999 -968,13047 -942,13061 -936,13053 -898,13004 -858,12925 -832,12889 -837,12897 -862,12934 -894,12976 -874,13006 -840,13023 " style="fill: white; stroke: black; stroke-width: 30" />
<polyline points="181,13037 167,13055 150,13113 136,13179 126,13216 126,13220 121,13214 129,13180 145,13106 145,13056 152,13037 144,13035 152,13038 152,13047 155,13091 163,13138 193,13177 248,13185 336,13148 403,13070 456,13027 451,13025 451,13037 440,13064 427,13107 435,13143 461,13165 505,13165 554,13134 603,13080 633,13071 643,13074 621,13086 622,13108 616,13128 623,13130 663,13128 731,13110 747,13121 750,13141 725,13171 749,13165 " style="fill: white; stroke: black; stroke-width: 30" />
<polyline points="865,12951 843,12966 821,13033 795,13137 791,13192 791,13199 788,13184 784,13130 782,13097 782,13096 810,13095 849,13087 904,13055 977,13005 1028,12963 1026,12971 1000,13014 965,13111 954,13209 958,13233 965,13215 962,13149 972,13106 984,13109 1021,13126 1079,13137 1103,13130 1110,13121 1093,13122 1075,13152 1092,13201 1103,13220 1145,13206 1164,13171 1140,13127 1138,13104 1145,13098 1170,13089 1231,13079 1318,13080 1396,13076 1404,13083 " style="fill: white; stroke: black; stroke-width: 30" />
<polyline points="1593,13194 1582,13187 1588,13178 1594,13164 1630,13142 1682,13134 1731,13141 1835,13139 1971,13127 2071,13115 " style="fill: white; stroke: black; stroke-width: 30" />
<polyline points="1987,13119 1932,13111 1928,13101 1923,13101 1936,13104 2004,13111 2076,13115 2112,13129 2122,13144 2106,13175 2087,13218 2059,13255 2063,13260 2068,13260 " style="fill: white; stroke: black; stroke-width: 30" />
<polyline points="2396,13046 2422,13033 2406,13033 2396,13036 2393,13058 2377,13130 2355,13210 2350,13257 2348,13272 2345,13272 2351,13259 2370,13174 2396,13077 2407,13011 2396,12993 2393,12991 2383,13004 2373,13049 2394,13108 2419,13158 2477,13194 2537,13194 2617,13146 2679,13086 2695,13063 2670,13070 2674,13090 2650,13163 2616,13247 2620,13321 2635,13360 2657,13364 " style="fill: white; stroke: black; stroke-width: 30" />
<polyline points="2802,13186 2776,13189 2782,13192 2790,13193 2794,13199 2819,13215 2830,13244 2831,13276 2801,13310 2779,13330 2758,13336 2730,13326 2717,13304 2735,13287 2740,13283 2776,13281 2820,13286 2854,13284 2883,13278 2917,13264 2963,13240 3007,13201 3038,13149 3035,13113 3039,13093 3035,13078 3049,13046 3041,13031 3036,13022 3036,13023 3029,13027 3002,13058 2999,13105 2966,13172 2933,13252 2927,13323 2895,13376 2898,13388 2909,13389 2935,13349 2938,13310 2963,13268 2980,13235 3013,13201 3012,13187 3044,13172 3041,13175 3047,13175 3052,13185 3034,13223 3036,13268 3045,13298 3064,13308 3071,13302 3104,13261 " style="fill: white; stroke: black; stroke-width: 30" />
<polyline points="3112,13076 3073,13057 3059,13052 3060,13048 3076,13045 3069,13050 3095,13059 3114,13096 " style="fill: white; stroke: black; stroke-width: 30" />
<polyline points="3158,13180 3139,13166 3151,13151 3157,13141 3174,13143 3208,13162 3207,13216 3193,13282 3172,13332 3160,13350 3155,13341 3140,13299 3137,13263 3153,13247 3160,13257 3207,13285 3244,13301 3256,13306 3269,13303 3292,13297 " style="fill: white; stroke: black; stroke-width: 30" />
<polyline points="-2864,7934 -2865,7926 -2859,7925 -2863,7932 -2861,7955 -2861,8018 -2863,8109 -2848,8181 -2844,8192 -2839,8189 -2840,8159 -2855,8076 -2874,7974 -2907,7888 -2920,7845 -2935,7827 -2938,7824 -2936,7829 -2932,7844 -2933,7859 -2923,7887 -2910,7920 -2872,7962 -2829,7998 -2777,8015 -2732,8018 -2689,8001 -2669,7979 -2664,7963 -2662,7963 -2658,7967 -2659,7976 -2658,7993 -2644,8054 -2626,8099 -2613,8130 -2605,8151 -2588,8194 " style="fill: white; stroke: black; stroke-width: 30" />
<polyline points="-2542,7988 -2537,7970 -2510,7952 -2478,7952 -2441,7985 -2402,8053 -2384,8116 -2385,8156 -2418,8179 -2466,8190 -2510,8172 -2522,8156 -2512,8147 -2499,8135 -2457,8130 -2412,8136 -2364,8133 -2311,8120 -2256,8090 -2217,8053 -2193,8015 -2182,7965 -2177,7916 -2191,7870 -2212,7855 -2228,7859 -2248,7881 -2271,7959 -2277,8065 -2267,8170 -2258,8238 -2235,8272 -2234,8272 -2234,8259 -2242,8191 -2245,8113 -2259,8063 -2259,8052 -2248,8054 -2234,8065 -2211,8075 -2186,8079 -2140,8070 -2101,8057 -2086,8050 -2085,8057 -2092,8067 -2086,8096 -2089,8147 -2077,8189 -2069,8190 -2060,8169 " style="fill: white; stroke: black; stroke-width: 30" />
<polyline points="-2094,7922 -2120,7912 -2123,7907 -2124,7903 -2117,7897 -2103,7879 -2078,7867 " style="fill: white; stroke: black; stroke-width: 30" />
<polyline points="-2021,8015 -2001,7988 -1974,7972 -1956,7971 -1933,7992 -1919,8046 -1926,8107 -1944,8149 -1989,8175 -2041,8180 -2061,8168 -2059,8159 -2049,8145 -2025,8122 -2009,8119 -1965,8143 -1931,8179 -1890,8213 " style="fill: white; stroke: black; stroke-width: 30" />
<polyline points="-1379,7953 -1380,7935 -1385,7933 -1382,7939 -1390,7957 -1384,8061 -1370,8180 -1373,8273 -1387,8330 -1406,8353 -1435,8356 -1485,8339 -1541,8291 -1555,8243 -1561,8175 -1534,8117 " style="fill: white; stroke: black; stroke-width: 30" />
<polyline points="-1328,8114 -1301,8070 -1257,8041 -1213,8031 -1183,8033 -1159,8053 -1143,8098 -1145,8147 -1158,8199 -1181,8220 -1218,8213 -1257,8191 -1268,8171 -1265,8163 -1263,8157 -1247,8135 " style="fill: white; stroke: black; stroke-width: 30" />
<polyline points="-984,8037 -986,8040 -986,8049 -987,8077 -996,8153 -1001,8223 -996,8257 -977,8250 " style="fill: white; stroke: black; stroke-width: 30" />
<polyline points="-982,7993 -1006,7963 -1010,7953 -1010,7953 -1004,7954 -1000,7959 " style="fill: white; stroke: black; stroke-width: 30" />
<polyline points="-893,8211 -908,8211 -907,8207 -885,8196 -834,8153 -773,8105 -718,8089 -710,8117 -713,8198 -716,8267 -693,8279 -656,8233 -606,8147 -554,8023 " style="fill: white; stroke: black; stroke-width: 30" />
<polyline points="-512,7817 -513,7815 -526,7824 -548,7895 -564,7967 " style="fill: white; stroke: black; stroke-width: 30" />
<polyline points="-458,7814 -457,7797 -458,7802 -463,7835 -469,7968 -482,8115 -464,8209 -432,8259 " style="fill: white; stroke: black; stroke-width: 30" />
<polyline points="-582,8034 -585,8033 -576,8031 -542,8033 -458,8030 -368,8023 -277,8027 " style="fill: white; stroke: black; stroke-width: 30" />
<polyline points="2908,10833 2901,10831 2902,10826 2907,10812 2938,10773 3000,10702 3110,10613 3201,10553 3233,10531 3234,10527 3247,10518 3241,10518 3226,10522 3212,10529 3214,10529 3230,10528 3234,10528 3241,10528 3246,10529 " style="fill: white; stroke: black; stroke-width: 30" />
<polyline points="2857,10739 2892,10703 2913,10690 2920,10690 2912,10703 2910,10737 2887,10787 2876,10803 2882,10801 2895,10798 2907,10795 2948,10787 2989,10780 3065,10767 3158,10747 " style="fill: white; stroke: black; stroke-width: 30" />
<polyline points="3529,10391 3500,10410 3492,10453 3488,10514 3509,10569 3531,10595 3542,10593 3541,10574 3517,10516 3500,10430 3481,10380 3489,10334 3524,10308 3564,10317 3604,10356 3611,10408 3602,10437 3575,10453 3547,10446 3521,10425 3507,10402 3508,10398 3514,10395 3530,10395 3584,10378 " style="fill: white; stroke: black; stroke-width: 30" />
<polyline points="3769,10354 3783,10347 3787,10332 3778,10307 3748,10289 3721,10286 3706,10294 3691,10339 3660,10417 3634,10498 3629,10580 3646,10651 3663,10681 3674,10672 3692,10605 3692,10504 3682,10460 3693,10452 3697,10450 3704,10456 3718,10462 3753,10468 3785,10473 3791,10490 3791,10522 3776,10561 3784,10569 3790,10567 3818,10532 " style="fill: white; stroke: black; stroke-width: 30" />
<polyline points="3809,10342 3810,10338 3810,10337 3811,10340 3815,10345 " style="fill: white; stroke: black; stroke-width: 30" />
<polyline points="3967,10450 3920,10439 3909,10440 3903,10456 3916,10513 3925,10571 3915,10607 3900,10620 3885,10612 3872,10603 3891,10583 3974,10531 4061,10469 4126,10396 4124,10337 4093,10320 4046,10341 4011,10425 3993,10517 3995,10582 4006,10592 4007,10576 4003,10538 4010,10513 4020,10512 4038,10528 4076,10544 4090,10557 4118,10553 4146,10543 4159,10533 4157,10533 4157,10527 4155,10529 4147,10539 4139,10568 4134,10603 4146,10625 4169,10630 4196,10627 4204,10611 4209,10573 4212,10547 4206,10551 4218,10559 4252,10580 4271,10598 4319,10593 4354,10562 4370,10532 4353,10522 4331,10535 4309,10580 4318,10615 4339,10630 4371,10635 4395,10632 4404,10621 4418,10594 4427,10573 4444,10554 4472,10542 4490,10537 4491,10544 4515,10541 " style="fill: white; stroke: black; stroke-width: 30" />
<polyline points="3616,10761 3610,10755 3610,10747 3607,10749 3602,10755 3589,10786 3561,10861 3562,10893 3589,10902 3622,10910 3696,10909 3760,10910 3818,10903 " style="fill: white; stroke: black; stroke-width: 30" />
<polyline points="3763,10784 3757,10782 3757,10788 3789,10806 3820,10845 3836,10886 3826,10918 3803,10953 3772,10968 3766,10972 3764,10972 3791,10960 " style="fill: white; stroke: black; stroke-width: 30" />
<polyline points="4030,10843 4020,10835 4003,10838 3998,10858 3974,10942 3969,11026 3955,11076 3969,11081 3984,11054 4004,10964 4023,10851 4042,10808 4087,10797 4127,10817 4133,10848 4101,10881 4031,10909 3967,10915 3952,10915 3975,10911 4012,10910 4062,10917 4105,10920 4134,10925 4137,10938 4137,10972 4137,11021 4137,11067 4148,11071 4147,11060 4150,11021 4148,10967 4138,10954 4149,10950 4154,10950 4158,10953 4161,10963 4174,10970 4203,10973 4241,10967 4274,10953 4278,10951 4277,10949 4286,10944 4283,10944 4283,10943 4281,10946 4292,10954 4311,10971 4339,10978 4355,10971 4373,10953 4359,10956 4369,10955 4361,10962 4337,10999 4324,11024 4328,11040 4332,11044 4332,11045 " style="fill: white; stroke: black; stroke-width: 30" />
<polyline points="4380,10815 4360,10797 4352,10789 4351,10781 4366,10774 4372,10777 4379,10794 " style="fill: white; stroke: black; stroke-width: 30" />
<polyline points="4443,10933 4438,10935 4452,10932 4450,10933 4429,10945 4406,10977 4380,11016 4400,11042 4446,11054 4494,11062 4545,11045 4556,11027 4543,10997 4502,10964 4492,10934 4472,10935 4468,10939 4476,10947 4491,10958 " style="fill: white; stroke: black; stroke-width: 30" />
<polyline points="4002,11163 3999,11167 3990,11193 3969,11268 3973,11316 3990,11345 3990,11352 4006,11339 4018,11286 4012,11197 4006,11137 3998,11122 4016,11115 4040,11120 4080,11139 4131,11162 4134,11186 4119,11207 4062,11231 3990,11263 3965,11278 3976,11295 4016,11309 4078,11313 4143,11301 4218,11274 4267,11240 4263,11223 4241,11203 4202,11203 4175,11214 4162,11240 4165,11269 4191,11298 4228,11316 4286,11312 4299,11304 4302,11285 4296,11247 4260,11220 4236,11205 4242,11207 4256,11218 4287,11251 4319,11290 4346,11312 4393,11299 4445,11242 4462,11172 4463,11134 4454,11126 4437,11136 4408,11173 4382,11227 4386,11267 4401,11291 4459,11286 4532,11242 4588,11186 4597,11162 4572,11158 4532,11171 4503,11198 4470,11247 4489,11275 4539,11295 4612,11284 4651,11270 4667,11249 4662,11230 4675,11195 4667,11170 4662,11166 4630,11185 4600,11240 4599,11304 4626,11331 4663,11332 4719,11290 4760,11245 4763,11233 4768,11233 4767,11238 4763,11241 4763,11240 4760,11245 " style="fill: white; stroke: black; stroke-width: 30" />
<polyline points="3993,11486 3998,11492 4007,11489 4026,11469 4043,11422 4078,11371 4090,11347 4094,11344 4083,11349 4084,11359 4076,11387 4103,11403 4110,11425 4130,11436 4134,11435 4134,11434 " style="fill: white; stroke: black; stroke-width: 30" />
<polyline points="4008,11381 3979,11379 3977,11380 3979,11386 3982,11395 3996,11399 4008,11403 4017,11408 4056,11411 4096,11414 4141,11417 4202,11422 " style="fill: white; stroke: black; stroke-width: 30" />
<polyline points="4144,11390 4148,11387 4159,11387 4183,11390 4204,11398 4226,11410 4242,11423 4246,11444 4243,11449 4243,11449 4211,11452 4179,11438 4174,11409 4164,11395 4168,11393 4181,11399 4198,11419 4227,11441 4272,11442 4309,11436 " style="fill: white; stroke: black; stroke-width: 30" />
<polyline points="4350,11484 4337,11476 4347,11455 4337,11435 4329,11406 4320,11396 4312,11396 4321,11397 4326,11398 4342,11399 4389,11390 4425,11389 " style="fill: white; stroke: black; stroke-width: 30" />
<polyline points="4478,11362 4472,11347 4468,11344 4490,11344 4522,11358 4529,11397 4523,11437 4484,11479 4447,11495 4423,11496 4424,11483 4436,11453 4455,11419 4460,11405 4465,11404 4477,11407 4488,11420 4524,11438 4580,11439 4607,11439 4619,11430 4625,11416 4614,11403 4603,11403 4612,11398 4610,11407 4599,11438 4604,11452 4621,11449 4639,11445 4696,11419 4705,11409 4703,11411 4705,11415 4714,11417 4716,11436 4721,11461 4725,11497 4735,11508 " style="fill: white; stroke: black; stroke-width: 30" />
<polyline points="-3028,11203 -3035,11206 -3045,11226 -3045,11286 -3034,11380 -3052,11449 -3043,11478 -3029,11487 -3042,11472 -3044,11418 -3070,11311 -3098,11221 -3121,11159 -3116,11150 -3098,11142 -3047,11143 -2987,11172 -2957,11199 -2969,11219 -3019,11233 -3076,11225 -3098,11219 -3099,11216 -3047,11223 " style="fill: white; stroke: black; stroke-width: 30" />
<polyline points="-2914,11345 -2921,11381 -2918,11426 -2918,11454 -2912,11457 -2923,11454 -2935,11445 -2942,11417 -2922,11349 -2911,11305 -2899,11295 -2909,11297 -2899,11302 -2903,11311 -2880,11339 -2829,11360 -2781,11363 -2748,11352 -2751,11338 -2761,11328 -2786,11327 -2807,11336 -2827,11370 -2828,11412 -2801,11437 -2753,11435 -2715,11410 -2714,11385 -2722,11351 -2746,11335 -2767,11324 -2758,11327 -2767,11325 -2755,11333 -2729,11350 " style="fill: white; stroke: black; stroke-width: 30" />
<polyline points="-2561,11251 -2577,11224 -2568,11214 -2574,11218 -2577,11242 -2602,11312 -2615,11382 -2622,11409 -2613,11412 -2620,11403 -2607,11384 -2579,11365 -2559,11348 -2504,11357 -2478,11386 -2473,11417 -2481,11443 -2531,11461 -2570,11450 -2603,11428 -2610,11408 -2590,11380 " style="fill: white; stroke: black; stroke-width: 30" />
<polyline points="-2268,11194 -2280,11185 -2291,11183 -2311,11192 -2324,11203 -2322,11262 -2327,11350 -2297,11432 -2289,11471 -2269,11476 -2242,11466 -2223,11439 -2191,11387 -2174,11345 -2182,11341 -2214,11354 -2283,11393 -2301,11438 -2283,11464 -2227,11468 -2136,11458 -2057,11436 -2005,11418 -1997,11415 -2017,11414 -2022,11417 -2029,11417 -2027,11418 -2023,11419 -2037,11422 -2036,11429 -2043,11459 -2049,11489 -2048,11498 -2031,11492 -2012,11474 -1990,11454 -1963,11451 -1954,11462 -1939,11485 -1930,11496 -1928,11500 -1894,11498 -1880,11509 -1872,11532 -1861,11533 " style="fill: white; stroke: black; stroke-width: 30" />
<polyline points="-1432,11218 -1422,11209 -1422,11213 -1429,11246 -1440,11338 -1456,11431 -1473,11474 -1447,11484 -1452,11470 -1431,11421 -1404,11382 -1362,11376 -1309,11411 -1286,11466 -1289,11510 -1307,11519 -1343,11503 -1390,11470 -1416,11427 -1426,11418 -1395,11416 -1339,11423 -1289,11434 -1260,11447 -1256,11455 -1242,11468 -1200,11466 -1161,11445 -1142,11411 -1123,11389 -1147,11371 -1178,11374 -1216,11406 -1224,11463 -1197,11494 -1148,11510 -1099,11504 -1050,11479 -1019,11445 -1027,11436 -1029,11434 -1029,11434 -1031,11432 -1024,11435 -1027,11437 -1025,11447 -1032,11468 -1030,11501 -1024,11529 -1004,11525 " style="fill: white; stroke: black; stroke-width: 30" />
<polyline points="-1010,11252 -1022,11256 -1011,11256 -1009,11258 -1001,11272 " style="fill: white; stroke: black; stroke-width: 30" />
<polyline points="-929,11503 -951,11499 -937,11491 -920,11472 -887,11440 -856,11425 -837,11432 -839,11461 -837,11491 " style="fill: white; stroke: black; stroke-width: 30" />
<polyline points="-666,11227 -664,11222 -650,11229 -653,11249 -654,11314 -675,11418 -696,11472 -687,11475 -689,11459 -633,11426 -577,11405 -531,11419 -521,11452 -525,11478 -516,11475 " style="fill: white; stroke: black; stroke-width: 30" />
<polyline points="-415,11390 -421,11385 -415,11385 -383,11410 -367,11443 -361,11468 -390,11487 -424,11510 -465,11508 -495,11496 -486,11485 -477,11478 -455,11480 -438,11498 -413,11513 -369,11515 -297,11473 -228,11392 -192,11309 -189,11281 -204,11275 -213,11279 -239,11324 -259,11437 -274,11511 -250,11541 -224,11533 -177,11472 " style="fill: white; stroke: black; stroke-width: 30" />
<polyline points="40,11194 12,11192 -23,11219 -51,11298 -88,11420 -119,11514 -126,11544 -128,11538 -115,11489 -106,11443 -93,11431 -84,11438 -58,11451 -19,11449 19,11427 27,11394 21,11391 -4,11416 -24,11464 -17,11496 4,11497 58,11462 101,11416 " style="fill: white; stroke: black; stroke-width: 30" />
<polyline points="196,11187 192,11196 184,11223 161,11278 128,11358 99,11442 97,11470 101,11464 112,11433 114,11410 107,11404 114,11402 111,11398 137,11400 159,11399 193,11395 " style="fill: white; stroke: black; stroke-width: 30" />
<polyline points="573,11412 564,11408 554,11418 544,11449 539,11475 532,11509 524,11526 533,11530 548,11519 586,11464 636,11421 645,11423 631,11453 608,11511 587,11560 598,11573 633,11556 " style="fill: white; stroke: black; stroke-width: 30" />
<polyline points="836,11255 834,11256 825,11269 812,11300 806,11365 773,11432 773,11461 786,11466 787,11467 797,11467 810,11463 832,11457 881,11448 921,11436 " style="fill: white; stroke: black; stroke-width: 30" />
<polyline points="952,11407 938,11400 956,11384 997,11375 1028,11386 1035,11413 1027,11446 1012,11475 998,11489 982,11487 976,11464 959,11438 948,11416 948,11410 956,11406 " style="fill: white; stroke: black; stroke-width: 30" />
<polyline points="956,11251 967,11250 978,11255 1001,11277 1042,11297 1098,11314 " style="fill: white; stroke: black; stroke-width: 30" />
<polyline points="1146,11345 1122,11348 1103,11349 1102,11357 1091,11385 1091,11434 1101,11468 1105,11488 1104,11496 1100,11501 1091,11494 1070,11482 1053,11463 1054,11449 1055,11442 " style="fill: white; stroke: black; stroke-width: 30" />
<polyline points="1117,11381 1100,11389 1102,11411 1102,11453 1111,11474 1117,11473 1142,11459 1190,11431 1189,11424 1195,11439 1178,11484 1173,11527 1196,11516 " style="fill: white; stroke: black; stroke-width: 30" />
<polyline points="1277,11448 1288,11467 1281,11466 1300,11458 1342,11441 1362,11440 1382,11444 1387,11462 1402,11477 1428,11471 1454,11450 1464,11443 1442,11442 1442,11442 1441,11439 1441,11438 1445,11436 1441,11439 1448,11440 1452,11439 1458,11435 1471,11432 1479,11427 1482,11426 1475,11427 1473,11429 1467,11431 1482,11430 1474,11435 1471,11483 1459,11568 1460,11663 1442,11720 1437,11736 1421,11729 1405,11696 1402,11648 1405,11601 " style="fill: white; stroke: black; stroke-width: 30" />
<polyline points="1718,11228 1718,11226 1718,11231 1701,11263 1679,11318 1662,11359 1670,11363 1723,11338 1791,11275 1819,11256 1805,11267 1783,11293 1771,11317 1775,11329 1785,11379 1781,11442 1793,11462 " style="fill: white; stroke: black; stroke-width: 30" />
<polyline points="2010,11410 2008,11415 2011,11418 2008,11425 2019,11429 2021,11438 2025,11450 2025,11463 2010,11482 2005,11492 1995,11497 1980,11501 1982,11498 1979,11497 1986,11495 1988,11493 1983,11493 1985,11494 2001,11492 1999,11491 " style="fill: white; stroke: black; stroke-width: 30" />
<polyline points="2171,11415 2158,11407 2137,11404 2120,11409 2092,11429 2074,11471 2067,11495 2066,11501 2100,11490 2141,11452 2190,11397 2233,11352 2238,11341 2223,11344 2211,11354 2184,11390 2185,11431 2197,11457 2225,11473 2245,11482 2257,11483 2261,11485 " style="fill: white; stroke: black; stroke-width: 30" />
<polyline points="2325,11447 2324,11451 2321,11450 2332,11450 2348,11449 2369,11451 2361,11454 2365,11461 2379,11475 2374,11496 2369,11516 2365,11522 2343,11516 2332,11491 2332,11470 2332,11461 2333,11463 2338,11468 " style="fill: white; stroke: black; stroke-width: 30" />
<polyline points="2432,11523 2416,11520 2417,11512 2433,11503 2472,11489 2500,11493 2503,11505 2509,11520 2513,11530 2513,11532 " style="fill: white; stroke: black; stroke-width: 30" />
<polyline points="1388,10939 1406,10914 1409,10906 1404,10916 1381,10950 1332,11006 1316,11045 1307,11065 1307,11077 1315,11075 " style="fill: white; stroke: black; stroke-width: 30" />
<polyline points="1333,10957 1327,10959 1310,10978 1275,11040 1249,11095 1261,11107 1304,11105 1374,11089 1418,11075 " style="fill: white; stroke: black; stroke-width: 30" />
<polyline points="1568,10659 1565,10653 1556,10650 1546,10649 1517,10647 1461,10666 1431,10689 1422,10714 1446,10754 1462,10781 1457,10788 1457,10791 1436,10787 1420,10781 1419,10774 1421,10772 1427,10770 1445,10765 1478,10748 1514,10736 1547,10728 1563,10728 1565,10727 1573,10723 1584,10711 1593,10702 1602,10693 1602,10693 1606,10691 1599,10697 1586,10711 1585,10730 1577,10750 1589,10763 1614,10761 1651,10753 1661,10751 1666,10755 1665,10760 1665,10765 1670,10768 " style="fill: white; stroke: black; stroke-width: 30" />
<polyline points="1654,10621 1654,10621 1652,10622 1663,10625 1666,10631 1689,10645 1721,10663 " style="fill: white; stroke: black; stroke-width: 30" />
<polyline points="1742,10786 1728,10776 1731,10765 1742,10757 1760,10752 1761,10758 1770,10761 1772,10774 1786,10780 " style="fill: white; stroke: black; stroke-width: 30" />
<polyline points="1901,10735 1882,10721 1871,10718 1847,10740 1833,10781 1841,10807 1865,10810 1890,10793 1943,10733 1972,10669 1989,10644 1974,10645 1981,10648 1965,10680 1951,10729 1957,10760 1965,10774 1974,10777 1991,10774 2024,10758 2042,10747 2041,10744 2031,10746 2037,10755 2037,10766 2048,10771 2091,10758 2125,10756 2128,10764 2116,10786 2138,10801 " style="fill: white; stroke: black; stroke-width: 30" />
<polyline points="1748,10900 1744,10893 1742,10893 1735,10900 1719,10921 1712,10971 1703,11002 1715,11011 1721,11007 1731,10997 1751,10978 1775,10975 1806,10999 1825,11032 1825,11048 1810,11047 1775,11031 1727,11004 1716,10989 1708,10991 1710,10991 1756,10992 " style="fill: white; stroke: black; stroke-width: 30" />
<polyline points="1915,10963 1916,10960 1921,10952 1915,10951 1889,10953 1854,10975 1835,11003 1837,11026 1895,11036 1935,11015 1954,10991 1956,10974 1930,10953 1905,10947 1903,10947 1930,10951 1971,10949 " style="fill: white; stroke: black; stroke-width: 30" />
<polyline points="2110,10894 2109,10886 2094,10887 2083,10888 2054,10897 2038,10924 2020,10967 2015,11004 2025,11021 2051,11023 2104,10988 2174,10932 2222,10878 2251,10836 2247,10817 2224,10822 2207,10835 2184,10882 2148,10946 2154,10984 2163,10997 2203,10980 2241,10949 2272,10919 2263,10898 2231,10899 2192,10913 2167,10940 2163,10977 2179,11000 2210,11013 2234,11023 " style="fill: white; stroke: black; stroke-width: 30" />

</svg>