<?xml version="1.0" standalone="no"?>
<!DOCTYPE svg PUBLIC "-//W3C//DTD SVG 1.1//EN" "http://www.w3.org/Graphics/SVG/1.1/DTD/svg11.dtd">
<svg width="210mm" height="297mm" viewBox="-7000 500 14000 20000" version="1.1" xmlns="http://www.w3.org/2000/svg">

<polyline points="-2943,4549 " style="fill: white; stroke: black; stroke-width: 30" />
<polyline points="-2951,4546 -2934,4542 -2906,4535 -2875,4539 -2825,4541 -2735,4537 -2589,4528 -2402,4523 -2165,4527 -1882,4535 -1570,4538 -1236,4542 -860,4535 -458,4516 -35,4501 385,4494 786,4498 1152,4501 1445,4504 1647,4517 1772,4518 1847,4510 " style="fill: white; stroke: black; stroke-width: 30" />
<polyline points="-2976,4437 -2972,4475 -2962,4544 -2961,4682 -2962,4870 -2966,5056 -2962,5192 -2957,5307 -2952,5380 " style="fill: white; stroke: black; stroke-width: 30" />
<polyline points="-2875,5346 -2883,5351 -2876,5353 -2822,5363 -2685,5365 -2481,5355 -2210,5340 -1893,5333 -1535,5322 -1160,5323 -796,5320 -428,5310 -57,5302 280,5301 572,5284 818,5249 1004,5209 1134,5185 1197,5178 1204,5185 1203,5193 1203,5196 " style="fill: white; stroke: black; stroke-width: 30" />
<polyline points="1526,4485 1498,4535 1471,4655 1459,4826 1454,5007 1469,5158 1501,5258 " style="fill: white; stroke: black; stroke-width: 30" />
<polyline points="-2878,5703 -2848,5870 -2817,6074 -2796,6227 -2776,6310 -2774,6354 -2773,6361 -2768,6358 -2777,6325 -2781,6296 -2783,6276 -2788,6270 -2790,6267 -2788,6269 -2756,6278 -2690,6302 -2593,6330 -2444,6354 -2230,6364 -1961,6369 -1656,6353 -1296,6317 -943,6265 -580,6222 -237,6195 66,6190 323,6200 526,6221 666,6236 763,6224 " style="fill: white; stroke: black; stroke-width: 30" />
<polyline points="1325,5305 1313,5307 1305,5364 1301,5519 1297,5694 1303,5868 1325,6001 1372,6099 " style="fill: white; stroke: black; stroke-width: 30" />
<polyline points="-2842,6411 -2812,6493 -2735,6665 -2646,6898 -2577,7122 -2529,7291 -2512,7361 " style="fill: white; stroke: black; stroke-width: 30" />
<polyline points="-2499,7176 -2451,7225 -2378,7258 -2242,7287 -2033,7306 -1775,7318 -1459,7316 -1116,7311 -752,7301 -382,7283 -10,7257 351,7231 678,7198 969,7174 1225,7159 1440,7133 " style="fill: white; stroke: black; stroke-width: 30" />
<polyline points="1454,6160 1434,6187 1445,6282 1473,6466 1513,6668 1553,6882 1598,7067 " style="fill: white; stroke: black; stroke-width: 30" />
<polyline points="-2516,7213 -2496,7318 -2418,7553 -2322,7864 -2231,8150 -2145,8383 -2077,8556 -2046,8657 " style="fill: white; stroke: black; stroke-width: 30" />
<polyline points="-2055,8502 -1979,8528 -1854,8543 -1690,8560 -1478,8557 -1212,8520 -906,8454 -600,8396 -297,8347 -21,8314 260,8287 542,8260 799,8219 1035,8164 1248,8105 1443,8056 1598,8023 1751,7994 1878,7958 2001,7917 2122,7892 2242,7885 2356,7883 " style="fill: white; stroke: black; stroke-width: 30" />
<polyline points="1672,7138 1716,7294 1824,7603 1916,7902 1982,8106 2042,8252 2079,8326 " style="fill: white; stroke: black; stroke-width: 30" />
<polyline points="-1758,4639 -1738,4907 -1691,5359 " style="fill: white; stroke: black; stroke-width: 30" />
<polyline points="-763,4619 -779,4800 -749,5084 -676,5427 -583,5735 " style="fill: white; stroke: black; stroke-width: 30" />
<polyline points="404,4414 427,4451 452,4629 469,5020 492,5408 " style="fill: white; stroke: black; stroke-width: 30" />
<polyline points="-1731,5575 -1678,5820 -1561,6234 " style="fill: white; stroke: black; stroke-width: 30" />
<polyline points="-625,5362 -578,5601 -495,6038 -393,6493 " style="fill: white; stroke: black; stroke-width: 30" />
<polyline points="454,5382 454,5516 516,5764 600,6104 " style="fill: white; stroke: black; stroke-width: 30" />
<polyline points="-1380,6384 -1343,6596 -1228,6993 -1123,7322 " style="fill: white; stroke: black; stroke-width: 30" />
<polyline points="-348,6374 -297,6617 -192,6923 -120,7194 " style="fill: white; stroke: black; stroke-width: 30" />
<polyline points="618,6540 671,6766 726,6999 744,7212 " style="fill: white; stroke: black; stroke-width: 30" />
<polyline points="-1101,7448 -1053,7595 -918,7930 -830,8272 -803,8535 " style="fill: white; stroke: black; stroke-width: 30" />
<polyline points="-64,7462 32,7698 107,7952 137,8186 153,8346 " style="fill: white; stroke: black; stroke-width: 30" />
<polyline points="755,7404 772,7518 835,7717 904,7980 946,8217 " style="fill: white; stroke: black; stroke-width: 30" />
<polyline points="2407,4106 2401,4104 2400,4139 2401,4222 2405,4294 2420,4335 " style="fill: white; stroke: black; stroke-width: 30" />
<polyline points="2353,3950 2353,3928 2358,3914 2371,3909 2386,3917 2392,3954 2377,4000 2360,4021 2341,4019 2329,3998 2330,3966 " style="fill: white; stroke: black; stroke-width: 30" />
<polyline points="2528,4276 2517,4270 2513,4251 2513,4210 2529,4135 2552,4085 2561,4075 2575,4090 2594,4139 2610,4187 2630,4207 2660,4205 " style="fill: white; stroke: black; stroke-width: 30" />
<polyline points="2835,4045 2789,4052 2763,4068 2750,4106 2741,4151 2740,4198 2733,4231 2720,4257 2706,4259 2693,4252 2686,4225 2689,4186 " style="fill: white; stroke: black; stroke-width: 30" />
<polyline points="2861,4185 2852,4196 2835,4232 2826,4276 2827,4293 2839,4290 2872,4243 2919,4178 2946,4141 2952,4144 2961,4170 2966,4216 2972,4237 2981,4244 2988,4250 2989,4272 2999,4297 3028,4306 " style="fill: white; stroke: black; stroke-width: 30" />
<polyline points="3128,4147 3073,4173 3042,4210 3043,4241 3075,4255 3131,4256 3184,4232 3206,4210 3193,4192 3165,4183 3149,4185 3163,4187 3201,4180 " style="fill: white; stroke: black; stroke-width: 30" />
<polyline points="3335,4163 3349,4149 3346,4142 3347,4135 3345,4131 3345,4132 3343,4133 3345,4135 3345,4135 3342,4140 3342,4140 3344,4140 3343,4138 3318,4146 3280,4169 3254,4208 3243,4244 3257,4269 3281,4273 3324,4257 3374,4208 3427,4132 3454,4076 3461,4061 3460,4059 3448,4070 3425,4117 3404,4195 3400,4289 " style="fill: white; stroke: black; stroke-width: 30" />
<polyline points="2485,4608 2481,4605 2499,4602 2532,4611 2589,4616 " style="fill: white; stroke: black; stroke-width: 30" />
<polyline points="2821,4504 2801,4517 2789,4572 2778,4665 2779,4731 2783,4762 2784,4764 2784,4737 2787,4665 2790,4573 2809,4510 2838,4497 2861,4511 2876,4547 2855,4602 2802,4655 2755,4698 2752,4723 2784,4742 2863,4744 2938,4731 2976,4709 2969,4687 2953,4673 2949,4670 2944,4672 2944,4671 2942,4676 2928,4697 2935,4729 2961,4755 3021,4770 3085,4757 " style="fill: white; stroke: black; stroke-width: 30" />
<polyline points="3178,4447 3168,4479 3142,4572 3134,4666 3147,4719 3166,4741 3195,4736 3239,4703 3275,4680 3285,4688 3289,4709 3292,4741 3291,4756 3297,4757 3304,4732 " style="fill: white; stroke: black; stroke-width: 30" />
<polyline points="3330,4498 3314,4476 3310,4469 3310,4470 " style="fill: white; stroke: black; stroke-width: 30" />
<polyline points="3395,4642 3380,4635 3370,4640 3354,4668 3343,4699 3359,4717 3386,4726 3425,4718 3460,4695 3471,4687 3467,4691 3456,4720 3443,4774 3430,4841 3404,4899 3375,4934 3349,4936 3333,4911 3353,4830 3401,4712 3460,4652 3521,4624 3556,4627 3573,4658 3562,4718 3548,4761 3543,4772 3548,4764 3546,4715 " style="fill: white; stroke: black; stroke-width: 30" />
<polyline points="3590,4424 3603,4411 3627,4408 3649,4436 3668,4497 3684,4562 3689,4606 " style="fill: white; stroke: black; stroke-width: 30" />
<polyline points="3642,4635 3637,4623 " style="fill: white; stroke: black; stroke-width: 30" />
<polyline points="3682,4686 3678,4659 3702,4609 3732,4583 3752,4584 3756,4633 3727,4700 3681,4744 3633,4755 3610,4736 3615,4683 3657,4622 3715,4608 " style="fill: white; stroke: black; stroke-width: 30" />
<polyline points="3780,4734 3752,4730 3755,4721 3792,4686 3837,4668 3864,4676 3872,4692 3875,4729 3895,4750 " style="fill: white; stroke: black; stroke-width: 30" />
<polyline points="2468,5085 2457,5086 2462,5083 2516,5098 2601,5125 " style="fill: white; stroke: black; stroke-width: 30" />
<polyline points="2880,4985 2880,4985 2876,5036 2872,5147 2863,5226 2863,5260 2864,5257 2861,5234 2862,5170 2847,5103 2832,5027 2824,4964 2822,4919 2825,4910 2852,4922 2905,4968 2941,5012 2921,5048 2844,5080 2778,5089 2783,5082 2848,5080 2964,5088 3031,5127 2989,5168 2904,5204 2852,5206 2862,5194 2891,5163 2937,5134 2983,5107 3015,5090 3025,5087 3030,5110 3038,5161 3053,5200 3069,5213 3089,5208 3111,5175 " style="fill: white; stroke: black; stroke-width: 30" />
<polyline points="3073,4975 3062,4976 3050,4979 3043,4983 3049,4985 3063,4994 " style="fill: white; stroke: black; stroke-width: 30" />
<polyline points="3223,4924 3208,4928 3210,4954 3209,5031 3201,5133 3200,5217 " style="fill: white; stroke: black; stroke-width: 30" />
<polyline points="3368,5072 3362,5066 3343,5061 3303,5070 3263,5100 3241,5140 3267,5157 3323,5162 3383,5139 3431,5103 3469,5055 3486,5014 3484,5015 3473,5050 3466,5111 3478,5158 3503,5180 3541,5178 3577,5165 3605,5155 3619,5161 3631,5172 3659,5173 3690,5167 " style="fill: white; stroke: black; stroke-width: 30" />
<polyline points="3704,5173 3691,5190 3709,5196 3727,5207 3759,5204 3776,5213 " style="fill: white; stroke: black; stroke-width: 30" />
<polyline points="3869,5190 3874,5201 3897,5198 3935,5185 3959,5174 3968,5176 3977,5177 3986,5185 3990,5191 " style="fill: white; stroke: black; stroke-width: 30" />
<polyline points="4177,5141 4164,5134 4147,5132 4134,5142 4126,5172 4137,5217 4151,5278 4177,5330 4187,5372 4166,5404 4159,5405 4161,5386 4195,5308 " style="fill: white; stroke: black; stroke-width: 30" />
<polyline points="2467,5527 2455,5532 2455,5529 2477,5528 2530,5526 " style="fill: white; stroke: black; stroke-width: 30" />
<polyline points="2861,5498 2849,5585 2847,5674 2855,5715 2857,5720 2872,5694 " style="fill: white; stroke: black; stroke-width: 30" />
<polyline points="2827,5462 2825,5404 2840,5379 2873,5375 2907,5421 2918,5494 2892,5548 2840,5576 2789,5567 2774,5545 2781,5522 2822,5496 " style="fill: white; stroke: black; stroke-width: 30" />
<polyline points="3112,5500 3055,5509 3025,5537 3018,5589 3041,5634 3068,5669 3070,5685 3055,5694 3010,5697 2983,5680 2988,5645 3037,5596 3110,5543 3187,5498 3234,5481 3240,5484 3235,5506 3224,5567 3223,5621 3243,5643 3286,5635 3350,5602 3406,5569 3418,5567 3393,5604 3352,5690 3310,5771 3283,5835 3279,5869 " style="fill: white; stroke: black; stroke-width: 30" />
<polyline points="2472,6013 2456,6006 2482,5996 2551,5980 2655,5956 " style="fill: white; stroke: black; stroke-width: 30" />
<polyline points="1973,2027 1939,2025 1957,2010 1997,1991 2058,1976 2101,2007 2105,2072 2071,2152 2050,2197 2059,2213 2093,2229 2155,2232 " style="fill: white; stroke: black; stroke-width: 30" />
<polyline points="2280,2056 2228,2107 2196,2174 2205,2212 2243,2225 2285,2204 2314,2157 2305,2115 2280,2098 2270,2102 2270,2104 " style="fill: white; stroke: black; stroke-width: 30" />
<polyline points="2631,2041 2614,2066 2594,2134 2591,2195 2612,2231 2644,2243 2667,2240 2674,2243 2684,2247 2724,2247 2779,2230 2819,2212 2829,2193 2819,2179 2796,2171 2786,2170 2783,2170 " style="fill: white; stroke: black; stroke-width: 30" />
<polyline points="2911,2199 2906,2191 2909,2173 2915,2157 2929,2144 2946,2149 2965,2166 2979,2200 2968,2230 2937,2258 2916,2258 2910,2237 2916,2192 2939,2143 2960,2106 " style="fill: white; stroke: black; stroke-width: 30" />
<polyline points="2944,2036 2936,2031 2933,2030 2944,2029 2953,2030 2984,2035 3036,2057 3114,2083 3167,2097 " style="fill: white; stroke: black; stroke-width: 30" />
<polyline points="3167,2064 3151,2082 3137,2139 3135,2227 3151,2295 3179,2339 " style="fill: white; stroke: black; stroke-width: 30" />
<polyline points="3360,2063 3364,2031 3357,2021 3343,2022 3316,2070 3299,2167 3277,2274 3266,2339 3259,2368 3264,2358 3298,2316 3374,2280 3471,2254 3555,2238 3607,2203 3606,2173 3572,2169 3540,2198 3533,2235 3545,2269 3583,2276 3649,2273 3692,2277 3744,2289 3856,2295 4037,2283 " style="fill: white; stroke: black; stroke-width: 30" />
<polyline points="2225,2473 2197,2528 2176,2629 2195,2688 2254,2700 2325,2691 " style="fill: white; stroke: black; stroke-width: 30" />
<polyline points="2328,2622 2354,2622 2398,2619 2424,2634 2412,2675 2366,2730 2324,2767 2327,2788 " style="fill: white; stroke: black; stroke-width: 30" />
<polyline points="2711,2806 " style="fill: white; stroke: black; stroke-width: 30" />
<polyline points="2701,2658 2725,2590 2761,2576 2812,2617 2860,2714 2854,2810 2799,2866 2710,2884 2650,2845 2648,2772 2693,2646 " style="fill: white; stroke: black; stroke-width: 30" />
<polyline points="2986,2807 2988,2795 2973,2781 2948,2758 2914,2757 2895,2767 2890,2786 2911,2815 2954,2845 3005,2870 " style="fill: white; stroke: black; stroke-width: 30" />
<polyline points="3040,2772 3032,2804 3063,2852 3121,2883 3177,2885 3214,2857 3211,2816 3183,2777 3158,2749 3142,2752 3139,2753 3140,2759 3146,2772 3169,2794 " style="fill: white; stroke: black; stroke-width: 30" />
<polyline points="3316,2776 3320,2753 3307,2740 3290,2740 3274,2740 3269,2741 3265,2745 3262,2777 3266,2829 3294,2879 3334,2902 3356,2893 3356,2857 3347,2801 3335,2761 " style="fill: white; stroke: black; stroke-width: 30" />
<polyline points="3344,2775 3352,2789 3370,2841 3368,2914 " style="fill: white; stroke: black; stroke-width: 30" />
<polyline points="-1388,4016 -1400,3998 -1403,4000 -1394,4015 -1367,4077 -1332,4186 -1314,4279 -1345,4351 -1399,4392 -1448,4395 -1474,4359 -1485,4264 " style="fill: white; stroke: black; stroke-width: 30" />
<polyline points="-1458,3960 -1432,3959 -1376,3958 -1287,3968 " style="fill: white; stroke: black; stroke-width: 30" />
<polyline points="-1196,4269 -1227,4262 -1240,4247 -1224,4208 -1163,4131 -1090,4098 -1023,4119 -994,4190 -1035,4275 -1111,4333 -1179,4341 -1221,4316 -1237,4267 -1226,4190 " style="fill: white; stroke: black; stroke-width: 30" />
<polyline points="-913,3926 -884,3899 -838,3889 -804,3911 -807,3967 -849,4017 -900,4037 -937,4025 -942,4003 -936,3954 -904,3910 " style="fill: white; stroke: black; stroke-width: 30" />
<polyline points="-606,3914 -647,3978 -711,4084 -775,4212 -812,4294 -829,4352 -827,4368 " style="fill: white; stroke: black; stroke-width: 30" />
<polyline points="-602,4150 -563,4161 -541,4181 -558,4219 -620,4260 -675,4275 -707,4266 -708,4249 -692,4215 -653,4165 " style="fill: white; stroke: black; stroke-width: 30" />
<polyline points="124,4056 28,4081 -35,4159 -42,4236 16,4286 119,4315 " style="fill: white; stroke: black; stroke-width: 30" />
<polyline points="263,4193 261,4153 291,4113 336,4108 372,4144 387,4215 361,4273 308,4308 242,4307 191,4273 180,4221 209,4162 " style="fill: white; stroke: black; stroke-width: 30" />
<polyline points="-182,4066 -178,4061 -135,4059 -15,4066 148,4075 299,4085 389,4087 411,4091 388,4093 324,4112 222,4135 92,4159 -31,4164 -110,4164 -128,4163 -109,4168 -38,4164 82,4155 204,4148 296,4152 335,4160 332,4163 284,4167 157,4196 0,4218 -102,4223 -132,4230 -121,4235 -45,4246 80,4261 220,4274 348,4284 427,4285 439,4288 424,4304 " style="fill: white; stroke: black; stroke-width: 30" />
<polyline points="633,4350 613,4337 607,4314 606,4265 610,4177 622,4085 627,4020 627,3999 624,4001 612,4044 603,4127 608,4214 642,4265 694,4301 767,4306 845,4274 905,4221 928,4147 919,4075 874,4050 831,4052 821,4071 835,4114 879,4172 934,4215 987,4244 1041,4265 1095,4274 1141,4261 1157,4247 1142,4219 1093,4200 1040,4203 1022,4225 1037,4259 1081,4289 1144,4304 1215,4302 " style="fill: white; stroke: black; stroke-width: 30" />
<polyline points="1387,4015 1359,3997 1341,4003 1326,4060 1323,4150 1320,4257 1317,4335 1307,4379 1304,4375 1302,4333 1311,4276 1321,4257 1326,4249 1349,4246 " style="fill: white; stroke: black; stroke-width: 30" />
<polyline points="1507,4128 1501,4125 1506,4139 1524,4159 1537,4187 1534,4230 1504,4273 1479,4308 1482,4341 1509,4384 1553,4420 1577,4436 " style="fill: white; stroke: black; stroke-width: 30" />
<polyline points="1470,4290 1472,4283 1492,4278 1541,4273 1611,4283 " style="fill: white; stroke: black; stroke-width: 30" />
<polyline points="2471,7523 2466,7527 2463,7540 2466,7612 2462,7723 2477,7813 2493,7850 2516,7842 2519,7791 2513,7725 2501,7639 2493,7562 2488,7521 2492,7517 2482,7528 2483,7572 2485,7620 2515,7652 2553,7665 2598,7662 2655,7639 2721,7596 2768,7553 2788,7538 2784,7540 2768,7563 2762,7618 2765,7706 2761,7796 2778,7858 " style="fill: white; stroke: black; stroke-width: 30" />
<polyline points="2866,7628 2859,7638 2877,7640 2918,7658 2948,7698 2947,7753 2937,7800 2906,7825 2878,7823 2861,7800 2860,7752 2875,7732 2895,7731 2937,7746 2993,7756 3058,7746 " style="fill: white; stroke: black; stroke-width: 30" />
<polyline points="3144,7650 3144,7626 3137,7614 3124,7615 3108,7620 3090,7638 3089,7671 3092,7730 3085,7783 3074,7808 3045,7812 3018,7797 3019,7767 3041,7743 3095,7729 " style="fill: white; stroke: black; stroke-width: 30" />
<polyline points="3363,7631 3331,7644 3297,7669 3271,7705 3254,7728 3261,7740 3285,7738 3311,7730 3370,7697 3443,7644 3505,7599 3528,7587 3526,7586 3503,7611 3485,7660 3462,7708 3471,7724 3495,7735 3513,7750 3556,7756 3607,7736 3664,7702 3702,7662 3700,7653 3670,7647 3615,7671 3594,7703 3616,7743 3692,7775 " style="fill: white; stroke: black; stroke-width: 30" />
<polyline points="2583,8093 2612,8071 2676,8061 2729,8099 2758,8165 2751,8216 2722,8234 2695,8222 2687,8191 2688,8182 2684,8188 2696,8207 2724,8232 2779,8225 " style="fill: white; stroke: black; stroke-width: 30" />
<polyline points="2999,7960 2975,8018 2956,8099 2950,8154 2951,8184 2956,8198 2959,8196 2984,8171 3016,8136 3039,8139 3044,8159 3058,8185 3041,8207 3005,8209 2962,8189 2928,8172 2934,8156 2967,8134 " style="fill: white; stroke: black; stroke-width: 30" />
<polyline points="3226,8165 3237,8159 3241,8139 3242,8113 3214,8090 3204,8084 3206,8093 3226,8129 3243,8180 3217,8252 3170,8306 3125,8327 3094,8323 3108,8293 3177,8217 3284,8128 3383,8049 3423,8009 3408,8016 3347,8060 3307,8116 3316,8151 3358,8164 3403,8154 " style="fill: white; stroke: black; stroke-width: 30" />
<polyline points="3578,8071 3570,8090 3536,8120 3494,8142 3459,8152 3449,8157 3442,8164 3460,8169 3478,8169 3491,8163 " style="fill: white; stroke: black; stroke-width: 30" />
<polyline points="3559,8092 3546,8089 3532,8111 3523,8151 3504,8194 3506,8217 3490,8227 3477,8225 3451,8210 3431,8190 3415,8161 3428,8140 " style="fill: white; stroke: black; stroke-width: 30" />
<polyline points="3798,7921 3754,7975 3700,8062 3688,8134 3669,8188 3688,8205 3710,8213 3753,8203 " style="fill: white; stroke: black; stroke-width: 30" />
<polyline points="3604,8089 3576,8102 3569,8120 3575,8134 3596,8150 3617,8164 " style="fill: white; stroke: black; stroke-width: 30" />
<polyline points="3739,8168 3766,8169 3802,8175 3848,8186 3861,8196 3848,8208 " style="fill: white; stroke: black; stroke-width: 30" />
<polyline points="4033,7948 3992,7988 3959,8062 3947,8136 3951,8192 3966,8230 " style="fill: white; stroke: black; stroke-width: 30" />
<polyline points="4329,8195 4319,8287 4319,8353 " style="fill: white; stroke: black; stroke-width: 30" />
<polyline points="4539,8103 4488,8113 4422,8168 4356,8242 4361,8286 4385,8324 4434,8328 " style="fill: white; stroke: black; stroke-width: 30" />
<polyline points="4479,8253 4473,8241 4492,8227 4544,8196 4576,8192 4605,8212 4624,8239 4618,8266 4608,8276 4593,8270 4580,8250 4575,8225 4597,8197 4620,8193 " style="fill: white; stroke: black; stroke-width: 30" />
<polyline points="4673,8226 4667,8226 4679,8215 4693,8207 4733,8189 4764,8195 4762,8207 4758,8212 4747,8222 4748,8233 4765,8242 4773,8257 4769,8262 4775,8256 " style="fill: white; stroke: black; stroke-width: 30" />
<polyline points="4880,8230 4840,8283 4810,8348 4779,8403 4766,8424 4752,8428 4737,8415 4748,8373 4812,8292 4886,8228 4944,8216 4992,8227 4978,8257 4944,8279 4905,8282 4890,8273 4897,8264 4952,8238 4997,8227 5067,8205 5110,8172 5149,8117 5140,8078 5121,8073 5113,8079 5090,8119 5102,8155 5073,8213 5092,8241 5110,8271 " style="fill: white; stroke: black; stroke-width: 30" />
<polyline points="5129,8219 5190,8217 5225,8224 5265,8215 5240,8216 5237,8199 5225,8195 5191,8222 5194,8240 5210,8244 5195,8253 5223,8241 5196,8268 5213,8275 " style="fill: white; stroke: black; stroke-width: 30" />
<polyline points="5187,8320 5228,8303 5314,8268 5350,8264 5384,8247 5381,8239 " style="fill: white; stroke: black; stroke-width: 30" />
<polyline points="5276,8208 5276,8211 5330,8191 5332,8227 5380,8249 5413,8261 " style="fill: white; stroke: black; stroke-width: 30" />
<polyline points="2641,8379 2619,8404 2594,8484 2593,8549 2622,8579 2670,8591 2709,8586 " style="fill: white; stroke: black; stroke-width: 30" />
<polyline points="2751,8515 2755,8522 2778,8553 2811,8592 2832,8618 " style="fill: white; stroke: black; stroke-width: 30" />
<polyline points="2748,8639 2718,8639 " style="fill: white; stroke: black; stroke-width: 30" />
<polyline points="3115,8477 3107,8469 3094,8465 3060,8489 3053,8541 3076,8607 3105,8652 3103,8674 3084,8676 3056,8668 3033,8641 3023,8616 " style="fill: white; stroke: black; stroke-width: 30" />
<polyline points="3230,8567 3231,8567 3215,8585 3196,8630 3192,8659 3211,8661 3235,8653 3265,8648 3275,8653 3288,8661 " style="fill: white; stroke: black; stroke-width: 30" />
<polyline points="3385,8631 3366,8655 3352,8715 3345,8776 3351,8799 " style="fill: white; stroke: black; stroke-width: 30" />
<polyline points="3314,8809 3305,8800 3308,8785 3327,8760 3331,8740 3338,8732 3342,8725 3337,8727 3347,8719 3350,8709 3353,8685 3343,8655 3353,8612 3370,8552 3377,8491 3377,8450 3372,8437 3388,8428 3405,8421 3438,8403 " style="fill: white; stroke: black; stroke-width: 30" />
<polyline points="3367,8622 3389,8595 3432,8590 3472,8615 3485,8645 3468,8679 3425,8698 3382,8699 3372,8672 3365,8616 3381,8548 " style="fill: white; stroke: black; stroke-width: 30" />
<polyline points="2957,8517 2971,8509 3060,8510 3235,8560 3448,8627 " style="fill: white; stroke: black; stroke-width: 30" />
<polyline points="3829,8482 3816,8525 3800,8601 3752,8705 3730,8769 " style="fill: white; stroke: black; stroke-width: 30" />
<polyline points="3911,8529 3905,8525 3910,8527 3920,8539 3925,8561 3908,8608 3881,8674 3857,8737 3844,8772 " style="fill: white; stroke: black; stroke-width: 30" />
<polyline points="3745,8624 3729,8606 3758,8595 3801,8593 3869,8598 3900,8629 3945,8638 3981,8643 4026,8632 4040,8634 4033,8643 3993,8679 3961,8705 3950,8713 3944,8711 3943,8707 3937,8694 3947,8672 3960,8654 3989,8657 4018,8681 4060,8711 4088,8726 " style="fill: white; stroke: black; stroke-width: 30" />
<polyline points="4125,8639 4128,8635 4121,8647 4110,8678 4097,8707 4110,8720 4148,8711 4179,8696 4176,8690 4176,8690 " style="fill: white; stroke: black; stroke-width: 30" />
<polyline points="4267,8639 4261,8640 4255,8650 4245,8672 4237,8696 4207,8723 4204,8727 4210,8725 4203,8720 4200,8709 4209,8700 " style="fill: white; stroke: black; stroke-width: 30" />
<polyline points="4408,8476 4405,8479 4380,8515 4355,8592 4331,8662 4319,8703 4309,8715 4313,8713 4325,8693 4366,8657 4402,8637 4413,8643 4430,8643 4428,8652 4437,8660 4424,8679 4416,8697 4402,8719 " style="fill: white; stroke: black; stroke-width: 30" />
<polyline points="4500,8504 4499,8466 4508,8458 4524,8457 " style="fill: white; stroke: black; stroke-width: 30" />
<polyline points="4530,8584 4538,8587 4541,8588 4536,8587 4488,8611 4468,8639 4485,8663 4522,8687 4534,8697 4556,8694 4558,8689 4548,8687 4562,8669 4594,8654 4644,8637 4695,8612 4724,8588 " style="fill: white; stroke: black; stroke-width: 30" />
<polyline points="4828,8632 4945,8627 5053,8634 5156,8638 " style="fill: white; stroke: black; stroke-width: 30" />
<polyline points="2981,8912 2950,8930 2911,8945 2877,8966 2878,8982 2905,9025 2936,9070 2930,9111 2908,9123 2880,9117 2873,9093 2893,9018 " style="fill: white; stroke: black; stroke-width: 30" />
<polyline points="3137,8886 3095,8931 3073,9009 3046,9102 3048,9158 3043,9186 3043,9182 3044,9142 3052,9085 3065,9063 3062,9060 3093,9056 3118,9054 " style="fill: white; stroke: black; stroke-width: 30" />
<polyline points="3170,9028 3167,9008 3181,8997 3208,9011 3243,9042 3247,9074 3207,9101 3159,9110 3120,9108 3112,9108 3127,9106 3151,9110 3187,9119 3214,9134 " style="fill: white; stroke: black; stroke-width: 30" />
<polyline points="3301,9095 3315,9081 3335,9080 3377,9092 3401,9112 " style="fill: white; stroke: black; stroke-width: 30" />
<polyline points="3533,9075 3500,9074 3469,9098 3488,9121 3511,9143 3544,9147 3552,9134 3589,9089 3616,9043 3638,8995 3653,8964 3652,8961 3625,8969 3591,9004 3551,9059 3553,9105 3586,9135 " style="fill: white; stroke: black; stroke-width: 30" />
<polyline points="3709,8988 3708,8973 3697,8977 3715,8992 3728,9033 3729,9080 3726,9100 3711,9109 3688,9111 3672,9099 3667,9076 3680,9060 3694,9056 3719,9072 " style="fill: white; stroke: black; stroke-width: 30" />
<polyline points="3759,9116 3736,9112 3753,9086 3784,9060 3805,9038 3840,9033 3864,9033 3876,9042 3894,9043 " style="fill: white; stroke: black; stroke-width: 30" />
<polyline points="4007,9033 4003,9046 4003,9051 4000,9053 4006,9046 3994,9039 3945,9045 3912,9074 3897,9108 3900,9152 3925,9175 3981,9160 4041,9097 4067,9023 4070,8955 4069,8938 4077,8940 4071,8978 4058,9044 4053,9115 4059,9161 " style="fill: white; stroke: black; stroke-width: 30" />
<polyline points="1101,11604 1291,11660 1539,11756 1871,11814 2293,11843 2777,11821 3273,11786 3659,11835 3865,11878 3908,11947 3986,11969 3965,11935 3950,11828 " style="fill: white; stroke: black; stroke-width: 30" />
<polyline points="830,9335 " style="fill: white; stroke: black; stroke-width: 30" />
<polyline points="-1772,3569 -1795,3570 -1816,3607 -1827,3793 -1807,4089 -1738,4426 -1634,4730 " style="fill: white; stroke: black; stroke-width: 30" />
<polyline points="-3592,12071 -3509,12085 -3395,12099 -3235,12106 -3018,12111 -2719,12112 -2377,12106 -2010,12095 -1622,12083 -1242,12074 -906,12074 -606,12081 -349,12105 -222,12128 -137,12153 -103,12175 " style="fill: white; stroke: black; stroke-width: 30" />
<polyline points="-452,11907 -337,11917 -227,11927 -140,11941 18,11970 70,12011 4,12056 -73,12130 -191,12213 -320,12298 -445,12366 -498,12405 -515,12408 " style="fill: white; stroke: black; stroke-width: 30" />
<polyline points="-3334,11878 -3371,11904 -3458,11962 -3584,12062 -3691,12169 -3706,12246 -3626,12323 -3481,12393 -3288,12438 -3111,12471 " style="fill: white; stroke: black; stroke-width: 30" />
<polyline points="-1983,11053 -2014,11392 -2057,11869 -2042,12321 -2016,12614 -1970,12852 -1888,13061 " style="fill: white; stroke: black; stroke-width: 30" />
<polyline points="-2005,10980 -1943,10848 -1921,10759 -1923,10722 -1927,10721 -1915,10764 -1876,10859 -1824,10948 -1784,11044 -1768,11193 " style="fill: white; stroke: black; stroke-width: 30" />
<polyline points="-1987,13319 -1892,13383 -1846,13389 -1774,13333 -1715,13190 -1669,13027 -1698,12920 " style="fill: white; stroke: black; stroke-width: 30" />
<polyline points="-2103,11641 -2166,11645 -2250,11664 -2350,11710 -2449,11780 -2550,11880 -2629,11989 -2669,12118 -2691,12243 -2661,12367 -2584,12490 -2458,12603 -2308,12683 -2145,12723 -1982,12730 -1796,12713 -1622,12655 -1448,12544 -1315,12394 -1214,12231 -1161,12074 -1164,11937 -1209,11814 -1333,11711 -1493,11634 -1647,11578 -1778,11536 -1876,11515 -1960,11512 " style="fill: white; stroke: black; stroke-width: 30" />
<polyline points="-1827,11783 -1833,11774 -1837,11771 -1847,11775 -1839,11799 -1837,11862 -1821,11925 -1815,11966 -1817,11974 -1809,11972 -1815,11965 -1821,11956 -1827,11951 -1819,11958 " style="fill: white; stroke: black; stroke-width: 30" />
<polyline points="-1803,12040 -1803,12025 -1802,12003 -1798,12003 -1799,12010 -1780,12026 -1766,12046 -1768,12059 -1754,12058 -1765,12039 -1788,12016 -1791,12020 -1806,12030 -1792,12045 -1788,12050 -1785,12047 " style="fill: white; stroke: black; stroke-width: 30" />
<polyline points="-1759,12276 -1767,12283 -1773,12308 -1770,12337 -1758,12372 -1754,12411 -1732,12445 -1714,12467 -1699,12468 -1680,12472 " style="fill: white; stroke: black; stroke-width: 30" />
<polyline points="-1612,12581 -1615,12584 -1616,12593 -1614,12611 -1618,12627 -1641,12634 -1655,12629 -1666,12623 -1668,12616 -1655,12614 -1634,12618 -1625,12622 -1613,12625 -1628,12624 -1625,12624 -1619,12617 " style="fill: white; stroke: black; stroke-width: 30" />
<polyline points="-2272,12186 -2278,12192 -2285,12205 -2280,12245 -2264,12303 -2259,12356 -2273,12378 -2259,12372 " style="fill: white; stroke: black; stroke-width: 30" />
<polyline points="-2237,12481 -2223,12469 -2214,12474 -2213,12496 -2206,12542 -2217,12579 -2231,12587 -2239,12577 -2257,12548 -2247,12538 -2253,12539 " style="fill: white; stroke: black; stroke-width: 30" />
<polyline points="-860,12685 -824,12620 -792,12557 -752,12527 " style="fill: white; stroke: black; stroke-width: 30" />
<polyline points="-871,12542 -865,12549 -861,12566 -839,12630 -820,12708 -755,12785 " style="fill: white; stroke: black; stroke-width: 30" />
<polyline points="-885,11244 -851,11212 -805,11162 -779,11122 -754,11108 " style="fill: white; stroke: black; stroke-width: 30" />
<polyline points="-844,11092 -859,11091 -865,11092 -847,11110 -815,11159 " style="fill: white; stroke: black; stroke-width: 30" />
<polyline points="2804,8863 2797,8860 2789,8857 2777,8862 2772,8863 2758,8871 2785,8862 2838,8848 2996,8783 3223,8688 3465,8582 3675,8497 3832,8441 " style="fill: white; stroke: black; stroke-width: 30" />
<polyline points="-3350,10585 -3365,10579 -3376,10572 -3367,10571 -3360,10572 -3352,10575 -3340,10580 -3298,10594 -3244,10602 -3181,10607 -3113,10605 -3051,10601 -3004,10596 -2979,10594 -2989,10588 -2997,10584 -2993,10585 -3000,10587 -2993,10587 -2998,10587 -3008,10585 -3002,10587 -2995,10586 -2999,10585 -3003,10583 -3002,10585 -2988,10585 -2981,10585 -2985,10573 -2976,10541 -2977,10513 -2958,10501 -2960,10474 -2966,10449 -2954,10431 -2949,10429 -2957,10425 -2970,10423 -2968,10424 -2969,10427 -2976,10424 -2967,10428 -2964,10428 -2975,10428 -2990,10425 -3024,10420 -3061,10408 -3119,10389 -3182,10374 -3222,10373 -3246,10372 -3249,10375 -3271,10373 -3276,10374 -3275,10372 -3279,10370 -3275,10370 -3265,10374 -3271,10372 -3292,10367 -3304,10361 -3296,10365 -3299,10363 -3295,10364 -3293,10364 -3300,10366 -3296,10366 -3301,10368 -3296,10366 -3307,10364 -3304,10362 -3291,10371 -3295,10371 -3317,10369 -3327,10366 -3330,10368 -3343,10364 -3322,10372 -3328,10368 -3339,10366 -3328,10368 -3336,10364 -3317,10368 -3314,10367 -3316,10359 -3315,10355 -3302,10342 -3309,10316 -3305,10287 -3318,10259 -3326,10233 -3323,10205 -3314,10196 -3312,10191 -3324,10185 -3316,10188 -3318,10187 -3316,10188 -3316,10182 -3321,10174 -3331,10164 -3329,10166 -3337,10163 -3335,10164 -3347,10159 -3331,10166 -3335,10165 -3337,10165 -3324,10164 -3259,10176 -3200,10179 -3119,10194 -3053,10199 -2979,10202 -2928,10205 -2923,10203 -2929,10200 -2925,10201 -2922,10199 -2933,10200 -2923,10203 -2922,10204 -2911,10207 -2910,10209 -2905,10214 " style="fill: white; stroke: black; stroke-width: 30" />
<polyline points="-3160,10641 -3166,10640 -3158,10642 -3158,10644 -3159,10648 -3169,10666 -3182,10695 -3189,10744 -3186,10803 -3169,10863 -3161,10926 -3132,10996 -3104,11061 -3063,11127 -3036,11184 -2991,11249 -2944,11306 -2894,11365 -2865,11429 -2809,11501 -2734,11571 -2666,11636 -2588,11689 -2506,11739 -2434,11789 -2381,11832 -2341,11867 -2322,11890 -2304,11895 -2288,11898 -2301,11895 -2296,11895 -2305,11892 -2301,11895 -2315,11892 -2306,11896 -2313,11893 -2313,11894 -2312,11890 -2329,11870 " style="fill: white; stroke: black; stroke-width: 30" />
<polyline points="-2280,11831 -2281,11827 -2270,11830 -2278,11837 -2282,11857 -2266,11884 -2245,11899 -2239,11906 -2251,11906 -2240,11911 -2252,11921 -2296,11958 -2347,11986 -2364,11998 -2356,11996 -2354,11997 -2370,11996 -2378,11996 " style="fill: white; stroke: black; stroke-width: 30" />
<polyline points="-2628,10424 -2625,10422 -2620,10418 -2622,10418 -2620,10419 -2619,10421 -2636,10422 -2673,10423 -2702,10420 -2726,10418 -2752,10412 -2760,10416 -2765,10419 -2774,10421 -2764,10423 -2752,10427 -2755,10424 " style="fill: white; stroke: black; stroke-width: 30" />
<polyline points="-2733,10369 -2736,10365 -2736,10365 -2736,10380 -2745,10401 -2763,10413 -2788,10414 -2806,10416 -2812,10415 -2811,10418 -2814,10416 -2815,10417 -2814,10415 -2806,10419 -2800,10420 -2782,10432 -2762,10441 -2742,10454 -2722,10464 " style="fill: white; stroke: black; stroke-width: 30" />
<polyline points="-2528,10171 -2526,10171 -2525,10171 -2534,10172 -2551,10170 -2594,10174 -2627,10175 -2654,10171 -2678,10166 -2705,10163 -2709,10161 -2719,10160 -2727,10160 -2739,10164 -2737,10164 -2731,10167 -2723,10167 -2719,10169 -2701,10174 " style="fill: white; stroke: black; stroke-width: 30" />
<polyline points="-2692,10081 -2691,10084 -2689,10087 -2683,10095 -2679,10105 -2686,10122 -2714,10142 -2738,10160 -2753,10168 -2754,10171 -2755,10168 -2757,10166 -2754,10164 -2754,10164 -2757,10166 -2743,10185 -2736,10194 -2707,10210 -2675,10228 -2632,10241 " style="fill: white; stroke: black; stroke-width: 30" />

</svg>