<?xml version="1.0" standalone="no"?>
<!DOCTYPE svg PUBLIC "-//W3C//DTD SVG 1.1//EN" "http://www.w3.org/Graphics/SVG/1.1/DTD/svg11.dtd">
<svg width="210mm" height="297mm" viewBox="-7000 500 14000 20000" version="1.1" xmlns="http://www.w3.org/2000/svg">

<polyline points="-2436,1633 -2456,1626 -2454,1618 -2408,1581 -2300,1547 -2196,1555 -2116,1605 -2087,1669 -2104,1737 -2157,1820 -2209,1886 -2223,1916 -2209,1929 -2163,1938 -2097,1926 -2043,1905 " style="fill: white; stroke: black; stroke-width: 30" />
<polyline points="-2286,1733 -2289,1736 -2263,1736 -2185,1736 -2072,1721 -1981,1693 -1929,1663 -1929,1659 -1935,1661 -1946,1667 -1962,1679 -1977,1703 -1999,1770 -1996,1816 -1952,1841 -1867,1835 -1784,1796 -1750,1768 -1748,1761 -1754,1768 -1763,1784 -1771,1827 -1756,1868 -1724,1904 -1688,1913 " style="fill: white; stroke: black; stroke-width: 30" />
<polyline points="-1129,1720 -1122,1709 -1076,1692 -1012,1682 -939,1673 -876,1674 -847,1677 " style="fill: white; stroke: black; stroke-width: 30" />
<polyline points="-1174,1725 -1260,1780 -1304,1845 -1314,1910 -1285,1959 -1213,1994 -1114,2008 -1012,2001 -930,1994 " style="fill: white; stroke: black; stroke-width: 30" />
<polyline points="-1258,1807 -1231,1803 -1145,1794 -1009,1784 -870,1783 -766,1794 -681,1800 -626,1800 -613,1797 -612,1798 -612,1798 -612,1800 -614,1802 -617,1805 -620,1810 -630,1832 -655,1900 -669,1975 -666,2032 " style="fill: white; stroke: black; stroke-width: 30" />
<polyline points="-623,1637 -631,1617 -611,1602 -546,1605 -480,1648 -451,1706 -475,1756 -540,1782 -612,1764 -645,1730 -637,1669 -583,1581 " style="fill: white; stroke: black; stroke-width: 30" />
<polyline points="-454,2057 -466,2033 -465,1983 -433,1912 -362,1830 -293,1793 -225,1785 -185,1825 -192,1909 -237,2009 -270,2068 -288,2095 -291,2097 -291,2097 -284,2090 " style="fill: white; stroke: black; stroke-width: 30" />
<polyline points="146,1703 142,1684 140,1681 139,1684 142,1685 143,1686 141,1684 140,1684 141,1681 143,1681 153,1675 163,1664 168,1641 167,1596 154,1555 125,1527 89,1511 63,1528 42,1589 22,1732 -12,1975 -49,2223 -59,2376 -62,2486 -53,2525 " style="fill: white; stroke: black; stroke-width: 30" />
<polyline points="-134,1998 -134,1990 -122,1983 -83,1983 -4,1979 93,1978 " style="fill: white; stroke: black; stroke-width: 30" />
<polyline points="203,1819 249,1760 298,1736 337,1753 361,1806 356,1890 320,1962 268,2011 202,2027 152,2005 129,1958 136,1936 167,1909 226,1897 279,1911 312,1955 334,2016 367,2097 " style="fill: white; stroke: black; stroke-width: 30" />
<polyline points="705,1814 689,1810 639,1822 556,1875 503,1944 507,1995 534,2035 577,2046 635,2019 711,1946 793,1829 847,1737 861,1693 856,1690 851,1694 845,1708 821,1771 798,1861 788,1966 798,2054 835,2103 891,2111 954,2076 977,2059 973,2059 966,2071 955,2108 959,2156 " style="fill: white; stroke: black; stroke-width: 30" />
<polyline points="-2516,2362 -2554,2352 -2578,2347 -2583,2345 -2576,2346 -2573,2350 -2574,2348 -2569,2351 -2566,2350 -2559,2351 -2540,2352 -2478,2357 -2341,2367 -2104,2368 -1744,2361 -1293,2350 -773,2335 -215,2331 342,2330 839,2337 1242,2334 1509,2332 1625,2333 1642,2334 1640,2328 1634,2330 1626,2332 1615,2335 1605,2336 1602,2338 1600,2337 1604,2337 1607,2337 1611,2341 1606,2344 " style="fill: white; stroke: black; stroke-width: 30" />
<polyline points="-3031,2587 " style="fill: white; stroke: black; stroke-width: 30" />
<polyline points="-2981,2580 -2929,2581 -2894,2583 -2886,2588 -2887,2589 -2883,2593 -2871,2588 -2832,2589 -2760,2586 -2633,2586 -2405,2577 -2064,2556 -1623,2523 -1102,2502 -531,2481 59,2478 588,2471 1005,2480 1311,2498 1514,2512 1612,2519 1629,2520 1624,2518 1617,2519 1608,2517 1597,2520 1591,2522 1590,2526 1592,2526 1599,2529 1605,2531 1613,2535 1622,2539 1634,2551 1661,2597 " style="fill: white; stroke: black; stroke-width: 30" />

</svg>