<?xml version="1.0" standalone="no"?>
<!DOCTYPE svg PUBLIC "-//W3C//DTD SVG 1.1//EN" "http://www.w3.org/Graphics/SVG/1.1/DTD/svg11.dtd">
<svg width="210mm" height="297mm" viewBox="-7000 500 14000 20000" version="1.1" xmlns="http://www.w3.org/2000/svg">

<polyline points="6161,7540 " style="fill: white; stroke: black; stroke-width: 30" />
<polyline points="-3794,1628 -3849,1651 -3901,1678 -3945,1718 -3958,1769 -3936,1810 -3890,1838 -3815,1857 -3755,1848 -3719,1833 " style="fill: white; stroke: black; stroke-width: 30" />
<polyline points="-3695,1740 -3714,1751 -3732,1760 -3739,1779 -3721,1810 -3688,1842 -3657,1863 -3616,1874 -3575,1860 -3530,1814 -3492,1758 -3462,1703 -3455,1660 -3460,1640 -3478,1621 -3505,1618 -3545,1638 -3579,1701 -3589,1772 -3559,1832 -3498,1868 -3443,1868 -3393,1839 -3349,1779 -3314,1702 -3294,1635 -3292,1615 -3308,1612 -3326,1624 -3348,1653 -3388,1718 -3396,1771 -3377,1804 -3342,1828 -3302,1834 -3263,1810 -3221,1773 -3191,1719 -3173,1670 -3184,1665 -3205,1674 -3236,1714 -3248,1772 -3234,1813 -3193,1829 -3135,1828 -3087,1810 -3068,1800 -3071,1786 -3073,1740 -3078,1681 -3080,1662 -3076,1670 -3071,1670 -3055,1681 -3003,1710 -2942,1726 " style="fill: white; stroke: black; stroke-width: 30" />
<polyline points="-2765,1540 -2771,1549 -2776,1589 -2791,1693 -2814,1806 -2816,1869 -2803,1891 -2789,1885 -2755,1834 -2731,1755 -2722,1722 -2723,1711 -2731,1708 -2759,1713 -2797,1738 -2813,1787 -2804,1824 -2751,1860 -2674,1866 -2604,1844 -2558,1805 -2542,1757 -2547,1753 -2554,1759 -2558,1781 -2566,1817 -2557,1840 -2551,1848 " style="fill: white; stroke: black; stroke-width: 30" />
<polyline points="-2462,1895 -2476,1892 -2481,1862 -2466,1823 -2439,1804 -2411,1803 -2383,1824 -2369,1854 -2359,1882 -2348,1882 " style="fill: white; stroke: black; stroke-width: 30" />
<polyline points="-2230,1924 -2143,1888 -2070,1808 -2018,1707 -2007,1648 -2018,1630 -2038,1638 -2070,1691 -2076,1777 -2049,1847 -2007,1887 -1968,1900 -1940,1897 -1928,1871 -1910,1811 -1892,1762 -1897,1753 -1898,1753 -1903,1763 -1916,1810 -1929,1874 -1917,1915 -1874,1933 -1814,1912 -1741,1875 -1699,1816 -1683,1767 -1683,1749 -1684,1746 -1676,1748 " style="fill: white; stroke: black; stroke-width: 30" />
<polyline points="-3852,2034 -3865,2038 -3902,2064 -3956,2116 -4008,2186 -4007,2263 -3946,2336 -3837,2375 -3707,2343 -3627,2261 -3607,2200 -3639,2126 -3675,2096 -3697,2100 -3699,2103 -3684,2109 -3627,2150 -3586,2198 -3552,2239 -3516,2278 -3473,2297 -3428,2290 -3397,2264 -3378,2236 -3383,2206 -3413,2189 -3463,2209 -3503,2256 -3492,2333 -3425,2395 -3312,2413 -3193,2393 -3119,2348 -3130,2301 -3174,2244 -3192,2232 -3193,2229 -3185,2230 -3148,2242 -3093,2258 -2843,2126 " style="fill: white; stroke: black; stroke-width: 30" />
<polyline points="-2566,2193 -2554,2211 -2533,2259 -2528,2304 -2540,2339 -2588,2378 -2660,2404 -2700,2395 -2716,2362 -2712,2343 -2675,2333 -2621,2327 -2576,2345 -2538,2358 -2504,2364 -2303,2182 " style="fill: white; stroke: black; stroke-width: 30" />
<polyline points="-2181,2295 -2118,2206 -2110,2134 -2139,2114 -2173,2125 -2210,2200 -2218,2297 -2181,2355 -2130,2373 " style="fill: white; stroke: black; stroke-width: 30" />
<polyline points="-1983,2131 -1995,2155 -2035,2246 -2052,2312 -2026,2368 -1941,2396 " style="fill: white; stroke: black; stroke-width: 30" />
<polyline points="-1670,2355 -1669,2331 -1696,2301 -1732,2299 -1735,2301 -1715,2312 " style="fill: white; stroke: black; stroke-width: 30" />
<polyline points="-1476,2236 -1490,2238 -1498,2242 -1499,2262 -1496,2268 -1494,2267 -1492,2267 -1488,2265 -1478,2263 -1472,2262 -1469,2262 -1467,2263 -1465,2266 -1470,2268 -1473,2271 -1482,2278 -1510,2308 -1534,2347 -1549,2377 -1548,2381 -1548,2379 -1552,2378 -1556,2377 -1559,2381 -1561,2382 -1565,2384 -1565,2384 " style="fill: white; stroke: black; stroke-width: 30" />
<polyline points="-1242,2305 -1254,2304 -1282,2290 -1322,2276 -1358,2270 -1371,2270 -1366,2291 -1345,2375 -1326,2438 -1331,2471 -1347,2485 -1373,2475 -1398,2444 -1400,2408 -1354,2333 -1274,2291 -1192,2296 -1160,2330 -1162,2375 -1174,2412 -1180,2422 -1179,2420 " style="fill: white; stroke: black; stroke-width: 30" />
<polyline points="-1053,2301 -1068,2305 -1057,2333 -1011,2365 -952,2369 -925,2356 -929,2354 -945,2363 -979,2417 -1005,2502 -1020,2580 -1041,2626 -1050,2625 -1040,2567 -983,2413 -869,2222 -753,2147 -666,2131 -652,2136 -672,2166 -731,2231 -778,2306 -785,2359 -775,2387 -762,2382 -748,2361 -748,2344 -747,2336 -736,2334 -707,2336 -660,2342 -604,2348 -545,2337 -503,2311 -509,2304 -548,2300 -600,2322 -618,2360 -597,2388 -501,2433 " style="fill: white; stroke: black; stroke-width: 30" />
<polyline points="-4010,2582 -4018,2584 -4017,2590 -4018,2588 -4021,2591 -4027,2599 -4051,2656 -4073,2720 -4045,2784 -3973,2836 -3867,2837 -3750,2788 -3675,2722 -3679,2683 -3717,2636 -3766,2607 -3789,2608 -3788,2605 -3760,2613 -3688,2673 -3645,2728 -3589,2771 -3541,2802 -3495,2811 -3444,2788 -3414,2751 -3425,2713 -3465,2689 -3518,2699 -3540,2749 -3523,2816 -3445,2881 -3335,2912 -3231,2903 -3187,2862 -3186,2808 -3201,2769 -3206,2758 -3198,2759 -3165,2762 " style="fill: white; stroke: black; stroke-width: 30" />
<polyline points="-3005,2750 -2998,2751 -2992,2746 -2984,2744 -3000,2738 -3047,2729 -3083,2745 -3092,2768 -3052,2808 -2971,2816 -2906,2800 -2889,2806 -2901,2822 " style="fill: white; stroke: black; stroke-width: 30" />
<polyline points="-3038,3064 -3024,2938 -3024,2938 -2967,2864 -2882,2826 -2788,2801 -2732,2778 -2738,2761 -2779,2739 -2830,2736 -2847,2744 -2832,2763 -2779,2816 -2711,2853 -2659,2870 -2645,2860 " style="fill: white; stroke: black; stroke-width: 30" />
<polyline points="-2472,2877 -2440,2900 -2396,2897 -2363,2857 -2347,2797 -2356,2751 -2371,2724 -2372,2719 " style="fill: white; stroke: black; stroke-width: 30" />
<polyline points="-2181,2692 -2158,2741 -2172,2795 -2210,2847 -2258,2865 -2308,2850 -2327,2829 -2327,2822 -2308,2822 -2255,2832 -2174,2844 -2086,2844 -1969,2823 -1881,2787 -1860,2719 -1885,2659 -1915,2639 -1930,2629 -1933,2636 -1943,2678 -1947,2766 -1894,2859 -1806,2905 -1703,2907 " style="fill: white; stroke: black; stroke-width: 30" />
<polyline points="-1627,2674 -1624,2654 -1611,2621 -1598,2592 -1599,2588 -1620,2599 -1645,2629 -1691,2720 " style="fill: white; stroke: black; stroke-width: 30" />
<polyline points="-1667,2796 -1612,2794 " style="fill: white; stroke: black; stroke-width: 30" />
<polyline points="-1517,2849 -1533,2894 -1531,2924 -1516,2922 -1485,2864 " style="fill: white; stroke: black; stroke-width: 30" />
<polyline points="-1419,2664 -1426,2639 -1431,2636 -1428,2637 " style="fill: white; stroke: black; stroke-width: 30" />
<polyline points="-1113,2904 -1105,2891 -1094,2849 -1087,2829 -1081,2823 -1043,2827 -968,2835 -895,2837 " style="fill: white; stroke: black; stroke-width: 30" />
<polyline points="-640,2966 " style="fill: white; stroke: black; stroke-width: 30" />
<polyline points="-3990,3313 -3987,3263 -3989,3165 -3984,3086 -3981,3069 -3980,3069 -3985,3072 -3982,3106 -3979,3152 -3968,3197 -3929,3225 -3858,3229 -3782,3204 -3721,3167 -3692,3153 -3690,3157 -3693,3161 -3694,3174 -3691,3214 -3689,3246 -3667,3277 -3624,3278 -3575,3259 -3551,3259 -3553,3281 -3562,3301 -3561,3310 -3553,3301 -3533,3281 " style="fill: white; stroke: black; stroke-width: 30" />
<polyline points="-3531,3113 -3552,3115 -3556,3112 -3552,3110 -3548,3107 -3521,3109 -3484,3134 " style="fill: white; stroke: black; stroke-width: 30" />
<polyline points="-3379,3292 -3366,3323 -3362,3347 -3367,3359 -3383,3360 -3401,3351 -3403,3345 -3403,3344 -3396,3343 -3373,3333 " style="fill: white; stroke: black; stroke-width: 30" />
<polyline points="-3201,3318 -3204,3329 -3205,3336 -3211,3335 " style="fill: white; stroke: black; stroke-width: 30" />
<polyline points="-2951,3372 -2903,3344 -2877,3330 -2873,3336 -2860,3368 -2838,3398 " style="fill: white; stroke: black; stroke-width: 30" />
<polyline points="-2740,3225 " style="fill: white; stroke: black; stroke-width: 30" />
<polyline points="-2771,3398 -2794,3407 -2818,3386 -2830,3351 -2830,3328 -2822,3325 -2786,3331 -2736,3346 -2685,3362 -2657,3371 -2652,3384 -2658,3383 -2651,3372 " style="fill: white; stroke: black; stroke-width: 30" />
<polyline points="-2270,3211 -2282,3285 -2254,3341 -2213,3366 -2186,3364 -2192,3355 -2192,3360 -2185,3368 -2167,3378 -2150,3380 -2119,3374 -2072,3364 -2005,3338 -1923,3294 " style="fill: white; stroke: black; stroke-width: 30" />
<polyline points="-1787,3373 " style="fill: white; stroke: black; stroke-width: 30" />
<polyline points="-3936,3512 -3948,3518 -3949,3532 -3957,3576 -3977,3669 -3982,3762 -3952,3799 " style="fill: white; stroke: black; stroke-width: 30" />
<polyline points="-3787,3601 -3787,3600 -3783,3600 -3785,3598 -3785,3599 -3788,3599 -3808,3606 -3834,3630 -3837,3660 -3818,3711 -3777,3760 -3751,3795 -3754,3816 -3774,3830 -3797,3835 -3821,3819 -3835,3793 -3834,3746 " style="fill: white; stroke: black; stroke-width: 30" />
<polyline points="-3607,3680 -3591,3698 -3584,3717 -3586,3725 -3590,3730 -3597,3729 -3605,3734 -3620,3739 -3635,3737 -3655,3728 -3671,3720 -3676,3712 -3675,3699 -3662,3668 -3631,3630 -3593,3600 -3571,3594 -3558,3615 -3543,3657 -3533,3693 -3525,3707 -3517,3715 " style="fill: white; stroke: black; stroke-width: 30" />
<polyline points="-3468,3790 -3425,3822 -3362,3831 -3281,3816 -3219,3780 -3188,3743 -3186,3732 -3187,3728 -3188,3727 -3192,3734 -3190,3741 -3188,3768 -3183,3807 -3173,3831 -3158,3827 " style="fill: white; stroke: black; stroke-width: 30" />
<polyline points="-3092,3476 -3112,3473 -3112,3472 -3101,3473 " style="fill: white; stroke: black; stroke-width: 30" />
<polyline points="-3018,3710 -3042,3726 -3049,3758 -3034,3819 -2985,3859 -2923,3867 -2877,3835 -2852,3784 -2845,3721 -2840,3685 -2836,3683 -2823,3688 -2779,3695 -2719,3690 -2663,3656 -2626,3593 -2629,3575 -2641,3567 -2654,3581 -2689,3666 -2712,3763 -2719,3831 -2721,3852 -2722,3833 -2712,3775 -2704,3742 -2682,3731 -2655,3736 -2609,3742 -2551,3742 " style="fill: white; stroke: black; stroke-width: 30" />
<polyline points="-2548,3799 -2386,3843 " style="fill: white; stroke: black; stroke-width: 30" />
<polyline points="-317,1610 -310,1602 -286,1598 -220,1615 -128,1681 -37,1788 29,1916 36,2079 -18,2281 -95,2460 -148,2604 -150,2709 -110,2793 -35,2867 50,2911 137,2933 208,2926 239,2916 237,2914 230,2915 225,2921 224,2922 225,2923 225,2925 225,2925 223,2926 224,2927 225,2925 225,2925 224,2925 222,2924 221,2925 219,2925 200,2928 91,2979 -4,3060 -78,3152 -131,3293 -146,3489 -127,3707 -100,3906 -103,4059 -143,4157 -207,4199 " style="fill: white; stroke: black; stroke-width: 30" />
<polyline points="819,2712 831,2660 837,2576 833,2488 828,2448 825,2435 824,2442 822,2454 823,2495 829,2548 842,2603 878,2629 965,2636 1073,2592 1158,2531 1180,2503 1173,2506 1142,2543 1113,2601 1104,2664 1125,2718 " style="fill: white; stroke: black; stroke-width: 30" />
<polyline points="1335,2659 1323,2661 1323,2658 1326,2656 1322,2653 1301,2650 1270,2656 1260,2666 1255,2682 1255,2722 1269,2758 1291,2773 1328,2772 1351,2746 1353,2723 1344,2699 1330,2679 1317,2665 1311,2667 1317,2671 1325,2682 " style="fill: white; stroke: black; stroke-width: 30" />
<polyline points="1443,2770 1439,2757 1444,2722 1464,2684 1495,2660 1514,2661 1540,2688 1558,2734 1558,2788 1561,2816 " style="fill: white; stroke: black; stroke-width: 30" />
<polyline points="1682,2631 1661,2626 " style="fill: white; stroke: black; stroke-width: 30" />
<polyline points="1677,2689 1676,2673 1676,2661 1683,2649 1691,2650 1700,2669 1714,2715 1725,2759 1722,2779 1703,2783 1654,2781 1602,2759 1586,2726 1602,2687 1647,2640 1705,2615 " style="fill: white; stroke: black; stroke-width: 30" />
<polyline points="1907,2740 1904,2735 1906,2719 1903,2690 1888,2659 1863,2645 1836,2645 1824,2661 1831,2682 1857,2702 1877,2722 1890,2751 1901,2793 1919,2848 1922,2903 1907,2940 1876,2966 1832,2974 1795,2946 1791,2864 1826,2744 1889,2681 " style="fill: white; stroke: black; stroke-width: 30" />
<polyline points="2124,2710 2098,2755 2051,2792 2002,2810 1979,2793 1974,2761 1991,2726 2012,2710 2047,2707 2089,2731 2118,2761 2137,2794 2164,2806 2198,2791 2242,2752 2255,2738 2254,2737 2250,2742 2246,2766 2250,2789 2280,2801 2355,2796 2403,2791 2406,2789 2411,2795 2423,2810 2449,2821 " style="fill: white; stroke: black; stroke-width: 30" />
<polyline points="921,3097 927,3076 915,3072 902,3077 878,3102 829,3179 799,3237 807,3263 834,3288 896,3306 962,3325 1014,3331 1048,3340 " style="fill: white; stroke: black; stroke-width: 30" />
<polyline points="1084,3219 1081,3222 1093,3236 1126,3269 1157,3306 1162,3339 1145,3368 1101,3405 1065,3416 1065,3418 1067,3414 1081,3405 " style="fill: white; stroke: black; stroke-width: 30" />
<polyline points="1625,3255 1615,3255 1602,3253 1591,3257 1579,3285 1566,3356 1549,3464 1527,3575 1500,3637 1480,3652 1462,3651 1429,3615 1394,3550 " style="fill: white; stroke: black; stroke-width: 30" />
<polyline points="1678,3435 1666,3437 1662,3438 1664,3447 1672,3467 1691,3493 1717,3505 1746,3506 1767,3505 1773,3508 1772,3512 1776,3517 1790,3529 " style="fill: white; stroke: black; stroke-width: 30" />
<polyline points="2364,3623 2362,3623 2360,3617 2359,3602 2371,3580 2383,3553 2388,3541 2392,3535 2394,3517 2405,3473 2437,3403 2474,3336 2498,3291 2510,3283 2520,3286 2566,3321 2623,3371 2640,3398 2635,3402 2612,3405 2563,3387 2498,3351 2458,3321 2442,3304 2439,3302 " style="fill: white; stroke: black; stroke-width: 30" />
<polyline points="2663,3476 2687,3464 2716,3464 2742,3480 2757,3500 2766,3508 2778,3512 2780,3515 2777,3521 2766,3558 2762,3580 2763,3604 " style="fill: white; stroke: black; stroke-width: 30" />
<polyline points="2839,3581 2848,3558 2856,3541 2877,3522 2913,3499 2927,3497 2936,3510 2941,3539 2940,3575 2942,3597 2942,3599 2951,3588 2964,3576 2975,3568 2976,3571 2979,3577 2981,3589 2987,3602 " style="fill: white; stroke: black; stroke-width: 30" />
<polyline points="3147,3600 3131,3646 3103,3675 3086,3685 3075,3678 3073,3642 3076,3603 3079,3591 3080,3594 3089,3611 3115,3637 3145,3651 3181,3655 3213,3644 3234,3628 3244,3617 3266,3592 3281,3569 " style="fill: white; stroke: black; stroke-width: 30" />
<polyline points="7240,8378 " style="fill: white; stroke: black; stroke-width: 30" />
<polyline points="1652,3711 1637,3707 1630,3709 1617,3719 1593,3759 1545,3834 1532,3873 1543,3891 1563,3898 1593,3896 1652,3893 1718,3894 1779,3893 1817,3897 1819,3898 1808,3899 1784,3899 " style="fill: white; stroke: black; stroke-width: 30" />
<polyline points="1908,3894 1909,3898 1903,3900 1899,3904 1894,3906 1894,3905 1896,3904 1901,3903 1901,3900 1903,3900 1901,3900 1900,3898 1901,3900 1902,3899 1896,3903 1879,3911 1835,3926 1807,3934 1795,3940 1799,3939 1802,3938 " style="fill: white; stroke: black; stroke-width: 30" />
<polyline points="1574,3693 1558,3688 1560,3684 1572,3680 1596,3681 1646,3689 1707,3709 1700,3526 " style="fill: white; stroke: black; stroke-width: 30" />
<polyline points="2220,3891 2194,3915 2166,3956 2139,3992 2133,4015 2135,4015 2138,4008 2156,3975 2198,3892 2242,3816 2293,3780 2328,3782 2350,3821 2340,3885 2298,3938 2248,3957 2182,3946 2139,3905 2129,3874 " style="fill: white; stroke: black; stroke-width: 30" />
<polyline points="2398,4059 2348,4060 2310,4037 2300,4016 2306,4006 2310,4005 2329,4011 2381,4025 2440,4028 2497,4019 2557,3979 2618,3902 2674,3834 2670,3815 2658,3811 2639,3832 2595,3902 2539,3984 2496,4049 2479,4071 2479,4064 2490,4049 2525,4006 2560,3978 2587,3973 2615,3977 2641,3982 2669,3982 2713,3957 2744,3928 2747,3927 2743,3930 2718,3962 2697,4009 2690,4041 2687,4053 2692,4055 2690,4055 2694,4052 " style="fill: white; stroke: black; stroke-width: 30" />
<polyline points="2789,4040 2799,4033 2810,4014 2808,3996 2792,3995 2763,4003 2751,4031 2764,4071 2796,4082 2843,4073 2870,4048 2862,4018 2848,4006 2849,4010 2851,4016 2870,4026 " style="fill: white; stroke: black; stroke-width: 30" />
<polyline points="2136,4655 2139,4708 2144,4737 2152,4752 2154,4759 2153,4758 2154,4757 2156,4753 2154,4752 2157,4752 2157,4751 2156,4750 2155,4751 2155,4750 2156,4747 2149,4744 2112,4719 2008,4694 1877,4693 1782,4706 1730,4721 1720,4726 1726,4725 1729,4723 1733,4723 1735,4720 1733,4720 1731,4722 1730,4720 1732,4719 1735,4720 1735,4720 1735,4720 1732,4723 1733,4720 1734,4719 " style="fill: white; stroke: black; stroke-width: 30" />
<polyline points="38,4494 34,4494 34,4505 34,4551 14,4651 -3,4730 -1,4764 12,4763 24,4723 24,4631 32,4525 46,4436 74,4372 112,4356 145,4382 158,4456 125,4547 69,4611 15,4627 -9,4617 -14,4599 -6,4579 " style="fill: white; stroke: black; stroke-width: 30" />
<polyline points="226,4710 186,4688 157,4650 160,4638 181,4619 221,4606 260,4620 287,4659 306,4702 325,4726 339,4722 347,4704 355,4688 380,4639 403,4593 424,4567 424,4572 426,4593 438,4643 470,4683 528,4701 593,4687 615,4657 604,4621 563,4605 523,4610 511,4644 536,4698 585,4735 657,4746 686,4498 " style="fill: white; stroke: black; stroke-width: 30" />
<polyline points="728,4683 728,4670 732,4650 740,4647 768,4645 823,4643 894,4645 964,4635 1015,4616 1007,4621 992,4627 974,4638 974,4641 974,4638 966,4633 899,4638 879,4676 885,4722 925,4755 977,4759 1016,4725 1030,4679 1016,4629 998,4613 985,4606 989,4606 999,4601 " style="fill: white; stroke: black; stroke-width: 30" />
<polyline points="131,4992 114,5003 86,5037 36,5133 4,5237 6,5303 37,5338 58,5345 72,5344 71,5340 71,5341 69,5338 70,5338 71,5340 72,5339 74,5339 87,5339 145,5329 223,5325 294,5329 340,5333 365,5339 371,5342 368,5341 364,5339 363,5340 365,5339 365,5339 356,5122 " style="fill: white; stroke: black; stroke-width: 30" />
<polyline points="487,5308 425,5345 396,5368 394,5371 394,5372 397,5370 " style="fill: white; stroke: black; stroke-width: 30" />
<polyline points="915,5193 898,5187 890,5192 866,5227 841,5314 826,5402 829,5442 834,5449 836,5444 840,5417 840,5388 841,5368 838,5354 840,5336 840,5312 831,5282 822,5272 813,5270 814,5265 812,5265 811,5261 810,5256 808,5244 802,5224 799,5217 797,5208 800,5197 825,5169 887,5136 957,5136 1029,5167 1074,5217 1068,5255 1013,5296 924,5336 853,5350 834,5355 837,5373 851,5384 895,5402 966,5409 1053,5398 1137,5379 1196,5353 1208,5317 1182,5277 1134,5268 1075,5283 1046,5313 1061,5358 1101,5396 1157,5412 " style="fill: white; stroke: black; stroke-width: 30" />
<polyline points="1383,5334 1359,5319 1310,5319 1264,5346 1252,5376 1272,5398 1327,5416 1404,5402 1484,5351 1536,5297 1548,5257 1542,5249 1533,5254 1524,5263 1510,5299 1517,5333 1540,5363 1559,5384 " style="fill: white; stroke: black; stroke-width: 30" />
<polyline points="1795,5209 1743,5255 1684,5333 1645,5412 1645,5426 1647,5410 1663,5373 1681,5350 1711,5343 1756,5355 1823,5364 1871,5360 1872,5347 1832,5326 1765,5327 1736,5346 1745,5373 1802,5401 1894,5401 " style="fill: white; stroke: black; stroke-width: 30" />
<polyline points="2530,5422 2458,5465 2368,5504 2346,5535 2362,5560 2402,5583 2363,5380 " style="fill: white; stroke: black; stroke-width: 30" />
<polyline points="2420,5452 2405,5453 2414,5459 2453,5473 2529,5490 2601,5497 2639,5486 2631,5490 2618,5497 2608,5509 2605,5523 2611,5522 2608,5520 2603,5519 2607,5510 2613,5499 2631,5486 2668,5477 2726,5485 2753,5506 2749,5524 2725,5539 2674,5550 2639,5541 2617,5514 2620,5496 2628,5489 2647,5483 " style="fill: white; stroke: black; stroke-width: 30" />
<polyline points="2887,5481 2887,5482 2880,5486 2863,5505 2862,5515 2873,5517 2920,5519 2963,5516 2968,5515 2960,5521 2960,5525 2974,5538 3014,5555 3034,5555 3031,5548 3023,5548 3026,5546 3036,5543 " style="fill: white; stroke: black; stroke-width: 30" />
<polyline points="3242,5358 3230,5351 3217,5358 3192,5387 3143,5446 3108,5498 3097,5535 3104,5541 3120,5536 3165,5517 3190,5515 3194,5527 3186,5553 3164,5576 3130,5584 3108,5569 3111,5536 3114,5524 3120,5519 3152,5520 3208,5528 3274,5524 3328,5522 3330,5519 3320,5519 3302,5548 3292,5567 " style="fill: white; stroke: black; stroke-width: 30" />
<polyline points="945,5819 999,5878 987,5917 911,5956 816,5966 794,5946 807,5935 870,5883 956,5844 1010,5824 1031,5813 1032,5811 1030,5821 1027,5852 1039,5888 1069,5907 1108,5900 1165,5861 1211,5823 1215,5813 1209,5815 1150,5881 1152,5911 1176,5924 1218,5943 1226,5950 1203,5975 1136,5780 " style="fill: white; stroke: black; stroke-width: 30" />
<polyline points="1355,5974 1351,5989 1327,5995 1303,5992 1288,5968 1298,5935 1358,5909 1453,5885 1586,5853 1705,5807 1749,5772 1729,5761 1681,5767 1603,5826 1526,5911 1495,5966 1499,5985 1510,5975 1557,5947 1600,5929 1633,5921 1665,5924 1689,5924 1686,5927 1680,5934 1681,5937 1689,5949 1728,5963 1755,5972 1754,5979 " style="fill: white; stroke: black; stroke-width: 30" />
<polyline points="-4076,702 -4082,712 -4090,698 -4097,741 -4110,813 -4112,895 -4105,949 -4111,947 -4121,899 -4127,829 -4112,729 -4069,656 -4000,639 -3949,660 -3930,705 -3975,766 -4073,840 -4149,889 -4153,913 -4126,919 -4047,943 -3959,948 -3899,910 -3876,872 -3888,852 -3917,861 -3940,868 -3943,869 -3933,879 -3903,900 -3871,908 " style="fill: white; stroke: black; stroke-width: 30" />
<polyline points="-3706,780 -3732,783 -3769,819 -3795,893 -3800,925 -3771,936 -3709,912 -3612,870 -3511,784 -3465,710 -3477,679 -3501,687 -3540,726 -3564,801 -3541,862 -3501,908 -3470,927 -3450,945 -3440,957 " style="fill: white; stroke: black; stroke-width: 30" />
<polyline points="-3204,667 -3227,684 -3280,720 -3348,813 -3390,898 -3398,935 -3393,937 -3387,917 -3376,902 -3360,895 -3309,898 -3228,885 -3144,869 -3131,843 -3172,834 -3226,847 -3253,878 -3244,909 -3191,949 -3101,952 -3021,914 -2968,847 -2973,811 -2981,814 -2987,806 -2986,818 -2977,865 -2973,908 -2986,923 -2997,920 -3007,915 " style="fill: white; stroke: black; stroke-width: 30" />
<polyline points="-2149,841 -2068,837 -1993,830 -1955,835 -1961,840 -1985,841 -2030,836 -2070,839 -2087,854 -2086,869 -2057,908 -2005,927 -1965,924 -1942,911 -1944,897 -1958,872 -1965,864 -1962,868 -1958,873 -1942,897 -1917,918 -1877,929 -1844,933 -1832,929 -1829,923 -1816,904 -1788,880 -1764,874 -1754,889 -1752,891 -1745,912 -1730,920 -1705,924 -1690,929 -1689,932 -1689,932 -1687,929 -1661,930 -1622,950 " style="fill: white; stroke: black; stroke-width: 30" />
<polyline points="-1493,946 -1471,937 -1430,905 -1386,892 -1363,910 -1359,936 -1375,981 -1398,1007 -1430,1010 -1474,989 -1503,965 -1505,948 -1494,943 -1432,952 -1328,961 -1238,948 -1197,946 -1199,948 -1217,946 -1231,975 -1238,1007 " style="fill: white; stroke: black; stroke-width: 30" />
<polyline points="-503,1054 -530,1061 -597,1053 -666,1036 -678,1029 -662,1033 -599,1040 -497,1017 -401,978 -348,952 -339,940 -342,937 -348,940 -353,944 -367,965 -364,980 -338,992 -297,987 -257,973 -249,967 -255,967 -272,986 -303,1034 -324,1069 " style="fill: white; stroke: black; stroke-width: 30" />
<polyline points="-132,1106 -156,1096 -186,1067 -198,1056 -194,1054 -183,1055 294,793 265,761 233,773 174,824 117,918 87,988 84,996 87,988 90,978 93,974 103,977 158,978 241,977 309,966 320,954 286,954 248,974 236,990 254,1007 292,1023 318,1031 317,1034 317,1043 328,1062 371,1077 " style="fill: white; stroke: black; stroke-width: 30" />
<polyline points="-4294,1469 -4200,1496 -4119,1509 -4066,1514 -4059,1508 -4060,1508 -4066,1507 -4065,1516 -4064,1515 -4065,1520 -4065,1522 -4066,1518 -4069,1515 -4070,1513 -4070,1511 -4072,1509 -4069,1515 -4069,1513 -4075,1506 -4074,1508 -4076,1501 -4079,1500 -4080,1498 -4079,1500 -4085,1493 -4082,1497 -4077,1503 -4080,1498 -4078,1500 -4072,1509 -4073,1508 -4073,1508 -4069,1511 -4074,1503 -4072,1504 -4068,1509 " style="fill: white; stroke: black; stroke-width: 30" />
<polyline points="-4081,1424 -4087,1432 -4081,1439 -4061,1449 -4021,1477 -3998,1492 -3992,1509 -4005,1518 -4021,1543 -4053,1569 -4061,1570 -4056,1576 -4056,1576 " style="fill: white; stroke: black; stroke-width: 30" />

</svg>