<?xml version="1.0" standalone="no"?>
<!DOCTYPE svg PUBLIC "-//W3C//DTD SVG 1.1//EN" "http://www.w3.org/Graphics/SVG/1.1/DTD/svg11.dtd">
<svg width="210mm" height="297mm" viewBox="-7000 500 14000 20000" version="1.1" xmlns="http://www.w3.org/2000/svg">

<polyline points="-3466,1469 -3480,1477 -3485,1501 -3512,1588 -3522,1703 -3511,1783 -3490,1814 " style="fill: white; stroke: black; stroke-width: 30" />
<polyline points="-3700,1482 -3738,1463 -3736,1469 -3709,1463 -3631,1442 -3512,1433 -3363,1412 " style="fill: white; stroke: black; stroke-width: 30" />
<polyline points="-3661,1579 -3698,1584 -3686,1584 -3621,1573 -3484,1554 -3361,1547 " style="fill: white; stroke: black; stroke-width: 30" />
<polyline points="-3332,1577 -3357,1557 -3332,1545 -3257,1549 -3181,1612 -3145,1680 -3162,1734 -3219,1756 -3320,1738 -3368,1707 -3366,1688 -3332,1677 -3257,1675 -3194,1703 -3139,1731 -3080,1753 -3012,1732 " style="fill: white; stroke: black; stroke-width: 30" />
<polyline points="-2999,1609 -3016,1631 -3046,1685 -3059,1726 -3052,1732 -3038,1727 -3016,1696 -2995,1674 -2974,1663 -2961,1669 -2944,1684 -2930,1698 -2903,1696 -2857,1687 -2827,1696 -2824,1726 -2812,1743 -2795,1732 -2756,1686 " style="fill: white; stroke: black; stroke-width: 30" />
<polyline points="-2634,1617 -2633,1611 -2639,1613 -2644,1622 -2657,1666 -2665,1710 -2668,1734 -2664,1743 " style="fill: white; stroke: black; stroke-width: 30" />
<polyline points="-2586,1461 -2614,1445 -2623,1436 -2622,1432 -2610,1434 " style="fill: white; stroke: black; stroke-width: 30" />
<polyline points="-2478,1394 -2479,1399 -2486,1399 -2492,1407 -2527,1486 -2582,1634 -2582,1736 -2537,1771 " style="fill: white; stroke: black; stroke-width: 30" />
<polyline points="-2372,1537 -2385,1571 -2414,1616 -2427,1644 -2404,1658 -2338,1636 -2257,1567 -2226,1533 -2233,1532 -2269,1576 -2353,1685 -2396,1829 -2388,1913 " style="fill: white; stroke: black; stroke-width: 30" />
<polyline points="-1185,1469 -1181,1473 -1189,1506 -1223,1615 -1250,1712 -1256,1776 -1244,1796 " style="fill: white; stroke: black; stroke-width: 30" />
<polyline points="-1272,1542 -1294,1499 -1287,1448 -1235,1407 -1138,1409 -1032,1492 -991,1604 -1049,1724 -1156,1815 -1249,1843 -1298,1824 -1324,1782 -1325,1712 -1290,1640 " style="fill: white; stroke: black; stroke-width: 30" />
<polyline points="-728,1460 -803,1507 -862,1615 -906,1752 -921,1832 -915,1856 -904,1836 -889,1763 -889,1666 -900,1565 -908,1505 -916,1473 -915,1460 -902,1442 -879,1429 -837,1408 -770,1401 -694,1417 -654,1463 -670,1518 -727,1562 -810,1588 -856,1593 -848,1598 -802,1649 -750,1718 -769,1779 -850,1828 -947,1840 -995,1811 -1009,1775 -967,1689 " style="fill: white; stroke: black; stroke-width: 30" />
<polyline points="904,1432 910,1424 910,1414 904,1414 891,1422 867,1475 808,1681 743,1910 702,2066 699,2153 731,2166 " style="fill: white; stroke: black; stroke-width: 30" />
<polyline points="817,1383 829,1369 882,1363 947,1378 997,1398 1041,1434 1087,1500 1124,1571 1137,1647 1121,1715 1077,1769 1007,1814 941,1838 874,1857 824,1873 799,1882 794,1881 797,1881 797,1878 799,1876 800,1872 800,1873 797,1871 798,1873 798,1876 802,1896 807,1921 815,1932 818,1942 824,1960 833,1970 844,1984 848,1988 848,1991 845,1991 843,1978 " style="fill: white; stroke: black; stroke-width: 30" />
<polyline points="812,1539 823,1527 830,1514 848,1505 871,1511 885,1548 870,1629 822,1707 770,1754 743,1779 727,1812 731,1844 " style="fill: white; stroke: black; stroke-width: 30" />
<polyline points="-297,2321 -316,2322 -309,2322 -276,2320 -212,2323 -86,2332 131,2335 455,2345 858,2346 1261,2354 1544,2360 1676,2370 1683,2368 1679,2370 1673,2371 1674,2373 1677,2375 1680,2378 1685,2378 1684,2365 1684,2347 " style="fill: white; stroke: black; stroke-width: 30" />
<polyline points="-4089,1180 -4096,1195 -4113,1256 -4180,1456 -4248,1879 -4273,2327 -4244,2598 -4175,2743 " style="fill: white; stroke: black; stroke-width: 30" />
<polyline points="-4067,2952 -4038,2951 -3900,2950 -3629,2925 -3199,2888 -2616,2835 -1913,2791 -1096,2765 -216,2767 672,2791 1495,2829 2154,2877 2614,2898 2871,2903 2953,2893 2925,2866 " style="fill: white; stroke: black; stroke-width: 30" />
<polyline points="-4158,1076 -4175,1116 -4173,1122 -4157,1125 -4115,1114 -4037,1106 -3866,1120 -3576,1148 -3156,1174 -2587,1180 -1913,1132 -1126,1167 -290,1183 546,1166 1420,631 1702,1259 2019,1276 2151,1290 2168,1290 2175,1289 2171,1292 2173,1295 2175,1306 " style="fill: white; stroke: black; stroke-width: 30" />
<polyline points="2761,1412 2747,1410 2697,1473 2585,1685 2417,2064 2258,2406 2157,2670 2129,2818 2133,2918 " style="fill: white; stroke: black; stroke-width: 30" />
<polyline points="3200,1843 3177,1828 3153,1855 3100,1970 3057,2116 3038,2241 3010,2337 2990,2404 2978,2428 " style="fill: white; stroke: black; stroke-width: 30" />
<polyline points="2878,1776 2872,1757 2906,1720 3020,1676 3185,1664 3324,1712 3394,1789 3407,1828 3393,1833 3372,1845 3372,1843 3375,1844 3374,1846 3375,1843 3376,1841 3375,1842 3377,1839 3376,1842 3375,1842 3376,1842 3375,1840 3370,1846 3345,1868 3245,1939 3125,2001 3032,2048 3007,2066 3004,2085 3008,2107 3032,2133 3090,2190 3165,2247 3223,2291 3267,2345 " style="fill: white; stroke: black; stroke-width: 30" />
<polyline points="3556,2138 3473,2117 3360,2128 3288,2189 3281,2286 3336,2367 3425,2406 3500,2391 3510,2340 3488,2282 3450,2238 3446,2235 3464,2249 3519,2271 3618,2234 3731,2134 3805,2047 3836,2005 3842,1989 3843,1988 3841,1991 3838,1999 3815,2045 3771,2154 3733,2286 3707,2409 3695,2494 3702,2530 3717,2526 " style="fill: white; stroke: black; stroke-width: 30" />
<polyline points="3634,2317 3636,2314 3717,2312 3803,2310 3900,2304 4020,2292 " style="fill: white; stroke: black; stroke-width: 30" />
<polyline points="-3048,3273 -3043,3246 -3048,3248 -3062,3273 -3129,3399 -3225,3582 -3271,3682 -3253,3713 -3183,3725 -3047,3714 -2890,3683 -2738,3652 " style="fill: white; stroke: black; stroke-width: 30" />
<polyline points="-3311,3234 -3329,3228 -3327,3223 -3319,3221 -3308,3222 -3284,3224 -3210,3227 -3066,3233 -2871,3238 " style="fill: white; stroke: black; stroke-width: 30" />
<polyline points="-2745,3513 -2734,3510 -2677,3517 -2617,3541 -2589,3577 -2623,3647 -2684,3707 -2747,3747 -2756,3755 -2733,3748 " style="fill: white; stroke: black; stroke-width: 30" />
<polyline points="-1804,3405 -1812,3394 -1821,3398 -1848,3455 -1901,3608 -1937,3724 -1934,3792 -1908,3829 " style="fill: white; stroke: black; stroke-width: 30" />
<polyline points="-2121,3415 -2123,3408 -2074,3394 -1923,3371 -1727,3362 -1578,3409 " style="fill: white; stroke: black; stroke-width: 30" />
<polyline points="-1655,3749 -1717,3787 -1763,3808 -1772,3816 -1765,3815 -1734,3786 -1695,3716 -1660,3659 -1637,3626 -1623,3614 -1590,3630 -1514,3674 -1416,3691 -1333,3690 -1314,3689 -1334,3694 -1361,3703 -1390,3726 -1394,3743 -1393,3785 -1388,3819 " style="fill: white; stroke: black; stroke-width: 30" />
<polyline points="-1247,3469 -1254,3458 -1256,3459 -1254,3466 " style="fill: white; stroke: black; stroke-width: 30" />
<polyline points="-1046,3757 -1079,3713 -1142,3662 -1228,3647 -1268,3662 -1249,3707 -1175,3755 -1096,3795 -1089,3834 -1143,3926 -1204,4011 -1238,4068 -1253,4085 -1294,4074 -1378,4022 -1439,3954 -1433,3883 " style="fill: white; stroke: black; stroke-width: 30" />
<polyline points="-789,3694 -832,3648 -878,3622 -900,3632 -926,3667 -922,3704 -890,3735 -840,3761 -821,3786 -832,3825 -867,3900 -915,3976 -975,4042 -1046,4086 -1089,4079 -1095,4043 -1050,3917 -939,3811 -794,3754 -673,3733 -608,3723 -615,3719 -642,3716 -679,3731 -702,3773 -686,3850 -633,3914 -560,3931 -502,3882 -469,3792 -455,3716 -438,3672 -405,3634 -344,3614 " style="fill: white; stroke: black; stroke-width: 30" />
<polyline points="891,3633 931,3640 926,3655 877,3732 766,3862 666,3978 621,4055 630,4099 " style="fill: white; stroke: black; stroke-width: 30" />
<polyline points="762,3714 804,3605 883,3550 957,3546 1019,3591 1032,3668 964,3754 858,3801 759,3799 735,3780 734,3755 771,3719 " style="fill: white; stroke: black; stroke-width: 30" />
<polyline points="1237,3573 1248,3581 1244,3590 1206,3642 1094,3774 995,3892 971,3965 988,3989 1028,3989 1114,3951 1159,3942 1166,3951 1160,3997 " style="fill: white; stroke: black; stroke-width: 30" />
<polyline points="621,3736 553,3683 579,3627 699,3577 944,3567 1240,3607 1471,3646 1552,3670 1486,3675 1275,3709 976,3742 779,3768 712,3792 720,3807 750,3850 824,3905 964,3942 1083,3956 1103,3948 1057,3955 952,3973 " style="fill: white; stroke: black; stroke-width: 30" />
<polyline points="1790,3675 1778,3670 1770,3672 1735,3725 1628,3856 1508,3988 1481,4061 " style="fill: white; stroke: black; stroke-width: 30" />
<polyline points="1657,3600 1625,3570 1602,3538 1615,3523 1727,3505 1887,3572 1976,3693 1956,3782 1831,3836 1689,3841 1601,3813 1591,3790 1648,3732 " style="fill: white; stroke: black; stroke-width: 30" />
<polyline points="1868,3908 1897,3827 1990,3775 2092,3781 2156,3840 2151,3910 2054,3973 1939,4001 1858,3986 1837,3958 1850,3942 1888,3927 1948,3948 2025,4001 2104,4033 " style="fill: white; stroke: black; stroke-width: 30" />
<polyline points="2590,3523 2562,3535 2516,3601 2450,3705 2334,3840 2236,3959 2206,4024 " style="fill: white; stroke: black; stroke-width: 30" />
<polyline points="2255,3789 2254,3807 2280,3827 2345,3839 2435,3818 2531,3777 " style="fill: white; stroke: black; stroke-width: 30" />
<polyline points="2732,3583 2698,3599 2603,3692 2456,3850 2362,3980 2358,4053 2410,4071 2518,4034 2611,4007 2628,4013 2606,4050 2603,4100 " style="fill: white; stroke: black; stroke-width: 30" />
<polyline points="2699,4116 2756,4064 2767,4012 2752,3978 2719,3974 2695,4001 2688,4057 2699,4121 2721,4165 2741,4186 2771,4185 2844,4150 2881,4094 2878,4015 2838,3939 2811,3912 2813,3918 2843,3957 " style="fill: white; stroke: black; stroke-width: 30" />
<polyline points="909,4321 946,4316 1028,4315 1199,4322 1538,4334 2012,4355 2498,4390 2901,4437 3129,4481 3202,4495 3202,4493 3199,4495 3195,4493 3190,4495 3189,4500 " style="fill: white; stroke: black; stroke-width: 30" />
<polyline points="-2349,4452 -2375,4452 -2378,4445 -2356,4445 -2288,4443 -2152,4445 -1894,4439 -1464,4426 -902,4421 -308,4441 251,4488 677,4543 926,4578 994,4579 997,4574 988,4569 975,4564 965,4560 960,4558 959,4559 956,4561 963,4565 970,4568 984,4576 " style="fill: white; stroke: black; stroke-width: 30" />
<polyline points="-1895,2297 -1999,2330 -2025,2342 -1990,2326 -1884,2263 -1703,2140 -1448,1981 -1104,1808 -716,1624 -373,1459 -122,1334 14,1281 37,1272 32,1273 25,1272 22,1276 18,1278 13,1287 " style="fill: white; stroke: black; stroke-width: 30" />
<polyline points="-1687,1317 -1861,1258 -1962,1212 -1998,1187 -1993,1190 -1971,1206 -1902,1264 -1759,1380 -1517,1540 -1183,1758 -781,1987 -355,2215 8,2414 247,2573 352,2677 378,2722 370,2724 355,2724 340,2713 305,2659 " style="fill: white; stroke: black; stroke-width: 30" />
<polyline points="-1866,5650 -1877,5648 -1880,5648 -1886,5650 -1898,5723 -1921,5871 -1945,6040 -1982,6180 -2013,6266 -2039,6309 -2060,6320 -2074,6306 -2114,6223 -2153,6066 -2157,5925 -2136,5852 " style="fill: white; stroke: black; stroke-width: 30" />
<polyline points="-1714,5785 -1721,5765 -1724,5762 -1725,5770 -1740,5810 -1763,5899 -1771,5967 -1753,5997 -1714,6000 -1636,5951 -1547,5873 -1510,5844 -1514,5849 -1534,5886 -1555,5954 -1542,6004 " style="fill: white; stroke: black; stroke-width: 30" />
<polyline points="-1165,5794 -1190,5776 -1241,5768 -1298,5782 -1326,5821 -1320,5901 -1298,5980 -1308,6034 -1330,6052 -1349,6053 -1362,6032 -1373,5969 -1347,5906 " style="fill: white; stroke: black; stroke-width: 30" />
<polyline points="-511,5839 -521,5834 -525,5843 -544,5925 -555,6043 -560,6138 -563,6185 -572,6198 -581,6178 -585,6078 -565,5918 -512,5788 -447,5724 -382,5720 -345,5766 -355,5850 -407,5937 -464,5985 -516,5987 -552,5954 -559,5902 -552,5833 -516,5792 -474,5784 -405,5818 -341,5889 -288,5964 -259,6020 -265,6040 -282,6052 -297,6060 -301,6068 -300,6075 -298,6077 -295,6077 -295,6076 -296,6071 -294,6069 -295,6069 -293,6073 -296,6077 -297,6087 -297,6091 -295,6090 -293,6082 -292,6066 -281,6029 -265,5955 -249,5898 -231,5868 -221,5859 -202,5865 -170,5886 -137,5922 -81,5949 -32,5958 -14,5952 -16,5950 -16,5946 -19,5947 -17,5948 -24,5966 -48,6017 -69,6082 -71,6120 -65,6137 " style="fill: white; stroke: black; stroke-width: 30" />
<polyline points="78,5714 82,5691 83,5688 96,5697 119,5733 142,5782 138,5812 109,5837 51,5838 20,5808 11,5756 18,5717 55,5673 118,5658 " style="fill: white; stroke: black; stroke-width: 30" />
<polyline points="99,5982 77,6007 53,6050 27,6098 15,6120 15,6123 22,6116 43,6088 93,6039 145,5998 186,5978 203,5988 194,6020 177,6071 177,6101 202,6106 249,6084 279,6073 279,6076 280,6092 295,6113 " style="fill: white; stroke: black; stroke-width: 30" />
<polyline points="444,6002 448,5994 460,5994 487,6005 518,6019 537,6028 538,6028 532,6030 535,6027 533,6028 537,6027 537,6030 535,6037 529,6066 517,6107 498,6146 468,6170 433,6175 398,6155 388,6122 395,6090 407,6087 440,6090 480,6116 540,6139 611,6148 676,6138 726,6106 731,6068 716,6037 697,6017 680,6018 663,6047 648,6108 655,6158 685,6195 726,6216 " style="fill: white; stroke: black; stroke-width: 30" />
<polyline points="1571,5890 1545,5896 1504,5942 1437,6044 1393,6135 1390,6220 1425,6260 " style="fill: white; stroke: black; stroke-width: 30" />
<polyline points="1726,6031 1678,6009 1582,6011 1466,6052 1393,6110 1404,6161 1458,6201 1534,6226 1622,6216 1702,6192 " style="fill: white; stroke: black; stroke-width: 30" />
<polyline points="1708,6277 1688,6258 1687,6225 1703,6181 1738,6145 1785,6127 1817,6131 1838,6169 1843,6201 1832,6253 1812,6289 1799,6312 " style="fill: white; stroke: black; stroke-width: 30" />
<polyline points="2049,6136 2040,6138 2037,6146 2043,6174 2061,6202 2072,6229 2070,6251 2034,6293 1981,6331 1934,6355 1902,6348 1893,6318 1911,6269 1944,6236 1975,6232 1999,6258 2030,6313 " style="fill: white; stroke: black; stroke-width: 30" />
<polyline points="2247,6195 2230,6220 2189,6277 2112,6377 2053,6465 2026,6525 2028,6539 2028,6530 2053,6474 2118,6363 2210,6228 2294,6151 2342,6135 2366,6161 2365,6203 2316,6249 2245,6271 2183,6263 2169,6246 2178,6237 2222,6208 2301,6190 2416,6173 2537,6159 2634,6135 2635,6126 2615,6116 2590,6120 2563,6142 2529,6198 2481,6271 2444,6320 2415,6336 2399,6331 2382,6305 2387,6264 2415,6219 2466,6189 " style="fill: white; stroke: black; stroke-width: 30" />
<polyline points="2691,6207 2684,6169 2701,6141 2743,6131 2787,6153 2828,6198 2830,6246 2805,6285 2746,6309 2681,6309 2655,6293 2657,6288 2663,6287 2667,6293 2675,6307 2687,6331 2712,6353 2740,6370 2759,6382 2762,6390 " style="fill: white; stroke: black; stroke-width: 30" />
<polyline points="3026,6188 2940,6208 2846,6254 2816,6304 2831,6364 2892,6411 2997,6412 3110,6364 " style="fill: white; stroke: black; stroke-width: 30" />
<polyline points="3304,6160 3344,6112 3353,6095 3363,6091 3357,6095 3343,6105 3298,6137 3205,6204 3128,6273 3093,6341 3096,6386 3122,6402 3184,6380 3251,6337 3275,6315 3269,6316 3258,6314 3221,6317 3177,6326 3156,6344 3152,6376 3151,6426 3165,6470 3184,6496 " style="fill: white; stroke: black; stroke-width: 30" />
<polyline points="-1774,6578 -1790,6572 -1783,6568 -1744,6568 -1660,6571 -1541,6578 -1403,6589 -1256,6575 " style="fill: white; stroke: black; stroke-width: 30" />
<polyline points="-1508,6576 -1520,6595 -1552,6638 -1619,6735 -1669,6796 -1680,6832 -1663,6861 -1594,6889 -1484,6902 -1387,6911 -1293,6921 -1221,6928 " style="fill: white; stroke: black; stroke-width: 30" />
<polyline points="-1306,6794 -1300,6786 -1261,6797 -1201,6828 -1142,6864 -1121,6886 -1125,6896 -1157,6924 -1227,6966 -1280,6989 -1305,7010 -1292,7017 " style="fill: white; stroke: black; stroke-width: 30" />
<polyline points="-544,6961 -502,6945 -503,6935 -530,6898 -598,6870 -692,6870 -789,6908 -855,6977 -871,7044 -832,7113 -749,7167 -643,7182 -547,7161 " style="fill: white; stroke: black; stroke-width: 30" />
<polyline points="-641,7018 -671,7004 -665,6996 -625,6985 -552,6980 -493,7003 -479,7037 -498,7084 -553,7148 -580,7183 -582,7199 -572,7213 -562,7208 -536,7187 -497,7141 -451,7098 -406,7072 -366,7061 -343,7058 -320,7063 -299,7069 -278,7077 -236,7077 -214,7080 -208,7078 -204,7076 -199,7069 -193,7059 -187,7044 -196,7032 -231,7021 -288,7029 -337,7061 -342,7095 -316,7150 -267,7194 -204,7214 -145,7218 -106,7212 -87,7192 -57,7154 -29,7100 4,7063 17,7058 26,7058 27,7067 25,7098 4,7155 0,7192 1,7214 " style="fill: white; stroke: black; stroke-width: 30" />
<polyline points="233,6999 243,6999 280,7008 332,7032 365,7067 364,7101 316,7156 224,7207 163,7240 146,7253 156,7253 182,7250 222,7225 241,7206 265,7187 297,7170 342,7153 381,7145 394,7139 382,7133 341,7115 292,7101 267,7098 263,7101 263,7110 271,7120 275,7125 290,7138 322,7155 374,7168 439,7183 502,7188 557,7183 573,7176 576,7166 573,7162 572,7159 572,7158 570,7156 567,7157 553,7155 514,7169 454,7199 426,7235 426,7261 446,7271 516,7255 610,7222 675,7202 699,7204 708,7229 704,7273 693,7305 689,7312 694,7304 715,7281 " style="fill: white; stroke: black; stroke-width: 30" />
<polyline points="1163,7234 1148,7229 1161,7229 1205,7237 1300,7253 1405,7273 1510,7285 " style="fill: white; stroke: black; stroke-width: 30" />
<polyline points="1579,7161 1577,7159 1596,7176 1649,7227 1703,7269 1726,7285 1716,7286 1688,7305 1627,7341 1587,7378 1555,7418 " style="fill: white; stroke: black; stroke-width: 30" />
<polyline points="2136,7133 2123,7142 2093,7189 2025,7271 1968,7346 1950,7402 1956,7421 1977,7413 2023,7355 2075,7260 2146,7135 2207,7060 2265,7028 2327,7045 2356,7101 2355,7171 2296,7237 2209,7263 2140,7251 2101,7211 2094,7180 2109,7174 2185,7147 " style="fill: white; stroke: black; stroke-width: 30" />
<polyline points="2377,7321 2396,7280 2436,7242 2468,7236 2492,7254 2500,7289 2497,7329 2461,7359 2374,7371 2308,7358 2300,7348 2307,7345 2330,7347 2371,7367 2424,7387 2492,7403 " style="fill: white; stroke: black; stroke-width: 30" />
<polyline points="2870,7171 2889,7115 2877,7095 2860,7097 2766,7169 2663,7272 2603,7350 2568,7399 2565,7400 2576,7388 2591,7370 2668,7332 2763,7298 2836,7287 2887,7286 2935,7285 2980,7272 3044,7235 3077,7200 3067,7189 3056,7184 3012,7206 2939,7262 2894,7322 2862,7372 2860,7394 2869,7397 2899,7394 2966,7374 3012,7367 3005,7371 3008,7380 3014,7408 " style="fill: white; stroke: black; stroke-width: 30" />
<polyline points="3161,7377 3154,7361 3137,7355 3110,7365 3087,7389 3076,7420 3079,7438 3074,7447 3076,7444 3082,7440 3088,7440 3131,7425 3141,7416 3161,7389 3160,7378 3156,7375 " style="fill: white; stroke: black; stroke-width: 30" />
<polyline points="-1091,8480 -1084,8460 -1080,8430 -1072,8403 -1062,8363 -1023,8296 -959,8190 -916,8108 -904,8077 -909,8076 -912,8078 -908,8081 -911,8082 -910,8084 -911,8083 -908,8085 -908,8085 -908,8085 -910,8085 -908,8087 -915,8086 -909,8088 -908,8087 -905,8087 -905,8085 -902,8085 -900,8085 -905,8084 -905,8084 -905,8083 -903,8082 -902,8082 -905,8081 -902,8081 -902,8081 -905,8082 " style="fill: white; stroke: black; stroke-width: 30" />
<polyline points="-1192,8508 -1194,8498 -1185,8478 -1167,8458 -1120,8422 -1006,8369 -851,8308 -679,8244 -558,8197 -509,8175 -501,8165 -504,8166 -506,8165 -503,8167 -509,8169 -506,8171 -504,8172 " style="fill: white; stroke: black; stroke-width: 30" />
<polyline points="-473,8340 -466,8328 -469,8327 -476,8332 -485,8356 -528,8434 -581,8499 -594,8532 -595,8533 " style="fill: white; stroke: black; stroke-width: 30" />
<polyline points="-442,8204 -406,8136 -338,8101 -284,8101 -251,8133 -259,8193 -299,8235 -353,8256 -405,8247 -426,8221 -418,8197 -380,8143 -308,8101 " style="fill: white; stroke: black; stroke-width: 30" />
<polyline points="-299,8449 -283,8455 -241,8452 -196,8441 -158,8417 -142,8385 -148,8364 -168,8361 -213,8377 -251,8422 -262,8468 -243,8508 -188,8528 -105,8508 0,8447 128,8348 251,8225 281,8163 260,8138 224,8132 166,8161 98,8238 55,8320 66,8380 121,8414 198,8407 242,8376 244,8357 242,8339 237,8341 227,8351 205,8391 195,8430 202,8463 241,8488 313,8497 " style="fill: white; stroke: black; stroke-width: 30" />
<polyline points="1075,8250 1070,8250 1053,8271 999,8347 925,8469 868,8571 859,8618 874,8628 926,8587 1002,8486 1066,8360 1101,8259 1103,8222 1099,8215 1087,8220 1073,8247 1049,8315 1031,8398 1037,8470 1076,8525 1173,8540 1316,8514 1432,8473 1505,8422 1503,8412 1480,8411 1430,8433 1375,8506 1367,8559 1390,8615 1462,8628 " style="fill: white; stroke: black; stroke-width: 30" />
<polyline points="1754,8477 1720,8455 1691,8435 1670,8431 1627,8444 1610,8482 1603,8520 1609,8559 1611,8590 1628,8608 1629,8614 1643,8611 1673,8600 1715,8566 1764,8518 1775,8491 1774,8482 1770,8474 1774,8466 1765,8463 1761,8462 1763,8465 1765,8465 1764,8468 1777,8473 " style="fill: white; stroke: black; stroke-width: 30" />
<polyline points="2052,8498 2029,8472 1996,8443 1944,8427 1903,8435 1870,8474 1846,8541 1829,8601 1803,8634 1769,8640 1749,8624 1754,8610 1798,8583 1891,8565 1998,8551 2099,8532 2166,8502 2168,8484 2146,8465 2127,8464 2110,8490 2097,8548 2111,8603 2143,8643 2191,8647 2228,8622 2275,8560 2331,8497 2373,8446 2414,8421 2423,8424 2437,8444 2480,8473 2533,8482 " style="fill: white; stroke: black; stroke-width: 30" />
<polyline points="2709,8375 2740,8342 2740,8330 2735,8331 2731,8328 2716,8329 2675,8343 2627,8400 2574,8490 2544,8570 2528,8625 2507,8648 2485,8646 2456,8628 2441,8594 2431,8578 2431,8578 2436,8584 " style="fill: white; stroke: black; stroke-width: 30" />
<polyline points="-1355,8816 -1426,8808 -1474,8799 -1481,8794 -1476,8793 -1432,8798 -1318,8802 -1098,8808 -769,8813 -307,8826 233,8850 832,8895 1406,8959 1853,9026 2217,9072 2475,9112 2638,9133 2722,9131 2726,9126 2721,9121 2712,9120 2707,9123 2706,9124 2699,9129 2702,9131 2701,9135 2698,9137 2696,9139 2709,9137 " style="fill: white; stroke: black; stroke-width: 30" />
<polyline points="-778,9850 -807,9841 -861,9838 -941,9842 -1043,9865 -1122,9907 -1140,9944 -1117,10021 -1078,10109 -1069,10164 -1076,10183 -1092,10184 -1136,10159 -1175,10119 -1185,10084 -1167,10069 -1122,10064 " style="fill: white; stroke: black; stroke-width: 30" />
<polyline points="-679,9925 -756,9938 -822,9982 -841,10028 -813,10079 -752,10092 -661,10054 -593,9992 -578,9965 -591,9962 -591,9971 -640,10017 -712,10093 -788,10189 -843,10286 -860,10348 -829,10334 " style="fill: white; stroke: black; stroke-width: 30" />
<polyline points="-383,9905 -443,9909 -483,9926 -491,9969 -486,10056 -486,10140 -509,10177 -532,10185 -557,10175 -571,10159 -555,10107 -486,10058 " style="fill: white; stroke: black; stroke-width: 30" />
<polyline points="0,9759 -7,9738 -59,9744 -147,9816 -256,9946 -310,10057 -323,10089 -317,10086 -314,10059 -285,10030 -252,10013 -186,10020 -108,10022 -51,10008 -40,9984 -66,9960 -122,9952 -163,9993 -161,10043 -118,10088 -42,10076 7,10049 13,10042 9,10047 15,10058 51,10076 85,10080 80,10087 76,10091 95,10106 " style="fill: white; stroke: black; stroke-width: 30" />
<polyline points="1142,9865 1129,9853 1120,9855 1055,9909 947,10040 891,10148 886,10194 933,10225 1035,10230 1158,10217 1271,10189 " style="fill: white; stroke: black; stroke-width: 30" />
<polyline points="1466,10049 1416,10064 1357,10110 1306,10174 1274,10234 1278,10262 " style="fill: white; stroke: black; stroke-width: 30" />
<polyline points="1497,9936 1489,9922 1481,9918 1484,9917 1496,9917 1533,9909 " style="fill: white; stroke: black; stroke-width: 30" />
<polyline points="1664,10066 1665,10049 " style="fill: white; stroke: black; stroke-width: 30" />
<polyline points="1718,10120 1700,10107 1667,10088 1617,10082 1558,10096 1544,10124 1546,10159 1594,10179 1670,10163 1747,10126 1762,10108 1758,10103 1748,10104 1729,10135 1675,10223 1608,10337 1548,10436 1505,10505 1503,10534 " style="fill: white; stroke: black; stroke-width: 30" />
<polyline points="1538,10342 1569,10305 1658,10229 1768,10154 1852,10118 1902,10093 1917,10077 1920,10071 1919,10069 1922,10071 1924,10072 1923,10077 1916,10081 1914,10083 1918,10084 1902,10097 1877,10131 1848,10175 1861,10191 1895,10199 1957,10175 1993,10159 1987,10159 1980,10168 1971,10196 1966,10229 1977,10245 " style="fill: white; stroke: black; stroke-width: 30" />
<polyline points="2199,10112 2168,10120 2125,10147 2087,10192 2079,10226 2113,10238 " style="fill: white; stroke: black; stroke-width: 30" />
<polyline points="2316,9995 2319,9953 2317,9944 2313,9947 2320,9949 2322,9965 " style="fill: white; stroke: black; stroke-width: 30" />
<polyline points="2369,10210 2365,10182 2352,10143 2329,10115 2303,10120 2260,10168 2253,10210 2259,10239 2299,10238 2384,10193 2455,10132 2525,10085 2540,10069 2537,10067 2525,10075 2498,10111 2470,10161 2447,10214 2435,10242 2446,10252 2452,10250 2451,10248 2462,10233 2511,10201 " style="fill: white; stroke: black; stroke-width: 30" />
<polyline points="2713,10027 2705,10014 2692,10011 2682,10011 2680,10013 2680,10015 2683,10017 2687,10023 2697,10032 " style="fill: white; stroke: black; stroke-width: 30" />
<polyline points="2612,10208 2599,10216 2602,10228 2634,10237 2685,10226 2715,10212 2713,10194 2685,10178 2652,10183 2615,10236 2603,10291 2639,10350 2691,10378 2745,10362 2780,10321 2819,10274 2835,10246 2855,10239 2856,10244 2866,10272 2873,10296 2912,10313 2963,10301 3022,10261 3026,10229 3014,10212 2985,10223 2969,10260 2974,10300 2999,10335 3020,10352 3023,10356 3029,10355 3028,10364 3031,10376 3037,10380 " style="fill: white; stroke: black; stroke-width: 30" />
<polyline points="-763,10631 -778,10615 -783,10623 -832,10691 -885,10792 -906,10866 -895,10905 -875,10917 -864,10892 -849,10827 -837,10730 -831,10649 -833,10595 -830,10581 -813,10563 -770,10554 -717,10554 -672,10568 -655,10584 -635,10592 -624,10600 -625,10617 -636,10638 -647,10654 -680,10668 -732,10675 -784,10670 -827,10671 -833,10671 -820,10681 -780,10723 -714,10784 -687,10835 -708,10874 -754,10913 -824,10937 -877,10925 -916,10886 -918,10836 -890,10795 -824,10763 -725,10762 -611,10761 -506,10757 -454,10760 -452,10767 -465,10796 -500,10846 -521,10900 -539,10933 -552,10945 -531,10936 -493,10859 -433,10742 -385,10654 -379,10614 -385,10596 -389,10593 -392,10592 -391,10593 -385,10594 -356,10595 " style="fill: white; stroke: black; stroke-width: 30" />
<polyline points="-251,10802 -242,10780 -232,10770 -240,10768 -250,10765 -244,10767 -242,10766 -238,10766 -242,10766 -250,10772 -263,10805 -294,10894 -333,11004 -395,11111 -445,11174 -476,11210 -480,11200 -468,11108 " style="fill: white; stroke: black; stroke-width: 30" />
<polyline points="-275,10612 -258,10570 -247,10558 -245,10554 -247,10552 -245,10555 -245,10557 -251,10559 -250,10561 -216,10575 " style="fill: white; stroke: black; stroke-width: 30" />
<polyline points="-118,10795 -145,10780 -141,10780 -114,10792 -82,10804 -37,10805 -4,10793 10,10775 -12,10758 -67,10750 -100,10769 -114,10812 -88,10869 -23,10931 78,10940 " style="fill: white; stroke: black; stroke-width: 30" />
<polyline points="391,10683 401,10623 400,10604 379,10612 334,10654 265,10745 204,10844 166,10905 156,10932 165,10932 171,10926 210,10904 270,10867 335,10835 386,10814 363,10814 333,10825 282,10850 246,10877 242,10889 255,10899 270,10915 299,10926 355,10944 438,10954 " style="fill: white; stroke: black; stroke-width: 30" />
<polyline points="684,10636 717,10590 719,10588 715,10613 670,10668 600,10756 524,10844 470,10909 454,10940 461,10941 464,10930 486,10902 518,10884 563,10881 622,10890 664,10905 689,10917 680,10930 670,10945 641,10969 611,10994 609,11004 642,10992 693,10940 764,10853 813,10765 823,10711 818,10698 822,10698 830,10724 " style="fill: white; stroke: black; stroke-width: 30" />
<polyline points="921,10850 909,10829 896,10822 880,10830 844,10870 829,10922 836,10961 866,10997 937,11002 1009,10976 1052,10925 1067,10884 1056,10859 1052,10858 1043,10892 1024,10961 1057,11018 1093,11062 1149,11073 1216,11044 1267,10987 1288,10918 1306,10855 1333,10815 1349,10797 1370,10792 1409,10809 1462,10857 " style="fill: white; stroke: black; stroke-width: 30" />
<polyline points="2182,10785 2167,10775 2163,10773 2109,10832 2019,10950 1948,11052 1915,11116 1908,11144 1906,11142 1916,11100 1958,11012 2031,10890 2137,10786 2212,10771 2239,10790 2244,10833 2189,10888 2112,10938 2026,10976 1962,11025 1945,11076 1971,11122 2027,11155 2103,11162 2177,11142 " style="fill: white; stroke: black; stroke-width: 30" />
<polyline points="2271,11042 2254,11027 2247,11021 2230,11026 2202,11044 2180,11078 2186,11107 2205,11145 2230,11172 2236,11179 2245,11168 2270,11125 2265,11081 2256,11058 2250,11051 2252,11058 2261,11084 2293,11119 " style="fill: white; stroke: black; stroke-width: 30" />
<polyline points="2622,10957 2669,10882 2688,10830 2696,10812 2675,10814 2591,10882 2500,10993 2460,11084 2443,11140 2465,11149 2529,11113 2633,11033 2751,10926 2821,10862 2814,10852 2783,10880 2670,10978 2591,11085 2539,11176 2571,11217 2648,11204 2755,11144 2801,11082 2800,11048 2773,11042 2765,11055 2750,11086 2708,11149 2688,11211 2695,11250 2727,11256 2780,11228 2848,11178 2913,11124 2915,11104 2919,11100 2927,11104 2924,11128 2926,11156 2937,11187 2933,11210 2931,11228 " style="fill: white; stroke: black; stroke-width: 30" />
<polyline points="3222,11140 3250,11140 3300,11140 3359,11131 3455,11118 3532,11124 " style="fill: white; stroke: black; stroke-width: 30" />
<polyline points="-719,11316 -724,11301 -731,11304 -748,11335 -771,11426 -792,11536 -769,11625 -757,11672 " style="fill: white; stroke: black; stroke-width: 30" />
<polyline points="-905,11469 -916,11447 -911,11440 -896,11436 -842,11437 -768,11443 -677,11450 -596,11464 " style="fill: white; stroke: black; stroke-width: 30" />
<polyline points="-463,11406 -451,11364 -418,11341 -381,11346 -365,11371 -362,11430 -393,11499 -460,11553 -531,11576 -575,11568 -584,11538 -562,11494 -550,11473 -516,11472 -475,11484 -443,11509 -405,11533 -357,11548 -290,11537 -204,11502 -158,11458 -160,11447 -188,11447 -223,11468 -230,11506 -226,11538 -200,11548 -170,11543 -163,11542 -163,11547 -170,11573 -160,11608 -118,11619 " style="fill: white; stroke: black; stroke-width: 30" />
<polyline points="173,11470 162,11459 144,11456 108,11474 80,11516 78,11579 63,11638 55,11676 41,11678 19,11671 10,11648 10,11615 48,11588 106,11576 196,11567 305,11557 422,11530 483,11492 476,11467 421,11452 361,11462 320,11489 298,11546 317,11596 372,11621 459,11595 550,11530 576,11481 571,11463 565,11466 559,11487 558,11547 575,11593 577,11620 577,11633 578,11640 " style="fill: white; stroke: black; stroke-width: 30" />
<polyline points="3613,10407 3607,10396 3637,10370 3693,10331 3803,10253 3886,10200 3924,10165 3939,10154 3934,10153 3926,10157 3907,10162 " style="fill: white; stroke: black; stroke-width: 30" />
<polyline points="3700,10167 3677,10149 3671,10143 3686,10140 3717,10157 3774,10199 3838,10246 3884,10290 3903,10310 3903,10316 3894,10323 3904,10325 3906,10328 " style="fill: white; stroke: black; stroke-width: 30" />
<polyline points="3611,10288 3617,10277 3648,10262 3699,10250 3795,10243 3882,10247 3942,10243 3966,10242 3975,10236 3971,10237 3973,10236 3974,10238 3981,10239 3986,10246 4009,10256 " style="fill: white; stroke: black; stroke-width: 30" />
<polyline points="4132,10223 4126,10212 4125,10198 4116,10193 4115,10185 4115,10185 4096,10196 4075,10242 4053,10290 4052,10326 4056,10348 4065,10358 4081,10350 4113,10307 4138,10242 4132,10191 4114,10164 4101,10155 4097,10157 4096,10193 4129,10238 4170,10275 4220,10285 4255,10280 4280,10264 4279,10257 4277,10251 4274,10248 4259,10255 4230,10286 4218,10322 4214,10350 4219,10369 4229,10386 4271,10393 4317,10379 4342,10362 4349,10359 4343,10363 4353,10369 4339,10395 4329,10426 4334,10440 4353,10455 4382,10460 4392,10458 4390,10441 4379,10420 4346,10407 4341,10400 4341,10400 4343,10405 4350,10416 4368,10423 4369,10427 4381,10426 " style="fill: white; stroke: black; stroke-width: 30" />
<polyline points="4459,10301 4447,10287 4444,10278 4438,10277 4443,10276 4467,10284 4503,10300 4557,10307 4591,10311 4608,10308 4607,10300 4604,10295 4592,10306 4564,10352 4508,10436 4467,10506 4445,10549 4434,10566 4448,10545 4446,10503 4473,10448 4476,10430 4473,10431 4491,10437 4519,10455 " style="fill: white; stroke: black; stroke-width: 30" />
<polyline points="4583,10426 4594,10418 4618,10425 4670,10433 4695,10454 4723,10470 4728,10494 4730,10504 4687,10525 4619,10552 4558,10576 4540,10595 4553,10601 4562,10611 4600,10617 4659,10602 4683,10586 4681,10570 4640,10564 4617,10553 4601,10553 4608,10556 4624,10575 4646,10597 4663,10613 4685,10622 4724,10615 4755,10608 4792,10585 4810,10560 4806,10546 4795,10539 4793,10535 4777,10541 4746,10565 4716,10602 4690,10644 4702,10678 4727,10706 4766,10723 4816,10718 " style="fill: white; stroke: black; stroke-width: 30" />
<polyline points="4938,10564 4951,10546 4974,10521 4990,10503 4983,10499 4985,10499 4967,10506 4942,10533 4908,10584 4880,10640 4861,10688 4838,10737 " style="fill: white; stroke: black; stroke-width: 30" />
<polyline points="4868,10822 4895,10828 4911,10830 4952,10830 4981,10829 5004,10831 5021,10816 5044,10788 " style="fill: white; stroke: black; stroke-width: 30" />
<polyline points="4988,10713 4979,10706 4976,10699 4967,10709 4945,10738 4936,10788 4910,10856 4908,10908 4913,10936 " style="fill: white; stroke: black; stroke-width: 30" />
<polyline points="4947,10820 4959,10852 4952,10878 4947,10892 4959,10889 " style="fill: white; stroke: black; stroke-width: 30" />
<polyline points="3811,9829 3813,9817 3815,9804 3837,9779 3833,9750 3839,9688 3841,9612 3849,9537 3863,9481 3866,9454 3869,9445 3866,9454 3863,9463 3836,9497 " style="fill: white; stroke: black; stroke-width: 30" />
<polyline points="3709,9583 3688,9575 3679,9557 3680,9529 3711,9484 3758,9441 3820,9401 3860,9369 3873,9354 3879,9353 3874,9357 3861,9365 3863,9370 3865,9398 3896,9439 3912,9491 3943,9545 " style="fill: white; stroke: black; stroke-width: 30" />
<polyline points="3638,8596 3609,8576 3549,8554 3467,8547 3412,8565 3405,8596 3430,8681 3489,8764 3528,8812 3528,8838 3500,8857 3469,8868 3451,8863 3447,8858 3447,8843 3443,8827 3440,8814 3447,8816 3467,8820 " style="fill: white; stroke: black; stroke-width: 30" />
<polyline points="3689,8771 3706,8747 3705,8734 3698,8727 3688,8728 3678,8735 3663,8753 3633,8804 3625,8836 3642,8858 3674,8869 3732,8861 3790,8831 3799,8823 3796,8825 3790,8836 3765,8888 3710,8975 3673,9047 3671,9080 " style="fill: white; stroke: black; stroke-width: 30" />
<polyline points="4055,8804 4021,8791 3968,8784 3923,8790 3916,8804 3949,8859 3981,8932 3996,8959 3966,8969 3919,8959 3855,8929 3818,8898 " style="fill: white; stroke: black; stroke-width: 30" />
<polyline points="3535,8965 3525,8960 3507,8983 3464,9070 3453,9146 3453,9180 3469,9185 3518,9156 3584,9074 3624,8983 3624,8960 3626,8965 3608,8990 3598,9045 3601,9086 3638,9119 3696,9132 3782,9120 3824,9106 3829,9106 3819,9114 3804,9131 3790,9161 3804,9180 3834,9196 " style="fill: white; stroke: black; stroke-width: 30" />
<polyline points="3984,9189 3994,9191 4009,9179 4005,9168 3999,9139 3971,9115 3918,9121 3885,9152 3893,9187 3924,9242 3966,9277 4020,9279 4067,9256 4107,9224 4124,9204 4113,9206 4122,9200 4113,9211 4109,9223 4111,9231 4109,9232 4113,9231 4124,9226 4132,9233 4136,9252 4156,9273 4185,9292 4201,9302 4210,9295 4211,9289 " style="fill: white; stroke: black; stroke-width: 30" />
<polyline points="4413,9127 4386,9123 4352,9120 4345,9119 4351,9113 4347,9114 4352,9110 4348,9112 4334,9121 4327,9156 4299,9227 4290,9278 4279,9322 4283,9334 4284,9331 4291,9323 4324,9302 4372,9294 4427,9305 4438,9334 4392,9365 4327,9375 4257,9360 4232,9350 4235,9352 4283,9366 4367,9397 4452,9422 4512,9422 4538,9411 4528,9399 4510,9391 4476,9390 4471,9391 4473,9395 4507,9401 4550,9406 4600,9399 4640,9375 4680,9343 4684,9335 4680,9338 4685,9342 4696,9355 " style="fill: white; stroke: black; stroke-width: 30" />
<polyline points="4241,10887 4221,10854 4201,10817 4196,10802 4196,10802 4177,10824 4140,10946 4048,11172 3969,11372 3914,11518 3878,11599 3877,11659 3896,11678 " style="fill: white; stroke: black; stroke-width: 30" />
<polyline points="3842,11521 3832,11516 3835,11525 3807,11608 3776,11694 3754,11761 3754,11786 3774,11792 3840,11757 3923,11696 3982,11659 3994,11654 3988,11660 " style="fill: white; stroke: black; stroke-width: 30" />
<polyline points="3298,12070 3289,12055 3263,12033 3229,12008 3185,11995 3133,11997 3136,11997 3124,12009 3148,12017 3184,12029 3221,12029 3219,12031 3221,12029 3212,12032 3210,12033 3214,12041 3207,12079 3198,12171 3166,12264 3122,12341 3078,12398 3052,12429 3023,12435 2999,12412 2981,12335 3020,12266 3085,12233 3185,12220 3284,12210 3343,12208 3375,12186 3360,12159 3329,12139 3290,12137 3279,12140 3276,12148 3287,12161 3311,12195 3334,12222 3349,12232 3348,12239 3362,12241 3379,12249 3407,12256 3429,12254 3458,12245 3464,12240 3455,12245 3451,12247 3442,12251 3428,12257 3432,12262 3435,12264 3430,12275 3424,12283 3428,12287 3423,12287 3433,12284 3436,12279 3431,12279 3429,12279 3424,12283 3423,12286 3428,12296 3399,12332 3383,12347 3350,12350 3319,12340 3313,12318 3311,12311 3322,12312 3384,12322 " style="fill: white; stroke: black; stroke-width: 30" />
<polyline points="3699,12137 3689,12105 3675,12102 3672,12108 3619,12173 3560,12278 3522,12355 3500,12407 3502,12413 3509,12399 3530,12353 3546,12328 3554,12320 3573,12321 3622,12329 3671,12343 " style="fill: white; stroke: black; stroke-width: 30" />
<polyline points="3719,12352 3736,12321 3734,12299 3728,12294 3745,12290 3735,12302 3735,12318 3732,12345 3706,12381 3675,12410 3627,12418 3610,12405 3613,12398 3632,12392 3669,12390 3703,12397 3718,12414 3745,12433 " style="fill: white; stroke: black; stroke-width: 30" />
<polyline points="3821,12237 3812,12192 3796,12183 3805,12185 3813,12211 3812,12301 3816,12387 3796,12452 3783,12471 3786,12464 3821,12437 3851,12420 3870,12412 3871,12418 3869,12435 3896,12462 " style="fill: white; stroke: black; stroke-width: 30" />
<polyline points="4038,12451 4031,12412 3986,12399 3934,12412 3913,12430 3916,12459 3936,12479 4015,12455 4073,12390 4112,12321 4092,12299 4085,12303 4069,12329 4064,12388 4053,12454 4076,12508 4116,12532 4158,12534 4174,12526 4179,12521 4166,12526 4166,12534 4191,12542 4203,12553 4217,12555 4223,12563 4234,12572 4279,12575 4351,12557 4374,12558 4350,12561 4335,12568 4311,12585 4315,12599 4314,12613 4317,12629 4342,12619 4379,12582 4382,12541 4377,12512 4363,12495 4367,12488 4361,12490 4352,12501 4371,12509 4381,12547 4394,12577 " style="fill: white; stroke: black; stroke-width: 30" />
<polyline points="4507,12625 4473,12601 4438,12596 4446,12596 4410,12632 4399,12681 4376,12730 4357,12757 4337,12763 4347,12751 4346,12740 4338,12735 4340,12724 4346,12714 " style="fill: white; stroke: black; stroke-width: 30" />
<polyline points="-4442,11452 -4456,11454 -4453,11446 -4444,11423 -4428,11368 -4371,11272 -4296,11170 -4243,11126 -4223,11122 -4220,11134 -4229,11163 -4197,11236 -4171,11313 -4129,11397 -4075,11455 " style="fill: white; stroke: black; stroke-width: 30" />
<polyline points="-4372,11248 -4415,11239 -4429,11233 -4424,11233 -4413,11225 -4336,11228 -4225,11236 -4141,11258 " style="fill: white; stroke: black; stroke-width: 30" />
<polyline points="-3947,11246 -3964,11223 -3966,11200 -3953,11200 -3945,11214 -3916,11295 -3894,11380 -3921,11451 -3965,11486 -4000,11490 -4026,11460 -4032,11412 -4013,11371 -3994,11355 -3941,11370 -3884,11417 -3814,11473 -3771,11504 -3759,11504 -3751,11481 -3718,11433 -3733,11363 -3725,11337 -3702,11335 -3700,11336 -3659,11355 " style="fill: white; stroke: black; stroke-width: 30" />
<polyline points="-3546,11308 -3561,11296 -3558,11293 -3543,11301 -3530,11320 -3498,11368 -3514,11429 -3535,11483 -3571,11529 -3617,11531 -3636,11519 -3647,11485 -3642,11453 -3633,11447 -3600,11451 -3527,11480 -3444,11492 -3380,11482 -3336,11454 -3334,11408 -3324,11380 -3354,11368 -3384,11363 -3383,11382 -3410,11417 -3408,11467 -3398,11495 -3374,11511 -3339,11518 -3294,11515 -3277,11506 -3264,11510 -3269,11510 -3257,11522 " style="fill: white; stroke: black; stroke-width: 30" />
<polyline points="-4282,11767 -4284,11763 -4294,11755 -4343,11730 -4397,11716 -4485,11721 -4572,11756 -4559,11787 -4512,11843 -4415,11895 -4290,11932 " style="fill: white; stroke: black; stroke-width: 30" />
<polyline points="-4104,11832 -4164,11814 -4224,11827 -4279,11856 -4276,11891 -4242,11917 -4181,11925 -4101,11923 -4089,11904 -4088,11901 -4112,11893 -4133,11893 -4128,11896 -4110,11905 -4066,11923 " style="fill: white; stroke: black; stroke-width: 30" />
<polyline points="-3923,11949 -3926,11920 -3935,11899 -3957,11879 -4011,11867 -4056,11875 -4053,11900 -4051,11933 -3964,11980 -3914,11995 -3864,11993 -3858,11977 -3863,11960 -3899,11926 -3906,11924 -3916,11928 -3936,11935 -3925,11964 -3891,11990 -3843,11993 " style="fill: white; stroke: black; stroke-width: 30" />
<polyline points="-3681,11787 -3676,11780 " style="fill: white; stroke: black; stroke-width: 30" />
<polyline points="-3620,11712 -3631,11725 -3704,11797 -3755,11919 -3771,12021 -3756,12074 " style="fill: white; stroke: black; stroke-width: 30" />
<polyline points="-3619,11956 -3623,11942 -3633,11941 -3667,11951 -3708,11968 -3755,11987 -3750,12004 -3733,12024 -3671,12044 -3576,12034 -3477,12003 -3430,11962 -3428,11943 -3444,11948 -3476,11973 -3514,12025 -3517,12062 -3479,12055 " style="fill: white; stroke: black; stroke-width: 30" />
<polyline points="-3342,11745 -3387,11729 -3401,11733 -3404,11764 -3382,11843 -3333,11903 -3266,11921 -3229,11916 -3226,11903 -3260,11892 -3296,11884 -3309,11887 -3313,11892 -3307,11918 -3324,11970 -3331,12023 -3320,12049 -3311,12062 -3271,12080 " style="fill: white; stroke: black; stroke-width: 30" />
<polyline points="-4287,12288 -4285,12275 -4319,12245 -4321,12243 -4379,12245 -4432,12285 -4492,12335 -4491,12382 -4455,12430 -4366,12478 -4232,12499 " style="fill: white; stroke: black; stroke-width: 30" />
<polyline points="-4029,12389 -3981,12397 -3962,12389 -3977,12384 -3994,12379 -4061,12378 -4124,12404 -4137,12437 -4099,12471 -4036,12486 -3970,12483 -3964,12462 -3985,12452 -4011,12449 -4028,12451 -3998,12461 -3922,12469 -3807,12452 -3726,12402 -3669,12354 -3679,12306 -3712,12294 -3745,12298 -3765,12329 -3816,12394 -3843,12465 -3815,12513 -3765,12542 -3666,12541 -3546,12494 -3454,12418 -3410,12349 -3404,12329 -3434,12334 -3515,12355 -3576,12414 -3628,12456 -3594,12523 -3514,12567 -3420,12579 -3337,12553 -3293,12517 -3310,12492 -3353,12498 -3386,12512 -3388,12529 -3368,12554 -3345,12564 -3264,12566 -3226,12559 -3225,12564 " style="fill: white; stroke: black; stroke-width: 30" />
<polyline points="-3031,12532 -3070,12521 -3111,12523 -3172,12540 -3192,12566 -3162,12602 -3109,12621 -3011,12600 -2911,12531 -2811,12459 -2794,12408 -2845,12389 -2881,12403 -2931,12454 -2998,12532 -3045,12614 -3051,12659 -3032,12667 -3019,12644 -3004,12625 -2988,12610 -2918,12597 -2804,12588 -2704,12582 -2658,12583 -2668,12605 -2732,12633 -2775,12668 -2798,12678 -2771,12673 " style="fill: white; stroke: black; stroke-width: 30" />
<polyline points="-2578,12437 -2599,12420 -2638,12413 -2648,12414 -2604,12443 " style="fill: white; stroke: black; stroke-width: 30" />
<polyline points="-2527,12555 -2620,12569 -2658,12594 -2657,12615 -2633,12646 -2577,12669 -2493,12663 -2424,12648 -2407,12634 -2419,12622 -2446,12615 -2434,12620 -2409,12633 -2344,12646 -2305,12654 -2304,12664 -2312,12666 -2317,12663 -2325,12653 -2314,12649 -2304,12644 -2271,12644 -2218,12639 -2159,12632 -2128,12620 -2097,12613 -2083,12601 " style="fill: white; stroke: black; stroke-width: 30" />
<polyline points="-4454,9029 -4460,9033 -4457,9030 -4454,9030 -4458,9028 -4471,9025 -4467,9026 -4469,9025 -4474,9022 -4477,9024 -4472,9023 -4484,9019 -4474,9023 -4473,9024 -4468,9025 -4477,9019 -4476,9018 -4485,9006 -4469,8969 -4468,8914 -4448,8874 -4410,8861 -4366,8866 -4338,8884 -4306,8913 -4288,8943 -4282,8979 -4290,9016 -4315,9054 -4352,9098 -4379,9128 -4395,9131 -4416,9115 -4423,9081 -4417,9040 -4407,9029 -4395,9027 -4361,9040 -4331,9063 -4295,9095 -4258,9115 -4211,9128 -4175,9098 " style="fill: white; stroke: black; stroke-width: 30" />
<polyline points="-4042,8820 -4026,8780 -4034,8774 -4050,8775 -4066,8787 -4094,8834 -4139,8948 -4165,9046 -4158,9085 -4137,9101 -4133,9091 -4110,9070 -4079,9040 -4048,9026 -4011,9026 -3980,9053 -3964,9087 -3965,9121 -3999,9133 -4047,9136 -4096,9108 -4129,9081 -4138,9067 -4103,9059 -4021,9020 -3900,8993 -3796,8943 -3720,8912 -3721,8909 -3747,8921 -3790,8944 -3818,8970 -3819,8986 -3793,9035 -3757,9083 -3740,9118 -3762,9139 -3794,9155 -3848,9151 -3859,9148 -3862,9139 -3857,9121 -3829,9069 " style="fill: white; stroke: black; stroke-width: 30" />
<polyline points="-3345,8869 -3381,8867 -3424,8879 -3480,8922 -3519,8998 -3517,9075 -3479,9152 -3409,9220 " style="fill: white; stroke: black; stroke-width: 30" />
<polyline points="-3337,9184 -3338,9175 -3313,9140 -3255,9085 -3182,9027 -3129,8991 -3113,8955 " style="fill: white; stroke: black; stroke-width: 30" />
<polyline points="-3280,8907 -3302,8934 -3297,8972 -3275,9036 -3237,9102 -3176,9163 -3103,9210 -3056,9227 " style="fill: white; stroke: black; stroke-width: 30" />
<polyline points="-3047,8811 -3070,8793 -3066,8781 -3024,8802 -2972,8858 -2925,8962 -2927,9072 -2964,9160 -3022,9246 -3058,9282 " style="fill: white; stroke: black; stroke-width: 30" />
<polyline points="-4206,9422 -4218,9423 -4270,9437 -4353,9463 -4411,9493 -4420,9513 -4376,9562 -4322,9628 -4284,9672 -4296,9690 -4307,9702 -4345,9708 -4384,9704 -4390,9696 -4405,9675 -4360,9628 -4248,9561 -4154,9484 -4093,9428 -4090,9421 -4101,9431 -4113,9464 -4119,9565 -4119,9648 -4121,9693 -4110,9711 -4108,9706 -4107,9699 -4119,9659 -4131,9627 -4128,9625 -4130,9625 -4119,9625 -4102,9624 -4027,9633 -3966,9629 " style="fill: white; stroke: black; stroke-width: 30" />
<polyline points="-3864,9567 -3876,9552 -3905,9540 -3945,9556 -3994,9591 -4015,9631 -3986,9646 -3937,9649 -3891,9653 -3884,9687 -3879,9768 -3888,9839 -3911,9884 -3930,9891 -3977,9875 -4004,9828 -4019,9742 -3987,9664 -3925,9601 -3851,9550 " style="fill: white; stroke: black; stroke-width: 30" />
<polyline points="-3700,9341 -3706,9357 -3727,9421 -3756,9530 -3774,9636 -3780,9676 -3771,9674 -3731,9651 -3687,9595 -3645,9576 -3612,9595 -3610,9637 -3636,9684 -3658,9702 -3688,9697 -3729,9682 -3768,9660 -3765,9654 " style="fill: white; stroke: black; stroke-width: 30" />
<polyline points="-3315,9688 -3274,9670 -3220,9598 -3128,9513 -3091,9464 -3086,9459 -3100,9466 -3117,9518 -3142,9611 -3167,9695 -3163,9722 -3134,9711 " style="fill: white; stroke: black; stroke-width: 30" />
<polyline points="-2955,9457 -2956,9448 -2953,9428 -2943,9418 -2906,9417 -2877,9432 -2858,9460 -2882,9499 -2943,9553 -3004,9617 -3043,9670 -3051,9703 -3024,9722 -2974,9724 -2925,9701 -2891,9669 -2912,9629 -2972,9586 -3019,9563 -3049,9547 -3063,9531 -3028,9514 " style="fill: white; stroke: black; stroke-width: 30" />
<polyline points="-2778,9534 -2764,9497 -2740,9465 -2706,9458 -2656,9478 -2617,9514 -2619,9563 -2672,9620 -2732,9660 -2757,9661 -2768,9650 -2782,9619 -2785,9578 -2779,9538 " style="fill: white; stroke: black; stroke-width: 30" />
<polyline points="-4551,10014 -4548,10019 -4545,10017 -4498,10016 -4343,10021 -4089,10006 -3727,9967 -3346,9899 -2946,9852 -2650,9812 -2454,9785 -2360,9772 -2325,9766 -2319,9766 -2327,9760 -2331,9760 -2327,9760 -2335,9760 -2327,9760 -2341,9760 -2354,9763 " style="fill: white; stroke: black; stroke-width: 30" />
<polyline points="-2227,9001 -2240,9002 -2245,9009 -2256,9032 -2250,9136 -2225,9280 -2214,9371 -2203,9392 -2173,9362 -2112,9275 -2071,9166 -2063,9095 -2070,9101 -2074,9139 -2076,9225 -2082,9313 -2090,9382 -2072,9430 -2063,9426 -2037,9367 -1997,9239 -1950,9101 -1924,9057 -1929,9072 -1927,9135 -1921,9224 -1924,9312 -1912,9391 -1905,9433 -1868,9427 -1845,9364 -1817,9288 -1824,9227 -1822,9226 -1828,9228 -1830,9232 -1850,9247 -1880,9285 -1904,9324 -1920,9339 -1930,9321 " style="fill: white; stroke: black; stroke-width: 30" />
<polyline points="-2310,9081 -2341,9079 -2341,9072 -2301,9067 -2232,9056 -2112,9056 -1977,9063 -1856,9072 -1776,9081 -1770,9089 -1785,9111 -1848,9143 -1951,9169 -2084,9192 -2186,9211 -2226,9221 -2218,9217 -2158,9205 -2064,9184 -1951,9171 -1891,9166 -1911,9182 -2001,9232 -2144,9285 -2258,9315 -2310,9325 -2309,9320 -2263,9312 -2159,9308 -2033,9313 -1944,9310 -1917,9316 -1971,9338 -2097,9378 -2219,9419 -2282,9442 -2285,9438 -2225,9422 -2044,9405 -1810,9389 -1554,9358 " style="fill: white; stroke: black; stroke-width: 30" />
<polyline points="-3632,7183 -3646,7185 -3671,7209 -3694,7283 -3684,7421 -3661,7574 -3631,7677 -3608,7763 -3589,7802 -3574,7814 " style="fill: white; stroke: black; stroke-width: 30" />
<polyline points="-3624,7877 -3636,7846 -3612,7801 -3559,7758 -3492,7745 -3417,7766 -3360,7828 -3319,7926 -3315,8027 -3344,8142 -3425,8251 -3517,8337 -3601,8388 -3679,8403 -3754,8373 -3821,8304 -3858,8225 -3852,8162 -3824,8101 -3745,8062 " style="fill: white; stroke: black; stroke-width: 30" />
<polyline points="-3822,8022 -3801,7976 -3753,7921 -3716,7896 -3699,7908 -3660,7966 -3652,8024 -3683,8086 -3721,8145 -3724,8164 " style="fill: white; stroke: black; stroke-width: 30" />
<polyline points="-4133,6302 -4140,6298 -4134,6302 -4111,6308 -4069,6314 -4009,6313 -3902,6327 -3771,6326 -3631,6318 -3564,6317 -3554,6317 -3551,6319 -3553,6318 -3559,6317 -3554,6317 -3555,6317 -3557,6313 -3551,6305 -3541,6251 -3544,6211 -3556,6184 -3572,6168 -3577,6161 -3580,6158 -3576,6159 -3571,6160 -3566,6162 -3571,6160 -3565,6162 -3567,6163 -3567,6163 -3567,6163 -3570,6162 -3575,6162 -3596,6160 -3669,6152 -3768,6152 -3882,6154 -4002,6148 -4072,6137 -4110,6126 -4121,6122 -4111,6125 -4111,6125 -4107,6125 -4111,6124 -4112,6122 -4112,6123 -4112,6120 -4108,6121 -4103,6115 -4087,6106 -4062,6073 -4032,5989 -4002,5920 -3984,5888 -3977,5879 -3984,5877 -3980,5880 -3984,5881 -3984,5883 -3989,5882 -3987,5881 -3984,5883 -3950,5895 -3882,5914 -3813,5925 -3753,5940 -3678,5951 -3621,5957 -3589,5961 -3587,5963 -3591,5964 -3590,5969 " style="fill: white; stroke: black; stroke-width: 30" />
<polyline points="-3217,6074 -3228,6067 -3235,6062 -3237,6063 -3240,6066 -3257,6073 -3294,6091 -3357,6114 -3410,6124 -3446,6127 -3460,6127 -3462,6127 -3457,6125 -3442,6127 -3412,6123 " style="fill: white; stroke: black; stroke-width: 30" />
<polyline points="-3352,6036 -3356,6035 -3358,6035 -3373,6041 -3403,6052 -3460,6085 -3471,6099 -3459,6107 -3427,6124 -3390,6143 -3351,6163 -3302,6175 " style="fill: white; stroke: black; stroke-width: 30" />
<polyline points="-4613,10211 -4619,10212 -4606,10216 -4546,10218 -4423,10211 -4248,10192 -4031,10152 -3756,10111 -3409,10050 -3008,9966 -2591,9867 -2198,9806 -1906,9776 -1757,9777 -1706,9785 -1685,9788 -1684,9783 -1683,9785 -1688,9782 -1688,9782 " style="fill: white; stroke: black; stroke-width: 30" />
<polyline points="-2176,9031 -2194,9083 -2209,9202 -2208,9328 -2189,9407 -2169,9443 -2136,9427 " style="fill: white; stroke: black; stroke-width: 30" />
<polyline points="-2022,9129 -2023,9115 -2043,9130 -2057,9189 -2078,9277 -2089,9344 -2073,9368 -2040,9364 -1982,9312 -1925,9217 -1898,9148 -1902,9145 -1912,9188 -1938,9317 -1940,9440 -1915,9510 -1888,9519 -1854,9474 -1805,9385 -1792,9324 -1792,9332 -1800,9375 -1808,9417 -1818,9424 " style="fill: white; stroke: black; stroke-width: 30" />
<polyline points="-2149,9073 -2169,9063 -2149,9051 -2109,9028 -2002,9010 -1871,9011 -1758,9017 -1694,9029 -1679,9045 " style="fill: white; stroke: black; stroke-width: 30" />
<polyline points="-2145,9304 -2216,9316 -2219,9309 -2158,9286 -2033,9234 -1879,9209 -1798,9207 -1806,9241 -1920,9329 -2076,9413 -2140,9443 -2116,9441 -2038,9434 -1928,9416 -1836,9408 -1824,9435 -1921,9487 -1996,9526 -1969,9525 -1863,9531 -1685,9520 " style="fill: white; stroke: black; stroke-width: 30" />

</svg>