<?xml version="1.0" standalone="no"?>
<!DOCTYPE svg PUBLIC "-//W3C//DTD SVG 1.1//EN" "http://www.w3.org/Graphics/SVG/1.1/DTD/svg11.dtd">
<svg width="210mm" height="297mm" viewBox="-7000 500 14000 20000" version="1.1" xmlns="http://www.w3.org/2000/svg">

<polyline points="-772,4114 " style="fill: white; stroke: black; stroke-width: 30" />
<polyline points="2086,4694 " style="fill: white; stroke: black; stroke-width: 30" />
<polyline points="-2546,2320 -2548,2316 -2547,2313 -2547,2314 -2549,2312 -2546,2311 -2535,2313 -2516,2307 -2474,2293 " style="fill: white; stroke: black; stroke-width: 30" />
<polyline points="-2351,2101 -2343,2095 -2342,2093 -2339,2097 -2335,2098 -2332,2100 -2322,2110 -2300,2131 -2267,2163 -2236,2191 -2202,2225 -2185,2257 " style="fill: white; stroke: black; stroke-width: 30" />
<polyline points="-1847,2101 -1852,2099 -1853,2098 -1851,2097 -1847,2098 -1834,2096 -1809,2093 " style="fill: white; stroke: black; stroke-width: 30" />
<polyline points="-1833,2145 -1832,2145 -1835,2143 -1836,2143 -1837,2145 -1837,2151 -1823,2174 -1809,2200 -1789,2235 -1768,2266 -1750,2296 -1735,2314 -1729,2317 -1729,2318 -1730,2318 -1729,2318 -1728,2317 -1726,2317 -1725,2315 -1726,2313 -1726,2313 -1727,2312 -1728,2306 -1720,2293 -1692,2252 -1662,2207 -1636,2174 -1617,2146 -1613,2135 -1613,2134 -1614,2134 -1616,2136 -1615,2140 -1614,2140 -1613,2139 -1615,2138 -1616,2137 " style="fill: white; stroke: black; stroke-width: 30" />
<polyline points="-1590,2100 -1561,2102 -1541,2104 -1538,2106 -1540,2106 -1538,2106 -1537,2108 -1535,2110 -1536,2108 " style="fill: white; stroke: black; stroke-width: 30" />
<polyline points="-1710,2163 -1697,2160 -1690,2159 -1687,2162 -1687,2162 -1686,2158 -1686,2159 -1686,2160 -1686,2158 -1686,2159 -1687,2158 -1685,2156 " style="fill: white; stroke: black; stroke-width: 30" />
<polyline points="-1409,2101 -1420,2099 -1423,2097 -1424,2096 -1423,2094 -1411,2091 -1392,2089 -1366,2092 -1342,2095 -1308,2098 " style="fill: white; stroke: black; stroke-width: 30" />
<polyline points="-1335,2125 -1341,2125 -1340,2125 -1341,2125 -1342,2135 -1336,2154 -1320,2196 -1302,2234 -1278,2271 -1256,2303 -1246,2318 -1247,2319 -1250,2318 -1253,2318 -1255,2318 -1254,2316 -1255,2315 -1256,2313 -1255,2312 -1255,2310 -1251,2302 -1227,2271 -1182,2215 -1136,2166 -1108,2134 -1102,2126 -1103,2126 -1104,2125 -1104,2126 -1105,2127 -1107,2124 -1108,2125 -1110,2124 -1111,2122 -1111,2124 -1110,2126 -1109,2126 " style="fill: white; stroke: black; stroke-width: 30" />
<polyline points="-1167,2112 -1163,2112 -1150,2114 -1118,2119 -1082,2122 -1054,2124 -1030,2126 -1022,2126 -1023,2125 -1023,2122 " style="fill: white; stroke: black; stroke-width: 30" />
<polyline points="-735,2151 -745,2155 -744,2152 -738,2146 -735,2146 -721,2147 -682,2151 " style="fill: white; stroke: black; stroke-width: 30" />
<polyline points="-708,2251 -716,2248 -712,2246 -708,2243 -702,2245 -684,2248 -654,2254 " style="fill: white; stroke: black; stroke-width: 30" />
<polyline points="-401,2057 -405,2056 -408,2053 -408,2059 -406,2087 -403,2125 -398,2170 " style="fill: white; stroke: black; stroke-width: 30" />
<polyline points="293,2285 365,2290 " style="fill: white; stroke: black; stroke-width: 30" />
<polyline points="517,2167 563,2176 594,2192 611,2213 611,2221 604,2227 583,2237 550,2245 522,2251 506,2260 499,2264 502,2264 505,2263 520,2268 " style="fill: white; stroke: black; stroke-width: 30" />
<polyline points="1116,2125 1111,2159 1115,2213 1140,2257 1186,2279 1254,2277 1325,2241 1360,2197 1360,2174 1337,2135 1300,2106 1282,2101 1285,2102 1293,2104 " style="fill: white; stroke: black; stroke-width: 30" />
<polyline points="1846,2400 1844,2453 " style="fill: white; stroke: black; stroke-width: 30" />
<polyline points="-2529,2787 -2538,2798 -2541,2853 -2532,2941 -2507,3016 -2487,3052 -2479,3054 " style="fill: white; stroke: black; stroke-width: 30" />
<polyline points="-2301,2866 -2304,2879 -2303,2882 -2300,2881 -2299,2881 -2298,2892 -2293,2929 -2281,2973 -2271,3009 -2263,3020 " style="fill: white; stroke: black; stroke-width: 30" />
<polyline points="-2335,2726 " style="fill: white; stroke: black; stroke-width: 30" />
<polyline points="-2205,2912 -2205,2923 -2200,2963 -2182,2997 -2169,3001 -2156,2979 -2144,2930 -2133,2893 -2128,2888 -2106,2908 -2091,2939 " style="fill: white; stroke: black; stroke-width: 30" />
<polyline points="-1863,2931 -1855,2928 -1856,2927 -1859,2925 -1861,2916 -1865,2913 -1865,2910 -1866,2910 -1867,2912 -1867,2912 -1867,2914 -1865,2914 -1868,2910 -1875,2899 -1899,2890 -1940,2902 -1976,2925 -1996,2958 -1997,2978 -1979,2989 -1944,2983 -1912,2967 -1901,2952 -1900,2945 -1902,2941 -1903,2942 -1903,2941 -1903,2943 -1905,2946 -1902,2950 -1897,2960 -1874,3016 -1846,3098 -1829,3174 -1831,3235 -1844,3257 -1864,3256 " style="fill: white; stroke: black; stroke-width: 30" />
<polyline points="-1537,2934 -1561,2908 -1575,2855 -1552,2793 -1494,2739 -1410,2729 -1346,2792 -1331,2886 -1359,2981 -1406,3043 -1461,3059 -1521,3037 " style="fill: white; stroke: black; stroke-width: 30" />
<polyline points="-2520,3528 -2142,3532 -1703,3536 -1282,3543 -950,3551 -775,3556 -759,3558 -767,3556 -786,3548 -806,3538 -813,3536 -811,3541 " style="fill: white; stroke: black; stroke-width: 30" />
<polyline points="-3040,2833 -3043,2835 -3057,2882 -3068,2979 -3066,3105 -3047,3252 -3035,3372 " style="fill: white; stroke: black; stroke-width: 30" />
<polyline points="-3153,2811 -3152,2809 -3146,2809 -3124,2815 -3077,2823 -2980,2829 -2827,2825 -2578,2821 -2225,2813 -1805,2799 -1346,2802 -952,2822 -674,2853 " style="fill: white; stroke: black; stroke-width: 30" />
<polyline points="-800,2835 -799,2834 -801,2855 -811,2937 -821,3106 -838,3333 -832,3556 " style="fill: white; stroke: black; stroke-width: 30" />
<polyline points="-2925,3317 -2932,3344 -2926,3428 -2902,3591 " style="fill: white; stroke: black; stroke-width: 30" />
<polyline points="-2797,4128 -2749,4124 -2655,4126 -2487,4122 -2220,4103 -1860,4072 -1442,4037 -1019,4003 " style="fill: white; stroke: black; stroke-width: 30" />
<polyline points="-618,3436 -629,3444 -633,3478 -644,3618 " style="fill: white; stroke: black; stroke-width: 30" />
<polyline points="-2568,3491 -2575,3492 -2576,3498 -2589,3568 -2600,3707 -2580,3792 -2538,3818 -2489,3809 -2423,3739 -2382,3651 -2378,3618 -2381,3618 -2381,3626 -2386,3663 -2382,3727 -2365,3771 -2332,3799 " style="fill: white; stroke: black; stroke-width: 30" />
<polyline points="-2166,3579 -2220,3581 -2223,3579 -2220,3578 -2204,3592 -2184,3620 -2176,3662 -2167,3710 -2162,3739 -2161,3750 -2165,3755 -2184,3756 -2214,3748 -2243,3737 -2252,3732 -2249,3731 -2224,3708 " style="fill: white; stroke: black; stroke-width: 30" />
<polyline points="-2076,3709 -2075,3705 -2054,3686 -2024,3649 -2022,3639 -2036,3639 -2069,3656 -2094,3700 -2077,3731 -2036,3751 -1990,3751 -1964,3731 -1959,3701 -1965,3678 -1965,3673 -1964,3670 " style="fill: white; stroke: black; stroke-width: 30" />
<polyline points="53,2880 53,2875 57,2863 61,2856 60,2858 60,2860 57,2883 57,2943 63,3000 81,3036 " style="fill: white; stroke: black; stroke-width: 30" />
<polyline points="245,3005 269,3014 299,3028 " style="fill: white; stroke: black; stroke-width: 30" />
<polyline points="465,2773 454,2775 446,2814 428,2900 405,2988 399,3030 398,3031 400,3017 416,2973 439,2949 477,2948 529,2950 582,2943 610,2933 603,2930 579,2933 552,2964 551,3007 583,3037 640,3031 715,2973 768,2901 775,2846 760,2824 740,2821 718,2832 688,2873 682,2947 " style="fill: white; stroke: black; stroke-width: 30" />
<polyline points="1131,3033 1136,2988 1153,2945 1180,2919 1205,2928 1233,2984 1238,3052 1223,3102 1184,3128 1141,3121 1121,3096 1123,3080 1137,3074 1184,3084 1250,3104 1307,3114 1348,3111 1370,3087 1375,3053 1369,3027 1362,3019 1365,3015 1382,3013 1409,3012 1450,3033 " style="fill: white; stroke: black; stroke-width: 30" />
<polyline points="1605,2932 1577,2925 1541,2943 1509,2992 1505,3047 1536,3082 1587,3091 1656,3060 1722,2988 1765,2899 1780,2840 1766,2826 1751,2834 1710,2894 1689,2966 1702,3014 1738,3030 1782,3029 1811,3033 " style="fill: white; stroke: black; stroke-width: 30" />
<polyline points="2674,2896 2667,2881 2648,2860 2613,2848 2557,2848 2486,2860 2436,2879 2406,2917 2403,2975 2446,3051 2534,3112 2624,3131 2711,3114 " style="fill: white; stroke: black; stroke-width: 30" />
<polyline points="2883,3103 2911,3016 2935,2918 2967,2869 2981,2876 2998,2906 3018,2944 3019,2991 2989,3025 2919,3045 2845,3039 2821,3028 " style="fill: white; stroke: black; stroke-width: 30" />
<polyline points="3206,2884 3202,2882 3197,2883 3190,2891 3159,2924 3131,2974 3136,3026 3153,3057 3182,3070 3225,3056 3297,2999 3351,2943 3384,2905 3387,2896 3386,2896 3383,2899 3365,2925 3322,2990 " style="fill: white; stroke: black; stroke-width: 30" />
<polyline points="3891,2905 3900,2898 3885,2897 3842,2896 3760,2904 3710,2920 3698,2963 3715,3043 3732,3126 3725,3159 3703,3166 3670,3150 3640,3113 " style="fill: white; stroke: black; stroke-width: 30" />
<polyline points="3942,3019 3933,3028 3903,3070 3875,3112 3859,3144 3855,3154 3854,3157 3859,3150 3862,3139 3862,3139 3858,3140 3857,3141 3857,3143 3851,3152 3845,3158 3838,3170 3830,3179 3829,3178 3849,3148 3885,3081 3928,3026 3961,3009 3994,3016 4030,3035 4037,3065 4024,3082 3969,3095 3905,3073 3885,3061 3890,3051 3907,3051 3949,3055 4018,3072 4107,3088 4195,3093 4252,3081 4264,3060 4252,3038 4216,3029 4194,3038 4195,3057 4207,3098 " style="fill: white; stroke: black; stroke-width: 30" />
<polyline points="4461,3054 4462,3033 4455,3024 4440,3023 4389,3060 4355,3104 4362,3144 4400,3176 4484,3171 4568,3144 " style="fill: white; stroke: black; stroke-width: 30" />
<polyline points="179,3191 175,3205 168,3231 162,3257 " style="fill: white; stroke: black; stroke-width: 30" />
<polyline points="260,3203 256,3222 264,3278 285,3324 " style="fill: white; stroke: black; stroke-width: 30" />
<polyline points="356,3205 341,3216 335,3236 332,3265 338,3287 346,3298 363,3299 " style="fill: white; stroke: black; stroke-width: 30" />
<polyline points="432,3224 420,3234 408,3259 414,3276 435,3298 " style="fill: white; stroke: black; stroke-width: 30" />
<polyline points="542,3264 520,3295 512,3320 523,3329 " style="fill: white; stroke: black; stroke-width: 30" />
<polyline points="617,3219 602,3241 592,3275 600,3312 " style="fill: white; stroke: black; stroke-width: 30" />
<polyline points="699,3260 683,3279 682,3291 686,3298 " style="fill: white; stroke: black; stroke-width: 30" />
<polyline points="853,3287 823,3331 805,3368 815,3376 " style="fill: white; stroke: black; stroke-width: 30" />
<polyline points="1170,3286 1147,3306 1129,3332 1126,3356 1081,3172 " style="fill: white; stroke: black; stroke-width: 30" />
<polyline points="1343,3413 1354,3400 1402,3367 1457,3350 1483,3354 1479,3366 1463,3394 1452,3417 1459,3416 " style="fill: white; stroke: black; stroke-width: 30" />
<polyline points="1621,3359 1627,3378 1617,3407 1611,3429 " style="fill: white; stroke: black; stroke-width: 30" />
<polyline points="-1538,3461 -1552,3481 -1577,3553 -1610,3653 -1620,3713 -1609,3736 -1575,3741 " style="fill: white; stroke: black; stroke-width: 30" />
<polyline points="-1397,3610 -1384,3606 -1359,3627 -1349,3677 -1372,3728 -1406,3756 -1439,3756 -1454,3738 -1450,3708 -1428,3692 -1388,3701 -1352,3734 -1317,3768 -1305,3785 -1297,3783 -1283,3758 -1255,3721 -1231,3702 -1223,3703 -1220,3711 -1213,3725 -1196,3738 " style="fill: white; stroke: black; stroke-width: 30" />
<polyline points="-1041,3683 -1034,3669 " style="fill: white; stroke: black; stroke-width: 30" />
<polyline points="-1029,3664 -1036,3666 -1038,3667 -1043,3664 -1053,3662 -1081,3663 -1120,3695 -1149,3741 -1140,3767 -1100,3769 " style="fill: white; stroke: black; stroke-width: 30" />
<polyline points="-2460,9726 " style="fill: white; stroke: black; stroke-width: 30" />
<polyline points="-2846,4136 -2854,4166 -2853,4279 -2856,4425 " style="fill: white; stroke: black; stroke-width: 30" />
<polyline points="-2255,4142 -2264,4145 -2269,4152 -2271,4172 -2273,4238 -2285,4360 -2323,4512 -2242,4415 " style="fill: white; stroke: black; stroke-width: 30" />
<polyline points="-2356,4607 -2339,4602 -2285,4593 -2205,4604 -2106,4623 -1993,4627 -1870,4613 " style="fill: white; stroke: black; stroke-width: 30" />
<polyline points="-1732,4190 -1738,4202 -1736,4241 -1739,4321 " style="fill: white; stroke: black; stroke-width: 30" />
<polyline points="-1760,4636 -1740,4636 -1679,4630 -1587,4629 " style="fill: white; stroke: black; stroke-width: 30" />
<polyline points="-1160,4402 " style="fill: white; stroke: black; stroke-width: 30" />
<polyline points="-990,2882 -992,2887 -995,2901 -991,2940 -966,2990 -927,3049 " style="fill: white; stroke: black; stroke-width: 30" />
<polyline points="-1253,3148 -1259,3152 -1257,3151 -1240,3145 -1205,3138 -1159,3133 -1081,3156 " style="fill: white; stroke: black; stroke-width: 30" />
<polyline points="-928,3171 -917,3173 -897,3173 -870,3170 " style="fill: white; stroke: black; stroke-width: 30" />
<polyline points="-891,2773 -920,2815 -974,2848 -1012,2846 -1041,2823 -1040,2791 -942,2491 " style="fill: white; stroke: black; stroke-width: 30" />
<polyline points="-2514,4279 -2524,4264 -2547,4249 -2594,4256 -2655,4312 -2697,4383 -2695,4433 -2649,4459 -2576,4455 -2501,4425 " style="fill: white; stroke: black; stroke-width: 30" />
<polyline points="-2535,4260 -2552,4260 -2579,4260 -2609,4275 -2633,4321 -2626,4380 -2607,4426 " style="fill: white; stroke: black; stroke-width: 30" />
<polyline points="-2070,4413 -2050,4396 -2018,4364 -2002,4342 -1999,4336 -2001,4335 -1998,4334 -1992,4330 -1964,4307 -1936,4289 -1921,4282 -1919,4277 -1925,4273 -1929,4269 -1927,4268 -1922,4268 -1921,4268 -1913,4267 -1908,4265 -1909,4266 -1909,4266 -1911,4263 -1913,4265 -1916,4265 -1914,4271 -1899,4297 -1865,4344 -1833,4392 -1814,4435 -1796,4465 -1791,4476 -1792,4477 -1800,4473 -1821,4461 -1860,4449 -1915,4442 -1999,4444 -2073,4459 -2124,4473 -2137,4471 " style="fill: white; stroke: black; stroke-width: 30" />
<polyline points="-2023,4335 -1972,4329 -1896,4322 -1824,4324 -1775,4326 -1757,4324 -1757,4324 -1757,4324 -1755,4322 -1754,4323 -1754,4322 -1752,4323 -1751,4327 -1750,4331 -1757,4340 -1788,4385 -1841,4442 -1910,4493 -1969,4537 -2013,4572 -2029,4589 -2028,4592 -2026,4589 -2024,4584 -2024,4578 -2019,4573 -2015,4567 -2013,4563 -2010,4538 -2009,4499 -2017,4421 -2039,4339 -2050,4314 " style="fill: white; stroke: black; stroke-width: 30" />
<polyline points="-1415,4275 -1411,4276 -1407,4293 -1402,4353 -1401,4426 -1398,4468 -1394,4492 " style="fill: white; stroke: black; stroke-width: 30" />
<polyline points="-1512,4355 -1539,4353 -1540,4348 -1530,4342 -1498,4335 -1436,4324 -1349,4313 " style="fill: white; stroke: black; stroke-width: 30" />
<polyline points="-1054,4264 -1059,4261 -1056,4261 -1052,4260 -1047,4261 -1037,4256 -996,4249 -936,4239 -876,4236 -846,4242 -842,4247 -849,4254 -857,4269 -867,4284 -888,4320 -916,4378 -942,4434 -951,4479 -955,4497 -957,4513 -957,4513 -959,4511 -964,4509 -963,4511 -962,4514 -956,4517 -949,4517 -941,4515 -914,4513 -883,4509 -852,4508 -829,4505 -808,4497 -803,4491 " style="fill: white; stroke: black; stroke-width: 30" />
<polyline points="-1045,4367 -1045,4367 -1044,4365 -1040,4364 -1039,4362 -1039,4360 -1040,4360 -1042,4360 -1041,4359 -1041,4363 -1039,4370 -1042,4415 -1051,4464 -1065,4510 -1069,4533 -1064,4543 -1064,4541 -1065,4532 -1065,4520 -1064,4500 -1063,4484 -1066,4460 -1066,4431 -1053,4396 " style="fill: white; stroke: black; stroke-width: 30" />
<polyline points="-1033,4351 -1034,4347 -1037,4346 -1041,4346 -1039,4348 -1039,4349 -1036,4350 -1038,4352 -1037,4352 -1038,4351 -1033,4353 -998,4360 -940,4368 -874,4383 -832,4390 -810,4394 -809,4396 -812,4394 -813,4394 -813,4396 -814,4395 -814,4394 -814,4396 -815,4395 -815,4395 -818,4395 -816,4393 -814,4387 -810,4359 -801,4308 -791,4274 -777,4246 -777,4243 -777,4242 -779,4245 -782,4247 -782,4249 -775,4254 " style="fill: white; stroke: black; stroke-width: 30" />
<polyline points="-670,4533 -665,4540 -669,4538 -668,4537 -670,4536 -675,4531 -677,4529 -677,4529 -680,4528 -681,4529 -684,4528 -682,4526 -683,4527 -684,4527 -682,4525 -682,4526 -683,4525 -687,4525 " style="fill: white; stroke: black; stroke-width: 30" />
<polyline points="-980,4619 -864,4606 -771,4593 -704,4585 -688,4584 -695,4588 " style="fill: white; stroke: black; stroke-width: 30" />
<polyline points="-2032,4709 -2036,4707 -2037,4702 -2034,4702 -2032,4708 -2032,4717 -2029,4730 -2022,4746 -2015,4770 -2018,4775 -2018,4779 -2014,4778 -2025,4771 -2030,4773 -2020,4782 -2022,4790 -2020,4801 -2008,4820 -2010,4826 -2011,4834 -2016,4841 -2011,4849 " style="fill: white; stroke: black; stroke-width: 30" />
<polyline points="-1455,4670 -1476,4672 -1489,4673 -1490,4674 -1483,4687 -1483,4707 -1487,4729 -1495,4765 -1498,4804 -1492,4848 " style="fill: white; stroke: black; stroke-width: 30" />
<polyline points="-1451,4861 -1455,4855 -1445,4851 -1431,4846 -1387,4842 -1320,4834 -1227,4823 -1109,4809 -1004,4792 -947,4783 -938,4784 -938,4782 -932,4781 " style="fill: white; stroke: black; stroke-width: 30" />
<polyline points="-2521,4851 -2520,4852 -2519,4853 -2513,4860 -2511,4896 -2498,4994 -2495,5135 -2493,5232 -2485,5287 -2470,5311 " style="fill: white; stroke: black; stroke-width: 30" />
<polyline points="-2512,5297 -2518,5308 -2519,5309 -2507,5312 " style="fill: white; stroke: black; stroke-width: 30" />
<polyline points="-2382,5306 " style="fill: white; stroke: black; stroke-width: 30" />
<polyline points="-2245,5445 -2245,5447 -2233,5444 -2188,5415 -2115,5343 -2045,5263 -2023,5222 -2024,5222 -2025,5226 -2026,5231 -2031,5253 -2048,5317 -2057,5395 " style="fill: white; stroke: black; stroke-width: 30" />
<polyline points="-1463,5146 -1467,5147 -1472,5146 -1473,5145 -1475,5152 -1490,5183 -1529,5277 " style="fill: white; stroke: black; stroke-width: 30" />
<polyline points="-1533,5484 -1480,5273 -1543,5481 -1549,5492 -1562,5550 -1574,5607 -1564,5620 -1548,5621 -1487,5600 " style="fill: white; stroke: black; stroke-width: 30" />
<polyline points="-2219,5798 " style="fill: white; stroke: black; stroke-width: 30" />
<polyline points="-2157,5909 -2213,5979 -2213,5979 -2242,6005 -2243,6007 -2234,6005 -2209,5999 -2173,5986 -2116,5971 -2067,5964 " style="fill: white; stroke: black; stroke-width: 30" />
<polyline points="-1967,5944 -1976,5927 -1971,5920 -1938,5919 -1904,5930 -1892,5951 -1898,5959 -1908,5959 -1920,5950 -1920,5919 " style="fill: white; stroke: black; stroke-width: 30" />
<polyline points="-1380,5702 -1393,5693 -1403,5702 -1415,5761 -1429,5851 -1433,5930 -1431,5961 -1430,5963 -1430,5948 -1420,5881 -1411,5775 -1398,5705 -1397,5672 -1392,5672 -1388,5681 -1386,5717 -1378,5793 -1356,5875 -1319,5918 -1263,5931 -1200,5909 -1147,5849 -1131,5781 -1140,5727 -1162,5700 -1168,5693 " style="fill: white; stroke: black; stroke-width: 30" />
<polyline points="-681,5794 -676,5767 -648,5720 -610,5677 -567,5656 -534,5669 -517,5720 -539,5796 -594,5863 -668,5916 -720,5946 -756,5962 -769,5965 -777,5960 -772,5960 " style="fill: white; stroke: black; stroke-width: 30" />
<polyline points="-679,5791 -690,5790 -694,5787 -681,5772 -659,5742 -646,5723 -649,5718 -661,5711 -692,5701 -749,5708 -827,5734 " style="fill: white; stroke: black; stroke-width: 30" />
<polyline points="-743,5965 " style="fill: white; stroke: black; stroke-width: 30" />
<polyline points="-94,4291 -106,4273 -119,4255 -147,4233 -178,4240 -228,4276 -279,4342 -297,4401 -280,4434 -233,4452 " style="fill: white; stroke: black; stroke-width: 30" />
<polyline points="-117,4356 -119,4354 -114,4356 -98,4369 -76,4393 -62,4415 -62,4431 " style="fill: white; stroke: black; stroke-width: 30" />
<polyline points="-387,2730 -396,2728 -399,2727 -404,2743 -420,2828 -452,3026 -479,3375 -473,3848 -477,4240 -478,4511 " style="fill: white; stroke: black; stroke-width: 30" />
<polyline points="-497,4081 -492,4075 -491,4073 -481,4067 -462,4058 -451,4051 -445,4048 " style="fill: white; stroke: black; stroke-width: 30" />
<polyline points="-500,4651 -495,4651 -465,4651 -400,4647 -315,4636 " style="fill: white; stroke: black; stroke-width: 30" />
<polyline points="163,4375 167,4362 193,4346 231,4342 261,4363 264,4394 240,4422 201,4428 164,4413 148,4397 " style="fill: white; stroke: black; stroke-width: 30" />
<polyline points="362,4195 360,4195 367,4212 362,4290 344,4386 343,4426 347,4427 351,4420 358,4390 374,4365 407,4354 450,4373 479,4419 480,4463 457,4487 418,4482 380,4454 353,4408 365,4375 " style="fill: white; stroke: black; stroke-width: 30" />
<polyline points="596,4324 592,4325 597,4324 614,4341 625,4393 614,4456 586,4497 557,4500 521,4470 493,4413 486,4389 490,4387 515,4397 575,4420 654,4418 738,4387 811,4323 827,4262 802,4239 758,4246 728,4274 711,4338 727,4405 760,4432 790,4439 825,4417 868,4340 905,4243 919,4207 912,4208 909,4220 890,4287 866,4368 862,4421 884,4453 918,4453 968,4417 1000,4384 995,4375 981,4380 972,4390 977,4397 985,4414 " style="fill: white; stroke: black; stroke-width: 30" />
<polyline points="1056,4360 1044,4357 1041,4367 1029,4403 1030,4426 1048,4432 1099,4400 1148,4357 1156,4344 1135,4367 1060,4484 972,4624 947,4700 " style="fill: white; stroke: black; stroke-width: 30" />
<polyline points="-3960,9723 " style="fill: white; stroke: black; stroke-width: 30" />
<polyline points="-3966,9737 " style="fill: white; stroke: black; stroke-width: 30" />
<polyline points="-3953,9740 " style="fill: white; stroke: black; stroke-width: 30" />
<polyline points="-3960,9711 " style="fill: white; stroke: black; stroke-width: 30" />
<polyline points="337,10191 " style="fill: white; stroke: black; stroke-width: 30" />
<polyline points="-1007,5079 -1004,5064 -993,5035 -964,4975 -928,4898 -903,4849 -898,4841 -899,4842 -902,4849 -905,4851 -906,4856 -905,4858 -907,4860 -898,4883 -868,4940 -836,4988 -805,5018 -791,5035 -779,5042 -779,5045 -797,5041 -819,5032 -858,5012 -915,4983 -982,4965 -1052,4967 -1096,4967 -1098,4966 -1095,4967 -1090,4965 -1084,4963 -1081,4964 -1074,4962 -1057,4960 -999,4957 -914,4943 -821,4925 -725,4896 -679,4878 -677,4876 -680,4879 -686,4879 -693,4880 -695,4881 -707,4886 -742,4903 -800,4932 -885,4998 -962,5063 -1020,5096 -1053,5108 -1053,5105 -1051,5101 -1045,5096 -1017,5080 " style="fill: white; stroke: black; stroke-width: 30" />
<polyline points="-547,4940 -578,4962 -597,5005 -594,5042 -572,5066 -541,5069 -487,5055 -434,5013 -392,4955 -366,4909 -362,4886 -364,4883 -370,4886 -381,4894 -389,4923 -387,4950 -377,4991 -366,5016 -340,4818 " style="fill: white; stroke: black; stroke-width: 30" />
<polyline points="-428,4994 -429,4993 -425,4990 -395,4976 " style="fill: white; stroke: black; stroke-width: 30" />
<polyline points="-330,5007 -340,5024 -337,5025 -309,5028 " style="fill: white; stroke: black; stroke-width: 30" />
<polyline points="-1150,4625 -1161,4630 -1161,4630 -1159,4631 -1162,4636 -1163,4656 -1167,4663 -1165,4715 -1158,4832 -1148,4977 " style="fill: white; stroke: black; stroke-width: 30" />
<polyline points="869,5468 860,5470 861,5477 864,5538 876,5639 891,5712 901,5734 912,5723 912,5649 892,5548 857,5466 841,5444 840,5447 842,5467 852,5520 861,5561 878,5594 909,5605 968,5594 1039,5552 1087,5500 1106,5477 1105,5477 1100,5482 1074,5508 1046,5559 1045,5596 1066,5623 1116,5630 1171,5603 1221,5568 1241,5537 1240,5513 1225,5506 1205,5527 1195,5567 1215,5619 " style="fill: white; stroke: black; stroke-width: 30" />
<polyline points="1434,5608 1431,5602 1427,5583 1413,5559 1384,5543 1339,5557 1296,5595 1278,5627 1281,5631 1312,5623 1365,5582 1411,5527 1431,5494 1431,5493 1425,5502 1410,5530 1405,5575 1417,5601 1447,5611 1485,5597 1515,5571 1535,5560 1543,5562 1545,5567 1546,5585 1545,5603 1546,5604 1558,5595 1579,5588 1604,5598 1614,5617 " style="fill: white; stroke: black; stroke-width: 30" />
<polyline points="1770,5409 1743,5468 1716,5539 1700,5604 1705,5632 1725,5641 1766,5600 1812,5519 1844,5451 1853,5437 1850,5444 1839,5467 1817,5527 1801,5605 1802,5641 1826,5641 1866,5610 1905,5577 1922,5577 1923,5616 " style="fill: white; stroke: black; stroke-width: 30" />
<polyline points="2042,5596 2031,5631 2013,5649 1981,5654 1947,5635 1942,5614 1952,5609 1982,5608 2026,5615 1978,5423 " style="fill: white; stroke: black; stroke-width: 30" />
<polyline points="2940,5345 2933,5351 2931,5401 2925,5493 2927,5580 2931,5636 2930,5678 2924,5697 2916,5692 2889,5658 2887,5569 2910,5443 2948,5357 2985,5333 3014,5342 3015,5393 2966,5485 2881,5575 2835,5629 2842,5667 2898,5705 2990,5715 3076,5690 3125,5643 3143,5597 3133,5577 3130,5581 3120,5615 3112,5668 3121,5700 3129,5711 " style="fill: white; stroke: black; stroke-width: 30" />
<polyline points="3164,5345 3143,5341 3141,5341 3142,5340 " style="fill: white; stroke: black; stroke-width: 30" />
<polyline points="3204,5539 " style="fill: white; stroke: black; stroke-width: 30" />
<polyline points="3510,5634 3494,5618 3450,5614 3404,5626 3396,5643 3427,5662 3491,5679 3542,5687 3553,5720 3531,5802 3504,5872 3485,5905 3475,5908 " style="fill: white; stroke: black; stroke-width: 30" />
<polyline points="3901,5673 3915,5609 3932,5517 3951,5478 3969,5471 4002,5496 4035,5573 4031,5657 3983,5725 3930,5754 3895,5743 3865,5703 3842,5636 3842,5569 " style="fill: white; stroke: black; stroke-width: 30" />
<polyline points="1010,6220 1011,6139 1006,6059 998,6028 997,6028 994,6029 1002,6052 1016,6118 1046,6198 1109,6245 1190,6242 1265,6198 1314,6141 1323,6095 1311,6058 1279,6025 1249,5994 1223,5985 1219,5988 1227,5995 1257,6050 " style="fill: white; stroke: black; stroke-width: 30" />
<polyline points="1396,6187 1427,6200 1451,6200 1475,6181 1489,6159 1485,6138 1468,6129 1435,6139 1387,6171 1378,6202 1405,6238 1472,6259 1550,6256 " style="fill: white; stroke: black; stroke-width: 30" />
<polyline points="1701,6142 1680,6137 1674,6134 1674,6134 1676,6137 1671,6137 1669,6135 1660,6136 1635,6144 1610,6163 1606,6190 1620,6225 1653,6247 1688,6254 1713,6236 1732,6200 1737,6180 1731,6167 1714,6162 1701,6168 1703,6170 1704,6178 " style="fill: white; stroke: black; stroke-width: 30" />
<polyline points="2125,6052 2097,6025 2059,6016 2011,6026 1946,6056 1876,6115 1842,6172 1863,6218 1910,6249 2001,6251 " style="fill: white; stroke: black; stroke-width: 30" />
<polyline points="2209,6179 2215,6135 2240,6105 2272,6105 2309,6141 2315,6197 2293,6244 2253,6266 2223,6252 2204,6208 2196,6157 2209,6128 " style="fill: white; stroke: black; stroke-width: 30" />
<polyline points="2372,6258 2365,6257 2369,6249 2369,6218 2378,6166 2386,6138 2392,6130 2409,6141 2439,6164 2474,6178 2503,6179 2547,6133 2593,6052 2614,5996 2608,5979 2601,5973 2589,5998 2542,6118 2518,6219 2532,6275 2541,6285 2549,6272 2571,6229 2596,6183 2603,6176 2625,6178 2669,6180 2710,6171 2730,6163 2722,6162 2711,6162 2695,6180 2690,6202 2701,6231 " style="fill: white; stroke: black; stroke-width: 30" />
<polyline points="2923,6136 2920,6136 2929,6128 2930,6128 2927,6127 2931,6126 2936,6125 2932,6132 2923,6150 2880,6196 2837,6234 2821,6245 " style="fill: white; stroke: black; stroke-width: 30" />
<polyline points="2296,5009 2290,5014 2285,5040 2277,5122 2275,5177 2280,5193 2281,5191 2274,5178 2261,5141 2260,5070 2281,5005 2315,4983 2353,4982 2370,5004 2366,5028 2330,5067 2285,5082 2251,5076 2238,5060 2241,5049 2243,5046 2262,5029 2298,5014 " style="fill: white; stroke: black; stroke-width: 30" />
<polyline points="2412,5197 2409,5197 2405,5186 2403,5160 2401,5145 2397,5129 2401,5127 2406,5130 2428,5133 2469,5137 2507,5138 2548,5127 2572,5110 2573,5110 2568,5115 2558,5126 2557,5152 2557,5184 2562,5213 2570,5224 " style="fill: white; stroke: black; stroke-width: 30" />
<polyline points="2770,5129 2727,5119 2707,5115 2701,5120 2708,5154 2714,5201 2712,5235 2693,5256 2668,5257 2646,5245 2636,5232 2637,5201 2676,5147 " style="fill: white; stroke: black; stroke-width: 30" />
<polyline points="2801,5139 2792,5162 2786,5192 2788,5215 2795,5230 2794,5236 2797,5232 2798,5225 2802,5209 2815,5182 2824,5170 2830,5168 2833,5172 2836,5187 2840,5190 2846,5189 2881,5186 2910,5183 2919,5192 2920,5205 2921,5207 2926,5206 " style="fill: white; stroke: black; stroke-width: 30" />
<polyline points="2097,5074 2090,5078 2087,5080 2099,5080 2143,5086 2239,5096 2377,5112 2543,5148 2724,5182 2891,5216 3001,5235 3036,5238 3036,5236 " style="fill: white; stroke: black; stroke-width: 30" />
<polyline points="2183,5194 2184,5192 2192,5190 2231,5186 2308,5171 2422,5135 2596,5083 2769,5032 2892,5001 2956,4989 2963,4986 2956,4987 2951,4991 2950,4991 2953,4989 " style="fill: white; stroke: black; stroke-width: 30" />
<polyline points="3321,5134 3329,5175 3378,5212 3452,5232 3526,5224 3584,5197 3601,5185 3594,5188 3589,5190 3594,5189 3591,5195 3580,5207 3574,5224 3577,5231 3578,5229 3585,5212 3595,5169 3595,5109 3595,5089 3598,5080 3607,5079 3644,5092 3706,5114 3768,5129 3814,5133 3835,5122 3834,5114 3839,5103 3833,5099 3828,5093 3822,5099 3813,5110 3795,5139 3793,5162 3797,5175 3805,5186 3820,5188 3852,5167 3876,5149 3884,5148 3884,5148 3873,5158 3860,5184 3825,5242 3773,5309 " style="fill: white; stroke: black; stroke-width: 30" />
<polyline points="4083,5109 4069,5115 4051,5127 4025,5144 4018,5165 4017,5197 4019,5234 4018,5268 4011,5279 3993,5286 3980,5279 3974,5257 4008,5173 3964,4895 " style="fill: white; stroke: black; stroke-width: 30" />
<polyline points="4277,4969 4269,5011 4252,5077 4231,5141 4206,5196 4180,5235 4170,5250 4170,5251 4177,5241 4181,5223 4188,5182 4181,5134 4165,5114 4163,5113 4174,5117 4212,5134 4264,5149 4300,5155 4313,5151 4307,5155 4312,5151 4328,5136 4375,5106 4390,5100 4391,5106 4393,5138 4379,5186 4356,5225 4323,5253 4282,5256 4268,5241 4278,5219 4288,5213 4313,5211 4361,5216 4410,5213 4466,5188 " style="fill: white; stroke: black; stroke-width: 30" />
<polyline points="4564,5081 4572,5063 4575,5049 4573,5036 4558,5037 4513,5059 4450,5117 4418,5183 4418,5245 4446,5282 4490,5302 " style="fill: white; stroke: black; stroke-width: 30" />
<polyline points="4769,5144 4744,5231 4738,5311 4726,5397 4740,5453 4754,5482 " style="fill: white; stroke: black; stroke-width: 30" />
<polyline points="4708,5253 4686,5233 4686,5230 4701,5226 4736,5240 4789,5244 4825,5247 " style="fill: white; stroke: black; stroke-width: 30" />
<polyline points="4944,5258 4940,5253 4937,5245 4912,5255 4886,5272 4865,5293 4867,5300 4885,5313 4919,5335 4963,5351 " style="fill: white; stroke: black; stroke-width: 30" />
<polyline points="4262,958 " style="fill: white; stroke: black; stroke-width: 30" />
<polyline points="899,7399 892,7400 890,7426 884,7507 881,7611 889,7668 894,7671 896,7647 901,7549 895,7457 883,7389 877,7381 872,7384 872,7406 876,7469 886,7547 908,7601 956,7636 1023,7639 1101,7607 1159,7556 1184,7505 1179,7470 1155,7428 1118,7406 1094,7405 1093,7409 1103,7414 1111,7440 1130,7508 1148,7562 1180,7599 1218,7617 1260,7622 1304,7619 1337,7602 1348,7576 1334,7557 1292,7537 1251,7552 1220,7584 1217,7626 1258,7661 " style="fill: white; stroke: black; stroke-width: 30" />
<polyline points="1439,7705 1493,7696 1529,7667 1540,7641 1534,7625 1505,7612 1483,7610 1482,7612 1482,7614 1448,7413 " style="fill: white; stroke: black; stroke-width: 30" />
<polyline points="601,7508 541,7642 554,7759 619,7867 737,7951 897,8001 1090,8022 1304,8006 1495,7960 1659,7884 1761,7793 1802,7713 1803,7627 1794,7535 1763,7433 1712,7362 1618,7298 1459,7248 1281,7221 1160,7195 1097,7177 1091,7173 1113,7171 1176,7189 " style="fill: white; stroke: black; stroke-width: 30" />
<polyline points="1912,7676 1906,7676 1913,7672 1925,7668 1950,7669 2020,7666 2128,7667 2276,7670 2465,7658 2620,7649 2714,7645 2731,7644 2723,7646 " style="fill: white; stroke: black; stroke-width: 30" />
<polyline points="2849,7707 2799,7736 2800,7751 " style="fill: white; stroke: black; stroke-width: 30" />
<polyline points="3171,7406 3204,7283 3256,7185 3345,7120 3481,7093 3652,7124 3822,7249 3937,7440 3977,7633 3944,7797 3858,7920 3710,7994 3538,8006 3363,7956 3188,7853 3057,7686 " style="fill: white; stroke: black; stroke-width: 30" />
<polyline points="3255,7526 3248,7517 3234,7514 3219,7512 3213,7516 3207,7520 3194,7533 3172,7593 3160,7640 3164,7646 3174,7642 3193,7623 3225,7554 3256,7471 3259,7414 3257,7403 3261,7401 3265,7410 3258,7458 3270,7518 3285,7557 3324,7576 3380,7567 3420,7539 3436,7515 3433,7517 3419,7527 3389,7570 3381,7618 3396,7656 3430,7673 3499,7645 3542,7597 3542,7548 3504,7546 3468,7572 3447,7614 " style="fill: white; stroke: black; stroke-width: 30" />
<polyline points="3689,7563 3665,7566 3634,7582 3605,7607 3598,7635 3604,7652 3619,7655 3640,7649 3676,7618 3720,7558 3754,7507 3757,7500 3745,7508 3738,7534 3711,7593 3697,7638 3709,7660 3738,7666 3768,7646 3795,7624 3791,7624 3774,7639 3755,7669 3755,7683 3771,7689 3799,7687 " style="fill: white; stroke: black; stroke-width: 30" />
<polyline points="3893,7555 3864,7602 3848,7648 3836,7692 3852,7717 3874,7729 3916,7707 3947,7668 3963,7626 3958,7617 3954,7619 3949,7625 3933,7647 3919,7688 3908,7703 3905,7706 3921,7700 3915,7701 3921,7706 " style="fill: white; stroke: black; stroke-width: 30" />
<polyline points="3915,7659 3926,7657 3935,7671 3952,7694 3943,7734 3944,7747 3940,7746 3930,7741 3942,7732 3944,7734 3977,7732 " style="fill: white; stroke: black; stroke-width: 30" />
<polyline points="3556,6551 3545,6555 3541,6561 3537,6581 3529,6647 3514,6724 3505,6774 " style="fill: white; stroke: black; stroke-width: 30" />
<polyline points="3449,6821 3445,6820 3451,6836 3445,6897 3449,6936 3464,6953 3471,6956 3492,6954 3502,6948 3538,6913 " style="fill: white; stroke: black; stroke-width: 30" />
<polyline points="3647,6473 3659,6478 3662,6478 3662,6468 3667,6440 3678,6409 3676,6404 3680,6406 3697,6408 3731,6413 3780,6417 3845,6402 3881,6390 3884,6388 3882,6387 3875,6389 3882,6388 3880,6389 3858,6406 3838,6443 3839,6474 3845,6488 3881,6494 3937,6469 3981,6441 3986,6438 3989,6436 3991,6439 3973,6464 3931,6531 3916,6565 " style="fill: white; stroke: black; stroke-width: 30" />
<polyline points="4177,6376 4141,6379 4127,6380 4110,6388 4092,6434 4097,6481 4112,6521 4113,6543 4092,6555 4081,6546 4083,6504 4126,6398 4200,6289 4256,6228 4281,6213 4268,6234 4247,6280 4219,6347 4190,6427 4173,6477 4172,6497 4176,6492 4180,6478 4197,6424 4212,6400 4218,6397 4223,6395 4239,6388 4264,6391 4313,6372 4370,6350 4425,6334 4424,6333 4409,6339 4389,6366 4356,6419 4349,6449 4348,6463 4350,6458 4355,6436 4357,6413 4368,6394 4370,6395 4374,6407 4376,6429 4375,6451 4377,6470 4414,6479 4479,6466 " style="fill: white; stroke: black; stroke-width: 30" />
<polyline points="4604,6226 4581,6197 4556,6193 4548,6197 4508,6265 4483,6353 4470,6430 4472,6478 4484,6492 4500,6494 " style="fill: white; stroke: black; stroke-width: 30" />
<polyline points="863,8491 865,8493 871,8516 890,8589 891,8688 888,8741 900,8740 917,8692 910,8573 910,8433 925,8321 947,8284 980,8295 1018,8370 1020,8467 979,8553 927,8600 910,8609 915,8605 941,8603 1000,8607 1069,8601 " style="fill: white; stroke: black; stroke-width: 30" />
<polyline points="1262,8433 1254,8434 1246,8467 1246,8549 " style="fill: white; stroke: black; stroke-width: 30" />
<polyline points="1098,8436 1105,8426 1152,8408 1246,8399 1329,8403 1405,8404 1458,8401 1472,8397 1467,8394 1447,8392 1431,8388 1428,8381 1408,8381 " style="fill: white; stroke: black; stroke-width: 30" />
<polyline points="1147,8535 1192,8532 1291,8529 1380,8524 1458,8519 1514,8504 1560,8485 1582,8475 1597,8467 1611,8457 1614,8449 1617,8444 1619,8440 1613,8442 1610,8443 1600,8454 1599,8487 1584,8569 1580,8625 1596,8665 " style="fill: white; stroke: black; stroke-width: 30" />
<polyline points="1748,8362 1751,8356 1769,8361 1780,8387 1784,8433 1766,8495 1753,8559 " style="fill: white; stroke: black; stroke-width: 30" />
<polyline points="1742,8360 1746,8353 1786,8354 1860,8380 1919,8437 1952,8510 1926,8598 1881,8663 1823,8699 1753,8688 " style="fill: white; stroke: black; stroke-width: 30" />
<polyline points="2639,8460 2617,8495 2589,8580 2581,8653 2578,8716 " style="fill: white; stroke: black; stroke-width: 30" />
<polyline points="2452,8439 2455,8423 2498,8400 2589,8393 " style="fill: white; stroke: black; stroke-width: 30" />
<polyline points="2632,8637 2682,8619 2751,8589 2780,8566 2769,8550 2712,8547 2634,8581 2616,8602 2647,8627 2741,8638 2860,8598 2973,8526 3004,8471 3001,8445 2971,8436 2912,8458 2867,8504 2861,8543 2903,8596 2966,8648 3041,8670 3123,8662 " style="fill: white; stroke: black; stroke-width: 30" />
<polyline points="3210,8649 3158,8680 3123,8686 3107,8667 3105,8635 3122,8617 3155,8614 3228,8633 3289,8665 " style="fill: white; stroke: black; stroke-width: 30" />
<polyline points="3402,8682 3366,8688 3339,8691 3349,8686 3366,8677 3421,8645 3457,8629 3456,8634 3464,8643 3472,8665 3498,8678 3540,8675 3543,8678 3541,8683 3551,8682 3587,8683 3664,8679 3718,8679 3742,8678 3751,8678 3761,8672 3759,8672 3773,8661 3803,8626 3813,8595 3797,8583 3751,8588 3707,8614 3699,8649 3728,8693 3784,8731 3784,8553 " style="fill: white; stroke: black; stroke-width: 30" />
<polyline points="4037,8426 3994,8436 3968,8489 3949,8576 3922,8669 3904,8737 3900,8757 3922,8728 3961,8647 3983,8595 4000,8579 4002,8580 4020,8591 " style="fill: white; stroke: black; stroke-width: 30" />
<polyline points="4044,8687 4050,8685 4078,8659 4110,8625 4128,8611 4130,8612 4129,8624 4157,8654 4192,8682 4254,8690 4308,8689 4327,8679 4339,8657 4349,8635 4348,8614 4343,8605 4343,8608 4346,8610 4343,8622 4334,8645 4337,8656 4344,8656 4367,8652 4400,8641 4434,8627 4438,8626 4434,8627 4395,8660 4307,8730 4185,8816 4070,8905 " style="fill: white; stroke: black; stroke-width: 30" />
<polyline points="1609,9483 1612,9477 1603,9472 1583,9460 1527,9448 1448,9455 1395,9485 1390,9511 1404,9546 1485,9597 " style="fill: white; stroke: black; stroke-width: 30" />
<polyline points="2027,9528 2021,9527 2018,9522 2015,9507 1984,9478 1915,9458 1828,9467 1754,9499 1766,9521 1804,9575 " style="fill: white; stroke: black; stroke-width: 30" />
<polyline points="1896,9303 1884,9284 1861,9267 1821,9255 1765,9248 1687,9248 1572,9260 1469,9281 1364,9304 1278,9329 1217,9360 1184,9385 1150,9427 1134,9472 1131,9526 1133,9580 1173,9634 1206,9672 1255,9704 1319,9733 1387,9758 1466,9782 1561,9798 1662,9805 1767,9803 1872,9792 1967,9770 2041,9740 2109,9699 2149,9666 2169,9649 2183,9633 2196,9610 2204,9561 2218,9517 2214,9486 2204,9457 2189,9427 2153,9377 2113,9317 2074,9267 1990,9236 1904,9222 1833,9227 1806,9234 1815,9232 " style="fill: white; stroke: black; stroke-width: 30" />
<polyline points="2624,9200 2629,9226 2633,9390 2628,9645 2615,9882 2604,10020 2618,10074 " style="fill: white; stroke: black; stroke-width: 30" />
<polyline points="2587,9227 2598,9212 2627,9196 2656,9183 2693,9176 2735,9170 2766,9170 2805,9174 2842,9184 2894,9198 2938,9218 2972,9232 2998,9249 3019,9270 3032,9294 3041,9319 3045,9340 3053,9364 3060,9385 3062,9413 3064,9439 3054,9464 3056,9477 3049,9490 3049,9502 3053,9515 3056,9524 3048,9538 3039,9549 3042,9551 3027,9559 3018,9568 2989,9581 2950,9599 2926,9614 2900,9624 2868,9634 2840,9650 2831,9656 2811,9671 2780,9687 2763,9693 2753,9694 2743,9700 2734,9706 2723,9712 2728,9715 2725,9718 2720,9720 2721,9725 2705,9735 2701,9742 2685,9765 2673,9784 2676,9794 2680,9817 2687,9820 2689,9820 2696,9823 2696,9832 2695,9836 2697,9841 2693,9843 2706,9844 2723,9853 " style="fill: white; stroke: black; stroke-width: 30" />
<polyline points="2728,9345 2721,9362 2715,9378 2726,9408 2727,9441 2731,9476 2727,9492 2726,9503 2721,9521 2721,9541 2717,9561 2704,9581 2696,9604 2687,9617 2689,9623 2684,9629 2684,9629 2686,9627 " style="fill: white; stroke: black; stroke-width: 30" />
<polyline points="3336,9703 3335,9700 3323,9702 3309,9730 3287,9823 3285,9916 3328,9981 3381,10014 3459,10008 3546,9963 3608,9902 3618,9864 3615,9854 " style="fill: white; stroke: black; stroke-width: 30" />
<polyline points="3396,9442 3396,9423 3402,9415 3425,9413 3482,9436 3522,9475 3516,9511 3487,9521 3431,9504 3398,9470 3394,9453 3432,9410 " style="fill: white; stroke: black; stroke-width: 30" />
<polyline points="3661,9662 3644,9635 3669,9584 3704,9546 3733,9542 3757,9563 3743,9619 3714,9668 3677,9682 3643,9668 3638,9648 3651,9601 3707,9554 " style="fill: white; stroke: black; stroke-width: 30" />
<polyline points="1325,10017 1313,10010 1301,10009 1279,10021 1240,10097 1176,10223 1167,10313 1155,10368 1166,10396 1202,10419 1253,10437 1313,10450 1366,10455 1418,10463 1445,10467 1472,10461 " style="fill: white; stroke: black; stroke-width: 30" />
<polyline points="1535,10357 1537,10358 1557,10370 1596,10387 1631,10421 1643,10445 1638,10462 1615,10489 1589,10509 1573,10519 1573,10521 " style="fill: white; stroke: black; stroke-width: 30" />
<polyline points="1979,10420 1954,10408 1948,10402 1956,10396 1983,10389 2047,10396 2091,10429 2115,10480 2113,10511 2094,10534 2069,10545 2076,10547 2069,10555 2077,10585 2097,10622 2114,10635 2081,10650 2058,10653 2036,10648 2016,10645 2005,10640 2001,10633 2005,10632 2009,10627 2004,10600 " style="fill: white; stroke: black; stroke-width: 30" />
<polyline points="2301,10611 2286,10580 2272,10562 2265,10561 2270,10565 2287,10574 2288,10589 2286,10591 2283,10588 2287,10585 " style="fill: white; stroke: black; stroke-width: 30" />
<polyline points="2528,10587 2568,10587 2598,10568 2611,10562 2608,10564 2599,10572 2630,10593 2679,10606 2719,10617 2766,10620 2782,10613 2788,10575 2793,10513 2803,10450 2794,10415 2786,10409 2787,10412 2794,10415 " style="fill: white; stroke: black; stroke-width: 30" />
<polyline points="2943,10506 2887,10509 2854,10536 2873,10588 2919,10627 2989,10646 3099,10615 3204,10539 3256,10458 3261,10399 3253,10373 3229,10368 3212,10385 3166,10460 3141,10539 " style="fill: white; stroke: black; stroke-width: 30" />
<polyline points="3446,10341 3417,10356 3401,10401 3361,10489 3316,10581 3304,10630 3302,10639 3294,10635 3296,10590 3303,10567 3316,10556 3338,10555 3378,10559 " style="fill: white; stroke: black; stroke-width: 30" />
<polyline points="2368,10904 2357,10885 2311,10884 2220,10901 2123,10929 2095,10943 2097,10952 2142,11004 2174,11067 2177,11116 2157,11154 2139,11164 2118,11155 " style="fill: white; stroke: black; stroke-width: 30" />
<polyline points="2502,10959 2537,10989 2569,11030 2564,11074 2532,11106 2480,11116 2446,11101 2423,11080 2445,11066 2449,11066 2483,11079 2530,11098 2547,10914 " style="fill: white; stroke: black; stroke-width: 30" />
<polyline points="2715,10979 2689,10964 2666,10963 2659,10972 2641,11009 2633,11053 2635,11062 2639,11068 2639,11068 2632,11068 2615,11074 2622,11072 2619,11072 2626,11070 2632,11068 2635,11063 2625,11067 2631,11065 2634,11057 2634,11049 2632,11039 2639,11032 2654,11009 2681,10961 2686,10944 2700,10937 2716,10939 2724,10952 2742,10979 2747,11000 2732,11022 2740,11027 2740,11028 2744,11026 2773,11012 2802,10992 2816,10986 2822,10990 2815,11008 2813,11029 2796,11051 2808,11053 2811,11056 " style="fill: white; stroke: black; stroke-width: 30" />
<polyline points="2902,10982 2894,11004 2883,11026 2869,11043 2869,11057 2876,11067 2897,11087 2940,11095 2971,11095 3001,11087 3020,11062 3017,11036 2988,11013 2965,10994 2958,10988 " style="fill: white; stroke: black; stroke-width: 30" />
<polyline points="3203,10984 3177,10985 3133,10992 3095,11005 3061,11036 3075,11088 3099,11133 3144,11168 3195,11165 3230,11137 3231,11106 3202,11065 3179,11041 3167,11030 3151,11034 3169,11047 " style="fill: white; stroke: black; stroke-width: 30" />
<polyline points="3300,11045 3320,11017 3346,10999 3388,11000 3422,11024 3439,11064 3417,11108 3373,11154 3330,11179 3300,11181 3267,11168 3272,11135 3284,11111 3302,11106 3331,11119 3386,11143 3439,11175 3475,11206 3495,11225 3517,11224 3547,11203 3572,11169 3622,11110 3638,11064 3648,11039 3651,11035 3654,11036 3683,11036 " style="fill: white; stroke: black; stroke-width: 30" />
<polyline points="4212,10850 4208,10841 4191,10843 4159,10877 4095,10968 4034,11069 4023,11135 4051,11179 4099,11192 4179,11155 4246,11094 4254,11049 4215,11019 4146,11009 4066,11031 4030,11065 4046,11117 4093,11170 4183,11207 4256,11212 4331,11177 4370,11137 4358,11133 4358,11133 4339,11144 4337,11164 4315,11196 4306,11221 " style="fill: white; stroke: black; stroke-width: 30" />
<polyline points="4618,11033 4566,11105 4518,11188 4502,11235 " style="fill: white; stroke: black; stroke-width: 30" />
<polyline points="4615,11161 4625,11121 4638,11105 4689,11094 4760,11111 " style="fill: white; stroke: black; stroke-width: 30" />
<polyline points="1920,11465 1905,11469 1911,11470 1915,11467 1924,11466 1931,11467 1957,11472 2064,11478 2326,11477 2826,11474 3542,11525 4396,11607 5317,11733 " style="fill: white; stroke: black; stroke-width: 30" />
<polyline points="7162,13227 " style="fill: white; stroke: black; stroke-width: 30" />
<polyline points="4154,10296 4131,10292 4115,10295 4102,10317 4096,10376 4083,10444 4077,10497 4065,10548 " style="fill: white; stroke: black; stroke-width: 30" />
<polyline points="4271,10307 4273,10306 4301,10309 4364,10307 4434,10309 4486,10306 4501,10302 " style="fill: white; stroke: black; stroke-width: 30" />
<polyline points="4420,10345 " style="fill: white; stroke: black; stroke-width: 30" />
<polyline points="4714,10301 4701,10296 4707,10295 4712,10297 4684,10343 4638,10412 4601,10475 4586,10523 4598,10545 4617,10542 4634,10514 4641,10432 4673,10329 4733,10253 4801,10232 4863,10265 4878,10364 4843,10466 4749,10554 4661,10595 4602,10590 4556,10554 " style="fill: white; stroke: black; stroke-width: 30" />
<polyline points="4879,10574 4865,10584 4851,10589 4836,10596 4812,10600 4769,10605 4739,10607 4739,10607 4744,10595 4746,10581 4750,10578 4749,10582 4758,10591 " style="fill: white; stroke: black; stroke-width: 30" />
<polyline points="5037,10518 5048,10507 5017,10505 4954,10512 4908,10538 4904,10564 4923,10600 4967,10633 5020,10636 5032,10634 " style="fill: white; stroke: black; stroke-width: 30" />
<polyline points="5190,10528 5204,10523 5219,10536 5239,10555 5234,10590 5206,10622 5152,10640 5119,10640 5134,10610 5158,10568 5217,10521 5250,10515 5275,10526 " style="fill: white; stroke: black; stroke-width: 30" />
<polyline points="5293,10671 5296,10654 5309,10637 5325,10622 5343,10615 5350,10612 5362,10613 5384,10624 5389,10629 5382,10632 5378,10639 5369,10656 5387,10659 5403,10669 5396,10676 5383,10689 " style="fill: white; stroke: black; stroke-width: 30" />
<polyline points="2473,11256 2487,11250 2525,11257 2577,11287 2582,11328 2561,11358 2527,11370 " style="fill: white; stroke: black; stroke-width: 30" />
<polyline points="2824,11321 2834,11364 2815,11393 2788,11406 2741,11407 2736,11391 " style="fill: white; stroke: black; stroke-width: 30" />
<polyline points="3003,11247 3001,11246 3008,11245 3021,11258 3028,11315 3030,11375 3009,11413 2992,11420 2961,11401 2961,11374 2985,11358 3007,11350 3026,11351 " style="fill: white; stroke: black; stroke-width: 30" />
<polyline points="3253,11266 3243,11266 3223,11290 3208,11345 3222,11386 3238,11411 3281,11410 3305,11402 3319,11383 3306,11363 3282,11352 3278,11340 3279,11344 3276,11358 3293,11374 3336,11390 3413,11395 3467,11382 3483,11361 3447,11338 3425,11323 3417,11327 3430,11340 3455,11381 3507,11425 " style="fill: white; stroke: black; stroke-width: 30" />
<polyline points="3849,11381 3859,11413 3870,11429 3864,11435 3843,11425 3822,11401 " style="fill: white; stroke: black; stroke-width: 30" />
<polyline points="4093,11369 4074,11401 4057,11420 4055,11421 4054,11410 4063,11380 4075,11368 4083,11369 4108,11383 4190,11401 " style="fill: white; stroke: black; stroke-width: 30" />
<polyline points="4351,11375 4357,11347 4360,11342 4383,11340 4395,11371 4391,11409 4372,11430 4353,11435 4348,11423 4347,11399 4353,11392 4348,11394 4366,11400 4431,11418 " style="fill: white; stroke: black; stroke-width: 30" />
<polyline points="4623,11352 4629,11319 4617,11309 4606,11308 4603,11314 4545,11357 4497,11398 4482,11428 4469,11447 4458,11453 4472,11449 4499,11431 4540,11406 4571,11389 4577,11385 4583,11387 4571,11417 4564,11440 4545,11458 4534,11464 4511,11459 4509,11422 4507,11382 4513,11364 4520,11368 " style="fill: white; stroke: black; stroke-width: 30" />
<polyline points="4739,11372 4721,11361 4690,11358 4652,11382 4656,11407 4671,11439 4719,11455 4787,11449 4872,11416 4942,11368 4966,11333 4961,11321 4929,11336 4867,11379 4841,11428 4765,11317 " style="fill: white; stroke: black; stroke-width: 30" />
<polyline points="2403,12114 2400,12153 2381,12166 2342,12161 2314,12142 2306,12124 " style="fill: white; stroke: black; stroke-width: 30" />
<polyline points="2650,11836 2634,11851 2610,11916 2578,12004 2550,12079 2547,12110 2549,12105 2549,12072 2542,12038 2556,12024 2549,12027 2589,12032 2580,11855 " style="fill: white; stroke: black; stroke-width: 30" />
<polyline points="2622,11803 " style="fill: white; stroke: black; stroke-width: 30" />
<polyline points="2820,12127 2817,12114 2797,12081 2807,12039 2818,12021 2865,12002 " style="fill: white; stroke: black; stroke-width: 30" />
<polyline points="3048,12135 3038,12092 3033,12065 3036,12055 3036,12054 3041,12054 3063,12052 3089,12057 3102,12070 3107,12082 3100,12104 3106,12115 3148,12104 3160,12101 3157,12101 3156,12105 " style="fill: white; stroke: black; stroke-width: 30" />
<polyline points="3760,11797 3755,11798 3699,11865 3616,11973 " style="fill: white; stroke: black; stroke-width: 30" />
<polyline points="3982,11886 3950,11866 3951,11862 3925,11893 3892,11969 3854,12040 3881,12068 3933,12066 4007,12033 4051,12020 4043,12028 4027,12052 4031,12088 4091,12102 4131,12103 4158,12079 4171,12030 4149,11990 4129,11952 " style="fill: white; stroke: black; stroke-width: 30" />
<polyline points="4293,11949 4318,11950 4341,11961 4335,12000 4332,12035 4298,12077 4273,12099 4236,12102 4212,12080 4209,12054 4226,12042 4281,12030 4300,12054 " style="fill: white; stroke: black; stroke-width: 30" />
<polyline points="4464,12108 4428,12122 4412,12114 4407,12092 4432,12064 4480,12038 4561,12013 4660,11988 4689,11983 4686,11983 4666,11997 4648,12016 4626,12052 4631,12066 4630,12069 4628,12058 4624,12054 4632,12054 4655,12071 4715,12087 4777,12096 4821,12093 4814,12074 4781,12049 4743,12053 4727,12075 4739,12101 4792,12106 4841,12094 4860,12071 4873,12053 4925,12028 5008,12028 " style="fill: white; stroke: black; stroke-width: 30" />
<polyline points="2527,12324 2529,12321 2528,12329 2508,12389 2463,12489 2451,12565 2465,12589 " style="fill: white; stroke: black; stroke-width: 30" />
<polyline points="2428,12486 2379,12451 2351,12433 2378,12416 2404,12398 2413,12382 2417,12365 2414,12351 2406,12344 2401,12344 2411,12344 2406,12345 2413,12346 2430,12342 2483,12336 2640,12331 2821,12329 " style="fill: white; stroke: black; stroke-width: 30" />
<polyline points="2802,12466 2783,12462 2755,12481 2719,12527 2697,12568 2710,12581 2764,12570 2824,12565 2848,12569 2853,12570 2848,12571 2865,12558 2920,12552 2944,12576 2952,12601 2960,12602 2957,12591 2979,12552 2982,12531 2993,12515 3021,12503 3038,12509 " style="fill: white; stroke: black; stroke-width: 30" />
<polyline points="3235,12513 3247,12492 3285,12459 3328,12435 3340,12438 3354,12454 3347,12495 3301,12540 3254,12578 3213,12592 3214,12574 3215,12548 3217,12514 3232,12491 3248,12474 3297,12473 3353,12489 3407,12517 3435,12551 3445,12579 3450,12588 3431,12595 3418,12595 3381,12604 " style="fill: white; stroke: black; stroke-width: 30" />
<polyline points="3527,12380 " style="fill: white; stroke: black; stroke-width: 30" />
<polyline points="3553,12665 3533,12657 3552,12631 3587,12593 3637,12564 3665,12558 3673,12568 3686,12586 3720,12601 3767,12614 3833,12610 3863,12585 3853,12552 3774,12538 3733,12536 3735,12544 " style="fill: white; stroke: black; stroke-width: 30" />
<polyline points="4433,12422 4468,12404 4459,12411 4451,12451 4408,12529 4367,12587 4365,12599 4381,12586 4413,12533 4472,12439 4543,12363 4595,12336 4615,12338 4622,12364 4607,12414 4560,12464 4506,12503 4451,12539 4446,12557 4454,12578 4487,12593 4558,12594 " style="fill: white; stroke: black; stroke-width: 30" />
<polyline points="4692,12599 4671,12599 4662,12582 4674,12544 4690,12525 4698,12517 4714,12520 4729,12544 4773,12571 4745,12406 " style="fill: white; stroke: black; stroke-width: 30" />
<polyline points="4877,12615 4886,12593 4921,12557 4918,12541 " style="fill: white; stroke: black; stroke-width: 30" />
<polyline points="4919,12519 4901,12512 4855,12521 4810,12539 4827,12546 4833,12570 4855,12596 4891,12613 4928,12612 4979,12571 5037,12509 5087,12436 5117,12386 5126,12364 5123,12364 5125,12369 5096,12415 5069,12479 5048,12544 " style="fill: white; stroke: black; stroke-width: 30" />
<polyline points="2605,13017 2624,13088 2606,13115 2542,13120 2485,13108 2464,13081 2440,12842 " style="fill: white; stroke: black; stroke-width: 30" />
<polyline points="2852,12991 2856,12985 2859,12971 2808,12955 2798,12933 2793,12931 " style="fill: white; stroke: black; stroke-width: 30" />
<polyline points="3044,12787 3031,12787 3017,12804 2967,12873 2920,12965 2923,13023 2964,13042 2988,12825 " style="fill: white; stroke: black; stroke-width: 30" />
<polyline points="3116,13058 3057,13043 3029,13014 3035,12974 3076,12946 3091,12953 " style="fill: white; stroke: black; stroke-width: 30" />
<polyline points="3993,12833 3969,12826 3907,12830 3844,12851 3810,12881 3779,12937 3762,12994 3744,13027 3718,13042 3688,13044 3653,13036 3640,13027 3653,13014 " style="fill: white; stroke: black; stroke-width: 30" />
<polyline points="3957,12949 3911,12974 3867,13019 3841,13054 3837,13080 3833,13085 3823,13078 3815,13043 3816,13008 3819,12998 3835,12998 3856,13023 3905,13054 3895,12891 " style="fill: white; stroke: black; stroke-width: 30" />
<polyline points="4163,12840 4163,12823 4170,12820 4168,12840 4139,12906 4108,12967 4106,12989 4119,12987 4139,12980 4177,12973 4208,12982 4261,12998 4266,13014 4260,13019 4263,13020 4270,13024 " style="fill: white; stroke: black; stroke-width: 30" />
<polyline points="4297,12977 4278,12952 4277,12941 4293,12931 4312,12944 4332,12971 4331,13011 4309,13065 4251,13109 4240,13118 4235,13113 4234,13082 4258,13042 4266,13029 4290,13024 4320,13037 4344,13068 4353,13096 4381,13102 4457,13087 4481,13064 4471,13034 4477,13002 4491,12975 4528,12956 4504,12970 4528,12990 4522,13022 4530,13038 4550,13037 4552,13027 4589,12998 4627,12983 4709,12983 4781,13020 4855,13068 4892,13121 4907,13161 4892,13185 4894,13182 4895,13177 " style="fill: white; stroke: black; stroke-width: 30" />
<polyline points="4714,13154 4708,13154 4700,13155 4715,13150 4719,13153 4704,13160 4698,13167 4664,13189 4642,13195 4631,13187 4612,13183 4649,13127 4699,13079 4734,13062 4822,13051 4923,13068 " style="fill: white; stroke: black; stroke-width: 30" />
<polyline points="-491,12639 " style="fill: white; stroke: black; stroke-width: 30" />
<polyline points="-2868,7018 -2873,6996 -2903,6975 -2972,6968 -3039,6983 -3069,6998 -3065,7016 -3048,7086 -3013,7174 -2996,7259 -3003,7311 -3037,7316 -3075,7299 -3118,7259 -3143,7227 -3158,7203 -3149,7203 -3085,7201 -2993,7196 -2888,7176 -2816,7146 -2786,7134 -2782,7139 -2791,7154 -2802,7179 -2800,7193 -2798,7199 -2796,7213 -2798,7256 " style="fill: white; stroke: black; stroke-width: 30" />
<polyline points="-2543,7136 -2606,7117 -2635,7110 -2627,7117 -2621,7174 -2601,7228 -2602,7259 -2630,7273 -2682,7271 -2707,7253 " style="fill: white; stroke: black; stroke-width: 30" />
<polyline points="-2508,7165 -2505,7171 -2499,7178 -2505,7180 -2509,7192 -2511,7209 -2517,7224 " style="fill: white; stroke: black; stroke-width: 30" />
<polyline points="-2468,6931 -2484,6917 -2486,6910 -2478,6909 -2475,6914 -2470,6931 -2474,6940 -2483,6943 -2490,6939 -2494,6929 " style="fill: white; stroke: black; stroke-width: 30" />
<polyline points="-2447,7156 -2441,7176 -2437,7219 -2445,7306 -2478,7404 -2502,7458 -2514,7475 -2519,7465 -2494,7393 -2440,7267 -2359,7192 -2278,7167 -2231,7171 -2257,7206 -2356,7250 -2467,7265 -2515,7249 -2508,7210 -2443,7153 " style="fill: white; stroke: black; stroke-width: 30" />
<polyline points="-2092,6916 -2119,6921 -2158,6987 -2212,7101 -2254,7184 -2248,7207 -2228,7201 -2173,7163 -2126,7139 -2111,7151 -2106,7204 -2124,7252 -2139,7267 -2142,7259 -2123,7230 -2104,7204 -2084,7193 -2007,7168 -1937,7156 -1915,7170 -1928,7196 -1965,7243 -1993,7270 -2008,7273 -2004,7259 -1997,7210 -1979,7153 -1967,7127 -1966,7129 -1948,7144 -1916,7168 -1898,7185 -1891,7192 -1889,7193 -1909,7197 " style="fill: white; stroke: black; stroke-width: 30" />
<polyline points="-1717,7097 -1725,7092 -1740,7086 -1750,7084 -1765,7099 -1781,7156 -1776,7216 -1777,7255 -1802,7267 -1860,7265 " style="fill: white; stroke: black; stroke-width: 30" />
<polyline points="-1174,7148 -1201,7133 -1242,7115 -1299,7104 -1340,7118 -1344,7136 -1303,7168 -1236,7178 -1192,7180 -1179,7186 -1194,7246 -1211,7344 -1229,7428 -1245,7494 -1265,7523 -1296,7511 " style="fill: white; stroke: black; stroke-width: 30" />
<polyline points="-1068,6934 -1047,6922 -1033,6923 -1030,6932 -1052,6998 -1075,7076 -1079,7133 -1046,7182 -998,7202 -936,7191 -900,7174 -898,7167 -890,7168 -892,7174 -898,7191 -899,7195 -890,7196 -856,7188 -813,7183 -800,7194 -800,7206 -791,7222 " style="fill: white; stroke: black; stroke-width: 30" />
<polyline points="-817,7013 -831,7006 -827,7001 -822,6998 " style="fill: white; stroke: black; stroke-width: 30" />
<polyline points="-724,7155 -739,7143 -759,7147 -780,7185 -762,7230 -716,7264 -670,7266 -625,7228 -568,7144 -509,7049 -471,6999 -476,6991 -498,7005 -548,7063 -606,7149 -633,7209 -626,7243 -596,7253 -531,7233 -480,7209 -489,7194 -530,7189 -583,7206 -601,7226 -596,7253 -574,7276 -522,7277 -457,7255 " style="fill: white; stroke: black; stroke-width: 30" />
<polyline points="-272,6990 -263,6967 -276,6967 -311,6998 -358,7067 -390,7146 -386,7204 -357,7241 -307,7241 -245,7212 -231,7199 -237,7200 -264,7221 -282,7255 -281,7281 -273,7287 " style="fill: white; stroke: black; stroke-width: 30" />
<polyline points="-167,7049 -181,7004 -187,6996 -185,6998 -181,7013 " style="fill: white; stroke: black; stroke-width: 30" />
<polyline points="-106,7206 -136,7186 -170,7181 -186,7194 -178,7225 -133,7245 -50,7223 10,7187 36,7140 29,7112 24,7104 28,7101 39,7093 51,7080 60,7061 56,7048 59,7033 57,7025 55,7025 53,7032 51,7039 36,7069 17,7123 13,7180 27,7214 59,7233 92,7235 96,7235 " style="fill: white; stroke: black; stroke-width: 30" />
<polyline points="-2946,7442 -2957,7435 -2973,7463 -3009,7602 -3047,7767 -3064,7860 -3055,7906 -3021,7938 -2948,7942 -2876,7917 -2839,7889 " style="fill: white; stroke: black; stroke-width: 30" />
<polyline points="-2319,7800 -2308,7784 -2304,7776 -2315,7776 -2375,7808 -2447,7889 -2477,7950 -2449,7990 -2383,8012 -2280,7978 -2192,7916 -2160,7878 -2152,7866 -2164,7865 -2169,7866 -2178,7882 -2210,7937 -2213,7955 -2191,7963 -2143,7953 -2119,7936 -2116,7935 -2129,7942 -2122,7961 -2094,7964 -2038,7943 " style="fill: white; stroke: black; stroke-width: 30" />
<polyline points="-1799,8026 -1810,8024 -1798,8007 -1772,7953 -1745,7897 -1720,7869 -1718,7867 -1706,7879 -1677,7900 -1631,7910 -1574,7904 -1566,7893 -1596,7878 -1654,7880 -1684,7904 -1673,7919 -1628,7944 -1553,7955 -1496,7947 -1471,7929 -1460,7907 -1462,7897 -1466,7894 -1457,7895 -1449,7902 " style="fill: white; stroke: black; stroke-width: 30" />
<polyline points="-1151,7643 -1173,7645 -1193,7690 -1230,7775 -1270,7865 -1293,7912 -1299,7926 -1298,7924 -1291,7910 -1280,7865 -1276,7854 -1269,7857 -1267,7862 -1247,7875 -1198,7879 -1113,7865 " style="fill: white; stroke: black; stroke-width: 30" />
<polyline points="-951,7707 -975,7693 -992,7685 -1012,7693 -1059,7748 -1096,7812 -1111,7864 -1099,7899 -1068,7914 -1018,7892 -961,7852 -936,7825 -934,7819 -938,7823 -950,7836 -983,7876 -1006,7922 -1013,7954 -990,7968 -928,7951 -832,7905 -775,7881 -786,7885 -844,7919 -925,7996 " style="fill: white; stroke: black; stroke-width: 30" />
<polyline points="-2384,8112 -2390,8114 -2415,8146 -2462,8211 -2473,8273 -2460,8304 -2427,8323 -2370,8329 -2320,8321 -2288,8319 " style="fill: white; stroke: black; stroke-width: 30" />
<polyline points="-2224,8248 -2240,8245 -2242,8244 -2222,8248 -2202,8255 -2192,8263 -2199,8271 -2224,8303 -2246,8318 -2259,8329 -2252,8328 " style="fill: white; stroke: black; stroke-width: 30" />
<polyline points="-1998,8179 -2006,8177 -1999,8182 -1987,8188 " style="fill: white; stroke: black; stroke-width: 30" />
<polyline points="-2035,8250 -2080,8306 -2104,8375 -2085,8419 -2032,8441 -1943,8438 -1883,8436 " style="fill: white; stroke: black; stroke-width: 30" />
<polyline points="-2042,8313 -2049,8315 -2033,8319 -1974,8331 -1890,8335 -1825,8326 -1811,8323 -1814,8331 -1828,8358 -1836,8400 -1821,8413 -1789,8412 -1732,8391 -1698,8375 -1697,8376 -1713,8396 -1721,8436 -1696,8459 -1635,8458 -1567,8453 -1542,8465 -1543,8489 -1547,8496 -1550,8480 -1537,8440 -1537,8417 -1533,8408 -1527,8407 " style="fill: white; stroke: black; stroke-width: 30" />
<polyline points="-1295,8339 -1342,8326 -1386,8351 -1388,8398 -1349,8442 -1298,8457 -1264,8449 -1260,8437 -1268,8421 -1278,8415 -1264,8408 -1203,8372 -1156,8351 -1168,8352 -1208,8362 -1223,8361 " style="fill: white; stroke: black; stroke-width: 30" />
<polyline points="-1000,8373 -1029,8347 -1051,8327 -1080,8317 -1094,8323 -1089,8361 -1073,8417 -1054,8476 -1057,8508 -1091,8530 -1130,8529 -1158,8509 -1166,8482 -1130,8423 " style="fill: white; stroke: black; stroke-width: 30" />
<polyline points="-981,8440 -983,8430 -979,8418 -947,8410 -890,8407 -845,8416 " style="fill: white; stroke: black; stroke-width: 30" />
<polyline points="-780,8398 -760,8372 -740,8359 -732,8362 -737,8385 -774,8438 -815,8474 -843,8492 -860,8480 -856,8456 -841,8436 -819,8428 -777,8437 -709,8263 " style="fill: white; stroke: black; stroke-width: 30" />
<polyline points="-633,8523 -644,8513 -639,8487 -610,8446 -566,8401 -539,8369 -535,8367 -540,8371 -544,8373 -539,8375 -543,8381 -543,8382 -538,8382 -536,8382 -533,8380 -533,8378 -534,8379 -533,8378 -531,8378 -536,8379 -539,8379 -538,8377 -543,8379 -546,8379 -546,8380 -543,8383 -547,8382 -549,8380 -551,8382 -552,8382 -536,8382 -528,8385 -513,8387 -505,8387 -495,8390 -489,8390 -482,8389 -479,8390 -476,8391 -468,8394 -439,8201 " style="fill: white; stroke: black; stroke-width: 30" />
<polyline points="-352,8459 -334,8450 -326,8440 -324,8429 -315,8416 -318,8402 -311,8388 -339,8375 -346,8371 -339,8158 " style="fill: white; stroke: black; stroke-width: 30" />
<polyline points="-2082,8894 -2057,8898 -2054,8900 -2040,8902 -2024,8903 -2026,8897 -2001,8872 -1975,8810 -1964,8739 -1952,8690 -1955,8661 -1959,8659 -1961,8667 -1958,8717 -1942,8773 -1905,8812 -1858,8826 -1818,8811 -1762,8760 -1737,8720 -1752,8718 -1765,8733 -1792,8778 -1787,8815 -1754,8848 -1730,8870 -1705,8871 -1683,8847 -1650,8808 -1614,8775 -1608,8753 -1619,8745 -1653,8732 -1697,8743 -1720,8772 -1706,8808 -1651,8843 -1578,8836 -1524,8807 -1518,8794 -1532,8793 -1543,8805 -1552,8831 -1544,8855 -1524,8872 -1459,8659 " style="fill: white; stroke: black; stroke-width: 30" />
<polyline points="-1414,8920 -1406,8913 -1390,8884 -1354,8856 -1333,8845 -1335,8844 -1340,8852 -1321,8870 -1271,8867 -1202,8847 -1171,8829 -1190,8822 -1212,8820 -1216,8825 -1217,8843 -1210,8855 -1181,8866 -1149,8865 -1132,8867 -1133,8874 -1136,8885 -1110,8896 " style="fill: white; stroke: black; stroke-width: 30" />
<polyline points="-1035,8929 -1035,8903 -990,8868 -933,8844 -886,8849 -880,8862 -880,8880 -873,8897 -870,8904 -875,8910 -883,8912 -881,8908 -868,8895 -833,8869 -827,8861 -825,8860 -838,8862 -841,8864 -838,8862 -843,8862 -837,8860 -825,8859 -812,8859 -799,8851 -792,8842 -772,8832 -760,8829 -759,8822 -754,8821 -756,8819 -763,8820 -761,8823 -761,8825 -765,8825 -750,8829 -750,8830 -724,8849 -698,8888 -703,8941 -724,9003 -756,9054 -801,9090 -823,9099 -829,9093 -837,9067 -820,9028 -783,8979 -700,8928 -597,8896 " style="fill: white; stroke: black; stroke-width: 30" />
<polyline points="-2101,9259 -2073,9321 -2019,9368 -2026,9384 -2069,9389 -2135,9372 -2166,9338 -2134,9265 -2036,9204 -1935,9172 -1873,9175 -1873,9197 -1893,9247 -1900,9284 -1894,9300 -1874,9306 -1837,9294 -1793,9272 -1781,9264 -1774,9265 -1768,9272 -1767,9291 -1745,9313 -1705,9325 " style="fill: white; stroke: black; stroke-width: 30" />
<polyline points="-1499,9120 -1511,9115 -1509,9118 -1516,9149 -1553,9221 -1573,9273 -1574,9281 -1570,9277 -1556,9260 -1506,9235 -1464,9233 -1427,9264 -1431,9314 -1460,9357 -1472,9363 -1507,9343 -1527,9317 -1540,9287 -1542,9254 " style="fill: white; stroke: black; stroke-width: 30" />
<polyline points="-914,9141 -915,9152 -922,9208 -940,9294 -952,9363 -957,9413 -961,9435 -975,9429 -999,9381 -1038,9313 -1066,9266 -1064,9256 -1057,9254 -1034,9255 -998,9268 -955,9291 -904,9298 -848,9281 -803,9257 -778,9252 -769,9257 -760,9271 -757,9302 -753,9343 -771,9387 -796,9406 -813,9396 -813,9361 -796,9326 -774,9315 -752,9326 -724,9356 -697,9381 -653,9394 -600,9376 -560,9340 -553,9310 -563,9292 -571,9287 -581,9295 -606,9326 -602,9362 -584,9384 -559,9386 -532,9380 -537,9379 -543,9378 -546,9381 " style="fill: white; stroke: black; stroke-width: 30" />
<polyline points="-387,9267 -413,9259 -423,9262 -429,9312 -444,9374 -461,9419 -472,9433 -483,9439 -483,9432 -469,9411 " style="fill: white; stroke: black; stroke-width: 30" />
<polyline points="-345,9345 -373,9409 -377,9415 -383,9406 -357,9368 -310,9345 -284,9350 -252,9367 -233,9382 -230,9388 -242,9393 -264,9420 -130,9177 -136,9184 -128,9229 -118,9285 -101,9324 -83,9334 -87,9326 -102,9310 -155,9300 -207,9322 -225,9367 -205,9420 -161,9459 -122,9471 -97,9451 -69,9405 -62,9378 -64,9372 -55,9371 -18,9373 30,9374 67,9378 " style="fill: white; stroke: black; stroke-width: 30" />
<polyline points="-1942,9699 -1937,9685 -1936,9668 -1944,9662 -1968,9664 -2005,9683 -2033,9724 -2038,9777 -1994,9844 -1947,9909 -1931,9950 -1960,9963 -2020,9946 -2057,9903 -2049,9806 -1934,9709 -1801,9639 -1710,9619 -1708,9654 -1752,9739 -1800,9836 -1817,9884 -1811,9908 -1811,9907 -1816,9890 -1827,9836 -1849,9775 -1844,9745 -1814,9733 -1768,9743 -1714,9776 " style="fill: white; stroke: black; stroke-width: 30" />
<polyline points="-1594,9773 -1560,9731 -1521,9724 -1504,9748 -1530,9821 -1581,9886 -1631,9907 -1641,9896 -1628,9851 -1581,9800 -1545,9790 -1518,9813 -1511,9860 -1492,9901 -1451,9912 -1411,9900 -1366,9883 -1348,9877 -1340,9873 -1340,9873 -1340,9872 -1338,9874 " style="fill: white; stroke: black; stroke-width: 30" />
<polyline points="-1140,9812 -1150,9800 -1163,9795 -1211,9816 -1249,9850 -1237,9872 -1204,9890 -1137,9866 -1061,9802 -1021,9720 -998,9664 -1012,9630 -1007,9619 -1009,9625 -1009,9655 -1040,9722 -1049,9792 -1026,9839 " style="fill: white; stroke: black; stroke-width: 30" />
<polyline points="-970,9846 -982,9832 -990,9802 -949,9765 -921,9746 -891,9763 -869,9813 -860,9868 -827,9906 -805,9905 -771,9861 -761,9808 -751,9769 -745,9764 -709,9761 -642,9776 -585,9797 -561,9797 -527,9765 -529,9729 -527,9695 -523,9683 -521,9682 -513,9696 -530,9748 -544,9805 -534,9845 -500,9666 " style="fill: white; stroke: black; stroke-width: 30" />
<polyline points="-532,9883 -503,9879 -483,9846 " style="fill: white; stroke: black; stroke-width: 30" />
<polyline points="-1959,9058 -1797,9081 -1526,9108 -1124,9109 -689,9125 -314,9159 " style="fill: white; stroke: black; stroke-width: 30" />
<polyline points="1685,13816 " style="fill: white; stroke: black; stroke-width: 30" />
<polyline points="1281,1191 1260,1179 1253,1176 1246,1213 1242,1328 1241,1466 1237,1553 1242,1588 1246,1586 1253,1543 1260,1431 1242,1291 1220,1193 1208,1158 1210,1150 1207,1155 1204,1165 1202,1210 1192,1290 1205,1392 1246,1488 1318,1530 1438,1512 1561,1437 1663,1333 1707,1248 1705,1236 1697,1243 1683,1279 1656,1389 1653,1503 1552,1387 " style="fill: white; stroke: black; stroke-width: 30" />
<polyline points="1873,1328 1908,1347 1955,1430 1973,1511 1950,1570 1900,1604 1857,1601 1841,1580 1834,1500 2035,1589 2034,1552 2099,1481 2195,1431 2262,1418 2274,1431 2261,1481 " style="fill: white; stroke: black; stroke-width: 30" />
<polyline points="2523,1392 2481,1374 2426,1371 2366,1395 2350,1424 2401,1455 2506,1452 2593,1437 2602,1440 2593,1449 2569,1494 2551,1573 2540,1668 2514,1762 2466,1836 2424,1867 2397,1860 2390,1787 2431,1652 2480,1553 2527,1494 " style="fill: white; stroke: black; stroke-width: 30" />
<polyline points="2803,1392 2801,1395 2800,1416 2796,1461 2792,1503 2778,1551 2767,1568 2743,1585 2729,1581 2716,1559 2718,1505 " style="fill: white; stroke: black; stroke-width: 30" />
<polyline points="2837,1307 2790,1338 2764,1340 2756,1324 2755,1284 2782,1227 2654,1080 " style="fill: white; stroke: black; stroke-width: 30" />
<polyline points="3027,1442 2929,1469 2903,1496 2924,1544 3005,1583 3138,1599 3050,1501 " style="fill: white; stroke: black; stroke-width: 30" />
<polyline points="4112,1392 4096,1362 4067,1328 4003,1290 3914,1283 3835,1318 3803,1400 3825,1511 3884,1644 3923,1724 3902,1748 3836,1740 3757,1701 3701,1642 3681,1586 3717,1544 3628,1448 " style="fill: white; stroke: black; stroke-width: 30" />
<polyline points="4164,1530 4103,1509 4039,1518 3994,1549 3998,1604 4036,1665 4118,1689 4245,1651 4364,1575 4429,1474 4428,1410 4399,1367 4366,1359 4328,1413 4312,1497 4337,1589 4391,1652 4474,1678 4521,1704 4515,1707 4493,1705 4464,1703 " style="fill: white; stroke: black; stroke-width: 30" />
<polyline points="4625,1594 4616,1598 4603,1611 4581,1658 4574,1714 4582,1755 4594,1775 " style="fill: white; stroke: black; stroke-width: 30" />
<polyline points="4645,1451 4646,1410 4671,1385 4699,1397 4734,1435 4739,1481 4728,1490 4695,1490 4676,1463 4683,1429 4703,1380 " style="fill: white; stroke: black; stroke-width: 30" />
<polyline points="4818,1552 4821,1538 4872,1534 4921,1547 4944,1552 4943,1572 4917,1608 4852,1686 4803,1756 4804,1827 4846,1888 4898,1907 4921,1882 " style="fill: white; stroke: black; stroke-width: 30" />
<polyline points="4710,1637 4740,1645 4880,1675 5002,1696 5047,1722 " style="fill: white; stroke: black; stroke-width: 30" />
<polyline points="5147,1757 5099,1794 5019,1817 4936,1803 4911,1773 4917,1741 4791,1591 " style="fill: white; stroke: black; stroke-width: 30" />
<polyline points="3617,1429 3596,1427 3576,1435 3561,1441 3552,1452 3553,1447 3546,1453 3544,1454 3541,1452 3539,1455 3541,1449 3539,1436 3531,1393 3516,1354 3500,1310 3481,1264 3453,1212 3411,1173 3365,1118 3314,1057 3254,997 3193,938 3123,885 3037,819 2934,778 2811,745 2678,729 2546,717 2410,713 2269,711 2115,709 1954,698 1787,705 1625,706 1475,714 1333,722 1190,740 1039,745 883,765 738,783 605,817 487,862 377,917 289,973 239,1023 211,1078 202,1142 209,1207 236,1259 285,1302 352,1331 443,1350 549,1352 639,1354 690,1349 701,1349 702,1347 700,1343 699,1345 697,1345 699,1344 702,1346 703,1347 705,1345 " style="fill: white; stroke: black; stroke-width: 30" />
<polyline points="890,1292 926,1313 933,1315 920,1323 872,1348 806,1385 767,1417 745,1433 745,1433 " style="fill: white; stroke: black; stroke-width: 30" />
<polyline points="3651,1155 3674,1108 3705,1068 3702,1044 3690,1029 3682,1021 3673,1034 3672,1036 3668,1041 3663,1059 3659,1119 3635,1227 3604,1357 3583,1482 3577,1576 3575,1637 3577,1657 3576,1672 3579,1677 " style="fill: white; stroke: black; stroke-width: 30" />
<polyline points="-1793,12740 " style="fill: white; stroke: black; stroke-width: 30" />

</svg>