<?xml version="1.0" standalone="no"?>
<!DOCTYPE svg PUBLIC "-//W3C//DTD SVG 1.1//EN" "http://www.w3.org/Graphics/SVG/1.1/DTD/svg11.dtd">
<svg width="210mm" height="297mm" viewBox="-7000 500 14000 20000" version="1.1" xmlns="http://www.w3.org/2000/svg">

<polyline points="284,1706 298,1657 350,1615 419,1590 471,1610 493,1653 482,1701 452,1732 423,1743 393,1727 377,1697 374,1669 381,1660 400,1658 432,1679 467,1710 488,1743 481,1773 437,1792 386,1783 360,1744 350,1679 358,1632 378,1607 415,1600 464,1619 502,1665 511,1707 487,1748 435,1763 373,1750 344,1703 346,1645 367,1612 410,1602 458,1627 487,1681 480,1733 452,1767 410,1771 367,1742 345,1689 349,1653 369,1633 418,1635 460,1671 477,1723 463,1763 415,1786 377,1771 358,1729 355,1684 364,1661 369,1659 374,1668 379,1689 385,1711 387,1715 387,1712 384,1702 383,1680 395,1641 " style="fill: white; stroke: black; stroke-width: 30" />
<polyline points="333,1752 341,1744 354,1733 356,1729 353,1734 337,1761 231,1898 65,2059 -51,2173 -111,2234 -118,2244 -110,2231 -89,2200 -72,2168 " style="fill: white; stroke: black; stroke-width: 30" />
<polyline points="-523,2548 -502,2539 -474,2533 -449,2526 -433,2515 -430,2489 -460,2460 -558,2465 -695,2527 -773,2612 -770,2682 -677,2758 -533,2795 -458,2782 " style="fill: white; stroke: black; stroke-width: 30" />
<polyline points="-230,2508 -233,2509 -246,2531 -270,2604 -291,2705 -296,2779 -292,2820 -291,2815 " style="fill: white; stroke: black; stroke-width: 30" />
<polyline points="-73,2530 -79,2545 -92,2602 -106,2710 -97,2799 -86,2860 -83,2885 " style="fill: white; stroke: black; stroke-width: 30" />
<polyline points="-302,2606 -277,2608 -217,2629 -113,2652 -31,2664 -12,2659 " style="fill: white; stroke: black; stroke-width: 30" />
<polyline points="487,2724 459,2726 402,2753 357,2805 358,2867 416,2933 499,2984 " style="fill: white; stroke: black; stroke-width: 30" />
<polyline points="716,2785 688,2780 646,2783 616,2799 618,2819 632,2865 633,2918 601,2971 579,2985 556,2975 538,2954 541,2949 559,2951 " style="fill: white; stroke: black; stroke-width: 30" />
<polyline points="799,2856 753,2853 718,2871 679,2915 675,2964 710,2986 769,2959 804,2922 801,2917 783,2925 760,2950 764,2959 794,2965 841,2977 874,2992 878,2999 877,2992 894,2954 910,2917 916,2893 915,2891 915,2893 925,2904 963,2915 1018,2924 1050,2948 1055,2979 1042,3002 1038,3007 1040,3005 1039,3011 1017,3044 1008,3070 1039,3046 " style="fill: white; stroke: black; stroke-width: 30" />
<polyline points="1226,2770 1219,2767 1202,2783 1165,2840 1141,2909 1138,2952 " style="fill: white; stroke: black; stroke-width: 30" />
<polyline points="1322,2811 1319,2812 1302,2846 1283,2897 1260,2947 1244,2985 1220,3024 1195,3067 1176,3101 1173,3110 1174,3109 1173,3111 1172,3112 1173,3115 1175,3111 1185,3093 1199,3055 1201,3025 1206,2995 1209,2971 1205,2961 1203,2963 1202,2964 1206,2970 1218,2975 1254,2990 1305,3007 " style="fill: white; stroke: black; stroke-width: 30" />
<polyline points="1416,3003 1382,2999 1325,3026 1284,3071 1289,3100 1329,3126 1397,3133 1467,3117 1511,3073 " style="fill: white; stroke: black; stroke-width: 30" />
<polyline points="1624,2900 1577,2894 1525,2937 1497,3008 1494,3064 1504,3087 1516,3102 1530,3123 1534,3143 1536,3151 1547,3149 1569,3139 " style="fill: white; stroke: black; stroke-width: 30" />
<polyline points="1794,2849 1799,2922 1756,3054 1693,3175 1633,3254 1594,3268 1598,3197 " style="fill: white; stroke: black; stroke-width: 30" />
<polyline points="-839,3191 -824,3174 -807,3158 -807,3158 -821,3183 -878,3295 -989,3490 -1140,3729 -1330,3988 -1518,4233 -1659,4438 -1748,4584 -1780,4656 " style="fill: white; stroke: black; stroke-width: 30" />
<polyline points="-1900,4723 -1871,4680 -1829,4643 -1784,4631 -1742,4653 -1721,4716 -1735,4781 -1772,4820 -1812,4822 -1855,4783 -1882,4738 -1880,4723 -1869,4718 -1823,4714 -1765,4725 -1745,4741 -1757,4758 -1799,4775 -1870,4768 -1910,4728 -1919,4697 -1890,4661 -1823,4636 -1753,4650 -1718,4699 -1726,4754 -1769,4800 -1828,4812 -1869,4775 -1897,4714 -1896,4663 -1869,4639 -1823,4639 -1780,4678 -1769,4732 -1785,4765 -1817,4770 -1856,4745 -1881,4722 -1883,4708 -1869,4695 -1821,4678 -1780,4694 -1761,4729 -1760,4751 -1768,4749 " style="fill: white; stroke: black; stroke-width: 30" />
<polyline points="-1147,4712 -1148,4698 -1151,4680 -1160,4662 -1186,4655 -1245,4668 -1312,4699 -1321,4731 -1290,4785 -1239,4860 -1229,4910 -1258,4938 -1284,4941 -1295,4924 -1294,4902 -1280,4871 -1259,4859 " style="fill: white; stroke: black; stroke-width: 30" />
<polyline points="-1147,4781 -1210,4811 -1233,4864 -1202,4899 -1103,4903 -996,4862 -918,4809 -888,4765 -896,4743 -909,4737 -928,4752 -979,4818 -992,4872 -970,4902 -917,4906 -882,4914 -884,4942 -909,4971 -903,4961 " style="fill: white; stroke: black; stroke-width: 30" />
<polyline points="-714,4794 -718,4796 -739,4821 -784,4892 -810,4957 -800,4982 -745,5000 -655,4990 -581,4964 -548,4938 -543,4914 -550,4910 -563,4922 -602,4971 -638,5012 -635,5028 -585,5027 -495,5019 -454,5039 -473,5076 -499,5098 -488,5080 -433,5012 " style="fill: white; stroke: black; stroke-width: 30" />
<polyline points="-500,4827 -494,4821 -491,4822 -492,4823 -482,4829 -432,4850 " style="fill: white; stroke: black; stroke-width: 30" />
<polyline points="-383,4973 -393,4979 -396,5001 -383,5038 -374,5067 -384,5086 -427,5104 -459,5102 -464,5099 -437,5100 -359,5099 -272,5075 -220,5029 -191,4981 -193,4965 -194,4969 -207,4992 -209,5014 -213,5034 -224,5065 -248,5109 -275,5147 -281,5151 -292,5142 -298,5133 -292,5133 -285,5134 -262,5137 -226,5129 -147,5111 -58,5097 -1,5078 2,5057 -17,5044 -55,5047 -103,5072 -108,5104 -93,5130 -56,5142 16,5124 123,5077 223,5025 254,4989 245,4971 218,4964 165,4982 97,5035 65,5108 86,5176 141,5224 173,5227 " style="fill: white; stroke: black; stroke-width: 30" />
<polyline points="758,5077 759,5080 756,5093 733,5142 694,5213 669,5276 670,5310 676,5318 678,5293 " style="fill: white; stroke: black; stroke-width: 30" />
<polyline points="797,5220 780,5249 762,5279 757,5303 760,5305 784,5290 849,5245 869,5238 868,5265 854,5316 851,5347 864,5347 908,5314 " style="fill: white; stroke: black; stroke-width: 30" />
<polyline points="1137,5191 1139,5153 1131,5142 1115,5149 1061,5206 1007,5299 976,5367 973,5410 975,5414 976,5389 971,5360 964,5339 979,5326 1019,5318 1070,5323 1101,5329 1111,5350 " style="fill: white; stroke: black; stroke-width: 30" />
<polyline points="-1889,4876 -1884,4878 -1887,4879 -1893,4895 -1925,4967 -2003,5117 -2113,5308 -2201,5478 -2260,5604 -2283,5665 -2295,5693 -2299,5708 -2300,5713 -2296,5706 -2287,5685 -2274,5640 -2276,5598 " style="fill: white; stroke: black; stroke-width: 30" />
<polyline points="-2598,5813 -2613,5808 -2618,5803 -2609,5798 -2585,5787 -2519,5768 -2421,5760 -2278,5769 -2182,5804 -2136,5840 -2136,5858 -2156,5866 -2205,5890 -2274,5924 -2354,5964 -2420,5982 -2482,5981 -2525,5960 -2545,5941 -2560,5929 -2578,5924 -2586,5922 -2589,5917 -2596,5901 -2601,5891 -2602,5881 -2599,5877 -2596,5870 " style="fill: white; stroke: black; stroke-width: 30" />
<polyline points="-2605,5798 -2609,5797 -2614,5824 -2627,5904 -2633,6025 -2626,6127 -2620,6209 -2624,6252 -2623,6266 -2628,6285 -2622,6294 -2625,6293 -2625,6291 -2624,6292 -2624,6292 -2624,6292 -2624,6292 -2625,6294 -2623,6295 -2620,6297 -2581,6310 -2498,6317 -2409,6321 -2313,6318 -2249,6300 " style="fill: white; stroke: black; stroke-width: 30" />
<polyline points="-2103,5857 -2115,5867 -2131,5915 -2145,6022 -2156,6169 -2160,6294 -2161,6352 " style="fill: white; stroke: black; stroke-width: 30" />
<polyline points="-2675,6463 -2680,6463 -2681,6477 -2699,6528 -2710,6590 -2699,6610 -2687,6614 -2672,6601 -2659,6564 -2663,6524 -2674,6499 -2678,6471 -2675,6467 -2676,6467 -2674,6472 -2677,6487 -2669,6516 -2651,6541 -2620,6552 -2561,6541 -2490,6496 -2473,6475 -2478,6475 -2486,6477 -2500,6495 -2509,6524 -2516,6581 -2500,6628 -2459,6624 " style="fill: white; stroke: black; stroke-width: 30" />
<polyline points="-2363,6481 -2373,6489 -2380,6498 " style="fill: white; stroke: black; stroke-width: 30" />
<polyline points="-2399,6539 -2387,6515 -2361,6503 -2334,6506 -2315,6531 -2316,6571 -2335,6602 -2363,6622 -2397,6624 -2404,6611 -2403,6591 -2397,6577 -2394,6575 -2386,6592 -2370,6627 -2344,6649 -2291,6625 -2230,6569 -2199,6509 -2193,6479 -2206,6478 -2229,6494 -2257,6536 -2273,6585 -2275,6620 -2265,6630 -2252,6624 -2215,6598 " style="fill: white; stroke: black; stroke-width: 30" />
<polyline points="-2175,6402 -2187,6392 -2195,6390 -2195,6390 -2192,6391 -2189,6391 -2172,6404 -2146,6413 " style="fill: white; stroke: black; stroke-width: 30" />
<polyline points="-2096,6388 -2089,6382 -2091,6382 -2096,6395 -2123,6444 -2150,6524 -2182,6604 -2183,6662 -2157,6659 " style="fill: white; stroke: black; stroke-width: 30" />
<polyline points="-1736,4840 -1746,4837 -1747,4837 -1738,4850 -1702,4923 -1644,5043 -1569,5200 -1481,5382 -1403,5554 -1344,5683 -1290,5744 -1255,5757 -1252,5756 -1277,5739 " style="fill: white; stroke: black; stroke-width: 30" />
<polyline points="-1262,5624 -1262,5612 -1262,5611 -1266,5609 -1265,5612 -1263,5645 -1258,5719 -1258,5786 -1257,5836 -1250,5863 -1250,5864 -1251,5859 -1262,5841 -1277,5819 -1317,5789 -1347,5757 -1364,5734 -1365,5733 -1364,5733 -1360,5735 -1352,5760 -1341,5775 " style="fill: white; stroke: black; stroke-width: 30" />
<polyline points="-1351,6026 -1323,6001 -1302,5990 -1293,5988 -1294,5990 -1297,5990 -1293,5987 -1280,5979 -1268,5972 -1232,5956 -1182,5959 -1125,5992 -1074,6036 -1052,6073 -1052,6092 -1070,6108 -1151,6124 -1269,6129 -1367,6116 -1415,6096 -1418,6075 -1405,6053 -1357,6014 -1283,5979 " style="fill: white; stroke: black; stroke-width: 30" />
<polyline points="-1366,6058 -1376,6053 -1414,6084 -1454,6139 -1474,6198 -1459,6260 -1415,6349 -1361,6433 -1310,6491 -1252,6507 -1166,6470 -1108,6422 -1103,6399 -1118,6387 -1128,6383 -1122,6375 " style="fill: white; stroke: black; stroke-width: 30" />
<polyline points="-1043,6090 -1045,6096 -1050,6104 -1057,6139 -1074,6220 -1102,6340 -1129,6451 -1130,6515 " style="fill: white; stroke: black; stroke-width: 30" />
<polyline points="-1554,6594 -1552,6589 -1555,6596 -1569,6637 -1585,6687 -1580,6709 -1564,6710 -1515,6702 -1489,6701 -1475,6728 -1482,6763 -1484,6788 -1462,6793 -1402,6792 -1345,6796 -1326,6799 -1328,6778 -1344,6722 -1358,6676 -1357,6664 -1359,6664 -1355,6674 -1346,6698 -1331,6722 -1310,6746 -1286,6761 -1249,6759 -1215,6748 -1203,6737 -1209,6724 -1220,6705 -1242,6697 -1256,6703 -1273,6729 -1257,6765 -1227,6796 -1197,6818 -1174,6828 -1145,6808 " style="fill: white; stroke: black; stroke-width: 30" />
<polyline points="-1037,6575 -1072,6642 -1108,6739 -1125,6813 -1114,6831 -1083,6810 -1035,6767 -1008,6755 -987,6775 -984,6810 -1009,6831 -1026,6827 -1056,6801 -1069,6777 -1068,6774 " style="fill: white; stroke: black; stroke-width: 30" />
<polyline points="-2417,4161 -2419,4158 -2422,4164 -2416,4200 -2417,4262 -2412,4334 -2408,4360 -2399,4359 " style="fill: white; stroke: black; stroke-width: 30" />
<polyline points="-2471,4155 -2458,4124 -2431,4106 -2386,4096 -2323,4120 -2256,4185 -2226,4255 -2233,4319 -2264,4361 -2288,4369 -2332,4352 -2375,4317 -2392,4304 -2393,4303 -2386,4306 -2369,4310 " style="fill: white; stroke: black; stroke-width: 30" />
<polyline points="-2171,4173 -2171,4179 -2168,4200 -2168,4236 -2181,4292 -2188,4330 -2188,4334 -2189,4330 -2183,4321 -2180,4296 -2175,4267 -2170,4215 -2171,4165 -2173,4144 -2172,4140 -2171,4142 -2171,4152 -2172,4186 -2168,4236 -2156,4292 -2117,4331 -2061,4341 -2003,4300 -1978,4260 -1970,4227 -1977,4181 -1990,4152 -2008,4131 -2012,4133 -2011,4134 -2006,4135 -1993,4145 -1975,4168 " style="fill: white; stroke: black; stroke-width: 30" />
<polyline points="-1840,4187 -1862,4180 -1883,4177 -1898,4180 -1914,4201 -1903,4245 -1873,4289 -1852,4321 -1859,4337 -1885,4344 -1915,4340 -1926,4335 -1926,4322 -1903,4272 " style="fill: white; stroke: black; stroke-width: 30" />
<polyline points="-1546,5158 -1550,5158 -1553,5158 -1553,5157 -1551,5156 -1544,5156 -1523,5158 -1478,5167 -1381,5189 -1215,5216 -980,5250 -668,5290 -328,5343 -8,5406 278,5471 526,5525 732,5565 858,5589 901,5599 901,5598 894,5596 886,5592 881,5589 879,5589 880,5590 882,5594 886,5606 " style="fill: white; stroke: black; stroke-width: 30" />
<polyline points="5837,12877 5838,12878 5835,12878 5833,12880 5833,12879 5828,12880 5834,12876 5837,12875 5819,12891 5785,12959 5722,13060 5639,13173 5591,13261 5560,13324 5568,13343 5557,13356 5568,13362 5539,13382 5550,13377 5563,13357 " style="fill: white; stroke: black; stroke-width: 30" />
<polyline points="-1386,6186 -1395,6176 -1399,6169 -1399,6165 -1393,6165 -1392,6164 -1383,6165 -1352,6167 -1299,6172 -1259,6180 -1236,6185 -1231,6186 -1230,6183 -1241,6174 " style="fill: white; stroke: black; stroke-width: 30" />
<polyline points="-1381,6154 -1395,6169 -1399,6176 -1410,6204 -1411,6245 -1408,6274 -1406,6289 -1406,6292 -1405,6294 -1405,6293 -1401,6292 -1403,6289 -1402,6289 -1399,6290 -1391,6295 -1364,6302 -1323,6307 -1284,6315 -1264,6318 -1260,6318 -1264,6319 -1261,6319 -1263,6320 -1258,6319 -1262,6317 -1263,6310 " style="fill: white; stroke: black; stroke-width: 30" />
<polyline points="-1245,6213 -1245,6211 -1238,6213 -1234,6223 -1235,6240 -1239,6264 -1251,6291 -1252,6314 -1247,6334 -1226,6339 " style="fill: white; stroke: black; stroke-width: 30" />
<polyline points="-1260,6308 -1260,6307 -1254,6303 -1256,6300 -1251,6298 -1243,6293 -1216,6285 -1184,6278 -1147,6272 -1098,6268 -1031,6259 -927,6237 -808,6213 -694,6193 -582,6180 -460,6165 -320,6148 -162,6128 -13,6114 130,6103 286,6093 448,6082 612,6078 784,6086 953,6097 1115,6119 1284,6141 1422,6175 1550,6220 1676,6274 1805,6329 1942,6384 2075,6440 2186,6498 2288,6549 2388,6599 2495,6646 2602,6696 2698,6746 2783,6788 2853,6826 2925,6857 2969,6879 2991,6894 2991,6900 2986,6901 2987,6898 2987,6897 2986,6897 2982,6898 2989,6896 2991,6895 2994,6891 2967,6880 " style="fill: white; stroke: black; stroke-width: 30" />
<polyline points="3020,6856 3020,6847 3027,6843 3029,6843 3025,6847 3041,6856 3073,6875 3105,6901 3131,6926 3138,6938 3139,6941 3132,6943 3129,6942 3105,6944 3071,6942 3035,6942 3008,6943 3000,6944 3002,6945 3010,6946 3036,6947 3055,6954 " style="fill: white; stroke: black; stroke-width: 30" />
<polyline points="3186,6866 3182,6872 3177,6897 3171,6943 3168,6982 3163,7013 3161,7025 3160,7028 3162,7026 3162,7025 3164,7022 " style="fill: white; stroke: black; stroke-width: 30" />
<polyline points="3169,7021 3185,7019 3246,7014 3290,7012 3292,7012 3288,7010 3273,7008 3261,7007 3270,7001 " style="fill: white; stroke: black; stroke-width: 30" />
<polyline points="3209,6871 3214,6875 3221,6877 3244,6873 3265,6870 3281,6867 3289,6867 3291,6870 3296,6869 3293,6871 3293,6870 3292,6871 3295,6869 3295,6869 3295,6869 3293,6869 3295,6869 3300,6868 3300,6869 3292,6872 3301,6868 3295,6869 3299,6867 3294,6869 3296,6867 3298,6867 3291,6870 3298,6869 3296,6871 3296,6874 3300,6874 3294,6879 3290,6883 3292,6885 3293,6886 3297,6888 3288,6904 3284,6929 3291,6958 3293,6988 3287,7015 3285,7023 3288,7025 3282,7027 3283,7025 3282,7025 3285,7023 3282,7024 3286,7020 " style="fill: white; stroke: black; stroke-width: 30" />
<polyline points="-2526,6050 -2528,6046 -2525,6048 -2527,6046 -2516,6047 -2494,6047 -2439,6052 -2403,6059 -2361,6068 -2340,6074 -2337,6078 -2339,6081 -2344,6080 " style="fill: white; stroke: black; stroke-width: 30" />
<polyline points="-2540,6025 -2545,6028 -2553,6044 -2557,6073 -2554,6115 -2547,6153 -2543,6188 -2539,6212 -2540,6221 -2539,6224 -2540,6221 -2538,6221 -2538,6218 -2535,6216 -2532,6214 -2527,6210 -2496,6209 -2436,6210 -2386,6214 -2337,6215 -2312,6219 -2309,6218 -2309,6218 -2312,6215 -2313,6215 -2312,6215 -2316,6213 -2327,6198 " style="fill: white; stroke: black; stroke-width: 30" />
<polyline points="-2337,6072 -2338,6075 -2340,6081 -2340,6102 -2341,6149 -2344,6199 -2339,6228 -2334,6242 -2337,6241 " style="fill: white; stroke: black; stroke-width: 30" />
<polyline points="-2558,6086 -2557,6083 -2559,6081 -2566,6080 -2578,6079 -2599,6080 -2627,6087 -2668,6095 -2729,6112 -2810,6136 -2877,6167 -2930,6194 -2977,6239 -3014,6291 -3039,6351 -3065,6418 -3085,6489 -3107,6576 -3133,6662 -3150,6761 -3152,6864 -3158,6961 -3150,7059 -3130,7155 -3107,7256 -3077,7354 -3047,7448 -2992,7541 -2924,7625 -2848,7704 -2765,7774 -2685,7845 -2601,7914 -2504,7975 -2402,8033 -2303,8080 -2195,8122 -2071,8154 -1939,8174 -1821,8193 -1703,8208 -1576,8220 -1441,8218 -1300,8203 -1169,8179 -1044,8155 -918,8124 -785,8081 -662,8036 -524,7985 -392,7935 -271,7883 -145,7827 -29,7765 99,7702 214,7647 320,7599 412,7550 498,7497 600,7437 700,7381 783,7333 858,7292 916,7259 981,7221 1045,7184 1094,7153 1124,7131 1145,7116 1164,7100 1194,7077 1243,7054 1273,7035 1303,7017 1323,6999 1334,6994 1345,6991 1368,6982 1389,6973 1415,6963 1438,6958 1441,6959 1449,6959 1473,6952 1504,6947 1533,6945 1548,6946 1556,6945 1562,6940 1565,6937 1565,6936 1568,6936 1570,6936 1574,6933 1581,6931 1587,6931 1589,6931 1582,6932 1584,6931 " style="fill: white; stroke: black; stroke-width: 30" />
<polyline points="1597,6846 1602,6848 1612,6849 1628,6855 1640,6867 1649,6877 1674,6890 1695,6898 1706,6904 1711,6908 1703,6912 1696,6918 1671,6933 1634,6955 1589,6983 1573,6997 1574,7003 1576,7004 1587,6995 " style="fill: white; stroke: black; stroke-width: 30" />
<polyline points="1788,6835 1786,6825 1779,6825 1774,6829 1772,6835 1770,6848 1768,6873 1767,6907 1763,6961 1761,6992 1763,7004 1759,7008 1764,7006 1767,7004 1763,7001 1764,7000 1758,7000 1763,7002 " style="fill: white; stroke: black; stroke-width: 30" />
<polyline points="1746,6996 1750,6996 1768,6995 1790,6992 1838,6986 1859,6986 1868,6987 1878,6985 1878,6987 1885,6985 1882,6985 1878,6984 1881,6976 " style="fill: white; stroke: black; stroke-width: 30" />
<polyline points="1778,6826 1779,6823 1783,6825 1778,6829 1779,6833 1789,6833 1819,6836 1862,6840 1901,6849 1928,6858 1944,6860 1942,6859 1939,6858 1940,6856 1938,6855 1939,6855 1934,6857 1932,6859 1933,6870 1931,6900 1929,6935 1924,6960 1922,6979 1915,6992 1916,6994 1920,6991 1922,6990 1920,6990 1921,6991 1924,6991 1928,6990 " style="fill: white; stroke: black; stroke-width: 30" />
<polyline points="-3807,5212 -3843,5219 -3893,5248 -3936,5290 -3975,5333 -3993,5389 -3988,5420 -3961,5454 -3911,5470 -3863,5474 -3833,5462 -3817,5435 " style="fill: white; stroke: black; stroke-width: 30" />
<polyline points="-3885,5357 -3893,5355 -3893,5353 -3865,5346 -3832,5337 -3807,5347 -3797,5366 -3795,5394 -3814,5428 -3847,5463 -3878,5498 -3880,5500 " style="fill: white; stroke: black; stroke-width: 30" />
<polyline points="-3766,5456 -3765,5461 -3750,5457 -3719,5437 -3681,5396 -3659,5352 -3662,5324 -3671,5320 -3692,5335 -3732,5382 -3755,5443 -3758,5479 -3735,5499 -3679,5498 -3636,5477 -3611,5444 " style="fill: white; stroke: black; stroke-width: 30" />
<polyline points="-3571,5257 -3579,5259 -3581,5275 -3592,5319 -3614,5394 -3623,5447 -3618,5467 -3600,5457 " style="fill: white; stroke: black; stroke-width: 30" />
<polyline points="-3552,5352 -3577,5363 -3607,5404 -3626,5451 -3613,5470 -3581,5473 -3551,5454 -3531,5429 -3516,5392 -3499,5355 -3487,5349 -3496,5355 -3512,5374 -3531,5412 -3537,5451 -3533,5464 -3511,5464 -3477,5443 -3445,5422 -3431,5419 -3430,5428 -3436,5443 -3440,5451 -3435,5455 -3437,5468 " style="fill: white; stroke: black; stroke-width: 30" />
<polyline points="-3474,5281 -3476,5279 -3468,5274 -3441,5282 -3411,5303 -3398,5333 " style="fill: white; stroke: black; stroke-width: 30" />
<polyline points="-3396,5483 -3421,5477 -3426,5459 -3398,5430 -3352,5402 -3323,5402 -3314,5425 -3315,5467 -3318,5492 -3311,5493 " style="fill: white; stroke: black; stroke-width: 30" />
<polyline points="-3221,5432 -3232,5411 -3255,5411 -3282,5447 -3301,5493 -3284,5509 -3247,5504 -3202,5462 -3166,5402 -3150,5344 -3149,5321 -3157,5319 -3163,5338 -3183,5398 -3182,5450 -3171,5486 -3157,5500 -3119,5480 -3062,5434 -3030,5417 -3029,5422 -3031,5440 -3031,5466 -3029,5479 -3027,5480 -3024,5472 -3023,5411 " style="fill: white; stroke: black; stroke-width: 30" />
<polyline points="-3027,5301 -3050,5302 -3053,5301 -3051,5300 -3035,5310 -3018,5348 " style="fill: white; stroke: black; stroke-width: 30" />
<polyline points="-2929,5434 -2920,5431 -2912,5430 -2924,5431 -2952,5437 -2974,5449 -2974,5454 -2965,5458 -2943,5459 -2920,5453 -2915,5453 -2915,5463 -2916,5494 -2913,5543 -2913,5588 -2925,5638 -2948,5676 -2963,5697 -2970,5690 -2984,5646 " style="fill: white; stroke: black; stroke-width: 30" />
<polyline points="-2743,5241 -2773,5301 -2804,5396 -2820,5465 -2824,5491 -2823,5494 -2826,5480 -2822,5460 -2815,5444 -2805,5434 -2798,5423 -2788,5421 -2774,5422 -2756,5421 -2727,5414 " style="fill: white; stroke: black; stroke-width: 30" />
<polyline points="-3445,6797 -3440,6797 -3442,6795 -3426,6797 -3398,6801 -3350,6803 -3264,6802 -3134,6810 -2957,6823 -2728,6844 -2458,6869 -2154,6894 -1828,6926 -1507,6965 -1213,7006 -924,7044 -631,7077 -399,7102 -261,7115 -229,7117 -228,7117 -231,7117 -234,7115 -242,7114 -241,7112 -243,7112 -235,7113 -231,7113 -204,7103 " style="fill: white; stroke: black; stroke-width: 30" />
<polyline points="-3190,5058 -3190,5033 -3200,5019 -3212,5013 -3213,5026 -3216,5092 -3214,5196 -3209,5336 -3213,5503 -3226,5690 -3267,5884 -3292,6084 -3303,6280 -3289,6465 -3261,6622 -3244,6743 -3251,6827 -3283,6876 -3324,6907 " style="fill: white; stroke: black; stroke-width: 30" />
<polyline points="-3464,5202 -3402,5212 -3290,5220 -3133,5229 -2937,5238 -2701,5260 -2430,5298 -2119,5348 -1787,5401 -1428,5453 -1070,5504 -781,5562 -574,5612 -432,5650 -307,5673 -180,5672 -105,5659 " style="fill: white; stroke: black; stroke-width: 30" />
<polyline points="-210,5655 -209,5652 -228,5694 -270,5822 -307,6043 -349,6328 -410,6623 -466,6884 -511,7120 -519,7303 -513,7440 -513,7480 -521,7462 -564,7351 " style="fill: white; stroke: black; stroke-width: 30" />
<polyline points="-1909,9458 -1918,9512 -1932,9643 -1952,9786 -1959,9876 -1953,9884 " style="fill: white; stroke: black; stroke-width: 30" />
<polyline points="-1834,9509 -1832,9592 -1825,9716 -1808,9795 -1791,9818 -1794,9814 -1804,9787 " style="fill: white; stroke: black; stroke-width: 30" />
<polyline points="-1915,9595 -1934,9610 -1926,9613 -1895,9629 -1844,9647 -1769,9674 " style="fill: white; stroke: black; stroke-width: 30" />
<polyline points="-1743,9681 -1807,9714 -1824,9736 -1778,9770 -1688,9771 -1618,9748 -1613,9728 -1657,9699 -1731,9681 -1763,9677 -1742,9680 -1688,9685 " style="fill: white; stroke: black; stroke-width: 30" />
<polyline points="-1460,9706 -1467,9708 -1479,9703 -1518,9699 -1562,9701 -1593,9711 -1579,9724 -1521,9769 -1475,9805 -1480,9828 -1537,9830 -1589,9808 -1593,9788 -1555,9761 " style="fill: white; stroke: black; stroke-width: 30" />
<polyline points="-1370,9597 -1367,9601 -1357,9606 -1355,9606 -1354,9605 -1355,9606 -1355,9607 -1359,9610 -1368,9639 -1384,9722 -1393,9800 -1392,9837 -1384,9840 -1388,9809 -1396,9761 -1395,9734 -1396,9732 -1389,9736 -1371,9745 -1350,9752 -1319,9752 " style="fill: white; stroke: black; stroke-width: 30" />
<polyline points="-1282,9795 -1287,9877 -1301,9964 -1316,10018 -1305,10031 -1292,10004 -1267,9913 -1261,9798 -1248,9744 -1247,9736 -1238,9745 -1219,9780 -1204,9814 -1198,9834 -1235,9843 -1264,9836 -1270,9817 -1265,9782 -1257,9765 " style="fill: white; stroke: black; stroke-width: 30" />
<polyline points="-1094,9772 -1112,9751 -1092,9742 -1042,9748 -1015,9776 -1010,9811 -1059,9838 -1125,9842 -1156,9817 -1166,9778 -1151,9758 -1123,9749 -1085,9754 -1044,9766 " style="fill: white; stroke: black; stroke-width: 30" />
<polyline points="-932,9792 -941,9821 -955,9844 -951,9859 -950,9862 -951,9859 -961,9828 " style="fill: white; stroke: black; stroke-width: 30" />
<polyline points="-897,9630 -916,9629 -913,9651 -902,9727 " style="fill: white; stroke: black; stroke-width: 30" />
<polyline points="-834,9813 -822,9806 -808,9809 -798,9821 -793,9828 -795,9837 -790,9858 " style="fill: white; stroke: black; stroke-width: 30" />
<polyline points="-608,9709 -628,9778 -650,9858 -660,9901 -674,9897 " style="fill: white; stroke: black; stroke-width: 30" />
<polyline points="-657,9788 -645,9769 -631,9769 -611,9780 -575,9805 " style="fill: white; stroke: black; stroke-width: 30" />

</svg>