<?xml version="1.0" standalone="no"?>
<!DOCTYPE svg PUBLIC "-//W3C//DTD SVG 1.1//EN" "http://www.w3.org/Graphics/SVG/1.1/DTD/svg11.dtd">
<svg width="210mm" height="297mm" viewBox="-7000 500 14000 20000" version="1.1" xmlns="http://www.w3.org/2000/svg">

<polyline points="-253,5118 -262,5157 -269,5154 -268,5154 -270,5154 -275,5155 -278,5157 -282,5158 -285,5155 -286,5154 -286,5154 -288,5156 -290,5161 -314,5182 " style="fill: white; stroke: black; stroke-width: 30" />
<polyline points="-341,5300 -368,5295 -374,5291 -378,5287 -397,5288 -395,5289 -396,5291 -396,5292 -396,5291 -396,5291 -394,5292 " style="fill: white; stroke: black; stroke-width: 30" />
<polyline points="-362,5324 -361,5323 -364,5322 -364,5321 -363,5323 -362,5325 -366,5326 -365,5326 -368,5324 -366,5318 " style="fill: white; stroke: black; stroke-width: 30" />
<polyline points="-554,3639 -562,3682 -565,3679 -566,3678 -568,3678 -572,3680 -571,3683 -573,3684 -571,3681 -571,3679 -581,3666 " style="fill: white; stroke: black; stroke-width: 30" />
<polyline points="-82,3675 -84,3582 -87,3579 -89,3577 -93,3574 -95,3578 -97,3581 -98,3581 -98,3579 -99,3576 -100,3574 -99,3576 -99,3579 -100,3581 -100,3577 -100,3576 -100,3572 -99,3575 -97,3577 -98,3579 " style="fill: white; stroke: black; stroke-width: 30" />
<polyline points="27,3667 22,3666 19,3665 13,3664 13,3667 11,3669 8,3669 8,3667 8,3666 6,3664 5,3666 5,3667 3,3670 3,3669 3,3668 1,3667 3,3667 1,3667 0,3667 1,3666 3,3666 3,3666 3,3665 3,3664 2,3663 4,3664 5,3665 2,3665 5,3664 3,3661 3,3660 6,3662 7,3664 -7,3674 " style="fill: white; stroke: black; stroke-width: 30" />
<polyline points="78,3644 73,3706 74,3703 71,3701 65,3701 62,3707 60,3712 55,3715 57,3713 57,3711 58,3709 58,3713 55,3715 55,3719 54,3716 53,3713 53,3709 52,3712 52,3715 52,3717 52,3715 51,3711 53,3709 52,3713 51,3715 52,3718 52,3716 51,3715 53,3712 53,3714 51,3715 53,3717 52,3715 53,3713 55,3711 " style="fill: white; stroke: black; stroke-width: 30" />
<polyline points="-676,3627 -679,3627 -681,3624 -682,3621 -683,3622 -684,3624 -685,3627 -682,3625 -684,3622 -684,3620 -686,3622 -686,3622 -685,3624 -686,3622 -685,3618 -687,3616 -686,3616 -685,3616 -685,3617 " style="fill: white; stroke: black; stroke-width: 30" />
<polyline points="-3730,4153 -2966,4496 -2367,4821 -1909,5059 -1652,5183 -1553,5224 -1540,5225 -1551,5216 " style="fill: white; stroke: black; stroke-width: 30" />
<polyline points="-7059,3529 -7030,3481 -7052,3520 -7066,3545 -7082,3557 -7104,3550 -7118,3540 -7118,3537 -7101,3543 -7044,3561 -6988,3561 -6926,3560 -6918,3546 -6929,3555 -6969,3586 -7005,3618 -7011,3638 -6998,3623 -6947,3592 -6887,3568 -6875,3491 -6873,3470 -6874,3468 -6875,3465 -6855,3501 -6860,3512 " style="fill: white; stroke: black; stroke-width: 30" />
<polyline points="-6772,3574 -6793,3570 -6769,3574 -6751,3601 -6740,3668 -6790,3681 -6825,3694 -6853,3684 -6864,3659 -6862,3646 -6858,3653 -6858,3659 -6852,3667 -6827,3701 " style="fill: white; stroke: black; stroke-width: 30" />
<polyline points="-5600,4110 -5655,4155 -5700,4200 -5762,4254 -5806,4285 -5804,4315 -5775,4320 -5733,4298 " style="fill: white; stroke: black; stroke-width: 30" />
<polyline points="-5760,4263 -5777,4221 -5805,4247 -5792,4279 -5728,4329 -5698,4329 -5656,4344 -5624,4345 -5588,4334 -5548,4321 -5549,4311 -5570,4300 -5609,4305 -5659,4322 -5686,4344 -5651,4386 -5599,4400 -5537,4389 -5459,4391 -5459,4369 -5466,4366 -5477,4378 -5504,4402 -5510,4446 -5537,4442 -5518,4453 " style="fill: white; stroke: black; stroke-width: 30" />
<polyline points="-5330,4301 -5377,4312 -5388,4311 -5408,4339 -5419,4391 " style="fill: white; stroke: black; stroke-width: 30" />
<polyline points="-5386,4488 -5401,4503 -5385,4464 -5352,4462 -5350,4464 -5351,4477 -5364,4504 -5373,4514 -5376,4519 -5332,4533 -5282,4544 " style="fill: white; stroke: black; stroke-width: 30" />
<polyline points="-4644,4686 -4695,4715 -4779,4768 -4823,4822 -4830,4836 -4799,4831 -4757,4796 -4733,4738 -4726,4676 -4724,4635 -4720,4624 -4686,4629 -4622,4672 -4586,4722 -4599,4736 -4645,4738 -4711,4717 -4732,4714 -4738,4752 -4718,4812 -4704,4865 -4723,4873 -4776,4849 -4820,4814 -4830,4799 -4821,4808 -4776,4850 -4736,4887 " style="fill: white; stroke: black; stroke-width: 30" />
<polyline points="-4714,4918 -4643,4849 -4615,4837 -4592,4823 -4576,4816 -4577,4814 -4578,4815 -4572,4830 " style="fill: white; stroke: black; stroke-width: 30" />
<polyline points="-4406,4864 -4455,4884 -4491,4875 -4538,4884 -4551,4917 -4534,4960 -4484,4986 -4446,4980 -4420,4956 -4416,4924 -4428,4905 -4438,4903 -4435,4920 -4419,4944 -4396,4963 -4368,4981 -4345,4994 -4334,4987 -4330,4977 -4342,4966 -4349,4975 -4372,5000 -4379,5022 -4353,5047 -4330,5041 -4290,5029 -4284,5020 -4280,5023 -4286,5031 -4287,5050 -4279,5071 -4265,5077 -4235,5078 -4210,5069 -4200,5063 -4198,5059 -4196,5059 -4199,5059 -4201,5058 -4200,5060 -4210,5059 -4225,5070 -4228,5082 -4221,5093 -4216,5091 -4208,5076 -4203,5065 " style="fill: white; stroke: black; stroke-width: 30" />
<polyline points="-4071,5062 -4096,5079 -4100,5071 -4111,5072 -4132,5080 -4142,5097 -4140,5127 -4146,5145 -4155,5154 -4176,5149 -4192,5141 -4194,5138 -4193,5141 -4167,5154 -4120,5164 -4058,5165 -4031,5148 -4036,5127 -4062,5122 -4101,5140 -4098,5186 -4050,5246 -3973,5289 -3917,5290 -3897,5252 -3889,5229 -3891,5228 -3884,5246 -3868,5279 " style="fill: white; stroke: black; stroke-width: 30" />
<polyline points="-3289,5396 -3310,5374 -3357,5348 -3404,5344 -3427,5364 -3439,5408 -3441,5453 -3463,5471 -3488,5475 -3540,5447 -3554,5429 -3535,5430 -3508,5433 " style="fill: white; stroke: black; stroke-width: 30" />
<polyline points="-3290,5489 -3292,5480 -3326,5468 -3373,5465 -3394,5478 -3391,5503 -3342,5532 -3265,5539 -3198,5526 -3162,5503 -3157,5486 -3170,5478 -3185,5481 -3211,5500 -3213,5530 -3227,5556 -3226,5588 -3219,5607 -3193,5620 -3153,5620 -3124,5621 -3129,5622 -3147,5624 -3147,5627 -3121,5627 -3087,5630 -3082,5628 -3084,5625 -3089,5626 -3086,5630 -3091,5638 -3099,5645 -3108,5657 -3117,5662 -3099,5677 -3064,5690 -3028,5710 " style="fill: white; stroke: black; stroke-width: 30" />
<polyline points="-2840,5653 -2852,5664 -2909,5696 -2969,5730 -2994,5746 -2989,5742 -2965,5716 -2937,5692 -2914,5695 -2899,5715 " style="fill: white; stroke: black; stroke-width: 30" />
<polyline points="-2681,5731 -2694,5763 -2700,5761 -2688,5784 -2682,5804 -2677,5811 -2679,5808 -2677,5804 -2676,5801 -2663,5805 -2642,5813 -2597,5830 -2575,5841 -2581,5841 -2618,5846 -2694,5848 -2733,5858 -2735,5873 -2724,5889 -2685,5917 -2647,5943 -2636,5955 -2633,5952 " style="fill: white; stroke: black; stroke-width: 30" />
<polyline points="-2695,5765 -2685,5831 -2625,5880 -2567,5933 -2515,5973 " style="fill: white; stroke: black; stroke-width: 30" />
<polyline points="-5933,4521 -5899,4491 -5973,4555 -6029,4595 -6060,4611 -6017,4638 -5942,4635 -5891,4603 -5863,4601 -5856,4612 -5900,4584 -5929,4576 -5975,4564 -6026,4566 -6042,4584 -6038,4603 -6011,4618 -5962,4634 -5894,4651 -5838,4653 -5802,4651 -5787,4651 -5779,4653 -5797,4628 -5794,4632 -5805,4620 -5823,4614 -5862,4615 -5889,4635 -5895,4657 -5864,4687 -5810,4701 -5728,4702 -5669,4698 -5665,4702 -5684,4704 -5700,4716 -5692,4742 -5702,4744 -5696,4760 -5697,4772 -5673,4792 -5634,4778 -5579,4743 " style="fill: white; stroke: black; stroke-width: 30" />
<polyline points="-5505,4657 -5589,4668 -5621,4652 -5620,4660 -5603,4694 " style="fill: white; stroke: black; stroke-width: 30" />
<polyline points="-5646,4882 -5555,4794 -5536,4800 -5537,4803 -5533,4829 -5533,4856 -5527,4866 -5482,4870 " style="fill: white; stroke: black; stroke-width: 30" />
<polyline points="-4865,4988 -4912,5038 -4950,5099 -4966,5146 " style="fill: white; stroke: black; stroke-width: 30" />
<polyline points="-5001,4921 -4964,4920 -4856,4957 -4772,5006 -4729,5047 -4746,5068 -4811,5066 -4893,5040 -4932,5030 -4930,5037 -4896,5061 -4843,5093 -4813,5122 -4806,5149 -4812,5165 -4808,5185 -4804,5192 -4804,5194 -4802,5198 -4803,5199 -4798,5201 -4798,5192 " style="fill: white; stroke: black; stroke-width: 30" />
<polyline points="-4686,5050 -4717,5078 -4720,5075 -4715,5078 -4713,5081 " style="fill: white; stroke: black; stroke-width: 30" />
<polyline points="-4728,5227 -4718,5192 -4671,5164 -4639,5154 -4634,5161 -4631,5187 -4632,5241 -4615,5293 -4573,5327 -4532,5341 -4537,5315 -4536,5288 -4564,5267 -4577,5266 -4582,5282 -4553,5320 -4515,5354 -4493,5378 -4484,5388 " style="fill: white; stroke: black; stroke-width: 30" />
<polyline points="-4441,5418 -4424,5412 -4423,5455 -4401,5469 -4357,5455 -4317,5420 -4300,5406 -4301,5411 -4315,5420 -4333,5446 -4332,5477 -4306,5508 -4277,5515 -4249,5503 -4227,5476 -4221,5443 -4214,5424 -4209,5424 -4210,5435 -4218,5460 -4231,5492 -4223,5519 -4184,5530 " style="fill: white; stroke: black; stroke-width: 30" />
<polyline points="-4126,5485 -4059,5435 -4057,5450 -4051,5475 -4051,5508 -4075,5530 -4125,5538 -4183,5529 -4225,5503 -4208,5494 -4190,5468 -4146,5458 -4119,5463 -4096,5496 -4085,5540 -4061,5581 -3993,5605 -3916,5595 -3874,5540 -3860,5489 -3871,5468 -3908,5478 -3963,5521 -3984,5586 -3976,5643 -3931,5684 -3883,5690 -3848,5674 -3809,5647 -3782,5622 -3754,5616 -3732,5625 -3727,5630 -3733,5631 -3756,5629 -3795,5634 -3832,5650 -3846,5685 -3839,5717 -3820,5750 -3796,5773 " style="fill: white; stroke: black; stroke-width: 30" />
<polyline points="-4229,7715 -4211,7728 -4249,7762 -4290,7824 -4316,7893 -4321,7913 -4319,7914 -4310,7895 -4282,7850 -4256,7772 -4221,7717 -4185,7720 -4197,7722 -4230,7737 -4250,7782 -4239,7820 -4234,7839 -4151,7855 -4040,7845 -3976,7819 -3941,7808 -3935,7808 -3952,7808 -3956,7841 -4002,7893 -4014,7943 -3999,7973 -3981,7968 " style="fill: white; stroke: black; stroke-width: 30" />
<polyline points="-3719,7768 -3728,7806 -3732,7815 -3748,7834 -3789,7869 -3845,7915 -3879,7965 -3888,8001 " style="fill: white; stroke: black; stroke-width: 30" />
<polyline points="-3716,7875 -3777,7891 -3832,7915 -3849,7939 -3849,7968 -3822,7992 -3788,8019 " style="fill: white; stroke: black; stroke-width: 30" />
<polyline points="-3630,8010 -3628,7986 -3651,8026 -3655,8044 -3634,8057 -3577,8049 -3528,8015 -3494,7998 -3490,7989 -3501,7998 -3494,8038 -3492,8075 -3430,8114 -3371,8118 -3292,8093 -3256,8026 -3256,7958 -3259,7916 -3254,7911 -3263,7913 " style="fill: white; stroke: black; stroke-width: 30" />
<polyline points="-2433,8227 -3033,8138 -3035,8128 " style="fill: white; stroke: black; stroke-width: 30" />
<polyline points="-3046,8104 -3065,8091 " style="fill: white; stroke: black; stroke-width: 30" />
<polyline points="-2575,8307 -3188,8265 -3163,8299 " style="fill: white; stroke: black; stroke-width: 30" />
<polyline points="-2481,8373 -3067,8254 " style="fill: white; stroke: black; stroke-width: 30" />
<polyline points="-3047,8114 -2436,8212 -2436,8212 -2420,8227 " style="fill: white; stroke: black; stroke-width: 30" />
<polyline points="-7134,13607 " style="fill: white; stroke: black; stroke-width: 30" />
<polyline points="-7220,13636 -7195,13647 -7133,13641 -6939,13619 -6565,13548 -6036,13427 -5348,13288 -4553,13159 -3674,13052 -2742,12965 -2736,12865 -2005,12896 -1470,12938 -217,12920 930,13015 " style="fill: white; stroke: black; stroke-width: 30" />
<polyline points="-6333,14179 -6381,14220 -6474,14303 -6533,14388 " style="fill: white; stroke: black; stroke-width: 30" />
<polyline points="-7434,14003 " style="fill: white; stroke: black; stroke-width: 30" />
<polyline points="-6261,14362 -6202,14321 -6169,14291 -6147,14281 -6151,14283 -6170,14281 " style="fill: white; stroke: black; stroke-width: 30" />
<polyline points="-6176,14289 -6195,14305 -6213,14368 " style="fill: white; stroke: black; stroke-width: 30" />
<polyline points="-5799,14194 -5864,14299 -5872,14375 -5853,14413 -5794,14444 " style="fill: white; stroke: black; stroke-width: 30" />
<polyline points="-6823,14807 -6532,14603 -6128,14394 -5609,14137 -6049,13592 -4051,13474 " style="fill: white; stroke: black; stroke-width: 30" />
<polyline points="-7912,13619 -7920,13626 -7832,13616 -7656,13569 -7377,13507 -7046,13401 -6592,13278 -6031,13120 -5298,12924 -5376,12451 -2620,12289 " style="fill: white; stroke: black; stroke-width: 30" />
<polyline points="-7747,9204 -7498,9037 -7209,8891 -6829,8693 -6358,8446 -5765,8170 -5056,7862 -4255,7516 -3381,7161 -2475,6819 -1592,6498 -777,6227 -80,6017 445,5873 " style="fill: white; stroke: black; stroke-width: 30" />
<polyline points="-7959,14792 -7980,14831 -7985,14828 -7961,14834 -7936,14838 -7857,14848 -7787,14837 -7691,14833 " style="fill: white; stroke: black; stroke-width: 30" />
<polyline points="-7934,14808 " style="fill: white; stroke: black; stroke-width: 30" />
<polyline points="-7176,14949 -7254,14983 -7270,14996 " style="fill: white; stroke: black; stroke-width: 30" />
<polyline points="-6068,15387 -6053,15363 -6061,15345 " style="fill: white; stroke: black; stroke-width: 30" />
<polyline points="-7176,14988 " style="fill: white; stroke: black; stroke-width: 30" />
<polyline points="-7042,14954 -7037,14959 " style="fill: white; stroke: black; stroke-width: 30" />
<polyline points="-7026,15016 -7026,15051 -7033,15067 -7045,15064 -7066,15047 -7084,15032 -7087,15025 " style="fill: white; stroke: black; stroke-width: 30" />
<polyline points="-6859,15025 -6792,15036 -6742,15044 " style="fill: white; stroke: black; stroke-width: 30" />
<polyline points="-6694,14947 -6676,14928 -6660,14942 -6642,14999 -6648,15063 -6650,15103 " style="fill: white; stroke: black; stroke-width: 30" />
<polyline points="-6745,15077 " style="fill: white; stroke: black; stroke-width: 30" />
<polyline points="-6655,15064 -6650,15096 -6619,15116 -6588,15101 -6542,15073 -6518,15033 -6513,14992 -6516,14970 " style="fill: white; stroke: black; stroke-width: 30" />
<polyline points="-6506,14983 -6492,15015 -6457,15046 " style="fill: white; stroke: black; stroke-width: 30" />
<polyline points="-6417,15032 -6397,15063 -6334,15088 " style="fill: white; stroke: black; stroke-width: 30" />
<polyline points="-6210,15065 -6191,15031 -6199,15008 -6230,15002 -6237,15006 -6218,15026 -6204,15036 -6207,15036 " style="fill: white; stroke: black; stroke-width: 30" />
<polyline points="-3565,15427 -4553,15027 -4596,15078 -4598,15120 -4577,15132 " style="fill: white; stroke: black; stroke-width: 30" />
<polyline points="-4557,14905 -4514,14878 -4437,14870 -4393,14893 -4365,14934 -4429,14960 -4489,14975 -4550,14980 -4534,14998 " style="fill: white; stroke: black; stroke-width: 30" />
<polyline points="-4481,15085 -4482,15123 -4525,15132 -4587,15103 -4605,15081 -4608,15073 " style="fill: white; stroke: black; stroke-width: 30" />
<polyline points="-4549,15095 -4507,15100 -4427,15095 " style="fill: white; stroke: black; stroke-width: 30" />
<polyline points="-4296,15060 -4269,15029 -4265,15004 -4300,14997 " style="fill: white; stroke: black; stroke-width: 30" />
<polyline points="-4287,15121 -4258,15113 " style="fill: white; stroke: black; stroke-width: 30" />
<polyline points="-4097,15071 -4031,15020 -4003,14965 -4002,14939 -4017,14937 -4035,14977 -4056,15044 -4038,15097 -3989,15122 -3913,15111 " style="fill: white; stroke: black; stroke-width: 30" />
<polyline points="-3856,15053 -3856,15055 -3868,15072 -3874,15106 -3884,15123 -3875,15128 " style="fill: white; stroke: black; stroke-width: 30" />
<polyline points="-3850,14958 -3858,14957 -3853,14959 -3857,14957 -3842,14958 " style="fill: white; stroke: black; stroke-width: 30" />
<polyline points="-3788,14990 " style="fill: white; stroke: black; stroke-width: 30" />
<polyline points="-2736,15391 -3682,15067 -3682,15055 -3693,15039 " style="fill: white; stroke: black; stroke-width: 30" />
<polyline points="-3753,15029 -3766,15047 " style="fill: white; stroke: black; stroke-width: 30" />
<polyline points="-3743,15092 -3711,15101 " style="fill: white; stroke: black; stroke-width: 30" />
<polyline points="-3631,15080 -3617,15066 -3607,15047 -3593,15040 -3574,15028 -3550,15034 -3534,15043 -3505,15062 -3519,15068 " style="fill: white; stroke: black; stroke-width: 30" />
<polyline points="-3393,15035 -3407,15048 -3431,15065 -3415,15087 " style="fill: white; stroke: black; stroke-width: 30" />
<polyline points="-3318,15077 -3236,15061 -3239,15051 -3252,15053 " style="fill: white; stroke: black; stroke-width: 30" />
<polyline points="-2158,15344 -3119,15061 -3072,15043 -3057,15033 " style="fill: white; stroke: black; stroke-width: 30" />
<polyline points="-1083,15327 " style="fill: white; stroke: black; stroke-width: 30" />
<polyline points="-2936,15032 -2938,15028 -2963,15026 " style="fill: white; stroke: black; stroke-width: 30" />
<polyline points="-1975,15097 -2971,15043 " style="fill: white; stroke: black; stroke-width: 30" />
<polyline points="-2002,15424 -1991,15478 -1999,15525 -3006,15290 -3028,15283 " style="fill: white; stroke: black; stroke-width: 30" />
<polyline points="-2050,15243 -3030,15138 " style="fill: white; stroke: black; stroke-width: 30" />
<polyline points="-2443,14928 -2453,14958 -2434,14948 -2423,14922 " style="fill: white; stroke: black; stroke-width: 30" />
<polyline points="-2443,14880 -2442,14888 " style="fill: white; stroke: black; stroke-width: 30" />
<polyline points="-1598,15228 -2618,15056 " style="fill: white; stroke: black; stroke-width: 30" />
<polyline points="-2460,15065 -1461,15310 -1381,15100 -1296,15067 " style="fill: white; stroke: black; stroke-width: 30" />
<polyline points="-1181,14960 -1146,14907 " style="fill: white; stroke: black; stroke-width: 30" />
<polyline points="-1295,15030 -1276,15058 " style="fill: white; stroke: black; stroke-width: 30" />
<polyline points="-1220,15027 -1158,14998 -1141,14996 -1144,15003 " style="fill: white; stroke: black; stroke-width: 30" />
<polyline points="-1112,14997 -1081,14965 " style="fill: white; stroke: black; stroke-width: 30" />
<polyline points="-96,15090 -1075,14948 -1063,14945 " style="fill: white; stroke: black; stroke-width: 30" />
<polyline points="-55,15067 -1000,14921 -55,15067 -1000,14921 -990,14914 -990,14913 -1030,14917 -1031,14925 -1050,14928 -1036,14938 -1043,14957 " style="fill: white; stroke: black; stroke-width: 30" />
<polyline points="-86,15128 -86,15128 -1030,14985 -940,14953 -897,14914 -865,14893 -872,14888 -858,14890 -846,14891 " style="fill: white; stroke: black; stroke-width: 30" />
<polyline points="-6683,16070 -6642,15877 -6656,15903 " style="fill: white; stroke: black; stroke-width: 30" />
<polyline points="-6641,15982 -6606,16022 " style="fill: white; stroke: black; stroke-width: 30" />
<polyline points="-7173,16190 -7149,16218 -7106,16265 -7122,16278 " style="fill: white; stroke: black; stroke-width: 30" />
<polyline points="-5931,16840 -7058,16426 " style="fill: white; stroke: black; stroke-width: 30" />
<polyline points="-5892,16766 " style="fill: white; stroke: black; stroke-width: 30" />
<polyline points="-5116,16799 -4262,16856 -3480,16915 -2842,16968 -2351,17006 -1979,17028 -668,17015 -581,17012 -535,17008 " style="fill: white; stroke: black; stroke-width: 30" />

</svg>