<?xml version="1.0" standalone="no"?>
<!DOCTYPE svg PUBLIC "-//W3C//DTD SVG 1.1//EN" "http://www.w3.org/Graphics/SVG/1.1/DTD/svg11.dtd">
<svg width="210mm" height="297mm" viewBox="-7000 500 14000 20000" version="1.1" xmlns="http://www.w3.org/2000/svg">

<polyline points="-2406,1699 -2411,1698 -2420,1709 -2434,1778 -2439,1894 -2428,1974 -2406,2019 -2383,2009 " style="fill: white; stroke: black; stroke-width: 30" />
<polyline points="-2421,1893 -2466,1816 -2516,1708 -2534,1631 -2530,1587 -2514,1575 -2474,1579 -2423,1611 -2390,1661 -2389,1696 -2405,1711 -2432,1732 -2435,1748 -2419,1774 -2365,1823 -2318,1888 -2308,1951 -2326,2017 -2346,2044 -2377,2038 -2420,1998 -2459,1945 -2475,1920 -2473,1884 " style="fill: white; stroke: black; stroke-width: 30" />
<polyline points="-2197,1778 -2213,1769 -2203,1771 -2162,1794 -2115,1855 -2090,1926 -2109,1983 -2166,2024 -2248,2022 -2295,1979 -2316,1910 -2307,1885 -2285,1884 -2239,1906 -2177,1971 -2108,2010 " style="fill: white; stroke: black; stroke-width: 30" />
<polyline points="-1927,1940 -1922,1937 -1919,1923 -1917,1915 -1905,1884 -1891,1838 -1875,1774 -1860,1707 -1857,1668 -1858,1655 -1866,1650 -1879,1654 -1886,1661 -1888,1667 -1888,1668 -1889,1671 -1891,1670 -1894,1672 -1895,1670 -1894,1670 -1893,1668 -1893,1669 -1893,1668 -1892,1670 -1892,1667 -1892,1667 -1892,1665 -1891,1667 -1890,1666 -1890,1666 -1890,1664 -1889,1665 -1888,1662 -1889,1662 -1889,1661 -1887,1662 -1885,1661 " style="fill: white; stroke: black; stroke-width: 30" />
<polyline points="-1881,1826 -1882,1790 -1905,1770 -1973,1765 -2049,1785 -2077,1817 -2063,1862 -2020,1919 -1965,1952 -1934,1958 -1931,1951 -1928,1931 " style="fill: white; stroke: black; stroke-width: 30" />
<polyline points="-707,1821 -723,1803 -729,1801 -736,1831 -752,1989 -780,2196 -806,2314 -845,2395 -888,2428 -925,2423 -964,2364 -991,2255 -985,2102 -956,2002 " style="fill: white; stroke: black; stroke-width: 30" />
<polyline points="-608,1981 -622,1955 -597,1946 -537,1962 -490,2004 -491,2052 -521,2081 -577,2083 -628,2052 -647,2013 -637,1985 -587,1946 " style="fill: white; stroke: black; stroke-width: 30" />
<polyline points="-300,1840 -317,1811 -320,1804 -320,1805 -322,1811 -327,1834 -354,1902 -384,1978 -386,2020 -381,2033 -370,2031 -345,2014 -304,1974 -257,1941 -214,1936 -189,1966 -191,2030 -218,2091 -244,2114 -281,2115 -317,2086 -342,2033 -348,1950 -324,1881 " style="fill: white; stroke: black; stroke-width: 30" />
<polyline points="1055,1870 1015,1849 990,1865 948,1956 930,2056 927,2159 929,2192 930,2187 934,2121 951,1993 1002,1851 1075,1782 1138,1773 1176,1808 1169,1872 1098,1960 997,2030 948,2059 950,2068 983,2091 1046,2105 1122,2099 1191,2065 1239,2013 1248,1970 1230,1947 1198,1949 1167,1989 1159,2041 1193,2098 1266,2121 1348,2107 1405,2065 " style="fill: white; stroke: black; stroke-width: 30" />
<polyline points="1515,1940 1522,1910 1508,1896 1494,1897 1487,1907 1476,1964 1463,2037 1448,2086 1429,2096 1393,2092 1359,2066 1356,2049 1394,2020 1519,1942 1653,1852 1766,1758 1791,1721 1782,1718 1747,1751 1651,1890 1599,2006 1587,2070 1588,2070 1593,2053 1598,2027 1604,2023 1628,2026 1667,2034 1682,2035 1688,2025 " style="fill: white; stroke: black; stroke-width: 30" />
<polyline points="2000,1762 1987,1738 1970,1734 1943,1761 1846,1888 1759,2024 1723,2127 1748,2180 " style="fill: white; stroke: black; stroke-width: 30" />
<polyline points="1994,1989 1974,1974 1938,1962 1874,1960 1785,1981 1767,2014 1797,2072 1889,2129 2005,2119 " style="fill: white; stroke: black; stroke-width: 30" />
<polyline points="2214,1862 2238,1793 2239,1753 2233,1746 2220,1751 2157,1808 2079,1909 2059,1992 2069,2048 2105,2079 2185,2061 2285,2015 2316,1992 2308,1997 2292,2015 2271,2039 2259,2051 2256,2053 2245,2043 2229,2030 2222,2011 2225,2000 2237,1984 2257,1974 2274,1971 2293,1976 2305,1989 2306,2023 2279,2073 2240,2111 2217,2116 2203,2103 2196,2079 2200,2067 2204,2068 2234,2081 2282,2105 " style="fill: white; stroke: black; stroke-width: 30" />
<polyline points="2531,1952 2503,1944 2478,1946 2455,1977 2444,2043 2446,2115 2446,2159 2429,2179 2387,2171 2351,2152 2340,2122 2359,2097 2421,2052 2518,2020 2615,1986 2712,1973 2746,1975 2740,1976 2706,1997 2663,2052 2628,2117 2607,2169 2586,2180 2545,2170 2525,2146 2531,2138 2563,2131 2654,2116 2736,2096 2816,2057 2847,2023 2821,2014 2784,2027 2762,2074 2783,2115 2851,2136 2954,2101 3025,2059 3046,2037 3049,2037 3046,2051 3052,2086 3056,2125 3057,2158 " style="fill: white; stroke: black; stroke-width: 30" />
<polyline points="3449,1916 3432,1907 3418,1919 3366,2007 3288,2134 3258,2200 3253,2204 3266,2167 3312,2039 3384,1876 3448,1806 3498,1809 3526,1847 3520,1909 3439,1988 3344,2038 3315,2060 3330,2079 3389,2110 3496,2124 3584,2102 3615,2076 3607,2068 3591,2077 3560,2112 3543,2166 3548,2208 3581,2209 3640,2135 3689,2019 3721,1917 3723,1891 3727,1883 3727,1895 3726,1945 " style="fill: white; stroke: black; stroke-width: 30" />
<polyline points="3686,2220 3702,2204 3736,2154 3788,2087 3809,2058 3813,2061 3810,2085 3819,2138 3857,2192 3935,2220 4016,2201 4060,2136 4039,2087 3996,2061 3970,2080 3955,2150 3960,2258 3950,2386 3907,2519 3839,2623 3795,2654 3791,2632 3811,2559 3924,2403 4088,2271 4224,2210 4343,2176 " style="fill: white; stroke: black; stroke-width: 30" />
<polyline points="-1086,1841 -1075,1856 -1043,1865 -968,1875 -804,1877 " style="fill: white; stroke: black; stroke-width: 30" />
<polyline points="-1027,3415 -1030,3361 -988,3314 -934,3309 -871,3354 -820,3443 -818,3527 -855,3578 -921,3594 -961,3568 -989,3508 -998,3414 -992,3346 -981,3315 " style="fill: white; stroke: black; stroke-width: 30" />
<polyline points="-112,3564 -152,3521 -115,3451 -12,3390 105,3389 192,3455 197,3534 119,3602 37,3615 -4,3591 -29,3539 -49,3431 -64,3365 " style="fill: white; stroke: black; stroke-width: 30" />
<polyline points="-756,3465 -672,3457 -486,3457 -265,3487 -38,3519 " style="fill: white; stroke: black; stroke-width: 30" />
<polyline points="284,3724 300,3736 345,3773 400,3872 465,4016 530,4176 " style="fill: white; stroke: black; stroke-width: 30" />
<polyline points="-949,3741 -1073,3792 -1201,3891 -1350,4035 -1494,4201 " style="fill: white; stroke: black; stroke-width: 30" />
<polyline points="-1615,4352 -1611,4329 -1563,4280 -1515,4262 -1493,4275 -1485,4299 -1506,4321 -1570,4334 -1623,4322 -1639,4314 -1634,4311 -1626,4309 -1593,4294 -1533,4271 -1468,4272 -1444,4312 -1473,4368 -1543,4418 -1596,4419 -1606,4387 -1607,4302 " style="fill: white; stroke: black; stroke-width: 30" />
<polyline points="524,4161 497,4141 513,4118 570,4109 646,4138 704,4202 713,4256 666,4286 624,4272 601,4250 598,4229 602,4195 620,4171 " style="fill: white; stroke: black; stroke-width: 30" />
<polyline points="-2325,5471 -2330,5470 -2327,5475 -2331,5539 -2352,5675 -2374,5776 -2369,5827 -2357,5826 -2346,5757 -2355,5654 -2388,5548 -2416,5459 -2422,5412 -2419,5411 -2385,5411 -2301,5439 -2238,5483 -2226,5527 -2266,5558 -2339,5579 -2365,5588 -2355,5595 -2321,5633 -2284,5688 -2274,5737 -2292,5765 -2326,5763 -2384,5736 -2419,5703 -2420,5675 " style="fill: white; stroke: black; stroke-width: 30" />
<polyline points="-2169,5565 -2154,5542 -2105,5527 -2039,5554 -1994,5609 -1992,5662 -2028,5706 -2112,5726 -2194,5707 -2220,5687 -2215,5682 -2193,5683 -2139,5696 -2096,5727 -2059,5759 -2024,5782 " style="fill: white; stroke: black; stroke-width: 30" />
<polyline points="-1816,5642 -1859,5635 -1916,5658 -1964,5718 -1960,5761 -1913,5780 -1857,5768 -1795,5704 -1742,5612 -1716,5529 -1721,5506 -1727,5505 -1728,5515 -1733,5569 -1748,5652 -1740,5712 -1712,5754 -1683,5771 " style="fill: white; stroke: black; stroke-width: 30" />
<polyline points="-596,5475 -628,5486 -660,5543 -700,5680 -727,5819 -742,5930 -768,6002 -804,6033 -818,6028 -840,6000 -875,5907 -906,5782 -916,5694 -888,5643 " style="fill: white; stroke: black; stroke-width: 30" />
<polyline points="-382,5671 -391,5646 -441,5622 -516,5628 -576,5669 -586,5716 -542,5754 -451,5766 -364,5728 -343,5696 -373,5670 -406,5659 -409,5658 -392,5664 " style="fill: white; stroke: black; stroke-width: 30" />
<polyline points="-102,5404 -109,5410 -130,5455 -175,5568 -217,5669 -212,5722 -206,5724 -189,5710 -149,5679 -105,5669 -81,5680 -83,5709 -102,5736 -146,5756 -228,5753 " style="fill: white; stroke: black; stroke-width: 30" />
<polyline points="-850,5371 -828,5372 -792,5377 -754,5383 -649,5391 -506,5413 " style="fill: white; stroke: black; stroke-width: 30" />
<polyline points="454,5600 433,5591 427,5585 428,5583 447,5580 511,5581 604,5584 739,5582 859,5587 " style="fill: white; stroke: black; stroke-width: 30" />
<polyline points="822,5495 823,5488 831,5485 864,5496 897,5533 901,5578 880,5613 831,5661 784,5692 772,5700 778,5699 " style="fill: white; stroke: black; stroke-width: 30" />
<polyline points="1544,5623 1527,5633 1520,5649 1510,5684 1491,5737 1492,5775 1504,5796 " style="fill: white; stroke: black; stroke-width: 30" />
<polyline points="1562,5513 1536,5455 1530,5426 1531,5423 1535,5422 1555,5428 " style="fill: white; stroke: black; stroke-width: 30" />
<polyline points="1774,5398 1767,5406 1740,5450 1687,5563 1638,5679 1646,5758 1686,5797 " style="fill: white; stroke: black; stroke-width: 30" />
<polyline points="1922,5465 1900,5459 1874,5476 1813,5572 1748,5686 1752,5743 1806,5761 1909,5741 2027,5696 2100,5660 2101,5648 2066,5644 1997,5656 1943,5700 1951,5736 1997,5769 2065,5779 2108,5772 " style="fill: white; stroke: black; stroke-width: 30" />
<polyline points="2308,5682 2295,5672 2271,5658 2222,5663 2162,5690 2162,5708 2193,5732 2246,5767 2273,5831 2262,5926 2227,5998 2200,6039 2159,6051 2097,6030 2051,5970 2045,5881 " style="fill: white; stroke: black; stroke-width: 30" />
<polyline points="2416,5630 2386,5591 2390,5577 2428,5583 2483,5627 2511,5693 2485,5752 2418,5802 2341,5818 2289,5797 2283,5763 2290,5754 2306,5758 2358,5786 2448,5806 2587,5769 " style="fill: white; stroke: black; stroke-width: 30" />
<polyline points="2840,5531 2849,5449 2809,5444 2750,5516 2687,5636 2664,5707 2672,5730 2679,5731 2703,5719 " style="fill: white; stroke: black; stroke-width: 30" />
<polyline points="3466,5559 3452,5550 3448,5549 3428,5597 3372,5757 3297,5966 3232,6104 3181,6178 3157,6181 3146,6152 3137,6047 3163,5884 " style="fill: white; stroke: black; stroke-width: 30" />
<polyline points="3557,5751 3573,5713 3602,5677 3631,5671 3652,5687 3655,5738 3626,5784 3587,5804 3564,5797 3560,5785 3569,5753 3616,5682 3704,5593 " style="fill: white; stroke: black; stroke-width: 30" />
<polyline points="3934,5445 3914,5480 3885,5531 3824,5632 3768,5713 3734,5783 3724,5810 3723,5824 3721,5826 3718,5828 3724,5820 3725,5818 3731,5810 3736,5803 3755,5773 3786,5746 3824,5728 3840,5734 3861,5768 3883,5823 3881,5850 3862,5858 3800,5848 3749,5819 3725,5782 3741,5747 " style="fill: white; stroke: black; stroke-width: 30" />
<polyline points="3266,5505 3248,5497 3259,5491 3292,5487 3341,5485 3437,5477 " style="fill: white; stroke: black; stroke-width: 30" />
<polyline points="1621,6246 1628,6242 1625,6239 1617,6239 1609,6240 1592,6246 1563,6269 1492,6361 1438,6467 1442,6521 1501,6560 1609,6574 1736,6559 1846,6534 1912,6516 " style="fill: white; stroke: black; stroke-width: 30" />
<polyline points="1420,6128 1434,6119 1500,6110 1630,6126 1778,6133 1900,6152 " style="fill: white; stroke: black; stroke-width: 30" />
<polyline points="1945,6316 1949,6320 1975,6327 2002,6340 2024,6358 2042,6396 2048,6464 2025,6540 1958,6605 1862,6655 1798,6682 1795,6686 1837,6680 " style="fill: white; stroke: black; stroke-width: 30" />
<polyline points="2300,6377 2289,6385 2245,6459 2174,6589 2116,6685 2090,6741 2096,6742 2113,6713 2155,6617 2199,6508 2257,6442 2331,6404 2387,6410 2412,6438 2381,6481 2303,6520 2210,6531 2196,6536 2213,6552 2273,6627 2314,6702 2294,6751 2229,6783 2137,6782 2082,6759 2083,6731 2120,6677 2222,6607 2346,6572 2475,6554 2547,6559 2548,6571 2514,6610 2456,6680 2432,6716 2440,6720 2462,6714 2535,6687 2565,6675 2564,6681 2541,6702 2529,6747 2556,6771 " style="fill: white; stroke: black; stroke-width: 30" />
<polyline points="2721,6444 2687,6418 2688,6412 2702,6413 2717,6425 " style="fill: white; stroke: black; stroke-width: 30" />
<polyline points="2878,6685 2835,6671 2775,6655 2710,6662 2678,6686 2667,6735 2663,6749 2646,6753 2589,6745 2570,6731 2586,6732 2665,6733 2807,6710 2944,6679 3018,6640 3018,6633 3003,6634 2960,6672 2895,6743 2858,6800 2861,6810 2914,6757 " style="fill: white; stroke: black; stroke-width: 30" />
<polyline points="3128,6459 3137,6381 3124,6371 3125,6373 3128,6392 " style="fill: white; stroke: black; stroke-width: 30" />
<polyline points="3002,6808 3010,6784 3040,6737 3063,6713 3077,6716 3097,6737 3151,6771 3222,6785 3304,6766 3323,6724 3271,6693 3208,6708 3172,6754 3189,6806 3229,6841 3304,6840 3372,6821 3391,6819 3390,6825 3379,6838 3372,6846 3366,6853 3351,6862 3306,6902 3285,6934 3280,6960 " style="fill: white; stroke: black; stroke-width: 30" />
<polyline points="2036,4413 1983,4386 1963,4371 1959,4372 1962,4375 1986,4385 2040,4393 2141,4392 2297,4367 2460,4339 2570,4327 2596,4329 2602,4329 2598,4333 2594,4334 2596,4334 2597,4334 2601,4334 2603,4333 2604,4332 2603,4327 2584,4315 2552,4277 2517,4230 2500,4200 2499,4187 2503,4181 2504,4181 2500,4177 2494,4172 2491,4168 2491,4173 2495,4174 2492,4177 2488,4178 2489,4180 2488,4178 2488,4178 2484,4180 2472,4186 2406,4190 2261,4196 2137,4204 2069,4214 2039,4220 2019,4224 1997,4226 1973,4225 1948,4224 1946,4225 1948,4223 1951,4222 1959,4219 1963,4218 1966,4216 1973,4216 1975,4216 1976,4215 1977,4211 1977,4207 1983,4169 2005,4042 2009,3936 1996,3896 1988,3885 1992,3886 1995,3887 1999,3888 1997,3887 1996,3888 1993,3889 1995,3890 1998,3889 2001,3888 2006,3887 2019,3894 2059,3904 2166,3912 2295,3918 2405,3928 2479,3935 2502,3939 2500,3936 2495,3937 2495,3936 2499,3939 2505,3940 " style="fill: white; stroke: black; stroke-width: 30" />
<polyline points="3021,4097 3016,4094 3012,4091 3012,4091 3009,4090 3006,4091 2993,4093 2944,4107 2852,4120 2757,4139 2717,4140 2705,4141 2710,4139 2727,4137 2768,4132 2820,4121 " style="fill: white; stroke: black; stroke-width: 30" />
<polyline points="2801,4089 2790,4081 2793,4071 2798,4066 2794,4064 2772,4070 2702,4087 2641,4113 2628,4125 2637,4133 2647,4134 2656,4136 2667,4137 2696,4151 2752,4171 2837,4195 " style="fill: white; stroke: black; stroke-width: 30" />
<polyline points="3459,4089 3476,4085 3485,4082 3488,4076 3482,4060 3454,4025 3387,3981 3303,3979 3265,4005 3264,4044 3299,4074 3370,4090 3439,4084 3465,4076 3460,4077 3444,4095 3414,4175 3400,4265 3375,4348 3345,4404 3315,4415 3284,4387 3238,4292 3232,4195 3267,4134 3345,4112 3470,4097 3585,4092 3669,4069 3700,4049 3694,4041 3690,4032 3682,4026 3669,4024 3651,4031 3642,4042 3628,4068 3632,4088 3639,4100 3669,4109 3738,4105 3801,4080 3814,4068 3804,4077 3792,4089 3778,4133 3785,4169 3818,4186 3882,4144 3952,4057 3997,3988 4008,3971 4006,3972 3997,3988 3967,4037 3936,4092 3919,4134 3923,4145 3938,4146 " style="fill: white; stroke: black; stroke-width: 30" />
<polyline points="4104,3810 4069,3777 4060,3767 4067,3767 4077,3766 4079,3771 4077,3775 4088,3788 4123,3814 " style="fill: white; stroke: black; stroke-width: 30" />
<polyline points="4241,3770 4262,3739 4260,3727 4247,3731 4190,3792 4103,3915 4061,4042 4053,4126 4079,4183 " style="fill: white; stroke: black; stroke-width: 30" />
<polyline points="4345,3856 4310,3842 4292,3864 4243,3961 4179,4074 4136,4167 4127,4198 4145,4172 4186,4095 4227,4016 4231,4009 4234,4012 4238,4020 4265,4042 4316,4057 4404,4047 4453,4024 4453,4017 4446,4013 4429,4017 4379,4042 4345,4080 4356,4106 4407,4132 4528,4131 4651,4102 4674,4088 4647,4091 4508,4170 4320,4312 4197,4465 4188,4605 " style="fill: white; stroke: black; stroke-width: 30" />
<polyline points="2553,4668 2576,4655 2781,4607 3213,4556 3930,4520 4961,4598 " style="fill: white; stroke: black; stroke-width: 30" />
<polyline points="3232,4752 3201,4788 3134,4877 3047,4956 3024,4977 3052,4983 3140,4984 3250,4981 3311,4987 3350,4988 3415,4970 " style="fill: white; stroke: black; stroke-width: 30" />
<polyline points="3261,4792 " style="fill: white; stroke: black; stroke-width: 30" />
<polyline points="3137,4721 3119,4717 3126,4719 3182,4729 3277,4739 3368,4749 3445,4759 " style="fill: white; stroke: black; stroke-width: 30" />
<polyline points="3462,4877 3455,4872 3461,4874 3475,4887 3511,4913 3541,4950 3538,4969 3489,5014 3425,5050 3403,5065 3408,5065 3427,5063 " style="fill: white; stroke: black; stroke-width: 30" />
<polyline points="3893,4861 3885,4857 3862,4845 3789,4845 3710,4875 3676,4914 3673,4951 3680,5016 3682,5042 3668,5058 3645,5058 3610,5050 3596,5034 3603,5023 3618,5011 " style="fill: white; stroke: black; stroke-width: 30" />
<polyline points="3811,4984 3821,4945 3862,4910 3930,4904 3975,4925 3970,4951 3938,4989 3888,5012 3831,5013 3804,4998 3805,4974 3810,4956 3820,4955 3858,4953 " style="fill: white; stroke: black; stroke-width: 30" />
<polyline points="4253,4778 4233,4764 4216,4761 4151,4813 4081,4900 4048,4964 4047,4990 4056,5000 4079,5012 " style="fill: white; stroke: black; stroke-width: 30" />
<polyline points="4249,4888 4249,4885 4246,4881 4241,4880 4231,4882 4197,4917 4147,4977 4142,5025 4167,5061 4227,5079 4306,5060 4330,5031 4322,5006 4294,4992 4271,4990 4278,4993 4304,5009 4346,5035 4381,5042 4402,5033 4429,5004 4468,4964 4474,4949 4464,4950 4428,4956 4369,4990 4352,5030 4372,5065 4437,5102 4545,5110 " style="fill: white; stroke: black; stroke-width: 30" />
<polyline points="4904,4680 4890,4665 4883,4666 4881,4669 4867,4686 4816,4766 4759,4874 4707,4989 4710,5076 " style="fill: white; stroke: black; stroke-width: 30" />
<polyline points="4603,5179 4636,5156 4688,5153 4712,5166 4695,5193 4638,5225 4589,5229 4584,5223 4594,5213 4615,5204 4644,5190 " style="fill: white; stroke: black; stroke-width: 30" />
<polyline points="4834,5097 4865,5103 4904,5110 4928,5115 4962,5103 5021,5069 5108,5007 5187,4945 5229,4880 5244,4808 5241,4722 5228,4635 5208,4549 5164,4490 5111,4431 5039,4374 4961,4310 4882,4252 4805,4185 4729,4102 4636,4005 4546,3906 4472,3810 4374,3739 4218,3659 4015,3574 3809,3498 3634,3431 3441,3378 3205,3339 2942,3315 2700,3302 2490,3298 2306,3304 2117,3336 1938,3387 1770,3452 1665,3514 1602,3582 1538,3662 1481,3746 1436,3825 1404,3901 1388,3961 1393,4020 1439,4086 1531,4130 1651,4152 1743,4159 1798,4164 1825,4160 1832,4157 1833,4153 1831,4154 1830,4154 1832,4157 1834,4158 1836,4158 1836,4158 1837,4159 1840,4158 1839,4158 1838,4157 1841,4156 1841,4154 1845,4155 " style="fill: white; stroke: black; stroke-width: 30" />
<polyline points="1862,4031 1839,4025 1828,4023 1825,4027 1826,4032 1836,4048 1859,4075 1894,4108 1928,4132 1937,4143 1932,4145 1899,4165 1836,4205 1816,4218 1821,4216 1829,4211 " style="fill: white; stroke: black; stroke-width: 30" />
<polyline points="2248,5157 " style="fill: white; stroke: black; stroke-width: 30" />
<polyline points="1849,5138 1784,5125 1769,5118 1785,5120 1884,5116 2105,5117 2468,5115 3019,5118 3717,5163 4520,5263 5346,5383 " style="fill: white; stroke: black; stroke-width: 30" />
<polyline points="-2989,7271 -2992,7271 -2991,7264 -2988,7252 -2987,7206 -2970,7084 -2943,6925 -2922,6823 -2913,6776 -2910,6778 -2914,6788 -2926,6836 -2939,6941 -2932,7045 -2888,7130 -2811,7159 -2702,7133 -2597,7056 -2510,6965 -2463,6885 -2459,6856 -2469,6858 -2468,6867 -2476,6877 -2474,6908 -2475,6966 -2458,7026 -2427,7065 -2379,7064 -2312,7039 -2254,7013 -2239,7017 -2241,7046 -2266,7109 -2282,7162 -2277,7166 -2247,7120 " style="fill: white; stroke: black; stroke-width: 30" />
<polyline points="-2251,6831 -2268,6836 -2268,6837 -2260,6837 -2241,6853 " style="fill: white; stroke: black; stroke-width: 30" />
<polyline points="-2177,7172 -2195,7185 -2194,7176 -2182,7151 -2141,7107 -2101,7074 -2078,7067 -2071,7079 -2073,7115 -2061,7142 -2024,7134 -1965,7101 -1935,7091 -1940,7104 -1952,7131 -1946,7149 -1914,7142 -1863,7119 -1831,7117 -1836,7128 -1838,7133 -1826,7130 -1804,7124 -1793,7136 -1794,7153 -1789,7152 " style="fill: white; stroke: black; stroke-width: 30" />
<polyline points="-1557,6909 -1492,6869 -1383,6831 -1303,6838 -1279,6860 -1298,6911 -1391,6989 -1516,7073 -1571,7113 -1571,7120 -1528,7132 -1451,7147 -1354,7148 -1274,7144 " style="fill: white; stroke: black; stroke-width: 30" />
<polyline points="-2882,7597 -2881,7587 -2872,7577 -2858,7570 -2828,7566 -2770,7566 -2694,7560 -2594,7565 " style="fill: white; stroke: black; stroke-width: 30" />
<polyline points="-2756,7665 -2813,7683 -2840,7709 -2868,7759 -2900,7849 -2914,7918 -2910,7953 -2879,7973 -2824,7986 -2733,7989 -2648,7980 -2573,7970 -2514,7965 " style="fill: white; stroke: black; stroke-width: 30" />
<polyline points="-2617,7877 -2626,7873 -2601,7865 -2517,7874 -2418,7901 -2356,7939 -2346,7971 -2378,7998 -2452,8040 -2517,8076 -2529,8081 -2507,8068 " style="fill: white; stroke: black; stroke-width: 30" />
<polyline points="-1932,7864 -1927,7866 -1929,7868 -1940,7890 -1947,7979 -1986,8083 -2021,8149 -2022,8181 -2017,8180 -2001,8161 -1983,8085 " style="fill: white; stroke: black; stroke-width: 30" />
<polyline points="-2068,7913 -2076,7892 -2067,7886 -2054,7881 -2003,7875 -1926,7875 -1820,7870 -1704,7868 " style="fill: white; stroke: black; stroke-width: 30" />
<polyline points="-2143,8022 -2133,8016 -2093,8003 -2005,7990 -1904,7983 -1827,7999 " style="fill: white; stroke: black; stroke-width: 30" />
<polyline points="-1814,7969 -1814,7961 -1799,7952 -1760,7965 -1708,8006 -1682,8061 -1695,8116 -1744,8173 -1826,8191 -1883,8176 -1899,8128 -1890,8094 -1854,8073 -1810,8078 -1775,8105 -1729,8140 -1680,8156 -1609,8138 -1543,8095 -1507,8070 -1514,8063 -1516,8064 -1522,8064 -1529,8063 -1527,8061 -1528,8062 -1538,8070 -1556,8088 -1555,8094 -1549,8095 -1533,8088 -1484,8075 -1437,8066 -1413,8070 -1412,8084 -1409,8104 -1396,8115 -1343,8117 -1291,8119 -1262,8138 -1242,8158 " style="fill: white; stroke: black; stroke-width: 30" />
<polyline points="-1202,8076 -1189,8076 -1187,8076 -1193,8083 -1203,8100 -1218,8144 -1222,8171 -1205,8165 " style="fill: white; stroke: black; stroke-width: 30" />
<polyline points="-1109,7941 -1131,7933 -1140,7932 -1142,7935 -1127,7925 " style="fill: white; stroke: black; stroke-width: 30" />
<polyline points="-955,7871 -985,7898 -1034,7961 -1083,8061 -1087,8127 -1057,8159 -1012,8150 -939,8110 -854,8055 -799,8008 -790,7995 -813,8006 -838,8039 -871,8088 -885,8134 -879,8161 -844,8164 -787,8136 -718,8084 -671,8046 -673,8046 -698,8067 -748,8114 -786,8162 -785,8188 -774,8209 -757,8225 -725,8226 -690,8204 -660,8181 -662,8180 -676,8187 -691,8198 -705,8210 -707,8212 -716,8213 -720,8216 -723,8217 -720,8216 -713,8213 -694,8195 -664,8155 -638,8112 -630,8094 -626,8083 -635,8080 -635,8078 -652,8081 -702,8120 -819,8234 -967,8411 -1035,8568 -1054,8668 " style="fill: white; stroke: black; stroke-width: 30" />
<polyline points="424,7992 410,8002 395,8038 355,8128 299,8237 274,8308 281,8354 303,8360 319,8303 318,8201 317,8092 348,8017 414,7990 478,7998 528,8033 548,8073 513,8116 417,8149 319,8146 300,8139 303,8135 347,8142 433,8153 536,8177 654,8167 755,8135 834,8079 862,8018 851,7986 823,7976 777,7990 706,8094 628,8258 598,8383 581,8463 588,8494 " style="fill: white; stroke: black; stroke-width: 30" />
<polyline points="664,8278 623,8262 615,8258 629,8258 658,8257 748,8243 849,8216 931,8184 960,8169 931,8170 918,8168 914,8168 921,8163 924,8160 923,8156 926,8155 928,8154 925,8158 916,8162 900,8177 862,8223 864,8250 888,8268 955,8279 1050,8258 1122,8243 1120,8249 1107,8260 1087,8296 1095,8322 " style="fill: white; stroke: black; stroke-width: 30" />
<polyline points="-22,8121 -69,8112 -108,8102 -128,8097 -128,8097 -129,8097 -125,8096 -119,8099 -100,8104 -69,8113 1,8122 187,8131 509,8150 896,8176 1244,8214 1438,8243 1492,8251 1494,8251 1488,8249 1486,8248 1488,8245 1485,8247 1491,8245 1498,8246 1504,8246 1509,8246 1515,8244 1522,8238 " style="fill: white; stroke: black; stroke-width: 30" />
<polyline points="307,8690 296,8674 293,8666 280,8676 248,8740 196,8848 174,8920 190,8950 243,8975 323,8979 410,8979 511,8966 " style="fill: white; stroke: black; stroke-width: 30" />
<polyline points="116,8632 154,8638 216,8650 330,8664 446,8666 534,8666 569,8681 " style="fill: white; stroke: black; stroke-width: 30" />
<polyline points="539,8868 550,8864 595,8874 645,8904 681,8941 691,8981 645,9036 578,9083 551,9098 561,9097 601,9094 " style="fill: white; stroke: black; stroke-width: 30" />
<polyline points="921,8851 891,8841 886,8844 872,8885 832,8994 786,9100 774,9155 782,9164 793,9149 828,9091 850,9002 860,8928 850,8889 844,8883 844,8887 839,8924 830,8988 851,9030 892,9048 994,9036 1100,8992 1138,8973 1118,8978 1072,9021 1016,9111 1008,9166 1055,9189 1160,9179 1264,9133 1304,9109 1278,9104 1215,9111 1157,9137 1157,9169 1225,9211 1341,9220 1433,9208 " style="fill: white; stroke: black; stroke-width: 30" />
<polyline points="1498,9173 1499,9156 1514,9124 1511,9109 1462,9107 1380,9141 1331,9176 1343,9199 1406,9208 1541,9158 1666,9078 1713,9032 1704,9022 1652,9042 1583,9097 1567,9165 1600,9197 1684,9200 1768,9179 1776,9170 1759,9178 1738,9187 1754,9190 1799,9187 1847,9177 1836,9179 1828,9186 1824,9190 1848,9200 1941,9186 " style="fill: white; stroke: black; stroke-width: 30" />
<polyline points="2135,9014 2133,9015 2133,9016 2152,9016 2173,9011 2202,9001 2208,8995 2204,8994 2211,8991 2209,8990 2185,8998 2118,9056 2028,9141 1995,9206 2018,9235 " style="fill: white; stroke: black; stroke-width: 30" />
<polyline points="2415,8959 2382,8960 2295,9014 2173,9126 2140,9200 2176,9220 2295,9171 2437,9091 2468,9074 2433,9085 2383,9135 2357,9180 2378,9219 " style="fill: white; stroke: black; stroke-width: 30" />
<polyline points="2633,9072 2645,9027 2658,9004 2693,8998 2729,9017 2751,9060 2707,9128 2627,9189 2539,9224 2495,9216 2503,9198 2515,9186 2528,9183 2554,9185 2622,9215 " style="fill: white; stroke: black; stroke-width: 30" />
<polyline points="569,9595 536,9598 522,9597 525,9595 563,9587 654,9574 818,9554 1098,9526 1578,9499 2157,9500 2683,9543 3029,9597 3123,9612 3122,9613 3130,9612 3134,9611 3134,9611 3135,9610 3131,9608 3129,9610 3125,9599 " style="fill: white; stroke: black; stroke-width: 30" />
<polyline points="1213,9744 1203,9741 1155,9765 1063,9879 970,10018 942,10104 972,10143 1069,10175 1192,10172 1295,10158 1377,10130 1429,10088 " style="fill: white; stroke: black; stroke-width: 30" />
<polyline points="1349,10006 1290,9998 1264,9992 1270,9995 1307,10007 1376,10045 1441,10076 1449,10090 1435,10094 1417,10104 1375,10139 1314,10201 1294,10245 " style="fill: white; stroke: black; stroke-width: 30" />
<polyline points="2121,9912 2121,9896 2126,9880 2098,9880 2035,9882 1953,9909 1900,9945 1904,9999 1935,10089 1950,10145 1945,10154 1895,10153 1839,10125 1811,10103 1830,10098 1914,10082 " style="fill: white; stroke: black; stroke-width: 30" />
<polyline points="2348,9936 2377,9896 2345,9890 2311,9898 2220,9990 2139,10099 2100,10188 2096,10218 2093,10210 2097,10179 2096,10158 2115,10147 2149,10136 2203,10132 2278,10124 2331,10131 " style="fill: white; stroke: black; stroke-width: 30" />
<polyline points="2300,10262 2312,10233 2345,10187 2377,10153 2387,10135 2410,10126 2452,10109 2536,10098 2591,10106 2632,10119 2638,10142 " style="fill: white; stroke: black; stroke-width: 30" />
<polyline points="2703,10165 2697,10161 2702,10161 2695,10168 2687,10186 2657,10235 2619,10268 2581,10289 2562,10287 2553,10277 2554,10240 2565,10198 2572,10192 2590,10194 2600,10211 2627,10261 2682,10300 " style="fill: white; stroke: black; stroke-width: 30" />
<polyline points="2925,10243 2985,10157 3005,10091 3012,10042 2999,10027 2987,10029 2949,10054 2837,10173 2717,10318 2653,10415 2645,10458 2658,10462 2721,10401 2796,10332 2827,10312 2845,10305 2845,10306 2844,10308 2851,10309 2843,10313 2855,10312 2881,10303 2948,10261 3012,10234 3048,10236 3092,10254 3175,10285 3250,10292 3286,10277 3272,10248 3245,10226 3203,10225 3186,10257 3205,10312 3236,10362 3300,10381 3365,10364 " style="fill: white; stroke: black; stroke-width: 30" />
<polyline points="3541,10257 3541,10242 3503,10233 3431,10248 3373,10285 3365,10322 3406,10353 3527,10324 3650,10261 3735,10193 3747,10171 3747,10171 3742,10176 3706,10231 3697,10282 3688,10331 3706,10355 3755,10362 3872,10327 4025,10249 4165,10172 4196,10148 4174,10147 4133,10170 4080,10230 3996,10310 3901,10386 3851,10433 3849,10446 3905,10411 3947,10358 3968,10343 3991,10341 4057,10356 4157,10377 4263,10391 " style="fill: white; stroke: black; stroke-width: 30" />
<polyline points="1852,10646 1818,10693 1769,10716 1735,10715 1745,10708 1790,10703 1924,10685 2260,10662 2845,10677 3744,10799 4745,11096 " style="fill: white; stroke: black; stroke-width: 30" />
<polyline points="-57,7916 49,7807 242,7716 508,7654 811,7632 1090,7681 1299,7789 1426,7938 1495,8101 1543,8269 1533,8455 1448,8601 1268,8709 1013,8767 730,8764 473,8715 227,8628 32,8513 -140,8357 -265,8187 -315,8036 -266,7883 -46,7704 354,7588 876,7566 " style="fill: white; stroke: black; stroke-width: 30" />
<polyline points="2600,7726 2590,7721 2582,7722 2555,7740 2473,7805 2297,7919 2072,8021 1875,8082 1753,8090 " style="fill: white; stroke: black; stroke-width: 30" />
<polyline points="1891,7790 1894,7780 1893,7790 1856,7820 1761,7896 1704,7947 1741,8003 1830,8074 1949,8128 2078,8153 2208,8151 " style="fill: white; stroke: black; stroke-width: 30" />
<polyline points="3165,7650 3190,7660 3211,7655 3216,7642 3191,7605 3128,7575 3016,7591 2935,7657 2934,7727 2986,7781 3115,7775 3248,7709 3305,7619 3309,7531 3290,7496 3290,7495 3287,7497 3297,7497 3294,7500 3293,7501 3291,7498 3288,7498 3287,7497 3284,7499 3289,7498 3289,7501 3290,7500 3290,7503 3292,7508 3279,7574 3279,7662 3313,7726 3360,7758 3418,7761 3472,7718 3504,7630 3521,7554 3517,7549 3509,7556 3502,7584 3487,7649 3498,7685 3525,7705 3567,7715 3594,7715 3592,7719 3585,7725 3591,7739 3602,7746 3604,7751 3607,7752 3604,7772 " style="fill: white; stroke: black; stroke-width: 30" />
<polyline points="3732,7784 3736,7735 3730,7699 3732,7691 3760,7680 3844,7668 3919,7663 3944,7673 " style="fill: white; stroke: black; stroke-width: 30" />
<polyline points="4077,7707 4069,7661 4040,7615 3966,7612 3899,7655 3887,7731 3928,7802 4040,7819 4202,7763 4341,7665 4381,7567 4347,7527 4307,7517 4264,7548 4253,7610 4274,7693 4310,7746 4332,7788 4335,7817 4337,7845 " style="fill: white; stroke: black; stroke-width: 30" />
<polyline points="4634,7711 4752,7715 4926,7715 5105,7723 " style="fill: white; stroke: black; stroke-width: 30" />
<polyline points="3048,8093 3122,8096 3117,8097 3073,8094 3000,8092 2937,8111 2932,8129 2948,8197 2971,8261 2971,8304 2931,8326 2865,8317 2822,8277 2846,8238 2966,8169 3127,8143 3281,8129 3362,8116 3360,8111 3331,8110 3290,8113 3271,8124 3287,8129 3333,8148 3402,8163 3438,8169 3426,8174 3406,8191 3404,8229 3454,8260 " style="fill: white; stroke: black; stroke-width: 30" />
<polyline points="3861,8184 3859,8170 3831,8154 3758,8146 3658,8168 3644,8181 3659,8198 3723,8213 3859,8174 4014,8107 4112,8061 4138,8041 4118,8039 4067,8049 3981,8088 3960,8136 3971,8190 4039,8231 4172,8238 4242,8245 4249,8240 4238,8237 4268,8217 4287,8211 4285,8212 4284,8215 4289,8220 4332,8230 4413,8223 4435,8222 4416,8227 4400,8248 4435,8278 4530,8286 4634,8269 4637,8266 4616,8262 4625,8268 4657,8293 4731,8318 4764,8334 4734,8336 4717,8338 4750,8343 4812,8339 4866,8340 4867,8339 4841,8347 4822,8374 4830,8431 " style="fill: white; stroke: black; stroke-width: 30" />
<polyline points="2363,8554 2341,8554 2352,8548 2364,8544 2383,8543 2403,8549 2516,8556 2849,8547 3506,8547 4513,8669 5771,8929 " style="fill: white; stroke: black; stroke-width: 30" />
<polyline points="-3318,7521 -3322,7522 -3278,7527 -3146,7533 -2843,7534 -2352,7534 -1675,7542 -874,7564 " style="fill: white; stroke: black; stroke-width: 30" />
<polyline points="-2824,9895 -2851,9842 -2874,9832 -2917,9887 -2965,10122 -2997,10610 -2978,11210 -2956,11642 -2948,11858 -2918,11977 " style="fill: white; stroke: black; stroke-width: 30" />
<polyline points="-3006,12385 -2914,12382 -2658,12346 -2300,12271 -1829,12200 -1288,12160 -824,12155 -422,12176 -147,12198 " style="fill: white; stroke: black; stroke-width: 30" />
<polyline points="-3059,9945 -3020,9965 -2857,9991 -2572,9988 -2148,9975 -1662,9969 -1137,9976 -677,9999 -303,10021 -82,10041 11,10050 15,10050 5,10048 5,10048 1,10047 -2,10074 -37,10272 -86,10597 -120,10991 -166,11398 -202,11780 -228,12109 -250,12374 -239,12573 " style="fill: white; stroke: black; stroke-width: 30" />
<polyline points="-2146,9275 -2144,9282 " style="fill: white; stroke: black; stroke-width: 30" />
<polyline points="-1999,9203 -2057,9151 -2186,9107 -2355,9143 -2520,9282 -2640,9478 -2674,9619 -2628,9702 -2530,9758 -2372,9762 -2214,9688 -2112,9574 -2115,9442 -2199,9389 -2280,9383 -2300,9386 -2283,9386 -2231,9388 -2164,9406 -2084,9443 -2013,9478 -1954,9507 -1936,9522 -1951,9550 -2001,9635 -2054,9722 -2078,9793 -2044,9848 " style="fill: white; stroke: black; stroke-width: 30" />
<polyline points="-1626,9275 -1667,9275 -1685,9286 -1744,9397 -1826,9544 -1843,9645 -1819,9674 -1742,9671 -1630,9606 -1524,9544 -1502,9535 -1508,9551 -1555,9624 -1580,9685 -1546,9701 -1437,9640 -1302,9531 -1213,9468 -1223,9465 -1234,9475 -1239,9476 -1231,9482 -1226,9489 -1254,9529 -1317,9617 -1356,9684 -1380,9735 -1329,9745 " style="fill: white; stroke: black; stroke-width: 30" />
<polyline points="-1201,9270 -1166,9166 -1094,9084 -1019,9084 -998,9118 -1070,9183 -1194,9215 -1229,9209 -1218,9197 -1179,9157 -1089,9097 " style="fill: white; stroke: black; stroke-width: 30" />
<polyline points="-2777,10291 -2761,10278 -2714,10263 -2664,10254 -2574,10258 -2480,10269 " style="fill: white; stroke: black; stroke-width: 30" />
<polyline points="-2760,10180 -2771,10197 -2780,10296 -2802,10434 -2789,10543 -2759,10607 -2723,10630 -2708,10633 -2708,10633 -2711,10634 -2706,10633 -2712,10631 -2707,10628 -2674,10620 -2610,10607 -2518,10577 -2429,10539 " style="fill: white; stroke: black; stroke-width: 30" />
<polyline points="-2426,10265 -2472,10244 -2468,10247 -2472,10291 -2491,10454 -2508,10629 " style="fill: white; stroke: black; stroke-width: 30" />
<polyline points="-2209,10300 -2184,10273 -2108,10246 -2008,10223 -1933,10225 -1867,10233 " style="fill: white; stroke: black; stroke-width: 30" />
<polyline points="-2150,10247 -2209,10334 -2247,10454 -2272,10554 -2265,10619 -2252,10642 -2227,10653 -2194,10659 -2151,10660 -2086,10662 -2020,10651 " style="fill: white; stroke: black; stroke-width: 30" />
<polyline points="-1930,10224 -1943,10215 -1952,10217 -1958,10265 -2012,10409 -2058,10562 -2052,10665 " style="fill: white; stroke: black; stroke-width: 30" />
<polyline points="-1699,10303 -1703,10319 -1696,10325 -1651,10332 -1533,10312 -1402,10284 -1315,10270 " style="fill: white; stroke: black; stroke-width: 30" />
<polyline points="-1626,10237 -1678,10247 -1701,10316 -1724,10458 -1749,10599 -1750,10658 -1742,10673 -1690,10676 -1643,10669 -1593,10668 -1533,10668 -1464,10655 " style="fill: white; stroke: black; stroke-width: 30" />
<polyline points="-1418,10297 -1434,10293 -1443,10306 -1455,10359 -1499,10485 -1541,10640 -1549,10753 " style="fill: white; stroke: black; stroke-width: 30" />
<polyline points="-1068,10119 -1109,10191 -1136,10263 -1158,10354 -1217,10459 -1233,10538 -1195,10580 -1123,10598 -1043,10588 " style="fill: white; stroke: black; stroke-width: 30" />
<polyline points="-1117,10233 -1110,10225 -1077,10213 -980,10199 -866,10192 -795,10196 -780,10213 -798,10242 -838,10279 -875,10348 -935,10437 -986,10517 -1025,10567 -993,10597 " style="fill: white; stroke: black; stroke-width: 30" />
<polyline points="-641,10217 -643,10218 -647,10232 -646,10269 -677,10354 -730,10496 -785,10603 -795,10659 -773,10681 -728,10685 -697,10676 -666,10660 -613,10629 -541,10583 -453,10553 -423,10552 -429,10560 " style="fill: white; stroke: black; stroke-width: 30" />
<polyline points="-618,10263 -646,10236 -642,10233 -570,10240 -468,10255 -381,10274 -354,10275 -354,10271 -359,10259 -357,10258 -365,10261 -369,10279 -417,10356 -486,10478 -538,10609 -534,10698 " style="fill: white; stroke: black; stroke-width: 30" />
<polyline points="-2696,10993 -2667,10967 -2658,10964 -2661,10988 -2700,11086 -2747,11168 -2727,11187 -2663,11198 -2543,11151 -2447,11105 " style="fill: white; stroke: black; stroke-width: 30" />
<polyline points="-2566,10947 -2601,10943 -2592,10941 -2568,10934 -2504,10919 -2421,10913 -2335,10923 -2278,10947 -2249,10966 -2265,10991 -2326,11037 -2400,11115 -2491,11192 -2507,11237 -2479,11262 " style="fill: white; stroke: black; stroke-width: 30" />
<polyline points="-2032,10914 -2026,10918 -2048,10980 -2097,11113 -2135,11197 -2124,11234 -2080,11214 -2027,11163 -2014,11116 -2014,11104 -2033,11099 -2039,11098 -2016,11091 -1984,11080 -1944,11081 -1900,11091 -1881,11095 -1849,11100 -1818,11083 " style="fill: white; stroke: black; stroke-width: 30" />
<polyline points="-1940,10895 -1960,10886 -1957,10883 -1915,10899 -1842,10935 -1772,10969 -1740,10985 -1748,11007 -1800,11062 -1888,11149 -1933,11206 -1938,11236 -1898,11249 " style="fill: white; stroke: black; stroke-width: 30" />
<polyline points="-2130,11183 -2097,11183 -2002,11201 -1886,11231 " style="fill: white; stroke: black; stroke-width: 30" />
<polyline points="-1469,10858 -1485,10868 -1512,10927 -1577,11045 -1640,11169 -1655,11241 -1609,11260 " style="fill: white; stroke: black; stroke-width: 30" />
<polyline points="-1569,10867 -1587,10872 -1581,10875 -1506,10900 -1396,10919 -1312,10935 -1266,10957 -1260,10996 -1269,11044 -1285,11071 -1304,11103 -1364,11141 -1456,11186 -1544,11243 -1609,11274 -1620,11275 -1606,11270 -1607,11262 -1594,11261 -1581,11260 " style="fill: white; stroke: black; stroke-width: 30" />
<polyline points="-1660,12539 -1664,12479 -1654,12458 -1668,12468 -1682,12555 -1702,12688 -1702,12818 -1702,12897 -1681,12943 " style="fill: white; stroke: black; stroke-width: 30" />
<polyline points="-1859,12571 -1878,12552 -1884,12538 -1853,12513 -1739,12479 -1596,12469 -1434,12478 " style="fill: white; stroke: black; stroke-width: 30" />
<polyline points="-1439,12680 -1489,12729 -1506,12790 -1521,12832 -1510,12847 -1502,12842 -1500,12806 -1483,12761 -1462,12725 -1429,12700 -1387,12685 -1356,12698 -1302,12712 -1246,12709 -1184,12702 -1184,12702 -1202,12704 -1199,12727 -1220,12767 -1240,12826 -1253,12865 -1239,12864 " style="fill: white; stroke: black; stroke-width: 30" />
<polyline points="-1163,12473 -1168,12447 -1173,12446 -1187,12448 -1178,12451 -1168,12473 " style="fill: white; stroke: black; stroke-width: 30" />
<polyline points="-1096,12798 -1080,12784 -1067,12770 -1059,12763 -1068,12758 -1119,12759 -1157,12771 -1150,12779 -1100,12791 -1040,12777 -1016,12774 -1022,12789 -1054,12857 -1091,12943 -1103,13027 -1122,13082 -1135,13088 -1154,13052 -1175,12947 -1139,12850 -1051,12786 -938,12742 -844,12711 -822,12696 -829,12694 -858,12696 -877,12699 -880,12708 -888,12710 -881,12715 -888,12715 -886,12719 -897,12736 -927,12780 -928,12807 -932,12863 -940,12938 -940,13004 -916,13084 -933,13143 -973,13182 -1019,13195 -1037,13171 -1019,13069 -969,12934 -908,12863 -853,12836 -800,12845 -772,12864 -709,12872 -672,12858 -622,12840 -597,12824 -599,12809 -600,12785 -638,12766 -696,12764 -742,12775 -745,12782 -716,12829 -675,12875 -615,12904 -572,12906 -549,12881 -503,12824 -479,12766 -436,12727 -400,12709 " style="fill: white; stroke: black; stroke-width: 30" />
<polyline points="-2043,13164 -2039,13171 -2059,13166 -2059,13166 -2053,13164 -2038,13167 -1989,13179 -1857,13189 -1587,13182 -1205,13168 -749,13153 -352,13152 -156,13154 -114,13151 -175,13121 " style="fill: white; stroke: black; stroke-width: 30" />
<polyline points="381,12481 364,12487 344,12513 311,12617 242,12726 228,12797 212,12835 234,12847 275,12809 306,12693 310,12586 328,12543 353,12514 410,12508 489,12543 541,12603 572,12662 515,12731 424,12798 309,12835 193,12855 140,12850 147,12843 217,12811 360,12745 543,12710 691,12687 741,12686 720,12698 686,12733 652,12768 627,12801 635,12807 661,12807 728,12795 750,12786 754,12787 741,12797 764,12832 815,12859 " style="fill: white; stroke: black; stroke-width: 30" />
<polyline points="1065,12583 1069,12568 1076,12573 1030,12626 968,12726 892,12818 852,12869 873,12887 919,12885 " style="fill: white; stroke: black; stroke-width: 30" />
<polyline points="1159,12699 1147,12697 1114,12710 1066,12738 976,12793 942,12830 955,12848 1002,12880 1108,12887 1202,12875 1246,12849 1230,12827 1189,12816 1149,12825 1142,12831 1151,12856 1171,12887 1174,12918 1192,12929 1231,12942 1309,12935 " style="fill: white; stroke: black; stroke-width: 30" />
<polyline points="-1404,13248 -1408,13235 -1421,13238 -1453,13255 -1474,13283 -1524,13319 -1517,13329 -1486,13369 -1419,13416 -1386,13445 -1399,13450 -1467,13454 -1555,13455 -1580,13452 -1543,13443 -1449,13382 " style="fill: white; stroke: black; stroke-width: 30" />
<polyline points="-1088,13243 -1103,13268 -1118,13306 -1151,13359 -1185,13404 -1193,13441 -1204,13442 -1193,13442 -1188,13436 -1189,13423 -1195,13403 -1200,13398 -1212,13390 -1199,13383 -1205,13375 -1195,13377 -1203,13376 -1180,13378 -1139,13369 -1080,13370 -1043,13381 " style="fill: white; stroke: black; stroke-width: 30" />
<polyline points="-1032,13431 -1028,13421 -1031,13393 -1004,13361 -992,13335 -963,13325 -932,13320 -887,13325 -843,13338 " style="fill: white; stroke: black; stroke-width: 30" />
<polyline points="-726,13335 -746,13333 -741,13333 -734,13341 -740,13357 -742,13396 -782,13434 -802,13455 -834,13447 -851,13428 -857,13407 -864,13404 -872,13404 -875,13406 -852,13405 -811,13401 -768,13409 " style="fill: white; stroke: black; stroke-width: 30" />
<polyline points="-510,13278 -485,13266 -472,13250 -471,13242 -490,13212 -522,13201 -555,13217 -580,13279 -632,13369 -656,13445 -666,13491 -669,13506 -631,13499 -596,13470 -542,13445 -536,13435 -505,13412 -482,13394 -479,13388 -482,13394 -477,13405 -452,13421 -455,13422 -457,13422 -467,13419 -483,13422 -490,13421 -490,13421 -477,13411 -436,13397 -428,13376 -372,13361 -352,13349 -324,13346 -286,13347 -234,13347 -193,13340 -148,13332 -155,13324 -165,13320 -183,13312 -216,13317 -248,13329 -266,13354 -265,13393 -235,13437 -155,13469 -76,13463 " style="fill: white; stroke: black; stroke-width: 30" />
<polyline points="-20,13333 -65,13333 -65,13346 -103,13381 -108,13405 -76,13424 -33,13424 27,13404 85,13375 105,13360 87,13357 90,13360 83,13369 75,13387 98,13401 113,13412 154,13421 166,13433 172,13455 169,13462 " style="fill: white; stroke: black; stroke-width: 30" />
<polyline points="400,13288 407,13280 392,13281 365,13312 296,13365 249,13403 227,13411 242,13403 239,13391 251,13381 297,13371 410,13362 621,13363 " style="fill: white; stroke: black; stroke-width: 30" />
<polyline points="8470,10660 " style="fill: white; stroke: black; stroke-width: 30" />

</svg>