<?xml version="1.0" standalone="no"?>
<!DOCTYPE svg PUBLIC "-//W3C//DTD SVG 1.1//EN" "http://www.w3.org/Graphics/SVG/1.1/DTD/svg11.dtd">
<svg width="210mm" height="297mm" viewBox="-7000 500 14000 20000" version="1.1" xmlns="http://www.w3.org/2000/svg">

<polyline points="-1339,1874 -1352,1896 -1353,1941 -1342,2013 -1324,2074 -1314,2099 -1311,2104 -1316,2098 -1336,2051 -1366,1980 -1380,1895 -1385,1820 -1380,1777 -1375,1763 -1369,1763 -1353,1770 -1317,1801 -1278,1848 -1255,1886 -1256,1900 -1266,1901 -1274,1900 -1276,1897 -1275,1898 -1266,1899 -1261,1903 -1260,1903 -1259,1907 -1257,1910 -1247,1920 -1239,1925 -1233,1929 -1234,1926 -1236,1927 -1237,1923 -1239,1922 -1241,1920 -1240,1920 -1240,1919 -1240,1920 -1240,1920 -1239,1922 -1236,1923 -1216,1938 -1177,1975 -1151,2019 -1150,2048 -1162,2082 -1193,2120 -1232,2138 -1287,2130 -1346,2097 -1366,2076 -1366,2072 -1361,2071 -1338,2057 " style="fill: white; stroke: black; stroke-width: 30" />
<polyline points="-1120,2088 -1125,2096 -1092,2093 -1016,2074 -933,2032 -904,1999 -935,1984 -1023,1992 -1118,2031 -1150,2070 -1117,2111 -1033,2152 -921,2163 " style="fill: white; stroke: black; stroke-width: 30" />
<polyline points="-798,1954 -760,1944 -723,1944 -694,1960 -683,1976 -701,2014 -753,2066 -776,2091 -758,2103 -701,2122 -411,2042 -612,2137 " style="fill: white; stroke: black; stroke-width: 30" />
<polyline points="-753,2052 -756,2048 -747,2045 -719,2049 -662,2054 -612,2065 " style="fill: white; stroke: black; stroke-width: 30" />
<polyline points="566,918 553,924 550,938 542,1030 537,1155 539,1263 556,1320 " style="fill: white; stroke: black; stroke-width: 30" />
<polyline points="767,991 687,998 584,1038 527,1086 528,1114 568,1146 652,1179 728,1212 " style="fill: white; stroke: black; stroke-width: 30" />
<polyline points="846,1071 838,1054 842,1060 868,1078 888,1128 892,1183 864,1223 807,1253 766,1243 758,1220 771,1178 802,1165 849,1184 903,1230 952,1265 1006,1283 1058,1260 1073,1216 1053,1197 1035,1199 1031,1204 1034,1219 1047,1215 1062,1204 1068,1185 1083,1165 1094,1157 1108,1179 1143,1222 1183,1267 1208,1286 1235,1278 " style="fill: white; stroke: black; stroke-width: 30" />
<polyline points="1467,962 1454,949 1442,947 1438,939 1426,949 1403,1016 1352,1131 1322,1222 1098,1243 1322,1278 1100,1243 1336,1212 1350,1171 1369,1158 1421,1152 1497,1147 1573,1132 1610,1134 1611,1133 1603,1142 1584,1186 1565,1243 1562,1282 1572,1285 " style="fill: white; stroke: black; stroke-width: 30" />
<polyline points="1695,865 1676,874 1671,866 1675,867 1681,863 1685,874 1689,866 1686,872 1686,862 1686,869 1692,861 1725,864 1753,877 1759,907 1739,937 1711,958 1691,958 1677,945 1674,901 1712,814 " style="fill: white; stroke: black; stroke-width: 30" />
<polyline points="2941,110 2941,203 2976,195 3049,112 " style="fill: white; stroke: black; stroke-width: 30" />
<polyline points="2444,394 2469,360 2473,355 2463,354 2415,392 2305,477 2158,586 2064,668 2057,710 " style="fill: white; stroke: black; stroke-width: 30" />
<polyline points="156,1356 147,1354 108,1380 -7,1481 -171,1609 -290,1698 -328,1731 -300,1719 " style="fill: white; stroke: black; stroke-width: 30" />
<polyline points="-212,2436 -205,2423 -184,2427 -111,2477 19,2586 160,2716 279,2822 355,2897 392,2927 400,2930 395,2910 " style="fill: white; stroke: black; stroke-width: 30" />
<polyline points="676,3113 669,3111 665,3109 654,3103 614,3089 544,3091 488,3116 480,3164 520,3259 592,3348 636,3403 639,3413 625,3405 580,3369 542,3327 538,3322 569,3322 665,3319 779,3292 868,3248 879,3216 832,3197 763,3213 741,3251 767,3306 848,3339 956,3342 " style="fill: white; stroke: black; stroke-width: 30" />
<polyline points="1126,3027 1116,3054 1078,3139 1032,3245 1015,3320 1031,3358 1084,3359 " style="fill: white; stroke: black; stroke-width: 30" />
<polyline points="1163,3185 1093,3210 1037,3250 1027,3295 1067,3332 1150,3362 1212,3373 " style="fill: white; stroke: black; stroke-width: 30" />
<polyline points="508,3631 491,3632 471,3647 416,3746 309,3929 180,4102 112,4182 97,4202 100,4200 108,4192 132,4164 " style="fill: white; stroke: black; stroke-width: 30" />
<polyline points="-426,4456 -439,4464 -445,4496 -458,4602 -478,4735 -497,4829 -498,4853 -495,4850 -489,4812 -479,4706 -472,4571 -444,4451 -387,4382 -321,4376 -269,4421 -268,4499 -321,4579 -388,4628 -445,4646 -456,4654 -445,4661 -392,4707 -314,4726 -227,4709 -155,4665 -122,4617 -143,4593 -197,4597 -255,4628 -268,4662 -242,4708 -176,4736 -97,4732 -33,4699 10,4649 17,4599 0,4570 -18,4570 -29,4574 -31,4575 -30,4568 -26,4562 -25,4559 -24,4557 -22,4550 -20,4546 -10,4542 0,4544 22,4565 40,4619 36,4684 20,4738 -18,4776 -76,4796 -99,4775 -96,4732 -74,4709 -48,4713 0,4735 50,4763 111,4766 189,4729 261,4654 308,4548 316,4492 298,4480 267,4489 217,4553 199,4631 219,4714 273,4785 358,4827 " style="fill: white; stroke: black; stroke-width: 30" />
<polyline points="2024,1362 2002,1363 1991,1363 1986,1370 1995,1375 2043,1393 2137,1422 2271,1456 2385,1484 2424,1501 2425,1505 2421,1506 2419,1505 2418,1503 2410,1494 2393,1480 " style="fill: white; stroke: black; stroke-width: 30" />
<polyline points="2444,1408 2425,1415 2431,1416 2459,1429 2508,1451 2540,1475 2538,1496 2515,1521 2468,1548 2429,1556 2409,1555 2403,1558 2404,1558 2417,1556 2450,1550 " style="fill: white; stroke: black; stroke-width: 30" />
<polyline points="2885,1417 2884,1410 2879,1410 2879,1407 2879,1408 2880,1408 2880,1407 2882,1406 2880,1410 2883,1406 2880,1408 2881,1405 2881,1404 2879,1405 2876,1406 2871,1414 2865,1424 2855,1452 2849,1475 2847,1480 2848,1477 2850,1475 2848,1472 2848,1472 2847,1471 2843,1531 2824,1649 2812,1718 2799,1751 2794,1752 2764,1723 2698,1654 2649,1595 2638,1561 2653,1541 2744,1490 " style="fill: white; stroke: black; stroke-width: 30" />
<polyline points="3032,1464 2994,1463 2968,1473 2942,1509 2928,1565 2943,1606 2976,1624 3014,1606 3037,1578 3042,1560 3040,1562 3041,1570 3038,1595 3042,1624 3044,1638 3058,1623 " style="fill: white; stroke: black; stroke-width: 30" />
<polyline points="3189,1506 3182,1500 3177,1501 3174,1499 3168,1504 3165,1510 3158,1539 3152,1591 3142,1638 3139,1657 3137,1653 3135,1648 3122,1636 3108,1625 3108,1623 3115,1625 " style="fill: white; stroke: black; stroke-width: 30" />
<polyline points="3567,1510 3554,1514 3540,1546 3511,1640 3482,1734 3476,1781 3478,1781 3482,1760 3490,1668 3495,1550 3520,1445 3568,1392 3613,1393 3640,1437 3628,1502 3581,1556 3531,1568 3502,1554 3494,1535 3511,1520 3546,1500 3592,1498 3626,1507 " style="fill: white; stroke: black; stroke-width: 30" />
<polyline points="3727,1645 3681,1645 3672,1637 3676,1638 3685,1653 3699,1662 3706,1660 3714,1646 3732,1602 3753,1550 3783,1519 3818,1512 3840,1517 3850,1544 3867,1579 3900,1596 3934,1609 3955,1601 3953,1604 3953,1605 3945,1618 3937,1635 3918,1669 3910,1688 3918,1685 " style="fill: white; stroke: black; stroke-width: 30" />
<polyline points="3978,1451 3973,1387 3974,1362 3973,1360 3973,1360 3979,1363 3989,1362 4021,1384 " style="fill: white; stroke: black; stroke-width: 30" />
<polyline points="4000,1690 3964,1684 3973,1676 3980,1674 3994,1665 4005,1652 4004,1650 4028,1622 4059,1598 4083,1593 4094,1601 4095,1620 4085,1646 4085,1651 4090,1648 4110,1643 4136,1633 4144,1643 4147,1648 4149,1657 4152,1658 4152,1668 4151,1678 4154,1696 " style="fill: white; stroke: black; stroke-width: 30" />
<polyline points="4288,1564 4285,1565 4296,1552 4314,1555 4334,1581 4355,1624 4356,1668 4327,1701 4284,1718 4233,1705 4189,1682 4182,1655 4185,1651 4202,1665 4259,1709 4347,1718 4421,1712 4479,1670 4493,1602 4465,1559 4436,1559 4418,1577 4397,1624 4398,1693 4433,1758 4516,1814 4608,1829 " style="fill: white; stroke: black; stroke-width: 30" />
<polyline points="4930,1515 4925,1485 4925,1471 4919,1487 4918,1489 4903,1538 4880,1609 4866,1655 4860,1684 4866,1677 4869,1676 4874,1658 4889,1581 4898,1523 4887,1485 4878,1454 4871,1456 4872,1468 4875,1517 4890,1561 4902,1602 4932,1621 4976,1629 5036,1607 5072,1572 5077,1560 5074,1566 5073,1574 5067,1583 5056,1618 5049,1658 5055,1695 5067,1723 5085,1741 " style="fill: white; stroke: black; stroke-width: 30" />
<polyline points="5181,1683 5156,1672 5153,1638 5159,1641 5186,1640 5212,1685 5207,1731 5169,1765 5132,1769 5107,1755 5102,1715 5109,1702 5136,1673 5174,1704 5238,1718 5310,1690 5363,1643 5391,1562 5379,1533 5371,1530 5358,1541 5327,1603 5297,1661 5274,1713 5266,1746 5272,1745 5273,1743 5283,1716 5298,1685 5319,1651 5340,1634 5353,1645 5360,1648 5388,1648 5419,1647 5445,1611 5449,1584 5445,1594 5446,1590 5445,1601 5434,1631 5400,1676 5352,1739 5326,1768 5322,1767 5326,1768 5341,1751 5373,1714 5386,1712 5396,1719 5416,1719 5482,1732 " style="fill: white; stroke: black; stroke-width: 30" />
<polyline points="777,1497 793,1473 819,1447 842,1436 854,1442 882,1468 917,1506 932,1555 921,1603 883,1666 845,1708 837,1731 844,1743 865,1748 885,1745 898,1737 899,1728 897,1720 896,1694 887,1656 863,1621 827,1578 787,1542 760,1522 743,1511 742,1509 746,1508 751,1509 763,1517 " style="fill: white; stroke: black; stroke-width: 30" />
<polyline points="1023,1496 1029,1468 1063,1441 1111,1431 1154,1444 1167,1480 1142,1526 1092,1578 1032,1621 1018,1646 1031,1671 1077,1696 1130,1695 1155,1680 1144,1651 1096,1604 1034,1558 1001,1535 1000,1532 1023,1537 " style="fill: white; stroke: black; stroke-width: 30" />
<polyline points="1467,1509 1450,1527 1436,1568 1424,1636 1426,1692 1442,1718 1455,1715 1461,1686 1446,1626 1435,1552 1432,1496 1443,1453 1456,1437 1481,1436 1513,1448 1535,1485 1534,1517 1518,1538 1487,1548 1475,1552 1475,1554 1489,1570 1508,1613 1517,1651 1512,1674 1500,1684 1477,1688 1458,1680 1429,1654 1417,1640 1418,1637 " style="fill: white; stroke: black; stroke-width: 30" />
<polyline points="1606,1578 1595,1576 1602,1577 1640,1595 1670,1622 1680,1655 1659,1681 1614,1702 1577,1695 1570,1680 1576,1661 1584,1654 1593,1657 1615,1669 1648,1692 1676,1706 " style="fill: white; stroke: black; stroke-width: 30" />
<polyline points="1638,1482 1630,1477 1630,1478 1657,1484 1715,1503 " style="fill: white; stroke: black; stroke-width: 30" />
<polyline points="1737,1694 1724,1700 1723,1695 1737,1680 1770,1645 1790,1637 1796,1651 1790,1700 1785,1747 1796,1757 " style="fill: white; stroke: black; stroke-width: 30" />
<polyline points="1942,1509 1956,1468 1950,1472 1939,1496 1900,1586 1866,1669 1869,1706 1878,1714 1896,1699 1933,1667 1968,1639 1997,1624 1998,1616 1981,1618 1936,1643 1895,1684 1888,1705 1903,1727 1946,1748 2007,1735 " style="fill: white; stroke: black; stroke-width: 30" />
<polyline points="2139,1531 2125,1511 2105,1513 2073,1545 2024,1616 2010,1677 2031,1712 2065,1719 2104,1692 2131,1662 2138,1657 2143,1664 2144,1691 2140,1724 2135,1746 2133,1758 2144,1742 " style="fill: white; stroke: black; stroke-width: 30" />
<polyline points="2224,1548 2213,1520 2202,1516 2196,1519 2195,1517 2198,1519 2204,1519 " style="fill: white; stroke: black; stroke-width: 30" />
<polyline points="1107,1853 1101,1852 1096,1861 1084,1919 1066,1997 1070,2042 1097,2061 1151,2062 1205,2047 1260,2031 1312,2024 1367,2020 1413,2016 " style="fill: white; stroke: black; stroke-width: 30" />
<polyline points="1371,1919 1375,1920 1399,1924 1460,1958 1513,1999 1531,2026 1513,2042 1462,2072 1419,2093 1411,2098 1414,2098 1431,2092 " style="fill: white; stroke: black; stroke-width: 30" />
<polyline points="1737,1974 1722,1981 1714,2006 1705,2065 1694,2114 1693,2138 1693,2138 1696,2129 1700,2099 1715,2051 1732,1993 1743,1964 1747,1950 1747,1948 1743,1951 1735,1962 1718,2004 1720,2051 1748,2074 1810,2077 1886,2040 1943,1993 1946,1983 1943,1987 1928,2010 1916,2055 1917,2107 1930,2130 1945,2131 " style="fill: white; stroke: black; stroke-width: 30" />
<polyline points="2084,1995 2078,1979 2078,1983 2089,2014 2090,2087 2071,2150 2051,2167 2024,2155 1997,2109 1984,2070 1989,2066 2009,2072 2069,2095 2155,2100 2249,2055 2313,1983 2331,1906 2317,1883 2307,1891 2289,1955 2270,2049 2260,2129 2260,2147 2258,2142 2243,2112 2239,2096 2248,2087 2281,2070 2323,2050 2372,2017 2431,1949 2484,1882 2486,1868 2481,1871 2471,1882 2444,1959 2414,2052 2395,2121 2391,2141 2390,2134 2381,2093 2383,2058 2397,2037 2425,2028 2450,2027 2498,2026 " style="fill: white; stroke: black; stroke-width: 30" />
<polyline points="-3028,6119 -3024,6077 -3006,6036 -2996,6022 -3001,6026 -3000,6056 -3014,6142 -3028,6249 -3011,6320 -2969,6340 -2899,6287 " style="fill: white; stroke: black; stroke-width: 30" />
<polyline points="-2760,6009 -2768,6005 -2778,6020 -2794,6081 -2801,6183 -2804,6263 -2797,6293 -2802,6292 -2813,6262 -2859,6211 -2917,6166 -2969,6138 -2979,6133 -2977,6135 -2960,6136 -2911,6145 -2844,6151 -2769,6141 -2712,6123 -2692,6117 -2692,6118 -2691,6129 -2692,6171 -2696,6222 -2692,6271 -2684,6292 -2680,6289 " style="fill: white; stroke: black; stroke-width: 30" />
<polyline points="-2676,5997 -2684,5987 -2681,5980 -2669,5972 -2651,5966 -2612,5986 -2597,6022 -2598,6051 -2613,6049 -2637,6032 -2665,5987 -2671,5973 -2668,5972 " style="fill: white; stroke: black; stroke-width: 30" />
<polyline points="-2598,6217 -2603,6217 -2596,6246 -2595,6332 -2607,6435 -2610,6484 -2615,6495 -2612,6479 -2597,6386 -2573,6255 -2536,6161 -2491,6122 -2465,6128 -2465,6185 -2506,6259 -2543,6294 -2577,6291 -2605,6267 -2606,6232 -2589,6209 -2533,6202 -2461,6211 -2406,6206 -2383,6196 -2390,6198 -2404,6237 -2437,6321 -2461,6417 -2470,6465 -2479,6474 -2481,6466 -2482,6444 -2472,6328 -2441,6163 -2403,6092 -2395,6080 -2385,6091 -2349,6141 -2320,6203 -2307,6254 -2321,6269 -2345,6264 -2377,6218 -2397,6166 -2395,6128 -2386,6121 -2358,6130 -2315,6161 -2259,6171 -2191,6152 -2129,6115 -2111,6081 -2125,6071 -2137,6074 -2140,6072 -2141,6073 -2139,6071 -2141,6072 -2139,6072 -2140,6072 -2141,6070 -2139,6071 -2137,6070 -2140,6071 -2139,6071 -2138,6072 -2139,6072 -2136,6072 -2138,6070 -2139,6071 -2137,6069 -2138,6069 -2138,6069 -2141,6069 -2138,6068 -2138,6069 -2136,6068 -2138,6069 -2135,6069 -2135,6070 -2138,6069 -2137,6069 -2136,6068 -2136,6071 -2134,6074 -2150,6139 -2175,6229 -2176,6300 -2154,6327 " style="fill: white; stroke: black; stroke-width: 30" />
<polyline points="-2136,5906 -2162,5876 -2148,5851 -2116,5843 -2070,5870 -2056,5923 -2077,5972 -2121,5989 -2160,5969 -2180,5941 -2164,5899 -2107,5864 " style="fill: white; stroke: black; stroke-width: 30" />
<polyline points="-1244,6069 -1247,6073 -1253,6115 -1262,6228 -1283,6333 -1280,6369 -1275,6367 -1277,6333 -1277,6225 -1278,6108 -1285,6022 -1281,5994 -1250,5980 -1193,5994 -1153,6035 -1170,6076 -1243,6118 -1309,6137 -1309,6140 -1255,6170 -1147,6223 -1109,6265 -1169,6310 -1265,6336 -1331,6332 -1331,6317 -1302,6270 -1243,6204 -1199,6200 -1163,6230 -1128,6265 -1116,6282 -1120,6281 -1117,6282 -1119,6277 -1113,6256 -1110,6212 -1104,6181 -1098,6169 -1087,6166 -1056,6166 -1022,6176 -997,6188 -970,6202 -932,6203 -890,6188 -886,6180 -899,6174 -937,6166 -980,6174 -1008,6197 -997,6238 -946,6289 -876,6314 -812,6306 " style="fill: white; stroke: black; stroke-width: 30" />
<polyline points="-795,6160 -797,6114 -782,6100 -732,6101 -696,6147 -699,6210 -725,6258 -762,6282 -796,6273 -813,6248 -810,6239 -795,6237 -749,6241 -690,6248 -619,6236 " style="fill: white; stroke: black; stroke-width: 30" />
<polyline points="-468,6041 -476,6011 -483,6005 -491,6015 -530,6100 -592,6234 -605,6304 -603,6326 -577,6314 -515,6248 -455,6207 -440,6200 -453,6205 -494,6215 -563,6234 -605,6263 -586,6284 -498,6305 -388,6292 -319,6282 " style="fill: white; stroke: black; stroke-width: 30" />
<polyline points="-348,6291 -352,6287 -352,6284 -333,6271 -275,6230 -203,6193 -163,6172 -160,6164 -177,6158 -249,6155 -317,6172 -335,6194 -307,6221 -210,6271 -87,6296 " style="fill: white; stroke: black; stroke-width: 30" />
<polyline points="-2674,6666 -2676,6661 -2669,6657 -2657,6652 -2640,6646 -2602,6641 -2545,6635 -2486,6633 -2446,6624 -2434,6625 -2445,6621 -2452,6623 -2462,6623 -2471,6625 -2477,6629 -2486,6639 -2497,6646 -2493,6652 -2494,6648 -2493,6644 -2491,6640 -2488,6639 -2490,6636 " style="fill: white; stroke: black; stroke-width: 30" />
<polyline points="-2550,6691 -2563,6685 -2561,6689 -2566,6714 -2582,6818 -2595,6906 -2587,6932 -2549,6945 -2470,6951 -2382,6952 -2296,6954 -2231,6933 " style="fill: white; stroke: black; stroke-width: 30" />
<polyline points="-2310,6831 -2319,6822 -2285,6824 -2218,6845 -2164,6881 -2151,6913 -2176,6937 -2221,6969 -2237,6972 -2225,6973 " style="fill: white; stroke: black; stroke-width: 30" />
<polyline points="-1630,6836 -1641,6834 -1638,6842 -1645,6889 -1657,6991 -1671,7065 -1670,7097 -1673,7097 -1673,7089 -1667,7057 -1660,6994 -1656,6909 -1668,6843 -1677,6796 -1688,6759 -1675,6741 -1624,6724 -1536,6749 -1477,6802 -1482,6848 -1549,6898 -1648,6954 -1694,6984 -1669,7009 -1585,7046 -1479,7059 -1407,7051 -1392,7022 -1397,6993 -1410,6977 -1416,6972 -1432,6977 -1476,6996 -1512,7026 -1508,7036 -1460,7057 -1379,7067 -1303,7062 -1255,7037 " style="fill: white; stroke: black; stroke-width: 30" />
<polyline points="-1207,6964 -1222,6962 -1234,6968 -1252,7002 -1260,7051 -1261,7092 -1244,7113 -1224,7087 " style="fill: white; stroke: black; stroke-width: 30" />
<polyline points="-1213,6808 -1233,6791 -1235,6789 -1230,6795 -1210,6823 -1179,6865 " style="fill: white; stroke: black; stroke-width: 30" />
<polyline points="-1187,7071 -1187,7063 -1177,7032 -1148,6992 -1109,6965 -1079,6974 -1063,7016 -1066,7074 -1052,7095 " style="fill: white; stroke: black; stroke-width: 30" />
<polyline points="-163,6802 -190,6780 -201,6778 -215,6800 -235,6869 -262,6974 -266,7026 -265,7057 -262,7057 -263,7057 -254,7051 -221,7031 -173,6993 -135,6979 -104,6990 -74,7034 -66,7079 -75,7109 -65,7108 " style="fill: white; stroke: black; stroke-width: 30" />
<polyline points="98,6947 97,6946 97,6955 105,7014 81,7094 47,7141 13,7142 -11,7109 -9,7046 21,7003 62,6994 107,7033 122,7090 136,7135 141,7141 167,7123 183,7099 198,7071 231,7028 274,7007 313,7018 327,7065 326,7117 331,7139 345,7140 360,7114 " style="fill: white; stroke: black; stroke-width: 30" />
<polyline points="544,6961 483,6966 415,6991 391,7020 402,7053 450,7068 539,7031 622,6955 669,6867 668,6825 646,6801 621,6807 585,6879 571,6970 580,7019 599,7041 635,7030 699,6983 780,6921 868,6869 908,6834 901,6811 890,6791 875,6784 871,6779 869,6783 863,6788 827,6828 801,6882 795,6934 799,6974 821,7008 851,7016 897,6996 949,6959 990,6931 1006,6918 998,6918 986,6919 966,6934 930,6974 917,7000 920,7014 941,7015 989,6990 1034,6979 1037,6984 1030,7019 1026,7070 1057,7097 " style="fill: white; stroke: black; stroke-width: 30" />
<polyline points="1169,6996 1157,6997 1154,6997 1161,6999 1185,7002 1232,7013 1257,7030 1254,7042 1247,7047 1251,7050 1291,7039 " style="fill: white; stroke: black; stroke-width: 30" />
<polyline points="1434,6978 1425,6971 1421,6970 1413,6987 1381,7052 1342,7139 1309,7206 1272,7259 1249,7277 1240,7276 1235,7239 1253,7137 1298,7056 " style="fill: white; stroke: black; stroke-width: 30" />
<polyline points="1657,6928 1621,6910 1607,6913 1576,6959 1536,7020 1491,7067 1446,7084 1439,7083 1444,7075 1460,7069 " style="fill: white; stroke: black; stroke-width: 30" />
<polyline points="1886,6954 1908,6943 1972,6924 2029,6901 2032,6886 2013,6863 1966,6860 1885,6923 1801,7030 1734,7127 1696,7200 1697,7243 " style="fill: white; stroke: black; stroke-width: 30" />
<polyline points="1791,7044 1797,6992 1801,6980 1819,6985 1892,7003 1957,7040 " style="fill: white; stroke: black; stroke-width: 30" />
<polyline points="2008,6989 1999,6964 2006,6956 2032,6959 2078,6967 2106,6987 2108,7016 2085,7066 2052,7101 2018,7121 2002,7118 1992,7092 1991,7067 1998,7056 2021,7064 2067,7095 2108,7121 2133,7144 " style="fill: white; stroke: black; stroke-width: 30" />
<polyline points="2105,6801 2101,6800 2114,6806 2129,6822 2157,6836 2202,6851 2255,6870 2314,6892 2339,6904 " style="fill: white; stroke: black; stroke-width: 30" />
<polyline points="2375,6854 2371,6850 2363,6852 2366,6868 2350,6933 2318,7008 2297,7062 2284,7081 2286,7081 2289,7081 2311,7077 2358,7062 2400,7052 2427,7068 2452,7103 2454,7143 2449,7157 2448,7155 2444,7139 2453,7119 " style="fill: white; stroke: black; stroke-width: 30" />
<polyline points="2671,7047 2664,7030 2662,7025 2653,7041 2622,7095 2598,7152 2589,7187 2604,7190 " style="fill: white; stroke: black; stroke-width: 30" />
<polyline points="2684,7033 2714,6929 2741,6861 2750,6834 2751,6833 2757,6840 2785,6870 " style="fill: white; stroke: black; stroke-width: 30" />
<polyline points="2845,6927 2846,6904 2850,6894 2847,6895 2845,6897 2847,6903 2854,6912 2864,6934 2876,6964 2890,6999 2896,7019 2910,7019 2911,7014 2912,7000 2904,6979 2872,6962 2849,6967 2818,6997 2804,7028 2806,7040 2821,7035 2843,7031 2868,7032 2887,7062 2882,7140 2838,7250 2756,7340 2660,7400 2606,7403 2604,7378 2643,7279 2795,7151 2987,7094 " style="fill: white; stroke: black; stroke-width: 30" />
<polyline points="2426,4123 2415,4146 2398,4204 2380,4285 2379,4336 2393,4366 2404,4383 2410,4387 2415,4374 2429,4314 2427,4225 2419,4147 2425,4100 2454,4059 2496,4051 2555,4079 2585,4122 2564,4160 2484,4193 2388,4220 2362,4236 2391,4277 2473,4324 2578,4349 2636,4353 2653,4336 " style="fill: white; stroke: black; stroke-width: 30" />
<polyline points="2640,4258 2642,4256 2652,4255 2660,4257 2649,4256 2622,4256 2585,4258 2561,4273 2570,4293 2614,4322 2682,4330 2729,4318 2729,4306 2711,4288 2672,4276 2659,4277 2697,4282 2789,4266 " style="fill: white; stroke: black; stroke-width: 30" />
<polyline points="2990,4088 2993,4024 2965,4004 2945,4020 2911,4119 2881,4243 2873,4335 2875,4376 2873,4378 2877,4361 2877,4320 2884,4278 2894,4256 2912,4253 2944,4244 2992,4230 3067,4190 3150,4132 3186,4098 3181,4079 3147,4056 3095,4046 3056,4060 3027,4117 3007,4222 3023,4317 3058,4382 3110,4394 3167,4373 3217,4321 3237,4263 3239,4256 3235,4262 3228,4284 3211,4329 3202,4364 3198,4385 3206,4394 3222,4389 3270,4338 " style="fill: white; stroke: black; stroke-width: 30" />
<polyline points="3340,4108 3319,4052 3312,4037 3305,4041 3308,4042 3319,4044 " style="fill: white; stroke: black; stroke-width: 30" />
<polyline points="3437,4246 3395,4225 3355,4224 3327,4257 3323,4310 3376,4364 3459,4365 3553,4303 3618,4210 3626,4133 3600,4111 3567,4130 3535,4200 3538,4272 3567,4308 3596,4317 3623,4306 3645,4300 3707,4274 3805,4238 3898,4165 3916,4146 3909,4145 3900,4163 3877,4211 3863,4259 3841,4319 3824,4367 3826,4382 3836,4354 3856,4295 3873,4246 3886,4217 3897,4203 3892,4197 3893,4194 3890,4200 3897,4209 3924,4227 3983,4242 " style="fill: white; stroke: black; stroke-width: 30" />
<polyline points="2582,4457 2578,4457 2567,4468 2521,4549 2476,4645 2490,4683 2558,4709 2652,4713 2741,4700 2791,4682 " style="fill: white; stroke: black; stroke-width: 30" />
<polyline points="2736,4584 2755,4589 2789,4603 2843,4633 2875,4659 2870,4669 2842,4683 2809,4705 2802,4715 2814,4722 " style="fill: white; stroke: black; stroke-width: 30" />
<polyline points="3134,4568 3105,4587 3072,4652 3033,4738 3006,4800 2996,4829 3006,4823 3020,4795 3055,4705 3113,4601 3147,4543 3148,4533 3141,4541 3120,4604 3102,4679 3110,4736 3148,4756 3229,4736 3312,4677 3356,4633 3350,4632 3340,4647 3305,4710 3282,4797 3285,4845 3333,4835 " style="fill: white; stroke: black; stroke-width: 30" />
<polyline points="3486,4620 3488,4617 3492,4622 3497,4655 3501,4704 3496,4761 3478,4795 3450,4808 3414,4791 3402,4761 3402,4737 3409,4734 3419,4741 3453,4766 3498,4788 3570,4778 3653,4731 3723,4633 3736,4572 3730,4565 3724,4575 3694,4643 3650,4728 3617,4793 3602,4821 3604,4818 3624,4779 3687,4689 3781,4609 3862,4572 3885,4559 3877,4563 3859,4579 3813,4651 3743,4768 3706,4849 3702,4876 3713,4849 3739,4759 3758,4670 3759,4659 3767,4661 3809,4672 3894,4693 3980,4700 " style="fill: white; stroke: black; stroke-width: 30" />
<polyline points="3104,5058 3095,5054 3075,5062 3061,5074 3035,5110 2989,5188 2956,5268 2966,5307 2992,5333 3052,5339 3118,5313 3163,5286 3178,5272 " style="fill: white; stroke: black; stroke-width: 30" />
<polyline points="3178,5228 3193,5213 3204,5210 3223,5219 3254,5231 3288,5242 3317,5247 3325,5252 3322,5252 3306,5267 3273,5298 3239,5324 3226,5333 3223,5336 3235,5332 " style="fill: white; stroke: black; stroke-width: 30" />
<polyline points="3457,5266 3451,5267 3459,5271 3477,5277 3502,5274 3523,5266 3530,5260 3534,5252 3525,5245 3511,5228 3476,5218 3447,5226 3431,5246 3422,5282 3416,5314 3422,5329 3422,5331 3419,5331 3421,5328 3420,5328 3421,5327 3420,5329 3419,5331 3428,5353 3443,5374 3445,5396 3440,5407 3429,5417 3407,5424 3376,5421 3335,5402 3299,5374 3287,5364 3285,5367 3292,5364 3295,5368 3322,5365 3382,5361 " style="fill: white; stroke: black; stroke-width: 30" />
<polyline points="3571,5380 3563,5368 3571,5353 3588,5337 3616,5305 3626,5283 3613,5271 3589,5264 3547,5275 3524,5308 3522,5349 3553,5385 3602,5397 3686,5364 3805,5276 3894,5159 3894,5108 3848,5098 3784,5136 3726,5220 3697,5297 3707,5367 3743,5391 3812,5389 3911,5328 3975,5262 3983,5230 3964,5228 3950,5222 3950,5221 3952,5216 3944,5221 3941,5219 3931,5229 3915,5249 3891,5304 3872,5352 3873,5384 3882,5387 3906,5375 3937,5344 3966,5326 3979,5333 3989,5355 3986,5383 3966,5396 3920,5381 3879,5351 3870,5336 3873,5342 3904,5370 3976,5405 4055,5418 4107,5402 4120,5373 4111,5358 4111,5352 4110,5357 4115,5361 4116,5360 4112,5359 4109,5355 " style="fill: white; stroke: black; stroke-width: 30" />
<polyline points="3421,5603 3415,5602 3412,5599 3411,5600 3408,5600 3406,5602 3387,5643 3359,5737 3357,5785 3366,5803 3374,5796 3393,5758 3429,5669 3472,5600 3488,5591 3492,5603 3481,5636 3419,5698 3348,5739 3334,5751 3352,5763 3429,5784 3531,5792 3612,5783 3632,5766 3613,5740 3590,5730 3582,5728 3580,5725 3576,5724 3551,5722 3531,5728 3529,5735 3545,5756 3580,5792 3623,5800 3641,5800 3636,5792 3619,5770 3604,5762 3604,5763 3624,5770 3677,5762 3781,5700 3868,5610 3880,5559 3854,5533 3836,5536 3789,5609 3760,5711 3747,5793 3744,5837 3742,5838 3742,5823 3747,5793 3770,5765 3807,5748 3856,5737 3903,5724 3973,5684 4052,5630 4072,5617 4057,5604 4018,5600 3980,5603 3955,5613 3946,5624 3923,5677 3898,5748 3894,5818 3922,5852 3989,5857 4071,5816 4122,5772 4116,5767 4104,5777 4077,5813 4070,5847 4073,5858 4096,5847 4146,5768 4188,5675 4181,5660 4169,5660 4171,5660 4174,5662 4177,5661 4187,5654 4198,5641 " style="fill: white; stroke: black; stroke-width: 30" />
<polyline points="4258,5801 4250,5795 4263,5790 4262,5792 4257,5794 4228,5802 4200,5815 4189,5841 4197,5862 4243,5881 4349,5854 4486,5789 4562,5702 4538,5664 4495,5642 4447,5676 4410,5746 4410,5816 4433,5857 4457,5866 4462,5870 4462,5873 4465,5880 4459,5892 4460,5887 4460,5876 4479,5842 4481,5839 4486,5841 4499,5855 4531,5872 " style="fill: white; stroke: black; stroke-width: 30" />
<polyline points="-2794,399 -2653,688 -2546,993 -2532,1297 -2579,1605 -2608,1908 -2580,2206 -2481,2517 -2354,2824 -2251,3155 -2227,3496 -2258,3819 -2283,4118 -2269,4395 -2212,4670 -2162,4928 -2161,5168 -2206,5387 -2255,5548 " style="fill: white; stroke: black; stroke-width: 30" />
<polyline points="-3783,1494 -3780,1483 -3784,1462 -3804,1446 -3855,1432 -3930,1457 -4011,1517 -4066,1585 -4068,1626 -4017,1673 -3932,1696 -3838,1693 -3773,1661 " style="fill: white; stroke: black; stroke-width: 30" />
<polyline points="-3876,1590 -3875,1578 -3856,1563 -3830,1567 -3816,1576 -3819,1598 -3832,1640 -3837,1671 -3833,1669 -3808,1666 " style="fill: white; stroke: black; stroke-width: 30" />
<polyline points="-3734,1642 -3709,1595 -3675,1556 -3651,1536 -3637,1540 -3622,1550 " style="fill: white; stroke: black; stroke-width: 30" />
<polyline points="-3498,1538 -3533,1544 -3585,1559 -3634,1595 -3648,1631 -3621,1653 -3550,1649 -3477,1618 -3451,1584 -3469,1575 -3510,1568 -3541,1582 -3542,1576 -3480,1577 " style="fill: white; stroke: black; stroke-width: 30" />
<polyline points="-3306,1476 -3314,1484 -3333,1493 -3353,1506 -3365,1539 -3361,1591 -3357,1622 -3366,1641 -3387,1655 -3424,1654 -3437,1646 -3435,1640 -3402,1619 -3321,1581 -3244,1539 -3210,1515 -3222,1503 -3249,1503 -3260,1514 -3258,1548 -3240,1599 -3230,1635 -3235,1653 -3245,1656 -3267,1640 -3287,1623 -3294,1599 -3297,1580 -3292,1558 " style="fill: white; stroke: black; stroke-width: 30" />
<polyline points="-3058,1476 -3054,1485 -3049,1488 -3031,1492 -3003,1492 -2958,1496 " style="fill: white; stroke: black; stroke-width: 30" />
<polyline points="-4004,1834 -4017,1879 -4033,1960 -4040,2039 -4037,2075 -4034,2069 -4028,2048 -4028,1982 -4033,1888 -4016,1830 -3981,1793 -3942,1802 -3914,1833 -3915,1865 -3936,1897 -3983,1928 -4020,1948 -4032,1960 -4018,1980 -3985,2005 -3937,2019 -3882,2013 " style="fill: white; stroke: black; stroke-width: 30" />
<polyline points="-3808,1902 -3820,1909 -3813,1913 -3797,1920 -3772,1963 -3774,2022 -3802,2066 -3839,2085 -3857,2071 -3859,2049 -3846,2030 -3811,2025 -3756,2019 -3694,1996 -3628,1941 -3579,1879 -3558,1811 -3561,1809 -3572,1820 -3595,1900 -3617,2017 -3616,2072 -3610,2081 -3616,2066 -3618,2005 -3607,1968 -3600,1953 -3574,1956 -3519,1960 " style="fill: white; stroke: black; stroke-width: 30" />
<polyline points="-4022,2373 -4029,2384 -4028,2426 -4040,2501 -4051,2563 -4045,2584 -4036,2576 " style="fill: white; stroke: black; stroke-width: 30" />
<polyline points="-4013,2246 -4032,2228 -4044,2232 -4052,2235 -4051,2230 -4046,2225 " style="fill: white; stroke: black; stroke-width: 30" />
<polyline points="-3915,2584 -3927,2591 -3929,2587 -3920,2586 -3888,2580 -3847,2550 -3820,2529 -3813,2539 -3808,2590 -3811,2661 -3801,2677 " style="fill: white; stroke: black; stroke-width: 30" />
<polyline points="-3640,2310 -3666,2335 -3700,2407 -3722,2534 -3717,2614 -3705,2642 -3707,2632 -3721,2579 -3723,2522 -3721,2511 -3715,2509 -3671,2528 -3617,2551 -3594,2566 -3596,2568 -3615,2560 -3625,2556 -3626,2556 -3622,2567 -3609,2602 -3590,2613 -3566,2609 -3537,2585 -3508,2549 -3497,2520 -3499,2505 -3497,2505 -3502,2505 -3506,2502 -3500,2509 -3502,2507 -3503,2508 -3504,2509 -3504,2512 -3502,2512 -3504,2511 -3504,2509 -3503,2511 -3503,2510 -3505,2511 -3504,2509 -3501,2513 -3503,2510 -3502,2512 -3502,2511 -3501,2515 -3505,2525 -3512,2570 -3515,2576 -3514,2574 -3507,2556 -3499,2510 -3497,2500 -3489,2496 -3466,2490 -3402,2496 " style="fill: white; stroke: black; stroke-width: 30" />
<polyline points="-3261,2521 -3272,2521 -3281,2526 -3305,2539 -3347,2571 -3374,2615 -3368,2628 -3316,2647 -3230,2626 " style="fill: white; stroke: black; stroke-width: 30" />
<polyline points="-3125,2536 -3139,2538 -3141,2538 -3140,2536 -3133,2532 -3137,2532 -3146,2526 -3169,2523 -3199,2532 -3209,2548 -3197,2581 -3151,2613 -3086,2619 -3029,2601 -2996,2572 -2989,2544 -2988,2521 -2988,2521 -2990,2532 -2998,2572 -3007,2637 -3014,2690 -3015,2707 -3016,2707 -3014,2685 -3010,2618 -2991,2543 -2975,2486 -2956,2453 -2945,2454 -2929,2487 -2932,2543 -2951,2583 -2970,2593 -3007,2571 -3008,2565 -2994,2533 -2933,2462 " style="fill: white; stroke: black; stroke-width: 30" />
<polyline points="-2765,2299 -2814,2328 -2861,2415 -2892,2535 -2890,2595 -2883,2606 -2886,2589 -2892,2545 -2893,2514 -2891,2511 -2851,2516 -2785,2515 -2745,2512 -2747,2513 -2764,2529 -2785,2563 -2789,2601 -2783,2608 -2768,2588 -2755,2528 -2753,2464 -2756,2412 -2758,2399 -2762,2395 -2760,2394 -2757,2395 " style="fill: white; stroke: black; stroke-width: 30" />
<polyline points="-2653,2526 -2659,2511 -2657,2492 -2642,2489 -2631,2508 -2635,2565 -2652,2602 -2655,2606 -2665,2586 -2673,2546 -2657,2500 -2636,2500 -2609,2531 -2593,2570 -2591,2588 -2589,2586 -2583,2573 -2581,2571 -2570,2579 -2554,2604 -2545,2626 -2547,2640 " style="fill: white; stroke: black; stroke-width: 30" />
<polyline points="-3918,2818 -3936,2817 -3964,2810 -4012,2822 -4069,2853 -4092,2882 -4085,2911 -4035,2980 -3994,3011 -3991,3025 -4011,3030 -4069,3019 -4091,3010 -4084,2984 -4012,2913 -3909,2863 -3812,2837 -3771,2827 -3784,2824 -3811,2847 -3849,2891 -3853,2930 -3820,2944 -3762,2926 -3705,2893 -3697,2894 -3715,2951 -3768,3053 -3779,3114 -3769,3119 -3732,3084 " style="fill: white; stroke: black; stroke-width: 30" />
<polyline points="-3547,2818 -3565,2824 -3570,2831 -3573,2846 -3572,2906 -3563,2961 -3564,2981 -3579,2999 -3602,3007 -3619,2992 -3605,2931 -3534,2853 " style="fill: white; stroke: black; stroke-width: 30" />
<polyline points="-3393,2715 -3386,2708 -3396,2746 -3428,2850 -3460,2951 -3469,2989 -3467,2991 -3468,2960 -3454,2904 -3436,2882 -3409,2891 -3370,2905 -3325,2902 -3301,2886 -3304,2887 -3312,2895 -3313,2900 -3296,2908 -3275,2902 -3265,2901 -3268,2907 -3262,2931 -3231,2949 -3178,2938 " style="fill: white; stroke: black; stroke-width: 30" />
<polyline points="-3861,3198 -3870,3197 -3874,3195 -3888,3187 -3921,3189 -4003,3208 -4076,3270 -4104,3318 -4089,3341 -3998,3380 -3851,3358 " style="fill: white; stroke: black; stroke-width: 30" />
<polyline points="-3571,3108 -3590,3099 -3596,3090 -3596,3092 -3595,3124 -3606,3218 -3628,3308 -3641,3362 -3630,3377 -3600,3368 " style="fill: white; stroke: black; stroke-width: 30" />
<polyline points="-3483,3137 -3481,3123 -3485,3142 -3498,3211 -3530,3315 -3547,3389 -3546,3407 -3547,3400 -3563,3364 -3580,3319 -3580,3299 -3570,3298 -3534,3289 -3477,3275 -3373,3250 " style="fill: white; stroke: black; stroke-width: 30" />
<polyline points="-4336,1416 -4346,1474 -4363,1622 -4409,1886 -4463,2253 -4500,2761 -4409,3379 -4097,4089 -3907,4334 " style="fill: white; stroke: black; stroke-width: 30" />
<polyline points="-1544,8989 -1564,8964 -1576,8948 -1581,8947 -1581,8950 -1584,8966 -1581,9034 -1571,9141 -1553,9251 -1524,9337 -1497,9385 -1475,9410 -1464,9408 -1457,9402 -1441,9376 -1393,9287 -1304,9170 -1221,9081 -1190,9051 -1189,9052 -1194,9051 -1191,9053 -1199,9052 -1191,9052 -1191,9052 -1191,9053 -1198,9055 " style="fill: white; stroke: black; stroke-width: 30" />
<polyline points="-1604,9133 -1649,9123 -1652,9120 -1650,9118 -1649,9114 -1628,9116 -1596,9119 -1564,9125 -1515,9129 -1451,9132 -1386,9134 -1313,9148 " style="fill: white; stroke: black; stroke-width: 30" />
<polyline points="-641,9064 -663,9058 -716,9045 -769,9040 -854,9043 -906,9057 -917,9068 -903,9112 -870,9181 -854,9238 -862,9265 -882,9292 -900,9291 -920,9271 -942,9241 -954,9222 -958,9223 -937,9234 " style="fill: white; stroke: black; stroke-width: 30" />
<polyline points="-534,9194 -492,9152 -502,9120 -564,9105 -636,9125 -687,9171 -697,9212 -667,9242 -599,9247 -496,9196 -396,9107 -345,9040 -341,9017 -361,9013 -384,9031 -449,9106 -483,9178 -472,9203 -409,9220 -338,9222 -296,9230 -294,9233 -291,9233 -275,9231 " style="fill: white; stroke: black; stroke-width: 30" />
<polyline points="-77,9036 -99,9042 -126,9074 -154,9128 -172,9170 -174,9201 -154,9218 -101,9220 -17,9190 34,9164 62,9149 58,9150 52,9153 31,9175 17,9202 -2,9228 3,9239 26,9241 62,9230 103,9225 113,9225 120,9231 119,9241 129,9257 145,9268 168,9275 " style="fill: white; stroke: black; stroke-width: 30" />
<polyline points="263,9196 246,9222 240,9250 242,9263 237,9264 233,9264 231,9262 226,9263 231,9259 240,9255 273,9240 295,9235 299,9237 303,9246 309,9265 309,9284 336,9293 370,9296 379,9300 377,9305 372,9308 388,9314 " style="fill: white; stroke: black; stroke-width: 30" />
<polyline points="479,9321 441,9342 397,9392 370,9443 357,9478 350,9488 358,9468 395,9400 461,9284 550,9200 615,9179 650,9201 667,9243 651,9293 600,9325 557,9322 537,9308 538,9301 562,9291 609,9273 667,9251 732,9214 805,9187 851,9172 865,9163 879,9148 888,9126 884,9089 872,9069 853,9073 811,9107 739,9200 675,9291 621,9379 595,9426 599,9433 607,9412 665,9346 720,9298 748,9282 777,9272 792,9276 788,9279 773,9284 750,9288 733,9300 730,9313 754,9346 795,9381 860,9404 " style="fill: white; stroke: black; stroke-width: 30" />
<polyline points="-32,8911 -25,8910 6,8916 32,8927 52,8931 94,8942 205,8962 351,8996 " style="fill: white; stroke: black; stroke-width: 30" />
<polyline points="1837,9110 1827,9097 1826,9097 1804,9120 1770,9197 1726,9293 1708,9342 1712,9346 1722,9332 1758,9272 1812,9169 1847,9079 1856,9059 1852,9064 1831,9095 1802,9174 1799,9223 1827,9259 1903,9263 2002,9222 2082,9177 2105,9169 2087,9181 2074,9227 2058,9288 2063,9332 2087,9361 2142,9361 " style="fill: white; stroke: black; stroke-width: 30" />
<polyline points="2259,9186 2269,9162 2289,9159 2323,9197 2332,9275 2317,9331 2284,9355 2249,9346 2221,9306 2222,9278 2231,9274 2239,9284 2301,9320 2379,9356 2487,9350 2575,9305 2613,9216 2602,9172 2590,9163 2590,9167 2593,9173 2587,9177 2582,9175 2585,9170 2589,9164 2580,9167 2580,9168 2576,9175 2551,9212 2521,9282 2495,9352 2486,9400 2488,9414 2496,9393 2514,9342 2524,9305 2565,9277 2628,9256 2710,9233 2805,9179 2888,9097 2889,9086 2868,9090 2813,9147 2758,9230 2714,9312 2692,9358 2695,9361 2692,9344 2700,9331 2729,9321 2773,9322 2839,9327 2911,9334 " style="fill: white; stroke: black; stroke-width: 30" />
<polyline points="-891,9686 -897,9691 -899,9694 -896,9695 -877,9690 -837,9686 -758,9667 -688,9646 " style="fill: white; stroke: black; stroke-width: 30" />
<polyline points="-700,9580 -717,9566 -721,9565 -735,9600 -764,9691 -774,9772 -752,9810 " style="fill: white; stroke: black; stroke-width: 30" />
<polyline points="-402,9522 -408,9523 -432,9540 -472,9605 -503,9689 -499,9748 -474,9780 -417,9781 -313,9725 -224,9635 -180,9581 -183,9574 -196,9581 -208,9619 -251,9688 -266,9762 -243,9800 " style="fill: white; stroke: black; stroke-width: 30" />
<polyline points="36,9605 -27,9596 -60,9600 -66,9622 -51,9702 -31,9770 -43,9803 -58,9813 -83,9795 -96,9776 -91,9766 -72,9766 -4,9767 103,9756 198,9732 222,9700 194,9673 128,9673 97,9700 92,9748 142,9779 192,9789 212,9784 223,9773 250,9738 " style="fill: white; stroke: black; stroke-width: 30" />
<polyline points="838,9721 834,9716 828,9714 822,9712 820,9712 822,9713 833,9712 898,9706 1015,9699 1118,9705 1194,9711 1232,9715 " style="fill: white; stroke: black; stroke-width: 30" />
<polyline points="1248,9604 1222,9593 1224,9591 1232,9599 1254,9625 1299,9669 1331,9695 1321,9706 1299,9722 1246,9753 1216,9773 1222,9776 " style="fill: white; stroke: black; stroke-width: 30" />
<polyline points="1676,9601 1670,9603 1663,9605 1633,9615 1587,9635 1560,9661 1559,9700 1558,9756 1557,9796 1543,9809 1506,9817 1483,9805 1470,9782 1474,9768 1533,9715 " style="fill: white; stroke: black; stroke-width: 30" />
<polyline points="1810,9701 1773,9689 1764,9678 1765,9676 1759,9673 1780,9661 1820,9637 1853,9623 1881,9624 1885,9646 1896,9687 1870,9744 1812,9785 1766,9787 1732,9761 1725,9719 1735,9689 1784,9661 1837,9659 " style="fill: white; stroke: black; stroke-width: 30" />
<polyline points="1939,9830 1930,9799 1956,9756 2022,9705 2088,9691 2131,9716 2147,9764 2150,9817 2151,9841 " style="fill: white; stroke: black; stroke-width: 30" />
<polyline points="2309,9718 2308,9698 2297,9691 2283,9693 2271,9708 2244,9756 2223,9794 2188,9824 2172,9827 2157,9819 2154,9807 2207,9759 2318,9690 2462,9618 2605,9545 2651,9513 2640,9510 2589,9553 2501,9659 2417,9760 2386,9814 2371,9830 2383,9818 2418,9779 2426,9763 2430,9762 2443,9759 2438,9765 2438,9764 2451,9766 2455,9767 2463,9766 2457,9765 2460,9763 2453,9758 2448,9753 2446,9748 2443,9750 2446,9748 2441,9751 2444,9748 2446,9748 2454,9744 2440,9746 2435,9743 2430,9747 2432,9747 2437,9749 2463,9748 2557,9737 2640,9735 " style="fill: white; stroke: black; stroke-width: 30" />
<polyline points="3202,9752 3207,9740 3207,9721 3207,9713 3204,9718 3178,9765 3138,9845 3119,9888 3119,9897 3122,9891 3141,9835 3199,9735 3260,9654 3324,9634 3378,9649 3387,9687 3357,9713 3299,9720 3249,9698 3212,9677 3212,9671 3235,9676 3270,9703 3331,9725 3404,9744 3498,9744 3565,9726 3562,9711 3523,9684 3475,9677 3443,9693 3439,9756 3474,9827 3541,9866 3597,9859 3653,9810 3683,9745 3696,9708 3696,9702 3693,9711 3717,9729 3744,9764 " style="fill: white; stroke: black; stroke-width: 30" />
<polyline points="1623,10095 1640,10080 1640,10080 1637,10095 1628,10154 1605,10235 1598,10294 1593,10340 1587,10367 " style="fill: white; stroke: black; stroke-width: 30" />
<polyline points="1502,10119 1453,10091 1445,10079 1469,10067 1548,10046 1657,10037 1774,10028 1831,10031 " style="fill: white; stroke: black; stroke-width: 30" />
<polyline points="1610,10117 1567,10120 1571,10115 1615,10105 1662,10102 1722,10104 1767,10115 1801,10133 1812,10150 1823,10161 1816,10197 1799,10249 1794,10273 1807,10276 1813,10274 1816,10271 " style="fill: white; stroke: black; stroke-width: 30" />
<polyline points="1957,9984 1948,9977 1946,9976 1944,9979 1948,9988 1959,10038 " style="fill: white; stroke: black; stroke-width: 30" />
<polyline points="1900,10282 1895,10279 1911,10253 1953,10216 2010,10187 2043,10185 2049,10205 2057,10260 2075,10296 " style="fill: white; stroke: black; stroke-width: 30" />
<polyline points="2252,10138 2238,10124 2242,10121 2249,10132 2264,10164 2260,10214 2242,10264 2204,10291 2160,10291 2123,10259 2124,10222 2142,10210 2183,10212 2233,10232 2283,10263 2305,10285 " style="fill: white; stroke: black; stroke-width: 30" />
<polyline points="2319,10274 2334,10255 2370,10223 2420,10205 2453,10201 2446,10210 2452,10241 2449,10291 2458,10329 2478,10337 " style="fill: white; stroke: black; stroke-width: 30" />
<polyline points="2602,10133 2588,10127 2599,10130 2633,10150 2657,10176 2664,10204 2656,10240 2620,10290 2584,10326 2588,10333 2593,10338 2608,10338 " style="fill: white; stroke: black; stroke-width: 30" />
<polyline points="2614,10223 2601,10216 2608,10217 2655,10228 2707,10239 2758,10252 2806,10256 2824,10251 2826,10237 2838,10207 2837,10188 2812,10176 2770,10186 2721,10236 2702,10278 2717,10312 2754,10322 2812,10302 2888,10265 2911,10252 2915,10251 2932,10257 2945,10276 2956,10296 2955,10310 2942,10341 2940,10356 2948,10379 " style="fill: white; stroke: black; stroke-width: 30" />
<polyline points="2518,8921 2499,8929 2502,8923 2516,8907 2537,8875 2573,8828 2627,8772 2673,8737 2696,8715 2695,8715 2699,8716 " style="fill: white; stroke: black; stroke-width: 30" />
<polyline points="2604,8693 2610,8684 2645,8673 2716,8662 2812,8638 2880,8619 2896,8616 2877,8637 2850,8690 2818,8765 2815,8818 " style="fill: white; stroke: black; stroke-width: 30" />
<polyline points="3140,7859 3133,7852 3128,7849 3106,7873 3071,7949 3049,8034 3063,8073 3106,8087 3182,8070 3259,8026 3302,7984 3317,7965 3318,7962 3316,7967 3310,7972 3309,7980 3293,8007 3296,8029 3308,8053 3336,8062 3375,8052 3412,8033 " style="fill: white; stroke: black; stroke-width: 30" />
<polyline points="3471,7980 3503,7950 3510,7941 3505,7942 3500,7943 3494,7948 3491,7949 3491,7954 3495,7955 3490,7962 3490,7961 3484,7964 3487,7964 3478,7973 3476,7979 3469,8016 3454,8069 3458,8113 " style="fill: white; stroke: black; stroke-width: 30" />
<polyline points="3384,8032 3373,8034 3394,8036 3451,8044 3517,8053 3575,8058 3590,8061 3581,8068 3565,8090 3553,8118 3558,8124 3567,8133 3590,8118 " style="fill: white; stroke: black; stroke-width: 30" />
<polyline points="3606,7907 3590,7907 3593,7905 3597,7906 3617,7906 " style="fill: white; stroke: black; stroke-width: 30" />
<polyline points="3768,7837 3760,7836 3730,7874 3691,7973 3682,8066 3692,8116 3699,8127 3711,8128 3742,8115 " style="fill: white; stroke: black; stroke-width: 30" />
<polyline points="3878,7989 3851,8010 3818,8049 3814,8093 3805,8124 3840,8123 " style="fill: white; stroke: black; stroke-width: 30" />
<polyline points="3933,7837 3923,7826 3921,7822 3924,7823 3931,7826 " style="fill: white; stroke: black; stroke-width: 30" />
<polyline points="4085,7881 4047,7864 4049,7867 4034,7938 4003,8063 3978,8156 3971,8198 3960,8195 3962,8136 3958,8075 3966,8039 3982,8029 4014,8026 4036,8032 4063,8035 " style="fill: white; stroke: black; stroke-width: 30" />
<polyline points="4153,7964 4142,7952 4155,7947 4170,7964 4180,7997 4173,8043 4145,8085 4098,8110 4090,8094 4093,8058 4103,8017 4118,8004 4141,8008 4174,8031 4192,8062 " style="fill: white; stroke: black; stroke-width: 30" />
<polyline points="4332,8073 4368,8044 4382,8008 4397,7974 4406,7957 4404,7961 4406,7965 4399,7984 4400,7999 4394,8010 4376,8030 4377,8041 4378,8046 4380,8054 4368,8078 " style="fill: white; stroke: black; stroke-width: 30" />
<polyline points="4467,7833 4439,7790 4435,7787 4445,7790 4468,7798 4534,7836 " style="fill: white; stroke: black; stroke-width: 30" />
<polyline points="4616,7990 4563,7978 4533,7977 4516,7992 4515,8013 4518,8044 4515,8079 4483,8108 4464,8110 4453,8095 4466,8060 4519,8030 " style="fill: white; stroke: black; stroke-width: 30" />
<polyline points="4671,8002 4669,7994 4664,7993 4633,8009 4584,8036 4565,8055 4567,8062 4594,8071 4658,8061 4684,8061 4676,8067 4679,8086 4695,8114 4728,8139 4735,8144 4719,8147 4705,8149 4715,8157 " style="fill: white; stroke: black; stroke-width: 30" />
<polyline points="3120,8340 3115,8339 3113,8337 3112,8339 3115,8334 3114,8335 3121,8329 3121,8323 3139,8298 3181,8239 3229,8184 3231,8179 3227,8183 3226,8190 3232,8197 3240,8206 3254,8209 3262,8210 3257,8211 3256,8213 3252,8213 3257,8211 3252,8214 3253,8217 3256,8223 3247,8245 3242,8254 3239,8279 3231,8299 3230,8308 3228,8307 3225,8309 3231,8304 3231,8305 3231,8305 3240,8303 3240,8302 3236,8304 3235,8303 3235,8304 3238,8302 3239,8305 3239,8305 3250,8308 " style="fill: white; stroke: black; stroke-width: 30" />
<polyline points="3401,8192 3395,8194 3389,8202 3360,8242 3337,8289 3334,8336 3354,8366 " style="fill: white; stroke: black; stroke-width: 30" />
<polyline points="3422,8131 3405,8122 3402,8117 3409,8116 3420,8120 " style="fill: white; stroke: black; stroke-width: 30" />
<polyline points="3532,8228 3518,8213 3499,8211 3465,8216 3415,8247 3396,8278 3403,8305 3453,8333 3541,8327 3621,8288 3669,8240 3668,8204 3647,8185 3636,8182 3628,8186 3615,8220 3606,8266 3603,8303 3612,8319 3654,8318 3688,8316 3692,8321 3689,8327 3707,8342 " style="fill: white; stroke: black; stroke-width: 30" />
<polyline points="3866,8189 3838,8173 3837,8172 3832,8190 3800,8263 3782,8329 3775,8366 3783,8360 3790,8315 3801,8274 3797,8266 3811,8265 3847,8267 3885,8276 " style="fill: white; stroke: black; stroke-width: 30" />
<polyline points="4113,8256 4124,8251 4122,8247 4125,8244 4118,8245 4107,8248 4082,8253 4039,8271 4012,8290 4004,8306 4009,8308 4008,8310 4009,8308 4009,8307 4003,8307 4003,8303 3997,8299 3996,8297 4002,8297 4006,8301 4017,8310 4043,8320 4095,8329 4167,8326 4236,8311 4277,8293 4276,8282 4261,8261 4223,8254 4216,8253 4212,8258 4201,8277 4201,8290 4208,8303 4207,8319 4225,8333 4271,8341 4348,8330 4419,8299 4452,8249 4466,8191 4464,8152 4447,8137 4432,8139 4394,8173 4369,8217 4361,8265 4364,8302 4387,8342 4435,8374 " style="fill: white; stroke: black; stroke-width: 30" />
<polyline points="4538,8168 4538,8169 4541,8179 4538,8220 4515,8274 4491,8323 4481,8352 4486,8354 4510,8333 4554,8296 4577,8278 4576,8286 4570,8308 4559,8340 4539,8354 4509,8349 4486,8319 4480,8303 4479,8305 4504,8319 4563,8347 4642,8360 4691,8348 4684,8317 4645,8285 4629,8278 4626,8292 4639,8333 4671,8362 4715,8361 4754,8329 4767,8305 4767,8302 4770,8305 " style="fill: white; stroke: black; stroke-width: 30" />
<polyline points="3166,8393 3173,8387 3163,8390 3155,8407 3126,8464 3126,8495 3139,8516 3168,8516 3207,8485 3236,8456 3247,8451 3262,8464 3300,8492 3307,8520 3301,8526 3269,8525 3227,8502 3196,8481 3193,8478 3209,8473 3231,8469 " style="fill: white; stroke: black; stroke-width: 30" />
<polyline points="3407,8371 3394,8369 3397,8366 3388,8374 3379,8389 3352,8438 3341,8485 3353,8505 3397,8527 3442,8529 3502,8508 3535,8490 3538,8478 3544,8472 3548,8467 3544,8472 3539,8476 3522,8493 3514,8508 3526,8512 3544,8517 3585,8517 3653,8504 3667,8503 3652,8510 3641,8524 3639,8534 3663,8552 " style="fill: white; stroke: black; stroke-width: 30" />
<polyline points="3813,8403 3788,8394 3783,8398 3764,8450 3743,8516 3745,8560 3746,8566 3755,8540 3760,8478 3764,8450 3763,8451 3777,8459 3822,8482 3880,8494 3920,8488 3920,8469 3886,8454 3849,8465 3839,8496 3857,8532 3928,8549 4002,8533 4038,8511 4035,8510 4033,8514 4031,8529 4041,8545 4043,8560 " style="fill: white; stroke: black; stroke-width: 30" />
<polyline points="3377,8647 3388,8638 3373,8648 3365,8684 3339,8756 3325,8820 3339,8855 " style="fill: white; stroke: black; stroke-width: 30" />
<polyline points="3229,8690 3207,8678 3222,8670 3295,8649 3410,8640 3500,8656 3570,8672 " style="fill: white; stroke: black; stroke-width: 30" />
<polyline points="3535,8698 3508,8683 3479,8682 3448,8711 3435,8752 3446,8786 3475,8808 3519,8804 3563,8775 3580,8743 3552,8732 3525,8734 3519,8737 3528,8743 3534,8769 3565,8807 3628,8834 3723,8818 3795,8768 3833,8702 3840,8639 3826,8616 3826,8611 3823,8625 3815,8680 3797,8766 3788,8827 3791,8859 3791,8859 3810,8824 3831,8760 3824,8720 3817,8699 3818,8700 3847,8703 3928,8709 4012,8711 4040,8710 4031,8700 3994,8687 3932,8687 3908,8712 3919,8736 3981,8788 4069,8828 4140,8844 " style="fill: white; stroke: black; stroke-width: 30" />
<polyline points="-3280,7796 -3283,7788 -3286,7794 -3291,7836 -3305,7935 -3320,8028 -3312,8081 -3309,8086 -3300,8055 -3315,7969 -3346,7872 -3369,7801 -3373,7773 -3373,7770 -3356,7774 -3322,7779 -3245,7791 -3143,7839 -3066,7912 -3058,7991 -3104,8065 -3192,8119 -3269,8131 -3299,8097 -3319,8027 -3317,7955 -3296,7949 -3252,7953 -3178,7967 -3096,7980 -3025,7997 -2992,8018 -2988,8029 -2998,8040 -3001,8049 -3005,8049 -3001,8043 -2988,8001 " style="fill: white; stroke: black; stroke-width: 30" />
<polyline points="-2965,7805 -2985,7794 -2987,7790 -2986,7789 -2990,7785 -2990,7786 -2988,7788 -2963,7798 " style="fill: white; stroke: black; stroke-width: 30" />
<polyline points="-2792,7911 -2831,7894 -2860,7892 -2874,7906 -2858,7948 -2833,8011 -2827,8050 -2840,8082 -2872,8092 -2903,8081 -2923,8050 -2912,8004 -2873,7974 " style="fill: white; stroke: black; stroke-width: 30" />
<polyline points="-2629,7935 -2671,7937 -2732,7949 -2778,7981 -2788,8011 -2778,8033 -2752,8042 -2700,8042 -2646,8029 -2608,8019 -2598,8014 -2605,8014 -2614,8010 -2611,8000 -2614,7964 -2607,7939 -2607,7928 -2605,7926 -2598,7925 -2587,7929 -2566,7935 -2536,7949 -2504,7964 -2462,7974 -2434,7967 -2411,7953 -2399,7926 -2410,7899 -2446,7897 -2501,7926 -2524,7969 -2508,8013 -2455,8056 -2363,8081 " style="fill: white; stroke: black; stroke-width: 30" />
<polyline points="-2188,7711 -2197,7720 -2214,7763 -2244,7856 -2294,7961 -2317,8045 -2318,8061 -2312,8055 -2309,8015 -2297,7985 -2267,7980 -2204,7985 -2121,7977 -2056,7961 -2052,7942 -2117,7947 -2194,7987 -2221,8029 -2205,8076 -2147,8109 -2056,8091 -1991,8052 " style="fill: white; stroke: black; stroke-width: 30" />
<polyline points="-1599,7878 -1570,7832 -1537,7793 -1530,7783 -1551,7807 -1584,7896 -1613,8000 -1617,8061 -1606,8089 -1584,8098 -1507,8076 -1423,8026 " style="fill: white; stroke: black; stroke-width: 30" />
<polyline points="-1359,7988 -1372,7963 -1364,7951 -1334,7960 -1313,8005 -1306,8061 -1325,8084 -1365,8084 -1412,8049 -1433,8010 -1430,8002 -1398,7996 " style="fill: white; stroke: black; stroke-width: 30" />
<polyline points="-1195,8007 -1195,8006 -1190,7997 -1161,7978 -1129,7982 -1115,8017 -1133,8061 -1181,8098 -1222,8099 -1236,8072 -1227,8036 -1189,8000 -1144,7990 " style="fill: white; stroke: black; stroke-width: 30" />
<polyline points="-998,7985 -993,7971 -989,7970 -976,7995 -963,8028 -985,8067 -1013,8108 -1040,8159 -1059,8188 -1062,8194 -1064,8191 -1059,8188 -1055,8182 -1053,8176 -1050,8175 -1055,8179 -1049,8185 -1062,8198 -1066,8213 -1069,8236 -1069,8229 -1051,8173 -1004,8084 -961,7996 -930,7972 -881,7979 -846,8012 -852,8051 -899,8085 -947,8091 -986,8065 -994,8044 -965,8003 " style="fill: white; stroke: black; stroke-width: 30" />
<polyline points="-566,7871 -595,7873 -605,7875 -600,7877 -585,7877 -555,7879 -511,7878 -442,7877 -371,7869 " style="fill: white; stroke: black; stroke-width: 30" />
<polyline points="-266,7756 -282,7755 -285,7758 -287,7772 -287,7806 -290,7834 -288,7842 -293,7848 -298,7851 -301,7857 -299,7857 -294,7859 -296,7857 -294,7858 -298,7858 -294,7859 -299,7857 -298,7857 -296,7857 -300,7859 -304,7859 -301,7862 -301,7860 -298,7860 -298,7858 -298,7856 -296,7854 -296,7852 " style="fill: white; stroke: black; stroke-width: 30" />
<polyline points="-276,7749 -285,7750 -276,7754 -249,7771 -198,7802 -161,7833 -151,7853 -166,7865 -222,7891 -292,7913 -329,7918 -344,7922 -343,7920 -338,7916 -330,7911 " style="fill: white; stroke: black; stroke-width: 30" />
<polyline points="219,7898 229,7871 219,7854 179,7845 106,7855 28,7904 4,7951 25,7996 82,8030 144,8052 206,8053 " style="fill: white; stroke: black; stroke-width: 30" />
<polyline points="252,8040 290,7991 342,7917 414,7825 469,7733 500,7682 496,7676 485,7687 455,7721 401,7847 387,7933 410,8015 444,8048 449,8042 426,7995 368,7928 322,7883 317,7869 338,7856 423,7824 519,7793 580,7776 602,7768 596,7772 588,7782 556,7865 529,7935 517,8006 517,8028 517,8028 526,7998 546,7885 587,7769 623,7712 659,7696 690,7715 697,7762 663,7820 613,7855 565,7856 552,7841 556,7816 586,7778 641,7754 697,7755 730,7766 756,7781 766,7821 749,7903 722,7990 709,8029 704,8039 709,8036 713,8034 721,8023 " style="fill: white; stroke: black; stroke-width: 30" />
<polyline points="1067,7840 1049,7820 1044,7811 1045,7813 1046,7815 1057,7833 1084,7872 " style="fill: white; stroke: black; stroke-width: 30" />
<polyline points="1059,8014 1007,7996 998,7989 1003,7989 1004,7987 1011,7990 1038,7996 " style="fill: white; stroke: black; stroke-width: 30" />
<polyline points="1332,7853 1338,7835 1341,7827 1345,7832 1341,7870 1329,7960 1304,8062 1278,8123 1255,8149 1240,8148 1223,8108 1203,8044 1207,7976 1246,7930 " style="fill: white; stroke: black; stroke-width: 30" />
<polyline points="1448,7963 1436,7962 1421,7966 1400,7997 1402,8019 1426,8029 1480,8018 1529,8007 1536,8010 1528,8036 1531,8085 1565,8103 " style="fill: white; stroke: black; stroke-width: 30" />
<polyline points="1727,7935 1691,7926 1685,7926 1680,7935 1674,7998 1663,8057 1645,8080 1642,8085 1632,8079 1628,8067 1631,8037 " style="fill: white; stroke: black; stroke-width: 30" />
<polyline points="1948,7847 1934,7840 1933,7856 1914,7930 1876,8020 1854,8083 1835,8120 1821,8131 1835,8109 1871,8026 1912,7909 1971,7819 2018,7781 2045,7777 2049,7794 2035,7835 2009,7867 1949,7896 1890,7896 1865,7880 1858,7863 1863,7851 1883,7839 1923,7838 " style="fill: white; stroke: black; stroke-width: 30" />
<polyline points="1989,8010 1970,8020 1978,8020 1978,8020 1984,8009 2013,7978 2045,7934 2057,7924 2061,7924 2080,7927 2120,7937 2150,7953 2162,7967 2155,7986 2144,7995 2134,8004 2137,8002 2141,7997 2176,7959 2212,7886 2219,7802 2212,7769 2209,7754 2204,7753 2207,7758 2214,7784 " style="fill: white; stroke: black; stroke-width: 30" />
<polyline points="2224,7999 2219,7985 2227,7973 2264,7952 2309,7945 2325,7958 2325,7970 2311,7987 2303,7995 2316,7993 2341,7984 2368,7977 2371,7976 2368,7980 2372,7986 2374,7995 2366,8003 2351,8016 2354,8019 2355,8023 2358,8022 " style="fill: white; stroke: black; stroke-width: 30" />
<polyline points="2457,7914 2468,7909 2486,7908 2515,7912 2541,7928 2538,7959 2503,8003 2469,8028 2431,8040 2407,8031 2386,8011 2392,8002 2404,8003 2421,8019 2457,8037 2502,8042 2569,8025 2627,7986 2644,7939 2627,7926 2612,7929 2578,7970 2559,8008 2557,8039 2570,8061 2614,8091 " style="fill: white; stroke: black; stroke-width: 30" />
<polyline points="2773,7572 2774,7566 2765,7565 2768,7568 2768,7593 2767,7669 2742,7828 2705,8038 2696,8180 2698,8270 2689,8320 2691,8335 2689,8335 2689,8335 2687,8335 2689,8335 2689,8336 2691,8335 2696,8335 2695,8336 2694,8335 2696,8336 2696,8335 2694,8335 2694,8334 2698,8331 2688,8332 2696,8329 2692,8328 2687,8329 2688,8326 2678,8319 2617,8302 2381,8302 2028,8328 1620,8374 1321,8395 1213,8396 " style="fill: white; stroke: black; stroke-width: 30" />
<polyline points="3905,9254 3907,9222 3912,9212 3932,9217 3961,9240 4001,9319 4073,9468 4152,9655 4193,9839 4189,9995 4126,10128 4027,10235 3860,10333 3660,10410 3393,10496 3104,10569 2816,10633 2545,10685 2285,10738 2040,10810 1893,10885 1838,10969 1847,11073 1911,11209 2021,11333 2148,11426 2244,11476 2334,11490 2389,11458 " style="fill: white; stroke: black; stroke-width: 30" />
<polyline points="2414,11422 2394,11417 2395,11410 2408,11414 2435,11424 2461,11438 2463,11448 2458,11457 2440,11468 2387,11502 2355,11527 2321,11568 2322,11584 " style="fill: white; stroke: black; stroke-width: 30" />
<polyline points="2821,11274 2804,11268 2805,11274 2796,11322 2780,11394 2756,11458 2748,11492 2753,11505 2759,11503 " style="fill: white; stroke: black; stroke-width: 30" />
<polyline points="2745,11352 2757,11294 2773,11256 2805,11227 2861,11211 2917,11238 2963,11307 2948,11405 2892,11477 2832,11510 2764,11512 2719,11489 2723,11456 2749,11429 2805,11409 " style="fill: white; stroke: black; stroke-width: 30" />
<polyline points="3029,11380 3040,11378 3059,11386 3083,11414 3101,11445 3092,11468 3043,11508 2996,11531 2985,11532 2981,11518 2998,11480 3008,11464 3033,11452 3069,11453 3118,11463 3122,11497 " style="fill: white; stroke: black; stroke-width: 30" />
<polyline points="3160,11522 3157,11494 3198,11458 3245,11435 3276,11427 3273,11431 3273,11442 3252,11480 3242,11503 3238,11513 3245,11505 3296,11479 3349,11461 3360,11463 3356,11467 3350,11482 3351,11503 3351,11528 3339,11561 " style="fill: white; stroke: black; stroke-width: 30" />
<polyline points="3761,11380 3735,11379 3732,11377 3703,11387 3696,11397 3686,11426 3694,11467 3727,11501 3784,11507 3829,11497 3839,11491 3842,11492 3838,11502 3859,11533 3906,11555 3944,11544 3960,11509 3957,11456 3948,11413 3958,11397 3973,11375 4003,11367 " style="fill: white; stroke: black; stroke-width: 30" />
<polyline points="4176,11272 4147,11248 4143,11251 4132,11285 4065,11383 4035,11452 4030,11498 4050,11509 4062,11507 4127,11480 4161,11466 4147,11477 4147,11499 4148,11532 4158,11544 4150,11546 " style="fill: white; stroke: black; stroke-width: 30" />
<polyline points="4274,11398 4282,11391 4268,11411 4286,11445 4306,11485 4305,11526 4257,11559 4210,11574 4201,11564 4194,11550 4186,11530 4199,11515 4206,11512 4220,11514 4244,11523 4249,11543 4269,11557 " style="fill: white; stroke: black; stroke-width: 30" />
<polyline points="4547,11308 4545,11297 4546,11300 4502,11342 4398,11428 4353,11491 4330,11537 4341,11531 4399,11479 4451,11449 4484,11438 4502,11452 4523,11499 " style="fill: white; stroke: black; stroke-width: 30" />
<polyline points="2938,11837 2932,11821 2927,11821 2908,11855 2855,11960 2842,12073 2865,12148 2892,12171 2888,12144 2852,12074 2818,11988 2802,11952 2805,11944 2822,11943 2844,11953 2924,11961 2977,11967 3049,11947 3082,11922 3094,11903 3100,11887 3132,11860 3151,11837 3168,11808 3157,11805 3155,11805 3158,11806 3135,11821 3111,11864 3076,11929 3074,11970 3076,11989 3131,11981 3190,11967 3215,11969 3216,11980 3233,11986 3253,11997 3291,11997 3367,11982 3401,11967 3407,11946 3393,11913 3364,11898 3344,11899 3329,11926 3355,11957 3391,11994 3421,12021 3458,12036 " style="fill: white; stroke: black; stroke-width: 30" />
<polyline points="3952,11764 3949,11754 3932,11755 3944,11754 3909,11782 3854,11850 3834,11919 3821,11982 3846,12014 3900,12009 " style="fill: white; stroke: black; stroke-width: 30" />
<polyline points="4117,11786 4124,11771 4127,11769 4103,11791 4036,11857 3980,11919 3962,11958 3945,11997 3960,12003 3969,11989 " style="fill: white; stroke: black; stroke-width: 30" />
<polyline points="3947,11913 3922,11885 3897,11870 3892,11871 3920,11879 3976,11907 4051,11925 4083,11944 4142,11931 4152,11903 4140,11884 4132,11877 4111,11884 4090,11900 4023,11938 3984,11971 3985,11997 4025,12030 4103,12050 4207,12049 4293,12033 4355,11986 4409,11911 4434,11839 4439,11795 4435,11782 4423,11781 4373,11820 4289,11900 4263,11964 4277,12018 4334,12040 4446,12014 4527,11980 4522,11974 4510,11979 4454,12020 4403,12075 4385,12148 " style="fill: white; stroke: black; stroke-width: 30" />
<polyline points="2781,12454 2780,12435 2766,12429 2768,12425 2758,12426 2777,12421 2775,12423 2827,12419 2920,12408 3017,12402 3125,12414 " style="fill: white; stroke: black; stroke-width: 30" />
<polyline points="3207,12303 3187,12295 3175,12309 3212,12365 3284,12425 3319,12469 3332,12478 3274,12496 3205,12519 3189,12528 3208,12539 " style="fill: white; stroke: black; stroke-width: 30" />
<polyline points="3629,12226 3609,12229 3591,12240 3562,12300 3522,12382 3496,12457 3491,12514 3474,12540 3486,12533 3514,12483 " style="fill: white; stroke: black; stroke-width: 30" />
<polyline points="3489,12328 3450,12310 3453,12300 3457,12298 3471,12301 3538,12308 3626,12322 3724,12344 " style="fill: white; stroke: black; stroke-width: 30" />
<polyline points="3727,12400 3732,12378 3698,12365 3645,12380 3603,12417 3607,12469 3665,12513 3733,12520 3814,12484 3826,12437 3799,12392 3765,12376 3749,12382 3780,12409 3832,12446 3907,12463 3975,12449 4023,12404 4055,12328 4068,12275 4062,12258 4060,12261 4056,12271 4000,12339 3932,12406 3912,12472 3945,12510 3987,12522 4001,12497 3978,12449 3954,12398 3949,12390 3973,12383 4037,12388 4121,12396 4166,12400 4154,12390 4102,12371 4026,12371 4030,12382 4059,12433 4171,12482 4283,12511 4333,12521 " style="fill: white; stroke: black; stroke-width: 30" />

</svg>