<?xml version="1.0" standalone="no"?>
<!DOCTYPE svg PUBLIC "-//W3C//DTD SVG 1.1//EN" "http://www.w3.org/Graphics/SVG/1.1/DTD/svg11.dtd">
<svg width="210mm" height="297mm" viewBox="-7000 500 14000 20000" version="1.1" xmlns="http://www.w3.org/2000/svg">

<polyline points="-3223,2103 -3231,2102 -3243,2102 -3243,2117 -3261,2146 -3280,2223 -3282,2278 -3254,2326 -3212,2344 -3130,2321 -3064,2259 -3038,2213 -3038,2216 -3040,2234 -3045,2268 -3021,2296 -2971,2311 -2908,2313 -2864,2309 -2834,2292 -2824,2249 -2828,2178 -2848,2119 -2862,2083 -2869,2074 -2865,2080 -2867,2087 -2863,2094 -2866,2096 -2867,2095 " style="fill: white; stroke: black; stroke-width: 30" />
<polyline points="-2697,2147 -2701,2147 -2700,2152 -2700,2200 -2704,2261 -2697,2302 -2683,2321 -2677,2327 " style="fill: white; stroke: black; stroke-width: 30" />
<polyline points="-2709,2041 -2743,2001 -2768,1966 -2775,1962 -2765,1963 -2721,1980 -2685,2017 -2672,2052 -2682,2059 -2717,2062 -2746,2043 -2770,2020 -2775,1995 " style="fill: white; stroke: black; stroke-width: 30" />
<polyline points="-2589,2326 -2573,2323 -2535,2313 -2495,2305 -2456,2279 -2437,2244 -2439,2205 -2475,2185 -2548,2209 -2605,2283 -2594,2339 -2524,2380 -2429,2373 -2356,2356 " style="fill: white; stroke: black; stroke-width: 30" />
<polyline points="-2138,2274 -2160,2259 -2191,2242 -2242,2251 -2280,2295 -2288,2331 -2269,2346 -2228,2339 -2174,2291 -2121,2220 -2084,2156 -2060,2088 -2051,2047 -2052,2044 -2059,2051 -2074,2091 -2092,2173 -2096,2267 -2067,2335 -2006,2362 -1924,2325 -1859,2255 -1836,2199 -1847,2167 -1867,2167 -1897,2187 -1920,2235 -1917,2299 -1887,2337 -1825,2346 -1752,2317 -1712,2286 -1699,2250 -1696,2201 -1695,2164 -1697,2140 -1694,2135 -1686,2140 -1662,2143 -1605,2162 " style="fill: white; stroke: black; stroke-width: 30" />
<polyline points="-1437,2017 -1440,2001 -1443,1999 -1449,2025 -1467,2120 -1489,2247 -1465,2308 " style="fill: white; stroke: black; stroke-width: 30" />
<polyline points="-1224,2064 -1271,2054 -1347,2077 -1449,2140 -1518,2221 -1501,2276 -1408,2314 -1276,2304 -1170,2255 -1143,2220 -1162,2197 -1185,2197 -1180,2206 -1163,2214 -1149,2211 -1149,2210 -1156,2206 -1183,2210 -1217,2222 -1235,2251 -1220,2277 -1192,2305 -1151,2316 -1098,2307 -1031,2259 " style="fill: white; stroke: black; stroke-width: 30" />
<polyline points="-824,1941 -881,1946 -915,1969 -944,2067 -958,2193 -952,2282 -936,2308 -910,2297 -858,2226 -818,2179 -803,2184 -795,2227 -780,2260 -746,2263 -694,2220 " style="fill: white; stroke: black; stroke-width: 30" />
<polyline points="-615,2289 -627,2287 -622,2276 -611,2257 -604,2237 -606,2245 -611,2274 -600,2308 -585,2309 -569,2273 -564,2208 -560,2165 -558,2152 -551,2155 -519,2168 -462,2182 " style="fill: white; stroke: black; stroke-width: 30" />
<polyline points="107,2138 103,2138 104,2137 103,2138 104,2140 107,2144 115,2144 138,2145 203,2142 311,2139 428,2132 " style="fill: white; stroke: black; stroke-width: 30" />
<polyline points="474,2027 471,2032 487,2040 551,2063 602,2085 619,2109 609,2125 572,2149 550,2157 550,2158 562,2152 " style="fill: white; stroke: black; stroke-width: 30" />
<polyline points="972,1956 964,1960 952,1995 928,2107 905,2215 908,2281 924,2300 941,2286 956,2225 947,2153 923,2107 901,2102 888,2097 890,2094 889,2084 884,2069 876,2061 871,2056 871,2041 868,2022 850,1997 824,1974 810,1959 808,1951 813,1937 825,1921 866,1891 951,1879 1038,1902 1094,1953 1100,1992 1079,2027 1015,2045 913,2047 875,2030 880,2027 935,2028 " style="fill: white; stroke: black; stroke-width: 30" />
<polyline points="1169,2040 1169,2007 1185,1987 1220,1983 1267,2000 1298,2049 1300,2089 1273,2125 1217,2154 1147,2153 1112,2121 1103,2095 1110,2092 1145,2101 1210,2120 1271,2147 1304,2159 " style="fill: white; stroke: black; stroke-width: 30" />
<polyline points="1141,1891 1154,1885 1192,1885 1251,1897 1335,1921 " style="fill: white; stroke: black; stroke-width: 30" />
<polyline points="1571,2098 1567,2095 1562,2083 1553,2055 1509,2027 1432,2029 1388,2060 1375,2105 1406,2146 1479,2154 1576,2088 1646,1992 1658,1929 1641,1904 1615,1907 1603,1936 1597,2034 1630,2116 1684,2161 1739,2171 " style="fill: white; stroke: black; stroke-width: 30" />
<polyline points="1856,2032 1815,2026 1762,2034 1722,2076 1723,2122 1776,2170 1871,2184 1960,2152 1990,2105 1972,2037 1909,1995 1880,1989 1884,1995 1902,2009 " style="fill: white; stroke: black; stroke-width: 30" />
<polyline points="2525,1842 2508,1827 2504,1826 2484,1864 2442,1968 2432,2050 2458,2086 2530,2111 2622,2104 2679,2101 " style="fill: white; stroke: black; stroke-width: 30" />
<polyline points="2824,1997 2774,1987 2718,1990 2680,2008 2662,2053 2688,2102 2742,2131 2804,2124 2824,2100 2812,2071 2785,2044 2779,2041 2782,2046 2795,2060 2809,2081 2820,2100 " style="fill: white; stroke: black; stroke-width: 30" />
<polyline points="2986,2090 2963,2071 2947,2057 2943,2055 2941,2059 2940,2071 2945,2084 2947,2096 2947,2099 2950,2098 2953,2096 2954,2093 2951,2090 2945,2080 2925,2067 2895,2058 2866,2056 2858,2071 2862,2115 2891,2166 2934,2192 2982,2193 3029,2165 3055,2123 3054,2081 3027,2064 3006,2058 2998,2071 3001,2099 3030,2136 3082,2139 3137,2117 3164,2085 3165,2066 3158,2067 3153,2101 3135,2204 3115,2312 3096,2396 3090,2428 3096,2413 3127,2323 3191,2150 3234,2034 3226,1972 3203,1956 3196,1956 3206,1957 3220,1969 3252,1991 3286,2040 3302,2107 3292,2160 3274,2190 3253,2196 3214,2195 3178,2180 3143,2141 3122,2105 " style="fill: white; stroke: black; stroke-width: 30" />
<polyline points="-2695,2597 -2701,2598 -2709,2607 -2721,2672 -2741,2811 -2744,2911 -2721,2951 -2684,2970 -2625,2974 -2538,2970 -2466,2962 -2416,2956 -2391,2947 " style="fill: white; stroke: black; stroke-width: 30" />
<polyline points="-2792,2603 -2808,2606 -2812,2605 -2811,2609 -2811,2610 -2810,2612 -2800,2614 -2767,2616 -2694,2620 -2561,2652 " style="fill: white; stroke: black; stroke-width: 30" />
<polyline points="-2424,2867 -2422,2846 -2416,2841 -2407,2847 -2388,2852 -2347,2864 -2286,2872 -2217,2889 -2184,2916 -2186,2954 -2209,2989 -2268,3034 -2320,3055 -2335,3060 -2336,3057 -2330,3058 -2324,3058 -2313,3061 " style="fill: white; stroke: black; stroke-width: 30" />
<polyline points="-1678,2687 -1696,2686 -1727,2717 -1748,2808 -1744,2913 -1731,2989 -1718,3017 -1710,3016 -1708,2981 -1718,2887 -1740,2782 -1733,2687 -1701,2639 -1648,2628 -1588,2658 -1555,2723 -1562,2788 -1585,2828 -1639,2842 -1730,2829 -1798,2802 -1814,2790 -1787,2782 " style="fill: white; stroke: black; stroke-width: 30" />
<polyline points="-1440,2810 -1484,2787 -1484,2780 -1454,2783 -1395,2813 -1369,2861 -1377,2906 -1414,2947 -1483,2969 -1534,2959 -1558,2933 -1557,2918 -1532,2898 -1489,2895 -1436,2917 -1389,2955 -1356,2996 " style="fill: white; stroke: black; stroke-width: 30" />
<polyline points="-1232,2659 -1235,2653 -1235,2666 -1231,2753 -1238,2884 -1231,2976 -1216,3011 -1211,3000 -1217,2935 -1248,2861 -1272,2837 -1274,2841 -1270,2846 -1240,2864 -1169,2876 -1087,2868 " style="fill: white; stroke: black; stroke-width: 30" />
<polyline points="-961,2833 -969,2823 -974,2811 -996,2809 -1045,2834 -1093,2894 -1102,2927 -1078,2950 -1015,2942 -914,2863 -837,2763 -800,2694 -805,2683 -815,2687 -826,2708 -837,2772 -820,2820 -778,2856 -730,2873 -690,2901 -675,2924 -667,2930 " style="fill: white; stroke: black; stroke-width: 30" />
<polyline points="193,2992 201,2960 258,2873 339,2757 419,2668 452,2628 448,2627 443,2635 438,2655 451,2765 490,2883 533,2963 567,2999 " style="fill: white; stroke: black; stroke-width: 30" />
<polyline points="238,2764 214,2757 221,2750 273,2752 390,2766 531,2812 " style="fill: white; stroke: black; stroke-width: 30" />
<polyline points="797,2779 686,2789 624,2813 617,2857 639,2931 659,2978 649,3000 615,3000 563,2976 553,2961 559,2957 573,2957 608,2950 687,2932 803,2911 909,2911 966,2908 969,2903 954,2886 920,2865 885,2870 885,2879 902,2903 948,2945 1018,2978 " style="fill: white; stroke: black; stroke-width: 30" />
<polyline points="1132,2992 1166,2980 1209,2940 1278,2880 1321,2830 1335,2812 1335,2809 1335,2814 1336,2815 1335,2816 1333,2815 1332,2815 1331,2814 1331,2814 1330,2814 " style="fill: white; stroke: black; stroke-width: 30" />
<polyline points="1166,2771 1138,2772 1136,2782 1174,2844 1270,2923 1394,2965 1516,2957 1595,2918 1605,2884 1595,2858 1581,2853 1569,2866 1558,2896 1571,2953 1616,2982 1689,2970 1752,2928 1767,2913 1762,2917 1763,2932 1779,2959 1813,2987 " style="fill: white; stroke: black; stroke-width: 30" />
<polyline points="1917,2897 1912,2894 1926,2891 1980,2880 2058,2848 2115,2808 2127,2765 2099,2748 2033,2764 1990,2828 2001,2889 2058,2925 2165,2901 2284,2802 2388,2665 2416,2569 2382,2551 2338,2567 2286,2641 2272,2733 2296,2821 2377,2891 2483,2903 2591,2885 2642,2857 2643,2851 2639,2850 2648,2851 " style="fill: white; stroke: black; stroke-width: 30" />
<polyline points="2597,2884 2618,2881 2660,2860 2711,2836 2777,2779 2837,2692 2844,2618 2806,2587 2750,2588 2702,2638 2675,2745 2690,2857 2736,2942 " style="fill: white; stroke: black; stroke-width: 30" />
<polyline points="-1019,1311 -1023,1306 -1019,1311 -1015,1354 -1014,1438 -1015,1509 -1012,1548 -1007,1556 -1006,1546 -1011,1511 -1022,1437 -1053,1360 -1083,1292 -1102,1258 -1108,1246 -1107,1253 -1076,1263 -987,1290 -902,1323 -870,1352 -882,1365 -940,1394 -987,1410 -984,1415 -936,1444 -846,1501 -808,1535 -866,1581 -951,1593 -993,1577 -998,1546 -977,1486 -936,1421 -917,1400 -906,1392 -894,1388 -849,1400 -781,1422 -714,1436 -673,1452 -671,1456 -681,1467 -701,1492 -714,1520 -714,1537 -712,1539 -712,1538 " style="fill: white; stroke: black; stroke-width: 30" />
<polyline points="-719,1262 -745,1253 -747,1238 -744,1230 -740,1227 -733,1231 -709,1234 -664,1253 -624,1287 -605,1312 -617,1314 -651,1305 -672,1293 -680,1286 -683,1281 -685,1279 -689,1272 -701,1218 " style="fill: white; stroke: black; stroke-width: 30" />
<polyline points="-436,1192 -456,1186 -467,1191 -482,1234 -511,1328 -534,1422 -536,1480 -530,1496 -519,1483 -493,1439 -461,1390 -429,1371 -394,1396 -374,1454 -382,1503 -407,1518 -451,1507 -504,1465 -530,1428 -527,1420 -492,1424 -418,1451 -311,1466 -177,1439 -65,1387 -41,1349 -61,1310 -127,1307 -185,1348 -206,1406 -185,1467 -109,1496 17,1441 132,1337 189,1208 184,1150 149,1119 112,1120 66,1147 32,1231 36,1338 77,1426 126,1482 185,1501 255,1457 " style="fill: white; stroke: black; stroke-width: 30" />
<polyline points="394,1274 397,1249 387,1250 363,1285 326,1349 299,1427 294,1464 307,1477 " style="fill: white; stroke: black; stroke-width: 30" />
<polyline points="357,1031 348,1029 351,1028 381,1047 440,1102 472,1162 462,1182 425,1173 381,1144 358,1110 361,1098 394,1091 " style="fill: white; stroke: black; stroke-width: 30" />
<polyline points="1273,1110 1267,1111 1256,1128 1232,1185 1173,1301 1135,1392 1133,1432 1155,1441 1219,1423 1335,1363 1423,1304 1432,1300 1425,1305 1417,1316 1417,1319 1417,1325 1408,1346 1397,1373 1404,1375 1443,1369 1535,1328 1581,1311 1576,1314 1567,1321 1564,1330 1578,1344 " style="fill: white; stroke: black; stroke-width: 30" />
<polyline points="1686,1334 1709,1337 1744,1332 1796,1300 1835,1253 1839,1228 1808,1218 1744,1246 1702,1303 1711,1354 1759,1386 1864,1378 1982,1324 " style="fill: white; stroke: black; stroke-width: 30" />
<polyline points="2025,1261 2025,1247 2021,1220 2016,1209 1999,1211 1991,1220 1987,1222 1989,1228 1985,1253 1976,1316 1977,1391 1995,1440 2002,1468 1996,1483 1950,1526 1886,1561 1855,1562 1857,1547 1887,1496 1984,1432 2090,1395 2207,1361 2313,1305 2314,1253 2226,1223 2141,1243 2121,1287 2199,1366 2397,1432 2659,1456 " style="fill: white; stroke: black; stroke-width: 30" />
<polyline points="-2061,4101 -2071,4086 -2058,4065 -2010,4032 -1954,3947 -1880,3848 -1821,3779 -1789,3765 -1792,3767 -1816,3796 " style="fill: white; stroke: black; stroke-width: 30" />
<polyline points="-2021,3849 -2091,3834 -2130,3815 -2139,3812 -2151,3807 -2149,3809 -2133,3818 -2100,3843 -2037,3880 -1956,3931 -1856,3992 -1780,4034 -1714,4058 " style="fill: white; stroke: black; stroke-width: 30" />
<polyline points="-2154,3928 -2167,3926 -2169,3927 -2167,3926 -2154,3922 -2130,3923 -2082,3923 -2013,3924 -1921,3924 -1844,3916 -1793,3909 -1781,3911 -1780,3918 " style="fill: white; stroke: black; stroke-width: 30" />
<polyline points="-1507,3812 -1508,3810 -1508,3812 -1507,3845 -1506,3931 -1498,4003 -1471,4061 " style="fill: white; stroke: black; stroke-width: 30" />
<polyline points="-1332,3829 -1332,3831 -1326,3861 -1315,3937 -1303,4005 -1289,4059 -1280,4070 " style="fill: white; stroke: black; stroke-width: 30" />
<polyline points="-1368,3948 -1408,3891 -1418,3828 -1410,3759 -1380,3712 -1341,3696 -1284,3715 -1211,3789 -1165,3879 -1147,3957 -1155,4012 -1186,4044 -1229,4046 -1288,4017 -1343,3959 -1358,3939 -1355,3938 " style="fill: white; stroke: black; stroke-width: 30" />
<polyline points="-857,3777 -863,3770 -888,3753 -942,3739 -1016,3750 -1042,3782 -1031,3864 -976,3966 -926,4033 -920,4064 -939,4068 -994,4054 -1045,4018 -1062,3991 -1053,3974 " style="fill: white; stroke: black; stroke-width: 30" />
<polyline points="-432,4050 -431,4040 -410,4005 -351,3912 -282,3801 -245,3734 -242,3719 -249,3722 -254,3741 -249,3814 -211,3919 -161,3987 -112,4018 -94,4009 " style="fill: white; stroke: black; stroke-width: 30" />
<polyline points="-460,3843 -476,3839 -450,3839 -368,3854 -274,3873 -198,3892 -122,3902 -49,3891 " style="fill: white; stroke: black; stroke-width: 30" />
<polyline points="41,3856 28,3856 10,3855 -8,3858 -39,3862 -91,3895 -103,3926 -91,3956 -46,3980 37,3978 120,3939 170,3913 " style="fill: white; stroke: black; stroke-width: 30" />
<polyline points="248,3668 239,3667 227,3701 189,3841 172,3942 179,3990 178,3990 174,3949 169,3890 176,3863 188,3857 252,3853 319,3850 358,3853 359,3857 353,3867 349,3887 349,3927 351,3967 354,3989 " style="fill: white; stroke: black; stroke-width: 30" />
<polyline points="466,3637 440,3595 429,3569 426,3567 437,3575 476,3607 500,3645 499,3675 471,3694 426,3689 384,3657 376,3628 383,3614 422,3597 " style="fill: white; stroke: black; stroke-width: 30" />
<polyline points="521,3774 493,3779 453,3822 438,3890 479,3945 558,3970 656,3940 720,3890 722,3840 697,3788 664,3759 661,3760 683,3771 739,3786 792,3804 822,3811 846,3778 858,3742 866,3713 878,3697 899,3697 923,3728 937,3786 921,3849 888,3900 848,3921 818,3913 806,3890 810,3876 814,3877 832,3889 879,3911 932,3926 1009,3921 " style="fill: white; stroke: black; stroke-width: 30" />
<polyline points="1235,3649 1233,3563 1205,3531 1189,3530 1143,3595 1055,3754 1004,3884 990,3953 994,3959 1007,3938 1053,3888 1119,3848 1179,3831 1234,3821 1244,3814 1214,3799 1154,3785 1120,3802 1108,3851 1146,3918 1226,3973 1322,3993 1397,3969 1431,3905 1441,3837 1434,3815 1431,3810 1433,3812 1436,3812 1438,3811 1435,3810 1435,3811 1436,3810 1440,3810 1441,3806 1441,3805 1438,3802 1439,3802 1437,3801 1441,3797 1441,3798 1446,3799 1442,3799 1443,3799 1442,3798 1442,3798 1443,3796 1442,3797 1444,3796 1451,3799 1487,3806 1540,3823 1572,3841 " style="fill: white; stroke: black; stroke-width: 30" />
<polyline points="1431,3840 1394,3838 1377,3840 1390,3867 1413,3905 1459,3924 1495,3927 1511,3917 1525,3894 1545,3862 1578,3797 1613,3720 1621,3655 1611,3620 1599,3613 1601,3619 1608,3622 1612,3623 1606,3628 1601,3633 1605,3635 1605,3640 1605,3642 1612,3657 1614,3686 1611,3761 1626,3858 1668,3955 " style="fill: white; stroke: black; stroke-width: 30" />
<polyline points="1718,3984 1748,3960 1832,3898 1950,3792 2072,3659 2129,3596 2128,3572 2104,3567 2046,3586 " style="fill: white; stroke: black; stroke-width: 30" />
<polyline points="1814,3653 1811,3651 1817,3653 1859,3694 1947,3760 2049,3820 2121,3875 2154,3927 " style="fill: white; stroke: black; stroke-width: 30" />
<polyline points="1663,3825 1673,3813 1731,3795 1873,3781 2017,3770 2080,3781 2131,3789 " style="fill: white; stroke: black; stroke-width: 30" />
<polyline points="-1222,4436 -1226,4435 -1232,4443 -1252,4517 -1272,4623 -1259,4677 -1203,4696 -1118,4697 -1033,4681 -967,4674 " style="fill: white; stroke: black; stroke-width: 30" />
<polyline points="-978,4498 -983,4499 -962,4506 -908,4530 -830,4559 -764,4594 -736,4613 -745,4635 -786,4695 -825,4732 -837,4742 -841,4743 -837,4739 -812,4724 " style="fill: white; stroke: black; stroke-width: 30" />
<polyline points="-439,4587 -447,4587 -452,4588 -453,4595 -454,4614 -455,4651 -463,4703 -468,4733 -467,4738 -462,4739 -458,4728 -459,4702 " style="fill: white; stroke: black; stroke-width: 30" />
<polyline points="-494,4398 -493,4391 -464,4381 -398,4385 -351,4409 -355,4439 -393,4469 -459,4475 -499,4452 -501,4436 -479,4388 -427,4371 " style="fill: white; stroke: black; stroke-width: 30" />
<polyline points="-328,4558 -354,4569 -365,4613 -376,4695 -374,4738 -370,4744 -369,4734 -363,4718 -341,4684 -313,4657 -286,4644 -265,4643 -266,4647 -267,4653 -268,4654 -261,4653 -243,4652 -236,4657 -233,4669 -232,4675 -217,4672 " style="fill: white; stroke: black; stroke-width: 30" />
<polyline points="-61,4618 -84,4642 -99,4686 -122,4776 -144,4861 -148,4901 -146,4902 -141,4876 -120,4787 -82,4660 -31,4602 17,4601 32,4634 11,4691 -39,4728 -84,4731 -120,4712 -119,4697 -103,4684 -53,4664 31,4633 130,4594 236,4542 308,4478 315,4431 295,4399 280,4392 251,4400 202,4450 168,4522 178,4586 209,4635 250,4657 291,4660 350,4626 395,4592 401,4586 400,4588 393,4595 385,4615 385,4644 389,4675 398,4706 404,4723 " style="fill: white; stroke: black; stroke-width: 30" />
<polyline points="483,4343 464,4335 469,4332 477,4337 " style="fill: white; stroke: black; stroke-width: 30" />
<polyline points="574,4388 545,4403 535,4436 530,4512 511,4605 483,4702 483,4753 " style="fill: white; stroke: black; stroke-width: 30" />
<polyline points="654,4562 590,4567 495,4608 459,4644 470,4676 529,4697 636,4681 704,4662 " style="fill: white; stroke: black; stroke-width: 30" />
<polyline points="780,4508 782,4504 797,4510 844,4550 860,4600 823,4649 762,4671 711,4668 699,4651 710,4634 731,4622 750,4632 785,4666 835,4692 914,4678 " style="fill: white; stroke: black; stroke-width: 30" />
<polyline points="1141,4416 1143,4339 1130,4328 1118,4337 1068,4421 1002,4556 971,4666 966,4710 973,4705 987,4671 1001,4639 1012,4633 1027,4640 1086,4655 1155,4660 1217,4639 " style="fill: white; stroke: black; stroke-width: 30" />
<polyline points="1252,4590 1229,4595 1219,4612 1214,4639 1219,4678 1222,4706 1230,4706 " style="fill: white; stroke: black; stroke-width: 30" />
<polyline points="1327,4371 1316,4371 1312,4375 1319,4382 1335,4400 1351,4424 1349,4434 1320,4451 1270,4455 1235,4440 1232,4415 1246,4404 1300,4382 " style="fill: white; stroke: black; stroke-width: 30" />
<polyline points="1419,4623 1458,4581 1527,4529 1594,4516 1636,4538 1638,4576 1594,4620 1540,4640 1514,4633 1504,4609 1502,4581 1512,4557 1547,4546 " style="fill: white; stroke: black; stroke-width: 30" />
<polyline points="1703,4637 1683,4635 1700,4621 1806,4576 1892,4567 1917,4588 1908,4619 1889,4661 1897,4675 " style="fill: white; stroke: black; stroke-width: 30" />
<polyline points="-449,5105 -459,5102 -458,5097 -464,5093 -464,5089 -464,5091 -461,5089 -421,5088 -300,5066 -174,5036 -106,5029 " style="fill: white; stroke: black; stroke-width: 30" />
<polyline points="-344,5100 -345,5093 -337,5092 -342,5133 -374,5251 -391,5323 -379,5358 -329,5380 -235,5383 -157,5390 -114,5391 -104,5391 -102,5389 -107,5390 -103,5389 -102,5388 -108,5372 " style="fill: white; stroke: black; stroke-width: 30" />
<polyline points="-84,5291 -102,5280 -92,5273 -54,5273 8,5300 45,5338 45,5371 33,5388 3,5398 -22,5406 -23,5408 -18,5408 -8,5406 " style="fill: white; stroke: black; stroke-width: 30" />
<polyline points="612,5175 593,5177 562,5181 508,5192 448,5208 410,5231 406,5248 424,5312 466,5397 498,5451 495,5472 479,5481 435,5475 397,5453 374,5426 372,5411 379,5403 419,5398 " style="fill: white; stroke: black; stroke-width: 30" />
<polyline points="776,5309 730,5291 659,5285 602,5304 579,5353 592,5402 646,5430 733,5408 829,5326 891,5247 894,5212 883,5206 867,5213 856,5237 840,5304 852,5369 875,5402 906,5413 932,5414 951,5406 " style="fill: white; stroke: black; stroke-width: 30" />
<polyline points="1219,5136 1171,5155 1100,5223 1054,5313 1066,5387 1130,5427 1225,5418 1324,5359 1387,5289 1397,5263 1392,5261 1382,5273 1368,5301 1365,5336 1379,5348 1408,5350 1462,5326 1493,5319 1490,5326 1490,5346 1498,5359 1517,5362 1547,5337 " style="fill: white; stroke: black; stroke-width: 30" />
<polyline points="1494,5095 1501,5095 1511,5100 1537,5112 1587,5131 " style="fill: white; stroke: black; stroke-width: 30" />
<polyline points="1571,5284 1563,5293 1565,5319 1574,5357 1570,5395 1558,5420 1554,5426 1558,5422 1574,5402 1615,5353 1646,5323 1658,5319 1661,5326 1669,5349 1689,5361 1720,5359 1746,5359 1748,5371 1745,5400 1763,5417 " style="fill: white; stroke: black; stroke-width: 30" />
<polyline points="1932,5279 1924,5299 1899,5344 1857,5431 1822,5521 1802,5581 1792,5600 1807,5564 1845,5467 1915,5334 1969,5271 1998,5263 2021,5278 2026,5307 1994,5339 1928,5357 1869,5348 1849,5323 1852,5317 1909,5317 2022,5313 2160,5296 2284,5256 2346,5189 2340,5110 2306,5066 2267,5065 2218,5128 2150,5281 2121,5414 2110,5494 2114,5509 2117,5482 2134,5421 2170,5383 2231,5354 2297,5334 2361,5308 2415,5253 2413,5211 2378,5204 2346,5222 2320,5270 2341,5319 2388,5351 2453,5372 " style="fill: white; stroke: black; stroke-width: 30" />
<polyline points="2905,5196 2887,5201 2869,5230 2854,5286 2847,5355 2856,5402 " style="fill: white; stroke: black; stroke-width: 30" />
<polyline points="2948,5106 2906,5055 2897,5019 2910,5008 2969,5002 3027,5052 3029,5096 2979,5128 2930,5128 2916,5118 2925,5086 2947,5060 " style="fill: white; stroke: black; stroke-width: 30" />
<polyline points="2973,5376 2965,5352 2975,5333 3033,5297 3084,5274 3112,5264 3110,5271 3110,5312 3104,5363 3100,5408 " style="fill: white; stroke: black; stroke-width: 30" />
<polyline points="393,6030 421,6003 460,5936 529,5825 623,5702 662,5654 660,5650 654,5657 645,5670 645,5706 668,5782 718,5869 760,5930 790,5976 " style="fill: white; stroke: black; stroke-width: 30" />
<polyline points="489,5838 448,5830 459,5821 535,5805 645,5797 775,5805 " style="fill: white; stroke: black; stroke-width: 30" />
<polyline points="981,5781 983,5759 993,5749 1013,5748 1042,5763 1061,5792 1064,5831 1044,5880 1005,5912 977,5910 934,5878 912,5855 915,5839 939,5825 984,5818 1039,5835 1083,5874 1125,5916 " style="fill: white; stroke: black; stroke-width: 30" />
<polyline points="1204,5908 1174,5898 1153,5879 1155,5856 1166,5817 1184,5776 1198,5760 1232,5745 1268,5755 " style="fill: white; stroke: black; stroke-width: 30" />
<polyline points="1412,5708 1406,5689 1427,5690 1464,5731 1493,5800 1489,5866 1455,5916 1414,5930 1375,5916 1359,5886 1364,5836 1375,5812 1402,5807 1450,5828 1502,5861 1565,5879 1647,5852 1708,5791 1724,5739 1711,5724 1697,5728 1666,5767 1654,5828 1682,5856 1744,5851 1837,5815 1877,5800 1880,5803 1866,5818 1859,5848 " style="fill: white; stroke: black; stroke-width: 30" />
<polyline points="2436,5805 2443,5806 2473,5788 2502,5757 2501,5720 2466,5683 2406,5674 2363,5695 2344,5738 2370,5795 2417,5845 2435,5909 2409,5994 2344,6069 2296,6097 2264,6091 2257,6053 2293,5964 2389,5888 2508,5844 2626,5800 2687,5738 2649,5691 2574,5685 2519,5714 2511,5757 2549,5816 2612,5864 2699,5868 " style="fill: white; stroke: black; stroke-width: 30" />
<polyline points="2895,5543 2886,5542 2872,5583 2820,5686 2750,5777 2731,5831 2760,5849 " style="fill: white; stroke: black; stroke-width: 30" />
<polyline points="2927,5711 2887,5698 2836,5705 2776,5744 2767,5761 2791,5776 2866,5784 2966,5770 3002,5759 2988,5756 2978,5757 2995,5761 3014,5755 3019,5746 3005,5737 2997,5734 2998,5733 3009,5728 3026,5715 3043,5709 3044,5712 3053,5727 3062,5758 3068,5797 3046,5818 2989,5834 2945,5823 2940,5810 2945,5787 2957,5757 2974,5748 3024,5762 " style="fill: white; stroke: black; stroke-width: 30" />
<polyline points="3225,5775 3216,5752 3181,5734 3125,5740 3076,5775 3075,5807 3088,5824 3142,5832 3244,5791 3339,5729 3418,5650 3423,5621 3405,5616 3382,5631 3355,5668 3348,5714 3363,5742 3405,5756 3426,5758 3433,5764 3435,5771 3460,5780 3526,5769 " style="fill: white; stroke: black; stroke-width: 30" />
<polyline points="3721,5572 3727,5538 3720,5537 3698,5559 3617,5650 3556,5728 3544,5763 3547,5761 3563,5725 3578,5695 3587,5678 3595,5677 3626,5680 3681,5687 " style="fill: white; stroke: black; stroke-width: 30" />
<polyline points="590,6282 583,6276 578,6272 577,6273 587,6267 634,6259 712,6231 807,6184 " style="fill: white; stroke: black; stroke-width: 30" />
<polyline points="705,6235 661,6269 626,6332 619,6396 628,6430 650,6466 672,6492 698,6513 741,6524 793,6520 833,6506 863,6497 894,6481 937,6467 " style="fill: white; stroke: black; stroke-width: 30" />
<polyline points="875,6438 844,6427 852,6418 903,6416 998,6421 1053,6434 1070,6447 1060,6462 1024,6501 983,6542 992,6549 " style="fill: white; stroke: black; stroke-width: 30" />
<polyline points="1214,6690 1208,6703 1228,6697 1321,6638 1454,6532 1538,6453 1543,6440 1542,6440 1537,6442 1535,6445 1538,6443 1535,6446 1535,6446 1538,6447 1537,6447 1538,6450 1539,6451 1545,6454 1554,6459 1562,6461 1558,6460 1554,6459 1531,6457 1483,6480 1376,6542 1314,6598 1312,6627 1346,6665 1450,6688 1580,6673 1661,6641 1712,6598 " style="fill: white; stroke: black; stroke-width: 30" />
<polyline points="1812,6436 1828,6431 1845,6449 1862,6506 1853,6572 1830,6611 1785,6637 1732,6639 1704,6614 1699,6587 1708,6573 1723,6573 1743,6581 1769,6609 1814,6620 1906,6578 2029,6492 2106,6411 2098,6395 2072,6409 2038,6461 2011,6532 2025,6558 2049,6573 2095,6565 2119,6556 2120,6557 2118,6564 2123,6571 2140,6580 2152,6582 2148,6586 2138,6596 " style="fill: white; stroke: black; stroke-width: 30" />
<polyline points="2253,6387 2244,6383 2225,6394 2194,6462 2157,6576 2132,6671 2129,6725 " style="fill: white; stroke: black; stroke-width: 30" />
<polyline points="2439,6224 2415,6251 2349,6353 2285,6482 2260,6566 2268,6622 2303,6633 " style="fill: white; stroke: black; stroke-width: 30" />
<polyline points="2543,6459 2534,6448 2520,6427 2495,6415 2444,6435 2390,6501 2376,6554 2395,6583 2431,6575 2514,6508 2619,6396 2700,6295 2696,6266 2667,6270 2605,6315 2563,6381 2557,6437 2576,6495 2606,6541 " style="fill: white; stroke: black; stroke-width: 30" />
<polyline points="2704,6526 2731,6481 2762,6428 2774,6403 2772,6391 2773,6393 2770,6398 2787,6407 2817,6423 " style="fill: white; stroke: black; stroke-width: 30" />
<polyline points="2921,6365 2923,6353 2907,6354 2879,6376 2860,6435 2861,6503 2891,6539 2924,6549 2958,6518 2985,6457 2989,6395 2977,6374 2970,6376 2971,6390 2962,6438 2954,6493 2957,6538 2996,6560 3104,6522 3194,6461 3216,6421 3222,6416 3221,6421 3216,6446 3203,6482 3193,6516 3196,6536 " style="fill: white; stroke: black; stroke-width: 30" />
<polyline points="-2268,8021 -2280,8014 -2283,8028 -2286,8099 -2285,8210 -2292,8294 -2276,8326 " style="fill: white; stroke: black; stroke-width: 30" />
<polyline points="-2381,8021 -2396,8009 -2406,8002 -2409,7994 -2385,7971 -2312,7930 -2186,7912 -2071,7950 -2019,8015 -2038,8079 -2104,8121 -2175,8134 -2229,8096 -2267,8035 -2270,7992 " style="fill: white; stroke: black; stroke-width: 30" />
<polyline points="-2077,8266 -2033,8240 -1958,8195 -1868,8144 -1804,8095 -1811,8065 -1863,8049 -1969,8078 -2048,8134 -2043,8189 -1963,8246 -1826,8246 -1708,8214 " style="fill: white; stroke: black; stroke-width: 30" />
<polyline points="-1781,8206 -1763,8207 -1696,8195 -1622,8163 -1570,8120 -1563,8092 -1579,8065 -1635,8046 -1705,8069 -1746,8126 -1720,8182 -1671,8216 -1602,8213 -1550,8197 " style="fill: white; stroke: black; stroke-width: 30" />
<polyline points="-1520,8205 -1518,8155 -1507,8093 -1497,8046 -1496,8035 -1495,8038 -1488,8041 -1479,8047 -1458,8048 -1421,8054 -1376,8052 -1344,8048 " style="fill: white; stroke: black; stroke-width: 30" />
<polyline points="-1271,8052 -1275,8068 -1274,8091 -1278,8127 -1286,8171 -1289,8202 -1300,8219 -1302,8210 " style="fill: white; stroke: black; stroke-width: 30" />
<polyline points="-1286,7857 -1281,7845 -1226,7828 -1160,7842 -1114,7876 -1124,7924 -1168,7952 -1223,7953 -1264,7915 -1272,7858 -1254,7810 " style="fill: white; stroke: black; stroke-width: 30" />
<polyline points="-1111,8215 -1132,8219 -1132,8206 -1090,8155 -1038,8082 -988,8055 -957,8068 -939,8126 -962,8199 -965,8224 " style="fill: white; stroke: black; stroke-width: 30" />
<polyline points="-728,8095 -737,8084 -750,8066 -773,8044 -806,8041 -850,8066 -891,8126 -890,8178 -857,8193 -798,8156 -763,8105 -759,8087 -762,8089 -767,8131 -775,8214 -769,8306 -767,8414 -780,8508 -803,8537 -844,8501 -882,8412 -872,8328 -831,8253 " style="fill: white; stroke: black; stroke-width: 30" />
<polyline points="394,7890 375,7882 326,7870 235,7884 125,7941 68,8007 100,8090 184,8158 303,8181 381,8171 " style="fill: white; stroke: black; stroke-width: 30" />
<polyline points="344,8034 339,8036 349,8039 369,8048 374,8057 372,8085 354,8140 344,8193 " style="fill: white; stroke: black; stroke-width: 30" />
<polyline points="503,8151 493,8166 487,8167 488,8159 491,8134 497,8074 508,7991 525,7957 527,7954 531,7965 563,8010 " style="fill: white; stroke: black; stroke-width: 30" />
<polyline points="873,7963 844,7952 828,7943 800,7937 743,7951 681,7996 671,8049 699,8092 765,8109 832,8089 863,8041 857,8005 823,7968 800,7958 792,7958 807,7963 830,7977 849,7996 864,8011 893,8008 914,7988 910,7978 903,7973 906,7983 887,8020 895,8055 914,8070 959,8070 1021,8036 1069,7994 1073,7975 1069,7975 1067,7980 1065,8001 1062,8023 1075,8042 1093,8049 " style="fill: white; stroke: black; stroke-width: 30" />
<polyline points="1232,7899 1223,7904 1226,7932 1221,8004 1222,8088 1221,8181 1227,8248 1234,8302 1238,8330 1237,8324 1245,8272 1249,8187 1256,8061 1272,7956 1307,7884 1355,7859 1430,7863 1468,7908 1457,7953 1395,8010 1332,8040 1305,8042 1286,8009 " style="fill: white; stroke: black; stroke-width: 30" />
<polyline points="-1793,8848 -1799,8850 -1791,8862 -1735,8926 -1614,9069 -1475,9252 -1340,9418 -1211,9560 -1095,9676 -1001,9765 -934,9826 -902,9852 -895,9855 -895,9853 -898,9849 -900,9847 -892,9844 -896,9842 -897,9840 -892,9838 -891,9837 -890,9837 -891,9835 -891,9836 -893,9832 -891,9833 -889,9832 -873,9817 -805,9787 -704,9767 -616,9755 -532,9740 -462,9717 -430,9707 -432,9706 -432,9709 -436,9706 -441,9707 -425,9704 -425,9702 -423,9699 -415,9700 -423,9701 -427,9706 -430,9705 -430,9705 -428,9702 -432,9702 -434,9703 -430,9705 -436,9703 -430,9704 -432,9702 -428,9699 -424,9695 -418,9677 -360,9546 -260,9327 -138,9113 -34,8946 18,8857 35,8819 36,8805 36,8804 33,8805 31,8805 40,8804 36,8805 43,8803 50,8804 53,8802 58,8800 55,8782 " style="fill: white; stroke: black; stroke-width: 30" />
<polyline points="-1638,8852 -1638,8852 -1638,8851 -1634,8850 -1630,8846 -1607,8844 -1526,8832 -1381,8825 -1122,8809 -795,8787 -470,8763 -166,8758 49,8762 184,8774 203,8776 198,8774 188,8770 181,8768 186,8763 186,8762 189,8758 " style="fill: white; stroke: black; stroke-width: 30" />
<polyline points="-774,9925 -768,9916 -762,9910 -762,9915 -753,9923 -739,9958 -707,10001 -675,10058 -647,10098 -631,10116 -622,10133 -621,10150 -623,10155 -619,10154 -623,10151 -633,10148 -634,10143 -638,10138 -628,10131 -613,10103 -577,10050 -532,9985 -487,9927 -457,9896 -457,9887 -442,9881 -443,9877 -445,9874 -450,9867 -443,9868 -445,9870 -441,9876 -443,9877 -445,9876 -436,9869 " style="fill: white; stroke: black; stroke-width: 30" />
<polyline points="-729,9904 -729,9900 -717,9894 -675,9890 -601,9879 -522,9870 -450,9867 -419,9866 -430,9864 -451,9870 -489,9881 -546,9909 -634,9959 -709,9999 -725,10007 -723,10002 -705,9990 -650,9972 -588,9952 -535,9948 -535,9948 -553,9961 -621,9992 -695,10019 -720,10025 -718,10022 -670,10014 -604,9998 -572,9990 -572,9996 -616,10026 -673,10090 -684,10105 -668,10097 -642,10078 -608,10055 -598,10024 -593,9967 -605,9913 -626,9881 -648,9882 -714,9912 -742,9958 -739,9970 -703,9965 -668,9954 -664,9955 -678,9961 -684,9968 -690,9966 -645,9972 -578,9972 " style="fill: white; stroke: black; stroke-width: 30" />
<polyline points="962,8480 950,8476 946,8477 953,8483 997,8487 1086,8481 1195,8459 1278,8448 " style="fill: white; stroke: black; stroke-width: 30" />
<polyline points="1091,8499 1085,8492 1077,8494 1072,8508 1044,8564 1024,8674 1037,8758 1075,8818 1153,8858 1260,8866 1350,8857 1400,8854 1425,8856 1423,8854 1430,8853 1422,8852 1426,8852 1433,8852 1431,8853 1431,8853 1435,8853 1435,8852 1439,8847 " style="fill: white; stroke: black; stroke-width: 30" />
<polyline points="1428,8754 1418,8761 1443,8764 1494,8778 1556,8796 1572,8806 1553,8818 1501,8855 1451,8891 1454,8898 1484,8923 " style="fill: white; stroke: black; stroke-width: 30" />
<polyline points="1858,8716 1854,8713 1842,8730 1813,8780 1799,8836 1789,8881 1788,8905 1782,8904 1790,8878 1823,8777 1858,8658 1930,8552 2002,8502 2033,8512 2042,8558 2002,8644 1942,8704 1886,8724 1847,8704 1846,8689 1851,8673 1878,8660 " style="fill: white; stroke: black; stroke-width: 30" />
<polyline points="2057,8779 2073,8755 2129,8716 2183,8681 2210,8653 2197,8642 2132,8635 2055,8659 2046,8686 2075,8747 2156,8786 2246,8776 " style="fill: white; stroke: black; stroke-width: 30" />
<polyline points="2244,8701 2257,8716 2291,8723 2354,8712 2387,8684 2406,8653 2385,8630 2351,8624 2317,8640 2291,8680 2308,8732 2352,8768 2406,8784 2447,8798 2452,8797 2462,8778 2486,8725 2506,8658 2528,8612 2536,8605 2530,8613 2550,8623 2601,8645 2650,8654 2699,8638 2717,8616 2714,8599 2704,8598 2699,8607 2681,8652 2647,8721 2643,8757 2644,8762 " style="fill: white; stroke: black; stroke-width: 30" />
<polyline points="2730,8426 2715,8419 2718,8418 2729,8416 2767,8432 2788,8475 2770,8528 2750,8549 2732,8543 2711,8505 2716,8462 2723,8415 2729,8422 " style="fill: white; stroke: black; stroke-width: 30" />
<polyline points="2732,8751 2708,8747 2718,8743 2735,8737 2791,8690 2858,8626 2883,8611 2883,8627 2883,8687 2877,8746 " style="fill: white; stroke: black; stroke-width: 30" />
<polyline points="3059,8652 3027,8629 2982,8615 2975,8617 2980,8625 2993,8658 3018,8680 3018,8693 3018,8704 3020,8756 2998,8844 2983,8918 2948,8968 2902,9001 2879,8997 2890,8947 2938,8833 3031,8759 3078,8742 " style="fill: white; stroke: black; stroke-width: 30" />
<polyline points="3556,8516 3564,8495 3549,8473 3473,8460 3330,8478 3204,8533 3172,8592 3225,8669 3327,8734 3457,8751 3527,8742 " style="fill: white; stroke: black; stroke-width: 30" />
<polyline points="3478,8647 3464,8622 3470,8622 3486,8620 3508,8620 3507,8622 3504,8621 3506,8622 3510,8620 3505,8622 3510,8620 3512,8620 3507,8622 3510,8621 3505,8622 3507,8623 3509,8623 3514,8624 3527,8631 3524,8660 3487,8717 3455,8767 3475,8781 " style="fill: white; stroke: black; stroke-width: 30" />
<polyline points="3634,8719 3622,8680 3630,8638 3677,8610 3716,8624 3724,8677 3681,8732 3626,8751 3599,8740 3598,8707 3612,8663 3625,8650 " style="fill: white; stroke: black; stroke-width: 30" />
<polyline points="3755,8818 3728,8764 3738,8702 3757,8653 3809,8600 3854,8578 3873,8577 3882,8590 3904,8619 3963,8642 " style="fill: white; stroke: black; stroke-width: 30" />
<polyline points="4094,8646 4092,8644 4058,8635 4012,8621 3973,8614 3934,8630 3932,8663 3951,8696 3976,8713 4006,8703 4010,8679 3996,8639 3967,8627 3959,8626 3971,8640 4007,8666 4055,8667 " style="fill: white; stroke: black; stroke-width: 30" />
<polyline points="4100,8654 4116,8638 4130,8625 4131,8621 4128,8621 4115,8630 4098,8656 4091,8689 4110,8711 4118,8714 4149,8709 4190,8686 4192,8683 4187,8685 4168,8717 4177,8745 " style="fill: white; stroke: black; stroke-width: 30" />
<polyline points="4365,8613 4337,8629 4297,8686 4244,8779 4195,8861 4160,8916 4133,8941 4133,8946 4139,8929 4193,8836 4294,8689 4366,8596 4373,8583 4382,8591 4400,8627 4392,8668 4363,8686 4313,8687 4274,8670 4277,8664 4296,8664 4355,8670 " style="fill: white; stroke: black; stroke-width: 30" />
<polyline points="4593,8611 4594,8592 4579,8580 4562,8580 4536,8614 4509,8692 4495,8762 4480,8783 4457,8784 4409,8770 4393,8742 4402,8701 " style="fill: white; stroke: black; stroke-width: 30" />
<polyline points="2219,7312 2212,7299 2204,7302 2202,7340 2190,7437 2189,7523 2191,7559 2191,7575 " style="fill: white; stroke: black; stroke-width: 30" />
<polyline points="1931,7371 1931,7353 1953,7333 2010,7320 2102,7313 2194,7314 2288,7310 2368,7294 2411,7273 " style="fill: white; stroke: black; stroke-width: 30" />
<polyline points="1984,7488 1994,7480 2041,7459 2128,7432 2205,7421 2262,7431 " style="fill: white; stroke: black; stroke-width: 30" />
<polyline points="2347,7447 2348,7434 2367,7411 2438,7388 2491,7397 2505,7422 2492,7458 2463,7501 2409,7530 2343,7534 2277,7520 2264,7509 2273,7501 2347,7485 2425,7477 2468,7489 2476,7504 2483,7520 2500,7522 2565,7485 2620,7436 2624,7425 2618,7428 2610,7439 2598,7462 2597,7485 2598,7489 2605,7488 2621,7487 2647,7484 2661,7489 2673,7497 2693,7505 2694,7511 2695,7511 2691,7514 2696,7512 2705,7509 2722,7506 2718,7508 2722,7504 2713,7507 2715,7505 2715,7505 2714,7503 2718,7502 2716,7503 2719,7505 2719,7507 " style="fill: white; stroke: black; stroke-width: 30" />
<polyline points="2898,7431 2897,7424 2881,7429 2866,7448 2843,7497 2836,7531 2837,7542 " style="fill: white; stroke: black; stroke-width: 30" />
<polyline points="2973,7287 2962,7258 2948,7252 2947,7250 2947,7251 2962,7244 " style="fill: white; stroke: black; stroke-width: 30" />
<polyline points="3044,7188 3031,7194 3021,7221 2983,7311 2944,7407 2939,7454 2938,7468 2960,7468 3005,7465 3069,7463 3109,7459 3135,7436 3132,7411 3119,7400 3117,7397 3120,7398 3119,7397 3116,7401 3116,7403 3112,7422 3109,7437 3110,7439 3114,7436 3123,7432 3147,7426 3207,7397 3268,7355 3287,7340 3283,7342 3280,7348 3267,7368 3251,7412 3227,7462 3202,7519 3163,7593 " style="fill: white; stroke: black; stroke-width: 30" />
<polyline points="2425,7619 2429,7613 2427,7615 2414,7631 2381,7668 2369,7716 2382,7749 2413,7779 2447,7806 2460,7818 2459,7818 2457,7819 2462,7819 2455,7823 2463,7820 2459,7823 2463,7820 2471,7819 2507,7815 2571,7807 2614,7798 2620,7798 2627,7797 2629,7799 2628,7799 2629,7804 " style="fill: white; stroke: black; stroke-width: 30" />
<polyline points="2272,7627 2238,7624 2235,7622 2234,7625 2238,7623 2243,7623 2250,7620 2271,7619 2307,7619 2383,7617 2485,7615 2594,7614 " style="fill: white; stroke: black; stroke-width: 30" />
<polyline points="2619,7725 2610,7713 2603,7709 2616,7707 2654,7708 2694,7723 2715,7744 2712,7765 2689,7812 2653,7850 2646,7860 2643,7863 2641,7862 2650,7861 2649,7859 " style="fill: white; stroke: black; stroke-width: 30" />
<polyline points="2871,7716 2864,7715 2844,7742 2822,7842 2808,7939 2810,7986 2809,7993 2817,7980 2835,7923 2861,7831 2882,7775 2913,7738 2961,7708 3013,7699 3038,7707 3033,7723 3006,7751 2937,7802 2864,7844 2845,7860 2844,7857 2855,7853 2871,7854 2905,7864 2968,7874 3026,7882 3070,7870 3103,7840 3102,7810 3075,7790 3043,7793 3033,7805 3029,7841 3047,7886 3061,7903 3087,7915 3144,7905 3212,7872 3271,7830 3305,7785 3298,7743 3276,7714 3267,7704 3264,7707 3254,7723 3236,7778 3227,7836 3234,7890 3241,7922 3246,7941 " style="fill: white; stroke: black; stroke-width: 30" />
<polyline points="3306,7726 3315,7718 3346,7702 3371,7702 3388,7718 3389,7763 3383,7807 3357,7849 3338,7864 3331,7864 3334,7849 3337,7842 3338,7846 3347,7854 3369,7871 3407,7897 3471,7884 " style="fill: white; stroke: black; stroke-width: 30" />
<polyline points="3633,7681 3626,7662 3624,7657 3614,7666 3592,7695 3554,7765 3533,7836 3516,7894 3513,7915 3519,7911 3524,7890 3551,7841 3605,7799 3618,7802 3634,7821 3638,7856 3656,7878 3667,7886 3659,7889 3644,7897 3639,7907 3642,7914 3651,7904 " style="fill: white; stroke: black; stroke-width: 30" />
<polyline points="3682,7762 3673,7717 3674,7691 3691,7667 3703,7655 3727,7639 3734,7634 3742,7636 3733,7647 3760,7687 " style="fill: white; stroke: black; stroke-width: 30" />
<polyline points="3833,7858 3817,7852 3814,7840 3828,7820 3884,7776 3932,7760 3946,7764 3920,7791 3877,7841 3836,7874 3834,7871 3835,7858 3825,7822 3827,7812 3833,7816 " style="fill: white; stroke: black; stroke-width: 30" />
<polyline points="3972,7884 3956,7875 3961,7853 4018,7814 4085,7810 4110,7826 4105,7845 4108,7858 4108,7872 " style="fill: white; stroke: black; stroke-width: 30" />
<polyline points="3096,8016 3078,8018 3078,8018 3082,8018 3076,8024 3078,8049 3068,8100 3063,8160 3079,8178 3096,8178 3106,8148 3116,8075 3139,7988 3160,7946 3186,7929 3217,7942 3253,7982 3262,8015 3237,8028 3182,8025 3118,8002 3102,7996 3110,7994 3131,8006 3189,8021 " style="fill: white; stroke: black; stroke-width: 30" />
<polyline points="3393,8074 3342,8057 3290,8051 3242,8065 3232,8081 3252,8118 3314,8140 3395,8129 3439,8103 3431,8099 3405,8092 3365,8094 3351,8098 3368,8096 3411,8098 3479,8096 3544,8084 3588,8070 3601,8059 3598,8057 3593,8059 3589,8073 3590,8104 3591,8133 3593,8138 3599,8133 " style="fill: white; stroke: black; stroke-width: 30" />
<polyline points="3622,7939 3611,7925 3603,7920 3611,7919 3611,7923 3629,7943 " style="fill: white; stroke: black; stroke-width: 30" />
<polyline points="3872,8099 3879,8084 3850,8069 3810,8063 3777,8074 3754,8101 3746,8141 3744,8164 3738,8169 3740,8166 3735,8155 3726,8147 3725,8141 3722,8148 3722,8143 " style="fill: white; stroke: black; stroke-width: 30" />
<polyline points="3934,8086 3924,8068 3927,8053 3947,8047 3986,8045 4005,8063 4014,8082 3988,8119 3945,8134 3910,8132 3912,8118 3915,8106 3915,8102 3932,8091 3971,8067 " style="fill: white; stroke: black; stroke-width: 30" />
<polyline points="4100,8154 4081,8137 4078,8099 4084,8078 4103,8060 4100,8068 4113,8077 4133,8103 4150,8135 4169,8163 4176,8176 4177,8175 4182,8168 4183,8169 4191,8161 " style="fill: white; stroke: black; stroke-width: 30" />
<polyline points="4247,7958 4225,7954 4217,7951 4221,7950 4220,7954 4228,7968 " style="fill: white; stroke: black; stroke-width: 30" />
<polyline points="4278,8159 4266,8144 4272,8117 4313,8073 4348,8056 4360,8066 4350,8107 4353,8151 4377,8166 " style="fill: white; stroke: black; stroke-width: 30" />
<polyline points="4518,8048 4501,8046 4497,8039 4481,8022 4458,8008 4428,8018 4425,8030 4453,8070 4494,8121 4509,8183 4491,8234 4462,8264 4447,8257 4439,8238 4438,8189 4453,8161 4468,8153 4535,8133 " style="fill: white; stroke: black; stroke-width: 30" />
<polyline points="-2360,9114 -2353,9124 -2349,9124 -2341,9122 -2301,9039 -2258,8919 " style="fill: white; stroke: black; stroke-width: 30" />
<polyline points="-2821,8367 -2820,8365 -2815,8372 -2819,8377 -2821,8395 -2834,8440 -2845,8514 -2857,8600 -2856,8673 " style="fill: white; stroke: black; stroke-width: 30" />
<polyline points="-3009,8995 -2995,9001 -2952,9026 -2957,9038 -3023,9086 -2992,9222 -3036,9305 -3053,9351 -3049,9369 -3056,9360 " style="fill: white; stroke: black; stroke-width: 30" />
<polyline points="-3167,9517 -3149,9508 -3107,9474 -3078,9434 -3062,9417 -3076,9385 " style="fill: white; stroke: black; stroke-width: 30" />
<polyline points="-2600,9994 -2636,10060 -2662,10144 -2651,10242 -2656,10295 -2643,10321 -2645,10321 -2640,10309 " style="fill: white; stroke: black; stroke-width: 30" />
<polyline points="-1866,10508 -1925,10512 -1983,10507 -1973,10511 -1979,10507 -1942,10514 " style="fill: white; stroke: black; stroke-width: 30" />
<polyline points="-3410,9862 -3337,9840 " style="fill: white; stroke: black; stroke-width: 30" />
<polyline points="-3322,9802 -3370,9796 " style="fill: white; stroke: black; stroke-width: 30" />
<polyline points="-3378,9845 -3349,9837 -3281,9821 -3205,9787 -3163,9750 -3134,9731 -3134,9730 -3143,9726 -3140,9729 -3195,9709 -3193,9715 -3201,9734 -3189,9790 -3175,9840 -3193,9878 -3229,9895 -3234,9905 -3256,9866 -3175,9821 -3097,9734 -3032,9638 -2951,9538 -2911,9493 -2937,9496 -2969,9541 -2999,9648 -3027,9752 -3019,9818 -3022,9830 -3023,9810 -3025,9748 -3021,9708 -3029,9692 -3010,9683 -2991,9677 -2969,9672 " style="fill: white; stroke: black; stroke-width: 30" />
<polyline points="-2902,9642 -2898,9600 -2889,9579 -2840,9579 -2809,9615 -2813,9686 -2855,9761 -2908,9807 -2937,9804 -2952,9765 -2943,9726 -2934,9709 -2918,9711 -2879,9741 -2848,9758 -2791,9737 -2727,9692 -2684,9669 -2676,9672 -2699,9665 -2718,9654 -2735,9642 -2777,9638 -2806,9666 -2815,9708 -2807,9752 -2768,9774 -2749,9772 -2736,9778 -2747,9802 -2747,9847 -2764,9912 -2784,9969 -2830,10013 -2867,10033 -2885,10008 -2896,9904 -2856,9821 -2808,9768 -2739,9739 -2673,9705 -2609,9669 -2604,9635 -2618,9611 -2669,9614 -2703,9629 -2699,9636 -2681,9659 -2649,9692 -2594,9700 -2541,9691 " style="fill: white; stroke: black; stroke-width: 30" />
<polyline points="-4075,5427 -4087,5422 -4085,5433 -4088,5464 -4070,5551 -4048,5635 -4038,5681 -4026,5697 -4025,5684 -4022,5636 -4043,5544 -4077,5436 -4097,5368 -4111,5354 -4110,5361 -4108,5388 -4097,5455 -4058,5537 -4002,5582 -3935,5587 -3862,5550 -3820,5498 -3814,5462 -3818,5459 -3825,5465 -3829,5476 -3830,5481 -3824,5504 -3825,5515 -3827,5521 -3823,5522 -3825,5524 -3826,5521 -3825,5524 -3827,5525 -3830,5533 -3834,5566 -3830,5614 -3815,5647 -3784,5676 -3764,5685 " style="fill: white; stroke: black; stroke-width: 30" />
<polyline points="-3725,5637 -3722,5626 -3669,5610 -3611,5562 -3570,5511 -3565,5488 -3593,5475 -3643,5499 -3673,5546 -3686,5598 -3644,5642 -3567,5651 -3486,5601 -3438,5511 -3407,5417 -3394,5354 -3395,5348 -3412,5353 -3427,5378 -3436,5479 -3454,5555 -3445,5594 -3423,5609 -3428,5597 -3447,5538 -3479,5493 -3507,5485 -3503,5497 -3470,5502 -3425,5490 -3405,5472 -3385,5473 -3361,5490 " style="fill: white; stroke: black; stroke-width: 30" />
<polyline points="-3264,5463 -3284,5460 -3282,5455 -3267,5442 -3236,5444 -3207,5477 -3201,5530 -3216,5604 -3256,5644 -3280,5647 -3301,5620 -3312,5597 -3295,5595 -3267,5597 -3226,5593 -3190,5603 -3160,5610 " style="fill: white; stroke: black; stroke-width: 30" />
<polyline points="-3953,5945 -3987,5947 -3992,5946 -3988,5946 -3977,5941 -3961,5937 -3927,5932 -3869,5919 -3780,5886 " style="fill: white; stroke: black; stroke-width: 30" />
<polyline points="-3912,5884 -3936,5897 -3944,5911 -3958,5973 -3966,6035 -3958,6065 -3931,6086 -3882,6102 -3842,6107 -3810,6109 -3766,6104 -3729,6072 " style="fill: white; stroke: black; stroke-width: 30" />
<polyline points="-3790,5990 -3794,5991 -3802,5985 -3792,5990 -3766,5999 -3725,6024 -3696,6040 -3690,6062 -3695,6100 -3717,6145 -3723,6152 -3725,6147 -3725,6140 -3709,6113 " style="fill: white; stroke: black; stroke-width: 30" />
<polyline points="-3506,6164 -3499,6168 -3479,6156 -3440,6126 -3387,6059 -3344,5975 -3325,5926 -3325,5905 -3328,5904 -3325,5914 -3327,5949 -3309,6015 -3283,6068 -3256,6106 -3250,6118 -3279,6119 " style="fill: white; stroke: black; stroke-width: 30" />
<polyline points="-3432,6062 -3496,6019 -3501,6005 -3481,5988 -3428,5973 -3355,5980 -3293,5999 -3265,6036 -3261,6096 -3260,6121 -3249,6121 -3234,6097 -3211,6047 -3193,6021 -3192,6019 -3188,6027 -3171,6058 -3153,6084 -3134,6086 " style="fill: white; stroke: black; stroke-width: 30" />
<polyline points="-2974,5965 -3015,5962 -3032,5964 -3025,5977 -3012,6041 -2992,6097 -2992,6124 -2995,6127 -3014,6106 -3021,6085 -3011,6075 -2985,6064 -2936,6046 -2900,6022 -2885,5996 -2899,5987 -2938,6000 -2956,6040 -2939,6090 -2878,6118 -2784,6076 -2697,5978 -2655,5854 -2662,5781 -2690,5784 -2721,5826 -2745,5954 -2754,6069 -2731,6114 -2718,6118 -2687,6092 -2650,6077 -2625,6079 -2621,6093 -2608,6108 -2567,6102 -2528,6062 -2515,6032 -2526,6025 -2543,6029 -2582,6052 -2606,6091 -2602,6104 -2559,6091 -2494,6047 -2444,6036 -2419,6054 -2414,6077 -2404,6093 -2402,6102 -2405,6105 " style="fill: white; stroke: black; stroke-width: 30" />
<polyline points="-3325,6471 -3340,6463 -3356,6463 -3370,6466 -3369,6469 -3367,6468 -3342,6455 -3284,6435 -3208,6418 -3118,6398 " style="fill: white; stroke: black; stroke-width: 30" />
<polyline points="-3288,6439 -3303,6439 -3304,6445 -3304,6480 -3311,6589 -3325,6691 -3319,6740 -3303,6751 -3261,6751 -3195,6741 -3147,6733 -3108,6726 -3077,6717 -3065,6709 " style="fill: white; stroke: black; stroke-width: 30" />
<polyline points="-3157,6653 -3156,6647 -3130,6643 -3081,6654 -3016,6681 -2976,6706 -2973,6722 -2986,6742 -3019,6757 -3024,6761 -3026,6757 -3006,6754 " style="fill: white; stroke: black; stroke-width: 30" />
<polyline points="-2695,6614 -2697,6654 -2701,6701 -2708,6741 -2699,6771 -2686,6779 -2669,6735 " style="fill: white; stroke: black; stroke-width: 30" />
<polyline points="-2736,6559 -2753,6511 -2742,6450 -2724,6422 -2684,6417 -2640,6454 -2625,6504 -2628,6534 -2661,6538 -2712,6525 -2719,6515 -2719,6503 -2686,6484 " style="fill: white; stroke: black; stroke-width: 30" />
<polyline points="-2560,6727 -2569,6726 -2569,6736 -2567,6777 -2552,6805 -2551,6805 -2545,6789 -2518,6743 -2482,6709 -2466,6710 -2462,6729 -2454,6750 -2441,6748 -2415,6728 -2393,6716 -2388,6723 -2385,6738 -2371,6744 -2325,6704 " style="fill: white; stroke: black; stroke-width: 30" />
<polyline points="-2271,6679 -2289,6698 -2296,6739 -2284,6822 -2279,6885 -2280,6928 -2285,6959 -2289,6967 -2294,6956 -2287,6879 -2268,6729 -2231,6647 -2202,6622 -2166,6629 -2147,6675 -2152,6734 -2171,6763 -2217,6761 -2256,6739 -2269,6733 -2258,6735 -2233,6747 -2189,6739 -2133,6701 -2070,6631 -1988,6550 -1940,6508 -1935,6500 -1943,6494 -1957,6498 -1993,6516 -2039,6557 -2063,6595 -2063,6617 -2046,6658 -2008,6715 -1978,6756 -1928,6758 -1870,6700 -1837,6657 -1840,6647 -1846,6662 -1859,6704 -1870,6748 -1862,6757 -1860,6748 " style="fill: white; stroke: black; stroke-width: 30" />
<polyline points="-1813,6524 -1813,6498 -1820,6493 -1827,6493 -1825,6493 -1822,6491 " style="fill: white; stroke: black; stroke-width: 30" />
<polyline points="-1662,6420 -1687,6434 -1703,6482 -1713,6581 -1731,6676 -1738,6739 -1740,6765 -1720,6769 " style="fill: white; stroke: black; stroke-width: 30" />
<polyline points="-1581,6629 -1629,6647 -1682,6660 -1740,6674 -1773,6687 -1773,6697 -1737,6728 -1679,6752 -1630,6752 -1578,6729 " style="fill: white; stroke: black; stroke-width: 30" />
<polyline points="-1537,6660 -1553,6634 -1545,6604 -1515,6595 -1478,6613 -1478,6665 -1511,6723 -1547,6761 -1576,6765 -1587,6746 -1585,6714 -1578,6707 -1571,6710 -1538,6730 -1485,6722 -1398,6665 -1309,6567 -1244,6456 -1251,6423 -1265,6430 -1286,6472 -1321,6579 -1336,6644 -1332,6673 -1336,6671 -1336,6666 -1334,6654 -1327,6639 -1298,6614 -1270,6594 -1263,6592 -1269,6609 -1272,6664 -1272,6716 -1264,6728 -1265,6721 -1270,6697 -1270,6651 " style="fill: white; stroke: black; stroke-width: 30" />
<polyline points="-1255,6517 -1254,6492 -1228,6470 -1194,6448 -1174,6442 -1162,6454 -1167,6480 -1186,6515 -1196,6527 -1200,6518 -1202,6494 -1213,6457 -1213,6445 " style="fill: white; stroke: black; stroke-width: 30" />
<polyline points="-1177,6725 -1198,6707 -1193,6661 -1144,6603 -1077,6581 -1031,6598 -1027,6641 -1064,6700 -1115,6729 -1155,6722 -1170,6698 -1173,6663 -1159,6618 " style="fill: white; stroke: black; stroke-width: 30" />
<polyline points="-969,6686 -986,6669 -972,6644 -921,6610 -871,6609 -865,6621 -871,6636 -871,6641 -860,6642 " style="fill: white; stroke: black; stroke-width: 30" />
<polyline points="-2687,6965 -2697,6967 -2707,6961 -2697,6961 -2675,6959 -2637,6965 -2574,6972 " style="fill: white; stroke: black; stroke-width: 30" />
<polyline points="-2624,7064 -2628,7061 -2631,7072 -2637,7145 -2637,7239 -2621,7277 -2596,7284 -2554,7281 -2517,7270 -2496,7274 -2469,7282 -2440,7282 -2412,7271 " style="fill: white; stroke: black; stroke-width: 30" />
<polyline points="-2489,7151 -2476,7151 -2447,7151 -2389,7159 -2333,7171 -2290,7196 -2292,7212 -2324,7263 -2374,7308 -2390,7323 -2393,7320 -2388,7316 -2379,7313 " style="fill: white; stroke: black; stroke-width: 30" />
<polyline points="-1986,7060 -1995,7050 -1996,7064 -1992,7134 -2000,7250 -1995,7332 -1978,7354 -1946,7327 -1929,7247 -1963,7183 -2024,7120 -2071,7091 -2075,7063 -2007,7030 -1899,7027 -1847,7055 -1849,7084 -1915,7146 -1991,7197 -2010,7212 -1971,7222 -1877,7229 -1804,7212 -1762,7198 -1748,7177 -1743,7145 -1749,7131 -1749,7133 -1761,7137 -1772,7147 -1779,7164 -1791,7195 -1783,7219 -1768,7226 -1733,7215 -1684,7188 -1667,7180 -1671,7190 -1676,7212 -1663,7233 -1623,7214 " style="fill: white; stroke: black; stroke-width: 30" />
<polyline points="-1431,7116 -1421,7092 -1401,7051 -1408,7004 -1430,6963 -1473,6953 -1504,6966 -1514,7017 -1508,7150 -1488,7297 -1469,7375 -1462,7399 -1469,7381 -1493,7305 -1507,7236 -1505,7227 -1495,7230 -1458,7239 -1417,7226 -1382,7202 -1356,7173 -1345,7171 -1347,7173 -1351,7174 -1350,7173 -1344,7174 -1350,7175 -1348,7177 -1344,7179 -1347,7184 -1344,7187 -1344,7188 -1333,7185 -1316,7177 -1306,7169 -1307,7169 -1304,7168 -1300,7165 -1288,7156 -1283,7160 -1275,7170 -1272,7198 -1268,7214 -1261,7224 -1246,7221 -1210,7205 -1188,7201 -1181,7212 -1180,7232 " style="fill: white; stroke: black; stroke-width: 30" />
<polyline points="-1031,7153 -1033,7156 -1024,7151 -1021,7141 -1027,7126 -1055,7117 -1100,7135 -1123,7173 -1119,7207 -1095,7215 -1044,7184 -1016,7147 -1026,7127 -1045,7124 -1058,7129 -1048,7144 -1003,7174 -952,7192 -927,7198 -928,7195 -932,7158 -923,7121 -899,7083 -857,7057 -830,7052 -811,7060 -786,7075 " style="fill: white; stroke: black; stroke-width: 30" />
<polyline points="-721,7065 -724,7065 -733,7064 -763,7074 -820,7105 -849,7140 -842,7162 -797,7175 -720,7116 -655,7029 -637,6957 -652,6929 -670,6926 -672,6939 -674,6962 -660,7017 -643,7073 -627,7148 -608,7211 " style="fill: white; stroke: black; stroke-width: 30" />
<polyline points="2794,3212 2788,3204 2778,3202 2767,3210 2755,3263 2748,3349 2746,3406 2752,3439 2755,3445 2765,3422 2781,3348 2777,3267 2766,3211 2746,3188 2726,3176 2723,3173 2726,3170 2749,3160 2791,3153 2857,3170 2902,3209 2920,3241 2913,3253 2872,3273 2817,3284 2803,3288 2819,3296 2871,3337 2893,3370 2879,3388 2843,3392 2801,3385 2786,3370 2783,3370 2784,3372 2792,3375 2807,3375 2858,3351 2931,3314 2999,3284 3034,3271 3036,3276 3025,3303 3014,3347 3011,3388 3010,3412 3010,3412 3015,3407 " style="fill: white; stroke: black; stroke-width: 30" />
<polyline points="3070,3207 3049,3195 3043,3190 3045,3190 3047,3188 3048,3189 " style="fill: white; stroke: black; stroke-width: 30" />
<polyline points="3243,3284 3204,3255 3142,3224 3063,3221 3007,3248 3023,3306 3089,3333 3190,3317 3234,3287 3229,3284 3219,3290 3203,3340 3206,3424 3223,3467 3220,3487 3206,3496 3178,3494 3148,3474 3134,3438 3132,3418 3133,3397 " style="fill: white; stroke: black; stroke-width: 30" />
<polyline points="3684,3067 3673,3065 3654,3077 3623,3151 3591,3264 3604,3347 3636,3381 3670,3378 3674,3330 3635,3254 3578,3159 3539,3080 3524,3041 3527,3030 3543,3025 3599,3033 3670,3095 3724,3177 3741,3249 3724,3315 3685,3352 3645,3364 3589,3339 3541,3270 3502,3221 3489,3207 3494,3208 " style="fill: white; stroke: black; stroke-width: 30" />
<polyline points="3785,3247 3795,3224 3818,3197 3838,3183 3853,3176 3864,3184 3874,3204 3875,3243 3856,3286 3796,3335 3737,3353 3718,3341 3716,3329 3735,3321 3762,3319 3796,3324 3839,3312 3893,3283 " style="fill: white; stroke: black; stroke-width: 30" />
<polyline points="4052,3108 4054,3095 4050,3088 4035,3097 3995,3149 3960,3220 3939,3279 3937,3312 3940,3311 3938,3310 3943,3301 3965,3282 3988,3261 3988,3261 3986,3265 3974,3280 " style="fill: white; stroke: black; stroke-width: 30" />
<polyline points="4113,3203 4104,3184 4105,3177 4122,3178 4132,3193 4134,3213 4118,3239 4083,3278 4041,3310 4022,3317 4023,3312 4033,3305 4047,3301 4061,3301 4068,3303 4073,3309 4082,3309 4098,3326 " style="fill: white; stroke: black; stroke-width: 30" />
<polyline points="2853,3580 2837,3582 2824,3621 2806,3709 2780,3806 2777,3852 2787,3859 2802,3843 2806,3786 2805,3722 2792,3688 2773,3671 2756,3653 2750,3628 2742,3588 2731,3574 2726,3569 2727,3569 2728,3569 2728,3572 2729,3569 2728,3569 2725,3568 2724,3570 2722,3569 2724,3567 2722,3565 2723,3564 2724,3561 2722,3562 2723,3559 2723,3560 2723,3557 2726,3554 2740,3548 2803,3541 2892,3559 2962,3587 2983,3601 2953,3621 2886,3639 2838,3654 2828,3661 2841,3687 2874,3737 2896,3784 2891,3815 2859,3842 2824,3852 2809,3849 2795,3832 2786,3815 2787,3813 2794,3815 " style="fill: white; stroke: black; stroke-width: 30" />
<polyline points="3085,3759 3060,3777 3023,3824 3011,3865 3021,3879 3041,3867 3055,3829 3047,3779 3028,3737 3028,3733 3031,3733 3045,3729 3067,3722 3122,3699 3165,3689 3189,3704 3207,3733 " style="fill: white; stroke: black; stroke-width: 30" />
<polyline points="3357,3667 3342,3661 3333,3658 3337,3662 3354,3679 3367,3720 3366,3753 3347,3788 3311,3814 3264,3831 3232,3830 3232,3814 3239,3780 3268,3739 3294,3715 3301,3719 3310,3734 3330,3767 3371,3781 3434,3766 3483,3740 3489,3737 3477,3741 3461,3763 3445,3798 3443,3827 3452,3829 " style="fill: white; stroke: black; stroke-width: 30" />
<polyline points="3549,3607 3530,3574 3492,3562 3486,3561 3498,3564 3531,3605 " style="fill: white; stroke: black; stroke-width: 30" />
<polyline points="3573,3823 3565,3816 3591,3771 3645,3718 3675,3706 3679,3713 3656,3766 3638,3812 " style="fill: white; stroke: black; stroke-width: 30" />
<polyline points="4152,3674 4138,3669 4108,3652 4050,3639 3987,3641 3976,3648 3987,3675 4010,3729 4012,3773 3989,3792 3957,3794 3941,3782 3934,3771 3958,3763 4017,3747 4092,3728 4153,3697 4173,3678 4166,3678 4150,3688 4138,3699 4120,3731 4116,3757 4127,3767 4176,3761 4244,3730 4260,3712 4247,3718 4212,3741 4170,3786 4138,3846 4139,3882 " style="fill: white; stroke: black; stroke-width: 30" />
<polyline points="4341,3716 4332,3719 4328,3722 4330,3720 4329,3717 4347,3701 4380,3676 4409,3666 4421,3670 4422,3689 4410,3711 4413,3714 4433,3705 4477,3701 4485,3709 4464,3739 4462,3751 " style="fill: white; stroke: black; stroke-width: 30" />
<polyline points="4643,3641 4653,3620 4669,3596 4678,3590 4667,3595 4641,3618 4624,3633 4623,3642 4622,3646 4625,3646 4625,3641 4620,3642 4614,3639 4606,3645 4610,3640 4613,3640 4615,3635 4610,3636 4597,3633 4560,3662 4554,3691 4586,3732 4641,3758 4691,3780 " style="fill: white; stroke: black; stroke-width: 30" />
<polyline points="-3439,2633 -3443,2630 -3447,2623 -3444,2626 -3419,2629 -3358,2630 -3272,2623 -3188,2619 -3100,2629 -3007,2646 -2867,2650 -2672,2622 -2455,2591 -2270,2579 -2107,2593 -1939,2617 -1743,2618 -1515,2600 -1295,2576 -1096,2567 -948,2559 -840,2571 -725,2577 -587,2575 -453,2562 -335,2549 -266,2549 -251,2551 -243,2551 -235,2552 -233,2551 -236,2554 -244,2558 " style="fill: white; stroke: black; stroke-width: 30" />
<polyline points="-4160,1390 -4163,1386 -4168,1375 -4170,1381 -4166,1404 -4176,1436 -4178,1526 -4202,1657 -4211,1743 -4206,1787 -4192,1798 " style="fill: white; stroke: black; stroke-width: 30" />
<polyline points="-4473,1477 -4487,1410 -4467,1375 -4408,1329 -4260,1286 -4060,1278 -3900,1352 -3822,1468 -3847,1575 -3942,1685 -4032,1744 -4084,1753 -4128,1742 -4185,1717 -4247,1688 -4292,1671 -4292,1654 " style="fill: white; stroke: black; stroke-width: 30" />
<polyline points="-3862,1701 -3856,1700 -3788,1671 -3631,1588 -3492,1507 -3431,1437 -3442,1383 -3498,1345 -3547,1344 -3578,1379 -3607,1456 -3623,1543 -3616,1619 -3588,1679 -3541,1701 -3477,1683 " style="fill: white; stroke: black; stroke-width: 30" />
<polyline points="-3267,1374 -3339,1395 -3388,1411 -3392,1439 -3365,1514 -3328,1603 -3289,1667 -3245,1679 -3191,1651 -3118,1571 -3043,1465 -3015,1381 -3024,1341 -3053,1327 -3066,1337 -3078,1396 -3055,1484 -3004,1547 -2936,1577 -2879,1571 -2824,1543 -2766,1479 -2720,1374 -2709,1281 -2730,1252 -2752,1256 -2792,1313 -2827,1427 -2839,1539 -2840,1637 -2828,1695 -2795,1688 -2693,1600 -2538,1427 -2375,1205 -2305,1058 -2336,1001 -2374,985 -2384,981 -2400,997 -2432,1068 -2493,1245 -2545,1472 -2532,1667 -2447,1758 " style="fill: white; stroke: black; stroke-width: 30" />
<polyline points="-2399,1440 -2401,1413 -2399,1401 -2405,1403 -2411,1420 -2453,1498 -2487,1571 -2479,1586 -2427,1594 -2339,1591 -2245,1575 -2177,1549 -2144,1511 -2154,1475 -2195,1440 -2227,1428 -2230,1423 -2226,1425 -2210,1426 -2186,1429 -2154,1414 -2134,1398 -2131,1397 -2127,1403 -2103,1412 -2085,1419 -2077,1425 -2075,1447 -2079,1504 -2089,1611 -2093,1722 -2099,1807 -2102,1836 -2107,1831 -2123,1786 -2141,1674 -2148,1535 -2133,1412 -2078,1337 -1998,1316 -1919,1345 -1881,1405 -1915,1437 -2015,1460 -2103,1468 -2108,1469 -2055,1456 -1940,1417 " style="fill: white; stroke: black; stroke-width: 30" />

</svg>