<?xml version="1.0" standalone="no"?>
<!DOCTYPE svg PUBLIC "-//W3C//DTD SVG 1.1//EN" "http://www.w3.org/Graphics/SVG/1.1/DTD/svg11.dtd">
<svg width="210mm" height="297mm" viewBox="-7000 500 14000 20000" version="1.1" xmlns="http://www.w3.org/2000/svg">

<polyline points="-2256,1479 -2261,1446 -2270,1424 -2301,1387 -2370,1376 -2459,1401 -2555,1475 -2585,1527 -2557,1577 -2473,1630 -2342,1660 -2239,1656 " style="fill: white; stroke: black; stroke-width: 30" />
<polyline points="-2079,1532 -2084,1535 -2083,1542 -2083,1557 -2088,1597 -2097,1658 -2099,1696 -2090,1703 " style="fill: white; stroke: black; stroke-width: 30" />
<polyline points="-2017,1354 -2036,1363 -2046,1375 -2053,1392 -2057,1416 -2064,1464 -2068,1525 -2074,1592 -2079,1659 -2077,1690 -2059,1687 " style="fill: white; stroke: black; stroke-width: 30" />
<polyline points="-2085,1618 -2083,1604 -2061,1572 -2028,1530 -1990,1507 -1956,1518 -1923,1577 -1908,1653 -1908,1703 -1908,1712 -1887,1678 " style="fill: white; stroke: black; stroke-width: 30" />
<polyline points="-1785,1512 -1794,1529 -1789,1544 -1777,1560 -1774,1573 -1781,1606 -1795,1661 -1797,1698 -1778,1710 " style="fill: white; stroke: black; stroke-width: 30" />
<polyline points="-1799,1380 -1808,1325 -1792,1298 -1756,1297 -1720,1322 -1703,1374 -1722,1419 -1757,1448 -1781,1443 -1797,1408 -1795,1360 -1765,1301 " style="fill: white; stroke: black; stroke-width: 30" />
<polyline points="-1686,1612 -1705,1630 -1707,1662 -1690,1676 -1659,1662 -1628,1618 -1599,1574 -1570,1561 -1553,1573 -1545,1616 -1546,1648 -1547,1663 " style="fill: white; stroke: black; stroke-width: 30" />
<polyline points="-1473,1646 -1462,1613 -1416,1562 -1351,1527 -1303,1523 -1274,1543 -1274,1579 -1305,1631 -1356,1678 -1415,1700 -1444,1691 -1450,1668 -1434,1646 -1410,1641 -1355,1644 -1315,1658 -1281,1675 " style="fill: white; stroke: black; stroke-width: 30" />
<polyline points="235,1609 237,1594 203,1571 122,1566 1,1611 -99,1711 -111,1793 -50,1855 71,1861 188,1810 249,1741 261,1682 246,1631 233,1615 212,1603 206,1609 205,1614 203,1620 203,1622 208,1626 224,1632 253,1638 296,1620 330,1596 339,1577 337,1568 334,1567 333,1568 329,1579 307,1637 286,1719 288,1776 301,1810 314,1812 325,1787 319,1751 302,1683 285,1608 277,1515 290,1449 303,1431 343,1440 400,1482 435,1543 437,1595 412,1628 364,1640 308,1636 301,1630 316,1631 376,1641 428,1683 428,1743 387,1810 339,1839 305,1842 293,1817 293,1747 336,1675 " style="fill: white; stroke: black; stroke-width: 30" />
<polyline points="544,1515 527,1509 536,1508 583,1515 637,1515 677,1516 684,1515 683,1515 675,1515 655,1519 635,1521 614,1528 586,1554 532,1620 475,1707 456,1765 475,1794 518,1810 563,1800 591,1790 601,1780 626,1768 668,1755 " style="fill: white; stroke: black; stroke-width: 30" />
<polyline points="556,1653 530,1653 543,1654 594,1666 654,1671 707,1673 742,1669 " style="fill: white; stroke: black; stroke-width: 30" />
<polyline points="908,1604 895,1590 888,1587 875,1595 854,1622 852,1665 875,1686 930,1694 1002,1666 1077,1624 1101,1606 1095,1613 1053,1648 988,1730 964,1794 981,1831 " style="fill: white; stroke: black; stroke-width: 30" />
<polyline points="1312,1464 1306,1444 1306,1419 1318,1401 1339,1393 1372,1398 1383,1415 1367,1457 1312,1513 1273,1552 1270,1556 1282,1553 1310,1550 1358,1554 1395,1558 " style="fill: white; stroke: black; stroke-width: 30" />
<polyline points="-2493,2207 -2494,2203 -2492,2208 -2486,2241 -2485,2330 -2494,2421 -2496,2462 -2497,2462 -2489,2404 -2495,2316 -2508,2231 -2506,2157 -2490,2124 -2453,2111 -2417,2125 -2397,2161 -2396,2209 -2423,2258 -2473,2313 -2515,2362 -2517,2380 -2505,2397 -2481,2407 -2434,2415 -2383,2417 -2326,2411 " style="fill: white; stroke: black; stroke-width: 30" />
<polyline points="-2252,2220 -2251,2208 -2248,2192 -2249,2186 -2249,2184 -2254,2186 -2256,2189 -2261,2192 -2263,2198 -2268,2226 -2271,2299 -2260,2365 -2235,2404 -2202,2419 -2158,2401 -2109,2330 -2076,2247 -2064,2186 -2066,2171 -2072,2171 -2071,2173 -2071,2183 -2071,2194 -2083,2256 -2087,2321 -2087,2387 -2081,2447 -2070,2456 " style="fill: white; stroke: black; stroke-width: 30" />
<polyline points="-2476,2932 -2483,2924 -2486,2919 -2488,2923 -2494,2929 -2509,2954 -2521,3009 -2522,3078 -2501,3112 -2453,3135 -2384,3118 -2299,3063 -2236,2990 -2210,2947 -2208,2940 -2210,2939 -2211,2940 -2215,2946 -2217,2960 -2227,3006 -2227,3069 -2209,3110 -2159,3111 " style="fill: white; stroke: black; stroke-width: 30" />
<polyline points="-1974,2868 -2007,2867 -2040,2875 -2071,2893 -2082,2920 -2067,2972 -2027,3040 -1995,3101 -1988,3149 -2009,3183 -2032,3190 -2061,3184 -2092,3166 -2101,3153 -2102,3127 " style="fill: white; stroke: black; stroke-width: 30" />
<polyline points="-1358,3118 -1371,3117 -1378,3116 -1375,3121 -1375,3123 -1375,3128 -1373,3132 -1353,3136 -1297,3141 -1201,3139 -1105,3139 " style="fill: white; stroke: black; stroke-width: 30" />
<polyline points="-1050,3031 -1051,3035 -1035,3045 -979,3082 -925,3121 -904,3148 -915,3161 -950,3183 -981,3205 -989,3216 -987,3213 -970,3208 " style="fill: white; stroke: black; stroke-width: 30" />
<polyline points="-522,3044 -542,3035 -546,3040 -555,3079 -569,3170 -569,3240 -562,3270 -555,3270 -549,3246 -537,3182 -521,3096 -497,3021 -481,2979 -482,2978 -483,2984 -497,3020 -514,3093 -500,3146 -451,3178 -350,3181 -247,3126 -198,3080 -199,3074 -208,3083 -224,3108 -240,3167 -234,3231 -207,3267 " style="fill: white; stroke: black; stroke-width: 30" />
<polyline points="-93,3106 -102,3097 -98,3094 -82,3112 -53,3157 -47,3218 -73,3271 -117,3302 -163,3303 -186,3284 -186,3251 -163,3225 -120,3209 -71,3206 -35,3220 -3,3238 31,3254 57,3261 67,3260 70,3257 70,3246 71,3234 75,3217 80,3205 82,3200 80,3202 78,3203 77,3211 71,3228 66,3259 67,3286 72,3296 86,3292 " style="fill: white; stroke: black; stroke-width: 30" />
<polyline points="86,3010 88,2983 99,2975 126,2982 169,3019 183,3072 165,3103 131,3113 103,3093 88,3051 102,2974 " style="fill: white; stroke: black; stroke-width: 30" />
<polyline points="179,3354 177,3339 190,3304 229,3256 276,3222 320,3220 340,3241 339,3279 330,3298 332,3301 351,3297 " style="fill: white; stroke: black; stroke-width: 30" />
<polyline points="555,3212 543,3186 534,3167 522,3164 516,3168 509,3204 507,3245 499,3276 479,3290 455,3294 439,3275 436,3262 455,3229 518,3199 " style="fill: white; stroke: black; stroke-width: 30" />
<polyline points="724,3018 725,3005 714,3007 689,3043 649,3132 619,3223 607,3272 609,3284 609,3275 613,3261 622,3236 633,3223 645,3216 652,3215 653,3219 666,3230 706,3238 747,3234 761,3223 757,3219 749,3215 747,3217 749,3216 748,3222 747,3230 748,3234 752,3226 764,3212 784,3186 797,3173 801,3171 803,3175 809,3176 821,3185 860,3208 915,3234 966,3244 996,3240 1004,3229 1008,3217 1009,3212 1008,3213 1008,3212 1009,3211 1008,3203 1000,3186 982,3167 964,3170 954,3190 955,3228 980,3261 1018,3284 1067,3292 " style="fill: white; stroke: black; stroke-width: 30" />
<polyline points="1151,3150 1136,3141 1138,3130 1150,3124 1182,3125 1218,3154 1237,3208 1225,3263 1195,3297 1157,3309 1131,3288 1128,3259 1138,3234 1153,3232 1182,3239 1247,3262 1322,3276 1386,3280 1414,3272 1422,3264 1409,3257 1403,3253 1396,3250 1388,3255 1381,3262 1383,3265 1387,3261 1396,3260 1404,3259 1417,3264 1419,3268 1424,3273 1437,3279 1466,3281 1488,3281 1504,3283 1518,3285 1533,3295 1536,3308 1540,3326 1541,3332 1558,3336 " style="fill: white; stroke: black; stroke-width: 30" />
<polyline points="-403,3488 -412,3476 -414,3466 -416,3463 -418,3460 -417,3461 -416,3459 -416,3459 -412,3456 -408,3456 -382,3456 -330,3459 -254,3463 " style="fill: white; stroke: black; stroke-width: 30" />
<polyline points="-357,3489 -350,3474 -354,3475 -371,3497 -404,3572 -416,3645 -407,3675 -368,3700 -319,3705 -261,3704 -210,3693 -161,3684 -141,3677 -145,3681 -152,3683 -156,3687 -156,3687 -157,3689 -155,3688 -155,3688 -155,3688 -154,3687 " style="fill: white; stroke: black; stroke-width: 30" />
<polyline points="-82,3581 -78,3581 -63,3587 -31,3611 -13,3628 -10,3639 -13,3644 -29,3665 -56,3701 -75,3721 -81,3724 -81,3724 -80,3721 -78,3724 " style="fill: white; stroke: black; stroke-width: 30" />
<polyline points="418,3531 416,3532 398,3564 368,3661 355,3737 366,3787 386,3805 404,3780 " style="fill: white; stroke: black; stroke-width: 30" />
<polyline points="292,3546 255,3502 249,3480 252,3479 279,3480 338,3493 425,3522 520,3541 599,3540 636,3538 641,3535 637,3535 634,3532 633,3531 632,3529 633,3530 631,3531 625,3553 605,3622 597,3682 " style="fill: white; stroke: black; stroke-width: 30" />
<polyline points="673,3361 671,3357 676,3354 690,3353 713,3353 741,3363 756,3380 751,3399 725,3418 693,3424 677,3415 676,3406 676,3399 678,3397 689,3390 " style="fill: white; stroke: black; stroke-width: 30" />
<polyline points="581,3630 579,3623 580,3618 581,3617 581,3618 581,3633 577,3676 583,3733 602,3772 " style="fill: white; stroke: black; stroke-width: 30" />
<polyline points="701,3704 696,3716 693,3723 694,3721 699,3709 710,3693 727,3662 757,3638 791,3625 812,3635 820,3655 820,3677 816,3696 816,3705 821,3709 827,3709 841,3703 854,3702 859,3704 867,3711 885,3730 902,3746 918,3752 " style="fill: white; stroke: black; stroke-width: 30" />
<polyline points="1012,3672 1021,3673 1050,3674 1095,3671 1117,3659 1123,3643 1108,3620 1053,3617 1001,3639 989,3683 1008,3730 1059,3773 1127,3785 " style="fill: white; stroke: black; stroke-width: 30" />
<polyline points="1386,3609 1360,3593 1322,3585 1298,3598 1276,3646 1282,3712 1296,3779 1299,3823 1297,3833 1287,3829 1270,3803 1251,3766 " style="fill: white; stroke: black; stroke-width: 30" />
<polyline points="2217,3671 2207,3643 2187,3616 2142,3596 2060,3603 1972,3648 1929,3694 1939,3730 1982,3781 2069,3825 2178,3836 2285,3802 2363,3741 2397,3694 2405,3669 2400,3662 2396,3662 2390,3672 2348,3730 2314,3803 2298,3852 2307,3867 2329,3869 2388,3842 2427,3826 2432,3834 2429,3861 2429,3894 2431,3912 2446,3916 2485,3892 2523,3850 2535,3824 2561,3794 2596,3762 2618,3750 2611,3758 2587,3801 2558,3851 2545,3891 2544,3901 2554,3892 2581,3832 " style="fill: white; stroke: black; stroke-width: 30" />
<polyline points="2640,3616 2670,3541 2674,3519 2672,3519 2675,3519 2680,3530 2691,3567 2691,3617 2677,3653 2669,3661 2656,3653 2645,3630 2635,3602 2639,3575 2652,3559 2708,3537 " style="fill: white; stroke: black; stroke-width: 30" />
<polyline points="2702,3863 2712,3875 2710,3881 2702,3894 2700,3896 2706,3893 2738,3867 2808,3819 2849,3794 2862,3796 2862,3816 2856,3859 2853,3889 2862,3898 2892,3885 2939,3845 " style="fill: white; stroke: black; stroke-width: 30" />
<polyline points="3069,3698 3081,3673 3081,3669 3081,3688 3088,3724 3087,3768 3070,3809 3032,3856 3003,3880 2996,3883 2981,3869 2969,3844 2973,3818 2995,3797 3028,3796 3071,3817 3114,3853 3177,3893 " style="fill: white; stroke: black; stroke-width: 30" />
<polyline points="-429,4049 -435,4047 -443,4045 -442,4043 -442,4040 -438,4039 -413,4033 -354,4025 -292,4022 -249,4025 -225,4027 -215,4030 " style="fill: white; stroke: black; stroke-width: 30" />
<polyline points="-326,4038 -324,4039 -323,4038 -326,4042 -338,4070 -365,4169 -385,4256 -382,4303 -369,4328 -343,4348 -314,4357 -269,4356 -210,4345 -176,4342 -153,4340 -146,4341 -147,4341 -148,4341 -149,4339 -152,4341 -152,4339 -154,4338 " style="fill: white; stroke: black; stroke-width: 30" />
<polyline points="-161,4266 -161,4266 -153,4263 -129,4261 -88,4260 -58,4271 -45,4284 -38,4306 -39,4329 -44,4348 -48,4351 -59,4364 -80,4380 -91,4387 -94,4386 -93,4384 -92,4380 -89,4380 -80,4381 " style="fill: white; stroke: black; stroke-width: 30" />
<polyline points="337,4258 333,4256 330,4255 332,4255 333,4253 333,4254 332,4252 332,4252 330,4250 331,4251 328,4251 330,4254 329,4253 328,4255 326,4254 327,4256 325,4256 325,4256 326,4254 325,4254 323,4252 325,4253 322,4251 324,4252 323,4254 322,4264 318,4351 319,4441 328,4481 340,4509 348,4498 " style="fill: white; stroke: black; stroke-width: 30" />
<polyline points="244,4177 238,4166 254,4156 310,4148 399,4163 476,4208 531,4251 557,4288 551,4309 519,4331 438,4363 367,4389 354,4390 360,4390 369,4391 381,4399 393,4410 421,4442 479,4482 550,4494 631,4471 " style="fill: white; stroke: black; stroke-width: 30" />
<polyline points="762,4207 743,4198 734,4197 717,4230 693,4306 679,4391 680,4447 700,4468 742,4461 820,4399 883,4329 909,4295 911,4289 910,4291 910,4291 909,4297 906,4304 901,4320 893,4362 878,4431 873,4485 887,4514 " style="fill: white; stroke: black; stroke-width: 30" />
<polyline points="1045,4314 1048,4316 1068,4327 1084,4344 1089,4354 1088,4354 1073,4345 1058,4336 1055,4329 1059,4327 1061,4322 1061,4324 1063,4329 " style="fill: white; stroke: black; stroke-width: 30" />
<polyline points="1018,4467 1009,4457 1015,4450 1039,4446 1057,4450 1057,4460 1052,4464 1050,4464 1045,4459 1043,4455 " style="fill: white; stroke: black; stroke-width: 30" />
<polyline points="1222,4353 1214,4350 1221,4350 1233,4352 1243,4346 1242,4339 1238,4333 1239,4333 1240,4330 1247,4332 1251,4332 1252,4338 1245,4351 1233,4379 1226,4390 1229,4385 1230,4372 1234,4361 1236,4362 1240,4377 " style="fill: white; stroke: black; stroke-width: 30" />
<polyline points="1230,4483 1224,4473 1227,4471 1232,4480 1239,4496 1239,4499 1237,4491 1230,4474 1226,4461 1235,4451 " style="fill: white; stroke: black; stroke-width: 30" />
<polyline points="1532,4277 1526,4280 1522,4289 1524,4321 1518,4364 1509,4412 1504,4450 1507,4473 1516,4474 1535,4444 1544,4393 1530,4348 1514,4318 1498,4288 1498,4254 1517,4228 1569,4210 1645,4229 1689,4289 1682,4380 1636,4455 1577,4507 1517,4519 1466,4502 1445,4467 1452,4427 1496,4392 1572,4369 1660,4366 1721,4382 1745,4411 1744,4445 1731,4471 1717,4491 1710,4501 1707,4509 1707,4506 1715,4490 1735,4440 " style="fill: white; stroke: black; stroke-width: 30" />
<polyline points="1772,4277 1762,4255 1766,4232 1790,4214 1822,4213 1848,4236 1848,4263 1845,4283 1833,4284 1806,4273 1775,4240 1773,4226 1791,4211 " style="fill: white; stroke: black; stroke-width: 30" />
<polyline points="1800,4504 1805,4501 1818,4494 1836,4488 1843,4483 1843,4483 1840,4482 1849,4478 1900,4434 1966,4395 1997,4389 1999,4409 1974,4462 1955,4495 1958,4497 1980,4493 2011,4486 2024,4490 2021,4490 2030,4488 2076,4466 2136,4449 2152,4454 2149,4462 2141,4472 2137,4480 2133,4482 2129,4490 2118,4502 2118,4507 2124,4503 2127,4502 2122,4507 2112,4516 2108,4516 2112,4515 2112,4514 2111,4520 2111,4525 2120,4524 " style="fill: white; stroke: black; stroke-width: 30" />
<polyline points="2253,4267 2246,4266 2251,4274 2263,4306 2257,4339 2227,4367 2205,4367 2195,4351 2194,4332 2200,4319 2228,4300 " style="fill: white; stroke: black; stroke-width: 30" />
<polyline points="2448,4349 2418,4337 2396,4349 2375,4405 2339,4479 2309,4539 2290,4566 2287,4566 2288,4532 2306,4479 2326,4453 2359,4444 2407,4445 2448,4458 2474,4469 " style="fill: white; stroke: black; stroke-width: 30" />
<polyline points="2523,4371 2509,4366 2491,4379 2482,4432 2474,4487 2475,4535 2472,4571 2473,4581 2474,4574 2486,4549 2510,4500 2519,4468 2516,4447 2514,4432 2516,4420 2531,4416 2579,4409 2628,4416 2653,4429 2652,4444 2640,4460 2638,4468 2646,4464 2671,4454 2714,4436 2763,4419 2794,4401 2809,4387 2808,4383 2797,4393 2774,4424 2751,4478 2724,4538 2717,4589 2724,4601 2759,4575 " style="fill: white; stroke: black; stroke-width: 30" />
<polyline points="2820,4293 2814,4260 2823,4257 2868,4275 2898,4321 2895,4365 2873,4379 2844,4377 2830,4351 2826,4327 2847,4272 " style="fill: white; stroke: black; stroke-width: 30" />
<polyline points="3540,4365 3543,4356 3536,4366 3507,4431 3482,4515 3477,4574 3485,4607 3499,4612 3504,4586 3515,4513 3519,4420 3534,4321 3539,4289 3534,4292 3526,4307 3511,4383 3520,4462 3558,4502 3618,4515 3688,4487 3742,4435 3758,4414 3752,4418 3747,4430 3724,4478 3713,4547 3708,4605 3718,4649 3751,4668 " style="fill: white; stroke: black; stroke-width: 30" />
<polyline points="4091,4372 4066,4368 4026,4363 3977,4378 3939,4409 3924,4465 3923,4541 3926,4607 3914,4644 3896,4655 3877,4643 3855,4605 3852,4539 3881,4465 3935,4419 " style="fill: white; stroke: black; stroke-width: 30" />
<polyline points="4101,4274 4090,4234 4080,4220 4067,4231 4029,4303 3963,4444 3889,4590 3821,4716 3771,4824 " style="fill: white; stroke: black; stroke-width: 30" />
<polyline points="3421,4914 3424,4909 3436,4905 3478,4901 3561,4897 3663,4893 3742,4880 " style="fill: white; stroke: black; stroke-width: 30" />
<polyline points="3570,4863 3539,4882 3514,4919 3481,4979 3450,5030 3449,5062 3466,5088 3510,5112 3574,5119 3667,5114 3752,5105 3805,5103 3819,5101 3820,5101 3814,5103 3807,5095 " style="fill: white; stroke: black; stroke-width: 30" />
<polyline points="3785,5035 3759,5034 3805,5030 3866,5044 3896,5066 3900,5087 3895,5093 3862,5115 3813,5136 3781,5158 " style="fill: white; stroke: black; stroke-width: 30" />
<polyline points="4021,5254 4030,5269 4045,5266 4057,5245 4084,5186 4115,5108 4138,5024 4139,4991 4137,4990 4133,4998 4123,5029 4110,5088 4100,5160 4105,5199 4140,5229 4199,5249 4282,5232 4353,5201 4380,5157 4375,5131 4360,5122 4359,5122 4360,5122 4362,5126 4359,5130 4367,5126 4362,5128 4363,5126 4360,5126 4360,5128 4361,5127 4364,5128 4361,5132 4367,5132 4376,5137 " style="fill: white; stroke: black; stroke-width: 30" />
<polyline points="4665,5100 4650,5077 4625,5073 4555,5093 4485,5144 4457,5197 4449,5242 4451,5270 4441,5279 4437,5281 4437,5276 4438,5274 4445,5268 4464,5246 4476,5237 " style="fill: white; stroke: black; stroke-width: 30" />
<polyline points="4555,5317 4617,5299 4681,5268 4757,5213 4803,5168 4829,5137 4846,5117 4839,5122 4837,5123 4830,5133 4806,5172 4782,5217 4750,5270 4733,5293 " style="fill: white; stroke: black; stroke-width: 30" />
<polyline points="4739,5216 4724,5194 4721,5183 4722,5181 4721,5186 4731,5186 4736,5187 4732,5190 4731,5189 4728,5190 4729,5189 4736,5189 4739,5189 4744,5193 4765,5198 4814,5204 4846,5219 " style="fill: white; stroke: black; stroke-width: 30" />
<polyline points="3905,5554 3903,5547 3957,5526 4068,5500 4149,5503 4166,5518 4117,5567 4015,5619 3943,5647 3941,5653 3977,5657 4060,5657 4131,5658 " style="fill: white; stroke: black; stroke-width: 30" />
<polyline points="4203,5632 4211,5606 4274,5586 4322,5594 4338,5620 4319,5657 4263,5686 4220,5689 4202,5667 4204,5630 4233,5588 4291,5568 " style="fill: white; stroke: black; stroke-width: 30" />
<polyline points="4467,5617 4478,5595 4532,5592 4551,5611 4549,5643 4498,5684 4419,5704 4384,5689 4378,5666 4402,5630 4454,5603 4495,5610 " style="fill: white; stroke: black; stroke-width: 30" />
<polyline points="4659,5632 4688,5640 4713,5665 4713,5695 4679,5723 4624,5734 4597,5721 4596,5704 4610,5672 4634,5652 4644,5650 4667,5656 4721,5673 " style="fill: white; stroke: black; stroke-width: 30" />
<polyline points="3733,5900 3743,5897 3842,5901 4074,5897 4490,5887 5007,5901 " style="fill: white; stroke: black; stroke-width: 30" />
<polyline points="-2424,5943 -2434,5949 -2451,5955 -2461,5962 -2467,5963 -2469,5965 -2470,5964 -2470,5963 -2462,5962 -2453,5960 -2444,5959 -2434,5958 -2417,5954 -2377,5950 -2299,5938 -2195,5924 -2065,5903 -1920,5876 -1800,5855 -1758,5853 -1757,5852 -1758,5853 -1760,5850 -1759,5849 -1760,5846 -1763,5844 -1762,5844 -1763,5845 -1760,5845 -1759,5846 -1760,5849 " style="fill: white; stroke: black; stroke-width: 30" />
<polyline points="-2169,5914 -2172,5911 -2175,5909 -2177,5911 -2175,5918 -2177,5929 -2178,5959 -2189,6066 -2204,6267 -2209,6474 -2199,6645 -2188,6741 -2180,6776 -2176,6790 -2179,6788 -2184,6786 -2185,6785 -2187,6786 -2187,6785 -2188,6785 -2186,6782 -2190,6781 -2183,6779 -2168,6773 -2092,6756 -1972,6731 -1835,6690 -1720,6660 -1652,6649 -1641,6651 -1647,6650 -1647,6650 -1646,6646 -1646,6643 -1649,6638 -1647,6637 -1649,6635 -1652,6637 -1649,6637 -1654,6639 -1649,6637 -1651,6635 " style="fill: white; stroke: black; stroke-width: 30" />
<polyline points="-1634,6458 -1653,6464 -1659,6463 -1662,6465 -1657,6464 -1638,6470 -1573,6480 -1499,6492 -1432,6495 -1381,6501 -1380,6504 -1380,6508 -1380,6509 -1380,6511 -1383,6511 -1385,6513 -1385,6513 -1386,6518 -1393,6525 -1437,6572 -1547,6671 -1639,6749 -1684,6778 -1701,6794 -1699,6792 -1696,6788 -1694,6783 -1693,6781 -1690,6780 -1684,6776 " style="fill: white; stroke: black; stroke-width: 30" />
<polyline points="-2058,5970 -2073,5968 -2080,5961 -2083,5962 -2080,5972 -2070,6040 -2065,6224 -2058,6436 -2045,6597 -2037,6684 -2034,6717 -2032,6735 -2034,6732 -2035,6729 -2034,6728 -2037,6730 -2034,6732 -2035,6734 -2036,6732 -2039,6733 -2037,6732 -2035,6730 -2029,6726 -2013,6719 -1950,6683 -1841,6636 -1702,6583 -1570,6550 -1495,6537 -1472,6536 -1473,6535 -1476,6535 -1476,6534 -1475,6533 -1474,6530 -1470,6532 -1475,6530 -1477,6530 -1475,6530 -1478,6530 -1471,6527 " style="fill: white; stroke: black; stroke-width: 30" />
<polyline points="-758,6250 -777,6243 -783,6237 -788,6237 -789,6242 -780,6297 -772,6433 -759,6574 -742,6660 -725,6722 -716,6747 -715,6760 -714,6755 -717,6705 " style="fill: white; stroke: black; stroke-width: 30" />
<polyline points="-1048,6281 -1078,6282 -1088,6279 -1088,6279 -1088,6277 -1087,6278 -1087,6277 -1087,6279 -1090,6279 -1090,6281 -1090,6281 -1090,6282 -1088,6279 -1087,6278 -1073,6269 -1012,6237 -870,6202 -667,6190 -459,6229 -306,6316 -252,6420 -272,6526 -322,6601 -413,6673 -522,6730 -608,6751 -681,6751 -745,6739 -767,6731 -764,6729 -761,6727 -754,6727 -750,6724 " style="fill: white; stroke: black; stroke-width: 30" />
<polyline points="-1177,6216 -1189,6212 -1200,6209 -1227,6212 -1262,6221 -1296,6232 -1324,6245 -1366,6279 -1392,6319 -1406,6367 -1399,6435 -1390,6506 -1368,6572 -1349,6622 -1324,6660 -1292,6695 -1246,6719 -1186,6743 -1116,6756 -1047,6761 -983,6752 -927,6738 -908,6725 -899,6725 -905,6724 -902,6727 -900,6725 -896,6726 -891,6721 -878,6719 -872,6717 -865,6717 -865,6716 -869,6716 -869,6715 -874,6713 " style="fill: white; stroke: black; stroke-width: 30" />
<polyline points="-115,6086 -118,6083 -123,6082 -127,6089 -137,6116 -139,6215 -133,6336 -119,6432 -108,6485 -102,6499 -101,6499 -107,6497 -103,6491 -105,6489 -106,6488 -103,6490 -103,6489 -100,6487 " style="fill: white; stroke: black; stroke-width: 30" />
<polyline points="-188,6803 -215,6772 -191,6721 -128,6669 -61,6648 -17,6657 2,6691 -23,6757 -81,6813 -140,6837 -176,6825 -187,6809 -180,6792 -159,6758 -115,6714 " style="fill: white; stroke: black; stroke-width: 30" />
<polyline points="-1010,5315 -1013,5281 -1006,5256 -1005,5258 -1011,5269 -1014,5329 -1002,5478 -973,5699 -930,5866 -890,5984 -865,6043 -854,6060 -854,6060 -856,6061 -855,6059 -857,6058 -857,6053 -839,6028 -774,5931 -676,5750 -572,5586 -497,5499 -476,5474 -476,5474 -476,5473 -478,5474 -479,5472 -478,5473 -479,5472 -477,5471 -476,5469 -474,5471 -473,5471 " style="fill: white; stroke: black; stroke-width: 30" />
<polyline points="-1225,5642 -1258,5638 -1260,5637 -1263,5638 -1253,5639 -1247,5642 -1244,5643 -1240,5646 -1223,5646 -1193,5646 -1167,5642 -1050,5636 -856,5624 -640,5628 -467,5636 -389,5644 -384,5643 -387,5644 -393,5643 -394,5643 -392,5641 -391,5640 -390,5638 -386,5637 -384,5635 -382,5635 -389,5634 " style="fill: white; stroke: black; stroke-width: 30" />
<polyline points="-2816,5401 -2820,5405 -2827,5410 -2840,5442 -2882,5578 -2953,5863 -3008,6265 -3034,6722 -3020,7069 -2991,7266 -2962,7345 -2955,7366 -2956,7369 -2958,7370 -2962,7371 -2967,7372 -2969,7371 -2972,7370 -2969,7368 -2966,7368 -2956,7366 -2873,7365 -2698,7365 -2422,7353 -2040,7311 -1577,7253 -1084,7186 -583,7169 -137,7178 134,7209 265,7223 289,7219 289,7210 289,7205 282,7195 252,7111 " style="fill: white; stroke: black; stroke-width: 30" />
<polyline points="-2517,5068 -2513,5108 -2485,5128 -2443,5140 -2385,5137 -2294,5124 -2148,5099 -1945,5084 -1690,5085 -1361,5099 -995,5110 -628,5115 -272,5117 7,5126 143,5139 171,5149 182,5148 185,5149 185,5149 185,5153 189,5163 212,5197 255,5252 " style="fill: white; stroke: black; stroke-width: 30" />
<polyline points="450,5237 " style="fill: white; stroke: black; stroke-width: 30" />
<polyline points="539,5205 528,5211 518,5237 486,5348 428,5598 352,5931 284,6254 247,6543 235,6801 238,7009 247,7158 246,7231 232,7254 " style="fill: white; stroke: black; stroke-width: 30" />
<polyline points="-1573,7918 -1566,7889 -1578,7890 -1589,7915 -1610,8009 -1621,8149 -1623,8238 -1608,8280 -1597,8281 -1598,8243 -1592,8116 -1587,7980 -1579,7872 -1553,7827 -1515,7811 -1460,7833 -1398,7890 -1365,7955 -1380,7999 -1420,8019 -1475,8007 -1529,7976 -1549,7966 -1552,7964 -1530,7968 " style="fill: white; stroke: black; stroke-width: 30" />
<polyline points="-1184,7827 -1214,7839 -1243,7899 -1279,8009 -1287,8082 -1245,8123 -1167,8144 -1057,8131 " style="fill: white; stroke: black; stroke-width: 30" />
<polyline points="-940,7962 -945,7958 -934,7963 -881,8002 -849,8076 -861,8159 -915,8193 -989,8189 -1047,8141 -1056,8114 -1046,8106 -1002,8119 -926,8157 -826,8173 -730,8135 -656,8055 -610,7944 -609,7871 -614,7860 -621,7870 -654,7960 -698,8075 -714,8146 -721,8188 -725,8186 -718,8162 -710,8089 -705,8062 -699,8059 -682,8068 -637,8089 " style="fill: white; stroke: black; stroke-width: 30" />
<polyline points="-511,8000 -500,7998 -456,8003 -410,8021 -399,8049 -426,8103 -483,8170 -508,8204 -495,8222 -447,8245 -383,8246 " style="fill: white; stroke: black; stroke-width: 30" />
<polyline points="-471,8106 -483,8104 -479,8102 -434,8109 -360,8123 -289,8133 " style="fill: white; stroke: black; stroke-width: 30" />
<polyline points="-110,7947 -108,7901 -107,7883 -119,7891 -174,7950 -238,8052 -266,8112 -254,8138 -229,8145 -170,8130 -114,8122 -102,8137 -99,8159 -96,8179 -62,8172 27,8116 " style="fill: white; stroke: black; stroke-width: 30" />
<polyline points="88,8119 66,8145 54,8169 54,8184 57,8194 65,8198 " style="fill: white; stroke: black; stroke-width: 30" />
<polyline points="179,7860 163,7859 163,7860 166,7864 184,7874 " style="fill: white; stroke: black; stroke-width: 30" />
<polyline points="196,8187 181,8162 190,8130 202,8104 224,8090 247,8092 270,8109 295,8133 349,8134 " style="fill: white; stroke: black; stroke-width: 30" />
<polyline points="769,8082 707,8068 645,8058 583,8065 560,8073 566,8091 580,8134 592,8180 579,8211 546,8220 500,8210 480,8187 475,8148 " style="fill: white; stroke: black; stroke-width: 30" />
<polyline points="931,8045 935,8049 937,8054 938,8060 927,8062 880,8071 823,8082 786,8101 789,8106 806,8134 842,8163 896,8180 977,8159 1103,8078 1186,8006 1189,7991 1171,7994 1135,8029 1087,8112 1089,8183 1118,8211 1156,8221 1176,8225 1180,8234 " style="fill: white; stroke: black; stroke-width: 30" />
<polyline points="2007,8015 2019,7991 2017,7990 2013,7999 1991,8030 1947,8099 1920,8163 1914,8190 1923,8191 1946,8167 2008,8069 2064,7971 2088,7922 2086,7921 2080,7927 2053,7979 1998,8097 2009,8175 2058,8226 2131,8237 2239,8196 2343,8115 2410,8012 2430,7921 2421,7903 2400,7894 2387,7897 2362,7933 2357,8017 " style="fill: white; stroke: black; stroke-width: 30" />
<polyline points="2466,8119 " style="fill: white; stroke: black; stroke-width: 30" />
<polyline points="2625,7953 2589,7945 2605,7944 2639,7964 2724,7986 2799,8001 2828,8004 2826,8002 2770,8001 " style="fill: white; stroke: black; stroke-width: 30" />
<polyline points="2598,8018 2551,8052 2513,8110 2481,8189 2471,8243 2484,8271 2527,8297 2600,8311 2685,8298 " style="fill: white; stroke: black; stroke-width: 30" />
<polyline points="2501,8135 2564,8147 2678,8159 2843,8158 2975,8140 " style="fill: white; stroke: black; stroke-width: 30" />
<polyline points="3082,8085 3077,8061 3067,8038 3060,8024 3049,8020 3042,8021 3033,8022 3026,8027 3009,8046 2961,8113 2902,8192 2873,8264 2866,8304 2873,8325 2900,8305 " style="fill: white; stroke: black; stroke-width: 30" />
<polyline points="2941,7994 2936,7979 2975,7978 3070,7991 3202,8006 3310,8010 " style="fill: white; stroke: black; stroke-width: 30" />
<polyline points="2796,8117 2846,8103 2999,8100 3184,8121 3305,8151 " style="fill: white; stroke: black; stroke-width: 30" />
<polyline points="-1334,8550 -1325,8535 -1311,8523 -1293,8514 -1251,8510 -1181,8520 -1061,8519 " style="fill: white; stroke: black; stroke-width: 30" />
<polyline points="-1199,8493 -1202,8495 -1214,8524 -1250,8623 -1300,8737 -1284,8792 -1245,8821 -1151,8839 -1057,8835 -965,8827 -903,8814 -875,8787 " style="fill: white; stroke: black; stroke-width: 30" />
<polyline points="-950,8716 -941,8713 -913,8715 -856,8734 -805,8769 -777,8809 -777,8827 -800,8843 -858,8865 -903,8889 -903,8891 -886,8882 " style="fill: white; stroke: black; stroke-width: 30" />
<polyline points="-247,8609 -258,8599 -263,8600 -284,8639 -333,8758 -391,8870 -407,8936 -383,8958 -317,8926 " style="fill: white; stroke: black; stroke-width: 30" />
<polyline points="-51,8719 -76,8707 -160,8714 -305,8766 -409,8835 -407,8883 -340,8945 -210,8980 -94,8964 -56,8938 -80,8925 -112,8929 -112,8932 -78,8939 -47,8938 -37,8928 -25,8890 -5,8844 15,8813 33,8801 50,8799 60,8808 87,8821 134,8830 196,8832 211,8845 204,8853 190,8865 172,8888 150,8941 139,8983 136,9012 158,8999 " style="fill: white; stroke: black; stroke-width: 30" />
<polyline points="252,8685 245,8670 246,8664 245,8663 248,8669 281,8714 315,8780 321,8818 306,8818 266,8788 224,8739 209,8698 214,8675 223,8669 256,8654 " style="fill: white; stroke: black; stroke-width: 30" />
<polyline points="274,8993 309,9001 399,8987 504,8948 543,8915 499,8888 406,8883 340,8910 336,8944 389,9005 518,9033 656,9016 " style="fill: white; stroke: black; stroke-width: 30" />
<polyline points="773,8965 757,8945 709,8923 657,8927 624,8950 646,8975 712,8986 779,8982 783,8985 758,9038 704,9132 644,9213 616,9244 616,9241 614,9210 650,9134 727,9067 815,9039 874,9024 898,9014 874,8997 829,8978 789,8974 782,8998 815,9052 906,9095 1019,9094 1115,9059 1157,8997 1162,8956 1154,8948 1158,8947 1163,8950 1175,8963 1208,8976 1244,8981 1267,8982 1264,8984 1248,8995 1220,9023 1209,9049 1201,9079 1212,9100 " style="fill: white; stroke: black; stroke-width: 30" />
<polyline points="1351,8792 1336,8782 1337,8779 1346,8785 " style="fill: white; stroke: black; stroke-width: 30" />
<polyline points="1448,8946 1404,8937 1385,8947 1383,8984 1386,9040 1387,9073 1373,9083 1356,9074 1332,9045 1340,9012 " style="fill: white; stroke: black; stroke-width: 30" />
<polyline points="1629,9033 1619,9025 1587,9019 1537,9028 1515,9045 1513,9056 1552,9061 1624,9047 1694,9014 1753,8973 1819,8925 1863,8894 1857,8891 1847,8898 1815,8924 1781,8973 1774,9009 1779,9054 1822,9091 1873,9115 1883,9121 1882,9122 1885,9119 " style="fill: white; stroke: black; stroke-width: 30" />
<polyline points="-336,9263 -349,9257 -367,9255 -362,9255 -321,9263 -232,9273 -135,9264 " style="fill: white; stroke: black; stroke-width: 30" />
<polyline points="-237,9325 -246,9320 -242,9320 -239,9327 -252,9357 -290,9450 -331,9543 -359,9617 -359,9670 -351,9712 -337,9728 -339,9732 -334,9731 -332,9729 -337,9725 -332,9725 -337,9723 -339,9723 -337,9722 -313,9720 -243,9721 -155,9724 -66,9739 -9,9754 " style="fill: white; stroke: black; stroke-width: 30" />
<polyline points="-60,9661 -93,9659 -88,9657 -66,9665 -13,9703 29,9759 33,9793 5,9811 -30,9824 -45,9823 -33,9809 " style="fill: white; stroke: black; stroke-width: 30" />
<polyline points="268,9633 267,9622 251,9616 258,9616 249,9617 235,9627 212,9669 168,9760 154,9833 160,9888 200,9925 247,9922 321,9858 374,9792 376,9783 371,9795 368,9822 381,9869 414,9903 463,9916 527,9876 567,9789 566,9736 549,9719 535,9711 523,9719 521,9725 529,9738 565,9781 " style="fill: white; stroke: black; stroke-width: 30" />
<polyline points="753,9847 772,9832 763,9818 731,9789 674,9773 623,9786 622,9804 650,9860 719,9900 778,9906 789,9885 781,9846 736,9796 723,9782 720,9788 756,9815 793,9860 825,9901 851,9920 878,9903 903,9842 923,9776 930,9747 933,9748 936,9753 945,9774 977,9813 " style="fill: white; stroke: black; stroke-width: 30" />
<polyline points="1103,9656 1090,9638 1084,9638 1087,9646 1075,9673 1053,9744 1021,9831 1016,9913 1024,9962 1045,9959 " style="fill: white; stroke: black; stroke-width: 30" />
<polyline points="1154,9788 1131,9784 1082,9790 1019,9818 1015,9832 1044,9861 1095,9895 1175,9910 " style="fill: white; stroke: black; stroke-width: 30" />
<polyline points="2035,9794 2042,9779 2013,9765 1963,9747 1872,9731 1767,9740 1702,9765 1696,9824 1749,9929 1864,10005 1991,10024 2080,9986 " style="fill: white; stroke: black; stroke-width: 30" />
<polyline points="2123,9897 2099,9878 2106,9863 2140,9851 2212,9864 2263,9903 2261,9939 2221,9966 2155,9971 2103,9945 2093,9905 2105,9848 2146,9835 " style="fill: white; stroke: black; stroke-width: 30" />
<polyline points="2261,10001 2269,9937 2309,9881 2378,9856 2409,9871 2416,9905 2395,9949 2368,9981 2377,9983 2404,9977 2483,9949 2554,9927 2604,9896 2628,9864 2622,9848 2602,9843 2591,9848 2578,9869 2574,9916 2558,9966 2555,9982 2527,9992 2497,9980 2471,9966 2478,9959 2508,9956 2600,9928 2699,9888 2753,9871 2748,9872 2738,9878 2706,9908 2675,9955 2676,9983 2704,9994 2741,9989 2813,9955 2839,9942 2837,9943 2825,9950 2801,9964 2798,9975 2813,9983 2830,9992 2838,9992 2842,9990 2844,9997 2848,10006 2858,10004 2866,10001 2869,10004 2875,10009 2881,10008 2888,10003 2888,9998 2908,9984 2948,9975 2968,9978 3000,9980 2996,9985 2987,9984 2987,9983 3001,9982 3044,9980 3080,9981 3066,9990 3068,9997 3072,10004 3085,10011 3124,10011 3140,10012 3138,10016 3155,10014 3214,10005 3283,9985 3313,9968 3312,9952 3291,9946 3247,9946 3219,9960 3220,9971 3226,9996 3276,10031 3349,10073 3425,10121 " style="fill: white; stroke: black; stroke-width: 30" />
<polyline points="299,10217 310,10199 298,10196 282,10222 228,10332 181,10440 176,10468 181,10463 206,10407 235,10307 230,10226 234,10163 223,10114 225,10108 237,10117 288,10166 350,10228 372,10266 359,10275 318,10283 303,10287 317,10294 361,10327 388,10361 363,10382 302,10403 224,10402 192,10388 198,10382 223,10366 " style="fill: white; stroke: black; stroke-width: 30" />
<polyline points="437,10334 471,10297 521,10281 561,10301 581,10349 565,10412 532,10454 489,10468 470,10450 459,10428 472,10404 489,10394 513,10396 550,10420 596,10443 " style="fill: white; stroke: black; stroke-width: 30" />
<polyline points="857,10343 809,10317 769,10305 750,10315 730,10341 736,10393 749,10441 752,10474 746,10483 727,10487 704,10473 692,10449 698,10417 735,10385 806,10351 " style="fill: white; stroke: black; stroke-width: 30" />
<polyline points="1014,10226 1062,10187 1040,10192 974,10247 906,10343 880,10431 895,10473 918,10483 953,10475 987,10472 991,10486 985,10516 1009,10534 " style="fill: white; stroke: black; stroke-width: 30" />
<polyline points="1973,10359 1983,10345 1996,10327 2000,10316 1996,10305 1944,10290 1877,10281 1854,10289 1853,10307 1871,10399 1888,10502 1893,10557 1869,10571 1849,10553 1824,10503 1827,10462 1843,10460 1887,10475 1965,10492 2054,10480 2145,10449 2206,10391 2228,10337 2239,10298 2240,10275 2249,10267 2236,10268 2228,10268 2172,10279 2107,10314 2098,10349 2105,10407 2172,10478 2250,10522 2343,10527 2402,10503 2429,10454 2420,10405 2384,10385 2334,10389 2322,10412 2331,10472 2376,10531 2431,10560 2485,10551 2544,10514 2562,10464 2564,10420 2559,10400 2540,10398 2521,10409 2485,10446 2485,10493 2512,10544 2581,10560 2675,10545 2746,10501 2767,10452 2750,10429 2719,10419 2701,10416 2691,10426 2682,10471 2700,10507 2723,10527 " style="fill: white; stroke: black; stroke-width: 30" />
<polyline points="2716,10449 2704,10453 2693,10471 2687,10516 2654,10586 2624,10658 2611,10706 2610,10729 2610,10728 2639,10695 2722,10577 2796,10449 2833,10399 2841,10386 2848,10387 2843,10428 2823,10491 2801,10542 2782,10564 2761,10559 2728,10532 2717,10497 2724,10481 " style="fill: white; stroke: black; stroke-width: 30" />
<polyline points="-3070,11257 -3088,11280 -3092,11304 -3092,11365 -3088,11441 -3076,11503 " style="fill: white; stroke: black; stroke-width: 30" />
<polyline points="-3293,11204 -3304,11204 -3304,11201 -3263,11202 -3191,11199 -3078,11209 -2956,11217 -2877,11224 " style="fill: white; stroke: black; stroke-width: 30" />
<polyline points="-3227,11303 -3245,11305 -3230,11310 -3160,11335 -3085,11365 -3027,11398 -2973,11427 -2971,11446 -2970,11470 -2978,11502 -2981,11523 -2986,11526 -2979,11517 -2980,11472 -2975,11409 -2978,11382 -2981,11368 -2962,11367 -2962,11365 -2935,11379 -2899,11408 -2833,11435 -2774,11435 -2740,11428 -2739,11425 -2743,11422 -2756,11417 -2761,11416 -2755,11413 -2762,11411 -2759,11410 -2768,11407 -2765,11405 -2766,11401 -2784,11389 -2791,11387 -2799,11389 -2811,11400 -2824,11427 -2828,11461 -2829,11505 -2799,11536 -2736,11550 -2660,11537 -2612,11501 " style="fill: white; stroke: black; stroke-width: 30" />
<polyline points="-2625,11475 -2641,11487 -2645,11501 -2643,11516 -2637,11519 -2635,11512 -2616,11486 -2562,11466 -2541,11453 -2529,11463 -2523,11479 -2500,11499 -2463,11511 -2458,11521 -2460,11530 -2445,11536 -2436,11538 -2408,11535 -2404,11541 -2401,11549 -2405,11544 -2400,11541 " style="fill: white; stroke: black; stroke-width: 30" />
<polyline points="-2142,11481 -2137,11476 -2145,11459 -2120,11431 -2138,11395 -2150,11364 -2212,11354 -2269,11380 -2314,11422 -2305,11472 -2238,11517 -2147,11505 -2042,11427 -1975,11326 -1969,11266 -1987,11250 -2011,11250 -2018,11264 -2025,11332 -2032,11422 -2025,11482 -2001,11514 " style="fill: white; stroke: black; stroke-width: 30" />
<polyline points="-1867,11260 -1873,11256 -1871,11258 -1878,11289 -1882,11367 -1881,11442 -1880,11469 -1881,11472 -1860,11453 -1832,11403 -1798,11385 -1766,11409 -1754,11463 -1766,11515 -1789,11531 -1840,11525 -1898,11492 -1912,11467 -1894,11459 -1840,11453 -1751,11444 -1672,11422 -1604,11393 -1601,11393 -1627,11417 -1649,11478 -1648,11533 -1643,11567 -1627,11577 -1614,11548 " style="fill: white; stroke: black; stroke-width: 30" />
<polyline points="-1561,11225 -1601,11218 -1601,11219 -1610,11219 -1597,11221 -1600,11226 -1583,11242 " style="fill: white; stroke: black; stroke-width: 30" />
<polyline points="-1444,11320 -1455,11301 -1462,11301 -1476,11345 -1512,11451 -1537,11557 -1487,11621 " style="fill: white; stroke: black; stroke-width: 30" />
<polyline points="-1269,11450 -1299,11426 -1340,11418 -1385,11441 -1421,11502 -1423,11562 -1361,11584 -1288,11546 -1206,11438 -1164,11329 -1176,11288 -1214,11287 -1250,11315 -1263,11417 -1244,11522 -1203,11575 " style="fill: white; stroke: black; stroke-width: 30" />
<polyline points="-99,11369 -116,11343 -120,11334 -94,11326 -34,11319 76,11325 147,11340 231,11361 283,11374 " style="fill: white; stroke: black; stroke-width: 30" />
<polyline points="-45,11332 -98,11345 -159,11419 -240,11563 -237,11649 -183,11703 -82,11723 37,11719 108,11700 " style="fill: white; stroke: black; stroke-width: 30" />
<polyline points="-226,11515 -219,11517 -157,11523 -22,11552 98,11576 " style="fill: white; stroke: black; stroke-width: 30" />
<polyline points="174,11744 172,11735 187,11709 208,11659 256,11610 299,11591 345,11585 387,11602 397,11628 383,11671 368,11709 389,11721 454,11692 533,11669 593,11650 619,11638 623,11617 584,11587 522,11583 475,11608 485,11641 547,11689 639,11711 " style="fill: white; stroke: black; stroke-width: 30" />
<polyline points="759,11546 735,11544 733,11557 713,11611 697,11652 710,11679 706,11678 714,11669 728,11646 764,11596 813,11560 840,11550 828,11559 810,11594 800,11636 820,11664 856,11676 893,11671 889,11671 876,11677 872,11681 881,11686 " style="fill: white; stroke: black; stroke-width: 30" />
<polyline points="1046,11565 1028,11561 1013,11567 984,11614 969,11649 980,11670 1022,11667 1090,11630 1157,11586 1189,11558 1189,11551 1176,11557 1125,11606 1070,11684 1028,11785 1031,11872 " style="fill: white; stroke: black; stroke-width: 30" />
<polyline points="2048,11351 2036,11333 2036,11342 2002,11403 1932,11542 1861,11678 1847,11793 " style="fill: white; stroke: black; stroke-width: 30" />
<polyline points="1924,11856 1982,11814 2103,11739 2272,11623 2435,11503 2472,11447 2462,11434 2458,11436 2411,11488 2381,11576 2362,11669 2352,11759 2362,11798 " style="fill: white; stroke: black; stroke-width: 30" />
<polyline points="2167,11604 2167,11595 2209,11582 2287,11591 2399,11608 2494,11628 2571,11638 2623,11626 2630,11606 2627,11591 2591,11589 2563,11600 2520,11651 2530,11697 2567,11736 2634,11742 2711,11721 2732,11710 2730,11710 2724,11716 2718,11734 2689,11772 2658,11818 2627,11849 2625,11853 " style="fill: white; stroke: black; stroke-width: 30" />
<polyline points="2884,11656 2878,11649 2870,11649 2875,11659 2882,11695 2886,11742 2872,11785 2848,11808 2838,11806 2816,11792 2814,11764 2814,11723 2859,11671 " style="fill: white; stroke: black; stroke-width: 30" />
<polyline points="3126,11638 3119,11613 3096,11601 3089,11601 3061,11641 3026,11704 2991,11745 2943,11769 2925,11765 2936,11762 2971,11762 3056,11755 3130,11747 3205,11725 3259,11688 3265,11665 3221,11659 3144,11689 3099,11733 3114,11780 3155,11815 3256,11803 3337,11758 3394,11728 3399,11721 3394,11729 3379,11754 3352,11792 3339,11818 3338,11840 " style="fill: white; stroke: black; stroke-width: 30" />
<polyline points="3657,11678 3654,11653 3645,11649 3626,11661 3577,11713 3559,11764 3540,11793 3519,11798 3498,11785 3479,11766 3496,11755 3519,11764 3615,11772 3710,11775 3802,11744 3836,11691 3803,11651 3735,11637 3695,11656 3670,11705 3692,11769 3761,11802 3856,11785 3906,11754 3903,11746 3896,11750 3891,11766 3860,11798 3834,11828 3824,11837 3857,11812 " style="fill: white; stroke: black; stroke-width: 30" />
<polyline points="4048,11601 4073,11540 4061,11527 4054,11523 4055,11531 4064,11564 " style="fill: white; stroke: black; stroke-width: 30" />
<polyline points="4195,11583 4183,11565 4146,11563 4073,11606 4004,11684 3960,11756 3950,11796 3951,11798 3982,11760 4019,11737 4079,11738 4153,11769 4192,11791 4179,11783 4134,11753 4078,11741 4082,11754 4121,11798 4234,11851 4315,11881 4341,11858 4353,11837 4364,11825 4387,11822 " style="fill: white; stroke: black; stroke-width: 30" />
<polyline points="-2942,11902 -2942,11904 -2946,11899 -2910,11900 -2868,11897 -2772,11904 -2655,11920 -2569,11936 " style="fill: white; stroke: black; stroke-width: 30" />
<polyline points="-2813,11934 -2839,11940 -2867,11988 -2907,12073 -2906,12112 -2871,12142 -2790,12157 -2696,12163 -2638,12166 -2616,12170 -2605,12174 -2585,12172 " style="fill: white; stroke: black; stroke-width: 30" />
<polyline points="-2624,12079 -2643,12068 -2633,12065 -2573,12080 -2523,12110 -2513,12140 -2540,12158 -2569,12177 -2609,12172 -2604,12171 -2572,12169 " style="fill: white; stroke: black; stroke-width: 30" />
<polyline points="-2527,12137 -2538,12134 -2541,12137 -2550,12146 -2603,12164 -2638,12193 -2665,12205 -2665,12202 -2643,12189 " style="fill: white; stroke: black; stroke-width: 30" />
<polyline points="-1759,12305 -1776,12312 -1793,12326 -1798,12330 -1793,12326 -1755,12301 -1693,12231 -1638,12137 -1599,12086 -1602,12076 -1607,12080 -1604,12086 -1603,12102 -1587,12138 -1559,12194 -1496,12242 -1448,12275 " style="fill: white; stroke: black; stroke-width: 30" />
<polyline points="-1697,12121 -1758,12135 -1775,12139 -1754,12142 -1721,12140 -1648,12137 -1574,12132 -1487,12145 " style="fill: white; stroke: black; stroke-width: 30" />
<polyline points="-1357,12025 -1373,12028 -1381,12029 -1369,12049 -1367,12090 -1370,12140 -1362,12155 -1342,12162 -1353,12160 -1342,12161 -1337,12157 -1324,12145 -1289,12122 -1266,12109 -1262,12113 -1246,12132 -1224,12169 -1216,12207 -1226,12234 -1268,12263 -1309,12271 -1338,12258 -1368,12233 -1368,12227 -1345,12215 " style="fill: white; stroke: black; stroke-width: 30" />
<polyline points="-1159,12072 -1164,12073 -1164,12083 -1159,12123 -1172,12164 -1170,12219 -1166,12245 -1168,12267 -1153,12281 -1117,12277 -1082,12252 -1053,12241 -1060,12241 -1078,12252 -1077,12272 -1054,12305 -1024,12312 -956,12307 -921,12279 -916,12248 -920,12233 -926,12224 -931,12222 -931,12225 -924,12228 -923,12241 -903,12252 -858,12250 -802,12237 -780,12214 -785,12189 -809,12166 -841,12167 -883,12200 -912,12255 -894,12298 -834,12329 -725,12315 -606,12258 -524,12191 -512,12122 -520,12101 -537,12105 -556,12138 -571,12196 -564,12252 -542,12275 -487,12286 -459,12290 -422,12299 -413,12306 -397,12313 -388,12308 -373,12299 " style="fill: white; stroke: black; stroke-width: 30" />
<polyline points="-266,12283 -266,12282 -282,12282 -285,12282 -287,12285 -273,12294 -283,12327 -282,12354 -275,12363 -277,12358 -260,12335 -257,12291 -245,12262 -240,12250 -212,12251 -178,12271 -100,12301 " style="fill: white; stroke: black; stroke-width: 30" />
<polyline points="-1078,12415 -1080,12419 -1097,12427 -1107,12432 -1115,12435 -1110,12437 -1110,12436 -1115,12438 -1115,12437 -1110,12436 -1110,12435 -1072,12432 -994,12434 -902,12433 -823,12448 " style="fill: white; stroke: black; stroke-width: 30" />
<polyline points="-968,12429 -993,12449 -1003,12488 -1017,12571 -1008,12617 -993,12637 -956,12648 -904,12661 -851,12664 -798,12668 -767,12666 -760,12669 -758,12669 " style="fill: white; stroke: black; stroke-width: 30" />
<polyline points="-751,12592 -765,12584 -762,12583 -732,12588 -682,12598 -633,12625 -604,12660 -635,12706 -680,12738 -695,12747 -714,12742 -704,12741 -687,12732 " style="fill: white; stroke: black; stroke-width: 30" />
<polyline points="94,12591 52,12575 -17,12574 -88,12596 -129,12634 -138,12655 -120,12693 -67,12750 -14,12795 -14,12826 -53,12848 -109,12865 -155,12861 -181,12849 -172,12844 -160,12840 -104,12820 " style="fill: white; stroke: black; stroke-width: 30" />
<polyline points="98,12746 69,12761 21,12791 4,12820 12,12835 38,12854 94,12847 185,12791 275,12728 315,12695 308,12684 315,12684 294,12695 278,12736 243,12785 241,12814 277,12819 337,12804 385,12792 392,12796 402,12804 412,12807 450,12791 " style="fill: white; stroke: black; stroke-width: 30" />
<polyline points="530,12747 509,12755 486,12772 474,12787 489,12796 506,12798 549,12789 566,12784 576,12791 574,12807 590,12831 " style="fill: white; stroke: black; stroke-width: 30" />
<polyline points="779,12674 762,12672 748,12678 738,12704 710,12766 682,12830 691,12860 711,12873 " style="fill: white; stroke: black; stroke-width: 30" />
<polyline points="1274,12582 1268,12601 1226,12685 1121,12818 1023,12934 998,12992 " style="fill: white; stroke: black; stroke-width: 30" />
<polyline points="1433,12690 1443,12649 1440,12644 1436,12651 1414,12694 1369,12775 1331,12832 1336,12858 1347,12874 1381,12869 1426,12831 1497,12758 1543,12692 1545,12673 1535,12671 1517,12681 1478,12726 1444,12791 1466,12829 1535,12852 1659,12814 1749,12786 1761,12782 1745,12795 1730,12815 1714,12843 1719,12856 1722,12865 1741,12873 1749,12876 1760,12867 1790,12834 " style="fill: white; stroke: black; stroke-width: 30" />
<polyline points="1847,12831 1825,12851 1828,12858 1810,12867 1817,12870 1822,12881 1848,12889 1865,12888 1866,12876 " style="fill: white; stroke: black; stroke-width: 30" />
<polyline points="1909,12744 1898,12735 1887,12729 1882,12729 1882,12727 1882,12727 1887,12727 1877,12730 1894,12729 1892,12734 " style="fill: white; stroke: black; stroke-width: 30" />
<polyline points="2031,12655 2049,12659 2045,12680 2026,12732 1981,12809 1953,12873 1958,12925 " style="fill: white; stroke: black; stroke-width: 30" />
<polyline points="1179,12885 1190,12877 1201,12863 1206,12860 1198,12861 1206,12867 1214,12873 1212,12878 1212,12879 1210,12877 1210,12874 1214,12871 " style="fill: white; stroke: black; stroke-width: 30" />
<polyline points="2540,12739 2534,12733 2538,12730 2550,12728 2553,12728 2541,12732 2548,12728 2543,12730 2536,12730 2550,12726 2535,12728 2535,12728 2527,12726 2518,12720 2487,12713 2441,12723 2432,12729 2435,12733 2459,12738 2496,12735 2556,12716 2541,12721 2556,12719 2550,12726 2549,12733 2548,12766 2551,12846 2546,12942 2509,13017 2487,13065 2443,13078 2423,13052 2414,12979 2454,12877 2547,12813 2630,12797 2722,12793 2778,12789 2781,12780 2732,12769 2672,12774 2636,12797 2652,12827 2694,12880 2793,12898 2881,12882 " style="fill: white; stroke: black; stroke-width: 30" />
<polyline points="2963,12728 2949,12711 2937,12703 2949,12699 2948,12697 2944,12700 2946,12698 2942,12703 2947,12705 2922,12741 2899,12801 2892,12850 2915,12881 2940,12891 2969,12877 2990,12858 3012,12851 3033,12861 3046,12884 3046,12896 3029,12900 2964,12892 2914,12865 2905,12848 2903,12853 2943,12879 " style="fill: white; stroke: black; stroke-width: 30" />
<polyline points="3187,12812 3200,12803 3216,12793 3226,12802 3237,12832 3232,12890 3212,12936 3182,12956 3155,12944 3125,12918 3126,12887 3141,12875 3158,12877 3191,12894 3225,12915 3239,12929 3271,12928 3306,12919 3326,12903 3329,12883 3346,12865 3344,12857 3337,12851 3337,12851 3320,12857 3295,12875 3301,12890 3310,12902 3342,12904 3410,12898 3431,12905 3425,12923 3404,12955 3422,12985 3450,12999 " style="fill: white; stroke: black; stroke-width: 30" />
<polyline points="3544,12894 3569,12898 3588,12886 3586,12862 3541,12834 3471,12831 3427,12847 3436,12875 3475,12917 3550,12938 3615,12926 3660,12891 3661,12859 3669,12846 3649,12845 3641,12853 3644,12873 3640,12908 3651,12929 3646,12951 3646,12970 3668,12990 3711,12998 3755,12996 3826,12966 3861,12925 3872,12899 3856,12881 3859,12870 3859,12871 3849,12876 3849,12885 3858,12889 3859,12898 3860,12904 3859,12907 3873,12901 3861,12907 3866,12905 3868,12904 3868,12902 3865,12902 3874,12896 3868,12892 3805,12904 3750,12931 3763,12938 3793,12976 3843,13015 3955,13047 " style="fill: white; stroke: black; stroke-width: 30" />
<polyline points="-1549,5472 -1544,5471 -1530,5467 -1521,5464 -1523,5464 -1538,5474 -1581,5504 -1662,5571 -1725,5628 -1758,5658 -1779,5679 -1781,5682 -1779,5682 -1782,5682 -1780,5682 -1779,5684 -1774,5685 -1755,5700 -1695,5733 -1610,5766 -1531,5789 -1482,5803 -1463,5811 -1453,5816 -1453,5814 -1449,5808 -1447,5807 -1451,5807 -1442,5805 " style="fill: white; stroke: black; stroke-width: 30" />
<polyline points="-287,5454 -306,5457 -318,5459 -318,5464 -315,5467 -306,5480 -265,5510 -195,5543 -107,5582 -58,5608 -22,5622 10,5631 10,5630 9,5631 3,5632 -13,5639 -54,5661 -138,5708 -223,5763 -277,5797 -299,5810 -300,5809 -300,5805 -294,5803 -290,5797 -283,5796 -281,5792 -266,5792 " style="fill: white; stroke: black; stroke-width: 30" />
<polyline points="1189,5980 1174,5971 1168,5974 1151,6006 1133,6139 1111,6384 1089,6618 1082,6769 1085,6851 1096,6869 1112,6872 1133,6858 " style="fill: white; stroke: black; stroke-width: 30" />
<polyline points="1154,6926 1139,6936 1163,6939 1252,6943 1446,6940 1689,6942 1916,6935 2090,6933 2199,6928 2241,6931 2246,6929 2244,6928 2222,6920 " style="fill: white; stroke: black; stroke-width: 30" />
<polyline points="1300,5909 1294,5912 1344,5914 1434,5907 1551,5896 1711,5901 1901,5919 2070,5944 2198,5958 2257,5969 2274,5967 2278,5966 2278,5963 2279,5968 2282,5972 2283,5982 2282,5985 2284,5988 2292,5985 2297,5986 2293,5986 2291,5988 2292,5988 2287,5998 2281,6049 2263,6181 2232,6395 2191,6636 2153,6789 2143,6892 2138,6942 2139,6952 2146,6949 2156,6942 " style="fill: white; stroke: black; stroke-width: 30" />
<polyline points="1651,6415 1650,6424 1652,6427 1650,6428 1650,6423 1653,6414 1654,6399 1655,6387 1668,6374 1681,6373 1699,6386 1713,6412 1721,6437 1713,6449 1696,6450 1664,6435 1644,6399 1633,6378 1637,6367 1659,6366 1698,6373 1740,6388 1749,6401 1738,6414 1704,6426 1652,6425 1634,6408 1631,6401 1644,6387 1669,6378 1699,6383 1721,6398 1733,6418 1729,6423 1713,6429 1674,6432 1651,6420 1648,6414 1654,6406 1669,6395 1678,6393 1679,6399 1697,6409 1712,6422 1715,6422 1705,6416 1680,6400 1651,6387 1647,6383 1651,6385 1657,6385 1670,6393 1686,6404 1696,6412 1699,6415 1704,6416 1705,6417 1714,6421 1730,6418 1739,6416 1735,6416 1718,6420 1682,6419 1638,6418 1629,6413 1632,6407 1653,6385 1678,6366 1705,6350 1715,6355 1728,6379 1734,6422 1734,6439 1726,6461 1708,6464 1681,6448 1651,6411 1648,6388 1657,6376 1665,6380 1680,6390 1706,6409 " style="fill: white; stroke: black; stroke-width: 30" />
<polyline points="1774,6394 1790,6393 1807,6389 1836,6382 1891,6377 1966,6382 2044,6393 2113,6402 2153,6408 2171,6408 2164,6409 2148,6413 " style="fill: white; stroke: black; stroke-width: 30" />
<polyline points="1187,6383 1172,6381 1166,6377 1170,6378 1199,6379 1269,6381 1365,6385 1447,6396 1507,6398 1517,6398 " style="fill: white; stroke: black; stroke-width: 30" />
<polyline points="1710,6299 1733,6285 1767,6265 1807,6240 1825,6228 1829,6234 " style="fill: white; stroke: black; stroke-width: 30" />
<polyline points="1672,6257 1663,6245 1638,6224 1614,6196 1607,6182 1615,6172 " style="fill: white; stroke: black; stroke-width: 30" />
<polyline points="1566,6321 1541,6310 1517,6286 1494,6259 1471,6246 1461,6244 1463,6244 " style="fill: white; stroke: black; stroke-width: 30" />
<polyline points="1533,6533 1510,6536 1497,6539 1481,6551 1460,6583 1452,6641 " style="fill: white; stroke: black; stroke-width: 30" />
<polyline points="1611,6547 1621,6575 1649,6606 1685,6637 1704,6671 " style="fill: white; stroke: black; stroke-width: 30" />
<polyline points="1729,6543 1749,6551 1784,6564 1838,6587 1878,6607 1889,6638 " style="fill: white; stroke: black; stroke-width: 30" />
<polyline points="1961,5760 1958,5759 1959,5756 1965,5754 1976,5746 2024,5713 2110,5642 2222,5554 2323,5477 2405,5414 2437,5383 2447,5375 2445,5376 2444,5380 2444,5380 2443,5383 2445,5381 2447,5382 2446,5381 2445,5383 2451,5381 " style="fill: white; stroke: black; stroke-width: 30" />
<polyline points="2658,6485 2616,6483 2606,6478 2598,6481 2600,6479 2598,6482 2610,6484 2640,6486 2701,6484 2786,6484 2863,6484 2921,6484 2943,6483 2949,6484 2950,6482 2955,6482 2954,6481 2959,6480 2957,6479 2954,6481 2949,6480 2951,6480 2950,6477 2957,6463 2975,6399 2988,6349 2992,6329 2989,6319 2981,6319 2979,6322 2979,6322 2983,6321 2984,6319 2983,6321 2979,6322 2983,6321 2981,6319 2975,6320 2937,6317 2869,6311 2819,6304 2778,6300 2748,6294 2733,6293 2714,6289 2690,6288 2666,6285 2656,6284 2651,6282 2653,6280 2649,6278 2648,6274 2632,6268 2631,6267 2627,6265 2628,6266 2627,6266 2624,6268 2623,6267 2624,6268 2621,6268 2622,6270 2624,6269 2623,6271 2622,6270 2621,6271 2620,6270 2622,6270 2625,6267 2626,6266 2626,6262 2629,6259 2642,6234 2646,6214 2643,6189 2639,6182 2640,6177 2643,6174 2645,6167 2644,6150 2647,6130 2647,6119 2644,6111 2644,6110 2642,6110 2635,6111 2635,6111 2636,6112 2633,6114 2633,6117 2634,6117 2642,6120 2668,6120 2723,6117 2785,6114 2852,6113 2906,6122 2949,6127 2970,6133 2993,6134 2998,6133 2996,6133 2987,6137 2982,6139 2977,6142 2971,6146 2974,6144 2981,6142 2980,6140 2986,6139 2987,6137 2986,6136 " style="fill: white; stroke: black; stroke-width: 30" />
<polyline points="1554,7128 1561,7111 1553,7115 1543,7138 1524,7200 1497,7290 1472,7361 1472,7399 1485,7421 1507,7428 1512,7428 1512,7424 " style="fill: white; stroke: black; stroke-width: 30" />
<polyline points="1447,7623 1430,7611 1434,7600 1465,7567 1510,7549 1561,7559 1585,7581 1565,7613 1514,7645 1465,7651 1439,7635 1425,7599 1437,7566 1448,7546 " style="fill: white; stroke: black; stroke-width: 30" />
<polyline points="1487,7703 1483,7708 1485,7720 1489,7764 1499,7819 1510,7868 1508,7902 1502,7920 " style="fill: white; stroke: black; stroke-width: 30" />
<polyline points="1407,7947 1401,7942 1420,7924 1475,7891 1528,7883 1573,7908 1582,7947 1587,7989 1584,7992 " style="fill: white; stroke: black; stroke-width: 30" />
<polyline points="1369,7744 1348,7746 1359,7754 1404,7773 1479,7786 1566,7784 1634,7770 1671,7734 " style="fill: white; stroke: black; stroke-width: 30" />
<polyline points="1961,7154 1956,7156 1956,7164 1976,7214 2005,7293 2033,7363 2037,7399 2038,7413 2038,7414 " style="fill: white; stroke: black; stroke-width: 30" />
<polyline points="1997,7516 2003,7488 2018,7455 2031,7439 2039,7440 2051,7456 2076,7485 2079,7507 2068,7518 2047,7531 2028,7529 2013,7521 2008,7509 2011,7496 2028,7458 2041,7443 " style="fill: white; stroke: black; stroke-width: 30" />
<polyline points="2057,7592 2055,7602 2056,7618 2060,7654 2068,7683 2070,7709 2072,7714 " style="fill: white; stroke: black; stroke-width: 30" />
<polyline points="1967,7818 1985,7803 2011,7780 2072,7742 2135,7723 2170,7730 2180,7739 2187,7746 2189,7759 2201,7778 " style="fill: white; stroke: black; stroke-width: 30" />
<polyline points="1949,7598 1939,7604 1950,7602 1983,7602 2071,7591 2193,7565 2314,7530 " style="fill: white; stroke: black; stroke-width: 30" />
<polyline points="2680,5177 2661,5164 2646,5146 2637,5121 2640,5082 2660,5048 2706,5015 2760,5001 2820,5004 2880,5030 2916,5064 2926,5112 2904,5159 2837,5212 2763,5239 2728,5249 2709,5250 2704,5251 2710,5246 2717,5243 2720,5239 2714,5242 2711,5241 2712,5243 2710,5242 2715,5240 2715,5239 2713,5240 2710,5239 2712,5241 2717,5237 2718,5242 2719,5247 2725,5263 2727,5304 2727,5352 2723,5377 2725,5383 2722,5381 2729,5378 2727,5376 2728,5376 2731,5374 2729,5377 2728,5375 2729,5376 2726,5377 2727,5378 2730,5377 " style="fill: white; stroke: black; stroke-width: 30" />
<polyline points="2644,5584 2619,5580 2609,5565 2615,5547 2644,5510 2694,5479 2729,5477 2755,5505 2762,5556 2743,5607 2707,5636 2678,5631 2650,5587 2632,5544 2623,5516 2628,5510 " style="fill: white; stroke: black; stroke-width: 30" />
<polyline points="591,5592 573,5588 581,5583 593,5572 604,5560 634,5528 688,5465 760,5376 840,5269 880,5215 884,5195 882,5194 880,5195 882,5198 880,5200 884,5205 879,5209 881,5215 889,5230 906,5257 943,5300 1013,5359 1093,5412 1164,5460 1197,5492 1223,5517 1228,5518 1230,5519 1232,5516 1227,5516 1227,5513 1224,5514 1224,5513 1222,5515 1220,5508 " style="fill: white; stroke: black; stroke-width: 30" />
<polyline points="449,5616 456,5619 493,5614 526,5612 546,5617 580,5623 637,5626 709,5621 785,5604 840,5595 " style="fill: white; stroke: black; stroke-width: 30" />
<polyline points="1143,5563 1147,5563 1151,5564 1164,5571 1182,5576 1211,5583 1248,5577 1273,5571 1277,5568 " style="fill: white; stroke: black; stroke-width: 30" />
<polyline points="829,5063 824,5054 833,5036 880,4997 931,4974 957,4986 983,5019 996,5070 994,5105 985,5124 979,5125 964,5122 945,5109 933,5096 926,5079 933,5067 " style="fill: white; stroke: black; stroke-width: 30" />
<polyline points="3202,6874 3192,6866 3190,6844 3166,6824 3115,6809 3073,6806 3053,6809 3059,6815 3066,6848 3095,6923 3131,6992 3154,7040 3152,7055 3131,7068 3109,7058 3068,7026 3027,6980 3001,6951 3000,6944 3010,6951 " style="fill: white; stroke: black; stroke-width: 30" />
<polyline points="3313,6880 3318,6861 3348,6845 3378,6848 3399,6866 3406,6902 3393,6948 3346,6996 3291,7017 3252,7015 3241,6988 3252,6954 3278,6923 3312,6914 3344,6922 3371,6947 3392,6981 3422,7009 " style="fill: white; stroke: black; stroke-width: 30" />
<polyline points="3555,6754 3562,6735 3550,6733 3547,6734 3536,6742 3520,6766 3510,6794 3501,6824 3498,6840 3502,6848 3502,6848 3509,6847 3504,6853 3491,6896 3481,6931 3484,6954 3481,6957 3482,6956 3483,6954 3479,6955 3482,6953 3488,6953 3487,6954 3489,6967 3521,6992 3551,7012 3580,7014 3608,7009 3633,6986 3662,6950 3690,6894 3696,6860 3665,6835 3639,6817 3610,6811 3605,6816 3612,6819 3634,6833 3673,6859 3716,6890 3748,6918 3786,6933 3813,6937 3826,6933 3837,6924 3849,6904 3858,6870 3840,6843 3777,6820 3716,6825 3706,6847 3720,6895 3768,6957 3832,7002 3899,7029 3954,7022 3990,6982 " style="fill: white; stroke: black; stroke-width: 30" />
<polyline points="3171,7224 3169,7235 3171,7235 3168,7233 3150,7232 3093,7235 3040,7242 3012,7261 3008,7297 3015,7351 3062,7418 3121,7477 3139,7498 3122,7509 3087,7506 3027,7494 2984,7467 2966,7456 2970,7448 2985,7436 " style="fill: white; stroke: black; stroke-width: 30" />
<polyline points="3278,7408 3284,7400 3285,7381 3264,7370 3208,7375 3157,7402 3137,7429 3139,7466 3163,7495 3225,7518 3316,7497 3419,7439 3475,7366 3482,7323 3475,7303 3453,7302 3442,7308 3440,7328 3434,7387 3441,7444 3458,7477 3487,7498 3526,7490 3551,7478 3551,7478 3544,7483 3546,7483 3543,7486 " style="fill: white; stroke: black; stroke-width: 30" />
<polyline points="3714,7235 3694,7249 3670,7285 3636,7347 3623,7395 3628,7430 3650,7451 3681,7464 3734,7450 3792,7412 3817,7383 3825,7376 3821,7379 3806,7397 3782,7432 3775,7450 3790,7451 3828,7445 3869,7428 3889,7423 3884,7429 3886,7438 3887,7455 3891,7460 3889,7462 3915,7456 " style="fill: white; stroke: black; stroke-width: 30" />
<polyline points="3876,7274 3870,7270 3892,7267 3934,7278 4003,7290 4048,7304 " style="fill: white; stroke: black; stroke-width: 30" />
<polyline points="4002,7400 4001,7402 3995,7411 4002,7439 4009,7450 4026,7454 4045,7451 4069,7443 4099,7433 4113,7433 4108,7437 4107,7440 4105,7444 4124,7452 4149,7457 4149,7464 4153,7460 " style="fill: white; stroke: black; stroke-width: 30" />
<polyline points="4263,7418 4265,7418 4277,7433 4276,7470 4274,7508 4271,7541 4253,7567 4251,7571 4252,7565 4259,7545 4281,7483 4341,7398 4399,7361 4435,7370 4453,7405 4446,7450 4414,7474 4368,7480 4338,7465 4326,7448 4337,7437 4368,7443 4447,7447 4538,7447 4638,7419 4700,7371 4708,7322 4674,7294 4641,7284 4620,7297 4601,7330 4579,7389 4558,7462 4527,7550 4505,7612 4505,7631 4510,7621 4523,7585 4540,7528 4554,7471 4544,7451 4527,7444 4516,7452 4524,7458 4531,7467 4548,7472 4551,7478 4563,7486 4593,7499 4656,7510 4707,7511 4721,7507 4712,7504 4711,7498 4705,7495 4694,7482 4664,7458 4610,7448 4592,7463 4608,7501 4641,7546 4695,7589 4758,7621 4841,7641 " style="fill: white; stroke: black; stroke-width: 30" />
<polyline points="2461,8516 2441,8509 2432,8505 2444,8501 2490,8502 2562,8518 2659,8531 2743,8537 2811,8527 " style="fill: white; stroke: black; stroke-width: 30" />
<polyline points="2584,8536 2564,8544 2537,8590 2495,8677 2494,8758 2531,8824 2574,8864 2629,8890 2695,8893 2769,8874 2834,8852 2860,8850 2855,8853 2848,8861 " style="fill: white; stroke: black; stroke-width: 30" />
<polyline points="2807,8762 2813,8763 2821,8770 2870,8784 2919,8799 2977,8801 3008,8801 3003,8804 2999,8805 2993,8811 2989,8821 2972,8852 2952,8893 2936,8929 2927,8956 " style="fill: white; stroke: black; stroke-width: 30" />
<polyline points="2984,8932 3001,8930 3063,8903 3158,8831 3263,8722 3317,8643 3325,8617 3322,8623 3307,8653 3299,8734 3309,8801 3334,8850 3349,8875 3355,8881 3353,8874 " style="fill: white; stroke: black; stroke-width: 30" />
<polyline points="3159,8784 3134,8779 3138,8774 3152,8773 3186,8775 3245,8779 3324,8774 3391,8764 3422,8754 3428,8751 3431,8747 3426,8751 3424,8754 3412,8771 3394,8806 3390,8842 3405,8871 3446,8899 3514,8888 3576,8854 3603,8828 3607,8827 3601,8835 3601,8849 3606,8877 3613,8899 " style="fill: white; stroke: black; stroke-width: 30" />
<polyline points="3766,8800 3739,8796 3730,8795 3728,8798 3696,8829 3669,8871 3667,8888 3655,8901 3652,8899 3664,8891 3665,8879 3676,8864 3696,8846 3756,8837 3823,8838 3890,8829 3938,8806 3945,8795 3933,8788 3920,8793 3906,8802 3877,8843 3846,8884 3820,8913 3788,8934 3775,8933 3775,8924 3782,8921 3809,8907 3871,8891 3951,8880 4010,8861 4044,8827 4032,8816 4008,8796 3957,8808 3929,8844 3933,8895 3976,8923 4043,8918 4117,8857 " style="fill: white; stroke: black; stroke-width: 30" />
<polyline points="4227,8662 4213,8628 4203,8626 4170,8664 4124,8740 4089,8833 4072,8880 4078,8897 4098,8897 4135,8896 4184,8891 4194,8898 4190,8903 4181,8918 4199,8927 4222,8934 4258,8919 4269,8914 4264,8916 4265,8923 4265,8938 4300,8944 4326,8937 4316,8937 4315,8939 4313,8949 4325,8965 " style="fill: white; stroke: black; stroke-width: 30" />
<polyline points="3211,9215 3218,9199 3219,9183 3197,9172 3131,9183 3048,9229 2987,9284 2987,9318 3023,9348 3115,9367 3232,9338 " style="fill: white; stroke: black; stroke-width: 30" />
<polyline points="3244,9337 3254,9292 3274,9253 3307,9240 3353,9257 3375,9316 3370,9368 3348,9394 3329,9381 3297,9343 3271,9298 3261,9262 3270,9259 " style="fill: white; stroke: black; stroke-width: 30" />
<polyline points="3406,9414 3397,9395 3429,9348 3470,9325 3520,9328 3547,9354 3542,9383 3532,9414 3553,9406 " style="fill: white; stroke: black; stroke-width: 30" />
<polyline points="3760,9188 3756,9173 3751,9177 3719,9213 3653,9298 3601,9374 3576,9417 3585,9416 3599,9385 3647,9338 3711,9309 3775,9310 3839,9321 3870,9331 " style="fill: white; stroke: black; stroke-width: 30" />
<polyline points="3799,9305 3731,9315 3708,9324 3717,9341 3760,9377 3838,9396 " style="fill: white; stroke: black; stroke-width: 30" />
<polyline points="3878,9396 3914,9385 3967,9377 4041,9366 4103,9344 4147,9311 4161,9278 " style="fill: white; stroke: black; stroke-width: 30" />
<polyline points="4048,9243 4026,9240 4012,9249 4006,9292 4020,9337 4045,9381 4081,9412 " style="fill: white; stroke: black; stroke-width: 30" />
<polyline points="4467,9201 4452,9224 4439,9272 4433,9335 4437,9383 4457,9422 4471,9437 " style="fill: white; stroke: black; stroke-width: 30" />
<polyline points="4407,9189 4407,9183 4437,9187 4483,9195 4556,9198 4646,9196 " style="fill: white; stroke: black; stroke-width: 30" />
<polyline points="4624,9303 4616,9311 4609,9327 4589,9376 4583,9430 4599,9463 4620,9487 4649,9486 4695,9439 4749,9368 4778,9308 4781,9285 4773,9279 4762,9280 4731,9264 " style="fill: white; stroke: black; stroke-width: 30" />

</svg>