<?xml version="1.0" standalone="no"?>
<!DOCTYPE svg PUBLIC "-//W3C//DTD SVG 1.1//EN" "http://www.w3.org/Graphics/SVG/1.1/DTD/svg11.dtd">
<svg width="210mm" height="297mm" viewBox="-7000 500 14000 20000" version="1.1" xmlns="http://www.w3.org/2000/svg">

<polyline points="-509,3003 -631,2878 -766,2782 -923,2710 -1124,2667 -1408,2665 -1777,2734 -2164,2838 -2510,2985 -2844,3226 -3150,3538 -3395,3886 -3547,4246 -3583,4588 -3519,4934 -3395,5294 -3203,5647 -2959,5982 -2622,6289 -2215,6516 -1717,6663 -1116,6704 -465,6647 207,6496 799,6268 1292,5996 1634,5683 1839,5323 1930,4936 1933,4531 1845,4125 1640,3720 1319,3336 891,3015 386,2772 -122,2598 -603,2514 " style="fill: white; stroke: black; stroke-width: 30" />
<polyline points="-1559,3417 -1603,3380 -1698,3359 -1861,3383 -2059,3496 -2237,3682 -2338,3859 -2298,3970 -2164,4030 -1977,4018 -1797,3981 " style="fill: white; stroke: black; stroke-width: 30" />
<polyline points="-1820,3648 -1843,3626 -1823,3618 -1780,3645 -1699,3704 -1625,3765 -1599,3817 -1625,3891 -1698,3999 -1719,4066 " style="fill: white; stroke: black; stroke-width: 30" />
<polyline points="-1545,3999 -1538,3996 -1505,3951 -1464,3846 -1418,3728 -1377,3672 -1358,3667 -1342,3709 -1305,3786 -1227,3820 -1130,3798 -1066,3755 -1046,3726 -1046,3716 -1046,3708 -1043,3709 -1051,3728 -1090,3805 -1110,3875 -1098,3917 -1055,3929 -954,3898 -846,3847 -809,3837 -810,3850 -826,3897 -833,3957 " style="fill: white; stroke: black; stroke-width: 30" />
<polyline points="-532,3750 -562,3742 -570,3750 -606,3835 -633,3994 -652,4137 -680,4226 -711,4257 -741,4248 -750,4203 -686,4028 -546,3822 -440,3740 -402,3732 -397,3755 -428,3834 -506,3923 -602,3977 -671,3958 -696,3875 -671,3785 -569,3715 " style="fill: white; stroke: black; stroke-width: 30" />
<polyline points="-132,3753 -184,3821 -236,3935 -312,4060 -371,4151 -398,4181 -393,4167 -355,4045 -253,3832 -162,3721 -103,3697 -73,3732 -59,3808 -74,3886 -115,3927 -207,3934 -268,3916 -268,3904 -214,3855 -102,3811 " style="fill: white; stroke: black; stroke-width: 30" />
<polyline points="217,3864 219,3868 258,3863 324,3848 382,3818 399,3784 354,3730 245,3716 175,3726 181,3762 249,3852 384,3952 521,3996 " style="fill: white; stroke: black; stroke-width: 30" />
<polyline points="-2043,5272 -2053,5269 -2052,5265 -2030,5252 -1940,5223 -1808,5219 -1708,5270 -1688,5367 -1756,5478 -1853,5572 -1880,5592 -1841,5575 " style="fill: white; stroke: black; stroke-width: 30" />
<polyline points="-1938,5377 -1953,5377 -1924,5384 -1838,5402 -1722,5410 -1616,5397 -1559,5373 -1557,5367 -1565,5371 -1599,5399 -1611,5437 -1599,5477 -1545,5490 -1465,5458 -1413,5419 -1412,5423 -1440,5464 -1451,5539 " style="fill: white; stroke: black; stroke-width: 30" />
<polyline points="-1185,5404 -1199,5386 -1239,5373 -1290,5386 -1305,5400 -1282,5418 -1227,5439 -1193,5458 -1196,5479 -1206,5523 -1217,5611 -1219,5704 -1229,5773 -1250,5804 -1277,5797 -1325,5750 -1345,5645 -1305,5570 -1221,5530 -1108,5504 -1005,5475 -969,5443 -1012,5410 -1110,5417 -1180,5456 -1166,5514 -1059,5560 -892,5538 " style="fill: white; stroke: black; stroke-width: 30" />
<polyline points="-655,5172 -687,5150 -696,5156 -729,5226 -777,5363 -826,5502 -838,5563 -829,5570 -795,5550 -719,5513 -686,5512 -665,5549 " style="fill: white; stroke: black; stroke-width: 30" />
<polyline points="-499,5516 -510,5506 -515,5496 -550,5487 -640,5506 -693,5548 -683,5582 -616,5602 -514,5566 -464,5525 -490,5488 -563,5474 -613,5465 -609,5442 " style="fill: white; stroke: black; stroke-width: 30" />
<polyline points="-551,5271 -564,5264 -559,5262 -527,5264 -447,5267 -351,5280 " style="fill: white; stroke: black; stroke-width: 30" />
<polyline points="-415,5522 -415,5546 -401,5551 -365,5530 -308,5467 -293,5438 -295,5437 -287,5451 -227,5471 -144,5479 -87,5475 -79,5476 -108,5520 -166,5622 -202,5716 -208,5755 " style="fill: white; stroke: black; stroke-width: 30" />
<polyline points="64,5162 40,5141 35,5149 36,5156 43,5193 57,5264 " style="fill: white; stroke: black; stroke-width: 30" />
<polyline points="177,5497 199,5516 227,5526 233,5519 202,5477 122,5452 83,5473 87,5531 143,5583 207,5603 213,5615 167,5709 117,5845 99,5935 97,5957 89,5906 85,5736 " style="fill: white; stroke: black; stroke-width: 30" />
<polyline points="755,4983 680,5052 525,5230 430,5416 408,5534 420,5584 465,5577 612,5467 " style="fill: white; stroke: black; stroke-width: 30" />
<polyline points="818,5374 744,5374 627,5378 506,5413 471,5459 506,5526 631,5562 794,5522 850,5455 774,5422 657,5457 623,5513 676,5577 833,5592 949,5574 931,5576 889,5600 869,5624 890,5630 991,5580 " style="fill: white; stroke: black; stroke-width: 30" />
<polyline points="1194,5193 1196,5253 " style="fill: white; stroke: black; stroke-width: 30" />
<polyline points="1430,5180 1370,5195 1252,5342 1168,5524 1147,5650 1119,5701 1076,5652 1037,5587 1047,5563 1288,5496 1884,5469 " style="fill: white; stroke: black; stroke-width: 30" />
<polyline points="-1789,6038 -1796,6027 -1794,6028 -1791,6034 -1795,6058 -1816,6153 -1824,6254 -1775,6296 -1666,6296 -1523,6264 -1409,6233 -1339,6246 " style="fill: white; stroke: black; stroke-width: 30" />
<polyline points="-1858,5977 -1869,5962 -1874,5953 -1881,5952 -1877,5953 -1875,5957 -1861,5962 -1791,5977 -1665,5994 -1492,6013 " style="fill: white; stroke: black; stroke-width: 30" />
<polyline points="-1329,6022 -1339,6020 -1332,6028 -1289,6062 -1212,6121 -1158,6180 -1172,6231 -1260,6315 -1344,6370 -1360,6376 -1349,6368 " style="fill: white; stroke: black; stroke-width: 30" />
<polyline points="-629,6090 -639,6085 -656,6075 -669,6069 -720,6070 -819,6108 -900,6164 -915,6210 -878,6255 -798,6305 -759,6338 -785,6357 -879,6378 -971,6388 -982,6381 -944,6351 " style="fill: white; stroke: black; stroke-width: 30" />
<polyline points="-369,6014 -422,6018 -497,6063 -562,6164 -590,6289 -574,6364 -559,6385 -571,6358 -596,6263 -613,6224 -611,6223 -604,6227 -572,6241 -501,6263 " style="fill: white; stroke: black; stroke-width: 30" />
<polyline points="-341,6228 -352,6197 -339,6181 -316,6185 -297,6227 -304,6325 -326,6397 -343,6408 -365,6384 -394,6324 -403,6305 -400,6307 -377,6313 -322,6325 -264,6335 -224,6358 " style="fill: white; stroke: black; stroke-width: 30" />
<polyline points="-256,6016 -289,5976 -286,5972 -257,5983 -198,6015 -125,6079 -81,6158 " style="fill: white; stroke: black; stroke-width: 30" />
<polyline points="-142,6336 -146,6319 -142,6293 -130,6263 -112,6241 -98,6233 -73,6246 " style="fill: white; stroke: black; stroke-width: 30" />
<polyline points="144,6069 135,6065 123,6096 104,6188 92,6280 78,6345 61,6392 57,6418 81,6417 147,6363 " style="fill: white; stroke: black; stroke-width: 30" />
<polyline points="219,6212 209,6215 203,6222 180,6250 116,6290 78,6316 89,6322 152,6332 257,6326 342,6310 371,6280 336,6250 288,6242 267,6256 269,6282 285,6319 290,6336 281,6348 278,6349 292,6346 342,6338 408,6320 430,6311 421,6312 413,6310 414,6311 422,6310 424,6317 422,6323 418,6333 417,6344 427,6363 " style="fill: white; stroke: black; stroke-width: 30" />
<polyline points="-2871,4407 -2873,4398 -2844,4399 -2729,4406 -2506,4419 -2148,4445 -1612,4457 -906,4449 -113,4435 686,4424 1383,4397 " style="fill: white; stroke: black; stroke-width: 30" />
<polyline points="-5422,2568 " style="fill: white; stroke: black; stroke-width: 30" />
<polyline points="2308,2999 2276,3007 2255,3009 2252,3008 2252,3007 2253,3010 2265,3012 2305,3020 2390,3027 2524,3022 2649,3017 2735,3018 2774,3017 2786,3020 2788,3019 2787,3019 2783,3020 2784,3020 2783,3019 2785,3019 2787,3015 2789,3013 2789,3004 2796,2970 2804,2924 2812,2864 2812,2826 2811,2815 2811,2809 2810,2812 2812,2809 2810,2814 2809,2814 2807,2818 2810,2816 2811,2818 2810,2817 2807,2819 2806,2816 2792,2822 2738,2823 2656,2817 2550,2808 2425,2790 2316,2779 2250,2768 2224,2760 2223,2756 2227,2753 2228,2754 2226,2755 2229,2754 2226,2754 2226,2754 2226,2754 2225,2757 2226,2754 2228,2754 2228,2753 2228,2752 2229,2749 2232,2747 2233,2742 2251,2716 2272,2680 2288,2655 2300,2625 2308,2603 2320,2568 2323,2559 2322,2558 2321,2560 2320,2560 2317,2561 2318,2560 2319,2560 2317,2559 2318,2560 2317,2560 2318,2560 2321,2560 2326,2562 2356,2563 2445,2567 2570,2573 2711,2576 2824,2576 2871,2577 2869,2577 2863,2578 2857,2577 2858,2576 2862,2574 2865,2574 2866,2573 2869,2575 2872,2572 " style="fill: white; stroke: black; stroke-width: 30" />
<polyline points="3941,2968 3942,2948 3933,2935 3901,2923 3823,2936 3736,2990 3665,3070 3661,3112 3705,3147 3800,3167 3906,3150 3967,3117 " style="fill: white; stroke: black; stroke-width: 30" />
<polyline points="3742,3040 3756,3034 3786,3026 3826,3021 3855,3025 3888,3040 3900,3067 3892,3116 3880,3162 3891,3170 " style="fill: white; stroke: black; stroke-width: 30" />
<polyline points="3998,3118 3977,3149 3984,3161 3997,3163 4008,3146 4013,3119 4019,3083 4024,3072 4041,3064 4079,3074 4123,3087 4173,3077 4203,3053 4198,3045 4169,3054 4144,3076 4132,3103 4143,3126 4177,3131 4238,3112 4278,3084 4272,3091 4251,3111 4242,3137 " style="fill: white; stroke: black; stroke-width: 30" />
<polyline points="4335,3105 4318,3090 4310,3088 4315,3089 4315,3092 4319,3100 4315,3135 4312,3197 4312,3269 4319,3326 4314,3367 4308,3386 4312,3371 4318,3321 4331,3223 4346,3120 4359,3063 4371,3044 4380,3054 4412,3098 4423,3160 4421,3200 4407,3201 4367,3174 4327,3108 4336,3057 " style="fill: white; stroke: black; stroke-width: 30" />
<polyline points="4503,3068 4484,3103 4465,3191 4454,3293 4450,3347 4449,3350 4450,3297 4458,3192 4485,3076 4518,3039 4554,3044 4582,3080 4565,3135 4530,3172 4485,3187 4464,3173 4475,3140 4526,3096 " style="fill: white; stroke: black; stroke-width: 30" />
<polyline points="4691,3013 4672,3015 " style="fill: white; stroke: black; stroke-width: 30" />
<polyline points="4674,3095 4684,3098 4698,3097 4720,3096 4735,3082 4746,3062 4731,3047 4691,3035 4629,3050 4604,3088 4619,3131 4678,3176 4743,3197 4790,3188 " style="fill: white; stroke: black; stroke-width: 30" />

</svg>