<?xml version="1.0" standalone="no"?>
<!DOCTYPE svg PUBLIC "-//W3C//DTD SVG 1.1//EN" "http://www.w3.org/Graphics/SVG/1.1/DTD/svg11.dtd">
<svg width="210mm" height="297mm" viewBox="-7000 500 14000 20000" version="1.1" xmlns="http://www.w3.org/2000/svg">

<polyline points="-2115,3395 -1944,3290 -1712,3231 -1451,3243 -1215,3341 -1082,3502 -1090,3693 -1216,3863 -1439,3976 -1654,4007 -1836,3956 -1973,3842 -2073,3704 -2095,3576 " style="fill: white; stroke: black; stroke-width: 30" />
<polyline points="10,3664 46,3522 204,3426 475,3414 798,3477 1105,3601 1295,3766 1303,3942 1161,4101 912,4228 622,4281 348,4264 115,4174 -39,4043 -96,3889 -22,3725 " style="fill: white; stroke: black; stroke-width: 30" />
<polyline points="-2453,5107 -2466,5181 -2440,5325 -2362,5525 -2192,5753 -1944,5971 -1592,6144 -1134,6261 -580,6305 -19,6277 470,6175 845,6015 1072,5819 1168,5618 1206,5448 1210,5340 1204,5280 1189,5252 " style="fill: white; stroke: black; stroke-width: 30" />
<polyline points="-3433,3224 -3242,2938 -3006,2664 -2697,2414 -2294,2207 -1808,2051 -1242,1975 -612,1983 48,2064 676,2216 1251,2443 1767,2768 2192,3176 2515,3641 2717,4149 2802,4698 2772,5264 2635,5825 2390,6342 2043,6827 1589,7258 1053,7605 494,7849 -135,7984 -795,8007 -1421,7915 -2010,7709 -2565,7399 -3068,7018 -3486,6574 -3817,6078 -4050,5545 -4161,4974 -4163,4410 -4068,3842 -3839,3296 -3462,2765 -2900,2321 " style="fill: white; stroke: black; stroke-width: 30" />

</svg>