<?xml version="1.0" standalone="no"?>
<!DOCTYPE svg PUBLIC "-//W3C//DTD SVG 1.1//EN" "http://www.w3.org/Graphics/SVG/1.1/DTD/svg11.dtd">
<svg width="210mm" height="297mm" viewBox="-7000 500 14000 20000" version="1.1" xmlns="http://www.w3.org/2000/svg">

<polyline points="3224,6129 " style="fill: white; stroke: black; stroke-width: 30" />
<polyline points="-2977,1780 -2985,1781 -2993,1780 -2998,1785 -3004,1782 -3006,1783 -3008,1776 -3004,1781 -3003,1781 -3003,1780 -2985,1777 -2947,1765 -2888,1742 -2837,1720 -2813,1714 -2801,1713 -2790,1711 -2791,1707 -2791,1705 -2792,1703 -2791,1705 -2792,1706 -2789,1708 -2795,1708 -2820,1707 " style="fill: white; stroke: black; stroke-width: 30" />
<polyline points="-2901,1733 -2902,1731 -2900,1727 -2897,1728 -2888,1732 -2876,1745 -2856,1783 -2825,1863 -2784,1971 -2742,2060 -2710,2109 -2692,2139 -2688,2143 -2685,2147 -2686,2146 -2683,2151 -2684,2149 -2685,2150 -2687,2146 -2688,2147 -2688,2143 -2689,2141 -2691,2137 -2686,2130 -2655,2072 -2597,1969 -2520,1850 -2452,1770 -2414,1727 -2400,1712 -2394,1698 -2395,1698 -2393,1699 -2392,1701 -2393,1699 -2392,1702 -2390,1700 -2389,1701 -2386,1698 -2385,1699 -2385,1698 -2384,1699 -2388,1690 " style="fill: white; stroke: black; stroke-width: 30" />
<polyline points="-2541,1666 -2548,1670 -2547,1660 -2546,1653 -2545,1647 -2542,1648 -2525,1647 -2474,1642 -2405,1639 -2351,1633 -2314,1634 -2295,1638 -2290,1639 -2291,1640 -2289,1641 -2293,1640 -2292,1638 -2293,1639 -2293,1637 -2294,1638 -2294,1636 " style="fill: white; stroke: black; stroke-width: 30" />
<polyline points="-2223,1331 -2228,1330 -2225,1334 -2225,1330 -2225,1330 -2219,1364 -2222,1405 -2221,1414 -2215,1416 -2210,1417 -2208,1414 -2204,1410 -2199,1401 -2186,1371 -2160,1336 -2142,1309 -2130,1298 -2122,1294 -2117,1295 -2105,1322 -2095,1353 -2091,1385 -2089,1403 -2088,1405 -2089,1401 -2090,1398 -2090,1394 -2089,1396 -2086,1398 -2085,1402 -2082,1402 -2085,1397 -2086,1398 -2090,1394 -2085,1380 " style="fill: white; stroke: black; stroke-width: 30" />
<polyline points="-2956,1297 -2961,1296 -2965,1299 -2972,1295 -2974,1290 -2974,1287 -2968,1287 -2955,1286 -2919,1283 -2844,1286 -2737,1280 -2615,1275 -2498,1260 -2425,1252 -2399,1244 -2394,1246 -2392,1242 -2392,1241 -2389,1241 -2390,1245 -2390,1240 -2389,1244 -2391,1239 -2392,1241 -2392,1239 -2393,1240 -2391,1239 -2392,1243 -2391,1243 -2394,1245 -2394,1247 -2394,1251 -2399,1243 -2400,1243 -2401,1237 -2400,1240 -2399,1236 -2398,1239 -2396,1238 -2397,1235 -2391,1236 -2392,1232 -2394,1168 -2389,1121 -2386,1093 -2381,1065 -2381,1059 -2383,1060 -2384,1059 -2388,1056 -2384,1058 -2385,1059 -2384,1059 -2387,1058 -2388,1059 -2392,1057 -2392,1057 -2406,1057 -2442,1049 -2522,1032 -2589,1040 -2653,1054 -2701,1047 -2736,1047 -2757,1048 -2802,1053 -2858,1062 -2896,1068 -2906,1064 -2911,1058 -2912,1055 -2910,1063 -2908,1066 -2909,1065 -2909,1065 -2908,1072 -2907,1068 -2908,1069 -2906,1068 -2906,1072 -2905,1070 -2905,1068 -2908,1061 -2906,1062 -2901,1066 -2901,1065 -2894,1072 -2895,1072 -2893,1072 -2894,1070 -2894,1067 -2895,1065 -2893,1065 -2896,1060 -2894,1055 -2899,1007 -2906,952 -2914,888 -2925,822 -2932,803 -2932,807 -2932,810 -2933,804 -2935,805 -2934,808 -2933,811 -2933,806 -2931,814 -2931,813 -2932,811 -2931,808 -2928,810 -2914,810 -2874,812 -2801,815 -2722,818 -2647,815 -2590,825 -2546,829 -2511,839 -2485,840 -2470,838 -2462,839 -2461,838 -2455,839 -2453,839 -2449,842 -2452,838 -2451,838 -2452,841 -2451,840 -2452,834 -2449,830 -2449,814 " style="fill: white; stroke: black; stroke-width: 30" />
<polyline points="-457,1241 -458,1231 -468,1225 -492,1219 -528,1218 -582,1224 -647,1250 -706,1286 -732,1323 -737,1358 -721,1397 -690,1426 -624,1448 -525,1450 -422,1421 -343,1381 -298,1331 -293,1313 -308,1293 -338,1272 -376,1250 -403,1241 -423,1233 -432,1234 -431,1233 -431,1234 -430,1235 -429,1238 -424,1238 -416,1247 -390,1263 " style="fill: white; stroke: black; stroke-width: 30" />
<polyline points="-172,1282 -173,1290 -175,1301 -181,1335 -195,1398 -201,1452 -197,1470 -195,1473 -190,1464 -188,1434 -191,1350 -192,1290 -201,1259 -206,1248 -206,1246 -205,1248 -205,1247 -205,1249 -205,1249 -205,1253 -203,1255 -191,1278 -162,1308 -122,1328 -68,1339 0,1336 84,1307 162,1264 209,1216 218,1202 212,1201 205,1207 200,1213 187,1242 185,1283 189,1349 193,1394 203,1432 209,1449 213,1465 " style="fill: white; stroke: black; stroke-width: 30" />
<polyline points="275,1223 268,1220 267,1216 269,1220 279,1218 317,1222 376,1226 445,1237 498,1244 524,1251 525,1251 525,1251 522,1250 515,1249 " style="fill: white; stroke: black; stroke-width: 30" />
<polyline points="284,1209 282,1238 277,1299 261,1376 259,1419 265,1453 272,1467 281,1475 292,1475 315,1477 349,1474 386,1474 399,1473 402,1474 403,1472 411,1473 439,1472 467,1465 " style="fill: white; stroke: black; stroke-width: 30" />
<polyline points="274,1346 260,1351 260,1350 265,1346 269,1341 280,1341 306,1339 360,1343 446,1353 515,1363 564,1379 " style="fill: white; stroke: black; stroke-width: 30" />
<polyline points="648,1517 653,1503 646,1481 636,1425 638,1356 652,1302 664,1256 668,1237 664,1230 658,1226 648,1219 640,1211 638,1208 638,1211 637,1211 637,1213 636,1217 639,1229 655,1275 678,1327 720,1382 767,1425 827,1460 875,1478 906,1477 947,1468 1006,1420 1052,1352 1070,1273 1050,1230 1015,1198 981,1177 962,1169 956,1162 953,1161 958,1159 956,1163 960,1163 954,1167 " style="fill: white; stroke: black; stroke-width: 30" />
<polyline points="-523,1763 -531,1786 -554,1858 -593,1955 -614,2022 -605,2059 -568,2069 -506,2073 -451,2070 -411,2072 -366,2075 -330,2078 -314,2076 -300,2069 -294,2062 -295,2058 -300,2041 " style="fill: white; stroke: black; stroke-width: 30" />
<polyline points="-266,1961 -253,1968 -241,1973 -224,1977 -203,1978 -177,1986 -169,1993 -169,2008 -182,2032 -203,2065 -225,2092 -238,2103 -243,2105 -244,2108 -245,2106 -245,2108 -244,2106 -244,2107 -243,2108 -242,2108 " style="fill: white; stroke: black; stroke-width: 30" />
<polyline points="188,2030 181,2022 165,2016 129,2011 60,2016 -27,2038 -92,2062 -120,2082 -115,2093 -78,2126 0,2165 100,2193 200,2190 283,2170 330,2137 342,2109 333,2069 300,2041 263,2032 220,2031 211,2029 212,2028 214,2025 217,2024 219,2024 235,2024 " style="fill: white; stroke: black; stroke-width: 30" />
<polyline points="671,2089 664,2087 661,2079 659,2074 649,2062 631,2054 594,2054 541,2066 495,2082 471,2099 467,2108 478,2126 502,2147 532,2168 576,2184 635,2202 " style="fill: white; stroke: black; stroke-width: 30" />
<polyline points="900,2061 881,2071 849,2088 815,2104 780,2120 756,2133 733,2148 721,2159 723,2164 746,2190 807,2221 889,2233 967,2217 " style="fill: white; stroke: black; stroke-width: 30" />
<polyline points="1046,2072 1034,2076 1017,2087 991,2128 981,2173 1001,2215 1053,2242 1130,2234 1205,2201 1253,2167 1261,2151 1260,2151 1253,2156 1248,2162 1243,2172 1230,2195 1228,2204 1230,2223 1243,2253 " style="fill: white; stroke: black; stroke-width: 30" />
<polyline points="1353,2176 1344,2181 1346,2200 1357,2263 1363,2350 1370,2426 1377,2469 1379,2479 1378,2477 1379,2468 1383,2409 1387,2308 1388,2217 1390,2155 1398,2102 1418,2074 1461,2058 1511,2081 1531,2122 1520,2167 1493,2199 1460,2217 1428,2214 1408,2200 1390,2174 1390,2167 1390,2135 " style="fill: white; stroke: black; stroke-width: 30" />
<polyline points="1664,2131 1645,2130 1633,2129 1627,2132 1628,2133 1631,2138 1630,2150 1640,2171 1658,2188 1689,2210 1719,2223 1759,2228 1804,2216 1851,2190 1891,2147 1904,2122 1900,2112 1897,2109 1897,2105 1898,2106 1900,2103 1903,2103 1900,2103 1896,2108 1893,2113 1893,2117 1893,2120 1891,2128 1873,2171 1838,2269 1801,2389 1771,2511 1761,2580 1759,2628 1761,2663 1762,2669 1761,2668 1759,2671 1757,2671 1756,2673 1752,2673 1754,2670 1755,2667 1755,2668 1756,2666 1757,2667 1757,2666 1757,2668 1760,2664 1762,2665 1764,2651 " style="fill: white; stroke: black; stroke-width: 30" />
<polyline points="2529,1291 2520,1291 2519,1288 2525,1286 2527,1288 2531,1285 2531,1287 2546,1283 2570,1279 2608,1270 2649,1264 2703,1261 2750,1265 2786,1281 2816,1294 2845,1306 2879,1318 2899,1330 2914,1342 2934,1358 2958,1377 2982,1386 3008,1397 3023,1410 3041,1426 3061,1441 3085,1459 3111,1479 3137,1505 3152,1532 3163,1538 3171,1548 3183,1566 3194,1581 3206,1600 3224,1614 3238,1628 3255,1644 3263,1664 3272,1679 3292,1692 3331,1716 3366,1731 3395,1745 3408,1746 3416,1756 3432,1758 3444,1764 3468,1764 3501,1774 3528,1785 3559,1791 3576,1796 3588,1802 3601,1811 3627,1818 3647,1822 3661,1826 3684,1832 3701,1838 3717,1838 3740,1842 3762,1839 3786,1843 3812,1848 3839,1847 3872,1844 3897,1844 3916,1832 3929,1826 3942,1817 3959,1825 3991,1830 4016,1836 4023,1831 4025,1832 4025,1833 4030,1831 4035,1827 4035,1830 4035,1830 4032,1837 4034,1837 " style="fill: white; stroke: black; stroke-width: 30" />
<polyline points="3938,1422 3930,1423 3927,1418 3927,1411 3916,1413 3897,1418 3880,1405 3857,1400 3835,1387 3809,1384 3780,1378 3759,1371 3750,1361 3736,1355 3718,1351 3689,1358 3675,1352 3661,1345 3627,1344 3585,1347 3550,1352 3523,1357 3494,1367 3484,1364 3462,1368 3432,1375 3403,1387 3376,1402 3358,1409 3346,1416 3335,1419 3312,1434 3284,1449 3264,1465 3249,1472 3242,1479 3221,1505 3208,1523 3192,1539 3179,1556 3166,1571 3155,1587 3130,1609 3114,1626 3100,1635 3090,1644 3085,1647 3077,1653 3061,1661 3039,1677 3017,1688 2998,1698 2975,1711 2961,1721 2935,1730 2918,1736 2889,1747 2858,1756 2845,1757 2830,1755 2821,1751 2806,1760 2785,1764 2754,1766 2717,1766 2694,1767 2674,1769 2668,1773 2659,1775 2625,1781 2595,1780 2571,1781 2563,1779 2562,1780 2563,1777 2565,1778 2565,1776 2567,1776 2567,1779 2572,1777 2572,1777 2579,1778 2599,1779 " style="fill: white; stroke: black; stroke-width: 30" />
<polyline points="3196,1145 3196,1144 3192,1147 3193,1141 3184,1150 3178,1157 3161,1189 3144,1244 3127,1318 3116,1409 3103,1517 3095,1631 3081,1722 3075,1788 3079,1839 3083,1879 3078,1883 3074,1883 3067,1884 3063,1887 3065,1883 3062,1885 3062,1883 3064,1882 3062,1883 3064,1881 3063,1880 3067,1878 3070,1878 3077,1878 3087,1849 " style="fill: white; stroke: black; stroke-width: 30" />
<polyline points="2417,1063 2411,1064 2409,1072 2408,1135 2403,1238 2399,1368 2376,1544 2347,1753 2337,1878 2339,1955 2336,1984 2335,1987 2334,1983 2334,1979 2332,1975 2330,1975 2326,1975 2324,1975 2324,1970 2327,1967 2345,1963 2430,1961 2600,1960 2852,1980 3120,2017 3381,2043 3610,2074 3788,2109 3907,2138 4003,2154 4075,2162 4094,2166 4094,2163 4081,2179 4074,2183 4071,2189 4073,2186 4079,2184 4078,2190 4082,2193 4090,2186 " style="fill: white; stroke: black; stroke-width: 30" />
<polyline points="-2567,3752 -2573,3752 -2571,3749 -2562,3743 -2538,3721 -2506,3676 -2456,3574 -2415,3489 -2383,3435 -2367,3410 -2366,3407 -2366,3408 -2368,3406 -2369,3409 -2371,3409 -2373,3419 -2379,3439 -2383,3466 -2377,3531 -2362,3576 -2340,3641 " style="fill: white; stroke: black; stroke-width: 30" />
<polyline points="-2208,3455 -2220,3433 -2209,3387 -2181,3360 -2145,3358 -2117,3389 -2112,3430 -2124,3454 -2138,3454 -2157,3435 -2177,3396 -2193,3381 -2205,3376 -2205,3379 " style="fill: white; stroke: black; stroke-width: 30" />
<polyline points="-2172,3611 -2185,3598 -2183,3581 -2166,3561 -2150,3557 -2132,3585 -2122,3628 -2122,3658 -2129,3662 -2138,3656 -2153,3624 -2167,3594 -2174,3570 -2170,3569 -2163,3567 " style="fill: white; stroke: black; stroke-width: 30" />
<polyline points="-1927,3403 -1918,3402 -1925,3415 -1932,3458 -1942,3533 -1951,3597 -1948,3619 -1945,3619 -1944,3602 -1941,3551 -1938,3473 -1934,3410 -1933,3379 -1933,3375 -1935,3376 -1936,3384 -1937,3401 -1936,3436 -1931,3480 -1909,3532 -1877,3594 -1838,3629 -1800,3642 -1746,3629 -1682,3585 -1633,3509 -1610,3407 -1629,3346 -1666,3323 -1715,3322 -1747,3323 -1751,3322 -1749,3316 -1747,3310 -1745,3306 -1744,3307 -1741,3307 -1734,3323 " style="fill: white; stroke: black; stroke-width: 30" />
<polyline points="-2220,4020 -2222,4015 -2224,4008 -2224,4005 -2223,4002 -2218,4009 -2175,4004 -2090,3988 -1999,3973 -1923,3969 " style="fill: white; stroke: black; stroke-width: 30" />
<polyline points="-2163,4057 -2152,4046 -2142,4045 -2135,4054 -2131,4062 -2127,4079 -2127,4096 -2139,4159 -2153,4241 -2160,4302 -2145,4329 -2120,4341 -2077,4333 -2013,4308 -1952,4291 -1899,4283 -1850,4276 -1831,4269 -1823,4266 -1821,4262 -1823,4263 -1826,4265 -1825,4266 -1825,4269 -1825,4273 " style="fill: white; stroke: black; stroke-width: 30" />
<polyline points="-1818,4214 -1846,4232 -1839,4244 -1809,4270 -1769,4289 -1739,4307 -1733,4312 -1736,4318 -1747,4332 -1764,4350 -1781,4358 -1793,4369 -1793,4371 -1794,4371 -1789,4368 -1785,4369 " style="fill: white; stroke: black; stroke-width: 30" />
<polyline points="2584,2344 " style="fill: white; stroke: black; stroke-width: 30" />
<polyline points="2375,2398 2369,2400 2375,2400 2386,2401 2410,2398 2447,2398 2535,2389 2716,2378 2993,2387 3294,2405 3579,2429 3825,2461 4010,2478 4110,2491 4126,2491 4128,2499 4129,2499 4123,2507 4120,2509 4113,2513 4110,2510 4097,2507 " style="fill: white; stroke: black; stroke-width: 30" />
<polyline points="-1319,4134 -1312,4112 -1299,4083 -1296,4079 -1300,4081 -1322,4098 -1356,4157 -1385,4226 -1379,4274 -1348,4304 -1284,4308 -1221,4278 -1187,4243 -1180,4229 -1182,4228 -1184,4237 -1177,4248 -1140,4266 -1084,4267 -1038,4248 -1015,4229 -1011,4214 -1012,4207 -1024,4191 -1042,4157 -1061,4134 -1078,4126 -1084,4129 -1087,4130 -1089,4130 -1089,4129 -1088,4130 -1069,4133 " style="fill: white; stroke: black; stroke-width: 30" />
<polyline points="-853,4095 -866,4105 -881,4117 -892,4156 -905,4219 -906,4285 -897,4306 -874,4308 -816,4271 -750,4227 -694,4223 -669,4262 -666,4327 -663,4354 -653,4340 " style="fill: white; stroke: black; stroke-width: 30" />
<polyline points="-553,4218 -546,4190 -519,4169 -484,4169 -456,4186 -446,4220 -459,4264 -487,4305 -523,4327 -555,4338 -580,4323 -593,4298 -595,4273 -587,4272 -568,4274 -517,4280 -450,4270 -366,4225 -276,4154 -230,4095 -231,4080 -237,4085 -250,4110 -261,4184 -262,4259 -256,4323 -250,4348 -241,4357 -233,4343 -233,4310 -248,4276 -266,4271 -274,4268 -274,4270 -265,4267 -253,4269 -247,4267 -236,4268 -195,4267 " style="fill: white; stroke: black; stroke-width: 30" />
<polyline points="362,4122 363,4107 363,4108 366,4156 366,4247 368,4328 370,4359 376,4367 372,4363 " style="fill: white; stroke: black; stroke-width: 30" />
<polyline points="319,4313 294,4295 292,4286 295,4283 309,4275 353,4260 423,4232 517,4185 606,4123 642,4091 634,4091 617,4110 595,4162 576,4269 568,4342 571,4378 579,4379 619,4359 691,4296 767,4272 833,4285 873,4322 877,4360 857,4401 839,4418 839,4422 857,4407 " style="fill: white; stroke: black; stroke-width: 30" />
<polyline points="981,4343 994,4340 1039,4325 1093,4310 1129,4294 1139,4278 1124,4256 1055,4227 960,4244 918,4271 924,4298 957,4333 1016,4364 1073,4391 1121,4402 " style="fill: white; stroke: black; stroke-width: 30" />
<polyline points="1916,4128 1911,4122 1913,4121 1909,4131 1904,4190 1896,4309 1913,4399 1939,4458 1968,4472 " style="fill: white; stroke: black; stroke-width: 30" />
<polyline points="2019,4196 2014,4184 2010,4186 2013,4193 2022,4212 2031,4254 2033,4305 2034,4370 2033,4442 2044,4484 2054,4492 " style="fill: white; stroke: black; stroke-width: 30" />
<polyline points="1938,4313 1890,4322 1879,4323 1880,4326 1912,4342 2008,4367 2098,4377 2187,4374 2265,4349 2311,4314 2310,4290 2266,4280 2177,4312 2114,4360 2101,4402 2133,4430 2223,4443 2343,4410 2458,4338 2562,4250 2614,4177 2614,4142 2578,4134 2509,4162 2440,4224 2404,4306 2409,4365 2446,4409 2508,4421 2593,4393 2687,4326 2756,4246 2775,4189 2755,4189 2699,4208 2653,4262 2619,4332 2616,4393 2631,4429 2667,4446 2722,4440 2771,4425 " style="fill: white; stroke: black; stroke-width: 30" />
<polyline points="3172,4257 3172,4253 3208,4245 3266,4236 3330,4221 3365,4213 3351,4206 " style="fill: white; stroke: black; stroke-width: 30" />
<polyline points="3198,4291 3170,4304 3153,4341 3140,4417 3149,4489 3205,4525 3292,4535 3391,4507 " style="fill: white; stroke: black; stroke-width: 30" />
<polyline points="3143,4381 3199,4385 3296,4383 3396,4374 3465,4362 " style="fill: white; stroke: black; stroke-width: 30" />
<polyline points="3653,4324 3658,4291 3675,4246 3664,4202 3628,4184 3588,4201 3533,4263 3477,4351 3436,4438 3420,4547 3437,4639 3462,4689 3477,4699 " style="fill: white; stroke: black; stroke-width: 30" />
<polyline points="3428,4399 3448,4400 3491,4412 3569,4435 3673,4439 3767,4430 3840,4400 3875,4361 3868,4324 3834,4289 3770,4276 3716,4288 3675,4313 3653,4362 3634,4456 3615,4553 3609,4619 3627,4645 3664,4631 3722,4565 3754,4464 3745,4397 3714,4370 3682,4374 3671,4385 3683,4412 3728,4444 3804,4463 3893,4473 3984,4472 4061,4453 4112,4422 4122,4392 4109,4349 4055,4321 3987,4344 3948,4388 3941,4437 3955,4486 3994,4510 4063,4512 " style="fill: white; stroke: black; stroke-width: 30" />
<polyline points="4240,4385 4176,4383 4134,4408 4112,4462 4140,4505 4210,4539 4297,4540 4374,4503 4413,4447 4439,4374 4464,4294 4495,4238 4500,4230 4492,4236 4479,4241 4453,4271 4417,4314 4374,4386 4350,4436 4348,4480 4361,4504 4379,4506 4397,4484 4409,4428 4414,4391 4408,4394 4412,4397 4441,4398 4509,4400 4572,4399 " style="fill: white; stroke: black; stroke-width: 30" />
<polyline points="-1141,4767 -1126,4754 -1096,4731 -1059,4685 -1048,4637 -1063,4606 -1105,4577 -1154,4582 -1197,4604 -1233,4652 -1268,4746 -1274,4878 -1242,5005 -1198,5097 -1164,5154 -1141,5190 " style="fill: white; stroke: black; stroke-width: 30" />
<polyline points="-1393,4878 -1390,4881 -1384,4882 -1368,4875 -1337,4862 -1280,4855 -1196,4849 -1099,4854 " style="fill: white; stroke: black; stroke-width: 30" />
<polyline points="-961,4570 -964,4572 -960,4573 -963,4575 -946,4574 -914,4570 -876,4563 " style="fill: white; stroke: black; stroke-width: 30" />
<polyline points="-841,4621 -841,4623 -809,4622 -756,4597 -707,4556 -688,4523 -697,4505 -707,4503 -705,4507 -703,4515 -717,4554 -740,4601 -750,4638 -749,4666 -726,4680 " style="fill: white; stroke: black; stroke-width: 30" />
<polyline points="-348,4608 -356,4598 -376,4596 -412,4609 -464,4646 -494,4701 -491,4761 -463,4810 -417,4852 -375,4877 -338,4904 " style="fill: white; stroke: black; stroke-width: 30" />
<polyline points="-267,4875 -240,4861 -193,4828 -135,4780 -99,4742 -95,4735 -97,4734 -100,4734 -93,4723 " style="fill: white; stroke: black; stroke-width: 30" />
<polyline points="-222,4694 -231,4696 -216,4704 -175,4731 -131,4762 -109,4786 -92,4817 -77,4846 " style="fill: white; stroke: black; stroke-width: 30" />
<polyline points="52,4557 62,4557 87,4588 109,4655 120,4732 98,4823 75,4880 49,4924 " style="fill: white; stroke: black; stroke-width: 30" />
<polyline points="748,4730 735,4706 733,4672 744,4633 768,4605 804,4590 827,4598 841,4628 848,4654 844,4670 830,4698 798,4751 767,4801 757,4829 753,4840 754,4842 754,4837 754,4839 756,4833 758,4826 758,4820 757,4819 753,4817 755,4817 760,4814 761,4815 758,4814 757,4816 759,4815 758,4817 760,4817 764,4821 762,4824 764,4832 768,4840 770,4850 776,4850 782,4853 786,4853 777,4857 776,4855 780,4853 783,4851 780,4850 773,4838 " style="fill: white; stroke: black; stroke-width: 30" />
<polyline points="737,4982 733,4967 747,4945 759,4935 769,4940 781,4951 775,4972 756,4997 740,5007 744,5004 740,4996 740,4984 736,4968 738,4963 " style="fill: white; stroke: black; stroke-width: 30" />
<polyline points="-868,5068 -883,5064 -890,5063 -892,5067 -885,5067 -862,5069 -807,5066 -740,5068 -670,5066 " style="fill: white; stroke: black; stroke-width: 30" />
<polyline points="-793,5103 -797,5100 -798,5105 -804,5129 -825,5218 -847,5315 -851,5369 -837,5400 -813,5424 -777,5444 -722,5447 -663,5446 -619,5439 -598,5436 -587,5433 -585,5432 -585,5429 -585,5429 -586,5427 -585,5428 -581,5426 -579,5425 -578,5424 -574,5424 " style="fill: white; stroke: black; stroke-width: 30" />
<polyline points="-536,5341 -537,5349 -519,5367 -490,5395 -480,5406 -482,5420 -489,5433 -510,5457 -518,5478 -521,5492 -522,5490 -523,5490 -521,5488 -520,5486 " style="fill: white; stroke: black; stroke-width: 30" />
<polyline points="149,5397 144,5388 122,5381 68,5378 4,5390 -59,5439 -112,5502 -124,5560 -91,5596 -37,5625 21,5627 83,5613 123,5602 " style="fill: white; stroke: black; stroke-width: 30" />
<polyline points="105,5526 92,5528 92,5530 103,5535 127,5541 163,5549 200,5562 209,5578 187,5631 157,5673 160,5685 " style="fill: white; stroke: black; stroke-width: 30" />
<polyline points="286,5584 297,5587 340,5578 390,5563 430,5540 445,5526 437,5514 401,5506 349,5513 298,5551 281,5582 304,5617 356,5641 428,5635 497,5600 556,5557 578,5529 578,5526 577,5527 576,5533 579,5537 593,5545 625,5557 666,5568 718,5573 768,5581 807,5581 853,5563 898,5533 911,5507 890,5496 824,5516 752,5556 724,5589 738,5603 768,5616 810,5627 861,5628 " style="fill: white; stroke: black; stroke-width: 30" />
<polyline points="988,5535 972,5527 959,5522 932,5534 907,5551 900,5570 909,5582 936,5595 980,5589 1045,5560 1124,5512 1168,5466 1172,5445 1167,5436 1152,5430 1131,5440 1087,5481 1044,5537 1037,5574 1058,5588 1129,5586 1217,5574 1258,5587 1251,5611 1238,5633 1243,5624 " style="fill: white; stroke: black; stroke-width: 30" />
<polyline points="1445,5371 1432,5364 1420,5375 1388,5440 1346,5527 1333,5576 1326,5601 1322,5605 1315,5600 1320,5591 1342,5567 1377,5549 1426,5535 1464,5534 1499,5536 1522,5542 1520,5550 1507,5578 1496,5615 1499,5634 1502,5636 1510,5625 " style="fill: white; stroke: black; stroke-width: 30" />
<polyline points="1576,5322 1562,5304 1562,5299 1566,5300 1578,5304 1611,5319 1639,5338 " style="fill: white; stroke: black; stroke-width: 30" />
<polyline points="1748,5596 1720,5585 1682,5567 1614,5554 1557,5560 1544,5571 1591,5594 1688,5612 1761,5605 1782,5612 1779,5638 1758,5715 1726,5816 1710,5877 1691,5910 1674,5925 1647,5905 1640,5827 1648,5677 " style="fill: white; stroke: black; stroke-width: 30" />
<polyline points="2059,5375 2050,5374 2044,5377 2031,5397 1983,5476 1918,5588 1889,5666 1902,5709 1946,5713 " style="fill: white; stroke: black; stroke-width: 30" />
<polyline points="2116,5572 2100,5565 2041,5564 1971,5572 1914,5593 1899,5621 1934,5650 1991,5677 2054,5683 2138,5665 2227,5629 2291,5588 2333,5558 2332,5553 2318,5545 2286,5540 2227,5549 2197,5563 2183,5577 2183,5604 2204,5636 2242,5666 2300,5684 2379,5673 2434,5639 2450,5608 2437,5599 2421,5606 2390,5629 2375,5662 2364,5678 2362,5683 2360,5688 " style="fill: white; stroke: black; stroke-width: 30" />
<polyline points="2464,5508 2455,5484 2446,5462 2460,5442 2474,5428 2486,5433 2499,5433 2501,5436 2498,5442 2495,5461 2495,5490 2486,5508 2485,5506 2457,5500 2450,5473 2451,5460 2459,5453 2470,5457 " style="fill: white; stroke: black; stroke-width: 30" />
<polyline points="2694,5430 2676,5421 2668,5424 2639,5475 2591,5570 2558,5647 2556,5685 2556,5698 2563,5696 2562,5694 2564,5690 2585,5681 2616,5669 2635,5665 2637,5662 2638,5663 2646,5668 " style="fill: white; stroke: black; stroke-width: 30" />
<polyline points="2569,5531 2586,5526 2596,5524 2606,5524 2621,5523 2670,5525 2750,5529 " style="fill: white; stroke: black; stroke-width: 30" />
<polyline points="3122,5499 3121,5485 3132,5466 3159,5446 3184,5435 3218,5431 3248,5436 3254,5448 3251,5458 3228,5492 3199,5536 3171,5583 3135,5622 3116,5642 3118,5643 3120,5643 3121,5641 3126,5638 3127,5635 3129,5635 3129,5633 3132,5632 3125,5634 3129,5635 3128,5639 3132,5646 3139,5648 3146,5655 3149,5656 3151,5656 3152,5652 3150,5653 3152,5651 3147,5654 3151,5650 3150,5651 3153,5647 3157,5645 3155,5646 3162,5644 3167,5645 " style="fill: white; stroke: black; stroke-width: 30" />
<polyline points="3174,5795 3154,5786 3142,5776 3143,5767 3149,5755 3168,5741 3177,5741 3178,5751 3175,5762 3169,5768 3169,5764 3163,5751 3171,5739 " style="fill: white; stroke: black; stroke-width: 30" />
<polyline points="-715,6500 -710,6513 -705,6552 -700,6620 -713,6696 -717,6748 -711,6762 -707,6759 -699,6725 -707,6657 -729,6601 -759,6555 -781,6520 -788,6507 -783,6504 -768,6494 -728,6482 -674,6488 -621,6509 -590,6533 -583,6554 -597,6569 -631,6592 -670,6603 -694,6606 -696,6612 -694,6619 -694,6631 -674,6648 -644,6676 -608,6699 -570,6728 -551,6744 -552,6765 -571,6785 -604,6801 -644,6798 -696,6783 -727,6765 -734,6761 -734,6757 -734,6757 -721,6747 " style="fill: white; stroke: black; stroke-width: 30" />
<polyline points="-443,6645 -463,6638 -463,6633 -465,6632 -469,6632 -469,6635 -471,6637 -473,6649 -472,6677 -463,6717 -447,6753 -421,6774 -398,6786 -387,6788 -366,6772 -320,6728 -288,6695 -277,6679 -275,6673 -275,6672 -278,6673 -282,6678 -282,6690 -299,6717 -302,6749 -295,6778 -269,6787 -238,6781 -214,6769 " style="fill: white; stroke: black; stroke-width: 30" />
<polyline points="-161,6708 -168,6728 -170,6757 -172,6786 -173,6797 -169,6795 -169,6785 -165,6762 -162,6717 -157,6673 -149,6642 -137,6636 -138,6640 -128,6650 -87,6666 -37,6670 " style="fill: white; stroke: black; stroke-width: 30" />
<polyline points="39,6659 24,6659 19,6662 0,6697 -23,6746 -38,6784 -42,6787 -36,6785 -25,6772 3,6753 41,6729 90,6714 135,6715 156,6732 160,6757 149,6787 151,6798 157,6794 " style="fill: white; stroke: black; stroke-width: 30" />
<polyline points="389,6706 380,6703 365,6701 324,6708 279,6726 258,6747 255,6763 259,6769 275,6778 304,6785 349,6774 397,6750 424,6719 425,6712 405,6706 356,6712 320,6721 312,6726 309,6724 312,6723 315,6719 339,6719 380,6723 439,6731 516,6725 579,6714 611,6704 614,6699 609,6695 603,6694 601,6692 602,6691 599,6692 593,6697 577,6716 561,6751 565,6767 585,6783 630,6778 696,6748 753,6726 759,6725 755,6727 750,6736 747,6745 747,6756 750,6762 757,6783 767,6799 " style="fill: white; stroke: black; stroke-width: 30" />
<polyline points="1022,6512 1000,6514 979,6533 937,6596 887,6683 853,6756 847,6779 851,6794 848,6793 851,6791 852,6786 853,6773 857,6743 861,6730 859,6727 856,6726 863,6724 899,6719 964,6703 1037,6696 1107,6691 1168,6680 " style="fill: white; stroke: black; stroke-width: 30" />
<polyline points="-486,7482 -488,7486 -490,7496 -493,7526 -502,7591 -520,7688 -522,7765 -510,7796 -490,7798 -469,7750 -462,7652 -469,7557 -477,7499 -487,7490 -494,7490 -498,7492 -503,7492 -506,7495 -506,7502 -504,7542 -498,7579 -448,7620 -377,7647 -280,7641 -190,7607 -139,7575 -121,7561 -128,7566 -134,7577 -145,7621 -160,7701 -155,7754 -139,7779 -113,7780 " style="fill: white; stroke: black; stroke-width: 30" />
<polyline points="1,7597 13,7589 52,7591 94,7616 122,7648 123,7690 106,7728 81,7762 48,7786 20,7791 -12,7779 -28,7767 -31,7760 -18,7740 13,7717 45,7714 83,7731 93,7755 108,7787 120,7806 142,7804 171,7779 203,7729 239,7698 271,7686 293,7696 310,7722 314,7769 300,7801 295,7817 293,7819 " style="fill: white; stroke: black; stroke-width: 30" />
<polyline points="447,7659 452,7648 474,7639 490,7645 505,7670 491,7729 451,7789 410,7830 362,7855 329,7848 320,7815 322,7783 351,7768 376,7770 405,7784 440,7799 483,7802 " style="fill: white; stroke: black; stroke-width: 30" />
<polyline points="738,7669 690,7664 654,7671 616,7695 588,7718 577,7725 575,7722 583,7716 592,7710 612,7703 639,7693 673,7694 696,7700 701,7705 702,7713 706,7755 701,7829 696,7930 682,8012 659,8072 638,8099 609,8105 563,8090 543,8029 561,7946 598,7890 664,7849 729,7820 798,7783 876,7742 925,7692 943,7655 923,7638 894,7634 866,7644 835,7689 831,7721 838,7748 855,7763 882,7769 929,7752 988,7715 1034,7686 1055,7680 1060,7680 1057,7695 1046,7727 1032,7754 1032,7756 1031,7752 1056,7742 1096,7734 1114,7734 1119,7746 1119,7759 1130,7773 1148,7783 1190,7776 1220,7774 1227,7779 1218,7780 1220,7779 " style="fill: white; stroke: black; stroke-width: 30" />
<polyline points="1445,7685 1466,7689 1476,7694 1504,7695 1549,7690 1594,7671 1614,7656 1603,7648 1546,7640 1455,7654 1411,7678 1414,7701 1439,7726 1506,7746 1570,7756 1632,7752 1689,7724 1735,7689 1790,7646 1831,7628 1850,7630 1851,7651 1850,7680 1836,7730 1831,7751 1834,7773 1844,7780 1880,7770 " style="fill: white; stroke: black; stroke-width: 30" />
<polyline points="2128,7476 2072,7533 2001,7657 1955,7786 1945,7834 1948,7840 1951,7817 1946,7759 1958,7721 1964,7719 1975,7720 1988,7724 2017,7738 2082,7744 " style="fill: white; stroke: black; stroke-width: 30" />
<polyline points="2804,7753 2802,7732 2776,7708 2727,7686 2661,7687 2601,7721 2576,7766 2598,7804 2644,7817 2743,7784 2841,7718 2899,7651 2903,7622 2898,7620 2896,7620 2898,7626 2891,7639 2882,7678 2868,7717 2871,7744 2876,7788 2898,7824 " style="fill: white; stroke: black; stroke-width: 30" />
<polyline points="3043,7692 3028,7677 3037,7668 3081,7667 3140,7687 3173,7734 3171,7788 3129,7840 3073,7877 3026,7893 2971,7886 2952,7870 2965,7859 3017,7845 3093,7824 3178,7801 3261,7762 3333,7717 3383,7661 3408,7606 3420,7594 3422,7599 3421,7609 3397,7662 3348,7748 3318,7809 3309,7835 3310,7841 3322,7844 3378,7841 3445,7832 3482,7839 3487,7846 3501,7842 3498,7844 3513,7848 3573,7821 3627,7788 3619,7775 3593,7769 3562,7775 3545,7802 3556,7843 3596,7887 3648,7914 3714,7915 3794,7887 3862,7823 3889,7785 3897,7780 3919,7772 3973,7765 4035,7761 4081,7761 4108,7751 " style="fill: white; stroke: black; stroke-width: 30" />
<polyline points="-273,8163 -278,8162 -272,8161 -268,8175 -279,8240 -301,8324 -280,8369 -230,8398 -152,8407 -83,8413 -35,8413 -5,8408 12,8399 " style="fill: white; stroke: black; stroke-width: 30" />
<polyline points="34,8302 28,8311 34,8350 75,8401 92,8422 83,8442 57,8455 33,8472 " style="fill: white; stroke: black; stroke-width: 30" />
<polyline points="697,8293 708,8287 690,8290 669,8304 630,8329 591,8363 581,8385 592,8414 637,8469 655,8503 661,8507 664,8507 632,8499 603,8491 604,8488 604,8493 626,8499 675,8496 749,8487 836,8459 904,8410 916,8379 898,8371 871,8385 835,8436 833,8497 859,8530 920,8542 990,8511 1044,8475 1050,8469 1049,8475 1048,8484 1045,8514 1054,8530 1048,8536 1049,8533 " style="fill: white; stroke: black; stroke-width: 30" />
<polyline points="1090,8346 1087,8322 1079,8314 1076,8312 1069,8309 1069,8309 " style="fill: white; stroke: black; stroke-width: 30" />
<polyline points="1651,8427 1649,8428 1650,8425 1652,8423 1645,8416 1596,8406 1520,8413 1455,8451 1429,8487 1440,8491 1491,8488 1592,8440 1695,8368 1753,8308 1758,8291 1761,8289 1756,8294 1751,8323 1736,8379 1733,8449 1736,8500 1747,8519 1776,8511 " style="fill: white; stroke: black; stroke-width: 30" />
<polyline points="1949,8395 1922,8383 1922,8381 1947,8397 1996,8442 2022,8487 2009,8521 1967,8552 1887,8561 1849,8549 1841,8523 1857,8502 1891,8491 1933,8502 1977,8519 2014,8531 " style="fill: white; stroke: black; stroke-width: 30" />
<polyline points="2287,8422 2239,8401 2200,8408 2179,8450 2180,8495 2196,8522 2193,8532 2186,8534 2170,8533 2164,8531 2161,8517 2169,8501 " style="fill: white; stroke: black; stroke-width: 30" />
<polyline points="2807,8570 2804,8571 2804,8565 2840,8537 2912,8458 3001,8358 3047,8298 3049,8286 3046,8288 3026,8307 3005,8355 2978,8435 2959,8496 2967,8526 2995,8528 " style="fill: white; stroke: black; stroke-width: 30" />
<polyline points="3175,8378 3209,8357 3244,8359 3294,8383 3304,8419 3288,8461 3236,8506 3165,8534 3113,8537 3091,8522 3085,8500 3093,8479 3109,8434 3152,8366 " style="fill: white; stroke: black; stroke-width: 30" />
<polyline points="3500,8473 3510,8457 3524,8447 3566,8442 3648,8442 3735,8435 " style="fill: white; stroke: black; stroke-width: 30" />
<polyline points="3842,8413 3856,8397 3919,8370 4017,8351 4064,8366 4056,8384 3986,8431 3882,8484 3822,8520 3815,8542 3852,8560 3909,8578 3963,8570 3999,8544 " style="fill: white; stroke: black; stroke-width: 30" />
<polyline points="4079,8511 4078,8487 4115,8481 4191,8493 4221,8515 4187,8536 4113,8551 4042,8553 4036,8544 4049,8540 4054,8541 4083,8525 " style="fill: white; stroke: black; stroke-width: 30" />
<polyline points="743,8754 733,8759 731,8767 727,8786 735,8858 729,8983 708,9115 673,9213 641,9273 632,9297 637,9295 641,9281 617,9237 580,9172 557,9118 541,9075 " style="fill: white; stroke: black; stroke-width: 30" />
<polyline points="892,8917 884,8892 883,8864 912,8857 957,8866 976,8904 978,8940 964,8968 935,8988 898,8996 880,8989 876,8988 871,8988 881,8989 914,8985 934,8983 954,8985 979,8999 " style="fill: white; stroke: black; stroke-width: 30" />
<polyline points="944,8728 943,8723 953,8730 968,8750 1012,8777 1082,8795 1172,8790 1215,8802 1206,8841 1173,8909 1145,8969 1130,9006 1139,9008 1193,8989 1252,8964 1275,8968 1276,8988 1270,9018 1290,9020 1317,9000 " style="fill: white; stroke: black; stroke-width: 30" />
<polyline points="1346,8993 1347,8992 1356,8982 1377,8967 1378,8961 1376,8961 1381,8960 1389,8964 1429,8964 1490,8955 1553,8943 1580,8944 1574,8950 1563,8968 1557,8989 1555,9007 1550,9010 1550,9008 " style="fill: white; stroke: black; stroke-width: 30" />
<polyline points="1578,8799 1575,8784 1569,8781 1579,8779 1586,8779 " style="fill: white; stroke: black; stroke-width: 30" />
<polyline points="1831,8943 1850,8937 1857,8926 1852,8909 1836,8883 1796,8863 1760,8870 1752,8902 1759,8941 1783,8963 1807,8966 1824,8979 1819,9028 1810,9093 1790,9148 1764,9185 1743,9194 1736,9184 1727,9154 1758,9095 1820,9052 1909,9007 2017,8949 2077,8893 2070,8860 2036,8864 2007,8901 2003,8966 2035,9007 2074,9031 " style="fill: white; stroke: black; stroke-width: 30" />
<polyline points="2796,8798 2782,8790 2779,8786 2776,8789 2752,8811 2689,8894 2643,8965 2650,8996 2708,8993 " style="fill: white; stroke: black; stroke-width: 30" />
<polyline points="2878,8878 2835,8863 2771,8860 2698,8886 2665,8925 2672,8960 2705,8994 2759,9015 2827,9012 2920,8978 3002,8939 3018,8934 3017,8936 3000,8955 2996,8986 2973,9021 2969,9051 2969,9056 " style="fill: white; stroke: black; stroke-width: 30" />
<polyline points="3104,8750 3091,8731 3089,8731 3082,8744 3091,8798 " style="fill: white; stroke: black; stroke-width: 30" />
<polyline points="3102,9078 3103,9063 3114,9041 3168,8998 3209,8985 3234,8997 3243,9030 3247,9057 3247,9075 3278,9077 " style="fill: white; stroke: black; stroke-width: 30" />
<polyline points="3380,9032 3408,9002 3405,8988 3387,8991 3348,9009 3326,9042 3325,9063 3344,9081 3385,9074 3454,9026 3565,8933 3631,8868 3622,8851 3596,8842 3556,8861 3516,8935 3499,9019 3488,9117 3489,9182 " style="fill: white; stroke: black; stroke-width: 30" />
<polyline points="567,8744 567,8748 555,8746 556,8743 555,8740 563,8736 604,8729 640,8725 675,8715 716,8709 741,8706 760,8710 760,8710 760,8712 753,8714 747,8715 741,8715 738,8713 734,8706 746,8708 752,8706 " style="fill: white; stroke: black; stroke-width: 30" />
<polyline points="-2798,7113 -2815,7096 -2842,7081 -2897,7075 -2950,7081 -3006,7112 -3050,7166 -3053,7213 -3026,7257 -2959,7294 -2863,7293 -2778,7254 -2732,7198 -2713,7170 -2716,7160 -2727,7152 -2754,7144 -2766,7143 -2783,7139 -2803,7135 -2809,7132 -2811,7129 -2813,7126 -2809,7128 -2811,7125 -2806,7128 -2800,7134 " style="fill: white; stroke: black; stroke-width: 30" />
<polyline points="-2899,7316 -2904,7316 -2917,7321 -2915,7379 -2915,7430 -2922,7468 -2927,7512 -2940,7561 -2944,7586 -2953,7580 -2964,7569 -2963,7566 -2954,7553 -2961,7551 " style="fill: white; stroke: black; stroke-width: 30" />
<polyline points="-3042,7452 -3045,7454 -3047,7454 -3052,7453 -3049,7451 -3040,7450 -2998,7451 -2923,7447 -2833,7446 -2763,7452 -2748,7453 -2745,7458 -2749,7459 -2758,7461 -2761,7461 -2769,7459 -2773,7456 " style="fill: white; stroke: black; stroke-width: 30" />
<polyline points="-2944,8653 -2961,8649 -2950,8650 -2945,8651 -2936,8654 -2954,8662 -2981,8673 -2998,8699 -3011,8715 -3025,8723 -3012,8726 -2987,8727 -2962,8727 -2945,8729 -2930,8718 -2915,8701 -2919,8690 -2930,8687 -2937,8685 -2938,8684 -2947,8680 -2925,8672 -2916,8658 -2927,8655 -2925,8655 -2943,8652 -2932,8654 -2926,8657 -2931,8655 -2912,8662 -2915,8660 -2940,8655 -2945,8657 -2956,8655 -2944,8655 -2942,8654 -2928,8654 -2927,8651 -2916,8644 -2886,8630 -2868,8603 -2857,8592 -2835,8578 -2814,8563 -2810,8556 -2811,8557 -2828,8554 -2805,8566 -2813,8561 " style="fill: white; stroke: black; stroke-width: 30" />
<polyline points="-2850,8571 -2843,8568 -2832,8556 -2815,8545 -2751,8539 -2709,8523 -2687,8504 -2678,8499 -2695,8501 -2723,8512 -2737,8533 -2742,8556 -2769,8596 -2798,8614 -2792,8614 -2789,8616 -2778,8617 -2765,8613 " style="fill: white; stroke: black; stroke-width: 30" />
<polyline points="-2496,8047 -2514,8039 -2541,8023 -2588,8006 -2661,7988 -2750,7977 -2849,7968 -2961,7966 -3081,7966 -3197,7971 -3306,7976 -3416,7981 -3490,7993 -3557,8020 -3597,8063 -3625,8104 -3623,8146 -3610,8175 -3578,8203 -3526,8231 -3456,8254 -3339,8277 -3190,8280 -3033,8283 -2878,8287 -2716,8293 -2550,8288 -2391,8270 -2257,8236 -2125,8190 -2013,8135 -1955,8090 -1952,8056 -1983,8024 -2024,7989 -2079,7961 -2152,7936 -2252,7920 -2382,7913 -2533,7917 -2667,7923 -2774,7931 -2818,7932 " style="fill: white; stroke: black; stroke-width: 30" />
<polyline points="-3233,7967 -3224,7945 -3195,7909 -3155,7879 -3092,7877 -3055,7910 -3049,7948 -3076,7981 -3119,8007 -3153,8023 -3195,8016 -3208,8000 -3216,7973 -3220,7963 -3225,7957 -3211,7951 " style="fill: white; stroke: black; stroke-width: 30" />
<polyline points="-2308,7920 -2310,7893 -2314,7882 -2307,7882 -2275,7894 -2227,7937 -2184,7968 -2176,7976 -2184,7980 -2212,7982 -2254,7984 -2284,7986 -2285,7986 -2291,7982 -2284,7974 -2287,7943 " style="fill: white; stroke: black; stroke-width: 30" />
<polyline points="-3177,8369 -3186,8336 -3172,8288 -3139,8251 -3090,8241 -3052,8261 -3010,8303 -3016,8348 -3049,8392 -3100,8416 -3129,8427 -3157,8426 -3172,8408 -3163,8384 -3150,8328 " style="fill: white; stroke: black; stroke-width: 30" />
<polyline points="-2399,8344 -2404,8329 -2410,8307 -2412,8276 -2387,8225 -2358,8209 -2323,8217 -2288,8260 -2271,8308 -2281,8346 -2303,8362 -2326,8367 -2363,8356 -2389,8339 -2383,8332 -2374,8330 " style="fill: white; stroke: black; stroke-width: 30" />
<polyline points="-2799,7629 -2806,7624 -2810,7627 -2816,7637 -2820,7668 -2822,7695 -2825,7717 -2833,7749 -2843,7782 -2844,7827 -2851,7886 -2856,7958 -2863,8025 -2864,8085 -2866,8122 -2870,8150 -2868,8177 -2876,8199 -2882,8213 -2886,8223 -2898,8221 -2892,8226 -2896,8233 -2897,8252 -2895,8267 -2896,8270 -2903,8270 -2912,8274 -2921,8296 -2928,8316 -2938,8321 -2938,8323 -2936,8328 -2937,8353 -2937,8362 -2943,8370 -2941,8375 -2947,8375 -2949,8371 -2943,8371 -2942,8367 -2944,8368 -2934,8359 " style="fill: white; stroke: black; stroke-width: 30" />
<polyline points="-2990,8330 -2992,8336 -3001,8352 -3003,8390 -2997,8422 -2989,8439 -2983,8442 -2987,8442 -2989,8442 -2984,8444 -2979,8442 -2971,8439 -2957,8415 -2935,8391 -2923,8355 -2909,8335 -2901,8313 -2902,8304 -2907,8301 -2905,8302 -2908,8300 -2917,8298 -2910,8300 -2909,8303 -2904,8304 -2900,8308 " style="fill: white; stroke: black; stroke-width: 30" />
<polyline points="-3061,8574 -3074,8582 -3078,8588 -3081,8591 -3081,8591 -3079,8592 -3089,8587 -3099,8588 -3131,8579 -3157,8577 -3170,8574 -3189,8574 -3217,8569 -3247,8555 -3260,8543 -3282,8532 -3299,8523 -3319,8514 -3317,8504 -3333,8488 -3348,8465 -3347,8448 -3354,8426 -3357,8417 -3350,8404 -3347,8396 -3345,8387 -3342,8379 -3353,8363 -3357,8357 -3352,8358 -3356,8359 -3359,8357 -3365,8358 -3366,8356 -3361,8358 -3361,8358 " style="fill: white; stroke: black; stroke-width: 30" />
<polyline points="-3426,8363 -3425,8360 -3422,8358 -3421,8358 -3406,8353 -3388,8336 -3373,8304 -3368,8291 -3366,8291 -3355,8296 -3361,8292 -3366,8290 -3367,8289 -3364,8290 -3365,8287 -3354,8289 -3360,8286 -3365,8283 -3358,8286 -3357,8288 -3361,8286 -3351,8297 -3339,8321 -3319,8340 -3308,8347 -3305,8349 -3304,8348 -3304,8351 -3298,8351 -3285,8358 -3256,8363 " style="fill: white; stroke: black; stroke-width: 30" />
<polyline points="-1906,6821 -1899,6824 -1870,6848 -1829,6897 -1780,6968 -1750,7035 -1735,7110 -1721,7217 -1710,7319 -1689,7422 -1678,7505 -1670,7583 -1676,7647 -1681,7709 -1698,7779 -1704,7846 -1713,7891 -1739,7943 -1763,7994 -1780,8046 -1810,8100 -1834,8149 -1864,8197 -1889,8238 -1920,8279 -1943,8321 -1976,8360 -2004,8406 -2033,8450 -2054,8475 -2083,8500 -2117,8533 -2149,8555 -2173,8581 -2186,8605 -2194,8623 -2200,8631 -2194,8645 -2198,8659 -2203,8678 -2199,8678 -2202,8676 -2204,8671 -2198,8666 -2189,8665 " style="fill: white; stroke: black; stroke-width: 30" />
<polyline points="-3520,6809 -3524,6799 -3517,6800 -3510,6807 -3524,6818 -3538,6865 -3580,6942 -3626,7026 -3654,7091 -3692,7137 -3720,7195 -3750,7272 -3794,7355 -3824,7416 -3828,7475 -3857,7529 -3901,7590 -3922,7649 -3914,7706 -3908,7751 -3900,7799 -3890,7870 -3901,7940 -3913,7984 -3893,8032 -3896,8073 -3898,8126 -3882,8177 -3868,8229 -3866,8278 -3835,8350 -3809,8407 -3794,8436 -3783,8448 -3774,8470 -3750,8516 -3718,8562 -3711,8580 -3701,8586 -3694,8592 -3697,8588 -3690,8592 -3696,8590 -3694,8591 -3700,8591 -3703,8588 " style="fill: white; stroke: black; stroke-width: 30" />
<polyline points="-1609,6911 -1605,6909 -1605,6907 -1606,6924 -1612,6966 -1628,7025 -1627,7054 -1619,7067 -1611,7067 -1604,7067 -1603,7061 -1604,7047 -1610,7020 -1618,6985 -1612,6960 -1612,6931 -1615,6915 -1621,6907 -1622,6903 -1630,6900 -1634,6897 -1634,6899 -1633,6899 -1628,6901 -1627,6900 -1626,6902 -1632,6901 -1635,6903 -1633,6911 -1634,6937 -1626,6964 -1605,6986 -1567,7007 -1547,7017 -1510,7021 -1477,7010 -1435,6974 -1414,6934 -1406,6899 -1408,6889 -1416,6880 -1429,6874 -1442,6870 -1440,6872 -1437,6871 -1436,6873 -1434,6873 -1432,6875 -1428,6876 -1423,6879 -1417,6878 -1412,6878 " style="fill: white; stroke: black; stroke-width: 30" />
<polyline points="-2816,6804 -2825,6821 -2840,6821 -2835,6823 -2829,6821 -2816,6811 -2786,6781 -2730,6725 -2635,6625 -2521,6493 -2399,6379 -2293,6284 -2226,6209 -2181,6154 -2159,6127 -2153,6123 -2156,6118 -2157,6118 -2150,6119 -2141,6122 -2144,6119 -2141,6118 -2142,6115 -2145,6115 -2146,6114 -2142,6114 -2141,6114 -2134,6118 " style="fill: white; stroke: black; stroke-width: 30" />
<polyline points="-1926,5817 -1936,5811 -1939,5797 -1949,5787 -1952,5777 -1961,5762 -1963,5749 -1960,5737 -1952,5718 -1939,5700 -1924,5682 -1912,5669 -1897,5658 -1876,5653 -1845,5647 -1807,5648 -1770,5654 -1737,5663 -1706,5672 -1687,5680 -1669,5688 -1649,5700 -1634,5708 -1634,5713 -1637,5717 -1643,5723 -1645,5726 -1645,5736 -1648,5751 -1646,5765 -1647,5776 -1654,5791 -1657,5794 -1664,5800 -1679,5804 -1705,5811 -1739,5815 -1770,5822 -1798,5823 -1809,5824 -1810,5824 -1815,5827 -1817,5827 -1822,5830 -1821,5832 -1816,5840 -1814,5855 -1821,5857 -1819,5864 -1811,5885 -1800,5905 -1798,5913 -1797,5920 -1798,5932 -1805,5953 -1802,5965 -1800,5976 -1791,5986 -1791,5990 -1791,5995 -1792,5997 -1788,6004 -1789,6009 -1797,6014 -1798,6014 -1797,6015 -1795,6016 -1796,6017 -1793,6014 -1794,6013 -1797,6011 -1799,6012 -1796,6011 -1795,6011 -1792,6004 -1787,5974 " style="fill: white; stroke: black; stroke-width: 30" />
<polyline points="-1808,6154 -1814,6146 -1827,6136 -1836,6133 -1841,6128 -1847,6125 -1835,6118 -1821,6108 -1797,6098 -1786,6094 -1780,6094 -1780,6099 -1771,6107 -1753,6125 -1748,6132 -1741,6143 -1736,6155 -1732,6172 -1730,6180 -1732,6192 -1735,6196 -1737,6202 -1742,6206 -1747,6208 -1752,6207 -1768,6209 -1779,6206 -1790,6203 -1801,6194 -1815,6183 -1820,6178 -1824,6174 -1828,6167 -1830,6155 -1825,6124 -1827,6116 -1833,6105 -1843,6102 -1847,6102 -1842,6101 -1813,6089 -1787,6077 " style="fill: white; stroke: black; stroke-width: 30" />
<polyline points="-2668,10014 -2675,10015 -2683,10015 -2675,10015 -2676,10012 -2672,10004 -2661,9993 -2660,9958 -2634,9892 -2597,9803 -2536,9732 -2525,9675 -2535,9651 -2538,9654 -2548,9661 -2538,9684 -2515,9728 -2487,9794 -2432,9862 -2395,9911 -2368,9943 " style="fill: white; stroke: black; stroke-width: 30" />
<polyline points="-2722,9871 -2742,9868 -2738,9863 -2720,9864 -2715,9861 -2719,9860 -2727,9850 -2726,9840 -2707,9840 -2702,9842 -2662,9842 -2584,9839 -2486,9825 -2381,9810 -2312,9796 -2290,9796 -2282,9796 -2291,9793 -2302,9790 -2317,9786 -2331,9783 -2341,9782 -2352,9781 -2378,9779 -2383,9785 -2381,9811 -2373,9853 -2336,9875 -2274,9870 -2207,9837 -2150,9806 -2120,9802 -2117,9806 -2115,9816 -2114,9838 -2112,9881 -2112,9900 -2113,9904 -2084,9897 " style="fill: white; stroke: black; stroke-width: 30" />
<polyline points="-1876,9813 -1877,9806 -1892,9803 -1938,9802 -2002,9817 -2079,9863 -2117,9914 -2107,9924 -2071,9931 -1983,9911 -1874,9842 -1771,9761 -1710,9700 -1704,9693 -1719,9704 -1746,9738 -1800,9813 -1832,9885 -1832,9902 -1808,9903 -1749,9876 -1680,9864 -1644,9881 -1646,9918 -1645,9947 " style="fill: white; stroke: black; stroke-width: 30" />
<polyline points="-677,9722 -679,9721 -700,9730 -725,9740 -741,9760 -769,9809 -796,9894 -794,9958 -745,9999 -643,10007 -522,9980 -433,9931 -400,9883 -411,9852 -450,9821 -510,9789 -556,9780 -573,9784 -579,9786 -575,9787 -579,9786 -571,9784 -562,9783 " style="fill: white; stroke: black; stroke-width: 30" />
<polyline points="-192,9861 -196,9848 -199,9844 -224,9847 -280,9862 -358,9901 -406,9929 -412,9937 -395,9943 -336,9961 -256,9958 -183,9945 -129,9916 -112,9892 -116,9872 -155,9851 -209,9841 -235,9848 -252,9849 -248,9851 -227,9850 -211,9849 -209,9851 " style="fill: white; stroke: black; stroke-width: 30" />
<polyline points="-267,9804 -284,9803 -284,9795 -293,9792 -291,9788 -302,9788 -306,9788 -282,9790 -232,9784 -191,9784 -145,9792 -97,9806 -59,9816 " style="fill: white; stroke: black; stroke-width: 30" />
<polyline points="84,9891 72,9883 39,9864 -21,9852 -88,9873 -111,9904 -86,9934 -51,9956 24,9951 54,9947 64,9956 64,10014 68,10101 73,10186 46,10255 11,10292 -31,10292 -77,10227 -96,10100 -68,10032 3,9986 97,9956 197,9920 263,9878 303,9837 297,9816 263,9815 225,9842 198,9881 204,9895 211,9906 238,9906 267,9902 297,9896 331,9886 382,9851 446,9789 479,9733 485,9706 468,9696 438,9686 412,9686 390,9686 365,9698 341,9734 315,9786 305,9855 326,9910 371,9954 428,9979 502,9983 " style="fill: white; stroke: black; stroke-width: 30" />
<polyline points="1000,9992 1006,9991 1057,9966 1143,9909 1236,9822 1304,9734 1320,9671 1310,9650 1272,9646 1193,9688 1131,9784 1111,9895 1137,9963 1195,9999 1270,9995 1350,9969 1410,9935 1455,9899 1517,9851 1545,9821 1536,9821 1523,9826 1503,9837 1492,9852 1460,9893 1447,9937 1450,9959 1471,9976 1518,9972 1554,9952 1577,9923 1589,9914 1581,9918 1575,9924 1566,9931 1556,9939 1555,9949 1562,9953 1568,9955 1574,9958 1579,9965 1595,9979 " style="fill: white; stroke: black; stroke-width: 30" />
<polyline points="1586,9687 1593,9689 1600,9695 1619,9705 1643,9713 1676,9725 " style="fill: white; stroke: black; stroke-width: 30" />
<polyline points="1813,9944 1815,9942 1813,9932 1793,9910 1752,9875 1682,9863 1641,9876 1643,9910 1672,9960 1716,10013 1737,10077 1736,10130 1708,10176 1682,10204 1659,10208 1635,10173 1629,10081 1653,10022 1687,9993 1723,9980 1775,9963 1849,9933 1906,9903 1938,9886 1946,9883 1941,9887 1940,9892 1942,9894 1942,9892 1925,9899 1901,9908 1887,9918 1879,9917 1881,9914 1891,9906 1927,9888 1968,9875 1999,9880 2027,9891 2036,9906 2026,9927 2003,9964 1988,9989 2003,10002 " style="fill: white; stroke: black; stroke-width: 30" />
<polyline points="1936,9935 1938,9935 1928,9936 1920,9944 1917,9952 1914,9975 1926,10009 1957,10044 2051,10055 2147,10046 2189,10027 2212,10011 2224,10000 " style="fill: white; stroke: black; stroke-width: 30" />
<polyline points="2200,10050 2179,10056 2158,10054 2138,10046 2139,10000 2181,9943 2222,9907 2283,9910 2330,9956 2359,10022 2366,10059 2356,10080 2350,10089 " style="fill: white; stroke: black; stroke-width: 30" />
<polyline points="-2718,10288 -2713,10284 -2698,10277 -2654,10273 -2606,10282 -2559,10309 -2561,10325 -2557,10360 -2585,10405 -2594,10451 -2599,10474 -2574,10503 -2535,10514 -2508,10518 -2495,10514 " style="fill: white; stroke: black; stroke-width: 30" />
<polyline points="-2580,10421 -2629,10420 -2642,10421 -2649,10421 -2632,10421 -2604,10414 -2555,10390 -2498,10364 -2436,10342 -2398,10333 -2368,10333 -2376,10332 -2373,10334 -2372,10338 -2395,10356 -2408,10414 -2404,10427 -2400,10430 -2362,10419 -2294,10398 -2264,10383 -2253,10391 -2252,10409 -2238,10442 -2207,10456 -2148,10453 -2096,10435 -2080,10424 -2075,10421 -2090,10414 -2101,10386 -2093,10346 -2086,10331 -2079,10337 -2082,10342 -2081,10348 -2053,10349 -2024,10339 -2001,10340 -1991,10362 -1996,10390 -2001,10416 -2000,10441 -1995,10450 -2002,10452 -1999,10448 " style="fill: white; stroke: black; stroke-width: 30" />
<polyline points="-2003,10200 -2005,10197 -1996,10194 -1999,10198 -1996,10205 -1995,10222 -2003,10241 -2023,10251 -2017,10251 -2024,10242 -2025,10229 -2012,10215 " style="fill: white; stroke: black; stroke-width: 30" />
<polyline points="-1801,10297 -1823,10292 -1835,10291 -1840,10299 -1886,10325 -1916,10366 -1928,10380 -1925,10396 -1916,10412 -1901,10421 -1895,10423 -1891,10425 -1889,10423 -1890,10418 -1905,10409 -1907,10409 -1928,10412 -1948,10422 " style="fill: white; stroke: black; stroke-width: 30" />
<polyline points="-1654,10278 -1670,10277 -1701,10290 -1749,10314 -1775,10335 -1791,10344 -1797,10345 -1798,10365 -1802,10374 -1788,10386 -1739,10378 -1670,10324 -1600,10254 -1563,10207 -1559,10205 -1577,10219 -1608,10266 -1657,10322 -1666,10367 -1653,10372 -1618,10371 -1567,10365 -1539,10371 -1533,10386 -1518,10395 -1476,10398 -1417,10378 -1372,10356 -1379,10346 -1394,10340 -1430,10343 -1459,10364 -1460,10381 -1437,10395 -1387,10394 -1325,10384 " style="fill: white; stroke: black; stroke-width: 30" />
<polyline points="-1237,10388 -1242,10377 -1239,10368 -1222,10362 -1191,10363 -1194,10378 -1201,10406 -1221,10433 -1213,10440 " style="fill: white; stroke: black; stroke-width: 30" />
<polyline points="-870,10351 -869,10344 -890,10338 -913,10327 -946,10317 -1004,10331 -1037,10360 -1054,10391 -1049,10406 -1015,10416 -959,10395 -864,10332 -786,10259 -763,10213 -760,10197 -787,10194 -806,10214 -810,10271 -793,10330 -771,10373 -756,10385 -710,10376 -650,10341 -590,10311 -572,10303 -576,10305 -590,10313 -608,10330 -623,10372 -622,10399 -605,10411 -571,10398 -524,10368 -508,10359 -510,10359 -504,10362 -516,10362 -512,10362 -512,10360 -518,10359 -523,10357 -533,10354 -546,10339 -535,10323 -525,10319 -520,10319 -517,10314 -497,10307 -493,10303 -488,10304 -480,10302 " style="fill: white; stroke: black; stroke-width: 30" />
<polyline points="-345,10351 -344,10345 -338,10333 -340,10321 -361,10306 -388,10305 -426,10321 -435,10355 -434,10387 -410,10414 -366,10419 -310,10391 -256,10342 " style="fill: white; stroke: black; stroke-width: 30" />
<polyline points="-215,10241 -219,10235 -234,10242 -253,10277 -260,10330 -265,10370 -255,10384 -240,10393 -201,10410 -197,10441 -198,10482 " style="fill: white; stroke: black; stroke-width: 30" />
<polyline points="-2577,10743 -2574,10740 -2574,10744 -2556,10751 -2546,10753 -2531,10755 -2495,10753 -2475,10751 -2451,10742 -2410,10742 -2352,10757 " style="fill: white; stroke: black; stroke-width: 30" />
<polyline points="-2534,10815 -2538,10813 -2540,10814 -2551,10815 -2539,10821 -2545,10843 -2556,10904 -2573,10978 -2571,11034 -2554,11080 -2540,11099 -2535,11104 -2528,11106 -2524,11109 -2520,11109 -2524,11108 -2526,11106 -2543,11101 -2545,11099 -2546,11096 -2540,11096 -2533,11096 -2543,11093 -2532,11091 -2489,11080 -2431,11073 -2396,11066 -2370,11070 -2376,11065 -2412,11057 -2429,11054 -2404,11060 -2361,11068 -2334,11076 -2329,11077 -2323,11078 -2327,11075 -2325,11077 -2332,11081 " style="fill: white; stroke: black; stroke-width: 30" />
<polyline points="-2337,11039 -2345,11036 -2342,11030 -2301,11027 -2267,11033 -2232,11047 -2231,11063 -2242,11074 -2246,11082 -2271,11083 -2271,11085 -2278,11086 -2286,11084 -2300,11084 " style="fill: white; stroke: black; stroke-width: 30" />
<polyline points="-1972,11017 -1971,11022 -1974,11027 -1965,11039 -1952,11051 -1961,11075 -1952,11089 -1937,11101 " style="fill: white; stroke: black; stroke-width: 30" />
<polyline points="-2015,10903 -2037,10893 -2033,10886 -2018,10875 -1990,10872 -1953,10893 -1927,10919 -1924,10939 -1935,10950 -1968,10953 -1995,10947 -2001,10945 -1979,10942 -1964,10921 " style="fill: white; stroke: black; stroke-width: 30" />
<polyline points="-1891,11099 -1881,11110 -1880,11128 -1896,11144 -1903,11145 -1899,11139 -1887,11103 -1860,11061 -1844,11045 -1810,11046 -1786,11058 -1783,11083 -1799,11127 -1793,11170 -1777,11180 -1771,11154 " style="fill: white; stroke: black; stroke-width: 30" />
<polyline points="-1657,11062 -1664,11069 -1680,11070 -1672,11078 -1654,11084 -1639,11090 -1654,11086 -1650,11088 -1656,11088 -1650,11089 -1650,11091 -1655,11095 -1654,11104 -1651,11126 -1645,11145 -1630,11160 -1602,11164 -1567,11157 -1525,11136 -1497,11102 -1494,11066 -1493,11055 -1515,11048 -1535,11055 -1563,11065 -1557,11071 -1540,11087 -1522,11102 -1489,11106 -1449,11101 -1407,11090 -1349,11070 -1301,11039 -1297,11023 -1312,11011 -1353,10997 -1386,11002 -1389,11012 -1387,11014 -1360,11022 -1320,11041 -1271,11059 -1219,11066 -1174,11069 -1140,11068 -1145,11068 -1155,11065 -1166,11066 -1187,11070 -1195,11080 -1210,11085 -1217,11086 -1225,11085 -1221,11085 -1225,11087 -1227,11088 -1234,11086 -1251,11085 -1288,11081 -1310,11082 -1331,11082 -1332,11084 -1326,11087 -1301,11099 " style="fill: white; stroke: black; stroke-width: 30" />
<polyline points="-1096,10814 -1152,10810 -1164,10810 -1151,10821 -1136,10877 -1143,10987 -1173,11077 -1175,11121 -1181,11131 -1173,11118 -1172,11091 -1162,11071 -1139,11057 -1124,11051 -1102,11041 -1057,11036 -1022,11050 " style="fill: white; stroke: black; stroke-width: 30" />
<polyline points="-439,10958 -432,10941 -432,10948 -430,10990 -428,11063 -428,11109 -432,11105 -425,11083 -433,11011 -445,10948 -448,10882 -409,10828 -366,10806 -340,10831 -352,10899 -377,10966 -422,11014 -463,11034 -467,11037 -461,11043 -449,11059 -421,11077 -366,11085 -316,11069 -275,11033 -250,11015 -262,11012 -293,11013 -314,11014 -325,11024 -315,11043 -289,11098 -262,11117 -208,11133 -153,11129 " style="fill: white; stroke: black; stroke-width: 30" />
<polyline points="-55,10834 -90,10881 -89,10956 -79,11062 -67,11126 -67,11137 -90,11130 -128,11101 -156,11044 -150,11033 -140,11037 -113,11043 -50,11040 29,11019 70,10992 78,10992 47,11004 33,11031 18,11053 27,11058 60,11055 137,11045 193,11045 212,11053 221,11057 225,11052 " style="fill: white; stroke: black; stroke-width: 30" />
<polyline points="333,11102 311,11085 297,11076 303,11071 313,11065 336,11051 352,11031 374,11023 385,11036 " style="fill: white; stroke: black; stroke-width: 30" />
<polyline points="420,11131 428,11116 440,11100 452,11091 469,11092 477,11096 486,11098 506,11120 " style="fill: white; stroke: black; stroke-width: 30" />
<polyline points="1505,10912 1500,10906 1496,10909 1494,10929 1478,11015 1469,11109 1472,11146 1470,11146 1478,11131 1483,11083 1474,11033 1459,10983 1458,10927 1444,10896 1431,10881 1435,10882 1438,10884 1437,10907 1444,10981 1478,11059 1521,11111 1598,11139 1688,11128 1768,11082 1804,11024 1817,10971 1809,10938 1776,10929 1739,10925 1727,10933 1713,10939 1718,10947 " style="fill: white; stroke: black; stroke-width: 30" />
<polyline points="1939,10991 1913,10988 1912,10987 1908,10999 1897,11034 1916,11082 1952,11117 2000,11113 2054,11084 2093,11060 2089,11059 2088,11064 2077,11079 2073,11091 2086,11102 2122,11082 " style="fill: white; stroke: black; stroke-width: 30" />
<polyline points="2288,10837 2250,10854 2213,10908 2179,11001 2168,11094 2183,11150 2209,11155 2222,11133 " style="fill: white; stroke: black; stroke-width: 30" />
<polyline points="2215,11015 2194,11011 2196,11009 2196,11009 2191,11010 2201,11014 2229,11019 2265,11024 " style="fill: white; stroke: black; stroke-width: 30" />
<polyline points="2355,10992 2371,10992 2384,11009 2362,11052 2340,11108 2304,11174 2298,11201 2329,11220 2385,11240 2442,11233 2463,11201 " style="fill: white; stroke: black; stroke-width: 30" />
<polyline points="2294,11092 2269,11101 2293,11106 2347,11121 2414,11132 2462,11145 " style="fill: white; stroke: black; stroke-width: 30" />
<polyline points="2591,10913 2583,10916 2562,10940 2549,11010 2532,11096 2531,11142 2535,11149 2551,11137 2602,11085 2667,11045 2709,11039 2738,11065 2725,11115 2702,11164 2643,11201 2567,11218 2513,11202 2517,11150 2551,11081 2607,11040 " style="fill: white; stroke: black; stroke-width: 30" />
<polyline points="2811,11056 2843,11047 2883,11052 2883,11071 2874,11096 2876,11140 2854,11190 2820,11230 2800,11242 2769,11232 2732,11194 2717,11166 2739,11146 2770,11139 2779,11149 2806,11174 2837,11205 2860,11235 2876,11261 2913,11257 2952,11219 2991,11164 3013,11132 3025,11116 3042,11102 3061,11093 3104,11080 3183,11062 3244,11055 " style="fill: white; stroke: black; stroke-width: 30" />
<polyline points="-1918,11560 -1922,11560 -1918,11564 -1925,11574 -1926,11582 -1929,11589 -1920,11586 -1935,11580 -1921,11566 -1905,11537 -1886,11503 -1879,11486 -1868,11490 -1863,11502 -1867,11510 -1867,11510 -1868,11506 -1851,11512 -1823,11519 -1801,11525 -1805,11519 -1785,11509 -1758,11493 -1738,11490 -1710,11500 -1705,11510 -1702,11524 -1700,11537 -1689,11541 -1685,11544 " style="fill: white; stroke: black; stroke-width: 30" />
<polyline points="-1556,11468 -1569,11464 -1565,11465 -1558,11483 -1515,11510 -1491,11535 -1492,11556 -1515,11598 -1558,11634 -1597,11641 -1617,11617 -1639,11587 -1630,11570 -1617,11567 -1577,11575 -1541,11587 -1501,11588 -1455,11580 " style="fill: white; stroke: black; stroke-width: 30" />
<polyline points="-1334,11444 -1356,11444 -1372,11444 -1388,11454 -1407,11482 -1406,11543 -1413,11588 -1388,11602 -1351,11586 -1265,11519 -1206,11416 -1163,11362 -1170,11359 -1184,11388 -1224,11456 -1246,11519 -1215,11543 -1167,11550 -1085,11550 -1014,11569 -977,11571 -936,11557 -935,11522 -934,11499 -954,11507 -980,11532 -981,11565 -969,11581 -934,11590 -900,11601 -861,11611 -837,11613 -829,11601 -820,11591 -822,11586 -822,11589 -820,11595 -823,11606 -817,11613 " style="fill: white; stroke: black; stroke-width: 30" />
<polyline points="900,11435 911,11410 909,11382 876,11376 822,11382 746,11414 660,11466 615,11514 620,11534 635,11567 705,11633 813,11660 908,11627 954,11565 957,11519 930,11493 872,11474 833,11475 820,11474 805,11477 822,11481 817,11492 855,11508 914,11537 959,11554 999,11575 1005,11599 1024,11612 1044,11614 1045,11622 1026,11633 1031,11638 1036,11627 1037,11588 1024,11533 1016,11515 1002,11514 998,11515 1009,11517 1041,11525 1092,11533 1156,11530 " style="fill: white; stroke: black; stroke-width: 30" />
<polyline points="1277,11483 1272,11479 1270,11480 1284,11492 1328,11524 1347,11578 1352,11624 1337,11664 1310,11683 1279,11668 1260,11616 1249,11577 1250,11564 1256,11564 1309,11578 1348,11608 1374,11634 " style="fill: white; stroke: black; stroke-width: 30" />
<polyline points="1455,11674 1444,11664 1463,11614 1498,11569 1535,11549 1552,11557 1561,11575 1564,11599 1580,11616 1598,11635 " style="fill: white; stroke: black; stroke-width: 30" />
<polyline points="1703,11626 1717,11594 1742,11554 1747,11529 1716,11529 1694,11546 1695,11568 1716,11605 1758,11664 1786,11755 1804,11860 1810,11949 1791,11990 1780,11996 1756,11980 1752,11886 1788,11755 1825,11682 1873,11639 1917,11617 1956,11605 1990,11588 1992,11584 1978,11597 1965,11617 1958,11626 1960,11625 1970,11618 1974,11613 1966,11619 1959,11636 1945,11677 1956,11697 1994,11705 2034,11700 2074,11688 2115,11661 " style="fill: white; stroke: black; stroke-width: 30" />
<polyline points="-3482,5862 -3485,5842 -3501,5837 -3531,5836 -3561,5837 -3615,5849 -3682,5889 -3745,5957 -3793,6040 -3807,6120 -3786,6176 -3725,6222 -3616,6235 -3517,6194 -3456,6130 -3426,6061 -3429,6018 -3446,5976 -3463,5951 -3475,5935 -3484,5929 -3486,5927 -3493,5926 -3491,5926 -3492,5929 -3495,5925 -3494,5926 -3492,5925 -3497,5924 -3499,5922 -3499,5923 -3500,5920 -3502,5921 -3504,5919 -3504,5919 -3500,5910 -3468,5867 -3415,5809 -3371,5758 -3334,5709 -3313,5684 -3309,5678 -3310,5679 -3309,5679 -3307,5676 -3307,5669 " style="fill: white; stroke: black; stroke-width: 30" />
<polyline points="-3343,5611 -3351,5605 -3346,5607 -3339,5601 -3322,5596 -3295,5584 -3259,5562 -3232,5545 -3228,5548 -3228,5550 -3229,5561 -3224,5619 -3234,5714 -3240,5774 -3246,5794 -3246,5791 -3243,5786 -3239,5769 " style="fill: white; stroke: black; stroke-width: 30" />
<polyline points="-3043,5969 -3039,5957 -3046,5939 -3072,5918 -3115,5898 -3175,5909 -3251,5955 -3322,6049 -3365,6165 -3364,6245 -3325,6282 -3241,6296 -3132,6252 -3055,6163 -3022,6063 -3018,6009 -3046,5984 -3067,5972 -3073,5972 -3079,5971 -3079,5974 -3085,5973 -3085,5977 -3089,5975 -3087,5975 -3083,5976 -3080,5983 -3080,6002 " style="fill: white; stroke: black; stroke-width: 30" />
<polyline points="-3250,6330 -3255,6329 -3252,6354 -3258,6432 -3256,6541 -3256,6633 -3257,6673 -3259,6673 -3255,6672 -3260,6664 -3282,6616 " style="fill: white; stroke: black; stroke-width: 30" />
<polyline points="-3419,6523 -3431,6518 -3426,6515 -3421,6507 -3372,6492 -3283,6467 -3195,6438 -3104,6437 " style="fill: white; stroke: black; stroke-width: 30" />
<polyline points="-3692,6131 -3693,6129 -3700,6119 -3693,6089 -3685,6031 -3675,5963 -3658,5913 -3647,5894 -3651,5891 -3650,5901 -3648,5928 -3633,5975 -3602,6027 -3565,6061 -3536,6069 -3526,6069 " style="fill: white; stroke: black; stroke-width: 30" />
<polyline points="-3703,6047 -3718,6044 -3719,6045 -3710,6039 -3676,6028 -3628,6010 -3585,5987 -3538,5979 " style="fill: white; stroke: black; stroke-width: 30" />
<polyline points="-3297,6193 -3293,6192 -3276,6169 -3246,6102 -3213,6020 -3202,5956 -3199,5951 -3197,5952 -3196,5962 -3195,5973 -3189,6011 -3180,6077 -3160,6133 -3137,6162 -3119,6165 -3105,6152 " style="fill: white; stroke: black; stroke-width: 30" />
<polyline points="-3254,6113 -3264,6112 -3262,6113 -3253,6107 -3217,6094 -3166,6072 -3108,6058 " style="fill: white; stroke: black; stroke-width: 30" />
<polyline points="-2224,5678 -2234,5661 -2244,5645 -2261,5634 -2298,5618 -2378,5617 -2477,5638 -2574,5692 -2641,5764 -2656,5821 -2623,5863 -2541,5902 -2439,5907 -2360,5884 -2301,5837 -2260,5782 -2243,5740 -2234,5709 -2233,5710 -2234,5715 -2237,5718 -2241,5719 -2243,5718 -2242,5719 -2238,5719 -2234,5720 -2227,5719 -2228,5719 -2225,5717 -2225,5716 -2221,5713 -2218,5711 -2212,5709 " style="fill: white; stroke: black; stroke-width: 30" />
<polyline points="-2405,5920 -2423,5923 -2434,5926 -2450,5955 -2452,6005 -2446,6086 -2436,6114 -2430,6120 -2421,6118 -2414,6115 -2414,6112 -2421,6106 -2426,6099 " style="fill: white; stroke: black; stroke-width: 30" />
<polyline points="-2546,6042 -2570,6045 -2580,6044 -2576,6047 -2569,6049 -2558,6047 -2529,6044 -2514,6042 -2485,6046 -2462,6050 -2433,6052 -2418,6054 -2386,6053 -2367,6050 -2359,6046 -2352,6050 -2353,6048 -2353,6048 -2347,6047 -2346,6049 -2346,6049 -2350,6050 -2348,6050 -2348,6050 -2348,6046 -2348,6044 -2334,6037 " style="fill: white; stroke: black; stroke-width: 30" />
<polyline points="-2740,6074 -2736,6068 -2713,6040 -2660,5964 -2564,5844 -2458,5741 -2352,5650 -2275,5594 -2252,5566 -2257,5564 -2260,5566 -2269,5576 -2303,5611 " style="fill: white; stroke: black; stroke-width: 30" />
<polyline points="-2703,6166 -2716,6178 -2699,6150 -2640,6083 -2549,5989 -2454,5908 -2379,5838 -2301,5769 -2238,5715 -2215,5699 -2212,5698 -2215,5702 -2220,5703 -2220,5707 -2225,5712 -2265,5747 " style="fill: white; stroke: black; stroke-width: 30" />
<polyline points="-2624,6302 -2636,6293 -2620,6262 -2573,6210 -2490,6140 -2393,6063 -2307,5981 -2233,5909 -2172,5848 -2157,5833 -2161,5835 -2156,5839 -2161,5837 -2162,5836 -2160,5834 -2160,5833 -2159,5830 " style="fill: white; stroke: black; stroke-width: 30" />
<polyline points="-2969,6980 -2965,6988 -2955,7005 -2954,7036 -2958,7088 -2958,7120 -2943,7128 -2943,7126 -2942,7103 -2969,7044 -2989,7000 -3005,6974 -3006,6970 -3005,6970 -2986,6969 -2937,6977 -2883,7004 -2851,7042 -2844,7071 -2863,7111 -2918,7137 -2965,7156 -2991,7160 -3000,7155 -3001,7143 " style="fill: white; stroke: black; stroke-width: 30" />
<polyline points="-1122,5950 -1113,5922 -1114,5910 -1127,5911 -1166,5923 -1216,5956 -1235,5983 -1228,5997 -1202,6029 -1162,6056 -1120,6066 -1083,6054 " style="fill: white; stroke: black; stroke-width: 30" />
<polyline points="-1023,6013 -1036,6015 -1049,6013 -1060,5998 -1068,5971 -1067,5961 -1064,5960 -1047,5959 -1022,5960 -1002,5975 -972,5997 -929,6009 -872,5987 -825,5954 -816,5935 -831,5934 -871,5953 -916,5991 -936,6031 -912,6057 -855,6058 -792,6034 -751,6014 " style="fill: white; stroke: black; stroke-width: 30" />
<polyline points="-722,5999 -723,6000 -716,5995 -693,5979 -656,5940 -638,5912 -645,5902 -664,5911 -701,5939 -725,5978 -721,6004 -702,6015 -666,6024 -628,6032 " style="fill: white; stroke: black; stroke-width: 30" />
<polyline points="-511,5961 -529,5961 -541,5957 -541,5952 -542,5951 -551,5958 -556,5971 -568,5992 -568,6007 -561,6009 -549,6005 -522,5981 -476,5919 -444,5861 -435,5838 -439,5839 -443,5844 -450,5856 -458,5892 -474,5967 -467,6009 -443,6028 " style="fill: white; stroke: black; stroke-width: 30" />
<polyline points="209,5885 199,5877 185,5873 179,5873 176,5871 179,5870 178,5869 177,5870 174,5868 174,5871 170,5895 153,5977 151,6034 165,6058 190,6054 236,6022 282,5960 317,5912 342,5884 347,5881 336,5889 315,5935 295,5992 301,6016 324,6035 " style="fill: white; stroke: black; stroke-width: 30" />
<polyline points="483,5865 457,5856 440,5853 427,5870 423,5915 436,5967 460,6002 463,6027 453,6039 429,6046 392,6040 368,6028 366,6014 " style="fill: white; stroke: black; stroke-width: 30" />
<polyline points="562,6100 561,6087 579,6040 620,5964 670,5890 712,5849 732,5831 737,5828 734,5831 " style="fill: white; stroke: black; stroke-width: 30" />
<polyline points="939,5882 939,5878 915,5871 859,5884 789,5930 755,5989 755,6023 783,6041 827,6040 873,6021 885,6003 " style="fill: white; stroke: black; stroke-width: 30" />
<polyline points="853,5963 848,5960 858,5958 881,5964 901,5974 906,5985 900,6000 887,6037 893,6054 " style="fill: white; stroke: black; stroke-width: 30" />
<polyline points="1054,5863 1055,5871 1053,5895 1030,5957 991,6020 975,6055 974,6059 989,6045 1017,5991 1037,5925 1046,5880 1045,5868 1042,5863 1036,5871 1020,5893 1007,5921 1010,5926 1010,5926 1012,5921 1010,5917 1009,5910 1012,5903 1030,5882 1058,5858 1072,5858 1091,5871 1108,5889 1116,5904 1118,5909 1106,5923 1061,5946 1015,5950 1007,5946 1007,5944 1018,5942 1046,5943 1082,5953 1103,5976 1103,6003 1084,6034 1055,6056 1029,6065 1016,6058 1009,6055 1010,6044 " style="fill: white; stroke: black; stroke-width: 30" />
<polyline points="297,6154 291,6156 279,6170 258,6216 235,6276 239,6315 275,6342 348,6357 426,6354 473,6351 498,6344 515,6343 " style="fill: white; stroke: black; stroke-width: 30" />
<polyline points="525,6285 530,6282 550,6276 594,6282 663,6306 688,6340 667,6381 632,6420 607,6436 601,6439 606,6434 620,6426 " style="fill: white; stroke: black; stroke-width: 30" />
<polyline points="982,6288 984,6283 976,6296 961,6366 948,6456 943,6487 955,6475 967,6400 959,6300 955,6238 972,6218 1004,6225 1048,6253 1067,6280 1066,6288 1048,6300 1001,6307 965,6300 962,6290 966,6282 976,6273 1018,6264 " style="fill: white; stroke: black; stroke-width: 30" />
<polyline points="1187,6224 1202,6218 1199,6224 1173,6264 1142,6320 1142,6333 1177,6318 1250,6259 1314,6217 1324,6221 1302,6267 1278,6319 1273,6332 1291,6327 " style="fill: white; stroke: black; stroke-width: 30" />
<polyline points="1502,6048 1482,6064 1464,6111 1444,6180 1433,6240 1435,6272 1441,6273 1447,6270 1471,6244 1499,6224 1520,6230 1544,6261 1536,6297 1526,6319 1496,6324 1458,6307 1421,6258 1420,6248 1425,6239 1479,6218 1559,6178 " style="fill: white; stroke: black; stroke-width: 30" />
<polyline points="1681,6072 1673,6066 1644,6083 1609,6136 1579,6207 1583,6251 1610,6273 1657,6277 1717,6257 1763,6243 1777,6238 1778,6242 1781,6263 1776,6286 1780,6310 1782,6317 1791,6297 " style="fill: white; stroke: black; stroke-width: 30" />
<polyline points="1853,6092 1856,6054 1845,6049 1834,6047 1824,6051 1828,6052 " style="fill: white; stroke: black; stroke-width: 30" />
<polyline points="1970,6214 1929,6213 1874,6254 1863,6289 1892,6310 1959,6317 2037,6306 " style="fill: white; stroke: black; stroke-width: 30" />
<polyline points="2754,6173 2734,6165 2704,6166 2652,6187 2621,6208 2622,6238 2650,6273 2662,6295 2650,6311 2614,6337 2563,6346 2536,6335 2541,6330 2574,6312 " style="fill: white; stroke: black; stroke-width: 30" />
<polyline points="2906,6115 2881,6136 2841,6195 2806,6287 2793,6348 2803,6378 2807,6375 2820,6345 2811,6291 2803,6273 2797,6274 2799,6278 2803,6277 2814,6281 2855,6285 2926,6285 " style="fill: white; stroke: black; stroke-width: 30" />
<polyline points="2985,6213 2981,6204 2997,6194 3014,6206 3026,6239 3010,6291 2981,6334 2954,6351 2935,6348 2922,6337 2926,6327 2940,6325 2971,6325 3019,6326 3058,6322 " style="fill: white; stroke: black; stroke-width: 30" />
<polyline points="3264,6090 3232,6107 3186,6166 3161,6235 3171,6286 3179,6313 3186,6317 3182,6311 3172,6288 3181,6272 3205,6264 3267,6249 3309,6239 3318,6240 3309,6242 3299,6254 3286,6295 3281,6327 3289,6333 " style="fill: white; stroke: black; stroke-width: 30" />
<polyline points="3398,6055 3364,6058 3363,6055 3365,6054 3377,6053 " style="fill: white; stroke: black; stroke-width: 30" />
<polyline points="3462,6234 3448,6232 3428,6243 3405,6270 3413,6284 3450,6305 3526,6319 3599,6322 " style="fill: white; stroke: black; stroke-width: 30" />
<polyline points="3924,6184 3908,6163 3916,6132 3932,6097 3966,6072 4005,6070 4011,6088 3994,6123 3961,6172 3951,6200 3952,6226 3952,6264 3955,6288 " style="fill: white; stroke: black; stroke-width: 30" />
<polyline points="3974,6382 3945,6394 3945,6393 3940,6395 3933,6394 3926,6395 3919,6395 3925,6393 3929,6390 3934,6392 3948,6387 " style="fill: white; stroke: black; stroke-width: 30" />
<polyline points="2234,6475 2224,6479 2209,6512 2182,6609 2154,6691 2170,6723 2214,6730 2293,6730 2358,6721 2384,6714 " style="fill: white; stroke: black; stroke-width: 30" />
<polyline points="2389,6610 2387,6612 2395,6617 2404,6635 2418,6653 2413,6692 2384,6731 2364,6753 2366,6753 " style="fill: white; stroke: black; stroke-width: 30" />
<polyline points="2730,6588 2717,6583 2706,6586 2679,6610 2657,6658 2640,6714 2632,6753 2633,6773 2627,6788 2621,6806 2618,6813 2617,6817 2617,6819 2619,6821 2617,6821 2617,6819 2618,6816 2616,6814 2617,6812 2629,6810 2648,6798 2695,6783 2723,6777 2735,6783 " style="fill: white; stroke: black; stroke-width: 30" />
<polyline points="2818,6704 2820,6701 2823,6709 2819,6746 2811,6783 2819,6804 2851,6802 2895,6786 2926,6758 2932,6757 2925,6762 2918,6774 2923,6777 2959,6769 " style="fill: white; stroke: black; stroke-width: 30" />
<polyline points="3068,6570 3061,6576 3048,6604 3011,6678 2997,6727 3001,6752 3015,6757 3039,6753 3066,6747 3071,6748 3070,6753 3073,6756 3083,6752 " style="fill: white; stroke: black; stroke-width: 30" />
<polyline points="3179,6750 3160,6761 3150,6764 3152,6761 3153,6760 3157,6757 3173,6748 3207,6735 3224,6729 3212,6739 3209,6748 3206,6769 3207,6770 3238,6766 3283,6758 3287,6760 3286,6762 3292,6766 3325,6762 " style="fill: white; stroke: black; stroke-width: 30" />
<polyline points="3473,6680 3464,6683 3472,6690 3465,6704 3459,6728 3433,6766 3408,6792 3392,6803 3392,6795 3394,6774 3399,6743 3405,6733 3398,6734 3405,6745 3439,6760 3481,6772 " style="fill: white; stroke: black; stroke-width: 30" />
<polyline points="3530,6794 3520,6790 3543,6766 3574,6748 3592,6741 3597,6742 3591,6753 3591,6771 3608,6786 3652,6793 " style="fill: white; stroke: black; stroke-width: 30" />
<polyline points="3754,6741 3751,6739 3746,6751 3741,6753 3740,6753 3748,6752 3763,6757 3773,6766 3783,6774 " style="fill: white; stroke: black; stroke-width: 30" />
<polyline points="2849,6984 2829,6979 2791,6970 2747,6967 2709,6978 2689,7002 2693,7026 2722,7074 2775,7120 2802,7146 2800,7160 2766,7178 2722,7173 2690,7163 2671,7145 2671,7141 2671,7140 2691,7132 " style="fill: white; stroke: black; stroke-width: 30" />
<polyline points="2829,7069 2812,7064 2814,7059 2808,7069 2821,7074 2852,7077 2881,7073 2863,7079 2860,7085 2865,7085 2871,7082 2879,7077 2883,7073 2889,7068 2900,7063 2896,7061 2893,7065 2878,7078 2863,7100 2851,7151 2842,7198 2844,7226 2857,7220 " style="fill: white; stroke: black; stroke-width: 30" />
<polyline points="3047,7068 3054,7065 3057,7063 3065,7062 3069,7060 3067,7062 3060,7066 3054,7070 3052,7073 3056,7074 3055,7072 3059,7065 3055,7059 3056,7058 3058,7058 3055,7059 3045,7060 3023,7065 3003,7069 2993,7075 2996,7082 3000,7101 3011,7119 3033,7126 3039,7133 3032,7136 3014,7134 2990,7130 2983,7126 2985,7123 2988,7126 " style="fill: white; stroke: black; stroke-width: 30" />
<polyline points="3145,7113 3142,7106 3138,7101 3137,7097 3125,7097 3125,7102 3146,7094 3167,7086 3181,7079 3181,7074 3170,7061 3126,7067 3092,7078 3083,7090 3105,7113 3152,7134 3192,7152 3219,7153 3244,7138 3270,7104 3290,7068 3296,7055 3297,7054 3299,7054 3305,7059 3320,7064 3357,7058 " style="fill: white; stroke: black; stroke-width: 30" />
<polyline points="3461,6901 3437,6897 3431,6903 3406,6934 3380,7000 3370,7056 3376,7077 3388,7092 3405,7096 3415,7094 3437,7093 3446,7096 3448,7104 3452,7112 3456,7112 " style="fill: white; stroke: black; stroke-width: 30" />
<polyline points="3548,7021 3553,7020 3565,7025 3561,7038 3553,7069 3545,7103 3518,7138 3493,7153 3485,7146 3470,7126 3460,7110 3458,7112 3470,7114 3520,7118 3582,7105 3630,7072 3669,7016 3677,6986 3675,6983 3677,6979 3674,6980 3671,6982 3630,7001 3594,7027 3595,7048 3607,7072 3629,7101 3659,7124 3703,7131 3762,7113 " style="fill: white; stroke: black; stroke-width: 30" />
<polyline points="3796,6946 3767,6966 3741,7007 3727,7055 3727,7100 3733,7127 3728,7137 3742,7126 3750,7093 3750,7066 3751,7066 3758,7066 3790,7070 3819,7076 3845,7074 " style="fill: white; stroke: black; stroke-width: 30" />
<polyline points="4033,7167 4031,7155 4036,7136 4057,7107 4095,7070 4126,7060 4157,7056 4167,7068 4176,7071 4176,7101 4185,7132 4190,7177 4225,7201 4245,7204 4261,7198 4278,7191 4296,7190 4317,7189 4330,7186 4334,7183 4341,7175 4347,7163 4350,7155 4348,7151 4347,7139 4346,7120 4327,7105 4304,7091 4270,7087 4233,7091 4193,7105 4162,7124 4134,7146 4097,7173 4068,7194 4046,7218 4040,7221 4039,7216 4039,7189 4036,7142 4044,7109 4053,7086 4059,7064 " style="fill: white; stroke: black; stroke-width: 30" />
<polyline points="1862,5910 1865,5916 1865,5914 1861,5916 1861,5914 1862,5914 1876,5911 1949,5904 2056,5905 2167,5912 2258,5916 2307,5916 2331,5910 2328,5914 2307,5918 " style="fill: white; stroke: black; stroke-width: 30" />
<polyline points="1888,5852 1880,5852 1876,5849 1866,5849 1826,5861 1762,5896 1714,5940 1714,5946 1735,5949 1782,5970 1844,6005 1914,6039 1983,6053 " style="fill: white; stroke: black; stroke-width: 30" />
<polyline points="2655,5947 2645,5927 2635,5906 2634,5901 2626,5905 2605,5931 2588,5975 2598,5991 2634,6001 2699,5980 2752,5937 2768,5926 2760,5930 2752,5947 2749,5965 2757,5969 2763,5978 " style="fill: white; stroke: black; stroke-width: 30" />
<polyline points="2683,5831 2686,5828 2693,5822 2708,5818 2751,5822 2801,5827 2844,5823 " style="fill: white; stroke: black; stroke-width: 30" />
<polyline points="2921,5827 2908,5843 2899,5879 2886,5925 2876,5953 2877,5953 2884,5945 2917,5920 2950,5903 2968,5911 2975,5929 2972,5943 2966,5949 2938,5953 2898,5946 2881,5947 2887,5946 2902,5942 2950,5918 2984,5920 " style="fill: white; stroke: black; stroke-width: 30" />
<polyline points="3118,5950 3167,5930 3185,5911 3175,5898 3146,5892 3100,5897 3070,5912 3071,5926 3093,5958 3137,5982 3179,5988 3204,5976 3223,5950 3232,5915 3236,5900 3240,5898 3245,5901 3267,5905 3298,5909 " style="fill: white; stroke: black; stroke-width: 30" />
<polyline points="3407,5869 3412,5864 3413,5864 3415,5874 3421,5901 3431,5933 3439,5945 3454,5948 3465,5951 3467,5956 3462,5966 " style="fill: white; stroke: black; stroke-width: 30" />
<polyline points="3359,5914 3361,5909 3361,5909 3365,5911 3375,5918 3386,5918 3399,5913 3443,5906 3477,5904 3496,5906 3503,5909 " style="fill: white; stroke: black; stroke-width: 30" />
<polyline points="3572,5899 3569,5897 3577,5893 3591,5884 3610,5867 3615,5859 3608,5850 3583,5852 3539,5869 3512,5890 3518,5901 3530,5914 3566,5928 3607,5935 3644,5926 3681,5900 3699,5878 3696,5870 3695,5866 3691,5869 3679,5874 3667,5887 3650,5907 3655,5917 3675,5926 3707,5926 3738,5908 3748,5898 3746,5900 3745,5908 3754,5921 3766,5942 3779,5958 " style="fill: white; stroke: black; stroke-width: 30" />
<polyline points="3899,5887 3905,5878 3888,5876 3845,5883 3777,5909 3767,5925 3794,5930 3862,5927 3919,5912 3917,5916 3896,5933 3876,5976 3853,6025 3837,6051 3799,6076 3760,6069 3748,6040 3772,5992 3855,5928 3947,5869 " style="fill: white; stroke: black; stroke-width: 30" />
<polyline points="4068,5750 4066,5733 4044,5741 4032,5764 4012,5822 4003,5883 3970,5942 3950,5962 3954,5960 3962,5946 3986,5905 4003,5877 4014,5865 4024,5863 4036,5864 4085,5860 4135,5859 " style="fill: white; stroke: black; stroke-width: 30" />
<polyline points="3665,5013 3654,5005 3644,5005 3638,5020 3633,5077 3624,5154 3618,5199 3627,5207 3638,5205 3653,5191 3675,5148 3702,5083 3704,5024 3695,5001 3683,4997 3683,4996 3685,4996 3688,4998 3688,5001 3694,4998 3692,4999 3688,5001 3686,5001 3689,4999 3691,4997 3691,4996 3690,4996 3697,4990 3698,4985 3699,4984 3701,4979 3704,4979 3704,4978 3700,4982 3698,4982 3696,4984 3689,4988 3685,4991 3681,4992 3677,4996 3677,4997 3677,4998 3676,4998 3679,4998 3674,5017 3671,5052 3692,5078 3722,5088 3777,5085 3839,5050 3878,5013 3880,5009 3881,5012 3873,5030 3857,5079 3855,5130 3860,5171 3867,5192 3877,5184 " style="fill: white; stroke: black; stroke-width: 30" />
<polyline points="4121,4980 4120,4972 4095,4977 4047,4991 3978,5017 3930,5054 3926,5083 3938,5124 3975,5157 4035,5169 4099,5172 4153,5160 4186,5143 4200,5114 " style="fill: white; stroke: black; stroke-width: 30" />
<polyline points="3729,5311 3728,5306 3726,5303 3715,5314 3678,5373 3625,5472 3615,5525 3632,5557 3682,5567 3755,5565 3805,5549 3809,5551 3809,5551 3804,5548 3813,5536 " style="fill: white; stroke: black; stroke-width: 30" />
<polyline points="3819,5470 3833,5472 3865,5479 3879,5492 3886,5501 3877,5529 3850,5572 3805,5616 3793,5626 3799,5620 3810,5614 " style="fill: white; stroke: black; stroke-width: 30" />
<polyline points="4049,5458 4024,5465 4003,5482 3990,5513 3990,5540 4015,5558 4046,5568 4066,5570 4077,5558 4112,5535 4156,5488 4180,5466 4173,5469 4174,5477 4163,5492 4149,5512 4150,5519 4151,5529 " style="fill: white; stroke: black; stroke-width: 30" />
<polyline points="4128,5371 4112,5371 4115,5369 4116,5372 4132,5377 4187,5383 4237,5385 4256,5391 4265,5398 4272,5405 4285,5402 4282,5406 4283,5410 4278,5437 4258,5482 4242,5528 4240,5551 4246,5553 4276,5545 4341,5501 4394,5475 4419,5479 4401,5519 4353,5567 4298,5600 4271,5594 4260,5575 4258,5556 4274,5531 4306,5510 4343,5505 " style="fill: white; stroke: black; stroke-width: 30" />
<polyline points="4406,5570 4431,5580 4474,5567 4516,5540 4523,5516 4497,5502 4436,5515 4394,5537 4391,5556 4425,5580 4468,5605 4507,5614 4524,5607 4541,5575 4549,5535 4557,5511 4564,5504 4580,5505 4590,5505 4591,5504 " style="fill: white; stroke: black; stroke-width: 30" />
<polyline points="4692,5484 4673,5475 4676,5481 4686,5494 4700,5514 4711,5537 4707,5558 4681,5588 4637,5612 4635,5616 4659,5621 4697,5623 " style="fill: white; stroke: black; stroke-width: 30" />
<polyline points="4694,5517 4654,5518 4622,5529 4621,5531 4638,5546 4664,5561 4692,5570 4717,5563 4750,5546 4770,5529 4775,5526 4772,5529 4761,5538 4737,5554 4721,5573 4728,5585 4754,5602 4798,5605 4836,5591 4840,5579 4842,5570 4835,5575 4829,5589 4827,5604 4842,5609 4861,5601 4878,5585 4874,5586 4874,5594 4894,5606 " style="fill: white; stroke: black; stroke-width: 30" />
<polyline points="5006,5566 4992,5556 4975,5538 4950,5538 4936,5547 4942,5575 4968,5608 4974,5641 4969,5661 4927,5698 4900,5729 4898,5735 4909,5728 4921,5705 4951,5649 4987,5573 5017,5522 5071,5483 5111,5457 5109,5450 5106,5426 5093,5417 5086,5421 5083,5443 5079,5499 5068,5558 5045,5606 5023,5630 5005,5643 5009,5627 5037,5588 5064,5538 5063,5531 5066,5524 5061,5526 5060,5528 5070,5537 " style="fill: white; stroke: black; stroke-width: 30" />

</svg>