<?xml version="1.0" standalone="no"?>
<!DOCTYPE svg PUBLIC "-//W3C//DTD SVG 1.1//EN" "http://www.w3.org/Graphics/SVG/1.1/DTD/svg11.dtd">
<svg width="210mm" height="297mm" viewBox="-7000 500 14000 20000" version="1.1" xmlns="http://www.w3.org/2000/svg">

<polyline points="-1614,401 -1619,393 -1618,389 -1613,397 -1613,399 -1614,396 " style="fill: white; stroke: black; stroke-width: 30" />
<polyline points="-1619,466 -1617,508 -1618,540 -1615,564 " style="fill: white; stroke: black; stroke-width: 30" />
<polyline points="-1778,517 -1705,446 -1703,449 -1702,457 -1700,457 -1695,499 -1690,541 -1686,574 -1681,601 -1679,621 -1677,629 -1676,636 -1677,633 -1679,628 " style="fill: white; stroke: black; stroke-width: 30" />
<polyline points="-1617,505 -1662,547 -1664,547 -1663,542 -1662,545 -1654,541 -1642,534 -1618,525 -1579,522 -1535,524 -1503,510 -1491,515 -1490,518 -1491,513 " style="fill: white; stroke: black; stroke-width: 30" />
<polyline points="-1717,366 -1718,353 -1720,344 -1720,352 -1721,345 -1680,601 -1675,638 " style="fill: white; stroke: black; stroke-width: 30" />
<polyline points="-1713,515 -1712,545 -1711,581 -1712,582 -1709,591 -1706,592 -1706,585 -1706,588 " style="fill: white; stroke: black; stroke-width: 30" />
<polyline points="-1695,455 -1736,487 -1731,477 -1717,474 -1686,475 -1637,481 -1589,477 -1565,469 -1543,476 -1533,473 -1533,465 -1534,466 -1535,475 -1541,468 " style="fill: white; stroke: black; stroke-width: 30" />
<polyline points="-1581,395 -1582,389 " style="fill: white; stroke: black; stroke-width: 30" />
<polyline points="-1580,432 -1579,441 -1571,481 -1567,521 " style="fill: white; stroke: black; stroke-width: 30" />
<polyline points="-1532,627 -1446,484 -1433,453 -1427,427 -1423,417 -1423,411 -1424,404 -1421,412 -1418,428 -1408,445 -1395,481 -1380,516 -1366,540 -1356,560 -1350,558 -1345,568 -1341,571 " style="fill: white; stroke: black; stroke-width: 30" />
<polyline points="-1454,609 -1360,475 -1342,479 -1330,481 -1319,479 " style="fill: white; stroke: black; stroke-width: 30" />
<polyline points="-1360,532 -1286,422 -1285,457 -1279,498 -1273,529 -1259,539 -1239,556 -1220,557 -1202,548 -1183,540 -1168,541 -1159,535 -1152,530 -1148,531 -1145,528 -1138,523 -1129,507 " style="fill: white; stroke: black; stroke-width: 30" />
<polyline points="-1153,411 -1151,418 -1148,427 -1148,447 -1146,466 -1141,486 -1133,514 -1130,522 -1118,541 -1102,549 -1079,543 -1056,543 -1037,529 -1024,529 -1019,530 -1020,529 -1019,524 -1007,505 -985,489 " style="fill: white; stroke: black; stroke-width: 30" />
<polyline points="-984,601 -935,403 -937,405 -943,408 -952,410 -967,415 -984,422 -1002,441 -1018,458 -1024,482 -1019,501 -996,522 -957,529 -919,522 -885,507 -875,496 -871,480 -874,462 -877,436 -891,415 " style="fill: white; stroke: black; stroke-width: 30" />
<polyline points="-1850,871 -1852,865 -1852,868 -1849,870 -1844,879 -1840,894 -1833,922 -1830,953 -1829,971 -1824,991 -1820,1004 -1818,1009 -1816,1009 -1816,1009 -1817,1008 -1819,1006 " style="fill: white; stroke: black; stroke-width: 30" />
<polyline points="-1859,827 -1904,867 -1887,866 -1853,866 -1815,873 -1778,888 -1754,907 -1740,930 -1726,952 -1714,978 -1715,992 -1722,996 -1741,1010 -1769,1015 -1792,1016 -1811,1011 -1809,996 " style="fill: white; stroke: black; stroke-width: 30" />
<polyline points="-1645,874 -1643,876 -1641,881 -1636,901 -1631,927 -1627,951 -1625,985 -1623,1018 -1614,1037 -1584,1032 " style="fill: white; stroke: black; stroke-width: 30" />
<polyline points="-1550,897 -1549,896 -1545,903 -1541,912 -1539,937 -1536,957 -1530,983 -1519,1000 -1507,1009 -1491,1017 -1469,1020 -1439,1019 -1413,1013 -1394,1009 -1382,1003 -1379,996 " style="fill: white; stroke: black; stroke-width: 30" />
<polyline points="-1486,982 -1473,980 -1447,973 -1422,967 -1403,962 -1397,958 -1397,952 " style="fill: white; stroke: black; stroke-width: 30" />
<polyline points="-1538,917 -1536,917 -1522,916 -1495,906 -1463,901 -1426,899 -1391,892 " style="fill: white; stroke: black; stroke-width: 30" />
<polyline points="-1361,993 -1304,887 -1317,892 -1330,901 -1337,916 -1338,921 -1332,933 -1323,945 -1317,955 -1307,964 -1293,970 -1275,974 -1260,982 -1250,989 -1246,992 -1244,996 -1242,1002 -1242,1007 -1244,1011 -1246,1019 -1253,1027 -1268,1034 -1291,1041 -1306,1046 -1323,1048 -1340,1045 " style="fill: white; stroke: black; stroke-width: 30" />
<polyline points="-957,905 -965,906 -965,916 -963,941 -958,970 -954,1003 -949,1035 " style="fill: white; stroke: black; stroke-width: 30" />
<polyline points="-763,828 -786,915 -790,907 -793,905 -802,906 -820,916 -835,928 -849,945 -855,958 -852,969 -843,977 -824,986 -803,991 -786,998 -782,999 -780,1002 -779,1005 -778,1013 -781,1015 -788,1020 -802,1027 -823,1036 -846,1039 -864,1037 -873,1035 -863,1029 " style="fill: white; stroke: black; stroke-width: 30" />
<polyline points="-728,1109 -693,978 -693,989 -693,1004 -692,1021 -690,1033 -687,1038 -679,1037 " style="fill: white; stroke: black; stroke-width: 30" />
<polyline points="-735,911 -720,911 -694,910 -663,907 " style="fill: white; stroke: black; stroke-width: 30" />
<polyline points="-333,933 -334,933 -333,935 -334,950 -342,980 -355,1021 -362,1053 -364,1067 -359,1075 -350,1080 -332,1084 -310,1083 -283,1074 -257,1063 -239,1043 -224,1019 " style="fill: white; stroke: black; stroke-width: 30" />
<polyline points="-356,1157 -321,1004 -301,1001 -279,997 -257,989 " style="fill: white; stroke: black; stroke-width: 30" />
<polyline points="-347,932 -326,934 -291,932 -256,926 " style="fill: white; stroke: black; stroke-width: 30" />
<polyline points="-191,1129 -191,1015 -197,1039 -192,1058 -179,1059 " style="fill: white; stroke: black; stroke-width: 30" />
<polyline points="-143,1039 -139,1039 -136,1039 -135,1040 -135,1036 -134,1031 -131,1019 -128,1005 -125,986 -123,964 -122,943 -122,929 -122,926 -122,928 -122,930 -121,940 -113,961 -94,982 -62,1000 -15,1016 18,1022 35,1019 42,1011 48,1000 51,985 54,952 51,921 44,898 " style="fill: white; stroke: black; stroke-width: 30" />
<polyline points="363,835 372,933 372,944 369,967 365,998 " style="fill: white; stroke: black; stroke-width: 30" />
<polyline points="274,816 285,918 308,912 353,908 403,903 451,903 483,899 496,897 498,897 495,897 494,905 495,922 494,950 494,982 491,1008 491,1027 493,1039 500,1051 506,1056 514,1062 532,1063 557,1060 584,1055 609,1048 622,1037 623,1016 " style="fill: white; stroke: black; stroke-width: 30" />
<polyline points="473,894 475,999 477,1002 490,1002 509,999 533,993 559,984 582,975 " style="fill: white; stroke: black; stroke-width: 30" />
<polyline points="598,1079 630,921 " style="fill: white; stroke: black; stroke-width: 30" />
<polyline points="716,1054 677,915 669,929 662,946 661,962 661,970 666,981 674,991 685,1002 700,1011 717,1021 730,1028 741,1035 746,1041 749,1051 745,1053 735,1060 715,1066 681,1072 654,1069 " style="fill: white; stroke: black; stroke-width: 30" />
<polyline points="837,957 837,970 839,986 843,1008 844,1027 843,1041 839,1051 " style="fill: white; stroke: black; stroke-width: 30" />
<polyline points="737,921 758,927 798,931 842,931 " style="fill: white; stroke: black; stroke-width: 30" />
<polyline points="1032,843 1031,843 1033,857 1037,885 1036,935 1029,983 1034,1021 " style="fill: white; stroke: black; stroke-width: 30" />
<polyline points="936,1075 929,1071 934,1069 939,1069 " style="fill: white; stroke: black; stroke-width: 30" />
<polyline points="-1853,1321 -1852,1318 -1852,1319 -1849,1328 -1840,1356 -1827,1391 -1812,1422 " style="fill: white; stroke: black; stroke-width: 30" />
<polyline points="-1884,1286 -1833,1269 -1775,1255 -1742,1254 -1735,1259 -1738,1270 -1755,1294 -1772,1312 -1780,1326 -1785,1335 -1785,1347 -1780,1356 -1764,1364 -1742,1367 -1720,1371 -1707,1374 -1698,1381 -1690,1394 -1691,1401 -1701,1413 -1723,1423 -1761,1437 -1791,1441 -1808,1440 -1820,1431 " style="fill: white; stroke: black; stroke-width: 30" />
<polyline points="-1686,1309 -1684,1313 -1681,1325 -1679,1348 -1680,1376 -1679,1400 -1679,1411 -1678,1420 -1677,1424 -1671,1429 -1663,1429 -1642,1430 -1622,1427 -1610,1425 -1598,1421 -1580,1411 " style="fill: white; stroke: black; stroke-width: 30" />
<polyline points="-1596,1476 -1524,1376 -1507,1354 -1496,1328 -1486,1297 -1483,1289 -1482,1292 -1482,1295 -1475,1313 -1459,1341 -1437,1371 -1420,1396 -1411,1413 -1413,1424 " style="fill: white; stroke: black; stroke-width: 30" />
<polyline points="-1488,1344 -1522,1381 -1518,1375 -1493,1362 -1438,1351 -1393,1343 -1361,1339 -1336,1340 " style="fill: white; stroke: black; stroke-width: 30" />
<polyline points="-1265,1269 -1292,1323 -1292,1338 -1290,1353 -1281,1376 -1265,1398 -1249,1414 -1246,1416 " style="fill: white; stroke: black; stroke-width: 30" />
<polyline points="-1330,1364 -1244,1266 -1224,1273 -1221,1276 -1222,1284 -1226,1298 -1233,1314 -1235,1328 -1238,1345 -1237,1360 -1234,1367 -1227,1373 -1220,1374 -1212,1376 -1206,1381 -1200,1388 -1198,1393 -1198,1398 -1203,1403 -1218,1411 -1249,1423 -1263,1424 -1269,1422 " style="fill: white; stroke: black; stroke-width: 30" />
<polyline points="-1088,1249 -1109,1290 -1109,1288 -1109,1290 -1108,1301 -1107,1335 -1105,1367 -1102,1400 -1098,1421 -1088,1437 -1065,1439 " style="fill: white; stroke: black; stroke-width: 30" />
<polyline points="-1015,1359 -1045,1411 -1042,1407 -1035,1404 -1027,1398 -1011,1386 -991,1366 -964,1335 -944,1296 -933,1261 -930,1244 -929,1241 -928,1245 -929,1268 -927,1308 -919,1341 -904,1371 -889,1394 -879,1409 -883,1413 " style="fill: white; stroke: black; stroke-width: 30" />
<polyline points="-969,1358 -970,1355 -963,1354 -939,1355 -903,1354 -866,1346 -832,1332 " style="fill: white; stroke: black; stroke-width: 30" />
<polyline points="-476,1210 -498,1286 -509,1310 -517,1338 -511,1372 -496,1403 -483,1420 -478,1426 " style="fill: white; stroke: black; stroke-width: 30" />
<polyline points="-520,1259 -479,1251 -440,1257 -419,1269 -417,1277 -421,1285 -432,1302 -445,1316 -456,1330 -464,1340 -462,1351 -454,1359 -441,1364 -424,1363 -409,1363 -402,1364 -396,1373 -390,1384 -388,1397 -390,1404 -399,1409 -423,1415 -459,1425 -495,1433 -527,1437 " style="fill: white; stroke: black; stroke-width: 30" />
<polyline points="-383,1453 -362,1361 -354,1384 -342,1399 -324,1411 -294,1418 -258,1416 -222,1408 " style="fill: white; stroke: black; stroke-width: 30" />
<polyline points="-201,1317 -201,1390 -187,1383 -161,1371 -134,1354 -111,1326 -92,1285 -86,1258 -87,1253 -87,1254 -86,1262 -79,1287 -63,1320 -42,1351 -24,1378 -10,1394 -8,1401 " style="fill: white; stroke: black; stroke-width: 30" />
<polyline points="-148,1494 -119,1355 -71,1355 -13,1351 37,1340 " style="fill: white; stroke: black; stroke-width: 30" />

</svg>