<?xml version="1.0" standalone="no"?>
<!DOCTYPE svg PUBLIC "-//W3C//DTD SVG 1.1//EN" "http://www.w3.org/Graphics/SVG/1.1/DTD/svg11.dtd">
<svg width="210mm" height="297mm" viewBox="-7000 500 14000 20000" version="1.1" xmlns="http://www.w3.org/2000/svg">

<polyline points="1128,5427 1121,5425 1120,5424 1132,5425 1171,5424 1240,5423 1320,5420 1376,5420 1402,5426 1404,5428 1401,5428 1400,5427 " style="fill: white; stroke: black; stroke-width: 30" />
<polyline points="1109,5451 1091,5461 1090,5469 1089,5486 1072,5533 1053,5603 1049,5665 1059,5714 1075,5735 1102,5741 1119,5739 1150,5739 1207,5734 1290,5725 1362,5715 1396,5708 " style="fill: white; stroke: black; stroke-width: 30" />
<polyline points="1077,5558 1074,5560 1076,5561 1091,5572 1134,5588 1210,5598 1317,5598 1416,5589 " style="fill: white; stroke: black; stroke-width: 30" />
<polyline points="1534,5531 1515,5528 1507,5531 1496,5553 1489,5605 1506,5651 1533,5678 1578,5690 1632,5681 1674,5670 1675,5665 1673,5654 1662,5638 1649,5614 1629,5591 1616,5586 1613,5586 1616,5592 1617,5596 1625,5598 1631,5597 1632,5595 " style="fill: white; stroke: black; stroke-width: 30" />
<polyline points="2267,5567 2270,5545 2265,5542 2261,5552 2256,5609 2240,5718 2214,5828 2193,5889 2181,5906 2162,5905 2126,5874 2095,5826 2080,5759 2081,5699 " style="fill: white; stroke: black; stroke-width: 30" />
<polyline points="2245,5376 2233,5365 2225,5351 2222,5342 2238,5332 2291,5339 2347,5379 2357,5433 2336,5475 2294,5490 2255,5474 2230,5445 2230,5406 2241,5375 " style="fill: white; stroke: black; stroke-width: 30" />
<polyline points="2438,5493 2431,5488 2423,5487 2414,5494 2406,5500 2399,5517 2387,5542 2385,5566 2382,5594 2385,5636 2402,5661 2434,5675 2485,5669 2527,5639 2551,5600 2549,5580 2544,5575 2534,5581 2534,5583 2531,5590 2531,5591 2540,5590 2538,5590 2541,5588 2545,5580 2555,5568 2572,5535 2579,5518 2581,5509 2580,5507 2583,5504 2583,5505 2581,5503 2580,5507 2572,5517 2564,5544 2558,5585 2566,5616 2579,5649 " style="fill: white; stroke: black; stroke-width: 30" />
<polyline points="2799,5460 2762,5443 2721,5439 2709,5453 2705,5499 2726,5570 2748,5629 2754,5671 2741,5684 2726,5686 2701,5669 2677,5643 2673,5627 2694,5615 2754,5586 2815,5539 2871,5450 2915,5370 2912,5350 2905,5353 2891,5376 2853,5487 2833,5595 2828,5664 2829,5689 2830,5686 2823,5665 2829,5620 2826,5596 2830,5580 2834,5572 2841,5572 2857,5571 2883,5572 2919,5574 " style="fill: white; stroke: black; stroke-width: 30" />
<polyline points="3447,5432 3432,5426 3422,5422 3425,5416 3450,5409 3520,5403 3588,5402 3620,5414 3639,5433 " style="fill: white; stroke: black; stroke-width: 30" />
<polyline points="3407,5418 3365,5448 3339,5487 3327,5529 3325,5558 3322,5593 3326,5616 3329,5628 3335,5627 3355,5628 3397,5628 3438,5625 3490,5624 3545,5621 3580,5618 3605,5613 " style="fill: white; stroke: black; stroke-width: 30" />
<polyline points="3367,5524 3361,5528 3365,5530 3390,5530 3434,5527 3484,5531 3552,5537 " style="fill: white; stroke: black; stroke-width: 30" />
<polyline points="3709,5413 3706,5413 3716,5412 3759,5418 3814,5422 3858,5424 3867,5426 3862,5430 3837,5439 " style="fill: white; stroke: black; stroke-width: 30" />
<polyline points="3699,5419 3690,5424 3678,5450 3672,5491 3645,5561 3641,5606 3645,5635 3654,5651 3681,5668 3718,5673 3769,5668 3801,5664 3830,5658 3842,5650 " style="fill: white; stroke: black; stroke-width: 30" />
<polyline points="3682,5517 3673,5516 3683,5512 3719,5515 3759,5520 3815,5528 3875,5532 3930,5542 " style="fill: white; stroke: black; stroke-width: 30" />
<polyline points="4158,5439 4167,5424 4158,5414 4118,5414 4053,5432 3999,5475 3987,5515 3993,5573 4030,5618 4064,5653 4091,5668 4129,5670 4158,5658 4191,5627 4199,5592 " style="fill: white; stroke: black; stroke-width: 30" />
<polyline points="4120,5540 4097,5527 4093,5524 4107,5521 4142,5523 4179,5533 4206,5542 4222,5549 4234,5553 4242,5551 4241,5549 4239,5550 4238,5548 4239,5546 4231,5549 4226,5551 4225,5551 4217,5556 4211,5561 4196,5577 4181,5609 4167,5640 4159,5649 4162,5653 4161,5652 4159,5658 4158,5662 4151,5677 4156,5681 4157,5683 4163,5678 4160,5681 4163,5679 4164,5681 4170,5680 4170,5687 4172,5696 4176,5698 4174,5698 4180,5696 4177,5697 4183,5694 4180,5696 4181,5697 4180,5696 4191,5694 4201,5700 " style="fill: white; stroke: black; stroke-width: 30" />
<polyline points="-2047,10646 -2065,10642 -2063,10643 -2060,10651 -2057,10681 -2024,10755 -2017,10844 -1988,10921 -1973,10970 -1960,10995 -1958,10996 -1962,10996 -1959,10989 -1955,10977 -1932,10933 -1908,10870 -1870,10797 -1851,10726 -1836,10663 -1826,10627 -1823,10618 -1821,10618 -1820,10616 -1817,10619 -1827,10618 -1827,10619 -1835,10617 -1829,10617 -1814,10617 -1804,10618 -1791,10616 -1789,10616 -1799,10615 -1807,10614 -1803,10615 -1804,10616 -1809,10610 " style="fill: white; stroke: black; stroke-width: 30" />
<polyline points="-1295,10635 -1299,10633 -1309,10629 -1301,10632 -1312,10640 -1311,10667 -1296,10732 -1269,10805 -1233,10849 -1215,10881 -1212,10891 -1201,10900 -1192,10915 -1180,10926 -1176,10927 -1176,10927 -1176,10924 -1171,10920 -1175,10917 -1167,10918 -1164,10913 -1168,10884 -1147,10811 -1121,10735 -1117,10676 -1100,10645 -1104,10632 -1095,10637 -1097,10637 -1101,10639 -1101,10636 -1103,10635 -1102,10633 -1100,10633 -1104,10631 -1094,10626 " style="fill: white; stroke: black; stroke-width: 30" />
<polyline points="-490,10622 -498,10620 -504,10618 -504,10625 -509,10641 -507,10679 -508,10755 -507,10849 -501,10909 -488,10947 -488,10952 -482,10952 -476,10950 -474,10945 -465,10932 -443,10902 -425,10852 -379,10785 -330,10712 -305,10672 -298,10655 -298,10650 -296,10646 -292,10646 -294,10645 -284,10647 -284,10645 -282,10647 -290,10644 -282,10644 -288,10642 -280,10642 -279,10639 -277,10640 -271,10626 " style="fill: white; stroke: black; stroke-width: 30" />
<polyline points="46,10605 48,10599 50,10598 52,10598 54,10605 54,10661 62,10753 75,10859 92,10919 101,10944 109,10947 111,10949 107,10945 111,10944 115,10944 109,10945 111,10946 105,10946 101,10943 99,10940 90,10938 88,10939 80,10937 80,10938 80,10935 86,10929 92,10906 128,10837 172,10771 222,10721 242,10680 245,10667 255,10660 253,10656 257,10654 259,10655 255,10655 251,10657 249,10656 245,10657 241,10657 235,10658 243,10656 237,10654 245,10651 247,10651 257,10650 255,10652 269,10650 263,10652 269,10649 273,10649 275,10646 261,10647 253,10645 247,10646 273,10630 275,10625 287,10620 291,10620 297,10618 293,10619 293,10619 293,10622 293,10621 293,10621 298,10602 " style="fill: white; stroke: black; stroke-width: 30" />
<polyline points="-1821,10621 -1824,10615 -1807,10597 -1775,10558 -1716,10484 -1643,10401 -1593,10336 -1554,10296 -1526,10277 -1525,10273 -1521,10273 -1523,10273 -1519,10273 -1525,10274 -1533,10274 -1529,10275 -1533,10273 -1523,10271 -1510,10266 " style="fill: white; stroke: black; stroke-width: 30" />
<polyline points="-2083,10573 -2080,10569 -2080,10564 -2083,10560 -2100,10539 -2112,10493 -2147,10427 -2197,10352 -2253,10264 -2308,10203 -2339,10173 -2351,10164 -2355,10164 -2361,10164 -2357,10164 -2338,10161 " style="fill: white; stroke: black; stroke-width: 30" />
<polyline points="-1113,10594 -1119,10592 -1103,10580 -1075,10557 -1013,10507 -947,10445 -885,10387 -847,10357 -832,10347 -830,10348 -834,10347 -832,10348 -838,10346 -832,10347 -820,10346 " style="fill: white; stroke: black; stroke-width: 30" />
<polyline points="-1371,10572 -1371,10571 -1373,10569 -1379,10567 -1372,10564 -1376,10549 -1419,10511 -1486,10479 -1536,10463 -1550,10457 -1555,10453 -1554,10448 -1543,10436 -1545,10424 -1554,10420 " style="fill: white; stroke: black; stroke-width: 30" />
<polyline points="-534,10608 -535,10599 -532,10578 -535,10552 -557,10511 -589,10476 -622,10456 -646,10440 -665,10423 -683,10415 -682,10414 -681,10419 -675,10419 -669,10416 " style="fill: white; stroke: black; stroke-width: 30" />
<polyline points="-375,10600 -385,10599 -372,10585 -323,10537 -227,10463 -140,10396 -61,10348 -27,10316 -18,10309 -19,10311 -16,10311 -6,10311 3,10310 5,10309 " style="fill: white; stroke: black; stroke-width: 30" />
<polyline points="61,10574 49,10576 43,10577 39,10577 31,10570 27,10549 7,10509 -20,10456 -59,10407 -98,10381 -106,10376 -112,10375 -114,10374 -100,10375 -108,10374 -108,10373 " style="fill: white; stroke: black; stroke-width: 30" />
<polyline points="237,10546 239,10539 276,10522 353,10490 410,10446 460,10408 496,10375 509,10363 517,10358 531,10358 541,10357 544,10357 529,10357 517,10362 533,10360 " style="fill: white; stroke: black; stroke-width: 30" />
<polyline points="-2340,10133 -2337,10137 -2351,10138 -2356,10142 -2354,10139 -2362,10121 -2352,10034 -2341,9912 -2318,9788 -2298,9674 -2279,9612 -2269,9576 -2276,9572 -2272,9574 -2280,9575 -2265,9576 " style="fill: white; stroke: black; stroke-width: 30" />
<polyline points="-1521,10235 -1510,10182 -1500,10074 -1504,9982 -1513,9913 -1511,9873 -1492,9832 -1454,9787 -1433,9757 " style="fill: white; stroke: black; stroke-width: 30" />
<polyline points="-873,10314 -873,10319 -851,10312 -813,10278 -751,10209 -664,10132 -575,10052 -506,9997 -485,9972 -485,9966 -479,9966 -479,9968 -468,9970 -468,9972 -465,9971 -466,9971 " style="fill: white; stroke: black; stroke-width: 30" />
<polyline points="-718,10353 -710,10353 -722,10354 -720,10351 -721,10339 -734,10295 -768,10230 -816,10165 -862,10098 -903,10054 -934,10031 -959,10016 -975,9997 -986,9977 -1004,9949 -1004,9929 -1002,9926 -1000,9927 -995,9930 -1003,9931 " style="fill: white; stroke: black; stroke-width: 30" />
<polyline points="-72,10292 -80,10293 -76,10286 -64,10254 -52,10182 -48,10076 -53,9981 -73,9918 -90,9880 -90,9862 -93,9846 -93,9842 -91,9842 -91,9844 -91,9844 -88,9844 " style="fill: white; stroke: black; stroke-width: 30" />
<polyline points="17,10229 11,10222 0,10219 13,10218 3,10213 11,10209 15,10208 9,10209 13,10208 5,10211 11,10210 19,10212 " style="fill: white; stroke: black; stroke-width: 30" />
<polyline points="67,10225 63,10224 59,10221 54,10222 50,10220 48,10220 46,10219 48,10220 50,10219 42,10219 44,10214 50,10190 57,10120 66,10008 58,9903 40,9831 12,9777 7,9756 5,9751 11,9753 18,9757 " style="fill: white; stroke: black; stroke-width: 30" />
<polyline points="582,10323 574,10324 574,10319 570,10312 564,10279 577,10195 580,10054 578,9915 559,9804 540,9727 531,9706 532,9695 538,9693 531,9696 529,9698 538,9699 533,9700 529,9700 535,9700 551,9697 " style="fill: white; stroke: black; stroke-width: 30" />
<polyline points="-979,9882 -985,9884 -984,9881 -984,9880 -980,9875 -976,9851 -961,9793 -933,9692 -914,9589 -909,9501 -915,9432 -917,9407 -919,9397 -932,9397 -928,9396 -928,9396 -931,9393 -932,9396 -920,9406 " style="fill: white; stroke: black; stroke-width: 30" />
<polyline points="-501,9944 -501,9938 -494,9925 -479,9885 -455,9801 -435,9688 -437,9603 -464,9556 -466,9535 -477,9536 -468,9535 -467,9539 -465,9540 " style="fill: white; stroke: black; stroke-width: 30" />
<polyline points="7,9466 -11,9462 -7,9464 -9,9472 -13,9494 -11,9574 -24,9733 -21,9885 " style="fill: white; stroke: black; stroke-width: 30" />
<polyline points="-113,9448 -136,9440 -141,9445 -142,9490 -115,9606 -80,9771 -36,9931 " style="fill: white; stroke: black; stroke-width: 30" />
<polyline points="538,9468 547,9488 576,9555 587,9683 591,9817 " style="fill: white; stroke: black; stroke-width: 30" />
<polyline points="-2260,9389 -2268,9389 -2276,9400 -2279,9459 -2293,9638 -2311,9838 " style="fill: white; stroke: black; stroke-width: 30" />
<polyline points="-1485,9472 -1479,9471 -1483,9483 -1486,9552 -1491,9697 -1508,9855 -1488,9977 " style="fill: white; stroke: black; stroke-width: 30" />
<polyline points="-2292,9239 -2292,9240 -2286,9240 -2278,9240 -2244,9238 -2155,9239 -2017,9238 -1808,9239 -1549,9241 -1225,9247 -878,9242 -512,9242 -166,9244 127,9247 364,9251 512,9256 576,9257 580,9258 570,9253 567,9251 567,9249 570,9249 565,9247 567,9247 565,9247 " style="fill: white; stroke: black; stroke-width: 30" />
<polyline points="-2335,9204 -2343,9206 -2345,9232 -2347,9299 -2346,9399 -2353,9509 -2342,9603 -2331,9658 -2314,9677 " style="fill: white; stroke: black; stroke-width: 30" />
<polyline points="-2280,9684 -2293,9680 -2298,9678 -2286,9685 -2257,9694 -2183,9703 -2022,9703 -1795,9689 -1497,9664 -1100,9643 -678,9633 -232,9645 131,9668 413,9695 595,9714 665,9723 662,9721 656,9718 650,9715 652,9713 648,9709 640,9707 618,9701 " style="fill: white; stroke: black; stroke-width: 30" />
<polyline points="427,9190 419,9184 418,9182 416,9185 416,9192 415,9201 419,9207 408,9212 405,9215 402,9216 398,9214 403,9213 405,9211 405,9207 410,9205 405,9203 406,9201 403,9202 405,9205 413,9235 430,9293 446,9380 456,9482 461,9581 480,9673 511,9735 " style="fill: white; stroke: black; stroke-width: 30" />
<polyline points="-1672,9287 -1682,9277 -1693,9268 -1705,9264 -1731,9263 -1774,9275 -1817,9305 -1847,9350 -1848,9391 -1825,9430 -1779,9455 -1729,9462 -1681,9455 -1629,9443 " style="fill: white; stroke: black; stroke-width: 30" />
<polyline points="-1519,9351 -1516,9338 -1529,9329 -1564,9322 -1590,9320 -1612,9330 -1612,9342 -1612,9384 -1601,9422 -1582,9442 -1556,9441 -1541,9419 -1526,9383 -1531,9357 -1539,9333 -1545,9328 -1548,9324 -1545,9329 -1543,9336 -1527,9367 " style="fill: white; stroke: black; stroke-width: 30" />
<polyline points="-1434,9417 -1445,9409 -1450,9400 -1445,9391 -1439,9368 -1427,9346 -1419,9327 -1404,9317 -1388,9316 -1370,9332 -1360,9366 -1350,9396 -1349,9404 -1339,9396 -1312,9373 -1298,9361 -1294,9360 -1282,9366 -1283,9371 -1273,9380 -1281,9385 -1274,9388 -1272,9389 -1253,9383 " style="fill: white; stroke: black; stroke-width: 30" />
<polyline points="-1182,9396 -1189,9392 -1180,9379 -1153,9354 -1128,9326 -1105,9317 -1100,9321 -1092,9344 -1094,9375 -1095,9398 -1089,9397 -1079,9383 -1060,9360 -1046,9350 -1046,9349 -1039,9354 -1031,9361 -1028,9370 -1024,9378 -1007,9390 -996,9387 " style="fill: white; stroke: black; stroke-width: 30" />
<polyline points="-857,9303 -861,9293 -868,9292 -878,9305 -893,9332 -902,9352 -909,9362 -909,9365 -904,9369 -902,9385 -886,9404 -865,9415 -836,9411 -802,9399 -781,9383 -784,9371 -787,9343 -808,9323 -827,9316 -824,9319 -823,9323 -812,9339 -794,9369 " style="fill: white; stroke: black; stroke-width: 30" />
<polyline points="-704,9428 -708,9412 -701,9389 -667,9342 -620,9305 -575,9286 -545,9299 -539,9343 -542,9396 -542,9432 " style="fill: white; stroke: black; stroke-width: 30" />
<polyline points="-2167,10036 -2169,10033 -2177,10033 -2180,10040 -2187,10055 -2178,10105 -2169,10170 -2156,10208 -2140,10217 -2127,10216 -2139,10185 -2152,10140 -2182,10085 -2197,10044 -2206,10009 -2195,9993 -2169,9980 -2133,9987 -2097,10020 -2074,10075 -2071,10133 -2073,10170 -2077,10181 -2091,10178 -2118,10160 -2145,10144 -2160,10135 -2172,10134 -2150,10139 " style="fill: white; stroke: black; stroke-width: 30" />
<polyline points="-1981,10199 -1993,10200 -1990,10194 -1985,10179 -1986,10140 -1974,10109 -1976,10090 -1973,10085 -1971,10085 -1968,10089 -1955,10097 -1920,10111 -1901,10108 -1879,10097 -1869,10088 -1873,10089 -1872,10093 -1881,10099 -1884,10111 -1887,10131 -1881,10143 -1873,10154 -1850,10158 -1828,10149 -1814,10128 -1803,10119 -1798,10117 -1807,10119 -1802,10124 -1808,10136 -1807,10155 -1807,10169 -1784,10164 " style="fill: white; stroke: black; stroke-width: 30" />
<polyline points="-1728,10149 -1748,10149 -1743,10142 -1737,10133 -1733,10130 -1723,10135 -1700,10151 -1684,10174 -1679,10180 -1679,10171 " style="fill: white; stroke: black; stroke-width: 30" />
<polyline points="-1604,9996 -1604,9995 -1603,10001 -1611,10042 -1627,10107 -1644,10163 -1637,10181 -1621,10182 -1590,10149 " style="fill: white; stroke: black; stroke-width: 30" />
<polyline points="-1547,10112 -1560,10107 -1579,10101 -1598,10109 -1623,10141 -1644,10188 -1637,10206 -1617,10218 -1589,10217 " style="fill: white; stroke: black; stroke-width: 30" />
<polyline points="-1395,10243 -1390,10239 -1372,10219 -1337,10175 -1280,10118 -1234,10077 -1214,10054 -1217,10048 -1256,10045 -1299,10048 -1340,10052 -1357,10059 -1359,10061 -1360,10081 -1337,10131 -1297,10189 -1251,10217 -1182,10213 " style="fill: white; stroke: black; stroke-width: 30" />
<polyline points="-1075,10077 -1101,10065 -1120,10062 -1109,10072 -1126,10118 -1140,10190 -1134,10245 -1132,10267 -1127,10277 -1106,10275 " style="fill: white; stroke: black; stroke-width: 30" />
<polyline points="-1189,10076 -1201,10074 -1205,10074 -1199,10075 -1189,10076 -1151,10083 -1091,10083 -1046,10081 " style="fill: white; stroke: black; stroke-width: 30" />
<polyline points="-960,10088 -970,10086 -993,10092 -1033,10122 -1071,10173 -1077,10223 -1038,10249 -994,10260 -956,10254 " style="fill: white; stroke: black; stroke-width: 30" />
<polyline points="-423,10107 -444,10108 -475,10112 -510,10124 -549,10142 -572,10161 -571,10180 -547,10215 -527,10243 -532,10254 -546,10261 -546,10263 -557,10258 -561,10253 -567,10248 -572,10246 -564,10245 " style="fill: white; stroke: black; stroke-width: 30" />
<polyline points="-412,10179 -436,10199 -455,10242 -462,10309 -472,10355 -467,10370 -463,10363 -460,10340 -465,10284 -455,10240 -439,10215 -411,10205 -386,10203 -369,10210 -371,10213 -385,10219 -404,10216 -425,10212 -433,10211 -423,10212 -390,10216 " style="fill: white; stroke: black; stroke-width: 30" />
<polyline points="-338,10207 -344,10214 -336,10216 -311,10214 -288,10203 -272,10196 -262,10191 -266,10187 -277,10174 -302,10168 -320,10180 -340,10212 -339,10248 -336,10268 -315,10276 -288,10277 " style="fill: white; stroke: black; stroke-width: 30" />
<polyline points="-238,10223 -226,10222 -216,10214 -197,10199 -196,10180 -204,10175 -216,10174 -233,10191 -253,10229 -250,10259 -221,10273 -196,10279 -169,10269 " style="fill: white; stroke: black; stroke-width: 30" />
<polyline points="-95,10202 -94,10197 -98,10199 -110,10205 -137,10217 -155,10232 -161,10242 -151,10253 -130,10275 -105,10286 -80,10273 -64,10236 -48,10179 -44,10133 -46,10104 -55,10096 -59,10094 -61,10097 -61,10103 -69,10133 -75,10189 -74,10245 -54,10267 " style="fill: white; stroke: black; stroke-width: 30" />
<polyline points="196,10100 188,10083 175,10078 154,10080 131,10092 105,10112 105,10131 115,10154 138,10176 163,10189 206,10188 246,10164 " style="fill: white; stroke: black; stroke-width: 30" />
<polyline points="292,10119 288,10112 284,10108 279,10111 256,10121 237,10143 236,10157 248,10171 273,10186 314,10184 338,10175 332,10168 315,10156 305,10151 303,10153 313,10156 339,10151 " style="fill: white; stroke: black; stroke-width: 30" />
<polyline points="435,10004 397,10010 381,10031 370,10080 356,10142 341,10192 347,10218 361,10224 380,10204 " style="fill: white; stroke: black; stroke-width: 30" />
<polyline points="459,10117 442,10114 434,10117 402,10128 384,10148 381,10171 391,10184 412,10194 437,10193 470,10179 498,10161 514,10145 518,10136 506,10127 475,10126 441,10144 425,10169 453,10201 499,10220 555,10223 " style="fill: white; stroke: black; stroke-width: 30" />
<polyline points="2372,9823 2371,9818 2372,9817 " style="fill: white; stroke: black; stroke-width: 30" />
<polyline points="2382,9757 2378,9748 2367,9751 2364,9756 2358,9767 2349,9803 2343,9890 2346,9981 2346,10036 2355,10046 2367,10021 2387,9940 2394,9855 2386,9791 2377,9761 2370,9758 2372,9757 2365,9761 2368,9765 2370,9792 2362,9834 2381,9878 2387,9923 2410,9959 2464,9979 2524,9964 2600,9920 2650,9875 2682,9832 2686,9772 2679,9722 2654,9696 2626,9684 2615,9686 2602,9691 2611,9696 " style="fill: white; stroke: black; stroke-width: 30" />
<polyline points="2714,9951 2725,9954 2748,9946 2761,9940 2782,9924 2795,9904 2802,9884 2787,9854 2760,9821 2721,9808 2677,9829 2657,9878 2666,9929 2701,9981 2725,10016 2779,10029 2836,10015 " style="fill: white; stroke: black; stroke-width: 30" />
<polyline points="2856,10008 2858,10009 2906,9992 2958,9972 3003,9952 3031,9931 3049,9906 3048,9896 3044,9881 3034,9870 3026,9859 3005,9852 2984,9859 2953,9877 2917,9905 2882,9937 2875,9957 2867,9981 2883,10016 2918,10049 2965,10063 3011,10061 3058,10035 3089,9994 3098,9940 3092,9914 3074,9888 3049,9877 3046,9875 3045,9880 3045,9884 3035,9903 " style="fill: white; stroke: black; stroke-width: 30" />
<polyline points="3417,9838 3423,9831 3426,9822 3403,9824 3370,9815 3303,9816 3221,9845 3168,9901 3169,9968 3221,10030 3312,10060 3383,10066 3412,10054 3426,10043 3421,10041 3430,10035 3427,10024 3431,9999 3425,9973 3424,9950 3421,9937 3423,9927 3424,9918 3425,9915 3426,9911 3422,9913 3444,9906 3455,9911 3484,9920 3508,9924 3524,9924 3530,9923 3534,9922 3528,9930 3540,9944 3546,9981 3552,10017 3541,10052 3536,10068 3518,10075 3482,10069 3448,10053 3434,10032 3434,10027 3432,10014 3464,9951 " style="fill: white; stroke: black; stroke-width: 30" />
<polyline points="3612,10126 3594,10127 3591,10119 3584,10102 3606,10045 3622,9967 3645,9930 3657,9927 3674,9930 3705,9948 3765,9944 3846,9914 3898,9859 3908,9812 3886,9799 3843,9823 3793,9909 3765,10000 3771,10059 3770,10069 3771,10058 3785,10028 3787,10020 3809,10025 3858,10032 3914,10033 3955,10018 3967,9990 3959,9961 3916,9965 3890,9983 3885,10017 3909,10050 3936,10077 3986,10079 " style="fill: white; stroke: black; stroke-width: 30" />
<polyline points="4046,10094 4044,10095 4052,10092 4066,10084 4082,10071 4092,10061 4100,10051 4112,10045 4113,10042 4116,10038 4128,10013 4159,9987 4194,9966 4225,9939 4224,9913 4186,9890 4136,9876 4088,9888 " style="fill: white; stroke: black; stroke-width: 30" />
<polyline points="4088,9903 4087,9929 4104,9978 4129,10041 4163,10095 4204,10137 4246,10169 " style="fill: white; stroke: black; stroke-width: 30" />
<polyline points="557,7723 549,7711 534,7712 520,7724 491,7778 443,7889 371,8035 305,8191 255,8294 230,8356 216,8382 213,8383 216,8377 218,8373 217,8367 237,8336 " style="fill: white; stroke: black; stroke-width: 30" />
<polyline points="598,8045 591,8039 587,8041 577,8091 566,8187 543,8263 541,8290 541,8290 541,8258 528,8184 518,8118 534,8078 583,8055 634,8067 675,8116 694,8177 679,8245 635,8296 579,8317 522,8307 493,8284 486,8263 484,8240 501,8198 533,8161 600,8135 671,8127 724,8145 742,8168 751,8197 745,8237 739,8279 733,8305 736,8304 733,8299 734,8279 723,8185 " style="fill: white; stroke: black; stroke-width: 30" />
<polyline points="731,8007 719,8000 715,7997 704,7997 705,7995 710,7996 719,7997 742,8016 " style="fill: white; stroke: black; stroke-width: 30" />
<polyline points="867,8155 800,8163 759,8170 753,8188 756,8235 767,8269 778,8288 777,8296 777,8297 759,8288 737,8263 715,8238 722,8227 " style="fill: white; stroke: black; stroke-width: 30" />
<polyline points="940,8131 952,8159 965,8201 978,8245 959,8290 926,8326 883,8344 858,8338 846,8295 851,8235 856,8210 866,8214 888,8241 918,8285 965,8304 1013,8273 " style="fill: white; stroke: black; stroke-width: 30" />
<polyline points="1104,8070 1095,8027 1068,8027 1051,8051 1019,8120 998,8216 995,8269 997,8288 991,8286 989,8282 997,8259 1021,8227 1053,8207 1095,8205 1118,8227 1139,8265 1145,8296 1128,8314 1086,8317 1037,8300 1019,8279 1015,8272 1022,8265 1050,8241 1110,8203 1180,8144 1245,8075 1266,8043 1254,8036 1231,8044 1176,8086 1129,8152 1114,8208 1133,8257 1167,8288 1217,8301 1288,8294 1359,8268 1395,8227 1388,8200 1362,8186 1341,8194 1338,8199 1336,8229 1344,8268 1357,8288 1377,8299 1436,8307 " style="fill: white; stroke: black; stroke-width: 30" />
<polyline points="4913,7976 4910,7963 4901,7964 4894,7975 4860,8037 4817,8158 4754,8299 4700,8423 " style="fill: white; stroke: black; stroke-width: 30" />
<polyline points="2437,8836 2437,8821 2436,8820 2432,8838 2433,8884 2424,8949 2423,9004 2423,9032 2422,9049 2423,9053 " style="fill: white; stroke: black; stroke-width: 30" />
<polyline points="2394,8999 2372,8937 2343,8854 2343,8768 2360,8721 2409,8700 2483,8725 2550,8805 2602,8875 2624,8933 2603,8981 2524,9033 2436,9067 2361,9069 2329,9055 2323,9038 2339,8990 2372,8959 2451,8924 2548,8901 2631,8913 2704,8944 2743,8972 2755,9000 2742,9021 2740,9040 2722,9046 2724,9046 2744,9009 " style="fill: white; stroke: black; stroke-width: 30" />
<polyline points="2759,8751 2732,8734 2726,8727 2735,8725 2740,8723 2763,8736 2804,8801 " style="fill: white; stroke: black; stroke-width: 30" />
<polyline points="2914,8951 2889,8954 2875,8960 2873,8977 2862,8994 2862,8999 2864,8999 2851,9000 2839,8999 2833,8995 2835,8993 2833,8995 2834,8999 2845,9002 2854,9010 2862,9026 2865,9042 2867,9066 2864,9082 2871,9086 2869,9086 2859,9090 2841,9090 2804,9079 2781,9062 2757,9052 2753,9033 " style="fill: white; stroke: black; stroke-width: 30" />
<polyline points="2932,8887 2943,8873 2978,8865 3013,8887 3038,8927 3053,8974 3052,9013 3028,9055 2969,9083 2926,9079 2912,9058 2925,9044 2930,9040 2961,9043 3015,9056 3080,9056 " style="fill: white; stroke: black; stroke-width: 30" />
<polyline points="3236,8810 3227,8813 3214,8822 3193,8875 3155,8963 3141,9034 3144,9059 3143,9061 3149,9052 3171,9031 3192,9015 3212,9016 3218,9021 3221,9036 3209,9064 3195,9091 3189,9101 3189,9098 3186,9080 3147,9050 3142,9035 3148,9031 3166,9029 3183,9031 3234,9021 3298,8993 3372,8939 3443,8868 3461,8826 3448,8808 3425,8796 3391,8802 3362,8824 3328,8895 3315,8962 3314,9015 3346,9052 3400,9071 3456,9069 3542,9037 3586,8998 3592,8965 3577,8943 3542,8944 3523,8950 3522,8962 3516,8996 3528,9038 3552,9053 3581,9079 3661,9086 3765,9079 " style="fill: white; stroke: black; stroke-width: 30" />
<polyline points="2373,10774 2378,10759 2375,10746 2373,10736 2364,10726 2361,10699 2374,10619 2397,10521 2392,10468 2382,10464 2375,10462 2378,10463 2371,10464 2370,10468 2365,10473 2360,10486 2349,10526 2384,10577 2428,10613 2495,10629 2570,10614 2627,10579 2661,10542 2676,10523 2684,10519 2680,10522 2666,10535 2667,10557 2653,10599 2650,10676 2674,10718 2733,10726 2784,10699 2846,10653 2871,10624 2860,10598 2859,10571 2857,10555 2831,10554 2783,10582 2754,10634 2781,10677 2816,10696 2865,10693 2919,10685 " style="fill: white; stroke: black; stroke-width: 30" />
<polyline points="3058,10654 3054,10647 3051,10636 3048,10617 2996,10614 2951,10632 2930,10659 2928,10679 2952,10685 2994,10674 3063,10621 3115,10561 3109,10530 3095,10523 3087,10519 3082,10523 3081,10529 3081,10559 3066,10617 3071,10660 3108,10676 3139,10681 3195,10656 3247,10617 3268,10588 3267,10584 3269,10581 3283,10582 3272,10592 3264,10620 3261,10646 3276,10657 3292,10651 3351,10625 3385,10608 3392,10609 3382,10616 3378,10638 3378,10655 3403,10659 " style="fill: white; stroke: black; stroke-width: 30" />
<polyline points="3604,10464 3593,10467 3578,10497 3562,10581 3541,10690 3557,10725 3570,10744 3609,10702 3675,10611 3737,10497 3776,10439 3773,10437 3767,10442 3744,10483 3707,10561 3691,10632 3677,10659 3680,10669 3692,10675 3721,10691 3742,10710 " style="fill: white; stroke: black; stroke-width: 30" />
<polyline points="3755,10568 3777,10556 3810,10549 3855,10562 3883,10593 3886,10642 3858,10693 3822,10726 3784,10733 3736,10720 3726,10692 3730,10675 3760,10658 3827,10652 3903,10656 3950,10664 4015,10676 " style="fill: white; stroke: black; stroke-width: 30" />
<polyline points="4499,10626 4483,10604 4445,10580 4389,10562 4332,10558 4289,10593 4277,10655 4316,10737 4387,10801 4490,10821 4558,10798 4556,10768 4542,10698 4501,10637 4470,10598 4461,10583 4461,10583 4454,10590 4465,10599 4464,10626 4479,10633 4488,10624 4520,10591 4551,10556 4570,10527 4575,10521 4562,10527 4559,10556 4544,10617 4558,10669 4566,10705 4582,10719 4585,10720 4582,10719 4608,10695 4640,10666 4655,10648 4681,10629 4685,10628 4688,10635 4691,10659 4693,10699 4689,10732 4694,10751 4692,10753 4669,10746 4631,10719 4605,10681 4601,10661 4606,10661 " style="fill: white; stroke: black; stroke-width: 30" />
<polyline points="4791,10531 4764,10487 4749,10477 4748,10480 4742,10508 4735,10582 4710,10660 4718,10703 4720,10733 4738,10732 4779,10710 4841,10666 4863,10649 4860,10656 4867,10664 4857,10690 4838,10718 4829,10745 4819,10765 4821,10783 4819,10784 4805,10777 4781,10752 4776,10715 4797,10686 4801,10684 4814,10688 4827,10701 4828,10727 4836,10756 4835,10766 4848,10765 4889,10742 4923,10724 4929,10721 4943,10726 4942,10743 4962,10770 4980,10780 5016,10775 5022,10770 5015,10779 " style="fill: white; stroke: black; stroke-width: 30" />
<polyline points="5115,10732 5112,10730 5104,10731 5103,10728 5103,10722 5086,10716 5068,10706 5042,10713 5026,10738 5026,10779 5048,10814 5056,10861 5029,10917 5000,10966 4970,10997 4943,11004 4935,10986 4975,10905 5050,10789 5115,10726 " style="fill: white; stroke: black; stroke-width: 30" />
<polyline points="5204,10726 5196,10727 5203,10720 5203,10726 5198,10745 5182,10780 5139,10823 5118,10843 5103,10844 5090,10835 5090,10800 5097,10774 5110,10773 5137,10790 5156,10818 5190,10832 5239,10825 " style="fill: white; stroke: black; stroke-width: 30" />
<polyline points="5388,10642 5378,10629 5379,10626 5365,10665 5343,10717 5306,10773 5292,10796 5296,10793 5307,10756 5315,10740 5316,10740 5332,10745 5329,10762 5332,10769 5324,10762 5290,10762 5300,10748 5326,10744 5359,10743 5388,10750 5391,10758 5367,10777 5349,10802 5347,10823 5357,10854 5370,10888 5373,10910 5352,10920 5316,10921 5301,10925 5312,10919 5353,10916 " style="fill: white; stroke: black; stroke-width: 30" />
<polyline points="-10468,15393 -10487,15399 -10467,15437 -10497,15452 -10475,15509 -10477,15535 -10440,15579 " style="fill: white; stroke: black; stroke-width: 30" />
<polyline points="-11588,14607 -11534,14559 -11413,14554 -11361,14480 -11347,14364 " style="fill: white; stroke: black; stroke-width: 30" />
<polyline points="-2096,11591 -2101,11580 -2106,11583 -2114,11600 -2138,11660 -2162,11750 -2177,11823 -2157,11867 -2127,11884 -2071,11887 -2014,11892 -1937,11892 -1864,11888 -1828,11867 -1807,11849 " style="fill: white; stroke: black; stroke-width: 30" />
<polyline points="-1832,11754 -1827,11750 -1826,11743 -1825,11741 -1816,11740 -1790,11751 -1753,11779 -1709,11809 -1678,11833 -1670,11855 -1687,11880 -1710,11896 -1731,11899 -1732,11903 -1730,11902 -1729,11898 -1710,11893 " style="fill: white; stroke: black; stroke-width: 30" />
<polyline points="-1379,11659 -1382,11646 -1388,11642 -1400,11646 -1404,11659 -1415,11719 -1430,11826 -1436,11909 -1443,11954 -1432,11974 -1425,11973 -1436,11972 -1441,11970 -1438,11970 -1431,11969 -1438,11970 -1438,11970 -1432,11974 -1437,11974 -1443,11974 -1441,11975 -1448,11974 -1443,11974 -1443,11973 -1443,11971 -1452,11970 -1457,11969 -1454,11970 -1454,11968 -1447,11970 -1452,11968 -1450,11969 -1450,11969 -1452,11969 -1454,11966 -1459,11967 -1452,11967 -1447,11969 -1454,11967 -1452,11967 -1403,11966 -1336,11964 -1295,11961 -1276,11961 -1269,11960 -1253,11959 -1225,11946 " style="fill: white; stroke: black; stroke-width: 30" />
<polyline points="-1178,11822 -1182,11818 -1185,11818 -1185,11820 -1185,11824 -1191,11836 -1193,11859 -1181,11895 -1156,11919 -1127,11929 -1095,11923 -1053,11910 -1028,11892 -1027,11881 -1024,11864 -1018,11851 -1006,11840 -1006,11837 -1008,11837 -1008,11839 -1004,11842 -1008,11844 -1006,11844 -1009,11846 -1002,11848 -1004,11848 -998,11849 -1009,11849 -1009,11851 -1009,11853 -1010,11859 -996,11880 -973,11913 " style="fill: white; stroke: black; stroke-width: 30" />
<polyline points="-896,11881 -895,11896 -893,11901 -884,11897 -878,11884 -868,11863 -873,11837 -855,11816 -814,11807 -766,11821 -734,11842 -726,11861 -713,11877 -705,11883 " style="fill: white; stroke: black; stroke-width: 30" />
<polyline points="-513,11864 -517,11853 -505,11843 -500,11829 -502,11812 -528,11795 -562,11774 -593,11768 -614,11776 -639,11794 -621,11838 -601,11875 -571,11901 -539,11941 -500,12001 -466,12062 -455,12115 -468,12157 -487,12174 -519,12168 -577,12140 -616,12099 -629,12067 -611,12035 -548,12004 -460,11964 -391,11918 -347,11873 -330,11838 -356,11810 -376,11801 -376,11806 -372,11816 -368,11838 -333,11866 -316,11885 -281,11900 " style="fill: white; stroke: black; stroke-width: 30" />
<polyline points="109,11811 102,11816 93,11816 95,11815 77,11813 84,11814 91,11815 118,11820 180,11827 272,11832 348,11835 397,11834 397,11834 397,11834 399,11832 401,11832 399,11827 403,11812 " style="fill: white; stroke: black; stroke-width: 30" />
<polyline points="427,11729 427,11726 420,11724 409,11726 402,11731 407,11740 435,11764 476,11795 508,11818 522,11829 525,11839 509,11845 467,11856 438,11864 427,11871 429,11868 436,11867 440,11864 440,11862 451,11859 " style="fill: white; stroke: black; stroke-width: 30" />
<polyline points="75,11702 75,11702 61,11715 53,11740 55,11788 62,11856 89,11914 " style="fill: white; stroke: black; stroke-width: 30" />
<polyline points="64,11355 49,11354 23,11358 -19,11377 -73,11405 -86,11423 -84,11429 -50,11442 -22,11459 34,11470 90,11467 " style="fill: white; stroke: black; stroke-width: 30" />
<polyline points="184,11264 178,11265 174,11273 164,11311 154,11373 159,11427 177,11454 196,11473 220,11479 259,11475 " style="fill: white; stroke: black; stroke-width: 30" />
<polyline points="280,11358 282,11354 293,11348 319,11355 341,11378 340,11408 339,11442 324,11463 309,11479 283,11476 276,11454 278,11433 299,11422 319,11421 349,11438 374,11458 400,11470 422,11471 428,11472 426,11466 421,11453 412,11427 421,11404 427,11384 427,11378 433,11377 457,11381 486,11390 " style="fill: white; stroke: black; stroke-width: 30" />
<polyline points="525,11263 519,11261 515,11269 508,11319 499,11391 502,11462 516,11495 538,11495 " style="fill: white; stroke: black; stroke-width: 30" />
<polyline points="598,11346 587,11342 576,11344 557,11360 533,11383 525,11408 524,11434 545,11453 549,11460 586,11461 612,11452 " style="fill: white; stroke: black; stroke-width: 30" />
<polyline points="23,11523 26,11514 13,11516 17,11524 6,11569 19,11640 22,11679 48,11690 70,11665 " style="fill: white; stroke: black; stroke-width: 30" />
<polyline points="112,11508 117,11506 112,11510 115,11529 111,11557 107,11597 100,11639 112,11662 110,11669 114,11668 112,11660 107,11615 96,11573 63,11544 47,11534 21,11537 23,11538 32,11555 63,11582 124,11594 179,11585 231,11563 246,11545 252,11548 235,11554 227,11570 229,11589 236,11609 254,11619 291,11613 315,11597 317,11598 310,11602 302,11623 318,11648 334,11659 373,11644 " style="fill: white; stroke: black; stroke-width: 30" />
<polyline points="440,11503 436,11504 434,11522 418,11561 409,11611 420,11656 420,11679 434,11684 466,11655 504,11578 541,11517 551,11493 547,11503 540,11543 530,11615 550,11665 559,11673 " style="fill: white; stroke: black; stroke-width: 30" />
<polyline points="1257,11676 1260,11660 1250,11647 1224,11638 1195,11640 1143,11648 1086,11681 1042,11720 1037,11758 1052,11809 1081,11855 1096,11891 1098,11919 1073,11936 1038,11937 1001,11921 983,11901 974,11870 982,11858 1026,11821 " style="fill: white; stroke: black; stroke-width: 30" />
<polyline points="1222,11880 1218,11907 1221,11934 1232,11955 1217,11966 1217,11962 1210,11938 1221,11888 1235,11854 1241,11825 1276,11808 1310,11814 1343,11841 1350,11864 1354,11881 1345,11883 1350,11880 1353,11872 1365,11860 1387,11849 1405,11848 1433,11852 1455,11867 1461,11876 1467,11888 1465,11890 1471,11886 " style="fill: white; stroke: black; stroke-width: 30" />
<polyline points="1572,11868 1598,11856 1630,11849 1659,11847 1679,11843 1688,11838 1679,11826 1670,11810 1652,11793 1609,11799 1602,11817 1576,11862 1602,11899 1634,11932 1663,11941 1684,11925 1702,11878 1699,11835 1690,11825 1674,11824 1685,11835 1706,11855 1741,11871 1784,11869 1819,11841 1855,11786 1864,11710 1881,11644 1884,11608 1874,11605 1879,11621 1855,11697 1836,11814 1828,11911 1831,11961 1844,11969 " style="fill: white; stroke: black; stroke-width: 30" />
<polyline points="1950,11717 1941,11717 1938,11717 1932,11722 1906,11745 1888,11779 1856,11821 1858,11865 1867,11897 1891,11914 1919,11917 1956,11913 1975,11899 " style="fill: white; stroke: black; stroke-width: 30" />
<polyline points="2149,11837 2124,11854 2114,11864 2117,11868 2129,11860 2143,11844 2154,11826 2164,11818 2150,11819 2123,11824 2082,11840 2068,11856 2078,11862 2086,11879 2132,11902 2188,11925 2237,11933 2300,11930 2345,11914 " style="fill: white; stroke: black; stroke-width: 30" />
<polyline points="-3722,9524 -3744,9528 -3741,9538 -3751,9540 -3743,9538 -3734,9520 -3692,9462 -3645,9395 -3624,9335 -3593,9311 -3594,9306 -3592,9313 -3582,9326 -3575,9361 -3556,9420 -3539,9466 -3515,9502 -3492,9523 -3484,9529 " style="fill: white; stroke: black; stroke-width: 30" />
<polyline points="-3725,9370 -3757,9386 -3764,9388 -3752,9395 -3714,9406 -3656,9419 -3584,9414 -3513,9395 -3475,9367 -3455,9341 -3442,9324 -3452,9305 -3454,9293 -3467,9288 -3478,9288 -3477,9298 -3483,9319 -3486,9385 -3479,9439 -3464,9473 -3460,9480 -3455,9474 -3439,9445 -3425,9412 -3406,9395 -3377,9402 -3349,9426 -3337,9466 -3339,9496 -3355,9511 -3384,9514 -3420,9496 -3450,9470 -3450,9464 -3441,9451 -3401,9424 " style="fill: white; stroke: black; stroke-width: 30" />
<polyline points="-3305,9396 -3311,9390 -3309,9388 -3319,9393 -3327,9411 -3346,9467 -3341,9500 -3331,9514 -3306,9524 -3275,9513 -3264,9480 -3258,9457 -3254,9456 -3257,9459 -3257,9467 -3255,9486 -3234,9498 -3210,9508 -3187,9510 -3178,9513 -3183,9509 -3180,9506 -3174,9495 -3171,9473 -3163,9460 -3158,9459 -3167,9452 -3165,9448 -3176,9438 -3181,9427 -3187,9420 -3200,9420 -3190,9423 -3197,9424 -3193,9425 -3200,9433 -3211,9447 -3215,9473 -3207,9493 -3189,9509 -3177,9511 -3146,9511 -3111,9506 -3087,9496 -3055,9479 -3038,9467 -3034,9445 -3030,9421 -3034,9407 -3039,9403 -3044,9400 -3045,9401 -3046,9394 -3051,9388 -3047,9382 -3043,9371 -3040,9348 -3036,9316 -3028,9283 -3027,9249 -3032,9235 -3025,9235 -3029,9237 -3028,9246 -3035,9270 -3038,9335 -3043,9410 -3030,9459 -3028,9479 -3006,9490 -3006,9480 -2985,9472 -2974,9459 -2960,9451 -2944,9447 -2935,9451 -2933,9458 -2932,9475 -2922,9491 -2904,9496 -2903,9479 -2887,9467 -2888,9471 -2904,9478 -2898,9492 -2892,9500 -2890,9497 -2877,9489 -2875,9467 -2864,9439 -2848,9417 -2821,9402 -2770,9387 -2730,9386 " style="fill: white; stroke: black; stroke-width: 30" />
<polyline points="-3707,9547 -3715,9557 -3718,9577 -3713,9644 -3718,9696 -3708,9721 -3710,9721 -3708,9716 -3712,9685 -3709,9635 -3695,9575 -3703,9537 -3704,9523 -3709,9523 -3708,9526 -3708,9533 -3705,9555 -3697,9585 -3694,9595 -3687,9605 -3674,9618 -3651,9635 -3616,9641 -3565,9639 -3527,9620 -3509,9605 -3491,9591 -3488,9577 -3487,9562 -3496,9562 -3483,9571 -3497,9578 -3501,9609 -3499,9665 -3501,9695 -3483,9729 -3444,9750 -3418,9743 -3373,9714 -3361,9666 -3356,9626 -3353,9618 -3371,9615 -3384,9628 -3383,9656 -3373,9701 -3369,9735 -3335,9762 -3292,9771 -3247,9756 " style="fill: white; stroke: black; stroke-width: 30" />
<polyline points="-3217,9657 -3227,9648 -3235,9642 -3258,9646 -3288,9661 -3301,9700 -3298,9730 -3281,9751 -3246,9754 -3211,9731 -3170,9659 -3130,9579 -3106,9537 -3116,9535 -3125,9556 -3154,9628 -3160,9698 -3146,9749 -3121,9758 -3080,9755 -3070,9750 -3058,9752 -3049,9750 " style="fill: white; stroke: black; stroke-width: 30" />
<polyline points="-2966,9644 -2965,9631 -2957,9624 -2942,9632 -2934,9652 -2932,9689 -2956,9729 -2985,9768 -3003,9779 -3022,9764 -3023,9733 -3026,9709 -3017,9701 -2986,9715 -2946,9741 -2909,9775 -2880,9795 -2876,9806 -2885,9799 -2893,9778 -2891,9727 -2872,9684 -2859,9657 -2843,9661 -2834,9672 -2822,9695 -2808,9718 -2801,9746 -2811,9766 -2805,9773 -2804,9764 -2792,9733 -2765,9699 -2764,9686 -2757,9692 -2765,9714 -2772,9752 -2772,9783 -2761,9793 " style="fill: white; stroke: black; stroke-width: 30" />
<polyline points="-2735,9533 -2753,9525 -2767,9523 -2768,9526 -2765,9531 -2753,9551 -2736,9584 -2687,9613 -2651,9623 -2644,9629 -2647,9631 -2661,9638 -2675,9652 -2690,9671 -2698,9690 -2694,9723 -2690,9762 -2671,9806 -2677,9821 -2680,9823 -2689,9816 -2701,9801 -2714,9788 -2714,9782 -2703,9754 -2670,9722 " style="fill: white; stroke: black; stroke-width: 30" />
<polyline points="-2611,9686 -2608,9691 -2618,9696 -2632,9721 -2645,9744 -2647,9760 -2649,9753 -2627,9746 -2615,9740 -2615,9740 -2618,9743 -2610,9753 -2599,9759 -2580,9761 -2562,9757 -2542,9749 -2516,9725 -2507,9690 -2501,9673 -2509,9676 -2527,9697 -2532,9735 -2533,9752 -2529,9752 -2511,9746 -2508,9743 -2507,9746 -2509,9761 -2490,9782 -2475,9803 " style="fill: white; stroke: black; stroke-width: 30" />
<polyline points="1201,9249 1210,9220 1210,9195 1201,9179 1185,9162 1154,9148 1107,9152 1076,9171 1041,9213 1032,9260 1051,9286 1079,9296 1131,9297 1173,9295 1196,9292 1215,9287 1220,9275 1232,9256 1237,9237 1243,9211 1242,9188 1242,9177 1241,9173 1234,9174 1236,9174 1231,9176 1226,9177 1229,9177 1231,9177 1231,9176 1231,9175 1224,9177 1233,9175 1228,9178 " style="fill: white; stroke: black; stroke-width: 30" />
<polyline points="1217,9053 1220,9050 1216,9046 1219,9043 1209,9033 1204,9026 1195,9019 1172,9019 1150,9016 1126,9015 1077,9016 1023,9029 960,9043 909,9063 876,9076 843,9103 818,9134 792,9181 776,9235 764,9290 769,9322 780,9359 800,9396 820,9429 861,9463 891,9492 932,9513 967,9537 1008,9559 1052,9578 1096,9595 1150,9606 1193,9614 1250,9620 1293,9623 1340,9622 1389,9611 1433,9605 1485,9586 1536,9565 1585,9534 1632,9488 1670,9437 1694,9400 1695,9366 1700,9320 1691,9280 1676,9238 1669,9199 1649,9178 1630,9140 1602,9112 1581,9084 1540,9056 1505,9028 1467,9014 1424,9001 1369,8995 1326,8993 1288,8997 1265,8997 1236,9001 1203,9003 1187,9004 " style="fill: white; stroke: black; stroke-width: 30" />
<polyline points="1396,8871 1384,8864 1373,8850 1349,8840 1301,8831 1245,8826 1181,8822 1118,8824 1042,8835 970,8857 909,8879 869,8899 824,8922 769,8962 726,9003 687,9040 661,9083 638,9124 617,9181 591,9239 584,9297 580,9345 580,9404 590,9454 594,9516 618,9582 651,9644 688,9705 735,9762 782,9813 849,9853 907,9889 957,9920 1011,9948 1069,9972 1113,9988 1172,9998 1239,10006 1312,10006 1380,10003 1437,9994 1489,9988 1551,9975 1606,9964 1682,9948 1738,9929 1799,9909 1838,9896 1881,9873 1940,9835 1996,9787 2066,9745 2114,9704 2156,9659 2195,9599 2233,9541 2250,9504 2248,9472 2245,9433 2238,9393 2225,9348 2219,9314 2203,9294 2197,9259 2186,9218 2156,9171 2127,9120 2095,9083 2045,9033 1984,8990 1902,8935 1839,8891 1767,8852 1681,8830 1581,8819 1482,8829 1417,8840 1363,8853 1328,8863 1275,8880 1216,8901 1180,8917 1165,8920 1142,8920 " style="fill: white; stroke: black; stroke-width: 30" />
<polyline points="961,8741 950,8737 936,8734 908,8738 877,8745 823,8768 780,8795 736,8838 703,8888 670,8946 635,9004 618,9063 602,9120 598,9183 591,9250 585,9314 584,9353 586,9416 590,9484 597,9550 606,9631 622,9708 627,9766 652,9832 667,9891 694,9949 731,9999 753,10039 783,10075 826,10107 857,10127 891,10149 924,10165 983,10190 1025,10206 1073,10230 1127,10245 1192,10259 1256,10267 1309,10276 1360,10282 1414,10286 1463,10280 1515,10275 1579,10264 1622,10256 1684,10241 1732,10226 1780,10210 1820,10199 1873,10181 1919,10165 1974,10146 2008,10134 2056,10109 2110,10084 2165,10054 2209,10026 2247,9996 2282,9968 2314,9939 2350,9901 2367,9870 2385,9839 2387,9817 2394,9796 2406,9772 2424,9746 2416,9737 2425,9719 2425,9711 2429,9708 2430,9698 2432,9674 2433,9651 2430,9610 2436,9568 2436,9527 2433,9479 2439,9432 2429,9382 2412,9332 2396,9274 2378,9234 2362,9192 2346,9145 2317,9106 2285,9068 2261,9023 2223,8990 2191,8963 2143,8925 2094,8891 2044,8855 1978,8822 1919,8794 1852,8764 1773,8739 1711,8719 1649,8703 1574,8691 1513,8685 1439,8686 1375,8689 1307,8692 1240,8700 1163,8706 1108,8713 1040,8727 991,8739 966,8744 935,8754 920,8759 885,8776 850,8796 821,8818 794,8841 765,8873 761,8907 " style="fill: white; stroke: black; stroke-width: 30" />
<polyline points="-1296,12237 -1329,12235 -1343,12240 -1366,12258 -1385,12279 -1384,12311 -1366,12360 -1316,12403 -1280,12426 -1251,12442 -1212,12434 -1176,12409 -1135,12366 -1129,12334 -1123,12312 -1138,12295 -1143,12281 -1150,12279 -1171,12275 -1169,12276 -1169,12276 -1157,12279 -1155,12279 -1149,12286 -1111,12314 " style="fill: white; stroke: black; stroke-width: 30" />
<polyline points="-923,12373 -933,12372 -932,12365 -947,12350 -986,12333 -997,12329 -1017,12335 -1028,12354 -1030,12386 -1024,12448 -991,12489 -957,12508 -906,12488 -879,12445 -866,12398 -864,12357 -892,12325 -912,12314 -935,12314 -922,12318 -925,12332 -892,12363 -863,12390 -834,12404 -796,12401 -750,12384 -721,12371 -717,12367 -726,12366 -719,12371 -724,12377 -725,12396 -720,12424 -721,12445 -707,12455 -694,12463 " style="fill: white; stroke: black; stroke-width: 30" />
<polyline points="-773,12251 -797,12228 -801,12223 -796,12223 -753,12237 -718,12266 -717,12286 -721,12289 -726,12289 -739,12280 -755,12263 -766,12251 -765,12247 -756,12242 " style="fill: white; stroke: black; stroke-width: 30" />
<polyline points="-549,12333 -549,12323 -551,12316 -562,12312 -585,12312 -621,12327 -636,12347 -629,12400 -603,12441 -550,12465 -498,12464 -443,12439 -405,12409 -390,12393 -397,12388 -395,12385 -415,12379 -434,12373 -457,12367 -469,12369 -476,12376 -496,12397 -480,12420 -453,12452 -418,12463 -381,12470 -350,12465 -305,12449 " style="fill: white; stroke: black; stroke-width: 30" />
<polyline points="-104,12264 -113,12259 -127,12257 -122,12259 -113,12263 -86,12281 -49,12307 -28,12317 -63,12309 -88,12299 -104,12293 -104,12293 -88,12297 " style="fill: white; stroke: black; stroke-width: 30" />
<polyline points="-72,12412 -77,12423 -82,12426 -80,12420 -44,12407 -56,12401 -51,12403 -58,12414 -61,12422 -84,12422 -73,12421 -73,12418 -70,12414 -68,12414 -77,12413 -56,12412 " style="fill: white; stroke: black; stroke-width: 30" />
<polyline points="473,12246 443,12243 411,12256 373,12294 355,12332 372,12357 431,12365 511,12339 575,12303 577,12294 561,12304 531,12351 487,12418 478,12491 478,12557 507,12591 519,12586 " style="fill: white; stroke: black; stroke-width: 30" />
<polyline points="672,12383 654,12381 662,12367 666,12348 693,12338 705,12345 735,12364 736,12394 731,12427 716,12454 679,12465 658,12459 652,12437 645,12402 639,12372 660,12361 693,12370 " style="fill: white; stroke: black; stroke-width: 30" />
<polyline points="838,12374 824,12377 824,12377 813,12382 819,12396 798,12434 790,12469 815,12481 824,12479 859,12467 890,12439 912,12424 910,12422 920,12426 916,12434 925,12441 929,12450 937,12476 934,12494 " style="fill: white; stroke: black; stroke-width: 30" />
<polyline points="1590,12449 1595,12448 1608,12436 1608,12418 1599,12385 1588,12356 1521,12336 1458,12346 1418,12367 1419,12399 1445,12439 1503,12461 1580,12445 1667,12374 1715,12319 1738,12296 1732,12289 1730,12290 1718,12292 1724,12298 1730,12307 1707,12348 1701,12393 1712,12437 1722,12465 1757,12472 1801,12456 1859,12422 1906,12395 1912,12391 1903,12394 1899,12399 1902,12404 1908,12413 1905,12424 1903,12444 1913,12442 1928,12418 " style="fill: white; stroke: black; stroke-width: 30" />
<polyline points="1955,12293 1936,12263 1922,12248 1928,12246 1922,12249 1921,12259 1940,12292 1965,12356 1985,12407 2014,12440 2032,12458 2066,12457 2098,12444 2122,12428 2122,12411 2107,12396 2099,12380 2061,12383 2058,12392 2050,12432 2064,12487 2083,12531 2135,12549 2191,12557 " style="fill: white; stroke: black; stroke-width: 30" />
<polyline points="2787,12341 2777,12352 2748,12394 2732,12447 2734,12478 2753,12484 2769,12456 " style="fill: white; stroke: black; stroke-width: 30" />
<polyline points="2762,12253 2726,12213 2717,12185 2719,12171 2754,12159 2803,12162 2840,12181 2835,12203 2833,12215 2799,12229 2781,12228 2773,12224 2769,12216 2765,12211 2773,12204 " style="fill: white; stroke: black; stroke-width: 30" />
<polyline points="2901,12447 2884,12429 2879,12426 2884,12436 2891,12447 2880,12456 2877,12453 2883,12444 2926,12401 2965,12375 3000,12370 3003,12393 3014,12432 3019,12471 " style="fill: white; stroke: black; stroke-width: 30" />
<polyline points="3482,12330 3466,12301 3486,12263 3534,12230 3599,12214 3653,12229 3667,12267 3658,12316 3600,12380 3536,12422 3533,12431 3552,12450 3597,12470 3677,12482 3757,12482 3823,12478 " style="fill: white; stroke: black; stroke-width: 30" />
<polyline points="-972,12640 -986,12643 -985,12657 -985,12689 -966,12730 -939,12754 -903,12757 -829,12733 -776,12687 -745,12658 -732,12644 -733,12652 -773,12679 -812,12733 -860,12798 -900,12885 -919,12949 -932,12991 -905,13002 " style="fill: white; stroke: black; stroke-width: 30" />
<polyline points="-752,12820 -753,12829 -733,12834 -663,12826 -608,12804 -597,12773 -587,12754 -605,12742 -644,12744 -703,12764 -712,12792 -716,12829 -665,12867 -606,12904 -555,12924 " style="fill: white; stroke: black; stroke-width: 30" />
<polyline points="-466,12737 -463,12736 -451,12737 -409,12761 -376,12802 -366,12858 -377,12907 -417,12946 -437,12955 -461,12937 -467,12903 -459,12883 -446,12873 -420,12874 -398,12887 -350,12911 -299,12927 -270,12926 -253,12909 -245,12878 -230,12834 -229,12797 -231,12772 -221,12769 -209,12764 -185,12780 " style="fill: white; stroke: black; stroke-width: 30" />
<polyline points="-74,12760 -89,12765 -77,12779 -53,12824 -7,12880 46,12941 75,12973 63,12981 12,12966 -49,12937 -107,12907 -141,12900 -143,12897 " style="fill: white; stroke: black; stroke-width: 30" />
<polyline points="927,12697 915,12692 901,12698 898,12729 878,12792 866,12862 860,12888 870,12889 863,12883 874,12873 883,12857 907,12851 941,12846 973,12853 1005,12859 1013,12866 1004,12875 983,12889 945,12911 911,12914 874,12902 865,12881 850,12872 855,12872 865,12886 913,12911 " style="fill: white; stroke: black; stroke-width: 30" />
<polyline points="1072,12874 1050,12873 1045,12872 1057,12871 1069,12870 1086,12869 1110,12859 1138,12842 1141,12820 1130,12807 1118,12806 1092,12819 1072,12841 1079,12873 1091,12893 1117,12915 1149,12935 " style="fill: white; stroke: black; stroke-width: 30" />
<polyline points="1334,12817 1317,12814 1275,12817 1233,12836 1210,12858 1220,12880 1242,12902 1311,12931 1351,12955 1415,12956 " style="fill: white; stroke: black; stroke-width: 30" />
<polyline points="1491,12796 1484,12795 1479,12798 1494,12819 1502,12851 1497,12888 1498,12916 1469,12947 1438,12963 1431,12965 1410,12956 1389,12940 1387,12921 1392,12897 1402,12878 1427,12856 1462,12861 1480,12895 1509,12929 1545,12958 1577,12959 1630,12926 1657,12882 1660,12864 1645,12863 1653,12871 1654,12892 1651,12914 1655,12921 1700,12920 1716,12915 1721,12916 1727,12920 1729,12933 1738,12948 1771,12950 " style="fill: white; stroke: black; stroke-width: 30" />
<polyline points="1932,12830 1895,12837 1867,12852 1866,12875 1883,12912 1901,12947 1891,12968 1897,12970 1875,12962 1870,12943 1852,12935 1867,12935 1886,12932 1925,12922 1979,12897 2008,12874 2027,12849 2017,12832 1981,12827 1948,12837 1955,12855 1970,12904 2013,12941 2057,12958 " style="fill: white; stroke: black; stroke-width: 30" />
<polyline points="2657,12700 2684,12696 2662,12700 2617,12715 2557,12746 2538,12771 2550,12804 2563,12858 2621,12903 2626,12940 2611,12954 2576,12964 2530,12964 2522,12951 2517,12935 2550,12907 2630,12873 2714,12853 2753,12854 2789,12866 2801,12885 2785,12907 2763,12916 2766,12917 2778,12910 2769,12905 2789,12892 2819,12873 2840,12862 2856,12863 2867,12867 2860,12882 2865,12893 2867,12903 2893,12903 2935,12904 2962,12905 2976,12912 2962,12918 2982,12923 3021,12923 " style="fill: white; stroke: black; stroke-width: 30" />
<polyline points="3164,12902 3142,12889 3101,12881 3077,12879 3049,12894 3060,12911 3074,12937 3106,12949 3133,12940 3154,12915 3140,12890 3105,12877 3095,12867 3096,12872 3109,12884 3131,12910 3163,12923 " style="fill: white; stroke: black; stroke-width: 30" />
<polyline points="3292,12821 3344,12766 3380,12723 3378,12704 3369,12698 3348,12708 3334,12735 3304,12795 3295,12855 3292,12904 3304,12923 3310,12924 3355,12891 3392,12857 3415,12834 3413,12827 3386,12825 3349,12835 3331,12847 3321,12872 3326,12902 3353,12924 3373,12938 3395,12942 3424,12939 3459,12931 3483,12918 3548,12890 3571,12864 3594,12832 3568,12806 3529,12792 3488,12789 3481,12802 3485,12836 3529,12890 3562,12940 3628,12972 3677,12982 3722,12968 3740,12935 " style="fill: white; stroke: black; stroke-width: 30" />
<polyline points="839,10866 844,10854 845,10839 849,10806 855,10755 851,10706 834,10671 807,10655 787,10662 759,10692 750,10776 750,10895 767,11016 778,11095 798,11137 808,11153 809,11147 " style="fill: white; stroke: black; stroke-width: 30" />
<polyline points="656,10979 637,10988 636,10991 640,10992 665,10997 724,11005 791,11006 864,11002 " style="fill: white; stroke: black; stroke-width: 30" />
<polyline points="978,10586 978,10586 960,10597 956,10640 958,10709 959,10771 977,10813 " style="fill: white; stroke: black; stroke-width: 30" />
<polyline points="1390,10675 1384,10680 1377,10685 1367,10689 1342,10702 1271,10732 1217,10768 1213,10788 1233,10814 1277,10874 1325,10928 1341,10975 1334,10999 1318,11006 1294,11005 1266,10984 1262,10964 1263,10959 1285,10946 1320,10937 1367,10928 1394,10924 1411,10923 1407,10925 1397,10925 1402,10921 1403,10905 1414,10881 1439,10846 1469,10833 1486,10835 1507,10852 1503,10897 1503,10928 1508,10935 1512,10933 1535,10917 1547,10912 1556,10911 1554,10916 1561,10923 1575,10930 1603,10931 1619,10937 1641,10944 1645,10957 1647,10966 1654,10972 " style="fill: white; stroke: black; stroke-width: 30" />
<polyline points="1747,10840 1748,10850 1750,10851 1737,10857 1721,10864 1704,10883 1691,10906 1699,10931 1713,10950 1728,10952 1753,10937 1769,10912 1768,10882 1761,10866 1752,10863 1749,10871 1743,10882 1750,10891 1772,10876 1800,10826 1832,10775 1839,10730 1834,10713 1826,10715 1820,10728 1804,10789 1797,10874 1791,10945 1795,10982 1814,10983 1830,10957 1870,10900 1907,10841 1919,10814 1916,10809 1892,10819 1862,10842 1822,10884 1799,10927 1803,10953 1829,10964 1858,10972 1889,10966 1916,10958 1956,10924 " style="fill: white; stroke: black; stroke-width: 30" />
<polyline points="2021,10878 2006,10882 2012,10878 2011,10874 2008,10866 2005,10865 1993,10868 1970,10882 1967,10893 1967,10903 1964,10912 1965,10926 1976,10944 1982,10952 2004,10965 2036,10976 2079,10972 " style="fill: white; stroke: black; stroke-width: 30" />

</svg>