<?xml version="1.0" standalone="no"?>
<!DOCTYPE svg PUBLIC "-//W3C//DTD SVG 1.1//EN" "http://www.w3.org/Graphics/SVG/1.1/DTD/svg11.dtd">
<svg width="210mm" height="297mm" viewBox="-7000 500 14000 20000" version="1.1" xmlns="http://www.w3.org/2000/svg">

<polyline points="-463,1192 -706,1434 -875,1707 -1113,2077 -1297,2415 -1375,2554 " style="fill: white; stroke: black; stroke-width: 30" />
<polyline points="-631,1378 -633,1363 -640,1351 -649,1343 -661,1351 -740,1448 -914,1699 -1114,2011 -1270,2335 -1369,2617 -1417,2755 -1426,2791 -1419,2788 -1400,2749 -1343,2613 -1283,2418 -1224,2213 -1186,2047 -1140,1876 -1095,1716 -1068,1600 -1052,1546 -1036,1514 -1014,1483 -991,1454 -977,1433 -963,1412 -964,1405 " style="fill: white; stroke: black; stroke-width: 30" />
<polyline points="-761,1319 -745,1394 -739,1567 -719,1896 " style="fill: white; stroke: black; stroke-width: 30" />
<polyline points="-1758,3068 -1624,3068 -1372,3071 -1022,3076 -583,3098 -115,3127 285,3168 601,3206 831,3216 1018,3160 " style="fill: white; stroke: black; stroke-width: 30" />
<polyline points="-1459,4732 -1391,4942 -1327,5071 " style="fill: white; stroke: black; stroke-width: 30" />
<polyline points="983,3237 955,3209 951,3211 939,3272 918,3516 937,3867 987,4300 1022,4790 1024,5198 1016,5438 1018,5532 " style="fill: white; stroke: black; stroke-width: 30" />
<polyline points="380,914 556,813 694,742 805,702 847,689 857,679 860,678 859,675 857,678 " style="fill: white; stroke: black; stroke-width: 30" />
<polyline points="2289,2676 2322,2626 2332,2611 2332,2615 2326,2632 2308,2706 2279,2821 2246,2955 2221,3092 2224,3206 2248,3276 2274,3298 2197,3080 " style="fill: white; stroke: black; stroke-width: 30" />
<polyline points="2721,2866 2691,2908 2632,2923 2588,2917 2577,2904 2581,2887 " style="fill: white; stroke: black; stroke-width: 30" />
<polyline points="2521,3191 2504,3150 2509,3113 2551,3076 2598,3076 2625,3104 2638,3135 2637,3157 2632,3162 2632,3165 2638,3166 2659,3152 " style="fill: white; stroke: black; stroke-width: 30" />
<polyline points="2834,3331 2824,3319 2820,3286 2837,3214 2871,3114 2912,3017 2974,2917 3027,2860 3087,2820 3159,2798 3225,2801 3270,2824 3299,2865 3307,2940 3294,3037 3268,3127 3239,3203 3213,3265 3202,3305 3205,3326 3211,3331 3210,3330 " style="fill: white; stroke: black; stroke-width: 30" />
<polyline points="3879,1193 3868,1159 3854,1132 3831,1116 3758,1133 3633,1199 3503,1317 3400,1480 3361,1645 3391,1801 3483,1937 3615,2026 3778,2044 3961,1987 4119,1863 4229,1723 4261,1596 4230,1484 4161,1388 4085,1343 4039,1321 4019,1318 4006,1335 3999,1353 4004,1368 4012,1388 " style="fill: white; stroke: black; stroke-width: 30" />
<polyline points="3483,2773 " style="fill: white; stroke: black; stroke-width: 30" />
<polyline points="3396,2497 3494,2515 3640,2515 3799,2497 3762,2336 " style="fill: white; stroke: black; stroke-width: 30" />
<polyline points="988,1467 1000,1445 1049,1391 1169,1291 1325,1172 1447,1080 1515,1030 1548,1020 1567,1031 1586,1082 1627,1164 1675,1260 1699,1359 1546,1234 " style="fill: white; stroke: black; stroke-width: 30" />
<polyline points="1235,1280 1183,1239 1174,1224 1187,1217 1293,1204 1482,1198 1660,1193 " style="fill: white; stroke: black; stroke-width: 30" />
<polyline points="2115,961 2105,956 2102,966 2071,1038 2009,1185 1935,1352 1851,1480 " style="fill: white; stroke: black; stroke-width: 30" />
<polyline points="1760,1159 1732,1144 1733,1151 1762,1160 " style="fill: white; stroke: black; stroke-width: 30" />
<polyline points="1978,1241 " style="fill: white; stroke: black; stroke-width: 30" />
<polyline points="2092,1293 2052,1228 2031,1177 2041,1136 2111,1106 2208,1110 2286,1137 2357,1182 2412,1221 2442,1257 2462,1292 2456,1353 2416,1423 2358,1478 2286,1504 2225,1495 2196,1467 2188,1420 2220,1351 2266,1321 2322,1326 2383,1358 " style="fill: white; stroke: black; stroke-width: 30" />
<polyline points="2737,1143 2701,1109 2653,1111 2579,1154 2512,1232 2474,1319 2484,1366 2534,1365 2611,1322 2713,1240 2824,1132 2903,1038 2928,992 2934,976 2934,972 2930,977 2929,967 2919,968 2914,971 2912,980 2896,1015 2844,1097 2763,1219 2705,1336 2698,1386 " style="fill: white; stroke: black; stroke-width: 30" />
<polyline points="2859,1331 2938,1281 2946,1264 2917,1263 2842,1283 2754,1330 2719,1381 2726,1422 2763,1459 2826,1475 " style="fill: white; stroke: black; stroke-width: 30" />
<polyline points="2121,4575 " style="fill: white; stroke: black; stroke-width: 30" />
<polyline points="2123,4605 2125,4598 2130,4555 2141,4443 2138,4310 2141,4177 2160,4052 2181,3976 2199,3916 2220,3871 2218,3868 2213,3870 2211,3874 2208,3880 2211,3882 2202,3903 2192,3967 2203,4082 2232,4264 2294,4454 2400,4618 2531,4722 2672,4753 2801,4733 2903,4676 3013,4576 3128,4430 3235,4254 3313,4082 3325,3976 3288,3922 3238,3891 3189,3877 3143,3863 3117,3854 3094,3850 3093,3847 3097,3852 3106,3849 3115,3845 " style="fill: white; stroke: black; stroke-width: 30" />
<polyline points="3731,4269 3686,4211 3630,4179 3546,4196 3432,4316 3322,4508 3279,4658 3294,4774 3376,4886 3519,4961 3720,4983 3937,4912 4131,4773 4233,4649 4246,4567 4209,4500 4136,4444 4064,4414 3998,4399 3953,4396 3914,4393 3869,4387 3833,4380 3822,4375 3834,4372 " style="fill: white; stroke: black; stroke-width: 30" />
<polyline points="2495,5050 2520,5039 2523,5054 2532,5144 2551,5310 2574,5491 2610,5652 2646,5764 2701,5849 2748,5878 2784,5863 2764,5779 " style="fill: white; stroke: black; stroke-width: 30" />
<polyline points="2074,5455 2013,5486 2012,5493 2065,5480 2224,5460 2422,5431 2605,5401 " style="fill: white; stroke: black; stroke-width: 30" />
<polyline points="2903,5441 2872,5462 2884,5463 2982,5460 3178,5447 3398,5385 3564,5302 " style="fill: white; stroke: black; stroke-width: 30" />
<polyline points="3639,5968 3651,6007 3633,5956 " style="fill: white; stroke: black; stroke-width: 30" />
<polyline points="4215,5774 4133,5881 4036,5958 3949,5990 3869,5962 3817,5863 3853,5788 3944,5756 4076,5777 4236,5880 4400,5990 4508,6005 " style="fill: white; stroke: black; stroke-width: 30" />
<polyline points="4720,5706 4715,5653 4715,5610 4696,5590 4622,5591 4531,5644 4481,5715 4477,5777 4509,5845 4598,5894 4722,5906 4846,5829 4927,5681 4971,5571 4984,5549 4988,5549 5013,5545 5028,5544 5032,5539 5027,5544 5024,5546 5027,5541 5029,5542 5028,5543 5028,5490 " style="fill: white; stroke: black; stroke-width: 30" />
<polyline points="5180,5164 5126,5274 5094,5393 5098,5569 5147,5794 5201,5993 5231,6091 5238,6097 5246,6044 5300,5883 5405,5695 5471,5594 5490,5563 5469,5573 5367,5602 5218,5685 5144,5779 5139,5881 5268,6040 5375,6012 " style="fill: white; stroke: black; stroke-width: 30" />
<polyline points="3430,6284 3867,6313 4241,6354 4549,6383 4762,6419 4921,6444 5031,6455 5068,6449 5034,6447 4878,6438 4612,6421 4309,6424 3939,6462 3547,6520 3163,6600 2822,6676 2531,6738 2259,6773 2019,6798 1872,6808 1826,6800 1831,6796 1895,6758 2111,6690 2471,6628 2934,6574 3439,6563 3946,6621 4405,6678 4768,6732 " style="fill: white; stroke: black; stroke-width: 30" />
<polyline points="545,4996 519,4994 507,4979 529,4908 558,4841 569,4804 590,4779 619,4777 655,4802 695,4859 710,4911 712,4929 698,4927 663,4920 629,4906 626,4895 " style="fill: white; stroke: black; stroke-width: 30" />
<polyline points="-196,4226 -221,4212 -222,4208 -213,4205 -173,4194 -106,4194 -73,4216 " style="fill: white; stroke: black; stroke-width: 30" />
<polyline points="-88,4272 -114,4279 -125,4272 -119,4267 -120,4270 -120,4269 -119,4269 " style="fill: white; stroke: black; stroke-width: 30" />
<polyline points="-41,4606 -40,4622 -45,4628 -58,4638 -79,4646 -99,4642 " style="fill: white; stroke: black; stroke-width: 30" />
<polyline points="206,4729 175,4729 169,4727 174,4724 213,4697 267,4647 305,4618 319,4619 320,4635 308,4652 " style="fill: white; stroke: black; stroke-width: 30" />
<polyline points="-1328,6671 -1336,6679 -1327,6684 -1319,6711 -1294,6777 -1249,6907 -1209,7084 -1179,7281 -1151,7499 -1132,7701 -1120,7874 -1106,8021 -1079,8154 -1058,8263 -1049,8311 -1054,8313 " style="fill: white; stroke: black; stroke-width: 30" />
<polyline points="-1147,6756 -1058,6768 -948,6775 -818,6777 " style="fill: white; stroke: black; stroke-width: 30" />
<polyline points="-1042,8167 -977,8152 -857,8130 -704,8088 -518,8035 -340,7995 -214,7986 " style="fill: white; stroke: black; stroke-width: 30" />
<polyline points="-33,6854 -56,6943 -46,7128 -11,7356 41,7560 100,7751 142,7890 " style="fill: white; stroke: black; stroke-width: 30" />
<polyline points="88,7085 134,7191 190,7336 251,7530 328,7731 432,7879 563,7942 701,7912 805,7826 871,7714 885,7589 868,7469 845,7352 826,7237 794,7149 747,7101 675,7068 607,7050 " style="fill: white; stroke: black; stroke-width: 30" />
<polyline points="1101,7060 1120,7073 1126,7083 1128,7091 1131,7100 1133,7112 1139,7136 1136,7170 1140,7205 1143,7223 1150,7236 1147,7249 1152,7259 1148,7277 1145,7298 1152,7316 1154,7329 1159,7337 1154,7355 1159,7409 1155,7492 1144,7563 1136,7626 1147,7690 1154,7760 1166,7814 1184,7860 1192,7902 1212,7944 1251,7976 1298,7985 1371,7961 1457,7902 1538,7803 1617,7670 1650,7532 1656,7411 1660,7320 1654,7271 1654,7251 1658,7228 1659,7213 1656,7211 1655,7215 1659,7218 1658,7226 1659,7258 1655,7321 1662,7430 1696,7567 1750,7695 1791,7822 1791,7902 1798,7954 1806,7985 " style="fill: white; stroke: black; stroke-width: 30" />
<polyline points="1930,7225 1903,7286 1888,7397 1904,7537 1946,7673 1967,7776 1962,7836 1960,7873 1967,7883 1979,7873 2030,7809 2070,7679 2094,7534 2099,7423 2082,7308 2062,7249 2055,7243 2043,7248 2033,7276 2003,7340 1996,7407 2012,7473 2049,7526 2120,7552 2202,7540 2280,7508 2323,7467 2342,7434 2361,7402 2388,7369 2402,7356 2401,7359 2401,7365 2396,7388 2390,7423 2387,7466 2384,7547 2380,7668 2369,7812 2357,7930 " style="fill: white; stroke: black; stroke-width: 30" />
<polyline points="-747,8581 -743,8590 -759,8604 -777,8642 -774,8722 -743,8870 -682,9082 -641,9278 -633,9366 -631,9362 -638,9252 -654,9005 -657,8735 -626,8543 -599,8407 -596,8366 -598,8377 -608,8419 -612,8503 -611,8622 -590,8733 -542,8835 -463,8901 -338,8908 -193,8850 -90,8750 -11,8625 37,8532 41,8503 12,8506 -26,8543 -47,8622 -45,8726 -30,8832 23,8944 104,9044 168,9085 261,9068 352,8984 430,8860 457,8758 445,8719 364,8728 269,8800 223,8906 221,8990 248,9042 334,9100 445,9137 " style="fill: white; stroke: black; stroke-width: 30" />
<polyline points="799,8895 798,8879 811,8834 804,8780 783,8751 719,8766 652,8840 608,8922 604,8956 636,8956 717,8918 817,8807 882,8646 919,8509 934,8432 948,8399 940,8400 929,8434 897,8561 862,8733 843,8835 854,8902 901,8911 1002,8869 1105,8791 1176,8714 1196,8686 1200,8689 1184,8724 1181,8824 1188,8929 1203,8987 1267,9010 1346,8995 1379,8959 1384,8953 1360,8973 1349,8983 1359,8962 " style="fill: white; stroke: black; stroke-width: 30" />
<polyline points="1820,8597 1801,8711 1770,8795 1752,8846 1745,8894 1740,8970 1742,9041 1739,9083 1729,9106 1691,9138 1649,9167 1614,9193 1605,9196 " style="fill: white; stroke: black; stroke-width: 30" />
<polyline points="1998,8692 2076,8674 2126,8676 2180,8707 2245,8800 2289,8956 2288,9125 2227,9249 2140,9310 2058,9316 2010,9276 2005,9225 2069,9200 2220,9228 2424,9308 2574,9355 " style="fill: white; stroke: black; stroke-width: 30" />
<polyline points="1269,18500 " style="fill: white; stroke: black; stroke-width: 30" />

</svg>