<?xml version="1.0" standalone="no"?>
<!DOCTYPE svg PUBLIC "-//W3C//DTD SVG 1.1//EN" "http://www.w3.org/Graphics/SVG/1.1/DTD/svg11.dtd">
<svg width="210mm" height="297mm" viewBox="-7000 500 14000 20000" version="1.1" xmlns="http://www.w3.org/2000/svg">

<polyline points="-269,4012 -271,3992 -272,3994 -273,3999 -272,4040 -266,4113 -260,4177 -251,4201 -247,4202 -247,4196 -250,4164 -255,4101 -262,4011 -266,3966 -271,3951 -274,3946 -277,3951 -277,3953 -276,3968 -264,4032 -241,4093 -178,4134 -86,4145 3,4113 62,4068 75,4039 70,4027 71,4026 69,4033 71,4038 69,4066 69,4112 77,4148 96,4178 " style="fill: white; stroke: black; stroke-width: 30" />
<polyline points="156,4070 159,4056 186,4036 225,4031 262,4057 282,4104 270,4162 240,4214 199,4238 178,4229 170,4198 177,4168 191,4157 211,4160 244,4169 288,4183 326,4198 374,4206 424,4198 477,4173 526,4117 552,4050 551,4015 534,3992 507,3970 489,3974 479,3980 459,4042 448,4142 461,4242 489,4330 " style="fill: white; stroke: black; stroke-width: 30" />
<polyline points="384,4201 378,4206 384,4204 404,4200 450,4195 501,4182 556,4177 611,4163 641,4146 646,4134 645,4133 643,4131 644,4130 645,4130 645,4129 647,4129 646,4134 644,4136 646,4138 646,4155 656,4184 662,4208 " style="fill: white; stroke: black; stroke-width: 30" />
<polyline points="765,4139 747,4104 754,4086 780,4074 825,4081 856,4107 859,4156 828,4219 782,4262 751,4270 747,4261 746,4249 751,4234 760,4226 783,4227 834,4238 888,4266 947,4281 968,4259 " style="fill: white; stroke: black; stroke-width: 30" />
<polyline points="-374,4792 -374,4779 -361,4753 -336,4708 -301,4637 -263,4564 -249,4527 -246,4521 -247,4521 -247,4527 -245,4538 -223,4568 -183,4606 -131,4646 -81,4678 -39,4695 " style="fill: white; stroke: black; stroke-width: 30" />
<polyline points="-409,4649 -409,4644 -402,4639 -372,4631 -327,4627 -263,4618 -186,4618 " style="fill: white; stroke: black; stroke-width: 30" />
<polyline points="-322,4390 -346,4391 -342,4391 -321,4391 -278,4397 -229,4401 -160,4403 -86,4408 " style="fill: white; stroke: black; stroke-width: 30" />
<polyline points="-24,4587 -29,4606 -15,4647 7,4696 22,4722 23,4723 21,4713 10,4678 0,4634 -5,4615 -5,4616 2,4616 9,4617 42,4623 108,4627 182,4644 " style="fill: white; stroke: black; stroke-width: 30" />
<polyline points="201,4562 204,4557 219,4548 251,4537 283,4547 297,4561 294,4586 278,4637 266,4665 274,4680 303,4708 329,4723 358,4730 " style="fill: white; stroke: black; stroke-width: 30" />
<polyline points="220,4589 225,4595 252,4614 301,4634 360,4639 421,4616 456,4574 465,4532 465,4502 463,4490 459,4485 457,4482 459,4481 458,4486 456,4493 445,4535 434,4627 438,4717 453,4764 464,4775 465,4761 475,4702 484,4646 484,4634 485,4636 490,4643 496,4646 510,4646 518,4646 515,4642 511,4625 507,4602 504,4589 504,4589 507,4595 507,4605 510,4644 518,4666 537,4691 564,4702 601,4703 651,4688 696,4664 721,4646 721,4645 717,4645 716,4648 718,4647 721,4646 " style="fill: white; stroke: black; stroke-width: 30" />
<polyline points="-329,5000 -339,5006 -363,5041 -406,5120 -410,5168 -360,5185 -252,5179 -159,5155 -106,5145 -89,5158 " style="fill: white; stroke: black; stroke-width: 30" />
<polyline points="-17,5145 -38,5159 -46,5162 -47,5164 -42,5161 -24,5160 " style="fill: white; stroke: black; stroke-width: 30" />
<polyline points="217,5027 224,5024 219,5030 207,5065 187,5144 176,5211 181,5244 185,5251 185,5235 182,5174 179,5113 190,5035 219,4989 267,4977 306,5003 331,5069 325,5144 304,5195 272,5217 242,5211 208,5191 185,5163 " style="fill: white; stroke: black; stroke-width: 30" />
<polyline points="395,5200 387,5167 386,5162 388,5163 403,5161 433,5161 466,5166 509,5171 539,5169 542,5170 536,5169 529,5167 522,5169 504,5182 492,5204 497,5235 514,5252 539,5258 559,5246 569,5223 570,5195 567,5184 559,5180 558,5179 559,5185 562,5187 565,5191 " style="fill: white; stroke: black; stroke-width: 30" />
<polyline points="777,5181 766,5181 764,5177 759,5165 741,5145 703,5130 667,5130 657,5137 663,5145 698,5165 740,5176 763,5170 763,5167 760,5170 761,5207 763,5276 757,5350 741,5408 709,5439 697,5439 686,5407 695,5341 736,5285 793,5238 846,5202 869,5185 865,5177 851,5170 834,5175 830,5179 844,5198 869,5214 898,5211 927,5192 951,5172 962,5164 965,5166 976,5188 980,5219 981,5244 945,5032 " style="fill: white; stroke: black; stroke-width: 30" />
<polyline points="53,5128 58,5130 60,5130 59,5129 57,5131 59,5129 81,5132 " style="fill: white; stroke: black; stroke-width: 30" />
<polyline points="-390,5376 -405,5386 -418,5422 -430,5510 -429,5586 -418,5619 -386,5639 -344,5651 -300,5647 -254,5637 -196,5622 " style="fill: white; stroke: black; stroke-width: 30" />
<polyline points="-168,5560 -168,5561 -157,5557 -132,5556 -125,5564 -121,5577 -130,5592 -146,5624 -153,5637 -156,5636 -152,5635 " style="fill: white; stroke: black; stroke-width: 30" />
<polyline points="169,5538 168,5500 169,5491 165,5494 167,5500 168,5512 168,5559 168,5580 174,5600 182,5614 214,5654 261,5677 320,5686 377,5669 409,5637 422,5606 426,5567 414,5528 402,5504 399,5500 398,5501 400,5510 404,5517 420,5560 433,5395 " style="fill: white; stroke: black; stroke-width: 30" />
<polyline points="552,5674 591,5663 601,5640 592,5616 575,5598 546,5588 517,5591 504,5613 507,5649 526,5689 550,5712 586,5713 612,5703 626,5693 627,5676 630,5659 622,5646 612,5634 609,5628 606,5627 605,5627 606,5628 604,5632 602,5632 603,5631 " style="fill: white; stroke: black; stroke-width: 30" />
<polyline points="1040,5548 1052,5585 1083,5639 1105,5678 1104,5691 1104,5694 1094,5693 1080,5686 1061,5670 1041,5659 1033,5657 1033,5657 " style="fill: white; stroke: black; stroke-width: 30" />
<polyline points="1300,5573 1236,5574 1188,5587 1167,5614 1175,5657 1214,5699 1277,5715 1339,5698 1388,5649 1402,5607 1402,5582 1398,5572 1400,5571 1399,5575 1403,5578 1402,5579 1399,5583 1398,5584 1400,5581 1398,5584 1399,5585 1399,5599 1393,5648 1391,5684 1414,5712 " style="fill: white; stroke: black; stroke-width: 30" />
<polyline points="1424,5422 1411,5412 1411,5409 1419,5413 1445,5434 1462,5462 1459,5473 1448,5481 1423,5479 1397,5460 1383,5437 1386,5420 1402,5396 1375,5176 " style="fill: white; stroke: black; stroke-width: 30" />
<polyline points="1512,5663 1505,5660 1512,5649 1535,5619 1553,5588 1544,5576 1511,5570 1457,5593 1443,5622 1454,5672 1497,5709 1546,5720 1575,5702 1590,5670 1607,5630 1617,5609 1625,5602 1633,5603 1654,5613 1681,5639 1700,5670 1708,5693 " style="fill: white; stroke: black; stroke-width: 30" />
<polyline points="1890,5395 1867,5424 1836,5494 1799,5596 1771,5668 1764,5692 1766,5688 1768,5667 1799,5616 1836,5586 1869,5579 1905,5589 1940,5608 1974,5623 1996,5627 1998,5630 1989,5633 1981,5639 1970,5659 1971,5672 1969,5681 " style="fill: white; stroke: black; stroke-width: 30" />
<polyline points="2044,5450 2020,5428 2013,5422 2017,5418 " style="fill: white; stroke: black; stroke-width: 30" />
<polyline points="2126,5522 2100,5632 2075,5732 2062,5794 2057,5815 2054,5810 2067,5774 2089,5693 2118,5627 2121,5616 2122,5620 2151,5627 2193,5634 2252,5628 2285,5619 2283,5624 2278,5630 2257,5664 2252,5697 2260,5707 2271,5693 2306,5631 2324,5541 2331,5480 2330,5467 2331,5466 2335,5467 " style="fill: white; stroke: black; stroke-width: 30" />
<polyline points="2444,5703 2508,5680 2565,5642 " style="fill: white; stroke: black; stroke-width: 30" />
<polyline points="181,5798 173,5790 169,5785 168,5784 167,5785 173,5785 198,5782 235,5784 279,5788 308,5795 317,5799 " style="fill: white; stroke: black; stroke-width: 30" />
<polyline points="192,5798 175,5796 171,5796 169,5799 160,5825 141,5895 132,5937 136,5960 157,5974 203,5987 248,5991 288,5989 319,5982 " style="fill: white; stroke: black; stroke-width: 30" />
<polyline points="170,5842 164,5843 173,5843 204,5845 " style="fill: white; stroke: black; stroke-width: 30" />
<polyline points="520,5867 506,5865 496,5864 467,5866 434,5883 396,5907 383,5925 394,5944 429,5966 476,5968 532,5933 579,5876 594,5830 590,5813 582,5808 575,5812 569,5829 565,5890 576,5932 601,5953 644,5946 681,5921 689,5914 683,5918 677,5930 685,5947 703,5952 727,5945 " style="fill: white; stroke: black; stroke-width: 30" />
<polyline points="756,5787 " style="fill: white; stroke: black; stroke-width: 30" />
<polyline points="935,5871 936,5869 932,5867 921,5867 897,5876 854,5903 833,5930 841,5952 877,5972 935,5980 1002,5968 " style="fill: white; stroke: black; stroke-width: 30" />
<polyline points="1084,5820 1068,5817 1069,5818 1085,5835 1104,5863 1112,5883 1117,5898 1106,5918 1061,5960 1017,5986 989,5989 987,5975 1003,5945 1033,5928 1059,5928 1085,5946 " style="fill: white; stroke: black; stroke-width: 30" />
<polyline points="1279,5827 1251,5890 1226,5954 1221,5986 1226,5991 1232,5982 1244,5963 1265,5946 1294,5931 1343,5918 1376,5926 1398,5936 1399,5946 1394,5959 1380,5981 1374,5989 " style="fill: white; stroke: black; stroke-width: 30" />
<polyline points="1487,5960 1481,5943 1490,5915 1513,5886 1524,5887 1536,5901 1544,5933 1537,5972 1527,5993 1517,5993 1523,5969 1543,5927 1563,5896 1591,5882 1621,5885 1656,5911 " style="fill: white; stroke: black; stroke-width: 30" />
<polyline points="1734,5975 1698,5965 1696,5954 1707,5938 1750,5917 1778,5915 1782,5925 1783,5939 1783,5953 1788,5970 " style="fill: white; stroke: black; stroke-width: 30" />
<polyline points="149,3378 57,3368 -30,3358 -116,3352 -210,3354 -313,3357 -431,3370 -555,3402 -672,3441 -780,3488 -879,3541 -965,3604 -1054,3680 -1147,3770 -1228,3862 -1283,3964 -1323,4085 -1362,4222 -1392,4374 -1414,4529 -1415,4684 -1397,4849 -1365,5028 -1323,5207 -1265,5385 -1190,5551 -1095,5705 -984,5854 -853,6000 -710,6145 -554,6280 -375,6400 -177,6500 32,6588 261,6662 516,6722 784,6757 1072,6775 1361,6774 1658,6759 1931,6744 2190,6726 2433,6696 2679,6647 2904,6581 3111,6498 3302,6411 3454,6319 3595,6207 3716,6079 3801,5945 3850,5807 3866,5659 3853,5498 3820,5333 3769,5156 3683,4976 3567,4794 3435,4610 3276,4428 3096,4250 2900,4078 2687,3900 2447,3731 2171,3588 1889,3452 1577,3338 1245,3250 890,3190 536,3160 200,3156 -83,3170 -303,3201 " style="fill: white; stroke: black; stroke-width: 30" />
<polyline points="2434,5974 2430,5973 2429,5973 2429,5984 2426,6065 2416,6157 2417,6206 2420,6218 2418,6213 2424,6170 2427,6087 2432,5977 2452,5902 2484,5873 2513,5879 2533,5904 2528,5956 2503,6010 2466,6057 2435,6098 2422,6127 2418,6152 2428,6157 2446,6159 2489,6154 2550,6135 " style="fill: white; stroke: black; stroke-width: 30" />
<polyline points="2625,6030 2623,6029 2624,6028 2624,6030 2622,6030 2622,6029 2627,6028 2619,6029 2618,6027 2632,6021 2637,6013 2639,6007 2643,6008 2639,6007 2635,6008 2630,6016 2609,6030 2589,6057 2583,6086 2597,6119 2622,6138 2647,6155 2666,6154 2684,6150 2713,6140 2759,6109 2802,6065 2840,6002 2859,5941 2857,5916 2839,5908 2812,5905 2795,5906 2789,5912 2773,5951 2761,6034 2762,6134 2767,6221 2772,6283 " style="fill: white; stroke: black; stroke-width: 30" />
<polyline points="2975,6071 2982,6062 2982,6053 2982,6050 2981,6045 2983,6042 2982,6043 2980,6042 2979,6030 2984,6000 2982,5992 2980,5989 2983,5988 2976,5983 2972,5974 2954,5969 2928,5967 2908,5975 2896,5996 2889,6034 2901,6083 2922,6119 2942,6137 2981,6146 3035,6132 3081,6108 3106,6073 3115,6019 3099,6004 3069,6003 3036,6030 3020,6082 3029,6125 3051,6152 3084,6166 3126,6162 " style="fill: white; stroke: black; stroke-width: 30" />
<polyline points="3221,6026 3180,6045 3159,6069 3149,6108 3161,6139 3188,6163 3233,6167 3289,6139 3353,6078 3399,6003 3446,5911 3449,5868 3436,5863 3405,5884 3359,5946 3316,6023 3301,6080 3305,6115 3308,6119 3317,6116 3335,6108 3362,6098 " style="fill: white; stroke: black; stroke-width: 30" />
<polyline points="2518,5878 " style="fill: white; stroke: black; stroke-width: 30" />
<polyline points="2434,6298 2428,6304 2429,6318 2443,6352 2470,6409 2515,6456 " style="fill: white; stroke: black; stroke-width: 30" />
<polyline points="2277,6332 2323,6347 2399,6367 2480,6373 2553,6367 2601,6355 2607,6352 2609,6354 2608,6360 2609,6376 2617,6408 2625,6445 2628,6472 2636,6492 2639,6488 2634,6472 2627,6402 2612,6338 2607,6302 2606,6290 2605,6291 2623,6292 2659,6315 2708,6343 2743,6367 2752,6378 2742,6382 2691,6389 2637,6392 2613,6389 2618,6383 " style="fill: white; stroke: black; stroke-width: 30" />
<polyline points="2892,6315 2891,6314 2885,6322 2884,6338 2874,6395 2872,6446 " style="fill: white; stroke: black; stroke-width: 30" />
<polyline points="1377,4536 1375,4539 1369,4544 1365,4545 1366,4546 1359,4546 1341,4546 1273,4547 1171,4565 1093,4576 1067,4584 1068,4583 1073,4580 1097,4581 1132,4585 1169,4615 " style="fill: white; stroke: black; stroke-width: 30" />
<polyline points="1124,4479 1121,4478 1112,4481 1098,4490 1084,4508 1081,4514 1081,4515 1081,4517 1083,4517 1083,4516 1086,4517 1085,4515 1086,4513 1087,4515 1086,4517 1084,4518 1085,4521 1084,4520 1084,4519 1084,4521 1084,4519 1084,4518 1082,4520 1077,4524 1039,4554 1011,4576 998,4583 995,4586 998,4586 1000,4583 1004,4581 1010,4583 1016,4585 1048,4596 1111,4613 1171,4615 1227,4629 " style="fill: white; stroke: black; stroke-width: 30" />
<polyline points="-441,4825 -220,4723 118,4575 602,4352 1160,4084 1694,3832 " style="fill: white; stroke: black; stroke-width: 30" />
<polyline points="1530,4608 1513,4603 1532,4602 1575,4608 1630,4625 1675,4644 1711,4656 1731,4677 1741,4699 1746,4712 1744,4716 1744,4707 1735,4676 1714,4627 1699,4592 1694,4582 1698,4585 1704,4589 1729,4597 " style="fill: white; stroke: black; stroke-width: 30" />
<polyline points="1890,4635 1867,4629 1849,4639 1846,4671 1861,4722 1890,4753 1917,4756 1937,4727 1938,4676 1924,4638 1908,4618 1906,4617 1906,4625 1923,4651 1944,4695 1974,4735 2000,4754 2007,4751 2014,4717 2028,4661 2048,4626 2051,4626 2058,4641 2069,4684 2078,4739 2091,4766 2108,4762 " style="fill: white; stroke: black; stroke-width: 30" />
<polyline points="2173,4709 2170,4698 2169,4663 2172,4642 2180,4630 2196,4620 2238,4611 2284,4610 2329,4626 " style="fill: white; stroke: black; stroke-width: 30" />
<polyline points="2559,4413 2558,4425 2552,4469 2551,4494 2551,4499 2555,4495 2553,4494 2554,4491 2555,4488 2556,4486 2555,4486 2555,4486 2556,4488 2556,4488 2555,4486 2558,4488 2558,4491 2560,4499 2578,4567 2615,4595 2670,4608 2720,4591 2761,4547 2769,4517 2764,4489 2753,4483 2751,4484 2751,4491 2749,4507 2746,4557 2743,4613 2756,4673 2772,4731 " style="fill: white; stroke: black; stroke-width: 30" />
<polyline points="2846,4627 2822,4618 2827,4606 2848,4602 2892,4622 2925,4660 2924,4698 2900,4730 2872,4738 2858,4726 2850,4712 2846,4707 2849,4705 2866,4707 2899,4708 2922,4709 " style="fill: white; stroke: black; stroke-width: 30" />
<polyline points="2886,4489 2854,4476 2852,4477 2859,4483 2897,4503 2957,4551 3013,4616 " style="fill: white; stroke: black; stroke-width: 30" />
<polyline points="3037,4730 3031,4718 3030,4699 3034,4688 3040,4686 3047,4685 3060,4694 " style="fill: white; stroke: black; stroke-width: 30" />
<polyline points="3148,4681 3146,4678 3160,4669 3187,4656 3194,4663 3199,4681 3201,4721 3212,4747 3238,4751 3288,4733 3326,4710 3331,4705 3323,4706 3311,4705 3304,4705 3305,4709 3311,4719 3319,4746 3336,4780 3360,4794 3388,4786 3420,4750 3436,4714 3437,4705 3438,4706 3449,4707 3503,4711 " style="fill: white; stroke: black; stroke-width: 30" />
<polyline points="1167,3111 1262,2943 1389,2734 1509,2562 1577,2475 1596,2446 1595,2446 1594,2445 1590,2446 1590,2449 1591,2449 1589,2448 1592,2450 1596,2448 1601,2445 " style="fill: white; stroke: black; stroke-width: 30" />
<polyline points="2051,1825 2041,1821 2030,1814 2016,1801 1995,1790 1973,1772 1946,1749 1925,1721 1911,1696 1899,1662 1891,1637 1885,1617 1881,1594 1883,1586 1885,1572 1898,1538 1909,1517 1923,1495 1940,1474 1955,1462 1986,1441 2014,1421 2044,1407 2070,1398 2093,1391 2124,1388 2159,1388 2183,1390 2210,1399 2234,1406 2261,1418 2293,1430 2307,1446 2323,1458 2339,1470 2350,1488 2370,1511 2394,1536 2409,1554 2431,1584 2443,1613 2447,1627 2449,1651 2452,1668 2450,1694 2447,1711 2444,1722 2439,1730 2428,1742 2409,1764 2389,1776 2366,1786 2332,1804 2302,1811 2276,1815 2252,1820 2232,1821 2213,1821 2194,1826 2179,1830 2177,1830 2177,1832 2174,1833 2165,1837 2157,1847 2153,1849 2153,1847 2154,1850 2155,1848 2155,1846 2154,1850 2155,1855 2157,1868 2163,1885 2166,1897 2167,1903 2168,1912 2167,1915 2167,1914 2168,1917 2169,1918 2170,1926 2168,1971 2168,2003 2169,2032 2174,2070 2174,2099 2177,2126 2179,2145 2174,2170 2172,2187 2176,2189 2175,2189 2174,2186 2175,2184 2175,2180 2174,2178 2177,2177 2175,2177 2175,2175 2176,2175 2175,2175 2177,2171 " style="fill: white; stroke: black; stroke-width: 30" />
<polyline points="2093,2347 2095,2328 2097,2318 2110,2304 2131,2286 2165,2265 2200,2259 2225,2263 2241,2275 2256,2296 2266,2316 2274,2331 2280,2359 2284,2369 2282,2394 2279,2417 2278,2427 2272,2439 2267,2450 2248,2469 2227,2484 2225,2486 2220,2487 2199,2488 2170,2491 2147,2484 2123,2471 2103,2456 2086,2433 2073,2407 2067,2384 2066,2366 2072,2343 2093,2317 2121,2302 2177,2302 2099,2145 " style="fill: white; stroke: black; stroke-width: 30" />
<polyline points="2048,1763 2040,1761 2036,1757 2028,1755 2026,1753 2022,1747 2015,1736 2008,1714 1999,1691 1995,1672 1996,1656 1995,1634 1995,1604 1995,1591 1996,1583 1993,1576 1992,1567 1991,1563 1994,1553 1994,1549 1994,1547 1994,1546 1994,1546 1995,1546 2000,1535 2018,1503 2025,1490 2029,1480 2029,1482 2032,1482 2030,1483 2034,1480 2043,1472 2067,1449 2077,1444 2081,1442 2080,1443 2085,1441 2089,1440 2109,1434 2139,1423 2153,1419 2157,1420 2160,1422 2162,1422 2164,1421 2176,1422 2185,1427 2198,1429 2207,1432 2211,1436 2215,1442 2227,1452 2243,1464 2252,1473 2262,1485 2273,1500 2277,1508 2280,1510 2279,1512 2279,1512 2284,1515 2284,1525 2289,1543 2294,1557 2296,1572 2295,1587 2294,1598 2292,1604 2289,1613 2286,1628 2275,1648 2268,1659 2265,1663 2261,1668 2257,1669 2245,1677 2229,1690 2207,1705 2200,1710 2200,1710 2199,1707 2200,1710 2198,1712 2198,1710 2199,1711 2198,1712 2198,1709 2200,1710 2194,1713 2179,1717 2171,1725 2169,1727 2169,1726 2170,1726 2169,1726 2170,1724 2172,1724 2171,1725 2171,1724 2171,1734 2178,1750 2184,1775 2186,1784 2186,1786 2180,1797 2175,1813 2174,1845 2173,1868 2177,1876 2177,1896 2175,1918 2175,1940 2175,1955 2174,1965 2177,1979 2177,1993 2175,2000 2178,2023 2180,2035 2180,2040 2180,2043 2180,2044 2180,2043 2182,2044 2180,2044 2180,2042 2180,2044 2180,2045 2180,2044 2180,2046 2180,2047 2179,2047 2180,2049 2178,2080 2176,2094 2178,2104 2176,2112 2173,2125 2178,2124 2176,2124 2174,2123 2176,2122 2176,2122 2175,2120 " style="fill: white; stroke: black; stroke-width: 30" />
<polyline points="2313,1792 2310,1794 2313,1791 2308,1795 2306,1798 2304,1798 2299,1802 2300,1809 2301,1841 2304,1869 2302,1915 2289,1963 2277,2006 2275,2052 2271,2104 2275,2122 2276,2137 2275,2140 2274,2140 2277,2141 2276,2141 2275,2140 2278,2140 2275,2142 2274,2141 2275,2142 2276,2141 2274,2141 2276,2141 2275,2141 2274,2141 2275,2141 2274,2140 2273,2139 2272,2138 2261,2140 2242,2140 2201,2142 2191,2143 2188,2144 2189,2144 2189,2145 2190,2141 2194,2140 2193,2139 2196,2136 2201,2135 " style="fill: white; stroke: black; stroke-width: 30" />
<polyline points="-350,6634 -346,6627 -346,6626 -345,6633 -365,6702 -433,6863 -555,7108 -708,7376 -837,7590 -899,7728 " style="fill: white; stroke: black; stroke-width: 30" />
<polyline points="-1030,7703 -1046,7718 -1083,7793 -1102,7874 -1085,7911 -1027,7920 -940,7885 -864,7834 -818,7799 -788,7785 -756,7776 " style="fill: white; stroke: black; stroke-width: 30" />
<polyline points="1612,7178 1603,7178 1587,7198 1584,7274 1594,7471 1626,7745 1660,7969 1696,8099 " style="fill: white; stroke: black; stroke-width: 30" />
<polyline points="1575,8107 1564,8134 1585,8192 1620,8277 1680,8354 1739,8412 1781,8441 1812,8450 1810,8451 1802,8444 1791,8434 1792,8422 1791,8402 1801,8359 1824,8284 1852,8194 1862,8150 1863,8133 1850,8126 " style="fill: white; stroke: black; stroke-width: 30" />
<polyline points="3013,6839 3002,6837 2999,6846 3055,6906 3151,7077 3276,7363 3383,7669 3495,7878 3598,8026 3717,8109 " style="fill: white; stroke: black; stroke-width: 30" />
<polyline points="3876,8056 3860,8060 3860,8056 3861,8054 3864,8055 3866,8068 3876,8126 3893,8183 3896,8226 3905,8260 3912,8275 3903,8279 3897,8271 3864,8244 3804,8206 3761,8183 3741,8176 3743,8167 3746,8169 " style="fill: white; stroke: black; stroke-width: 30" />
<polyline points="-1882,8276 -1889,8271 -1896,8263 -1923,8250 -1979,8243 -2059,8249 -2131,8281 -2161,8308 -2171,8325 -2143,8361 -2092,8413 -2056,8465 -2055,8502 -2086,8522 -2132,8534 -2169,8535 -2186,8530 -2187,8523 -2163,8505 " style="fill: white; stroke: black; stroke-width: 30" />
<polyline points="-1844,8390 -1889,8370 -1919,8361 -1955,8359 -1973,8377 -1986,8406 -1974,8449 -1933,8477 -1870,8480 -1812,8456 -1798,8433 -1812,8407 -1845,8378 -1869,8371 -1872,8372 -1868,8376 -1830,8397 -1785,8416 -1727,8407 -1663,8386 -1630,8367 -1637,8359 -1646,8355 -1659,8352 -1667,8350 -1665,8351 -1665,8350 -1664,8346 -1668,8346 -1667,8345 -1670,8343 -1680,8342 -1675,8342 -1665,8344 -1671,8346 -1689,8354 -1723,8382 -1734,8399 -1716,8412 -1673,8436 -1608,8449 -1539,8440 -1484,8414 -1477,8400 -1489,8394 -1491,8393 -1490,8396 -1496,8396 -1486,8398 -1487,8402 -1491,8405 -1487,8411 -1490,8421 -1484,8434 -1484,8443 " style="fill: white; stroke: black; stroke-width: 30" />
<polyline points="-1427,8379 -1414,8390 -1374,8401 -1325,8405 -1291,8407 -1283,8402 -1283,8392 -1314,8367 -1364,8357 -1389,8371 -1390,8397 -1366,8433 -1305,8460 -1226,8453 -1120,8396 -1033,8314 -992,8223 -1005,8176 -1038,8160 -1057,8171 -1087,8253 -1093,8338 -1095,8416 -1099,8454 -1098,8458 -1107,8439 -1115,8399 -1119,8376 -1109,8376 -1088,8374 -1057,8378 -995,8375 -926,8355 -897,8332 -913,8325 -949,8323 -967,8345 -967,8358 -959,8376 -924,8381 -884,8380 -887,8385 -895,8396 -910,8442 -916,8490 -904,8531 " style="fill: white; stroke: black; stroke-width: 30" />
<polyline points="1414,8611 1379,8605 1309,8617 1218,8661 1137,8717 1126,8774 1164,8844 " style="fill: white; stroke: black; stroke-width: 30" />
<polyline points="1514,8791 1501,8788 1461,8799 1410,8842 1406,8871 1441,8895 1512,8899 1572,8871 1582,8854 1558,8847 1522,8841 1508,8841 1524,8845 1573,8850 1615,8853 1633,8855 1641,8849 1642,8846 1644,8846 1639,8848 1657,8842 1681,8836 1697,8838 1709,8844 1711,8858 1720,8867 1736,8874 1780,8890 " style="fill: white; stroke: black; stroke-width: 30" />
<polyline points="1959,8841 2003,8820 2039,8826 2060,8856 2053,8890 2028,8923 1979,8938 1942,8930 1927,8908 1937,8888 1969,8859 2018,8837 " style="fill: white; stroke: black; stroke-width: 30" />
<polyline points="2136,8801 2149,8793 2148,8797 2143,8838 2148,8891 2136,8934 2116,8950 2091,8943 2065,8916 2062,8889 2079,8874 2110,8874 2136,8902 2166,8936 2197,8943 2215,8924 2225,8896 2219,8881 2225,8876 2221,8882 2226,8895 2241,8909 2267,8911 2317,8890 2340,8870 2336,8871 2334,8870 2336,8871 2332,8875 2335,8878 2324,8896 2329,8907 2336,8911 2352,8908 2360,8906 2392,8872 2426,8844 2434,8844 2415,8864 2376,8939 2320,9028 2287,9097 2288,9133 " style="fill: white; stroke: black; stroke-width: 30" />
<polyline points="2658,8834 2629,8819 2568,8823 2508,8839 2491,8869 2495,8906 2508,8933 2502,8940 2482,8939 2441,8934 " style="fill: white; stroke: black; stroke-width: 30" />
<polyline points="4189,8696 4200,8679 4243,8671 4294,8689 4338,8700 4336,8697 4336,8696 4344,8694 4352,8693 4397,8680 " style="fill: white; stroke: black; stroke-width: 30" />
<polyline points="-3147,18026 " style="fill: white; stroke: black; stroke-width: 30" />
<polyline points="-8543,12710 " style="fill: white; stroke: black; stroke-width: 30" />
<polyline points="13667,7784 " style="fill: white; stroke: black; stroke-width: 30" />
<polyline points="-3486,3810 -3508,3823 -3513,3829 -3509,3826 -3510,3823 -3513,3821 -3506,3819 " style="fill: white; stroke: black; stroke-width: 30" />
<polyline points="-3316,3812 -3314,3871 -3281,3910 -3230,3930 -3163,3927 -3099,3908 -3062,3888 -3053,3863 -3066,3827 -3101,3789 -3151,3763 -3193,3756 -3191,3766 -3190,3766 -3176,3770 " style="fill: white; stroke: black; stroke-width: 30" />
<polyline points="-2913,3866 -2920,3862 -2935,3859 -2958,3869 -2973,3890 -2970,3920 -2958,3953 -2935,3975 -2896,3979 -2856,3969 -2834,3935 -2820,3897 -2820,3872 -2823,3858 -2825,3854 -2824,3858 -2818,3861 -2816,3863 " style="fill: white; stroke: black; stroke-width: 30" />
<polyline points="-2630,3857 -2592,3883 -2564,3926 -2547,3962 -2547,3979 -2544,3982 " style="fill: white; stroke: black; stroke-width: 30" />
<polyline points="-2472,3930 -2506,3956 -2535,3968 -2554,3957 -2554,3932 -2537,3911 -2514,3907 -2489,3919 -2464,3937 " style="fill: white; stroke: black; stroke-width: 30" />
<polyline points="-2345,3865 -2358,3861 -2366,3851 -2374,3846 -2386,3856 -2407,3894 -2416,3938 -2405,3971 -2372,3980 -2320,3952 -2262,3885 -2222,3800 -2201,3755 -2204,3750 -2217,3752 -2235,3789 -2247,3853 -2244,3902 -2229,3932 " style="fill: white; stroke: black; stroke-width: 30" />
<polyline points="-3214,4099 -3214,4099 -3222,4105 -3238,4117 -3246,4125 -3246,4135 -3244,4153 -3221,4181 -3205,4199 -3175,4221 -3137,4226 -3106,4211 " style="fill: white; stroke: black; stroke-width: 30" />
<polyline points="-3103,4154 -3112,4149 -3100,4141 -3062,4124 -3030,4132 -3008,4157 -3003,4194 -3013,4220 -3029,4235 -3039,4243 -3053,4234 -3062,4223 -3057,4224 -3061,4221 -3048,4222 -3026,4224 " style="fill: white; stroke: black; stroke-width: 30" />
<polyline points="-2855,4190 -2857,4195 -2862,4199 -2879,4202 -2899,4202 -2903,4200 -2903,4199 -2899,4196 -2887,4184 " style="fill: white; stroke: black; stroke-width: 30" />
<polyline points="-2698,4102 -2698,4104 -2694,4125 -2692,4161 -2698,4190 -2707,4209 -2717,4213 -2732,4207 -2743,4198 -2748,4183 -2732,4152 -2686,4122 -2644,4120 -2621,4142 -2617,4164 -2614,4188 -2617,4196 -2616,4193 -2613,4190 " style="fill: white; stroke: black; stroke-width: 30" />
<polyline points="-2596,4026 -2617,4030 -2620,4027 -2613,4027 " style="fill: white; stroke: black; stroke-width: 30" />
<polyline points="-2451,4152 -2471,4145 -2481,4133 -2497,4114 -2516,4115 -2527,4128 -2528,4154 -2512,4181 -2478,4187 -2452,4178 -2442,4172 -2444,4171 -2441,4173 -2438,4192 -2433,4246 -2443,4306 -2455,4368 -2467,4402 -2477,4403 -2493,4382 -2512,4284 -2497,4203 " style="fill: white; stroke: black; stroke-width: 30" />
<polyline points="-2294,4001 -2304,4004 -2311,4020 -2326,4095 -2341,4177 -2347,4219 -2347,4228 -2343,4220 -2339,4181 -2331,4162 -2328,4158 -2322,4162 -2297,4168 " style="fill: white; stroke: black; stroke-width: 30" />
<polyline points="-2733,3041 -2748,3054 -2759,3087 -2785,3190 " style="fill: white; stroke: black; stroke-width: 30" />
<polyline points="-2844,3415 -2847,3420 -2850,3431 -2839,3489 -2819,3514 -2788,3508 -2755,3485 " style="fill: white; stroke: black; stroke-width: 30" />
<polyline points="-2872,2536 -2880,2540 -2885,2546 -2885,2551 -2885,2573 -2883,2618 -2892,2699 -2904,2760 -2908,2781 -2906,2783 -2909,2780 -2910,2777 -2909,2773 " style="fill: white; stroke: black; stroke-width: 30" />
<polyline points="-2901,2713 -2896,2683 -2873,2642 -2829,2615 -2785,2620 -2753,2652 -2746,2701 -2769,2752 -2804,2780 -2851,2784 -2887,2768 -2903,2746 -2903,2726 " style="fill: white; stroke: black; stroke-width: 30" />
<polyline points="-2668,2772 -2672,2782 -2672,2778 -2674,2762 -2675,2722 -2675,2649 -2668,2603 -2664,2595 -2659,2597 -2640,2628 -2609,2666 " style="fill: white; stroke: black; stroke-width: 30" />
<polyline points="-2507,2565 -2511,2561 -2509,2559 -2498,2568 -2474,2613 -2464,2673 -2474,2726 -2497,2754 -2533,2759 -2574,2727 -2589,2684 -2579,2659 -2561,2653 -2530,2664 -2491,2693 -2450,2707 " style="fill: white; stroke: black; stroke-width: 30" />
<polyline points="-2319,2766 -2281,2741 -2252,2697 -2240,2682 -2240,2686 -2244,2694 -2245,2700 -2241,2703 -2237,2699 -2240,2699 -2240,2699 -2237,2701 -2242,2696 -2239,2693 -2236,2692 -2241,2692 -2241,2692 -2239,2693 -2240,2692 -2239,2691 -2238,2690 -2236,2691 -2236,2691 -2235,2690 -2236,2690 -2236,2688 -2238,2686 " style="fill: white; stroke: black; stroke-width: 30" />
<polyline points="-1425,2535 -1444,2518 -1477,2508 -1547,2518 -1615,2564 -1638,2603 -1630,2640 -1600,2686 -1569,2713 -1567,2721 -1582,2730 -1620,2737 -1658,2729 -1682,2717 -1686,2712 -1676,2710 " style="fill: white; stroke: black; stroke-width: 30" />
<polyline points="-1341,2676 -1281,2597 -1263,2556 -1271,2546 -1284,2546 -1301,2561 -1315,2618 -1320,2660 -1304,2687 -1273,2700 -1240,2707 -1218,2714 " style="fill: white; stroke: black; stroke-width: 30" />
<polyline points="-1134,2616 -1137,2605 -1122,2598 -1085,2607 -1066,2637 -1076,2687 -1115,2737 -1156,2765 -1181,2767 -1183,2750 -1176,2719 -1157,2705 -1132,2700 -1092,2712 -1040,2720 -976,2706 " style="fill: white; stroke: black; stroke-width: 30" />
<polyline points="-876,2498 -905,2556 -931,2632 -956,2727 -967,2797 -957,2841 -942,2855 -919,2829 -908,2756 -909,2694 -913,2686 -909,2687 -894,2692 -842,2689 -780,2674 -757,2655 -771,2638 -817,2636 -843,2662 -845,2700 -817,2740 " style="fill: white; stroke: black; stroke-width: 30" />
<polyline points="-2457,3016 -2463,3009 -2467,2988 -2470,2949 -2461,2896 -2432,2842 -2408,2828 -2388,2854 -2371,2920 -2366,2976 -2366,2992 -2359,2988 -2340,2973 -2311,2958 -2286,2953 -2266,2953 -2251,2949 -2232,2954 -2228,2960 -2232,2968 -2235,2985 -2231,3002 " style="fill: white; stroke: black; stroke-width: 30" />
<polyline points="-2106,2821 " style="fill: white; stroke: black; stroke-width: 30" />
<polyline points="-1905,2919 -1936,2916 -1976,2909 -2019,2915 -2058,2939 -2060,2963 -2032,2987 -1967,2996 -1890,2974 -1825,2930 " style="fill: white; stroke: black; stroke-width: 30" />
<polyline points="-1756,2763 -1766,2762 -1770,2759 -1767,2764 -1771,2792 -1777,2829 -1778,2849 -1781,2853 -1778,2854 -1775,2854 -1777,2853 -1773,2850 -1769,2849 -1774,2848 -1773,2848 -1773,2847 -1777,2846 -1773,2847 -1776,2845 " style="fill: white; stroke: black; stroke-width: 30" />
<polyline points="-1925,2745 -1923,2744 -1936,2752 -1971,2798 -2009,2909 -2036,3042 -2012,3136 " style="fill: white; stroke: black; stroke-width: 30" />
<polyline points="-1760,2799 -1782,2807 -1806,2812 -1834,2819 -1858,2837 -1860,2843 -1841,2862 -1798,2907 -1761,2946 -1756,2959 -1765,2967 -1778,2974 -1800,2976 -1818,2973 -1823,2968 -1836,2960 " style="fill: white; stroke: black; stroke-width: 30" />
<polyline points="-1629,2885 -1669,2895 -1692,2913 -1706,2950 -1695,2990 -1652,3010 -1591,2997 -1524,2942 -1473,2868 -1456,2819 -1463,2812 -1471,2820 -1492,2866 -1510,2930 -1494,2964 -1463,2978 -1428,2969 -1405,2962 -1402,2963 -1400,2959 " style="fill: white; stroke: black; stroke-width: 30" />
<polyline points="-1316,2880 -1331,2896 -1340,2910 -1351,2936 -1344,2946 -1328,2949 -1295,2943 -1283,2940 -1281,2946 -1281,2957 " style="fill: white; stroke: black; stroke-width: 30" />
<polyline points="-1115,2831 -1134,2846 -1160,2895 -1176,2956 -1169,2985 -1155,2996 -1121,2980 " style="fill: white; stroke: black; stroke-width: 30" />
<polyline points="-959,2896 -985,2894 -1010,2890 -1046,2893 -1091,2928 -1112,2963 -1100,2987 -1071,2998 -1021,2987 -974,2968 -951,2953 -937,2943 -933,2934 -933,2932 -935,2931 -935,2933 -937,2935 -936,2936 -934,2936 -936,2938 -935,2938 -935,2938 -936,2938 -935,2937 -928,2925 -904,2872 -890,2834 -887,2821 -889,2821 -889,2822 -892,2831 -908,2878 -915,2920 -908,2944 -898,2966 " style="fill: white; stroke: black; stroke-width: 30" />
<polyline points="-535,2827 -593,2848 -664,2883 -701,2905 -705,2916 -679,2937 -626,2967 " style="fill: white; stroke: black; stroke-width: 30" />
<polyline points="-349,2809 -356,2807 -359,2810 -364,2842 -377,2902 -387,2957 -389,2993 -386,3006 -379,3005 " style="fill: white; stroke: black; stroke-width: 30" />
<polyline points="-270,2779 -268,2778 -271,2781 -275,2788 -278,2808 -289,2855 -298,2912 -305,2958 -317,2989 -324,2997 " style="fill: white; stroke: black; stroke-width: 30" />
<polyline points="-3336,4727 -3347,4729 -3358,4743 -3383,4804 -3408,4921 -3419,5021 -3406,5071 -3372,5092 -3317,5097 -3272,5092 -3191,4990 -3199,4988 -3188,4988 -3170,4988 -3146,4994 -3130,5004 -3129,5013 -3139,5033 -3155,5067 -3166,5086 -3170,5092 -3178,5093 -3176,5097 -3174,5096 " style="fill: white; stroke: black; stroke-width: 30" />
<polyline points="-3044,5219 -3032,5181 -3024,5094 -3010,5006 -2993,4960 -2969,4944 -2945,4947 -2934,4961 -2939,4986 -2959,5031 -3001,5067 -3053,5100 -3073,5126 -3085,5154 -3067,5187 -3029,5209 -2971,5211 -2904,5185 -2859,5148 -2849,5116 -2864,5088 -2896,5086 -2935,5107 -2948,5135 -2928,5183 -2897,5205 -2858,5214 " style="fill: white; stroke: black; stroke-width: 30" />
<polyline points="-2748,5131 -2744,5144 -2753,5164 -2761,5201 -2768,5226 -2769,5230 -2766,5224 " style="fill: white; stroke: black; stroke-width: 30" />
<polyline points="-2750,5063 -2761,5025 -2777,5002 -2780,4994 -2773,4993 -2760,4983 -2752,4981 -2748,4983 -2747,4984 -2742,4986 -2744,4987 -2745,4986 -2743,4985 -2735,4994 -2712,5013 -2701,5030 -2699,5055 -2710,5070 -2738,5076 -2758,5068 -2766,5044 -2765,5003 -2745,4984 " style="fill: white; stroke: black; stroke-width: 30" />
<polyline points="-2616,5138 -2608,5167 -2598,5212 -2579,5227 -2540,5199 -2492,5131 -2439,5044 -2417,4983 -2413,4971 -2420,4975 -2438,5018 -2471,5103 -2497,5170 -2501,5201 -2499,5201 -2490,5193 -2481,5175 -2464,5162 -2446,5159 -2404,5152 -2378,5136 -2372,5133 -2384,5133 -2413,5144 -2425,5173 -2421,5189 -2397,5198 " style="fill: white; stroke: black; stroke-width: 30" />
<polyline points="-2215,5122 -2217,5115 -2227,5105 -2235,5103 -2249,5107 -2258,5116 -2254,5134 -2247,5159 -2231,5170 -2224,5166 -2220,5164 -2221,5155 -2217,5135 -2204,5106 -2194,5088 -2194,5085 -2197,5087 -2205,5093 -2212,5099 -2211,5130 -2219,5181 -2211,5235 -2208,5287 -2214,5339 -2231,5378 -2232,5394 -2229,5383 -2222,5333 -2137,5038 " style="fill: white; stroke: black; stroke-width: 30" />
<polyline points="-1986,5052 -1993,5052 -1992,5060 -1994,5104 -2001,5155 -2016,5194 -2051,5215 -2080,5218 -2096,5195 -2088,5174 -2082,5170 -2064,5169 -2013,5163 -1959,5142 -1900,5102 -1862,5040 -1850,4978 -1878,4968 -1904,4993 -1940,5061 -1964,5141 -1974,5196 -1975,5211 -1971,5200 -1961,5158 -1950,5128 -1947,5123 -1942,5123 -1926,5130 -1892,5132 -1865,5133 -1839,5131 -1826,5117 -1832,5106 -1849,5101 -1866,5105 -1872,5117 -1870,5158 -1855,5200 -1840,5221 -1749,5017 " style="fill: white; stroke: black; stroke-width: 30" />
<polyline points="-3056,5406 -3058,5393 -3048,5392 -3048,5399 -3059,5439 -3087,5528 -3101,5585 -3102,5595 -3077,5603 -3045,5599 -3001,5600 -2961,5596 -2930,5584 -2897,5566 " style="fill: white; stroke: black; stroke-width: 30" />
<polyline points="-2897,5543 -2908,5540 -2907,5538 -2898,5539 -2898,5539 -2895,5538 -2880,5544 -2865,5557 -2854,5579 -2855,5608 -2853,5629 -2860,5631 -2860,5631 -2865,5628 -2867,5626 -2868,5626 -2870,5627 -2865,5628 -2864,5628 " style="fill: white; stroke: black; stroke-width: 30" />
<polyline points="-2880,5521 -2894,5525 -2899,5522 -2883,5522 -2852,5533 -2811,5545 -2776,5560 -2763,5573 -2763,5580 -2778,5595 -2804,5610 -2840,5618 -2879,5622 -2886,5624 -2889,5621 -2888,5618 " style="fill: white; stroke: black; stroke-width: 30" />
<polyline points="-2659,5694 -2660,5700 -2659,5693 -2652,5672 -2648,5632 -2644,5569 -2637,5502 -2628,5450 -2619,5425 -2616,5425 -2620,5433 -2623,5445 -2633,5498 -2641,5560 -2636,5607 -2618,5637 -2588,5652 -2552,5648 -2506,5624 -2456,5583 -2424,5533 -2415,5483 -2420,5455 -2425,5441 -2428,5440 -2426,5451 -2434,5466 -2446,5520 -2449,5583 -2445,5624 -2430,5650 -2400,5661 -2364,5641 -2330,5617 -2314,5609 -2314,5599 -2314,5587 -2318,5568 -2314,5547 -2317,5544 -2321,5546 -2326,5547 -2329,5552 -2349,5570 -2363,5609 -2369,5638 -2361,5652 -2341,5657 -2310,5653 -2290,5632 -2278,5612 -2275,5586 -2294,5560 -2317,5551 -2321,5555 -2327,5558 -2325,5568 -2317,5597 -2302,5619 -2286,5633 -2269,5641 -2266,5642 -2260,5628 -2239,5593 -2215,5561 -2194,5548 -2190,5552 -2186,5573 -2175,5604 -2172,5637 -2172,5655 -2170,5659 -2167,5656 -2170,5655 -2167,5652 -2163,5648 -2139,5641 -2111,5627 -2084,5607 -2061,5588 -2064,5580 -2065,5573 -2070,5576 -2073,5582 -2083,5591 -2092,5624 -2083,5654 -2069,5666 -2047,5674 -2012,5658 -1973,5614 -1946,5572 -1936,5538 -1948,5519 -1955,5517 -1956,5520 -1960,5534 -1969,5587 -1966,5620 -1956,5639 -1936,5640 -1920,5620 -1902,5592 -1897,5582 -1893,5582 -1896,5582 -1899,5593 -1908,5615 -1929,5662 -1953,5725 -1968,5791 -1977,5835 " style="fill: white; stroke: black; stroke-width: 30" />
<polyline points="-2990,10105 -2987,10084 -2994,10073 -2980,10076 -2982,10084 -2973,10133 -2968,10237 -2954,10334 -2957,10400 -2954,10429 -2977,10434 -3026,10403 -3091,10330 -3143,10254 -3161,10225 -3159,10224 -3153,10226 " style="fill: white; stroke: black; stroke-width: 30" />
<polyline points="-2899,10285 -2834,10286 -2782,10245 -2745,10210 -2735,10206 -2733,10212 -2742,10232 -2740,10264 -2731,10280 -2661,10239 -2662,10235 -2663,10231 -2663,10230 -2662,10234 -2662,10234 -2663,10231 -2675,10229 -2673,10227 -2664,10212 -2658,10194 -2663,10171 -2650,10157 -2648,10148 -2640,10148 -2611,10151 -2579,10167 -2565,10179 -2562,10200 -2569,10220 -2570,10231 -2566,10232 -2564,10227 -2571,10211 -2582,10186 -2591,10171 -2594,10169 -2619,10167 -2639,10177 -2673,10206 -2692,10228 -2687,10235 -2660,10262 -2620,10288 -2601,10316 -2589,10334 -2589,10353 -2594,10356 -2590,10358 -2611,10355 -2631,10352 -2653,10344 -2676,10334 -2688,10328 -2694,10320 -2704,10316 " style="fill: white; stroke: black; stroke-width: 30" />
<polyline points="-1973,10129 -1993,10137 -2004,10174 -2005,10231 -2002,10279 -2015,10293 -2005,10293 -2011,10292 -2022,10285 -2010,10243 -2021,10136 -1993,10040 -1972,9988 -1931,9982 -1873,10021 -1853,10085 -1893,10152 -1945,10193 -1996,10203 -2031,10186 -2042,10168 -2036,10158 -2026,10162 -1981,10178 -1924,10199 -1859,10219 -1816,10232 -1825,10245 -1828,10277 -1835,10307 -1836,10319 -1837,10317 -1831,10291 -1833,10234 -1841,10175 -1843,10164 -1844,10163 -1829,10168 -1833,10175 -1794,10186 -1737,10193 -1675,10183 -1630,10174 -1623,10180 -1617,10183 -1620,10187 -1625,10206 -1628,10226 -1623,10261 " style="fill: white; stroke: black; stroke-width: 30" />
<polyline points="-1633,10017 -1631,10018 -1625,10018 -1613,10017 " style="fill: white; stroke: black; stroke-width: 30" />
<polyline points="-1441,10215 -1432,10253 -1419,10285 -1411,10287 -1382,10268 -1349,10254 -1337,10256 -1340,10266 -1324,10281 " style="fill: white; stroke: black; stroke-width: 30" />
<polyline points="-1202,10322 -1260,10307 -1284,10279 -1269,10269 -1254,10261 -1207,10263 -1165,10273 -1107,10272 -1041,10265 -1004,10265 -996,10268 -994,10266 -1000,10261 -1008,10244 -1014,10223 -1025,10221 -1020,10228 -1031,10235 -1048,10267 -1062,10293 -1064,10312 -1048,10328 -1019,10343 -961,10335 " style="fill: white; stroke: black; stroke-width: 30" />
<polyline points="-365,10085 -354,10062 -349,10068 -344,10090 -328,10133 -312,10177 -275,10229 -224,10298 -174,10336 -136,10150 " style="fill: white; stroke: black; stroke-width: 30" />
<polyline points="-428,10196 -449,10185 -449,10182 -436,10183 -409,10191 -399,10198 -338,10218 -73,10191 -124,10214 -143,10253 -154,10278 -127,10298 -56,10285 21,10219 46,10139 55,10084 57,10070 45,10071 45,10076 38,10100 32,10177 38,10222 65,10263 97,10286 138,10280 191,10246 " style="fill: white; stroke: black; stroke-width: 30" />
<polyline points="228,10142 218,10123 208,10117 220,10117 252,10123 264,10149 279,10192 269,10257 237,10299 208,10316 161,10305 149,10271 157,10252 151,10251 172,10250 232,10257 308,10255 370,10240 385,10229 375,10235 356,10249 336,10291 332,10351 336,10404 331,10437 332,10455 333,10451 336,10418 342,10340 362,10234 387,10179 414,10140 431,10136 451,10161 458,10214 456,10264 432,10295 418,10297 390,10271 373,10216 374,10162 385,10134 418,10133 " style="fill: white; stroke: black; stroke-width: 30" />
<polyline points="558,10322 573,10312 571,10259 578,10213 596,10187 618,10177 " style="fill: white; stroke: black; stroke-width: 30" />
<polyline points="-3148,10082 -3153,10083 -3139,10079 -3122,10074 -3096,10073 -3060,10076 -3001,10090 " style="fill: white; stroke: black; stroke-width: 30" />
<polyline points="-2661,10931 -2604,10927 -2590,10916 " style="fill: white; stroke: black; stroke-width: 30" />
<polyline points="-2609,10817 -2631,10815 -2625,10816 -2603,10818 -2571,10843 -2559,10887 -2555,10908 -2553,10926 -2567,10932 -2579,10933 " style="fill: white; stroke: black; stroke-width: 30" />
<polyline points="-2050,10767 -2064,10763 -2078,10767 -2080,10800 -2093,10905 -2102,10995 -2096,11027 -2098,11025 -2092,11001 -2091,10941 -2098,10875 -2124,10830 -2137,10792 -2132,10780 -2137,10772 -2134,10766 -2146,10763 -2145,10760 -2152,10760 -2144,10764 -2152,10763 -2160,10759 -2154,10762 -2144,10765 -2141,10762 -2132,10758 -2081,10750 -2010,10758 -1950,10781 -1913,10814 -1935,10830 -1968,10867 -2027,10875 -2072,10870 -2080,10867 -2077,10867 -2048,10895 -1996,10969 -1967,11026 -1970,11055 -2008,11070 -2049,11055 -2096,11025 -2110,10996 -2110,10980 -2118,10968 -2079,10957 -1985,10956 -1888,10954 -1816,10962 -1780,10980 -1778,10995 -1792,11013 -1792,11017 -1785,11026 " style="fill: white; stroke: black; stroke-width: 30" />
<polyline points="-1742,10960 -1720,10993 -1665,11017 -1601,11016 -1561,10991 -1553,10978 -1556,10974 -1561,10975 -1555,10979 -1564,11000 -1571,11065 -1575,11153 -1589,11225 -1597,11266 -1615,11283 -1644,11272 -1688,11187 -1718,11078 " style="fill: white; stroke: black; stroke-width: 30" />
<polyline points="-1365,10908 -1413,10898 -1468,10902 -1491,10912 -1476,10928 -1433,10958 -1361,10976 -1322,10968 -1313,10959 -1319,10962 -1327,10970 -1327,10990 -1326,11055 -1331,11135 -1340,11214 -1375,11272 -1429,11280 -1442,11252 -1482,11153 -1439,11068 -1365,11027 -1291,11009 -1226,10999 -1200,10993 -1188,10998 -1221,11008 -1260,11018 -1277,11021 -1252,11022 -1212,11024 -1181,11032 -1160,11037 -1137,11039 -1122,11029 -1088,10990 -1043,10933 -1013,10899 -1005,10887 -1015,10883 -1013,10885 -993,10889 -979,10899 " style="fill: white; stroke: black; stroke-width: 30" />
<polyline points="-299,10899 -311,10901 -317,10903 -319,10903 -325,10903 -334,10903 -361,10904 -415,10926 -454,10963 -450,10984 -402,11023 -355,11042 -353,11048 -384,11051 -442,11047 -473,11038 -463,11035 -459,11030 -429,11024 -389,11004 -317,10968 -225,10932 -167,10917 -169,10912 -186,10914 -217,10927 -238,10939 -225,10947 -207,10961 -153,10959 -101,10924 -68,10898 -68,10898 -82,10913 -99,10978 -125,11054 -132,11127 " style="fill: white; stroke: black; stroke-width: 30" />
<polyline points="86,10887 51,10888 32,10894 49,10902 74,10953 93,11005 81,11055 67,11095 60,11100 52,11087 24,11033 14,10954 69,10871 175,10790 317,10712 387,10679 381,10689 330,10741 262,10844 219,10945 224,10997 222,11005 217,10993 231,10955 239,10944 264,10943 336,10939 413,10930 476,10905 471,10893 422,10898 397,10913 398,10935 428,10946 475,10944 481,10944 482,10955 489,10983 521,11001 569,10988 622,10977 635,10987 632,11008 " style="fill: white; stroke: black; stroke-width: 30" />
<polyline points="1372,10765 1344,10806 1331,10890 1320,10976 " style="fill: white; stroke: black; stroke-width: 30" />
<polyline points="1237,10872 1262,10876 1332,10883 1425,10865 1517,10818 1555,10771 1556,10761 1544,10769 1533,10782 1507,10849 1467,10932 1452,10981 1459,10982 1502,10983 1570,10986 1626,11002 " style="fill: white; stroke: black; stroke-width: 30" />
<polyline points="1779,10906 1774,10907 1789,10916 1810,10956 1805,11004 1787,11043 1759,11057 1743,11037 1740,11001 1751,10978 1773,10964 1804,10974 1852,11000 1904,11014 1940,11011 1944,11009 1931,11006 1927,10998 1960,10974 1987,10958 1993,10963 1994,11009 1983,11071 2007,11091 " style="fill: white; stroke: black; stroke-width: 30" />
<polyline points="2781,10926 2789,10905 2801,10879 2809,10860 2783,10846 2709,10852 2626,10882 2573,10938 2577,10966 2640,11015 2754,11038 2832,11041 2904,11025 " style="fill: white; stroke: black; stroke-width: 30" />
<polyline points="3004,10786 2997,10783 3002,10777 3002,10777 3017,10772 3014,10771 3023,10770 3010,10773 3005,10773 2989,10779 2978,10788 2966,10836 2944,10890 2935,10925 2930,10932 2923,10957 2909,10983 2916,11017 2928,11019 2933,11015 2933,11012 2921,11018 2923,11019 2915,11022 2922,11023 2928,11022 2934,11018 2928,11020 2940,11014 2950,11009 " style="fill: white; stroke: black; stroke-width: 30" />
<polyline points="3219,10738 3212,10738 3201,10746 3171,10801 3135,10911 3100,11000 3096,11052 " style="fill: white; stroke: black; stroke-width: 30" />
<polyline points="3144,10731 " style="fill: white; stroke: black; stroke-width: 30" />
<polyline points="-2073,11602 -2029,11612 -1978,11608 -1907,11607 -1845,11620 -1802,11631 " style="fill: white; stroke: black; stroke-width: 30" />
<polyline points="-1308,11644 -1294,11640 -1294,11638 -1316,11635 -1375,11639 -1459,11672 -1513,11707 -1526,11719 -1499,11736 -1406,11752 -1293,11737 -1248,11714 -1234,11703 -1264,11690 -1289,11679 -1285,11677 -1283,11677 -1280,11676 -1291,11677 " style="fill: white; stroke: black; stroke-width: 30" />
<polyline points="-1019,11733 -1014,11773 -993,11771 " style="fill: white; stroke: black; stroke-width: 30" />
<polyline points="-273,11564 -307,11547 -380,11557 -453,11595 -480,11616 -448,11624 -385,11658 -298,11684 -219,11702 " style="fill: white; stroke: black; stroke-width: 30" />
<polyline points="-190,11587 -168,11557 -137,11532 -89,11514 -54,11529 -41,11579 -46,11624 -73,11679 -119,11715 -166,11725 -192,11711 -214,11693 -211,11680 -194,11678 -157,11687 -97,11709 -42,11727 " style="fill: white; stroke: black; stroke-width: 30" />
<polyline points="168,11592 150,11577 128,11571 78,11585 43,11623 39,11675 77,11725 137,11731 209,11685 266,11590 306,11516 305,11497 299,11498 263,11529 255,11575 271,11625 299,11671 333,11708 356,11737 " style="fill: white; stroke: black; stroke-width: 30" />
<polyline points="359,11681 352,11679 354,11677 361,11673 407,11664 461,11649 510,11652 555,11669 560,11691 551,11729 547,11752 " style="fill: white; stroke: black; stroke-width: 30" />
<polyline points="1303,11566 1218,11597 1139,11654 1111,11691 1137,11700 1230,11717 1325,11717 1395,11706 1419,11696 1414,11696 1410,11695 1401,11697 1413,11700 1415,11702 1406,11700 1402,11701 1413,11701 1402,11703 1403,11710 1400,11723 1398,11727 1418,11724 1415,11717 1443,11690 1483,11669 1514,11664 1540,11675 1561,11696 1570,11715 1577,11727 1574,11758 1584,11766 1601,11756 1635,11723 1689,11685 1719,11676 1719,11690 1690,11709 1700,11718 1697,11727 1701,11738 1687,11754 1705,11765 1714,11763 1722,11759 " style="fill: white; stroke: black; stroke-width: 30" />
<polyline points="1800,11521 1780,11522 1773,11521 1782,11518 " style="fill: white; stroke: black; stroke-width: 30" />
<polyline points="1852,11651 1837,11655 1819,11669 1784,11715 1774,11754 1790,11780 1823,11802 1855,11805 1908,11787 1921,11767 1941,11737 1950,11707 1947,11698 1942,11699 1940,11701 1957,11703 1950,11705 1945,11704 1952,11706 1955,11707 1950,11707 1953,11707 " style="fill: white; stroke: black; stroke-width: 30" />
<polyline points="1975,11705 1984,11701 2002,11688 2028,11652 2040,11614 2073,11565 2076,11519 2082,11474 2085,11455 2074,11446 2050,11459 2023,11503 1982,11608 1935,11782 1907,11930 1905,12018 " style="fill: white; stroke: black; stroke-width: 30" />
<polyline points="2168,11724 2174,11721 2206,11702 2240,11675 2263,11660 2267,11644 2257,11629 2222,11618 2178,11627 2160,11652 2159,11698 2178,11743 2205,11772 " style="fill: white; stroke: black; stroke-width: 30" />
<polyline points="2816,11563 2800,11572 2781,11603 2779,11645 2771,11692 2770,11709 2782,11701 " style="fill: white; stroke: black; stroke-width: 30" />
<polyline points="2778,11405 2762,11386 2780,11374 2778,11373 2818,11373 2868,11406 2874,11451 2882,11483 2857,11494 2827,11480 2798,11447 2793,11424 2797,11413 2805,11406 " style="fill: white; stroke: black; stroke-width: 30" />
<polyline points="2995,11676 2987,11721 3000,11734 " style="fill: white; stroke: black; stroke-width: 30" />
<polyline points="3700,11535 3695,11535 3667,11550 3623,11593 3576,11654 3554,11697 3562,11716 3598,11724 3652,11721 3711,11724 3747,11739 3778,11758 3807,11775 3817,11774 3819,11758 3811,11750 3802,11751 3812,11744 3808,11747 3819,11741 3804,11742 3811,11740 3806,11741 3810,11737 3820,11737 3832,11732 3880,11716 3911,11707 3924,11694 3934,11676 3904,11671 3851,11682 3795,11705 3803,11724 3818,11763 3874,11808 3912,11650 " style="fill: white; stroke: black; stroke-width: 30" />
<polyline points="-1416,12035 -1427,12033 -1427,12048 -1433,12098 -1428,12177 -1433,12246 -1435,12282 " style="fill: white; stroke: black; stroke-width: 30" />
<polyline points="-1475,12003 -1489,11986 -1480,11970 -1436,11968 -1356,11991 -1291,12029 -1242,12071 -1256,12096 -1291,12121 -1354,12143 -1399,12154 -1406,12152 -1373,12172 -1344,12221 -1320,12263 -1338,12300 -1347,12316 -1353,12312 -1373,12293 -1399,12255 -1435,12224 -1219,12149 -1235,12124 -1215,12104 -1159,12095 -1103,12123 -1077,12163 -1079,12193 -1103,12221 -1121,12236 -1173,12244 -1222,12245 -1245,12238 -1246,12231 -1227,12224 -1194,12218 -1162,12230 -1134,12251 -1106,12279 -1065,12301 " style="fill: white; stroke: black; stroke-width: 30" />
<polyline points="-873,12155 -898,12148 -913,12144 -949,12160 -993,12210 -1008,12259 -983,12291 -922,12297 -840,12246 -766,12150 -703,12053 -717,12010 -737,12006 -754,12021 -758,12084 -766,12176 -769,12235 -751,12248 -718,12232 -672,12203 -632,12186 -637,12181 -680,12179 -725,12187 -737,12203 -745,12219 -741,12233 -716,12238 " style="fill: white; stroke: black; stroke-width: 30" />
<polyline points="518,12059 527,12057 529,12056 527,12056 527,12056 525,12057 " style="fill: white; stroke: black; stroke-width: 30" />
<polyline points="194,12301 199,12294 215,12271 250,12213 308,12140 355,12084 370,12063 354,12068 364,12081 372,12118 383,12172 426,12224 478,12259 504,12056 " style="fill: white; stroke: black; stroke-width: 30" />
<polyline points="563,12192 651,12149 726,12098 737,12087 710,12100 684,12121 665,12164 654,12219 652,12266 642,12295 640,12298 645,12265 642,12198 638,12162 640,12156 660,12160 695,12169 765,12174 840,12159 918,12113 960,12065 952,12051 936,12054 909,12066 897,12116 858,12188 832,12243 824,12261 826,12251 844,12209 864,12173 892,12141 907,12125 914,12129 899,12138 912,12160 942,12186 984,12196 1025,12186 1068,12168 1069,12160 1071,12153 1053,12156 1028,12162 1009,12185 1009,12215 1037,12242 1052,12261 " style="fill: white; stroke: black; stroke-width: 30" />
<polyline points="1209,12192 1243,12177 1265,12170 1282,12177 1289,12192 1297,12204 1307,12217 1334,12224 1347,12239 1367,12251 1377,12253 1392,12242 " style="fill: white; stroke: black; stroke-width: 30" />
<polyline points="1525,12189 1508,12202 1496,12220 1484,12259 1470,12325 1456,12390 1442,12429 1439,12443 1445,12435 1470,12383 1481,12277 1503,12181 1545,12128 1581,12112 1598,12120 1609,12152 1614,12206 1585,12252 1540,12274 1511,12267 1488,12235 1478,12174 1482,11914 " style="fill: white; stroke: black; stroke-width: 30" />
<polyline points="1807,12088 1753,12135 1722,12203 1715,12273 1734,12306 1731,12301 1730,12261 1734,12238 1728,12226 1736,12219 1752,12213 1791,12204 1829,12200 " style="fill: white; stroke: black; stroke-width: 30" />
<polyline points="2388,12050 2374,12042 2361,12046 2340,12076 2309,12168 2300,12248 2301,12283 2306,12281 2301,12240 2297,12169 2297,12131 2298,12122 2300,12119 2328,12129 2383,12150 2456,12186 " style="fill: white; stroke: black; stroke-width: 30" />
<polyline points="2457,12205 2459,12229 2532,12262 2640,12261 2687,12238 2681,12221 2652,12201 2605,12187 2603,12179 " style="fill: white; stroke: black; stroke-width: 30" />
<polyline points="3234,12318 3330,12304 3386,12266 3429,12225 3429,12214 3418,12214 3405,12222 3397,12246 3403,12271 3632,12164 3581,12240 3587,12272 3581,12295 3624,12291 3707,12244 3801,12170 3875,12130 3868,12124 3877,12122 3831,12160 3800,12212 3777,12273 " style="fill: white; stroke: black; stroke-width: 30" />
<polyline points="-1326,12666 -1327,12701 -1314,12712 -1311,12705 -1272,12683 -1240,12671 -1225,12674 -1195,12687 -1191,12691 -1184,12696 -1184,12702 -1162,12724 -1126,12537 " style="fill: white; stroke: black; stroke-width: 30" />
<polyline points="-999,12716 -962,12698 -942,12694 -938,12700 -948,12703 -953,12706 " style="fill: white; stroke: black; stroke-width: 30" />
<polyline points="-769,12501 -759,12488 -760,12506 -776,12582 -795,12682 -816,12750 -791,12774 -718,12779 -603,12749 -503,12717 -462,12693 -449,12663 -450,12623 -444,12599 -453,12597 -451,12599 -449,12602 -463,12604 -458,12600 -458,12598 -436,12573 -420,12533 -416,12534 -435,12547 -454,12600 -458,12649 -484,12705 -484,12779 -474,12823 -457,12822 -448,12774 -441,12710 -463,12652 -505,12636 -496,12639 -491,12644 -458,12656 -430,12667 -392,12681 -352,12695 -316,12705 -299,12707 -309,12707 -302,12714 -316,12727 -302,12744 " style="fill: white; stroke: black; stroke-width: 30" />
<polyline points="-288,12529 -283,12525 -288,12523 -276,12525 " style="fill: white; stroke: black; stroke-width: 30" />
<polyline points="-117,12701 -134,12719 -159,12771 -165,12863 -173,12960 -176,13007 -157,13004 -171,12965 -150,12866 -103,12758 -45,12694 -5,12673 2,12675 -2,12694 -43,12715 -77,12726 -113,12727 -137,12719 -137,12715 -117,12714 " style="fill: white; stroke: black; stroke-width: 30" />
<polyline points="198,12568 208,12556 196,12557 191,12567 183,12644 148,12724 153,12761 190,12774 264,12761 343,12734 385,12704 403,12675 393,12646 337,12630 307,12633 307,12637 326,12650 344,12687 374,12729 420,12765 " style="fill: white; stroke: black; stroke-width: 30" />
<polyline points="998,12679 984,12677 986,12671 985,12666 973,12667 978,12667 969,12671 977,12678 959,12698 966,12727 987,12751 1053,12760 1141,12742 1201,12703 1208,12673 1193,12646 1146,12626 1138,12620 1130,12617 1145,12621 1173,12636 1219,12664 1263,12689 1298,12703 1310,12706 1325,12704 1325,12704 1318,12708 1317,12719 1309,12745 1319,12766 1330,12781 " style="fill: white; stroke: black; stroke-width: 30" />
<polyline points="1352,12591 1334,12584 1327,12582 1341,12577 " style="fill: white; stroke: black; stroke-width: 30" />
<polyline points="1432,12684 1415,12701 1423,12752 1494,12816 1600,12839 1693,12812 " style="fill: white; stroke: black; stroke-width: 30" />
<polyline points="1789,12510 1773,12500 1741,12514 1695,12582 1637,12686 1634,12758 1642,12779 1634,12779 1638,12772 1654,12755 1648,12748 1669,12740 1675,12733 1728,12725 1776,12717 1826,12718 1880,12717 1900,12714 1904,12711 1890,12716 1877,12728 1867,12745 1867,12778 1865,12798 1871,12809 " style="fill: white; stroke: black; stroke-width: 30" />
<polyline points="1976,12588 1943,12577 1942,12570 1946,12565 " style="fill: white; stroke: black; stroke-width: 30" />
<polyline points="1953,12756 1967,12752 1980,12754 2014,12768 2021,12782 2031,12780 2028,12774 2055,12757 2099,12720 2119,12706 2122,12710 2119,12722 2117,12753 2123,12762 2144,12765 2140,12771 2155,12787 2160,12801 2153,12805 2160,12800 " style="fill: white; stroke: black; stroke-width: 30" />
<polyline points="2118,10096 2103,10099 2081,10123 2069,10205 2076,10333 2082,10404 2088,10407 2088,10386 2085,10295 2093,10190 2077,10141 2081,10143 2070,10149 2072,10170 2066,10212 2076,10272 2091,10328 2116,10349 2168,10356 2235,10338 2326,10279 2402,10215 2433,10186 2430,10186 2414,10198 2404,10224 2384,10255 2394,10302 2419,10347 2481,10367 2552,10334 2622,10272 2654,10221 2651,10210 2618,10222 2579,10261 2569,10290 2593,10319 2645,10356 2727,10375 " style="fill: white; stroke: black; stroke-width: 30" />
<polyline points="1798,9479 1785,9489 1789,9502 1787,9521 1782,9549 1785,9564 1792,9579 1793,9584 " style="fill: white; stroke: black; stroke-width: 30" />
<polyline points="1771,9363 1756,9350 1749,9343 1757,9339 1790,9344 1813,9370 1826,9400 1809,9418 1782,9424 1762,9414 1746,9400 1753,9396 1761,9379 " style="fill: white; stroke: black; stroke-width: 30" />
<polyline points="1862,9579 1845,9578 1845,9580 1841,9587 1841,9597 1844,9595 1840,9592 1835,9586 1841,9568 1861,9551 1898,9546 1919,9556 1931,9567 1925,9575 1931,9575 1952,9566 1988,9557 1991,9569 2001,9589 1999,9610 2005,9612 2009,9609 2021,9604 " style="fill: white; stroke: black; stroke-width: 30" />
<polyline points="2054,9696 2059,9618 2098,9554 2134,9532 2157,9541 2166,9565 2153,9609 2132,9639 2086,9652 2045,9643 2052,9633 2060,9604 2113,9542 2192,9488 2264,9431 2320,9390 2328,9382 2322,9383 2310,9389 2306,9389 2302,9387 2282,9392 2248,9424 2204,9491 2193,9552 2222,9598 2281,9620 2332,9622 2381,9603 2404,9575 2405,9563 2409,9561 2411,9565 2400,9591 2396,9609 2394,9630 " style="fill: white; stroke: black; stroke-width: 30" />
<polyline points="2570,9548 2555,9549 2566,9554 2608,9555 2675,9550 2741,9525 2779,9502 2790,9498 2794,9498 2771,9519 2740,9573 2730,9601 2746,9601 " style="fill: white; stroke: black; stroke-width: 30" />
<polyline points="2788,9380 2772,9372 2766,9373 2768,9379 2721,9239 " style="fill: white; stroke: black; stroke-width: 30" />
<polyline points="2851,9584 2858,9587 2875,9575 2901,9551 2927,9514 2938,9483 2922,9485 2918,9496 2909,9543 2916,9587 2959,9622 2997,9636 3015,9628 3021,9604 3022,9561 3048,9520 3075,9504 3081,9504 3106,9511 3077,9336 " style="fill: white; stroke: black; stroke-width: 30" />
<polyline points="3350,9264 3345,9266 3298,9324 3246,9405 3204,9484 3186,9537 3191,9541 3191,9536 3183,9530 3187,9523 3189,9522 3194,9518 3199,9516 3196,9519 3197,9514 3200,9490 3197,9471 3198,9454 3200,9449 3200,9452 3215,9454 3251,9455 3242,9268 " style="fill: white; stroke: black; stroke-width: 30" />
<polyline points="3865,9491 3880,9479 3891,9461 3865,9446 3807,9441 3724,9485 3685,9531 3702,9564 3757,9577 3854,9542 3952,9483 4019,9416 4019,9393 4013,9391 4013,9389 4009,9390 4013,9395 4010,9400 4009,9414 3998,9442 3983,9477 3983,9499 3996,9530 4022,9548 4073,9556 4164,9525 4208,9492 4211,9482 4212,9486 4195,9495 4187,9514 4186,9523 4180,9547 4186,9554 " style="fill: white; stroke: black; stroke-width: 30" />
<polyline points="4383,9484 4374,9487 4361,9494 4368,9508 4369,9532 4392,9556 4364,9385 " style="fill: white; stroke: black; stroke-width: 30" />
<polyline points="1878,9745 1877,9717 1878,9712 1871,9716 1863,9746 1845,9815 1838,9885 1837,9915 1846,9929 1858,9918 1854,9865 1833,9795 1822,9742 1811,9706 1811,9683 1828,9672 1860,9690 1899,9733 1942,9791 1955,9839 1953,9881 1921,9921 1874,9945 1815,9944 1767,9926 1755,9907 1772,9890 1837,9869 " style="fill: white; stroke: black; stroke-width: 30" />
<polyline points="2034,9840 2023,9831 2030,9831 2037,9835 2053,9847 2103,9866 " style="fill: white; stroke: black; stroke-width: 30" />
<polyline points="2244,9855 2242,9847 2225,9830 2200,9819 2144,9835 2116,9869 2118,9907 2165,9934 2224,9928 2276,9898 2290,9871 2272,9844 2250,9828 2247,9831 2251,9833 2260,9834 " style="fill: white; stroke: black; stroke-width: 30" />
<polyline points="2426,9857 2419,9825 2399,9803 2377,9811 2353,9837 2357,9855 2374,9868 2414,9857 2446,9835 2447,9834 2443,9835 2432,9854 2429,9919 2427,9986 2397,10044 2373,10064 2340,10053 2324,10002 2358,9929 2431,9878 2485,9863 2535,9859 2560,9854 2551,9848 2518,9831 2474,9828 2471,9831 2498,9858 2537,9884 2596,9898 2646,9890 2673,9862 2686,9838 2708,9829 2719,9833 2729,9855 " style="fill: white; stroke: black; stroke-width: 30" />
<polyline points="2960,9715 2936,9724 2905,9746 2876,9798 2849,9873 2844,9913 2880,9924 2938,9912 3015,9870 3059,9834 3066,9821 3054,9817 3039,9811 2999,9830 2962,9862 2962,9886 2997,9910 3056,9930 3134,9925 3198,9901 3228,9873 3228,9861 3220,9862 3219,9865 3212,9883 3211,9903 3221,9913 3231,9916 3276,9914 3301,9910 3295,9913 3303,9916 3311,9928 3337,9928 " style="fill: white; stroke: black; stroke-width: 30" />
<polyline points="3387,9865 3409,9853 3448,9852 3520,9861 3581,9864 3601,9859 3568,9848 3508,9854 3474,9872 3488,9877 3509,9902 3573,9930 " style="fill: white; stroke: black; stroke-width: 30" />
<polyline points="4051,9819 4021,9832 4006,9850 4003,9860 3999,9875 4028,9884 4063,9889 4081,9892 4086,9889 4093,9883 4077,9888 4087,9883 4083,9886 4106,9901 4138,9922 4148,9936 4164,9933 4176,9911 4183,9872 4183,9847 4188,9837 4183,9837 4182,9839 4185,9843 4193,9844 " style="fill: white; stroke: black; stroke-width: 30" />
<polyline points="4352,9830 4360,9827 4341,9831 4306,9840 4273,9858 4275,9873 4290,9893 4327,9911 4373,9912 4391,9897 4373,9878 4352,9852 4324,9843 4325,9847 4361,9851 4421,9861 4481,9853 4544,9813 4561,9774 4548,9758 4535,9760 4523,9773 4501,9820 4503,9854 4517,9868 4545,9881 4593,9861 4650,9817 4689,9773 4695,9758 4700,9754 4696,9762 4672,9785 4640,9818 4586,9862 4588,9872 4601,9895 4636,9917 4692,9924 4757,9913 4795,9902 4828,9865 4845,9830 4841,9826 4823,9831 4817,9830 4813,9833 4819,9829 4812,9830 4822,9826 4817,9830 4821,9829 4837,9824 4864,9801 4901,9771 4897,9775 4900,9775 4878,9799 4834,9850 4791,9904 4763,9929 4758,9937 4777,9927 4800,9906 4831,9874 4860,9850 4859,9843 4852,9846 4857,9845 4857,9851 4862,9866 4890,9882 4932,9888 4958,9887 4971,9879 4983,9870 4964,9879 4937,9898 4947,9904 4968,9914 4997,9916 4997,9920 4997,9926 5001,9939 5026,9968 " style="fill: white; stroke: black; stroke-width: 30" />
<polyline points="3187,10131 3193,10142 3192,10149 3193,10150 3188,10155 3186,10158 3186,10172 3195,10187 3206,10193 3229,10195 3275,10180 3331,10141 3368,10123 3373,10132 3368,10170 3380,10196 3385,10202 3424,10191 3454,10180 3452,10188 3456,10201 3465,10213 3518,10209 3594,10178 3641,10164 " style="fill: white; stroke: black; stroke-width: 30" />
<polyline points="3858,10163 3833,10153 3786,10163 3759,10191 3750,10229 3784,10253 3860,10255 3963,10203 4067,10123 4094,10073 4089,10059 4070,10067 4059,10097 4036,10149 4039,10179 4050,10196 4070,10210 4092,10236 4122,10256 " style="fill: white; stroke: black; stroke-width: 30" />
<polyline points="4558,10166 4532,10180 4513,10201 4502,10227 4497,10244 4504,10243 4514,10237 4519,10219 4552,10153 4588,10086 4646,10049 4662,10063 4687,10088 4667,10140 4618,10189 4576,10208 4542,10222 4543,10224 4553,10223 4570,10229 4603,10228 4631,10229 4687,10217 4738,10202 4789,10171 4790,10158 4755,10160 4724,10175 4705,10202 4703,10230 4713,10248 " style="fill: white; stroke: black; stroke-width: 30" />
<polyline points="4919,10098 4876,10149 4829,10209 4804,10244 4803,10246 4814,10225 4832,10194 4880,10168 4912,10163 4973,10171 5040,10169 5088,10152 5104,10126 5081,10117 5043,10125 4997,10171 4970,10208 4949,10247 4938,10258 4940,10252 4967,10218 4993,10203 5017,10198 5032,10207 5052,10215 5066,10216 5060,10215 5044,10220 5036,10230 5037,10255 5086,10268 5136,10272 5182,10251 5192,10243 5196,10241 5188,10247 5199,10273 5218,10297 5220,10305 5209,10310 5211,10308 5242,10300 " style="fill: white; stroke: black; stroke-width: 30" />
<polyline points="-3583,10659 -3592,10652 -3586,10652 -3564,10658 -3513,10675 -3449,10684 -3341,10674 -3215,10661 -3070,10645 -2904,10638 -2716,10628 -2487,10603 -2200,10584 -1911,10575 -1604,10578 -1264,10595 -914,10620 -541,10635 -145,10640 221,10643 521,10650 716,10656 804,10665 840,10668 855,10668 855,10668 848,10666 850,10663 834,10664 834,10659 830,10645 830,10637 828,10637 834,10638 " style="fill: white; stroke: black; stroke-width: 30" />

</svg>