<?xml version="1.0" standalone="no"?>
<!DOCTYPE svg PUBLIC "-//W3C//DTD SVG 1.1//EN" "http://www.w3.org/Graphics/SVG/1.1/DTD/svg11.dtd">
<svg width="210mm" height="297mm" viewBox="-7000 500 14000 20000" version="1.1" xmlns="http://www.w3.org/2000/svg">

<polyline points="-3203,6156 -3220,6157 -3228,6155 -3223,6152 -3196,6136 -3123,6119 -3046,6094 -2949,6082 -2877,6067 " style="fill: white; stroke: black; stroke-width: 30" />
<polyline points="-2906,6563 -2885,6599 -2872,6618 -2859,6634 -2860,6633 -2861,6630 -2864,6627 -2863,6625 -2863,6621 -2857,6598 -2819,6517 -2763,6380 -2704,6259 -2655,6151 -2625,6107 -2626,6094 -2628,6090 -2628,6089 -2630,6094 -2626,6096 -2631,6096 -2622,6101 -2626,6098 -2626,6099 " style="fill: white; stroke: black; stroke-width: 30" />
<polyline points="-3030,6387 -3055,6393 -3054,6398 -3060,6392 -3053,6392 -3047,6388 -3025,6384 -2977,6381 -2899,6375 -2809,6356 -2641,6140 " style="fill: white; stroke: black; stroke-width: 30" />
<polyline points="-2790,6092 -2815,6101 -2810,6097 -2799,6088 -2778,6075 -2750,6073 -2692,6075 " style="fill: white; stroke: black; stroke-width: 30" />
<polyline points="-1603,5921 -1616,5919 -1613,5922 -1623,5946 -1604,6065 -1610,6226 -1575,6337 -1527,6398 " style="fill: white; stroke: black; stroke-width: 30" />
<polyline points="-1185,5912 -1207,5910 -1216,5916 -1209,5950 -1191,6055 -1158,6198 -1136,6281 -1116,6324 " style="fill: white; stroke: black; stroke-width: 30" />
<polyline points="-1532,5943 -1551,5942 -1542,5939 -1496,5926 -1408,5918 -1295,5909 -1152,5885 -1033,5860 " style="fill: white; stroke: black; stroke-width: 30" />
<polyline points="292,5769 343,5751 373,5739 365,5739 341,5738 291,5728 172,5729 -1,5780 -201,5891 -401,6033 -486,6146 -480,6205 -358,6263 -146,6278 54,6258 214,6226 311,6213 " style="fill: white; stroke: black; stroke-width: 30" />
<polyline points="-411,6068 -413,6065 -419,6069 -422,6070 -423,6072 -384,6067 -278,6057 -125,6047 48,6029 233,5996 " style="fill: white; stroke: black; stroke-width: 30" />
<polyline points="712,5793 707,5775 709,5767 751,5755 851,5749 981,5741 1124,5710 " style="fill: white; stroke: black; stroke-width: 30" />
<polyline points="775,5825 751,5852 725,5954 704,6092 717,6169 798,6216 935,6214 " style="fill: white; stroke: black; stroke-width: 30" />
<polyline points="809,5984 811,5984 845,5975 955,5967 1087,5956 " style="fill: white; stroke: black; stroke-width: 30" />
<polyline points="1285,6154 1307,6150 1339,6111 1392,6035 1453,5916 1498,5803 1511,5705 1482,5645 1415,5600 1325,5608 1249,5699 1238,5828 1299,5947 1430,6024 1607,6040 1772,6017 1888,5996 " style="fill: white; stroke: black; stroke-width: 30" />
<polyline points="1760,5859 1723,5905 1736,5939 1794,5965 1883,5951 1959,5912 1992,5852 1975,5793 1883,5758 1766,5796 1730,5866 1772,5935 1883,5975 " style="fill: white; stroke: black; stroke-width: 30" />
<polyline points="2277,5763 2192,5753 2088,5784 2031,5845 2062,5923 2173,5965 2313,5948 2340,5682 " style="fill: white; stroke: black; stroke-width: 30" />
<polyline points="2475,5522 2447,5468 2422,5448 2403,5460 2385,5580 2382,5763 2418,5901 2470,5987 2485,6013 2466,5994 2429,5953 2396,5888 2394,5819 2402,5785 2453,5749 2530,5728 " style="fill: white; stroke: black; stroke-width: 30" />
<polyline points="2721,5825 2736,5714 2738,5614 2742,5545 2759,5510 2783,5515 2855,5554 " style="fill: white; stroke: black; stroke-width: 30" />
<polyline points="3365,5160 3322,5171 3249,5268 3143,5538 " style="fill: white; stroke: black; stroke-width: 30" />
<polyline points="3559,5382 3547,5386 3520,5475 3482,5673 3482,5851 3503,5942 3528,5950 " style="fill: white; stroke: black; stroke-width: 30" />
<polyline points="3422,5544 3373,5405 3378,5313 3455,5241 3595,5224 3729,5288 3774,5370 3710,5461 3553,5538 3413,5567 " style="fill: white; stroke: black; stroke-width: 30" />
<polyline points="3738,5468 3683,5513 3678,5577 3725,5662 3794,5745 3819,5813 3795,5864 3727,5896 3669,5881 3640,5842 3664,5724 3740,5629 " style="fill: white; stroke: black; stroke-width: 30" />
<polyline points="3930,5556 3914,5557 3919,5549 3917,5549 3913,5564 3911,5594 3906,5643 3910,5680 3918,5727 3925,5755 3944,5760 3977,5742 4040,5658 4124,5538 4167,5476 4168,5466 4164,5469 4156,5482 4144,5524 4116,5638 4061,5827 3996,6058 3848,6062 " style="fill: white; stroke: black; stroke-width: 30" />
<polyline points="-2356,7103 -2376,7099 -2375,7113 -2372,7210 -2325,7431 -2258,7628 -2182,7737 " style="fill: white; stroke: black; stroke-width: 30" />
<polyline points="-2012,7124 -2102,7164 -2217,7292 -2343,7474 -2403,7610 -2313,7659 -2134,7640 " style="fill: white; stroke: black; stroke-width: 30" />
<polyline points="-1736,7608 -1726,7631 -1724,7624 -1734,7569 -1754,7440 -1766,7314 -1767,7266 -1757,7261 -1711,7281 -1610,7322 -1501,7335 -1423,7311 -1381,7273 -1389,7268 -1389,7269 -1391,7271 -1392,7272 -1384,7272 -1377,7292 -1374,7380 -1380,7482 -1358,7571 " style="fill: white; stroke: black; stroke-width: 30" />
<polyline points="-1366,7115 -1456,7154 -1505,7130 -1529,7033 " style="fill: white; stroke: black; stroke-width: 30" />
<polyline points="-1206,7385 -1203,7385 -1160,7382 -1097,7368 -1043,7345 -985,7299 -950,7232 -951,7177 -1029,7142 -1137,7192 -1219,7286 -1213,7338 -1116,7383 " style="fill: white; stroke: black; stroke-width: 30" />
<polyline points="-726,7207 -724,7223 -723,7245 -713,7256 -695,7249 -655,7222 -623,7176 -600,7127 -604,7103 -610,7102 -612,7106 -603,7117 -592,7181 -532,7355 -455,7562 -417,7730 -417,7872 -480,7968 -546,8015 -626,7982 -746,7812 " style="fill: white; stroke: black; stroke-width: 30" />
<polyline points="-248,7037 -301,7020 -372,7019 -439,7047 -455,7072 -422,7135 -304,7234 -211,7316 -186,7372 -238,7418 -352,7428 -451,7367 -451,7246 " style="fill: white; stroke: black; stroke-width: 30" />
<polyline points="202,7048 210,7038 206,6998 179,6929 95,6850 -10,6809 -72,6824 -75,6916 -16,7155 48,7412 114,7589 159,7677 160,7669 " style="fill: white; stroke: black; stroke-width: 30" />
<polyline points="-32,7312 -35,7263 2,7237 40,7224 110,7210 217,7165 320,7103 374,7069 373,7062 362,7058 363,7058 360,7062 356,7101 387,7189 444,7221 504,7200 542,7151 580,7113 575,7116 571,7145 580,7209 601,7231 " style="fill: white; stroke: black; stroke-width: 30" />
<polyline points="487,6815 489,6813 511,6819 576,6833 689,6860 " style="fill: white; stroke: black; stroke-width: 30" />
<polyline points="951,7179 970,7096 982,7051 1018,7051 1085,7103 1160,7170 1204,7196 1226,7163 1235,7073 " style="fill: white; stroke: black; stroke-width: 30" />
<polyline points="1388,7057 1392,7057 1390,7055 1403,7002 1427,6950 1456,6906 1477,6888 1505,6892 1555,6907 1580,6922 1585,6931 1580,6939 1582,6946 1586,6958 1592,6961 1592,6954 1586,6945 1578,6934 1571,6930 1576,6933 1577,6938 1588,6956 1619,7017 1663,7059 1737,7058 1798,7032 1832,6986 1830,6976 1827,6978 1839,6982 1840,6997 1843,7048 1862,7097 1862,7147 " style="fill: white; stroke: black; stroke-width: 30" />
<polyline points="2127,6835 2160,6905 2165,7012 2154,7095 2188,7116 2245,7095 2345,7028 2445,6935 2492,6850 2461,6791 2404,6763 2373,6760 2376,6766 2399,6820 2422,6916 2456,7025 2507,7129 2582,7251 2647,7407 2668,7586 2609,7763 2460,7914 2287,7964 2153,7883 2092,7712 2132,7505 2310,7262 2545,6817 " style="fill: white; stroke: black; stroke-width: 30" />
<polyline points="-1890,8799 -1900,8797 -1908,8808 -1882,8888 -1833,9068 -1797,9242 -1761,9325 -1748,9329 -1761,9266 -1806,9115 -1873,8944 -1929,8791 -1947,8742 -1938,8748 -1925,8770 -1892,8894 -1818,9039 -1710,9119 -1602,9122 -1475,9025 -1371,8876 -1301,8730 " style="fill: white; stroke: black; stroke-width: 30" />
<polyline points="-1346,8857 -1319,9037 " style="fill: white; stroke: black; stroke-width: 30" />
<polyline points="-857,8729 -948,8727 -1047,8756 -1102,8788 -1080,8827 -968,8889 -858,8956 -817,9040 -795,9141 -827,9210 -891,9233 -996,9214 -1018,9157 -1032,8871 " style="fill: white; stroke: black; stroke-width: 30" />
<polyline points="-392,8894 -270,8933 -208,9007 -205,9094 -231,9168 -246,9190 " style="fill: white; stroke: black; stroke-width: 30" />
<polyline points="632,8544 604,8530 605,8526 642,8503 766,8459 939,8421 1095,8395 " style="fill: white; stroke: black; stroke-width: 30" />
<polyline points="658,8492 623,8567 604,8699 556,8870 585,8962 698,8999 909,8969 1091,8730 " style="fill: white; stroke: black; stroke-width: 30" />
<polyline points="1408,8429 1384,8434 1384,8434 1380,8463 1360,8614 " style="fill: white; stroke: black; stroke-width: 30" />
<polyline points="2359,8613 " style="fill: white; stroke: black; stroke-width: 30" />
<polyline points="2373,8331 2396,8272 2480,8480 2555,8706 2665,8857 " style="fill: white; stroke: black; stroke-width: 30" />
<polyline points="3579,8161 3617,8123 3599,8119 3559,8109 3472,8137 3341,8229 3229,8381 3198,8519 3288,8622 3486,8673 " style="fill: white; stroke: black; stroke-width: 30" />
<polyline points="3958,8766 3992,8696 4042,8549 4141,8337 4214,8132 4229,8021 4200,7988 4185,7977 4194,7986 4238,8068 4291,8245 4341,8415 4409,8532 4459,8590 4481,8587 4488,8553 " style="fill: white; stroke: black; stroke-width: 30" />
<polyline points="3985,8416 3956,8412 3987,8397 4090,8355 4252,8312 4408,8277 4556,8227 " style="fill: white; stroke: black; stroke-width: 30" />
<polyline points="4683,8081 4611,8054 4521,8037 4434,8037 4400,8063 4407,8138 4458,8284 4526,8413 4558,8501 4516,8558 4425,8591 4289,8600 4232,8565 " style="fill: white; stroke: black; stroke-width: 30" />
<polyline points="4888,7902 4898,7896 4890,7894 4894,7881 4885,7885 4891,7879 4910,7872 4910,7872 4913,7872 4902,7879 4909,7878 4923,7876 4930,7900 4947,7933 4943,8026 4921,8148 " style="fill: white; stroke: black; stroke-width: 30" />
<polyline points="4588,7986 4651,7995 " style="fill: white; stroke: black; stroke-width: 30" />
<polyline points="8760,12910 " style="fill: white; stroke: black; stroke-width: 30" />
<polyline points="-1017,5245 -1043,5249 -1061,5248 -1070,5247 -1065,5246 " style="fill: white; stroke: black; stroke-width: 30" />

</svg>