<?xml version="1.0" standalone="no"?>
<!DOCTYPE svg PUBLIC "-//W3C//DTD SVG 1.1//EN" "http://www.w3.org/Graphics/SVG/1.1/DTD/svg11.dtd">
<svg width="210mm" height="297mm" viewBox="-7000 500 14000 20000" version="1.1" xmlns="http://www.w3.org/2000/svg">

<polyline points="5552,4976 " style="fill: white; stroke: black; stroke-width: 30" />
<polyline points="-384,4208 -386,4232 -396,4301 -411,4423 -428,4555 -424,4666 -411,4735 -393,4754 -381,4741 -368,4675 -392,4572 -425,4427 -448,4257 -453,4132 -439,4077 -418,4053 -398,4049 -381,4059 -365,4066 -361,4067 -365,4068 -369,4065 -375,4060 -379,4057 -382,4053 -382,4049 -381,4050 -381,4049 -379,4048 -377,4053 -371,4058 -366,4067 " style="fill: white; stroke: black; stroke-width: 30" />
<polyline points="-226,4152 -156,4164 -152,4178 " style="fill: white; stroke: black; stroke-width: 30" />
<polyline points="-96,4523 -79,4571 -64,4602 -62,4610 -70,4598 -84,4534 -80,4450 -57,4386 -15,4340 17,4334 61,4348 105,4368 140,4388 170,4409 194,4429 220,4439 257,4431 294,4404 309,4391 303,4390 277,4406 224,4450 196,4491 206,4534 242,4568 286,4572 318,4550 337,4499 334,4448 335,4427 346,4426 387,4432 438,4453 465,4482 467,4489 468,4478 489,4460 541,4442 596,4461 630,4512 645,4548 661,4556 " style="fill: white; stroke: black; stroke-width: 30" />
<polyline points="777,4502 788,4480 801,4452 827,4436 869,4428 933,4434 962,4247 " style="fill: white; stroke: black; stroke-width: 30" />
<polyline points="-363,5188 -374,5272 -381,5341 -380,5381 -375,5380 -332,5337 -245,5217 -188,5102 -155,5032 -147,5018 -150,5032 -154,5089 -154,5149 -134,5188 -94,5210 -22,5227 36,5255 67,5273 90,5275 125,5265 172,5243 204,5235 234,5245 " style="fill: white; stroke: black; stroke-width: 30" />
<polyline points="423,5146 436,5107 455,5074 495,5067 547,5107 579,5172 579,5243 539,5299 485,5320 442,5304 419,5272 422,5242 440,5230 488,5246 543,5278 593,5299 635,5300 687,5276 741,5247 785,5231 811,5233 830,5251 844,5273 862,5284 882,5296 909,5317 " style="fill: white; stroke: black; stroke-width: 30" />
<polyline points="-304,6055 -266,6108 -235,6156 -231,6190 -253,6207 -297,6223 -343,6213 -377,6147 -343,6076 -223,6031 -86,6000 40,5988 135,6005 181,6054 199,6124 203,6195 201,6231 209,6231 " style="fill: white; stroke: black; stroke-width: 30" />
<polyline points="263,5759 256,5735 243,5731 239,5734 248,5754 298,5769 413,5746 506,5722 533,5708 523,5706 513,5735 481,5827 451,5943 451,6028 465,6075 502,6100 560,6115 648,6091 737,6026 796,5947 807,5913 793,5917 752,5955 726,6003 727,6032 760,6043 835,6041 934,6013 1006,5976 1062,5931 1091,5910 1105,5917 1118,5935 1127,5968 1132,5982 1144,5979 1172,5968 " style="fill: white; stroke: black; stroke-width: 30" />
<polyline points="1529,5867 1517,5842 1491,5834 1437,5847 1360,5884 1317,5932 1324,5979 1369,6029 1445,6054 1518,6038 1603,5984 1666,5933 1675,5919 1647,5938 1587,5990 1544,6031 1542,6055 1549,6066 1583,6086 1622,6105 1664,6107 1715,6078 " style="fill: white; stroke: black; stroke-width: 30" />
<polyline points="1680,5980 1674,5978 1675,5975 1687,5970 1734,5959 1788,5944 1808,5928 1811,5919 1807,5918 1802,5917 1807,5917 1814,5914 1813,5906 1819,5891 1813,5890 1813,5890 " style="fill: white; stroke: black; stroke-width: 30" />
<polyline points="-1955,3447 -1972,3433 -1946,3433 -1852,3432 -1676,3414 -1385,3394 -978,3383 -490,3376 38,3362 541,3374 1026,3410 1460,3444 1804,3467 2011,3473 2095,3466 2099,3462 " style="fill: white; stroke: black; stroke-width: 30" />
<polyline points="-1212,1654 -1198,1614 -1182,1562 -1180,1531 -1182,1518 -1186,1522 -1201,1573 -1239,1678 -1274,1781 -1262,1839 -1214,1866 -1121,1863 -1022,1834 -950,1802 -910,1772 -895,1755 -898,1755 -909,1767 -924,1805 -923,1843 -913,1874 -895,1905 -865,1920 -822,1907 " style="fill: white; stroke: black; stroke-width: 30" />
<polyline points="-1029,1418 -1070,1375 -1072,1380 -1066,1385 -1024,1398 -953,1418 -855,1445 -736,1454 -640,1451 -608,1452 -608,1462 -621,1504 -657,1606 -695,1741 -700,1835 -683,1881 -668,1875 -623,1812 -582,1759 -564,1759 -556,1803 -570,1877 -593,1932 -615,1947 -643,1934 -672,1908 -676,1899 -663,1907 -612,1924 -531,1923 -462,1902 -435,1888 -440,1887 -454,1902 -454,1930 -427,1941 -378,1935 -320,1915 -275,1889 -250,1859 -241,1837 -241,1823 -240,1820 -238,1823 -228,1831 -209,1847 -186,1861 " style="fill: white; stroke: black; stroke-width: 30" />
<polyline points="657,1706 632,1695 607,1722 577,1789 556,1868 566,1915 600,1926 " style="fill: white; stroke: black; stroke-width: 30" />
<polyline points="830,1717 796,1719 729,1754 664,1822 646,1879 676,1919 754,1937 863,1924 952,1885 1022,1825 1072,1757 1095,1705 1098,1676 1101,1655 1103,1641 1104,1635 1102,1637 1092,1668 1063,1754 1055,1831 1070,1876 1097,1902 1130,1934 1155,1977 1190,2028 " style="fill: white; stroke: black; stroke-width: 30" />
<polyline points="2125,3864 2127,3865 2136,3889 2179,3922 2231,3967 2295,4021 2331,4095 2318,4206 2259,4333 2165,4459 2095,4571 2073,4681 2088,4792 2128,4889 2177,4965 2218,5035 2242,5069 2247,5070 2250,5066 2246,5067 2252,5057 2249,5042 2250,5037 2254,5036 2258,5035 2263,5037 2268,5039 2276,5039 2282,5042 2278,5044 2270,5047 2259,5067 2250,5109 2247,5179 2237,5285 2232,5415 2245,5569 2269,5731 2278,5863 2258,5956 2196,6026 2136,6057 2090,6063 " style="fill: white; stroke: black; stroke-width: 30" />
<polyline points="3154,4525 3101,4543 2993,4604 2907,4679 2877,4729 2883,4777 2922,4832 2984,4869 3036,4883 3070,4871 3090,4845 3108,4815 3124,4796 3139,4785 3149,4782 3146,4791 3140,4806 3139,4813 3142,4810 3154,4789 3176,4764 3194,4755 3207,4752 3218,4764 3252,4780 3267,4791 3268,4799 3263,4810 3236,4833 3224,4834 3210,4819 3203,4785 3206,4751 3216,4735 3229,4722 3245,4713 3275,4694 " style="fill: white; stroke: black; stroke-width: 30" />
<polyline points="3318,4515 3333,4505 3414,4505 3527,4536 3609,4590 3631,4660 3595,4732 3554,4784 3532,4808 3520,4820 3519,4822 3518,4820 3525,4809 3551,4783 3605,4751 3640,4758 3672,4778 3692,4806 3705,4817 3709,4815 3710,4813 3710,4813 3714,4817 3724,4832 3735,4848 3739,4868 3724,4906 3696,4964 3651,5039 3623,5097 3588,5156 3570,5202 3564,5211 3565,5194 3617,5111 3713,4978 3798,4890 3864,4863 3905,4865 3909,4880 3886,4918 3861,4941 3840,4952 3832,4956 3832,4956 3840,4955 3865,4961 3917,4978 3996,4978 4053,4964 4069,4948 4052,4947 4038,4944 4006,4956 3997,4971 " style="fill: white; stroke: black; stroke-width: 30" />
<polyline points="-977,2562 -950,2611 -970,2644 -1019,2664 -1057,2666 -1100,2641 " style="fill: white; stroke: black; stroke-width: 30" />
<polyline points="-896,2092 -900,2109 -926,2161 -994,2235 -1064,2306 -1092,2338 -1078,2346 -1006,2385 -924,2442 -894,2519 -926,2598 -965,2649 -967,2662 " style="fill: white; stroke: black; stroke-width: 30" />
<polyline points="-250,2234 -264,2226 -276,2225 -286,2261 -313,2371 -345,2480 -362,2559 -356,2602 -337,2611 -296,2585 " style="fill: white; stroke: black; stroke-width: 30" />
<polyline points="-122,2295 -100,2257 -110,2258 -140,2310 -182,2412 -215,2501 -228,2563 -231,2594 -231,2593 -235,2580 -254,2527 -259,2459 -256,2417 -250,2412 -236,2423 -203,2448 -159,2464 -76,2456 20,2432 74,2424 81,2427 78,2441 64,2478 54,2511 59,2517 99,2512 180,2499 224,2513 214,2558 168,2625 121,2676 " style="fill: white; stroke: black; stroke-width: 30" />
<polyline points="424,2558 359,2627 293,2712 256,2782 244,2824 248,2829 272,2799 346,2690 438,2548 510,2479 545,2458 551,2466 536,2506 485,2548 436,2564 412,2559 405,2554 412,2555 446,2569 511,2578 577,2577 610,2578 607,2582 600,2598 606,2614 628,2616 668,2599 714,2570 730,2548 731,2537 743,2528 777,2510 830,2502 817,2254 " style="fill: white; stroke: black; stroke-width: 30" />
<polyline points="985,2429 975,2414 975,2415 987,2446 986,2514 964,2586 924,2645 877,2679 849,2672 839,2633 850,2608 879,2594 939,2592 1033,2586 1158,2549 1270,2484 1343,2401 1360,2353 1336,2341 1289,2374 1204,2453 1153,2524 1150,2561 1169,2567 1233,2546 1289,2525 1306,2528 1297,2565 1279,2604 1275,2621 1279,2617 1281,2609 1269,2606 1232,2623 1209,2653 1217,2672 1247,2681 1322,2664 1385,2615 1434,2537 1453,2490 1445,2465 1440,2459 1441,2461 1438,2464 1435,2473 1419,2497 1411,2517 1398,2548 1391,2582 1385,2612 1383,2633 1385,2645 1388,2647 1400,2638 1455,2611 1533,2591 1584,2597 1606,2612 1610,2629 1601,2645 1589,2664 1559,2696 1546,2714 1558,2716 " style="fill: white; stroke: black; stroke-width: 30" />
<polyline points="1795,2586 1809,2620 1802,2644 1787,2676 1769,2705 1757,2717 1756,2727 1756,2741 1767,2767 1810,2802 1866,2816 1900,2805 1911,2782 1921,2739 1925,2694 1929,2640 1945,2591 1962,2565 " style="fill: white; stroke: black; stroke-width: 30" />
<polyline points="4154,7117 " style="fill: white; stroke: black; stroke-width: 30" />
<polyline points="3836,7035 " style="fill: white; stroke: black; stroke-width: 30" />
<polyline points="3860,7022 " style="fill: white; stroke: black; stroke-width: 30" />
<polyline points="-2963,7395 -2975,7374 -2981,7377 -2990,7394 -3012,7472 -3018,7598 -3002,7730 -2977,7822 -2924,7874 -2844,7876 " style="fill: white; stroke: black; stroke-width: 30" />
<polyline points="-2640,7678 -2656,7679 -2660,7697 -2677,7739 -2671,7777 -2647,7799 -2594,7807 -2532,7784 -2474,7750 -2462,7704 -2466,7665 -2490,7640 -2504,7640 " style="fill: white; stroke: black; stroke-width: 30" />
<polyline points="-2189,7649 -2193,7625 -2206,7589 -2218,7568 -2242,7566 -2270,7597 -2311,7659 -2316,7711 -2288,7745 -2237,7758 -2185,7755 -2137,7727 -2117,7689 -2120,7635 -2126,7610 -2139,7610 -2134,7615 -2111,7626 -2076,7639 -2042,7658 -2021,7702 -2011,7788 -2003,7883 -2005,7971 -2012,8039 -2018,8065 -2033,8037 -2038,7916 -2016,7771 -1978,7662 -1934,7600 -1904,7575 -1899,7581 -1915,7602 -1949,7619 -1980,7638 -2001,7648 -2008,7649 -2011,7644 -2014,7641 " style="fill: white; stroke: black; stroke-width: 30" />
<polyline points="-700,7422 -723,7456 -705,7482 -643,7510 -568,7536 -507,7577 -477,7643 -491,7725 -532,7811 -588,7875 -646,7901 -678,7871 -690,7776 -657,7672 -589,7583 -499,7517 -398,7469 -318,7433 -290,7417 -302,7417 -326,7419 -359,7435 -402,7469 -417,7499 -412,7537 -369,7571 -312,7601 -243,7624 -153,7625 -58,7607 " style="fill: white; stroke: black; stroke-width: 30" />
<polyline points="-44,7440 -67,7482 -46,7522 11,7569 79,7627 130,7723 152,7837 144,7930 114,7987 59,7999 -6,7937 -30,7826 10,7733 104,7639 214,7553 329,7480 393,7441 389,7436 353,7462 292,7521 261,7575 277,7607 325,7612 409,7579 478,7538 508,7511 518,7511 530,7540 547,7582 563,7598 " style="fill: white; stroke: black; stroke-width: 30" />
<polyline points="1590,7188 1565,7160 1529,7148 1474,7162 1424,7220 1395,7306 1381,7407 1355,7506 1337,7571 1317,7597 1299,7587 1291,7543 1293,7497 1335,7476 1411,7458 1536,7436 1640,7414 1719,7386 1731,7372 1701,7381 1652,7416 1587,7471 1586,7514 1610,7540 1689,7552 1800,7542 1907,7523 1966,7512 1982,7505 1972,7495 1965,7482 1972,7473 1980,7462 1992,7447 2002,7425 2022,7394 2043,7355 2059,7330 2074,7316 2069,7315 2070,7317 2071,7316 2066,7317 2065,7320 2062,7321 2058,7320 2059,7322 2056,7321 2055,7321 2052,7323 2051,7322 2055,7319 2057,7321 2055,7321 2057,7320 2059,7321 2052,7320 2055,7319 2054,7320 2041,7317 2020,7305 1999,7305 1990,7311 1988,7330 " style="fill: white; stroke: black; stroke-width: 30" />
<polyline points="2085,7315 2085,7302 2068,7305 2029,7343 1962,7415 1899,7486 1837,7539 1811,7563 1808,7556 1837,7481 1874,7376 1908,7312 1916,7296 1921,7301 1913,7330 1918,7376 1941,7422 1969,7454 2014,7465 2079,7447 2152,7392 2209,7338 2219,7313 2211,7317 2187,7347 2119,7415 2106,7465 2124,7492 2194,7502 2262,7492 2292,7490 2294,7497 2288,7525 2295,7550 2502,7349 2489,7395 2500,7424 2528,7439 2565,7430 2601,7400 2623,7374 2605,7370 2547,7381 2481,7410 2457,7452 2456,7497 2480,7534 2550,7544 2660,7513 2822,7446 3018,7330 3194,7170 3283,7064 3272,7025 3221,7049 3128,7131 3067,7221 3049,7301 3058,7367 3075,7405 3129,7404 3200,7373 3304,7308 3369,7253 3395,7221 3384,7229 3375,7242 3336,7280 3311,7323 3308,7371 3346,7424 3437,7473 3572,7477 3688,7442 3734,7401 3721,7390 3678,7385 3617,7386 3575,7395 3556,7427 " style="fill: white; stroke: black; stroke-width: 30" />
<polyline points="-2834,8609 -2815,8591 -2795,8594 -2750,8638 -2724,8711 -2707,8775 -2696,8815 " style="fill: white; stroke: black; stroke-width: 30" />
<polyline points="-2763,8079 -2735,8098 -2687,8122 -2642,8167 -2620,8223 -2636,8270 -2660,8298 -2695,8294 -2712,8268 -2714,8219 -2685,8179 -2634,8163 " style="fill: white; stroke: black; stroke-width: 30" />
<polyline points="-2431,8696 -2436,8735 -2436,8716 -2419,8652 -2381,8593 -2327,8566 -2271,8592 -2243,8660 -2221,8737 -2205,8783 -2183,8781 -2120,8729 -2031,8656 -1947,8557 -1851,8415 -1762,8250 -1733,8197 -1745,8232 -1774,8365 -1809,8553 -1840,8701 -1856,8765 -1853,8764 -1842,8703 -1819,8633 -1785,8593 -1724,8576 -1665,8570 -1610,8572 -1599,8577 -1601,8595 -1609,8620 -1602,8642 -1576,8660 -1514,8686 -1458,8685 -1435,8676 -1435,8667 -1430,8646 -1421,8614 " style="fill: white; stroke: black; stroke-width: 30" />
<polyline points="-966,8462 -977,8419 -1029,8363 -1104,8328 -1163,8330 -1191,8353 -1173,8412 -1127,8516 -1058,8621 -1003,8738 -977,8828 -973,8881 -1002,8903 -1053,8892 -1135,8806 -1184,8683 -1169,8572 " style="fill: white; stroke: black; stroke-width: 30" />
<polyline points="-782,8505 -788,8579 -787,8622 -776,8622 -756,8588 -716,8505 -681,8426 -658,8375 -642,8353 -594,8333 -511,8326 -438,8348 -398,8402 -390,8480 -390,8546 -388,8574 -381,8561 -369,8483 -364,8354 -371,8184 -367,8070 -364,8055 -364,8060 -348,8082 -308,8101 -228,8091 -127,8056 -58,8032 -41,8036 -29,8090 -51,8197 -92,8345 -138,8464 -186,8536 -208,8548 -225,8523 -221,8473 -195,8421 -150,8390 -88,8371 -22,8366 14,8355 49,8334 80,8313 110,8304 148,8303 208,8319 243,8355 225,8420 150,8502 97,8566 40,8585 16,8567 19,8524 45,8467 97,8431 172,8413 273,8397 392,8379 510,8350 590,8311 " style="fill: white; stroke: black; stroke-width: 30" />
<polyline points="231,7960 248,7966 247,7972 253,7974 320,7987 424,8009 573,8037 " style="fill: white; stroke: black; stroke-width: 30" />
<polyline points="1030,7935 970,7939 941,7994 906,8125 869,8293 836,8445 816,8509 798,8511 790,8456 787,8390 832,8318 898,8263 1030,8228 " style="fill: white; stroke: black; stroke-width: 30" />
<polyline points="-1350,9292 -1388,9303 -1446,9301 -1522,9295 -1590,9299 -1623,9323 -1645,9395 -1640,9488 -1614,9588 -1551,9695 -1461,9797 -1342,9888 -1180,9943 -1026,9958 -897,9948 -783,9729 " style="fill: white; stroke: black; stroke-width: 30" />
<polyline points="-373,9850 -417,9925 -516,10015 -631,10095 -709,10131 -704,10127 " style="fill: white; stroke: black; stroke-width: 30" />
<polyline points="534,9352 558,9348 572,9391 589,9507 602,9657 607,9773 606,9840 609,9860 605,9856 621,9814 664,9698 701,9543 737,9422 747,9361 740,9348 731,9366 711,9459 700,9555 724,9632 779,9685 876,9687 988,9657 1074,9614 1131,9594 1130,9597 1128,9645 1110,9738 1122,9804 1142,9836 1226,9840 1323,9820 1404,9800 1431,9800 1437,9805 1432,9821 1440,9837 1454,9841 1521,9827 1599,9798 1662,9770 1705,9758 1715,9754 1706,9758 1697,9783 1659,9854 1623,9933 1586,10022 1587,10089 1586,10150 " style="fill: white; stroke: black; stroke-width: 30" />
<polyline points="2790,9277 2755,9329 2709,9455 2652,9613 2635,9755 2610,9871 2588,9940 2567,9964 2548,9937 2523,9829 2515,9677 2502,9530 2510,9387 2523,9266 2567,9175 2643,9136 2743,9146 2857,9223 2949,9372 2975,9557 2941,9741 2873,9899 2770,10003 2631,10042 2497,10014 2411,9938 2379,9852 2384,9549 " style="fill: white; stroke: black; stroke-width: 30" />
<polyline points="3299,9511 3320,9540 3322,9584 3341,9646 3340,9739 3314,9825 3256,9886 3146,9922 3030,9919 2951,9876 2908,9821 2913,9752 3008,9660 3142,9597 3276,9582 3383,9614 3422,9686 3426,9777 3410,9871 3398,9952 3415,9990 3486,9951 3589,9837 3689,9690 3771,9543 3808,9444 3810,9409 3795,9423 3763,9506 3720,9635 3685,9777 3668,9907 3647,9988 3627,10012 3631,9993 3664,9890 3683,9764 3744,9659 3797,9593 3908,9553 4017,9565 4098,9622 4154,9684 4164,9747 4165,9777 4158,9793 4151,9794 4146,9788 4143,9756 4146,9710 4160,9657 4197,9615 4235,9598 4280,9620 4341,9679 4371,9786 4360,9892 4299,9983 4211,10049 4142,10067 4129,10058 4131,10028 4192,9960 4294,9907 4424,9891 4538,9935 4628,10008 4662,10111 " style="fill: white; stroke: black; stroke-width: 30" />
<polyline points="1922,10216 1913,10278 1897,10402 1873,10563 1860,10732 1862,10891 1900,11029 1986,11162 2058,11278 2091,11373 2074,11445 2017,11492 1913,11520 1715,11521 1450,11491 1171,11443 963,11407 815,11370 727,11343 " style="fill: white; stroke: black; stroke-width: 30" />
<polyline points="1583,10054 1666,10056 1757,10076 1845,10114 1996,10154 " style="fill: white; stroke: black; stroke-width: 30" />
<polyline points="1100,11003 974,11089 822,11202 741,11299 742,11379 812,11451 939,11514 1135,11547 " style="fill: white; stroke: black; stroke-width: 30" />
<polyline points="-3019,11082 -2998,11040 -2978,11009 -2955,10998 -2918,11017 -2881,11077 -2852,11180 -2849,11291 -2851,11383 -2846,11440 -2849,11450 -2847,11424 -2859,11322 -2865,11179 -2876,11031 -2879,10945 -2886,10911 -2875,10910 -2851,10923 -2767,10958 -2672,11005 -2602,11043 -2579,11073 -2602,11100 -2641,11145 -2680,11191 -2679,11225 -2637,11272 -2572,11354 -2527,11433 -2529,11494 -2577,11542 -2637,11569 -2682,11561 -2716,11517 -2692,11452 -2610,11369 -2505,11287 -2400,11232 -2326,11212 -2273,11250 -2254,11328 -2248,11415 -2246,11472 -2252,11480 -2248,11459 -2251,11358 " style="fill: white; stroke: black; stroke-width: 30" />
<polyline points="-2232,11021 -2232,10932 -2239,10916 -2244,10917 -2254,10925 -2259,10961 -2229,11043 " style="fill: white; stroke: black; stroke-width: 30" />
<polyline points="-1906,11298 -1931,11289 -1979,11269 -2010,11257 -2035,11271 -2031,11300 -1981,11358 -1920,11420 -1872,11503 -1873,11590 -1907,11661 -1946,11679 -1957,11674 -1997,11616 -2016,11497 -2011,11405 " style="fill: white; stroke: black; stroke-width: 30" />
<polyline points="-2551,11941 -2524,11938 -2503,11997 -2501,12109 -2517,12245 -2521,12350 -2533,12400 -2531,12399 -2563,12341 -2623,12247 -2667,12175 -2671,12149 -2673,12128 -2635,12108 -2548,12099 -2476,12114 -2393,12137 -2320,12144 -2254,12142 -2202,12175 -2176,12243 -2165,12336 -2175,12405 -2198,12426 -2229,12404 -2243,12322 " style="fill: white; stroke: black; stroke-width: 30" />
<polyline points="-2266,12040 -2265,11979 -2282,11959 -2297,11959 " style="fill: white; stroke: black; stroke-width: 30" />
<polyline points="-1078,11197 -1039,11279 -998,11405 -977,11553 -969,11686 -970,11789 -974,11842 -982,11847 -998,11800 -1033,11683 -1066,11503 -1070,11314 -1038,11176 -985,11113 -922,11111 -842,11177 -795,11297 -761,11430 -778,11555 -832,11648 -904,11691 -985,11673 -1053,11606 -1059,11532 -997,11471 " style="fill: white; stroke: black; stroke-width: 30" />
<polyline points="-501,11333 -446,11360 -394,11407 -357,11473 -360,11556 -389,11636 -468,11697 -538,11718 -590,11701 -608,11660 -586,11628 -558,11598 -494,11585 -420,11577 -340,11535 -266,11460 -174,11358 -102,11245 -74,11208 -85,11220 -115,11303 -162,11432 -196,11566 -209,11635 -215,11637 -210,11613 -192,11568 -161,11496 -119,11453 -67,11428 -24,11414 17,11414 40,11434 75,11462 117,11504 145,11548 163,11585 155,11602 127,11614 100,11611 80,11598 78,11582 82,11560 91,11554 150,11579 158,11636 165,11714 175,11781 147,11846 107,11900 31,11902 -45,11865 -49,11843 -33,11824 8,11774 " style="fill: white; stroke: black; stroke-width: 30" />

</svg>