<?xml version="1.0" standalone="no"?>
<!DOCTYPE svg PUBLIC "-//W3C//DTD SVG 1.1//EN" "http://www.w3.org/Graphics/SVG/1.1/DTD/svg11.dtd">
<svg width="210mm" height="297mm" viewBox="-7000 500 14000 20000" version="1.1" xmlns="http://www.w3.org/2000/svg">

<polyline points="-3287,1072 -3254,1045 -3236,1052 -3236,1106 -3281,1270 -3353,1458 -3433,1600 -3544,1688 -3669,1717 -3746,1681 -3769,1576 -3735,1420 -3690,1367 -3637,1380 -3525,1486 -3356,1679 -3195,1830 -3053,1928 -2959,1986 " style="fill: white; stroke: black; stroke-width: 30" />
<polyline points="-2153,3012 -2141,3004 -2102,2978 -2030,2921 -1912,2825 -1722,2685 -1491,2494 -1233,2286 -955,2079 -675,1874 -419,1691 -215,1526 -62,1372 46,1249 116,1150 155,1078 180,1026 188,999 189,994 190,997 189,995 188,995 188,999 186,997 185,996 187,1001 187,999 187,998 186,1000 186,997 185,994 186,995 187,990 188,984 188,986 189,986 188,985 188,1000 192,1045 216,1145 260,1321 329,1553 418,1850 520,2210 629,2578 725,2914 798,3205 854,3417 898,3579 935,3699 958,3763 959,3771 955,3772 955,3769 955,3765 959,3763 960,3757 960,3753 963,3754 967,3755 972,3766 " style="fill: white; stroke: black; stroke-width: 30" />
<polyline points="1181,1729 1160,1706 1127,1687 1069,1687 1001,1721 943,1777 921,1820 927,1841 952,1839 1013,1809 1100,1736 1174,1641 1218,1567 1227,1541 1227,1536 1222,1535 1219,1538 1209,1540 1191,1572 1167,1634 1159,1696 1166,1772 " style="fill: white; stroke: black; stroke-width: 30" />
<polyline points="1429,1701 1413,1704 1393,1727 1371,1782 1374,1821 1389,1831 1416,1822 1453,1802 1485,1769 1485,1768 1482,1776 1458,1814 1421,1896 1391,1972 1362,2035 1361,2072 " style="fill: white; stroke: black; stroke-width: 30" />
<polyline points="780,1982 816,1988 896,2000 1011,2014 1138,2044 1267,2065 1389,2077 1353,1874 " style="fill: white; stroke: black; stroke-width: 30" />
<polyline points="881,2429 899,2466 951,2478 1035,2453 1118,2395 1167,2321 1195,2235 1196,2194 1189,2175 1183,2167 1174,2162 1169,2160 1168,2163 1168,2164 1164,2175 1157,2216 1154,2275 1158,2352 1178,2424 1226,2502 1302,2545 " style="fill: white; stroke: black; stroke-width: 30" />
<polyline points="1329,2554 1323,2540 1354,2493 1405,2428 1443,2401 1461,2382 1463,2380 " style="fill: white; stroke: black; stroke-width: 30" />
<polyline points="1315,2281 1308,2278 1309,2284 1323,2329 1364,2412 1429,2500 1516,2588 " style="fill: white; stroke: black; stroke-width: 30" />
<polyline points="-3002,14383 " style="fill: white; stroke: black; stroke-width: 30" />
<polyline points="-2726,4850 -2692,4827 -2675,4832 -2648,4868 -2611,4940 -2573,5006 -2539,5055 -2527,5080 -2533,5083 " style="fill: white; stroke: black; stroke-width: 30" />
<polyline points="-2679,4998 -2771,4962 -2835,4949 -2861,4953 -2866,4956 -2854,4957 -2812,4965 -2743,4970 -2665,4981 -2585,5015 " style="fill: white; stroke: black; stroke-width: 30" />
<polyline points="-2369,5055 -2402,5033 -2430,5004 -2476,4998 -2531,5029 -2565,5078 -2555,5112 -2513,5134 -2445,5118 -2354,5049 -2295,4974 -2272,4913 -2269,4883 -2277,4888 -2289,4906 -2302,4977 -2312,5039 -2301,5091 -2263,5126 -2215,5137 " style="fill: white; stroke: black; stroke-width: 30" />
<polyline points="-2178,5210 -2228,5225 -2253,5215 -2252,5182 -2225,5143 -2184,5121 -2151,5119 -2114,5127 -2066,5152 -2013,5204 -1977,5282 -1980,5355 -2005,5406 -2029,5435 -2036,5442 -2038,5439 -2035,5397 -2022,5275 -2014,5133 -2000,5064 -1983,5046 -1952,5050 -1911,5067 -1858,5102 -1838,5134 -1846,5156 -1906,5179 -1977,5179 -2014,5153 -2012,5104 -1970,5039 -1902,4991 -1829,4965 -1764,4952 -1693,4929 -1639,4898 -1624,4880 -1628,4878 -1634,4881 -1653,4913 -1689,4998 -1733,5114 -1774,5190 -1796,5230 -1794,5230 -1778,5195 -1721,5123 -1672,5091 -1637,5091 -1620,5106 -1599,5126 -1584,5152 -1576,5161 -1571,5166 -1577,5172 -1586,5187 -1589,5185 " style="fill: white; stroke: black; stroke-width: 30" />
<polyline points="-1422,5126 -1403,5114 -1377,5082 -1378,5059 -1413,5050 -1459,5082 -1480,5134 -1468,5184 -1424,5214 -1371,5223 -1317,5196 -1280,5141 -1246,5065 -1228,5021 -1193,4979 -1125,4936 -1060,4887 -1017,4821 -1004,4785 -1010,4785 -1042,4826 -1113,4953 -1167,5082 -1182,5169 -1188,5210 -1183,5199 -1164,5127 -1147,5082 -1118,5053 -1079,5034 " style="fill: white; stroke: black; stroke-width: 30" />
<polyline points="1017,4918 1011,4932 992,4996 942,5143 881,5317 823,5449 760,5518 697,5551 652,5558 637,5551 635,5523 652,5404 690,5280 689,5017 " style="fill: white; stroke: black; stroke-width: 30" />
<polyline points="1645,4972 1636,4965 1633,4973 1615,5023 1558,5143 1495,5251 1464,5326 1419,5139 " style="fill: white; stroke: black; stroke-width: 30" />
<polyline points="1881,5040 1861,5035 1826,5067 1753,5156 1666,5271 1612,5352 1587,5389 1583,5384 1585,5332 1596,5242 1625,5148 1638,5121 1646,5121 1661,5140 1691,5160 1743,5179 1800,5187 1856,5176 1875,5170 1866,5177 1834,5196 1811,5221 1801,5255 1799,5268 1802,5283 1807,5305 1809,5318 1810,5320 1819,5318 1837,5297 1874,5244 1894,5199 1896,5178 1871,5162 1854,5161 1854,5166 1859,5190 1904,5203 " style="fill: white; stroke: black; stroke-width: 30" />
<polyline points="1941,5360 1919,5363 1929,5357 1953,5338 2055,5253 2186,5178 2290,5130 2337,5111 2327,5112 2303,5135 2266,5184 2210,5253 2167,5311 2145,5347 2146,5349 2159,5343 2204,5291 2251,5228 2274,5196 2287,5185 2294,5183 2312,5186 2335,5189 2367,5193 2389,5202 2398,5218 2395,5253 2372,5310 2335,5355 2290,5369 2262,5364 2261,5344 2273,5321 2302,5299 2324,5302 2345,5320 2378,5349 2422,5361 2479,5346 2539,5317 2596,5277 2597,5267 2583,5272 2563,5289 2547,5306 2560,5308 2560,5308 2558,5307 2556,5309 2545,5312 2521,5328 2523,5335 2535,5352 2564,5382 2577,5437 2566,5504 2536,5545 2511,5572 2490,5587 2481,5594 2466,5606 2459,5601 2459,5584 2468,5548 2514,5478 2577,5415 2621,5386 2661,5359 2687,5349 2720,5345 2755,5355 2791,5362 2835,5350 2856,5332 2842,5319 2831,5309 2809,5314 2792,5326 2793,5352 2806,5401 2840,5452 2803,5303 " style="fill: white; stroke: black; stroke-width: 30" />
<polyline points="1917,4124 1887,4150 1843,4239 1783,4357 " style="fill: white; stroke: black; stroke-width: 30" />
<polyline points="2112,3428 2047,3544 1992,3669 1965,3781 1875,3657 " style="fill: white; stroke: black; stroke-width: 30" />
<polyline points="1920,3545 1901,3525 1910,3518 1970,3504 2097,3477 2240,3455 2321,3455 " style="fill: white; stroke: black; stroke-width: 30" />
<polyline points="2205,3603 2229,3646 2230,3696 2224,3737 2207,3787 2185,3842 2175,3892 2179,3909 2218,3885 " style="fill: white; stroke: black; stroke-width: 30" />
<polyline points="2307,3760 2310,3764 2308,3767 2322,3766 2353,3748 2404,3718 2450,3708 2467,3720 2475,3765 2469,3844 2463,3913 2479,3951 " style="fill: white; stroke: black; stroke-width: 30" />
<polyline points="2729,3509 2701,3498 2731,3495 2822,3502 2944,3520 3018,3534 3004,3544 " style="fill: white; stroke: black; stroke-width: 30" />
<polyline points="2603,3622 2590,3634 2614,3653 2680,3665 2829,3720 2854,3756 2876,3794 2875,3829 2870,3868 2848,3904 2852,3906 2860,3901 " style="fill: white; stroke: black; stroke-width: 30" />
<polyline points="3206,3724 3175,3729 3164,3729 3154,3744 3138,3804 3120,3871 3085,3926 3019,3949 2981,3946 2980,3942 3000,3907 3125,3808 " style="fill: white; stroke: black; stroke-width: 30" />
<polyline points="3285,3936 3293,3940 3310,3957 3365,3977 3424,3983 3456,3969 3495,3949 3515,3938 3541,3933 3555,3934 3543,3920 3489,3915 3449,3929 3426,3964 3434,4000 3464,4045 3542,4082 3611,4088 3654,4072 3703,4042 3721,4039 3745,4040 " style="fill: white; stroke: black; stroke-width: 30" />
<polyline points="1974,4067 2108,4061 2410,4073 2884,4131 " style="fill: white; stroke: black; stroke-width: 30" />
<polyline points="5087,9610 " style="fill: white; stroke: black; stroke-width: 30" />
<polyline points="1925,7415 " style="fill: white; stroke: black; stroke-width: 30" />

</svg>