<?xml version="1.0" standalone="no"?>
<!DOCTYPE svg PUBLIC "-//W3C//DTD SVG 1.1//EN" "http://www.w3.org/Graphics/SVG/1.1/DTD/svg11.dtd">
<svg width="210mm" height="297mm" viewBox="-7000 500 14000 20000" version="1.1" xmlns="http://www.w3.org/2000/svg">

<polyline points="-81,1374 -143,1396 -227,1483 -316,1636 -389,1852 -453,2117 -496,2410 -473,2701 -374,2979 -224,3260 -63,3566 41,3910 64,4304 14,4758 -83,5251 -159,5767 -159,6273 -70,6744 74,7192 241,7612 355,8018 397,8416 389,8796 356,9128 311,9395 " style="fill: white; stroke: black; stroke-width: 30" />
<polyline points="-3822,3130 -3818,3126 -3798,3132 -3700,3141 -3512,3127 -3192,3098 -2726,3068 -2137,3041 -1439,3032 -646,3025 204,3015 958,2980 1501,2981 1894,3024 2216,3056 2514,3069 " style="fill: white; stroke: black; stroke-width: 30" />
<polyline points="712,1609 707,1581 698,1566 689,1562 678,1566 659,1603 616,1712 578,1835 585,1913 618,1946 689,1935 764,1904 794,1896 798,1913 797,1957 807,1996 837,2032 882,2048 936,2044 977,2028 1008,1981 1022,1906 1019,1827 1006,1774 996,1752 " style="fill: white; stroke: black; stroke-width: 30" />
<polyline points="1239,1968 1209,1968 1174,1934 1165,1892 1177,1865 1204,1860 1265,1896 1325,1954 1377,1994 1426,2002 1456,1981 1481,1931 1510,1875 1534,1833 1565,1802 1600,1787 1631,1784 1653,1790 " style="fill: white; stroke: black; stroke-width: 30" />
<polyline points="-2905,1693 -2895,1690 -2872,1643 -2846,1545 -2835,1442 -2836,1363 -2843,1325 -2848,1319 -2840,1354 -2831,1442 -2808,1518 -2756,1561 -2677,1580 -2576,1542 -2484,1491 -2446,1463 -2436,1465 -2435,1483 -2440,1538 -2448,1614 -2445,1675 -2418,1730 -2370,1767 -2308,1781 -2238,1765 -2175,1714 -2140,1655 -2143,1602 -2168,1590 -2211,1607 -2241,1657 -2241,1713 -2212,1761 -2157,1797 -2092,1810 -2038,1798 " style="fill: white; stroke: black; stroke-width: 30" />
<polyline points="-2044,1726 -2002,1734 -1938,1698 -1856,1624 -1797,1535 -1763,1457 -1760,1419 -1769,1415 -1789,1429 -1836,1497 -1844,1565 -1824,1617 -1778,1653 -1705,1654 -1610,1639 -1562,1640 -1549,1672 -1558,1737 -1577,1792 -1584,1822 -1581,1820 " style="fill: white; stroke: black; stroke-width: 30" />
<polyline points="-1504,1494 -1509,1440 -1517,1430 -1520,1427 " style="fill: white; stroke: black; stroke-width: 30" />
<polyline points="-1392,1517 -1398,1518 -1407,1532 -1437,1577 -1451,1644 -1454,1718 -1433,1776 -1385,1822 -1297,1853 -1204,1857 " style="fill: white; stroke: black; stroke-width: 30" />
<polyline points="793,3545 787,3539 780,3538 774,3544 771,3578 764,3653 759,3742 761,3819 771,3857 778,3866 784,3858 792,3804 792,3723 795,3619 818,3533 856,3473 890,3455 916,3470 927,3511 899,3558 837,3603 782,3620 749,3620 731,3600 744,3586 779,3585 " style="fill: white; stroke: black; stroke-width: 30" />
<polyline points="1074,3660 1109,3706 1166,3747 1240,3761 1298,3747 1322,3721 1319,3690 1304,3679 1274,3685 1249,3707 1244,3740 1261,3770 " style="fill: white; stroke: black; stroke-width: 30" />
<polyline points="1533,3462 1527,3462 1524,3462 1524,3465 1522,3469 1522,3481 1517,3516 1507,3587 1490,3697 1477,3815 1473,3905 1478,3945 1487,3952 1488,3949 1494,3921 1500,3843 1517,3722 1555,3622 1600,3575 1629,3568 1647,3589 1652,3633 1638,3673 1610,3705 1567,3734 1509,3736 1466,3715 1428,3658 1425,3609 1468,3583 " style="fill: white; stroke: black; stroke-width: 30" />
<polyline points="1819,3521 1814,3519 1808,3519 1823,3531 1851,3564 1871,3598 1879,3646 1876,3708 1843,3757 1810,3775 1780,3777 1748,3746 1742,3709 1758,3679 1787,3661 1839,3670 1881,3715 1905,3754 1926,3772 1938,3776 1950,3764 1978,3722 2018,3678 2050,3656 2066,3656 2088,3665 2119,3686 2150,3711 2187,3741 2243,3760 2313,3744 2368,3709 2394,3661 2383,3643 2335,3652 2278,3683 2251,3722 2250,3762 2283,3789 2339,3813 " style="fill: white; stroke: black; stroke-width: 30" />
<polyline points="2567,3769 2525,3753 2494,3734 2460,3719 2428,3727 2388,3755 2372,3782 2379,3803 2409,3812 2463,3804 2543,3768 2624,3705 2699,3636 2743,3586 2745,3567 2739,3565 2737,3565 2729,3570 2720,3594 2694,3658 2685,3735 2693,3799 " style="fill: white; stroke: black; stroke-width: 30" />
<polyline points="804,4436 790,4449 775,4467 770,4479 768,4491 769,4520 780,4562 789,4604 810,4625 845,4637 898,4628 927,4617 931,4615 928,4614 926,4613 925,4614 927,4614 932,4609 953,4580 970,4552 970,4545 968,4546 966,4547 962,4546 961,4547 965,4544 967,4540 969,4537 971,4523 974,4508 981,4477 993,4435 996,4414 995,4415 994,4414 994,4412 992,4415 992,4414 993,4413 992,4415 990,4414 995,4412 994,4414 994,4415 998,4416 1006,4418 1010,4416 1014,4414 1013,4416 1008,4412 1008,4393 1013,4366 1014,4346 1013,4337 1011,4339 1011,4339 1009,4340 1012,4343 1013,4341 1009,4339 1010,4339 1023,4335 1055,4323 1090,4317 1117,4320 1148,4339 1169,4385 1184,4452 1187,4519 1183,4575 1172,4595 1162,4600 1106,4594 1041,4548 996,4484 976,4433 981,4396 995,4388 " style="fill: white; stroke: black; stroke-width: 30" />
<polyline points="1430,4427 1459,4394 1476,4387 1493,4415 1518,4477 1545,4525 1573,4548 1621,4538 1695,4481 1772,4379 1813,4298 1808,4277 1797,4285 1748,4337 1679,4437 1638,4533 1624,4583 1623,4594 1624,4584 1636,4546 1654,4503 1670,4480 1704,4479 1754,4499 1802,4524 1836,4535 1879,4546 1893,4570 1889,4585 1882,4586 1881,4578 1886,4539 1900,4494 1913,4472 1932,4461 1959,4459 " style="fill: white; stroke: black; stroke-width: 30" />
<polyline points="1999,4506 1981,4570 1990,4621 2018,4636 2051,4625 2092,4579 2109,4527 2113,4505 2106,4505 2102,4513 2107,4526 2124,4530 2139,4524 2190,4488 2256,4428 2313,4352 2380,4266 2424,4209 2430,4194 2421,4201 2382,4249 2328,4331 2301,4403 2304,4466 2316,4491 2367,4494 2438,4459 2531,4394 2596,4339 2609,4318 2606,4317 2580,4342 2513,4412 2477,4476 2469,4543 2478,4583 2501,4623 " style="fill: white; stroke: black; stroke-width: 30" />
<polyline points="1061,4956 1028,4955 998,4958 974,4960 965,4961 955,4957 947,4954 936,4957 917,4966 890,5003 876,5064 884,5138 907,5206 942,5276 976,5328 990,5352 986,5359 967,5361 900,5350 840,5320 811,5286 822,5264 893,5224 1009,5169 1144,5100 1238,5044 1260,5028 1244,5034 1217,5080 1179,5160 1164,5209 1178,5231 1213,5226 1310,5176 1356,5140 1367,5133 1360,5143 1348,5208 1338,5278 1329,5338 1322,5381 1318,5415 1317,5450 " style="fill: white; stroke: black; stroke-width: 30" />
<polyline points="1732,4984 1716,4986 1703,5004 1687,5059 1677,5142 1675,5214 1678,5264 1678,5274 1675,5275 1663,5277 1651,5272 1633,5250 1645,5186 1719,5072 1807,4977 1912,4896 1968,4848 1967,4846 1958,4874 1920,4975 1869,5083 1844,5146 1842,5155 1849,5152 1865,5148 1929,5126 2018,5099 2105,5075 2144,5056 2137,5060 2100,5089 2062,5129 2057,5145 2075,5147 2126,5139 2176,5135 2189,5145 2186,5155 2191,5160 2228,5165 2273,5169 2293,5179 2294,5198 2297,5216 2305,5224 2335,5248 2377,5285 2413,5333 " style="fill: white; stroke: black; stroke-width: 30" />
<polyline points="-3147,3556 -3144,3556 -3141,3558 -3139,3578 -3143,3651 -3155,3745 -3157,3818 -3150,3853 -3145,3853 -3139,3838 -3139,3801 -3159,3750 -3192,3683 -3225,3602 -3242,3509 -3231,3442 -3200,3411 -3144,3405 -3080,3430 -3028,3474 -2986,3517 -2956,3563 -2954,3621 -2984,3673 -3034,3721 -3072,3741 -3082,3733 -3104,3700 -2791,3726 -2791,3676 -2779,3656 -2773,3654 -2744,3674 -2697,3708 -2661,3740 -2647,3761 -2648,3770 -2655,3790 -2671,3811 -2682,3826 -2690,3827 -2691,3828 -2690,3826 -2694,3816 -2698,3809 -2700,3803 -2698,3802 -2697,3805 -2695,3806 -2694,3806 -2695,3806 -2693,3796 -2694,3764 -2693,3737 -2687,3714 -2681,3714 -2671,3725 -2620,3773 -2574,3824 -2533,3880 -2522,3896 -2524,3896 -2538,3883 " style="fill: white; stroke: black; stroke-width: 30" />
<polyline points="-2769,3520 -2758,3513 -2746,3505 -2719,3500 -2670,3499 -2606,3496 -2522,3508 " style="fill: white; stroke: black; stroke-width: 30" />
<polyline points="-2431,3754 -2423,3829 -2408,3909 -2392,3960 -2386,3969 -2379,3951 -2355,3900 -2342,3848 -2328,3805 -2312,3766 -2278,3740 -2240,3726 -2208,3727 " style="fill: white; stroke: black; stroke-width: 30" />
<polyline points="-2024,3533 -2062,3652 -2078,3750 -2077,3802 -2072,3807 -2056,3800 -2013,3762 -1973,3721 -1953,3695 -1960,3690 -1982,3697 -2021,3714 -2048,3742 -2058,3777 -2056,3816 -2042,3840 -2011,3849 -1955,3832 -1885,3782 " style="fill: white; stroke: black; stroke-width: 30" />
<polyline points="-1773,3479 -1784,3443 -1790,3445 -1814,3483 -1832,3571 -1819,3673 -1784,3755 -1731,3812 -1667,3840 -1616,3831 -1586,3803 -1579,3786 -1584,3785 -1592,3795 -1614,3840 -1620,3879 -1619,3905 -1614,3906 -1605,3886 " style="fill: white; stroke: black; stroke-width: 30" />
<polyline points="-1548,3523 -1565,3460 -1571,3440 -1572,3436 " style="fill: white; stroke: black; stroke-width: 30" />
<polyline points="-3327,4531 -3303,4475 -3269,4421 -3214,4398 -3141,4422 -3058,4477 -3011,4550 -3010,4626 -3041,4690 -3088,4721 -3133,4719 -3170,4681 -3170,4657 -3166,4650 -3154,4649 -3114,4664 -3064,4689 -3011,4701 -2946,4688 -2854,4637 " style="fill: white; stroke: black; stroke-width: 30" />
<polyline points="-2680,4299 -2666,4228 -2669,4212 -2670,4226 -2692,4301 -2713,4421 -2718,4524 -2709,4601 -2703,4625 -2703,4622 -2695,4608 -2655,4559 -2589,4514 -2519,4513 -2461,4561 -2444,4629 -2465,4698 -2496,4738 -2550,4753 -2589,4740 -2602,4703 -2600,4645 -2560,4568 -2473,4470 -2381,4354 -2308,4263 -2291,4235 -2299,4245 -2317,4310 -2324,4410 -2311,4488 -2276,4549 -2230,4579 -2172,4585 -2121,4565 -2079,4527 -2071,4489 -2087,4456 -2116,4436 -2158,4438 -2183,4469 -2192,4522 -2174,4571 -2151,4606 -2111,4630 -2072,4635 -2024,4612 -1970,4557 -1927,4494 -1908,4455 -1913,4454 -1923,4471 -1939,4510 -1940,4523 -1939,4521 -1934,4519 -1932,4511 -1930,4498 -1925,4487 -1925,4480 -1925,4478 -1926,4479 -1926,4478 -1925,4477 -1924,4476 -1922,4461 -1914,4406 -1905,4361 -1901,4328 -1902,4315 -1905,4318 -1904,4319 -1908,4316 -1907,4319 -1907,4317 -1906,4312 -1909,4285 -1908,4245 -1906,4235 -1909,4234 -1908,4236 -1907,4238 " style="fill: white; stroke: black; stroke-width: 30" />
<polyline points="-1765,4560 -1783,4615 -1808,4657 -1832,4680 -1851,4681 -1876,4658 -1906,4597 -1928,4506 -1926,4448 -1825,4227 " style="fill: white; stroke: black; stroke-width: 30" />
<polyline points="-1718,4541 -1669,4533 -1586,4511 -1521,4483 -1487,4459 -1480,4434 -1486,4416 -1499,4413 -1534,4431 -1592,4485 -1611,4540 -1600,4579 -1570,4609 -1525,4619 -1473,4615 -1445,4598 -1407,4560 -1349,4499 -1284,4452 -1217,4434 -1192,4448 -1177,4494 -1156,4546 -1146,4585 -1143,4628 " style="fill: white; stroke: black; stroke-width: 30" />
<polyline points="-2603,10357 -2607,10348 -2603,10349 -2609,10356 -2602,10406 -2600,10503 -2594,10586 -2579,10635 " style="fill: white; stroke: black; stroke-width: 30" />
<polyline points="-2616,10178 -2627,10155 -2628,10145 -2625,10147 -2616,10147 -2591,10147 -2565,10150 -2551,10156 -2552,10160 -2558,10166 -2567,10169 -2580,10163 -2599,10152 -2606,10146 -2611,10143 " style="fill: white; stroke: black; stroke-width: 30" />
<polyline points="-2216,10517 -2259,10491 -2302,10464 -2348,10460 -2381,10487 -2391,10530 -2370,10559 -2318,10567 -2252,10526 -2183,10451 -2147,10383 -2145,10364 -2151,10373 -2165,10423 -2167,10486 -2155,10521 -2109,10540 -2058,10561 -2024,10581 -2010,10595 " style="fill: white; stroke: black; stroke-width: 30" />
<polyline points="-1137,10629 -1071,10627 -1012,10601 -992,10567 -991,10534 -1015,10508 -1042,10509 -1051,10519 -1049,10525 -1019,10550 -965,10581 -895,10606 -805,10618 -699,10603 -626,10575 -619,10546 -645,10509 -689,10489 -711,10490 -744,10508 -747,10541 -723,10582 -666,10600 -583,10592 -508,10569 -451,10542 -432,10520 -418,10514 -405,10508 -377,10502 -327,10292 " style="fill: white; stroke: black; stroke-width: 30" />
<polyline points="-42,10531 -36,10599 -60,10652 -95,10674 -143,10679 -202,10672 -207,10661 -207,10654 -154,10616 -72,10581 3,10546 87,10515 148,10504 160,10515 141,10547 112,10597 82,10648 80,10674 94,10677 131,10669 161,10656 179,10658 177,10678 170,10718 183,10539 " style="fill: white; stroke: black; stroke-width: 30" />
<polyline points="704,10536 679,10519 666,10504 647,10496 627,10494 611,10491 603,10488 591,10487 587,10485 587,10485 574,10502 554,10541 515,10606 511,10637 521,10654 550,10656 595,10634 680,10570 769,10492 868,10405 919,10329 931,10289 915,10284 901,10289 868,10332 833,10423 793,10529 814,10586 887,10594 969,10578 1056,10580 1121,10585 1137,10596 1135,10597 1146,10589 1198,10545 1250,10496 1272,10463 1265,10452 1241,10456 1209,10479 1222,10521 1256,10584 1325,10662 1433,10721 1563,10758 " style="fill: white; stroke: black; stroke-width: 30" />
<polyline points="2868,10279 2876,10348 2876,10429 2872,10510 2861,10570 2840,10607 2798,10631 2760,10629 2703,10596 2659,10552 2652,10530 2675,10509 2689,10269 " style="fill: white; stroke: black; stroke-width: 30" />
<polyline points="3097,10383 3121,10383 3117,10397 3076,10432 3035,10477 3002,10509 3006,10513 3027,10519 3100,10514 3164,10510 3192,10524 3209,10533 3217,10539 3219,10544 3223,10543 3218,10542 3226,10538 3262,10516 3312,10506 " style="fill: white; stroke: black; stroke-width: 30" />
<polyline points="3329,10773 3323,10745 3319,10670 3388,10554 3500,10450 3631,10373 3745,10340 3818,10346 3837,10372 3812,10407 3712,10445 3615,10449 3525,10443 3486,10435 3506,10427 3516,10223 " style="fill: white; stroke: black; stroke-width: 30" />
<polyline points="3953,10366 4010,10392 4037,10443 4028,10541 4006,10658 3966,10761 3911,10834 3865,10871 3848,10870 3864,10824 3904,10711 4001,10579 4075,10480 4158,10410 4212,10386 4244,10400 4232,10444 4184,10496 4139,10532 4091,10559 4072,10562 4073,10552 4085,10531 4116,10497 4150,10483 4217,10479 4288,10490 4359,10518 4415,10562 4478,10593 4517,10608 4550,10589 4533,10543 4488,10488 4442,10446 4417,10428 4403,10448 4404,10511 4443,10576 4502,10621 4541,10645 4587,10639 4597,10620 4588,10594 4616,10550 4594,10535 4636,10513 4636,10513 4720,10494 4806,10512 " style="fill: white; stroke: black; stroke-width: 30" />
<polyline points="-2660,10966 -2665,11062 -2658,11178 -2654,11268 -2640,11318 -2642,11324 -2637,11316 " style="fill: white; stroke: black; stroke-width: 30" />
<polyline points="-2494,11012 -2509,11051 -2518,11058 -2559,11043 -2610,10999 -2636,10956 -2637,10953 " style="fill: white; stroke: black; stroke-width: 30" />
<polyline points="-2285,11110 -2301,11103 -2320,11097 -2376,11096 -2404,11124 -2400,11179 -2344,11247 -2281,11280 -2220,11278 -2203,11250 -2210,11204 -2238,11143 -2273,11073 -2289,11051 -2301,11048 -2304,11050 " style="fill: white; stroke: black; stroke-width: 30" />
<polyline points="-2011,10917 -1992,10874 -1991,10843 -1990,10838 -1982,10842 -1995,10866 -2008,10927 -2012,11021 -1995,11108 -1949,11186 -1877,11228 -1785,11221 -1694,11168 -1628,11115 -1617,11100 -1619,11113 -1633,11165 -1643,11221 -1643,11251 -1633,11243 -1598,11182 " style="fill: white; stroke: black; stroke-width: 30" />
<polyline points="-1581,10878 -1601,10840 -1623,10828 -1628,10825 -1618,10825 " style="fill: white; stroke: black; stroke-width: 30" />
<polyline points="-1280,10950 -1317,10940 -1316,10933 -1276,10934 -1228,10961 -1196,11009 -1190,11080 -1197,11161 -1245,11228 -1281,11283 -1270,11315 -1253,11327 -1207,11300 -1153,11235 -1150,11163 -1188,11099 -1239,11099 -1281,11128 -1280,11156 -1269,11175 -1202,11172 -1122,11141 -1032,11111 -984,11098 -982,11101 -998,11111 -1010,11125 -1023,11128 -1023,11129 -1020,11124 -1011,11115 -984,11077 -959,11031 -947,10979 -947,10964 -956,10970 -992,10998 -1024,11047 -1037,11100 -1043,11162 -1001,11214 -960,11243 -902,11236 -830,11191 -761,11146 -735,11127 -732,11128 -744,11142 -759,11179 -765,11228 -755,11272 -741,11292 " style="fill: white; stroke: black; stroke-width: 30" />
<polyline points="682,10968 688,10956 667,10952 635,10950 580,10962 509,10998 442,11044 423,11110 424,11171 462,11239 507,11295 515,11335 497,11364 455,11383 393,11381 308,11346 264,11294 253,11266 292,11238 " style="fill: white; stroke: black; stroke-width: 30" />
<polyline points="810,11098 790,11116 750,11149 727,11183 719,11224 710,11255 716,11277 719,11289 730,11292 747,11290 782,11274 811,11255 838,11249 834,11256 844,11271 872,11276 870,11279 872,11278 879,11278 888,11282 878,11288 879,11310 868,11332 884,11342 895,11341 " style="fill: white; stroke: black; stroke-width: 30" />
<polyline points="1113,11664 1098,11673 1104,11664 1110,11603 1149,11484 1209,11346 1246,11245 1288,11173 1324,11136 1334,11128 1335,11133 1341,11153 1329,11193 1305,11234 1290,11268 1262,11292 1205,11303 1169,11297 1162,11292 1166,11287 1199,11270 1247,11035 " style="fill: white; stroke: black; stroke-width: 30" />
<polyline points="1429,11632 1445,11633 1455,11619 1472,11565 1480,11467 1487,11315 1492,11183 1504,11110 1524,11069 1567,11055 1607,11065 1668,11095 1692,11129 1669,11163 1632,11193 1586,11209 1524,11197 1500,11167 1494,11151 1543,11115 1636,11085 " style="fill: white; stroke: black; stroke-width: 30" />
<polyline points="1960,11076 1993,11112 1992,11168 1979,11234 1938,11281 1911,11293 1886,11273 1860,11207 1859,11135 1859,11098 1910,11061 1975,11049 2067,11047 2158,11055 2217,11073 2284,11084 2281,11093 2283,11090 2271,11087 2273,11078 2273,11076 2281,11080 2282,11086 2293,11096 2291,11131 2283,11170 2273,11198 2261,11207 2272,11193 2261,11162 2266,11128 2296,11081 2343,11039 2402,11012 2467,10994 2522,10988 2563,11004 2590,11042 2621,11080 " style="fill: white; stroke: black; stroke-width: 30" />
<polyline points="2943,10954 2910,11056 2862,11138 2830,11180 2834,11184 2840,11163 2859,11120 2875,11083 2881,11060 2912,11040 2979,11022 3049,11024 " style="fill: white; stroke: black; stroke-width: 30" />
<polyline points="-2220,11483 -2232,11474 -2224,11468 -2184,11459 -2113,11466 -2033,11494 -1964,11537 -1929,11586 -1935,11637 -1958,11707 -1989,11772 -1991,11808 -1982,11829 -1958,11834 -1905,11826 -1860,11789 " style="fill: white; stroke: black; stroke-width: 30" />
<polyline points="-1767,11599 -1693,11601 -1673,11600 -1675,11601 -1671,11605 -1677,11614 -1687,11638 -1708,11673 -1703,11701 -1683,11721 -1661,11742 -1633,11752 -1600,11744 -1543,11725 -1517,11719 -1504,11742 -1492,11789 -1464,11838 -1434,11858 -1370,11851 -1286,11818 -1193,11792 -1166,11771 -1167,11754 -1186,11716 -1200,11679 -1205,11660 -1206,11656 -1211,11652 -1197,11648 " style="fill: white; stroke: black; stroke-width: 30" />
<polyline points="-898,11555 -920,11522 -914,11498 -904,11485 -899,11482 -862,11514 -837,11581 -800,11664 -786,11745 -800,11793 -831,11813 -864,11812 -901,11769 -926,11715 -915,11686 -905,11667 -854,11676 -796,11702 -743,11731 -660,11758 -573,11765 -521,11757 -492,11743 -478,11724 -488,11698 -483,11675 -473,11647 -477,11641 -468,11643 -464,11650 -458,11668 -453,11706 -443,11748 -440,11780 -440,11787 -429,11783 -393,11763 -339,11735 -298,11718 -278,11704 -247,11688 -227,11674 -207,11668 -220,11670 -218,11668 -220,11665 -220,11664 -218,11661 -227,11660 -227,11661 -231,11661 -224,11659 -220,11661 -222,11660 -216,11661 -216,11670 -223,11691 -227,11707 -230,11725 -201,11734 -182,11738 -142,11734 -79,11702 -22,11662 4,11637 -13,11638 -18,11643 -26,11676 0,11743 33,11832 72,11955 107,12084 110,12198 57,12295 -9,12348 -67,12344 -84,12315 -102,12261 -78,12163 " style="fill: white; stroke: black; stroke-width: 30" />
<polyline points="-1793,12006 -1794,11980 -1755,11948 -1655,11929 -1531,11937 -1413,11967 -1308,12002 -1200,11836 " style="fill: white; stroke: black; stroke-width: 30" />
<polyline points="-923,12277 -919,12286 -866,12318 -794,12362 -707,12410 -620,12460 -573,12515 -582,12592 -614,12664 -696,12726 -769,12772 -814,12801 -814,12807 " style="fill: white; stroke: black; stroke-width: 30" />
<polyline points="-58,12772 -58,12757 -45,12715 -17,12628 16,12513 58,12422 76,12364 81,12344 81,12343 81,12366 77,12438 75,12518 116,12597 145,12663 213,12708 280,12719 380,12685 496,12604 596,12493 663,12381 692,12278 670,12209 645,12179 622,12165 619,12166 616,11970 " style="fill: white; stroke: black; stroke-width: 30" />
<polyline points="1020,12467 990,12479 994,12466 991,12433 1006,12387 1004,12353 974,12342 920,12369 868,12431 861,12499 885,12568 943,12618 1020,12621 1068,12594 1055,12550 1022,12495 983,12452 958,12430 959,12417 " style="fill: white; stroke: black; stroke-width: 30" />
<polyline points="2080,11997 2073,11984 2063,11979 2061,11980 2027,11999 1983,12034 1937,12091 1897,12167 1871,12248 1863,12319 1875,12386 1915,12457 1960,12515 1956,12551 1950,12557 1904,12560 1807,12566 1700,12570 1629,12566 1591,12549 1600,12503 1667,12432 1810,12369 1940,12321 2065,12289 2136,12278 2171,12285 2181,12301 2169,12343 2146,12393 2145,12445 2126,12483 2131,12494 2155,12489 2194,12462 2251,12424 2269,12411 2274,12414 2264,12440 2251,12479 2252,12509 2260,12528 2275,12531 " style="fill: white; stroke: black; stroke-width: 30" />
<polyline points="2344,12734 2336,12730 2373,12659 2416,12539 2486,12427 2560,12330 2610,12284 2646,12279 2649,12305 2663,12355 2656,12420 2638,12476 2587,12520 2535,12525 2480,12509 2454,12491 2451,12463 2530,12398 " style="fill: white; stroke: black; stroke-width: 30" />
<polyline points="2927,12213 2893,12239 2866,12281 2850,12365 2844,12488 2858,12615 2863,12708 2847,12754 2850,12756 2858,12744 2881,12683 2943,12562 2999,12408 3096,12256 3160,12161 3218,12123 3277,12142 3306,12205 3327,12283 3293,12358 3235,12412 3140,12434 3070,12429 3045,12409 3066,12351 " style="fill: white; stroke: black; stroke-width: 30" />
<polyline points="3663,12236 3633,12241 3629,12243 3650,12273 3687,12334 3735,12400 3742,12469 3694,12523 3644,12550 3568,12557 3513,12539 3493,12493 3485,12428 3523,12358 3588,12308 3658,12300 3729,12315 3757,12366 3751,12436 3740,12478 3725,12483 3726,12475 3724,12450 3756,12405 3818,12374 3865,12363 3954,12357 3998,12377 4040,12389 4047,12394 4084,12374 4093,12337 4143,12266 4180,12208 4239,12157 4241,12141 4237,12143 4229,12169 4188,12247 4172,12344 4114,12466 4084,12570 4048,12653 4025,12687 4016,12682 4018,12630 4018,12630 4006,12557 4044,12487 " style="fill: white; stroke: black; stroke-width: 30" />
<polyline points="609,6009 602,6007 616,6005 652,5998 710,5990 823,5976 963,5960 1102,5952 1196,5948 1231,5949 1240,5956 " style="fill: white; stroke: black; stroke-width: 30" />
<polyline points="868,6367 972,6395 1095,6402 1202,6399 1274,6392 1308,6386 1268,6167 " style="fill: white; stroke: black; stroke-width: 30" />
<polyline points="1331,6208 1327,6215 1366,6243 1416,6270 1454,6307 1454,6349 1413,6394 1346,6436 1291,6460 1268,6477 " style="fill: white; stroke: black; stroke-width: 30" />
<polyline points="2110,5943 2105,5937 2124,5939 2182,5944 2244,5953 2315,5951 2370,5943 2374,5940 " style="fill: white; stroke: black; stroke-width: 30" />
<polyline points="2070,6142 2058,6148 2085,6168 2171,6193 2198,6006 " style="fill: white; stroke: black; stroke-width: 30" />
<polyline points="2503,6176 2524,6154 2525,6146 2522,6141 2520,6137 2518,6132 2520,6127 2539,6110 2576,6083 2593,6069 2600,6065 2597,6069 2598,6069 2607,6071 2632,6068 2633,6066 " style="fill: white; stroke: black; stroke-width: 30" />
<polyline points="2419,6033 2414,6055 2436,6093 2482,6139 2552,6189 2623,6236 2681,6250 " style="fill: white; stroke: black; stroke-width: 30" />
<polyline points="2683,6421 2695,6346 2728,6215 2791,6121 2839,6087 2890,6080 2908,6098 2895,6126 2846,6153 2778,6168 2741,6156 2734,6143 2736,6145 2773,6152 2852,6166 2935,6171 3017,6155 3070,6137 3073,6135 3051,6144 3014,6162 2995,6190 3007,6219 3048,6259 3097,6281 3130,6271 3160,6236 3178,6188 3192,6158 3203,6144 3227,6139 3288,6134 3355,6121 3394,6118 3409,6113 3397,6119 3381,6148 3352,6192 3342,6223 3343,6232 3358,6224 3407,6172 " style="fill: white; stroke: black; stroke-width: 30" />
<polyline points="3481,5927 3467,5919 3462,5921 3450,5958 " style="fill: white; stroke: black; stroke-width: 30" />
<polyline points="3607,6179 3618,6221 3610,6251 3615,6262 3634,6255 3667,6240 3677,6239 3663,6246 3647,6262 3653,6276 3696,6282 3771,6272 3820,6253 3825,6240 3787,6242 3731,6269 3709,6293 3719,6309 3782,6309 3843,6303 3875,6298 3885,6293 3915,6284 3956,6277 3967,6286 3964,6291 3969,6289 " style="fill: white; stroke: black; stroke-width: 30" />
<polyline points="4165,6185 4109,6250 4092,6273 4094,6270 4101,6259 4110,6245 4119,6241 " style="fill: white; stroke: black; stroke-width: 30" />
<polyline points="2204,6624 2175,6615 2136,6630 2070,6672 2036,6726 2042,6787 2082,6849 2127,6914 2140,6954 2116,6984 2083,7000 2042,6989 2013,6949 2360,6831 2339,6905 2345,6942 2352,6944 2376,6922 2421,6848 2456,6773 2479,6740 2496,6726 2500,6722 2486,6729 2455,6750 2396,6786 2353,6833 2338,6876 2354,6912 2394,6945 2494,6959 2594,6946 " style="fill: white; stroke: black; stroke-width: 30" />
<polyline points="2773,6673 2771,6632 2776,6612 2777,6608 2778,6614 2779,6647 2759,6706 2738,6784 2717,6862 2722,6918 2729,6939 2752,6946 2777,6954 " style="fill: white; stroke: black; stroke-width: 30" />
<polyline points="2995,6895 2968,6895 2942,6868 2933,6829 2945,6803 2956,6798 2966,6818 3003,6859 3040,6879 3100,6881 3186,6863 3268,6823 3286,6799 3281,6788 3263,6787 3237,6809 3219,6841 3218,6859 3222,6883 3240,6908 3296,6930 3355,6928 3384,6906 3395,6869 3399,6850 3395,6849 3374,6866 3370,6891 3376,6908 3393,6909 3417,6915 3444,6900 3446,6892 3453,6888 3448,6893 3479,6883 3527,6878 3583,6868 3611,6861 3603,6866 3608,6865 3605,6881 3599,6905 3598,6927 3603,6933 3641,6935 3725,6918 3807,6879 3845,6849 3862,6824 3870,6799 3874,6783 3871,6770 3858,6765 3834,6759 3794,6780 3771,6815 3750,6869 3744,6908 3758,6920 3804,6930 3882,6924 3945,6898 3963,6886 3962,6883 3963,6883 3960,6896 3940,6928 3929,6958 " style="fill: white; stroke: black; stroke-width: 30" />
<polyline points="4139,6646 4144,6641 4149,6639 4148,6644 4151,6647 4162,6644 4200,6623 4218,6602 4218,6596 4231,6591 4217,6611 4208,6659 4162,6756 4126,6841 4105,6904 4108,6952 4121,6968 4111,6975 4107,6975 4116,6946 4126,6903 4135,6862 " style="fill: white; stroke: black; stroke-width: 30" />
<polyline points="-1213,12987 -1212,13033 -1208,13073 -1196,13102 -1202,13113 -1195,13115 -1195,13115 -1185,13112 -1151,13105 -1118,13096 -1071,13093 -1041,13093 -986,12894 " style="fill: white; stroke: black; stroke-width: 30" />
<polyline points="-844,12998 -870,13032 -907,13062 -941,13079 -948,13078 -972,13064 -965,13036 -947,12996 -915,12959 -884,12947 -844,12965 -827,13010 -802,13040 -792,13044 -786,13018 -759,12982 -743,12962 -721,12953 -721,12956 -706,12962 -687,12961 -679,12961 -655,12960 -645,12957 -630,12957 -610,12952 -573,12947 -541,12942 -534,12940 -534,12943 -547,12956 -567,12969 -560,12970 " style="fill: white; stroke: black; stroke-width: 30" />
<polyline points="-340,12909 -346,12932 -355,12991 -362,13071 -389,13149 -375,13188 -363,13189 -351,13140 -327,13048 -269,12972 -236,12928 -187,12925 -154,12952 -135,12992 -145,13025 -157,13046 -202,13056 -260,13047 -287,13027 -297,13017 -289,13014 -262,13016 -189,13032 -128,13027 -51,13009 -10,12997 39,12985 43,12963 36,12941 9,12931 -22,12946 -46,12986 -37,13032 -27,13069 14,13102 71,13126 148,13150 " style="fill: white; stroke: black; stroke-width: 30" />
<polyline points="663,12843 667,12832 649,12849 647,12905 621,12986 627,13052 636,13099 653,13134 693,13142 752,13123 832,13091 853,13079 853,13077 846,13082 844,13091 865,13110 891,13132 935,13147 965,13146 988,13129 981,13096 964,13063 949,13035 933,13009 921,12984 909,12985 909,12990 937,13003 " style="fill: white; stroke: black; stroke-width: 30" />
<polyline points="1045,13091 1079,13112 1105,13121 1132,13118 1158,13104 1151,13081 1150,13039 1144,12999 1133,12987 1075,12999 1054,13042 1052,13076 1047,13113 1089,13137 1138,13152 1190,13150 1288,13123 1359,13090 1423,13072 1422,13087 1422,13113 1399,13152 1392,13187 1399,13204 1394,13208 1401,13199 " style="fill: white; stroke: black; stroke-width: 30" />
<polyline points="1857,12870 1828,12894 1779,12916 1745,12945 1707,12979 1703,13008 1725,13042 1752,13090 1792,13124 1792,13147 1794,13156 1767,13167 1727,13175 1705,13176 1671,13172 1664,13171 1689,13169 1723,13156 1810,13124 1929,13087 2054,13036 2137,12985 2201,12942 2204,12931 2194,12932 2165,12956 2170,12985 2170,13029 2168,13080 2178,13141 2190,13185 2181,13207 2161,13214 2145,13212 2142,13207 2131,13184 2132,13144 " style="fill: white; stroke: black; stroke-width: 30" />
<polyline points="3153,13123 3134,13123 3145,13112 3162,13093 3190,13086 3240,13086 3278,13109 3322,13132 3314,13142 3319,13141 3315,13147 3303,13154 3352,13144 3363,12902 " style="fill: white; stroke: black; stroke-width: 30" />
<polyline points="3598,12873 3570,12869 3569,12878 3537,12938 3487,13017 3506,13065 3500,13105 3481,13117 3494,13102 3466,13081 3449,13066 3428,13057 3429,13053 3443,13053 3480,13060 3521,13083 3572,13119 3616,13140 3627,13150 3635,13150 3659,13145 3630,13151 3616,13150 3608,13132 3615,13094 3625,13054 3663,13012 3676,12988 3731,12969 3781,12964 3827,12977 " style="fill: white; stroke: black; stroke-width: 30" />
<polyline points="3878,12965 3837,13004 3836,13049 3847,13096 3864,13127 3894,13151 3926,13164 3940,13164 3968,13127 3943,13070 3936,13012 3909,12975 3911,12963 3909,12965 3914,12975 3950,12993 " style="fill: white; stroke: black; stroke-width: 30" />
<polyline points="4304,12972 4284,12973 4284,12982 4263,13031 4274,13109 4258,13203 4263,13272 4245,13325 4223,13355 4168,13373 4142,13364 4142,13327 4144,13248 " style="fill: white; stroke: black; stroke-width: 30" />
<polyline points="4343,12706 4331,12704 4306,12713 4309,12713 4319,12727 4332,12749 4358,12784 " style="fill: white; stroke: black; stroke-width: 30" />
<polyline points="4639,12967 4626,12956 4627,12932 4607,12933 4593,12943 4597,12972 4618,13015 4628,13068 4664,13113 4691,13158 4756,13174 4841,13153 4948,13102 5023,13022 5066,12940 5113,12867 5119,12820 5088,12795 5034,12795 5006,12807 4993,12835 4986,12901 4996,12968 4987,13061 4990,13142 4992,13196 5007,13210 5030,13191 5067,13138 5097,13098 5117,13077 5110,13068 5100,13065 5080,13068 5021,13089 4976,13121 4946,13161 4960,13198 5029,13221 5104,13236 5185,13231 5294,13195 5395,13145 5513,13061 5589,12974 5610,12906 5618,12866 5608,12864 5570,12914 5544,12985 5508,13072 5460,13151 5439,13191 5405,13216 5396,13218 5385,13190 5373,13152 5393,13125 5446,13094 5572,13066 5651,12905 " style="fill: white; stroke: black; stroke-width: 30" />
<polyline points="-3272,1178 -3264,1155 -3262,1137 -3265,1137 -3279,1128 -3307,1119 -3363,1132 -3434,1213 -3481,1326 -3485,1429 -3447,1502 -3364,1537 -3246,1527 -3145,1503 -3087,1476 -3081,1464 -3094,1448 -3107,1412 -3113,1354 -3114,1323 -3108,1310 -3106,1303 -3104,1301 -3099,1298 -3095,1296 -3097,1298 -3093,1304 -3092,1302 -3093,1303 -3091,1305 -3090,1304 -3090,1304 -3091,1292 -3088,1281 -3088,1272 -3086,1271 -3086,1268 -3089,1264 -3077,1258 -3058,1247 -3038,1245 -3012,1254 -2975,1264 -2941,1264 -2892,1257 -2860,1262 " style="fill: white; stroke: black; stroke-width: 30" />
<polyline points="-2809,1348 -2805,1352 -2781,1356 -2740,1350 -2676,1327 -2599,1269 -2548,1217 -2552,1186 -2584,1173 -2671,1216 -2764,1303 -2785,1370 -2764,1410 " style="fill: white; stroke: black; stroke-width: 30" />
<polyline points="-2392,1341 -2385,1341 -2352,1335 -2288,1316 -2219,1285 -2170,1248 -2164,1223 -2183,1210 -2233,1222 -2308,1273 -2340,1332 -2332,1373 " style="fill: white; stroke: black; stroke-width: 30" />
<polyline points="-1993,1311 -1988,1279 -1982,1243 -1979,1232 -1981,1227 -1984,1230 -2000,1238 -2018,1254 -2039,1288 -2056,1344 -2052,1385 -2031,1395 -1987,1368 -1922,1287 -1862,1188 -1825,1114 -1816,1074 -1817,1080 -1828,1089 -1851,1162 -1876,1266 -1863,1363 -1822,1446 -1770,1482 " style="fill: white; stroke: black; stroke-width: 30" />
<polyline points="-417,1600 -424,1575 -388,1507 -317,1387 -234,1246 -190,1168 -186,1157 -191,1192 -179,1309 -149,1427 -110,1509 -81,1554 -73,1554 -94,1522 " style="fill: white; stroke: black; stroke-width: 30" />
<polyline points="-306,1357 -313,1365 -301,1389 -258,1425 -192,1467 -118,1492 -33,1486 66,1447 159,1381 215,1283 238,1214 232,1171 215,1161 173,1182 102,1258 68,1362 79,1445 127,1507 218,1562 323,1595 428,1565 518,1488 566,1399 561,1342 524,1320 460,1347 411,1405 389,1476 415,1553 484,1599 578,1634 657,1642 " style="fill: white; stroke: black; stroke-width: 30" />
<polyline points="1575,1547 1701,1514 1827,1450 1876,1426 1873,1432 1836,1528 1773,1670 1714,1809 1682,1909 " style="fill: white; stroke: black; stroke-width: 30" />
<polyline points="1997,1431 2015,1405 2073,1364 2142,1352 2200,1402 2235,1484 2236,1554 2198,1612 2154,1640 2105,1639 2068,1586 2049,1486 2428,1429 2386,1493 2377,1531 2398,1540 2471,1535 2586,1517 2643,1516 2652,1531 2634,1569 2618,1607 2627,1620 2637,1618 2650,1619 " style="fill: white; stroke: black; stroke-width: 30" />
<polyline points="-298,2130 -301,2124 -303,2130 -300,2192 -310,2312 -318,2413 -311,2476 -293,2485 -261,2435 -241,2342 -258,2226 -292,2098 -316,2032 -319,2008 -307,2008 -259,2017 -202,2048 -159,2094 -145,2128 -157,2156 -194,2184 -246,2215 -288,2255 -295,2293 -268,2354 -195,2408 -138,2460 -131,2496 -160,2521 -219,2530 -281,2500 -321,2431 -316,2386 -256,2345 " style="fill: white; stroke: black; stroke-width: 30" />
<polyline points="209,2399 147,2428 92,2422 55,2388 48,2359 61,2339 124,2316 219,2299 325,2287 434,2269 528,2236 587,2201 603,2181 594,2169 580,2166 576,2174 569,2205 560,2277 552,2350 541,2392 530,2400 521,2396 507,2362 504,2343 512,2343 567,2326 658,2304 758,2275 838,2233 870,2202 852,2203 797,2236 752,2291 746,2331 772,2360 806,2392 858,2412 906,2396 949,2345 976,2289 1003,2242 1024,2214 1066,2191 1086,2188 1100,2198 1111,2206 1114,2211 1126,2210 1137,2210 1138,2211 1139,2206 1141,2199 1143,2192 1144,2182 1148,2166 1143,2159 1141,2158 1141,2160 1142,2161 1145,2163 1132,2207 1077,2303 1044,2391 1044,2446 1043,2464 1037,2461 1022,2450 997,2427 979,2413 " style="fill: white; stroke: black; stroke-width: 30" />
<polyline points="2071,2410 1995,2444 1959,2436 1947,2384 1966,2326 2001,2296 2049,2308 2090,2359 2134,2411 2192,2438 2234,2441 2253,2430 2259,2415 2272,2371 2306,2317 2352,2271 2417,2234 2471,2229 2522,2253 2545,2276 2556,2295 2560,2296 2551,2293 2515,2290 2504,2297 2494,2309 2492,2330 2502,2374 2508,2427 2536,2476 2612,2496 2716,2486 2786,2476 2826,2466 2841,2457 2856,2439 2867,2421 2877,2398 2889,2369 2894,2364 2890,2365 2887,2364 2892,2362 2898,2360 2905,2356 2912,2353 2905,2359 2900,2362 2899,2364 2905,2368 2895,2390 " style="fill: white; stroke: black; stroke-width: 30" />
<polyline points="-229,3243 -227,3181 -242,3080 -236,2948 -204,2865 -137,2822 -78,2829 -45,2874 -62,2937 -117,2990 -165,3017 -175,3022 -167,3039 -120,3109 -69,3195 -51,3256 -63,3288 -106,3292 -169,3273 -211,3243 -212,3231 -190,3226 -100,3198 11,3155 129,3100 220,3049 241,3003 232,2989 197,2996 152,3034 131,3093 139,3148 184,3182 275,3175 415,3116 560,3025 674,2893 728,2793 715,2764 694,2764 638,2811 580,2907 566,2994 583,3057 610,3099 609,2872 " style="fill: white; stroke: black; stroke-width: 30" />
<polyline points="790,3032 790,3013 798,2977 828,2933 860,2915 881,2928 905,2964 910,2996 915,3012 918,3012 919,3009 910,3001 890,2975 871,2960 834,2959 787,2978 770,3019 760,3064 778,3096 811,3124 851,3121 903,3089 925,3052 937,3002 926,2986 911,2983 906,2982 909,2990 940,3009 " style="fill: white; stroke: black; stroke-width: 30" />
<polyline points="1119,3144 1135,3151 1147,3129 1168,3076 1216,3019 1269,2988 1302,2998 1314,3039 1311,3080 1313,3099 " style="fill: white; stroke: black; stroke-width: 30" />
<polyline points="1557,3028 1565,3017 1584,2983 1607,2944 1610,2932 1603,2930 1596,2934 1568,2984 1547,3051 1529,3115 1511,3186 1504,3277 1509,3367 1497,3414 1480,3424 1456,3411 1420,3367 1395,3314 1388,3264 " style="fill: white; stroke: black; stroke-width: 30" />
<polyline points="2501,2781 2512,2772 2517,2771 2504,2814 2456,2930 2409,3043 2376,3131 2366,3182 2362,3190 2365,3171 2381,3115 2415,3042 2450,2992 2498,2964 2541,2961 2578,2984 2609,3019 2636,3035 2639,3041 2630,3040 2600,3047 2570,3074 2550,3113 2558,3133 2592,3149 2648,3148 2677,3133 2692,3103 2688,3084 2689,3063 2695,3053 2711,3051 2723,3055 2739,3065 " style="fill: white; stroke: black; stroke-width: 30" />
<polyline points="-317,3626 -304,3621 -286,3620 -275,3621 -262,3622 -248,3613 -201,3561 -127,3499 -84,3473 -60,3474 -47,3495 -39,3556 -39,3620 -24,3656 0,3660 77,3654 153,3659 191,3678 208,3696 214,3705 240,3699 308,3674 367,3673 395,3691 407,3711 416,3717 473,3697 560,3663 636,3632 654,3614 639,3608 606,3615 579,3629 579,3646 586,3688 610,3736 654,3775 " style="fill: white; stroke: black; stroke-width: 30" />
<polyline points="-3357,5004 -3250,4930 -3173,4895 -3129,4897 -3084,4925 -3026,4983 -2986,5069 -2940,5140 -2916,5188 " style="fill: white; stroke: black; stroke-width: 30" />
<polyline points="-3233,4937 -3168,4944 -3028,4955 -2868,4973 " style="fill: white; stroke: black; stroke-width: 30" />
<polyline points="-2649,4847 -2654,4846 -2660,4850 -2671,4877 -2681,4949 -2691,5021 -2690,5062 -2686,5082 -2685,5089 -2683,5090 -2681,5093 -2680,5090 -2673,5085 -2651,5070 -2618,5050 -2595,5047 -2550,5056 -2489,5077 -2449,5109 -2445,5146 -2462,5186 -2501,5215 -2550,5222 -2585,5204 -2630,5162 -2651,5129 -2653,5118 -2635,5119 " style="fill: white; stroke: black; stroke-width: 30" />
<polyline points="-2216,5128 -2224,5159 -2242,5171 -2265,5172 -2283,5151 -2292,5088 -2256,5017 -2166,4929 -2074,4839 -2017,4777 -2007,4778 -2013,4837 -2036,4980 -2051,5108 -2056,5194 -2062,5222 -2064,5212 -2068,5160 -2069,5142 -2071,5134 -2064,5130 -2043,5118 -2006,5109 -1962,5120 -1918,5148 -1869,5174 -1835,5183 -1828,5166 -1830,5122 -1829,5070 -1813,5019 -1785,4972 -1766,4962 -1750,4976 -1733,4993 -1717,4998 -1698,5000 -1671,5000 -1635,4999 -1609,5009 -1589,5011 -1567,5014 -1554,5034 -1550,5074 -1555,5127 -1563,5187 -1599,5229 -1646,5246 -1697,5242 -1724,5215 -1728,5181 -1717,5172 -1689,5169 -1622,5188 -1544,5200 -1460,5193 -1385,5197 " style="fill: white; stroke: black; stroke-width: 30" />
<polyline points="-1283,5089 -1294,5094 -1305,5102 -1317,5111 -1340,5153 -1354,5191 -1352,5220 -1328,5242 -1273,5252 -1195,5228 -1112,5164 -1023,5067 -960,4967 -937,4908 -946,4899 -964,4913 -1004,4987 -1040,5085 -1041,5145 -1020,5185 -985,5198 -938,5184 -897,5144 -856,5091 -815,5059 -804,5056 -814,5073 -839,5105 -869,5125 -900,5137 -946,5153 -976,5177 -979,5200 -956,5221 -893,5231 -813,5208 -746,5164 " style="fill: white; stroke: black; stroke-width: 30" />
<polyline points="-553,5161 -562,5199 -554,5195 -539,5175 -526,5156 -512,5140 -508,5139 -464,5137 -398,5127 " style="fill: white; stroke: black; stroke-width: 30" />
<polyline points="-2999,5658 -2997,5622 -3002,5611 -3004,5650 -3013,5790 -3034,5923 -3021,5998 -2999,6018 -2960,5972 -2905,5852 -2882,5714 -2900,5621 -2921,5594 -2932,5601 -2936,5636 -2904,5698 -2847,5749 -2766,5780 -2667,5774 -2578,5728 -2539,5688 -2529,5678 -2542,5686 -2548,5744 -2550,5812 -2528,5891 -2491,5956 -2427,5997 -2343,5989 -2251,5929 -2197,5853 -2195,5813 -2211,5814 -2243,5827 -2280,5879 -2283,5947 -2261,5997 " style="fill: white; stroke: black; stroke-width: 30" />
<polyline points="-1848,5866 -1899,5834 -1950,5860 -1990,5952 -1982,6029 -1931,6056 -1854,6027 -1780,5943 -1724,5829 -1693,5724 -1698,5687 -1711,5689 -1733,5728 -1751,5816 -1727,5889 -1675,5941 -1585,5968 -1475,5953 -1410,5937 -1411,5941 -1419,5959 -1425,5979 -1418,5983 -1399,5977 -1357,5980 -1319,6007 -1292,6037 -1257,6042 -1152,5864 -1141,5910 -1118,5987 -1081,6061 -1050,6108 -1039,6125 -1051,6125 -1077,6119 -1111,6096 -1125,6053 " style="fill: white; stroke: black; stroke-width: 30" />
<polyline points="-888,6064 -904,6056 -939,6021 -961,5991 -962,5968 -956,5964 -932,5982 -885,6021 -840,6044 " style="fill: white; stroke: black; stroke-width: 30" />
<polyline points="267,5982 241,5973 252,5970 326,5965 454,5972 600,5987 769,6000 " style="fill: white; stroke: black; stroke-width: 30" />
<polyline points="929,5892 992,5906 1088,5944 1140,5997 1141,6053 1113,6099 1054,6138 " style="fill: white; stroke: black; stroke-width: 30" />
<polyline points="1974,6283 1975,6297 1992,6246 1998,6131 2010,5995 2040,5897 2110,5828 2162,5807 2203,5828 2223,5875 2222,5926 2187,5986 2116,6041 2018,6082 1947,6082 1907,6055 1900,6011 1938,5980 " style="fill: white; stroke: black; stroke-width: 30" />
<polyline points="2368,5924 2362,5911 2359,5906 2355,5908 2372,5909 2380,5924 2390,5948 2385,5969 2389,5982 2386,6010 2367,6073 2343,6161 2330,6229 2326,6269 2329,6274 2340,6270 2368,6250 2431,6210 2490,6179 2555,6154 2616,6140 2667,6134 2696,6142 2688,6164 2676,6185 2678,6194 2680,6190 2677,6184 2687,6177 2702,6157 2701,6129 2730,6106 2759,6102 2764,6135 2754,6202 2739,6241 2710,6271 2679,6285 2625,6286 2605,6270 2617,6248 2631,6215 2654,6188 2687,6179 2698,6179 2702,6185 2703,6196 2730,6216 2773,6236 2817,6251 2854,6255 2883,6248 2915,6234 2930,6225 2943,6214 2948,6209 2957,6197 2976,6180 3003,6166 3032,6152 3066,6143 3091,6132 3109,6112 3139,6082 3159,6064 3172,6056 3155,6064 3101,6116 3056,6167 3057,6202 3080,6218 3125,6218 3187,6209 3251,6193 3258,6189 3252,6191 3232,6209 3218,6224 3212,6260 3183,6332 3128,6429 3054,6532 2994,6620 2947,6674 2951,6676 3006,6636 3148,6544 3330,6419 3518,6290 3598,6220 3595,6198 3557,6203 3483,6233 3472,6251 3473,6285 3491,6317 3515,6349 3537,6362 3549,6354 3559,6344 3592,6319 3674,6269 3788,6212 3936,6171 4130,6139 4359,6115 4449,5928 " style="fill: white; stroke: black; stroke-width: 30" />
<polyline points="5589,7054 " style="fill: white; stroke: black; stroke-width: 30" />
<polyline points="4829,8947 " style="fill: white; stroke: black; stroke-width: 30" />
<polyline points="4991,8534 " style="fill: white; stroke: black; stroke-width: 30" />
<polyline points="9847,8226 " style="fill: white; stroke: black; stroke-width: 30" />
<polyline points="1850,13289 " style="fill: white; stroke: black; stroke-width: 30" />
<polyline points="1890,13351 " style="fill: white; stroke: black; stroke-width: 30" />
<polyline points="4266,8349 " style="fill: white; stroke: black; stroke-width: 30" />
<polyline points="2499,8852 " style="fill: white; stroke: black; stroke-width: 30" />
<polyline points="-1529,11481 " style="fill: white; stroke: black; stroke-width: 30" />
<polyline points="-2419,8618 -2424,8605 -2425,8606 -2440,8614 -2431,8681 -2442,8799 -2454,8935 -2457,9037 -2430,9107 -2409,9116 -2357,9059 -2298,8959 -2264,8866 -2260,8787 -2276,8741 -2301,8724 -2326,8729 -2372,8764 -2416,8840 -2446,8923 -2448,9016 -2424,9083 -2389,9117 -2327,9120 -2251,9089 -2192,9059 -2162,9041 -2166,9020 -2171,9009 -2167,9009 -2175,8995 -2193,8952 -2189,8892 -2167,8822 -2129,8770 -2074,8748 -2031,8755 -1970,8806 -1918,8897 -1889,8985 -1899,9052 -1916,9099 -1963,9104 -1997,9082 -2040,9015 -2061,8957 -2071,8918 " style="fill: white; stroke: black; stroke-width: 30" />
<polyline points="-1579,8924 -1547,8938 -1524,8948 -1519,8960 -1517,8967 -1507,8959 " style="fill: white; stroke: black; stroke-width: 30" />
<polyline points="-1317,8961 -1295,9030 -1296,9085 -1305,9100 -1324,9088 -1347,9056 -1317,8794 " style="fill: white; stroke: black; stroke-width: 30" />
<polyline points="-953,8825 -959,8830 -954,8878 -944,8957 -919,9013 -881,9034 -799,9003 -732,8948 -692,8921 -693,8928 -693,8977 -704,9030 " style="fill: white; stroke: black; stroke-width: 30" />
<polyline points="-245,8903 -193,8846 -167,8820 -157,8823 -151,8867 -149,8926 -131,8973 -119,8987 -89,8988 -78,8990 -78,8990 -84,8993 -78,8995 -46,8980 3,8964 33,8961 30,8969 20,8987 23,8991 51,8985 120,8968 200,8955 274,8935 336,8895 364,8848 353,8827 301,8823 223,8853 182,8896 184,8936 233,8968 318,8983 433,8983 537,8985 620,8970 715,8930 822,8881 930,8852 968,8857 960,8900 915,8959 897,8991 " style="fill: white; stroke: black; stroke-width: 30" />
<polyline points="1321,8607 1268,8643 1209,8711 1190,8807 1149,8896 1141,8953 1169,8971 1182,8960 1182,8922 1186,8888 1186,8861 1211,8829 1259,8811 1353,8793 1481,8787 1642,8789 " style="fill: white; stroke: black; stroke-width: 30" />
<polyline points="-2286,9660 -2302,9652 -2282,9650 -2194,9664 -2095,9674 -1982,9684 " style="fill: white; stroke: black; stroke-width: 30" />
<polyline points="-1113,9508 -1186,9553 -1223,9640 -1223,9746 -1207,9833 -1171,9887 -1142,9915 -1141,9920 -1139,9901 -1165,9828 -1182,9688 -1175,9538 -1118,9454 -1041,9420 -950,9432 -902,9485 -893,9568 -935,9657 -1009,9735 -1077,9803 -1138,9865 -1160,9919 -1147,9939 -1087,9950 -981,9921 -884,9876 -807,9839 -774,9808 -769,9782 -781,9770 -805,9768 -836,9783 -869,9819 -874,9856 -850,9879 -788,9887 -723,9867 -687,9838 -666,9806 -679,9776 -700,9762 -737,9761 -764,9770 -760,9771 -731,9771 -667,9760 -612,9743 -552,9713 -496,9665 -447,9590 -399,9490 -369,9404 -375,9362 -387,9356 -403,9372 -430,9446 -454,9586 -464,9708 -440,9767 -437,9775 -395,9742 -348,9682 -300,9643 -265,9642 -240,9673 -226,9721 -233,9776 -250,9800 -288,9808 -352,9794 -384,9782 -402,9769 -373,9757 -341,9733 -259,9694 -177,9663 -68,9654 23,9663 67,9682 53,9696 27,9705 -22,9707 -59,9714 -96,9733 -141,9778 -160,9836 -129,9872 -54,9879 54,9847 131,9809 136,9774 121,9742 84,9724 51,9724 33,9731 57,9730 123,9716 217,9659 316,9544 389,9435 420,9388 416,9376 412,9407 364,9534 313,9686 285,9785 254,9805 255,9794 260,9749 275,9696 305,9644 348,9593 420,9566 489,9567 584,9592 " style="fill: white; stroke: black; stroke-width: 30" />
<polyline points="-248,7045 -264,7043 -267,7052 -277,7111 -306,7213 -316,7281 -307,7298 -286,7275 -254,7191 -246,7103 -243,7054 -247,7042 -249,7044 -239,7058 -216,7069 -147,7071 -106,7088 -102,7134 -144,7193 -185,7261 -207,7282 -200,7282 -178,7297 -162,7325 -164,7351 -186,7370 -200,7369 -224,7361 -247,7350 -269,7332 -279,7311 -282,7295 -277,7284 -242,7275 -195,7282 -139,7301 -102,7312 -32,7307 57,7285 120,7260 154,7236 157,7211 130,7187 75,7188 16,7217 -6,7261 6,7311 61,7344 163,7337 " style="fill: white; stroke: black; stroke-width: 30" />
<polyline points="348,7148 349,7127 359,7115 380,7106 418,7116 469,7143 485,7178 466,7236 413,7305 364,7354 360,7375 369,7373 417,7347 470,7290 479,7239 457,7220 429,7226 415,7241 431,7256 485,7262 549,7248 588,7251 599,7272 599,7307 588,7351 589,7367 597,7363 616,7318 628,7223 619,7129 606,7078 591,7056 591,7055 593,7069 618,7121 654,7166 700,7201 739,7229 809,7241 894,7222 933,7190 929,7136 908,7091 873,7077 856,7078 834,7102 818,7170 802,7253 806,7307 832,7332 867,7332 913,7323 922,7337 915,7346 917,7350 936,7346 964,7335 997,7329 1010,7341 1009,7354 1011,7360 " style="fill: white; stroke: black; stroke-width: 30" />
<polyline points="1157,7252 1136,7283 1135,7293 1161,7296 1226,7296 1269,7303 1283,7323 " style="fill: white; stroke: black; stroke-width: 30" />
<polyline points="1403,7232 1410,7228 1415,7226 1415,7224 1408,7227 1412,7231 1414,7251 1417,7288 1401,7329 1400,7355 1420,7361 1469,7347 1530,7315 1572,7283 1603,7261 1593,7258 1585,7261 1573,7272 1535,7313 1509,7375 1516,7443 1534,7525 1558,7593 1563,7639 1536,7659 1476,7645 1427,7594 1422,7517 " style="fill: white; stroke: black; stroke-width: 30" />
<polyline points="2541,7411 2595,7342 2665,7249 2756,7121 2795,7022 2793,6987 2781,6996 2767,7063 2746,7174 2739,7275 2736,7353 2739,7377 2707,7376 2650,7319 2611,7244 2601,7207 2609,7200 2624,7201 2721,7198 2827,7186 2924,7148 3001,7091 3013,7058 2994,7047 2961,7058 2903,7113 2878,7175 2873,7222 2897,7262 2929,7296 " style="fill: white; stroke: black; stroke-width: 30" />
<polyline points="3118,7226 3112,7228 3114,7218 3110,7216 3099,7219 3079,7229 3059,7249 3072,7278 3097,7317 3122,7382 3118,7483 3091,7561 3066,7585 3047,7573 3029,7536 3013,7469 3018,7414 3077,7354 3165,7302 3277,7242 3356,7168 3380,7117 3364,7102 3330,7110 3283,7161 3257,7225 3250,7284 3273,7319 3313,7338 3388,7323 3473,7276 3557,7217 3589,7173 3594,7144 3585,7120 3574,7111 3568,7120 3527,7173 3493,7243 3467,7303 3446,7334 3451,7333 3477,7317 3528,7299 3558,7303 3559,7339 3540,7383 3528,7403 3516,7406 3509,7393 3508,7368 3516,7362 3528,7375 3578,7390 3646,7402 3716,7389 3736,7362 3724,7348 3710,7348 3697,7356 3691,7372 3704,7376 3733,7360 3761,7330 3774,7301 3801,7277 3804,7279 3813,7282 3829,7282 3835,7287 3837,7298 3855,7310 3846,7354 3836,7405 3823,7450 3798,7472 3756,7466 3691,7450 3671,7431 3674,7421 3714,7405 3797,7406 3930,7418 4124,7452 4310,7514 " style="fill: white; stroke: black; stroke-width: 30" />

</svg>