<?xml version="1.0" standalone="no"?>
<!DOCTYPE svg PUBLIC "-//W3C//DTD SVG 1.1//EN" "http://www.w3.org/Graphics/SVG/1.1/DTD/svg11.dtd">
<svg width="210mm" height="297mm" viewBox="-7000 500 14000 20000" version="1.1" xmlns="http://www.w3.org/2000/svg">

<polyline points="-3504,6097 -3536,6091 -3573,6107 -3633,6145 -3681,6208 -3686,6266 -3651,6317 -3571,6355 -3477,6360 -3404,6350 " style="fill: white; stroke: black; stroke-width: 30" />
<polyline points="-3325,6382 -3312,6365 -3286,6295 -3279,6229 -3276,6168 -3265,6158 -3260,6160 -3250,6176 -3224,6206 -3177,6230 -3119,6247 -3054,6258 -3005,6258 -2990,6244 -3001,6213 -3029,6167 -3076,6161 -3143,6197 -3172,6263 -3153,6325 -3091,6371 -3026,6396 " style="fill: white; stroke: black; stroke-width: 30" />
<polyline points="-2872,6124 -2826,6113 -2772,6146 -2742,6238 -2749,6337 -2783,6409 -2840,6446 -2900,6429 -2938,6353 -2939,6315 -2935,6313 -2904,6338 -2849,6373 -2762,6387 -2653,6347 -2558,6247 -2519,6086 -2527,6028 -2543,6027 -2559,6059 -2586,6167 -2585,6258 -2575,6325 -2568,6370 -2578,6396 -2586,6406 -2587,6400 -2575,6374 -2555,6315 -2521,6249 -2490,6227 -2469,6243 -2443,6283 -2431,6329 -2417,6367 -2413,6394 -2421,6437 -2429,6472 -2425,6476 -2399,6416 " style="fill: white; stroke: black; stroke-width: 30" />
<polyline points="-2428,6097 -2374,6013 " style="fill: white; stroke: black; stroke-width: 30" />
<polyline points="-2342,6403 -2291,6387 -2233,6463 -2148,6490 -2079,6482 -2061,6447 -2072,6392 -2128,6345 -2153,6342 -2149,6348 -2129,6368 -2093,6401 -2058,6432 -2038,6445 -1971,6453 -1869,6449 -1797,6432 -1778,6410 -1790,6369 -1827,6314 -1874,6292 -1899,6303 -1926,6369 -1916,6432 -1875,6491 -1812,6534 -1729,6559 -1702,6567 -1719,6560 " style="fill: white; stroke: black; stroke-width: 30" />
<polyline points="-1051,6178 -1091,6287 -1113,6449 -1101,6561 -1066,6618 -1039,6609 -1025,6524 -1035,6383 -1045,6233 -1065,6156 -1073,6153 -1067,6172 -1066,6258 -1029,6336 -982,6395 -917,6435 -859,6444 -802,6408 -738,6335 -708,6289 -715,6286 -730,6304 -763,6387 -765,6467 -754,6525 -708,6563 -637,6559 -561,6509 -515,6420 -517,6371 -562,6361 -623,6399 -641,6466 -617,6528 -573,6566 -519,6590 -470,6601 " style="fill: white; stroke: black; stroke-width: 30" />
<polyline points="-310,6517 -324,6557 -315,6553 -291,6527 -249,6455 -245,6389 -289,6369 -359,6412 -407,6496 -399,6578 -350,6618 -289,6601 -212,6510 -163,6383 -163,6328 -167,6319 -162,6325 -162,6360 -159,6413 -153,6458 -136,6534 -106,6593 -73,6617 -30,6596 47,6510 103,6436 104,6426 100,6433 92,6469 86,6522 97,6565 112,6589 " style="fill: white; stroke: black; stroke-width: 30" />
<polyline points="141,6204 137,6193 140,6197 157,6219 " style="fill: white; stroke: black; stroke-width: 30" />
<polyline points="310,6343 350,6351 400,6352 455,6387 482,6442 477,6512 410,6592 315,6644 230,6651 213,6614 230,6548 270,6511 322,6529 423,6618 " style="fill: white; stroke: black; stroke-width: 30" />
<polyline points="-3360,7686 -3360,7686 -3371,7784 -3368,7913 -3356,7996 -3341,8023 -3336,8017 " style="fill: white; stroke: black; stroke-width: 30" />
<polyline points="-3249,7899 -3249,7899 -3246,7969 -3240,8009 -3224,8009 -3207,7967 -3204,7893 -3189,7822 -3181,7767 -3178,7758 -3177,7763 -3179,7781 -3188,7824 -3186,7874 -3177,7908 -3148,7923 -3099,7901 -3031,7835 -2994,7800 -2997,7800 -2994,7819 -2976,7862 -2964,7894 -2961,7912 -2961,7924 -2966,7941 -2963,7942 " style="fill: white; stroke: black; stroke-width: 30" />
<polyline points="-2833,7789 -2838,7811 " style="fill: white; stroke: black; stroke-width: 30" />
<polyline points="-2802,7750 -2801,7743 -2798,7743 -2796,7749 -2797,7767 -2801,7803 -2820,7859 -2873,7937 -2920,8002 -2916,8011 -2910,7999 -2886,7922 -2834,7824 -2794,7753 -2785,7734 -2793,7732 -2804,7746 -2805,7811 -2784,7876 -2756,7934 -2738,7963 -2733,7969 " style="fill: white; stroke: black; stroke-width: 30" />
<polyline points="-2925,7873 -2903,7867 -2852,7867 -2815,7882 -2754,7900 " style="fill: white; stroke: black; stroke-width: 30" />
<polyline points="-2654,7877 -2654,7877 -2660,7957 -2655,8019 -2646,8036 -2631,7982 -2626,7857 -2630,7731 -2613,7683 -2577,7697 -2538,7760 -2540,7834 -2566,7876 -2621,7883 -2697,7859 -2720,7836 -2709,7823 " style="fill: white; stroke: black; stroke-width: 30" />
<polyline points="-1844,7782 -1841,7783 -1821,7785 -1782,7786 -1736,7787 -1693,7797 -1657,7820 -1641,7829 -1637,7829 -1640,7830 -1640,7831 -1645,7830 -1642,7828 " style="fill: white; stroke: black; stroke-width: 30" />
<polyline points="-1914,7854 -1933,7973 -1901,8047 -1815,8088 -1721,8083 -1644,8058 -1613,8046 " style="fill: white; stroke: black; stroke-width: 30" />
<polyline points="-1885,7898 -1794,7903 -1709,7923 -1656,7945 " style="fill: white; stroke: black; stroke-width: 30" />
<polyline points="-1536,7851 -1587,7890 -1603,7956 -1573,8021 -1495,8063 -1405,8066 -1330,8040 -1312,8003 -1332,7944 -1377,7902 -1422,7871 -1423,7866 -1401,7846 -1380,7849 " style="fill: white; stroke: black; stroke-width: 30" />
<polyline points="-1303,8014 -1301,7992 -1305,7989 -1281,8015 -1258,8061 -1251,8084 -1252,8081 -1274,8057 -1294,8029 -1305,8018 " style="fill: white; stroke: black; stroke-width: 30" />
<polyline points="-3321,8436 -3338,8428 -3347,8436 -3345,8481 -3336,8605 -3329,8722 -3314,8787 -3300,8800 " style="fill: white; stroke: black; stroke-width: 30" />
<polyline points="-3406,8377 -3387,8340 -3320,8335 -3202,8405 -3118,8524 -3103,8661 -3157,8767 -3233,8784 -3320,8757 -3354,8725 -3369,8706 -3357,8692 -3312,8657 " style="fill: white; stroke: black; stroke-width: 30" />
<polyline points="-2912,8448 -2912,8448 -2918,8459 -2932,8533 -2948,8649 -2936,8715 -2925,8734 -2926,8721 -2944,8648 -2953,8514 -2951,8411 -2949,8371 -2952,8374 -2951,8410 -2951,8514 -2931,8604 -2860,8668 -2736,8701 -2608,8687 -2543,8645 -2549,8580 -2582,8470 -2613,8408 -2620,8380 -2621,8379 -2626,8381 -2623,8388 " style="fill: white; stroke: black; stroke-width: 30" />
<polyline points="-2341,8424 -2377,8399 -2401,8388 -2416,8390 -2408,8444 -2374,8550 -2327,8639 -2320,8710 -2360,8757 -2422,8768 -2467,8749 -2474,8706 -2440,8655 -2395,8632 " style="fill: white; stroke: black; stroke-width: 30" />
<polyline points="-1029,8510 -1042,8524 -1046,8604 -1032,8695 -1014,8735 -995,8732 -927,8648 -771,8462 -630,8314 -503,8209 " style="fill: white; stroke: black; stroke-width: 30" />
<polyline points="-3433,9570 -3440,9553 -3441,9547 -3441,9552 -3442,9598 -3455,9704 -3450,9785 -3438,9819 -3433,9815 -3442,9754 -3468,9618 -3497,9437 -3466,9334 -3400,9274 -3307,9279 -3228,9343 -3203,9426 -3216,9512 -3250,9546 -3327,9545 -3394,9490 -3422,9426 -3398,9393 -3368,9384 " style="fill: white; stroke: black; stroke-width: 30" />
<polyline points="-3007,9362 -3036,9361 -3067,9387 -3125,9487 -3150,9599 -3107,9665 -3002,9709 -2868,9691 -2795,9661 -2783,9648 -2790,9614 -2814,9540 -2838,9510 -2873,9522 -2913,9600 -2918,9690 -2863,9741 -2787,9756 -2703,9747 -2680,9740 " style="fill: white; stroke: black; stroke-width: 30" />
<polyline points="-2598,9814 -2592,9804 -2539,9745 -2454,9662 -2397,9594 -2392,9561 -2418,9519 -2467,9486 -2528,9496 -2561,9516 -2573,9548 -2567,9601 -2531,9666 -2445,9728 -2345,9766 -2281,9802 " style="fill: white; stroke: black; stroke-width: 30" />
<polyline points="-1538,9377 -1538,9355 -1551,9359 -1562,9408 -1615,9562 -1623,9690 -1560,9770 -1436,9804 -1294,9782 -1196,9747 -1172,9720 " style="fill: white; stroke: black; stroke-width: 30" />
<polyline points="-1133,9562 -1133,9562 -1209,9609 -1291,9691 -1292,9742 -1215,9758 -1075,9702 -968,9636 -960,9605 -1037,9584 -1163,9590 -1209,9595 -1176,9581 -1057,9532 -983,9524 " style="fill: white; stroke: black; stroke-width: 30" />
<polyline points="-700,9655 -701,9638 -719,9620 -745,9598 -791,9588 -847,9608 -875,9649 -855,9684 -778,9707 -693,9711 -678,9731 -697,9797 -745,9911 -786,10019 -801,10063 -814,10039 -853,9931 -868,9838 -838,9768 -764,9698 -641,9642 -531,9572 -479,9523 -488,9517 -511,9530 -552,9646 -557,9773 -515,9840 -457,9790 -423,9650 " style="fill: white; stroke: black; stroke-width: 30" />
<polyline points="-453,9324 -483,9329 -505,9348 -501,9363 -498,9392 -480,9426 " style="fill: white; stroke: black; stroke-width: 30" />
<polyline points="-428,9773 -394,9762 -332,9704 -287,9652 -271,9639 -264,9666 -261,9767 " style="fill: white; stroke: black; stroke-width: 30" />
<polyline points="631,7766 617,7743 590,7730 562,7735 555,7764 577,7833 619,7924 655,8006 632,8081 582,8112 526,8094 468,8022 " style="fill: white; stroke: black; stroke-width: 30" />
<polyline points="579,7761 569,7747 580,7742 630,7753 700,7781 796,7808 " style="fill: white; stroke: black; stroke-width: 30" />
<polyline points="946,7872 932,7845 924,7844 910,7864 886,7941 875,8025 876,8063 889,8054 936,7967 953,7858 944,7813 933,7816 909,7848 904,7882 947,7917 1011,7930 1067,7925 1121,7901 1149,7858 1168,7819 1167,7809 1165,7813 1162,7831 1152,7895 1149,7960 1144,8020 1147,8061 1163,8055 " style="fill: white; stroke: black; stroke-width: 30" />
<polyline points="1350,7866 1350,7882 1328,7945 1293,8042 1275,8096 1271,8098 1296,8056 1329,7962 1344,7858 1349,7800 1342,7779 1345,7776 1366,7783 1416,7808 1461,7840 1470,7853 1453,7858 1401,7859 1369,7863 1381,7890 1436,7975 1524,8046 1535,8083 1471,8099 1344,8081 1282,8045 1278,8038 1296,8047 1343,8064 " style="fill: white; stroke: black; stroke-width: 30" />
<polyline points="626,8365 619,8342 616,8328 616,8318 614,8318 602,8327 584,8364 569,8434 570,8518 577,8586 581,8634 573,8648 550,8640 490,8597 439,8535 417,8488 " style="fill: white; stroke: black; stroke-width: 30" />
<polyline points="559,8294 566,8296 607,8305 663,8316 744,8329 844,8336 922,8345 " style="fill: white; stroke: black; stroke-width: 30" />
<polyline points="406,7951 365,7945 367,7944 426,7936 620,7904 900,7883 1193,7872 1385,7888 1418,7913 1363,7940 1197,7971 973,7983 733,7984 556,7997 498,8009 508,8019 586,8053 726,8056 962,8044 1228,8030 1416,8035 1455,8049 1395,8067 1188,8110 897,8149 668,8151 564,8138 557,8135 639,8137 805,8117 1009,8089 1203,8064 " style="fill: white; stroke: black; stroke-width: 30" />
<polyline points="846,8594 856,8538 856,8473 859,8409 894,8360 963,8358 1065,8430 1135,8524 1144,8588 1085,8625 955,8613 835,8562 787,8513 781,8500 " style="fill: white; stroke: black; stroke-width: 30" />
<polyline points="1258,8482 1313,8403 1404,8379 1474,8431 1475,8545 1410,8644 1333,8686 1249,8652 1179,8567 1132,8497 1121,8478 " style="fill: white; stroke: black; stroke-width: 30" />
<polyline points="1737,8417 1735,8451 1711,8529 1662,8614 1650,8643 1656,8642 1683,8600 1725,8500 1746,8382 1731,8330 1723,8317 1728,8316 1732,8321 1735,8326 1724,8333 1729,8335 1730,8338 1735,8343 1738,8365 1749,8412 1771,8445 1808,8479 1869,8498 1956,8480 2029,8440 2047,8419 2037,8420 2028,8432 1992,8496 1997,8572 2000,8640 2002,8704 2004,8701 " style="fill: white; stroke: black; stroke-width: 30" />
<polyline points="2236,8468 2240,8502 2210,8594 2193,8685 2185,8747 2178,8757 2182,8728 2189,8640 2188,8515 2198,8428 2213,8399 2256,8396 2309,8433 2350,8502 2347,8557 2308,8583 2245,8579 2225,8580 2256,8610 2321,8736 2345,8833 2275,8892 2170,8876 2101,8786 2109,8693 " style="fill: white; stroke: black; stroke-width: 30" />
<polyline points="-3968,6880 -3976,6881 -3977,6882 -3973,6880 -3965,6881 -3952,6881 -3906,6889 -3801,6900 -3594,6884 -3294,6865 -2938,6853 -2540,6855 -2089,6869 -1596,6875 -1008,6874 -396,6878 228,6893 833,6910 1344,6935 1709,6957 1895,6978 1954,6984 1966,6985 1968,6985 1961,6983 1957,6981 1953,6979 1950,6980 1954,6981 1953,6985 1959,6987 1958,6984 1961,6986 1962,6985 " style="fill: white; stroke: black; stroke-width: 30" />
<polyline points="-8523,6801 -8480,6758 -8441,6751 -8394,6796 -8359,6895 -8385,6955 -8430,6951 -8479,6877 -8510,6790 -8521,6775 " style="fill: white; stroke: black; stroke-width: 30" />
<polyline points="-8315,6912 -8303,6996 -8268,7166 -8183,7316 -8061,7408 -7992,7425 -7974,7436 " style="fill: white; stroke: black; stroke-width: 30" />
<polyline points="-8221,7654 -8226,7624 -8209,7547 -8107,7451 -7931,7353 -7792,7339 -7729,7375 " style="fill: white; stroke: black; stroke-width: 30" />
<polyline points="-8535,7226 -8429,7133 -8202,6998 -7991,6869 " style="fill: white; stroke: black; stroke-width: 30" />
<polyline points="-3979,10339 -4001,10308 -3939,10287 -3762,10261 -3449,10229 -3008,10183 -2439,10132 -1795,10084 -1053,10049 -267,10014 475,9987 1020,9980 " style="fill: white; stroke: black; stroke-width: 30" />
<polyline points="2594,9894 2590,9855 2583,9839 2581,9840 2583,9862 2581,9961 2589,10084 2622,10159 2678,10189 2734,10166 2785,10107 2793,10092 2799,10098 2802,10115 2846,10145 2937,10130 2989,10093 2996,10055 2979,10016 2949,9956 2936,9916 2913,9894 2903,9883 2903,9907 " style="fill: white; stroke: black; stroke-width: 30" />
<polyline points="3087,10076 3097,10082 3147,10080 3203,10040 3237,9996 3217,9967 3168,9952 3092,9976 3046,10034 3046,10114 3125,10160 3229,10136 3295,10073 " style="fill: white; stroke: black; stroke-width: 30" />
<polyline points="3290,9887 3294,9847 3296,9842 3282,9860 3271,9935 3246,10029 3252,10103 3282,10120 3326,10101 3361,10077 3358,10078 3353,10091 3341,10113 3352,10125 3353,10125 3336,10125 3296,10124 3272,10129 3269,10127 3280,10114 3293,10096 " style="fill: white; stroke: black; stroke-width: 30" />
<polyline points="3390,10135 3375,10136 3375,10136 3396,10131 3420,10118 3437,10100 3433,10096 3440,10093 3437,10095 3446,10094 3441,10097 3472,10094 3491,10099 3516,10117 3519,10138 3528,10157 3535,10156 3537,10145 3547,10130 3556,10127 3569,10121 3568,10102 3572,10068 3572,10054 3574,10054 3586,10061 3593,10080 3609,10099 3612,10113 3607,10137 3582,10153 3563,10159 3553,10154 3558,10151 3557,10154 3568,10157 3591,10152 3619,10143 3636,10139 3648,10139 3665,10133 3707,10111 3752,10080 3798,10041 3804,10029 3807,10022 3800,10020 3803,10021 3796,10036 3788,10097 3795,10160 3808,10201 3837,10204 3849,10168 " style="fill: white; stroke: black; stroke-width: 30" />
<polyline points="3842,9847 3850,9858 3856,9880 3860,9896 3875,9898 3887,9889 3920,9851 3936,9831 3952,9827 " style="fill: white; stroke: black; stroke-width: 30" />
<polyline points="4008,9835 3996,9861 3961,9926 3932,10029 3921,10113 3922,10169 3940,10200 3930,10238 " style="fill: white; stroke: black; stroke-width: 30" />
<polyline points="-3838,8358 -3760,8375 -3599,8377 -3355,8370 -3001,8361 -2557,8347 -2066,8340 -1550,8327 -1099,8318 -778,8305 " style="fill: white; stroke: black; stroke-width: 30" />
<polyline points="-3869,7523 -3860,7537 -3865,7637 -3867,7838 -3855,8104 -3825,8341 -3768,8476 -3722,8540 -3707,8526 " style="fill: white; stroke: black; stroke-width: 30" />
<polyline points="-3998,7524 -3840,7551 -3523,7571 " style="fill: white; stroke: black; stroke-width: 30" />
<polyline points="-2001,7580 -1538,7589 -1160,7608 " style="fill: white; stroke: black; stroke-width: 30" />
<polyline points="-1004,7623 -1069,7862 -1166,8201 " style="fill: white; stroke: black; stroke-width: 30" />
<polyline points="-3828,9200 -3713,9181 -3455,9173 -3051,9172 -2530,9170 -1959,9163 -1441,9156 -1046,9143 -788,9112 -725,9063 " style="fill: white; stroke: black; stroke-width: 30" />
<polyline points="-3868,8192 -3846,8255 -3785,8425 -3697,8729 -3640,9077 " style="fill: white; stroke: black; stroke-width: 30" />
<polyline points="-3697,8370 -3516,8374 -3194,8374 -2737,8354 -2174,8338 -1612,8326 -1125,8319 -787,8323 " style="fill: white; stroke: black; stroke-width: 30" />
<polyline points="-1365,8321 -1403,8329 -1418,8422 -1428,8601 -1399,8837 -1370,9076 -1343,9293 -1324,9433 " style="fill: white; stroke: black; stroke-width: 30" />
<polyline points="299,9034 263,9042 219,9056 " style="fill: white; stroke: black; stroke-width: 30" />
<polyline points="123,9071 97,9067 125,9070 274,9066 589,9064 986,9067 1435,9075 1918,9071 2351,9081 2689,9105 2881,9131 2940,9127 2946,9075 2916,8993 " style="fill: white; stroke: black; stroke-width: 30" />
<polyline points="99,7955 103,7951 115,8002 132,8170 146,8461 140,8763 129,8971 123,9092 133,9123 " style="fill: white; stroke: black; stroke-width: 30" />
<polyline points="-239,8096 -173,8095 50,8102 435,8119 874,8152 1328,8205 1836,8249 2340,8282 2740,8297 3012,8301 3190,8298 3289,8289 3347,8269 3342,8253 " style="fill: white; stroke: black; stroke-width: 30" />
<polyline points="2956,8173 2961,8279 2915,8495 2824,8766 2751,9024 2716,9231 " style="fill: white; stroke: black; stroke-width: 30" />

</svg>