<?xml version="1.0" standalone="no"?>
<!DOCTYPE svg PUBLIC "-//W3C//DTD SVG 1.1//EN" "http://www.w3.org/Graphics/SVG/1.1/DTD/svg11.dtd">
<svg width="210mm" height="297mm" viewBox="-7000 500 14000 20000" version="1.1" xmlns="http://www.w3.org/2000/svg">

<polyline points="-3053,872 -3043,883 -3031,887 -3012,906 -3002,900 -2993,897 -2988,894 -2987,885 -2993,873 -3021,830 -3049,799 -3079,755 -3110,713 -3142,669 -3170,646 -3185,647 -3201,667 -3221,678 -3244,708 -3267,738 -3286,770 -3302,816 -3315,850 -3324,894 -3332,959 -3339,1008 -3348,1069 -3353,1141 -3351,1173 -3347,1180 -3349,1176 -3347,1177 -3347,1180 -3348,1174 -3344,1182 -3347,1177 -3350,1175 -3352,1175 -3348,1170 " style="fill: white; stroke: black; stroke-width: 30" />
<polyline points="-3082,1240 -3068,1254 -3064,1249 -3064,1246 -3069,1237 -3086,1211 -3110,1159 -3127,1121 -3141,1088 -3164,1035 -3180,1016 -3180,1025 -3170,1048 -3142,1104 -3104,1162 -3077,1214 -3048,1263 -3036,1275 -3034,1273 -3038,1268 -3046,1260 -3062,1243 -3072,1226 -3093,1194 -3111,1165 -3127,1143 -3136,1127 " style="fill: white; stroke: black; stroke-width: 30" />
<polyline points="-2835,1263 -2823,1273 -2815,1277 -2820,1281 -2849,1289 -2883,1297 -2902,1292 -2899,1286 -2882,1260 -2850,1240 -2824,1238 -2814,1252 -2812,1273 -2819,1293 -2833,1308 -2844,1308 -2847,1303 -2837,1285 -2814,1266 -2790,1258 -2785,1257 -2790,1265 -2812,1277 -2832,1295 " style="fill: white; stroke: black; stroke-width: 30" />
<polyline points="-3185,1450 -3161,1448 -3145,1451 -3138,1466 -3135,1501 -3149,1519 -3166,1520 -3185,1511 -3193,1492 -3187,1474 -3170,1458 -3149,1456 -3133,1462 -3132,1471 -3145,1500 -3167,1536 -3180,1551 -3187,1552 -3184,1543 -3169,1506 -3152,1495 -3151,1493 -3150,1493 -3151,1499 -3163,1506 " style="fill: white; stroke: black; stroke-width: 30" />
<polyline points="-2662,1667 -2688,1659 -2714,1635 -2746,1602 -2776,1572 -2808,1543 " style="fill: white; stroke: black; stroke-width: 30" />
<polyline points="-2740,1805 -2730,1794 -2754,1749 -2797,1694 -2843,1639 -2877,1608 " style="fill: white; stroke: black; stroke-width: 30" />
<polyline points="-2890,1899 -2874,1881 -2878,1844 -2894,1787 -2921,1752 -2943,1752 " style="fill: white; stroke: black; stroke-width: 30" />
<polyline points="-3007,1969 -3003,1948 -2996,1898 -2986,1828 -2996,1793 -3014,1769 " style="fill: white; stroke: black; stroke-width: 30" />
<polyline points="-3190,3995 -3186,4000 -3186,4000 -3196,3981 -3214,3938 -3231,3889 -3243,3843 -3252,3805 -3270,3766 -3276,3752 -3281,3742 -3282,3740 -3279,3737 " style="fill: white; stroke: black; stroke-width: 30" />
<polyline points="-3198,3840 -3193,3839 -3190,3841 -3216,3850 -3253,3866 -3294,3886 -3329,3911 -3359,3932 -3371,3939 " style="fill: white; stroke: black; stroke-width: 30" />
<polyline points="-3355,4091 -3333,4076 -3332,4052 -3350,4009 -3372,3961 -3388,3923 -3403,3884 -3411,3849 -3419,3817 " style="fill: white; stroke: black; stroke-width: 30" />
<polyline points="-3561,3974 -3556,3968 -3563,3945 -3572,3927 -3587,3910 -3599,3909 " style="fill: white; stroke: black; stroke-width: 30" />
<polyline points="-3548,4077 -3516,4078 -3503,4076 -3504,4076 -3508,4078 -3518,4078 " style="fill: white; stroke: black; stroke-width: 30" />
<polyline points="2867,1260 2878,1287 2889,1285 2895,1280 2894,1281 2892,1289 2882,1294 2870,1289 2839,1271 2800,1223 2744,1149 2701,1083 2676,1063 2672,1061 2670,1062 2673,1063 2673,1061 2675,1059 2673,1057 " style="fill: white; stroke: black; stroke-width: 30" />
<polyline points="2833,1368 2840,1386 2841,1382 2833,1368 2793,1329 2751,1257 2713,1197 2679,1161 2652,1139 2644,1140 2650,1146 " style="fill: white; stroke: black; stroke-width: 30" />
<polyline points="2789,1489 2773,1471 2736,1409 2691,1326 2648,1267 2613,1231 2591,1216 2584,1215 " style="fill: white; stroke: black; stroke-width: 30" />
<polyline points="2715,1620 2703,1586 2660,1486 2605,1383 2556,1315 2523,1285 2499,1266 " style="fill: white; stroke: black; stroke-width: 30" />
<polyline points="2692,885 2678,933 2654,1045 2641,1235 2620,1490 2591,1687 2563,1765 " style="fill: white; stroke: black; stroke-width: 30" />
<polyline points="95,868 101,881 107,880 116,877 129,857 136,823 126,775 100,731 69,712 35,706 5,721 -10,771 -6,834 13,876 50,898 96,914 128,906 140,897 132,889 104,867 " style="fill: white; stroke: black; stroke-width: 30" />
<polyline points="225,715 228,714 233,715 245,727 259,743 272,767 286,797 289,824 286,847 279,875 253,898 223,918 192,932 167,948 149,955 138,959 120,956 103,957 88,958 77,965 66,971 52,981 42,984 36,993 30,1000 30,1012 35,1027 52,1049 79,1067 108,1082 129,1081 155,1084 176,1079 197,1065 218,1048 241,1036 260,1018 275,1003 290,980 306,955 317,928 326,910 331,888 338,867 348,844 352,831 355,816 356,799 356,781 355,766 347,746 339,733 326,715 314,714 297,714 277,723 258,739 243,768 225,796 " style="fill: white; stroke: black; stroke-width: 30" />
<polyline points="20,1026 23,1034 20,1042 2,1063 -38,1097 -86,1154 -142,1224 -190,1300 -248,1369 -311,1422 -350,1451 -364,1462 -370,1465 -372,1465 -372,1463 -376,1465 -376,1465 -378,1464 -379,1464 -382,1466 -401,1478 " style="fill: white; stroke: black; stroke-width: 30" />
<polyline points="-555,1636 -535,1631 -527,1611 -536,1585 -562,1549 -596,1527 -623,1528 -635,1550 -629,1588 -613,1621 -595,1629 -578,1627 -570,1620 -574,1620 " style="fill: white; stroke: black; stroke-width: 30" />
<polyline points="-478,1445 -473,1448 -473,1447 -470,1451 -466,1454 -462,1456 -458,1455 -452,1459 -445,1463 -439,1473 -429,1484 -420,1498 -408,1512 -397,1525 -388,1535 -380,1557 -376,1573 -374,1584 -376,1597 -381,1613 -388,1634 -399,1660 -414,1678 -428,1699 -442,1713 -460,1729 -482,1742 -499,1757 -518,1766 -533,1774 -556,1787 -577,1797 -591,1798 -606,1796 -624,1784 -644,1775 -659,1763 -678,1740 -692,1716 -699,1699 -701,1680 -701,1663 -696,1648 -684,1643 -664,1640 -653,1644 -643,1646 -638,1654 -632,1669 -626,1692 -621,1712 -618,1732 -612,1748 -605,1757 -590,1764 -575,1764 -558,1758 -540,1752 -519,1734 -499,1707 -481,1676 -465,1644 -446,1607 -432,1587 -424,1564 -426,1555 -429,1547 -436,1533 -440,1529 -443,1527 -452,1522 -463,1515 -476,1503 -488,1500 -495,1500 -499,1508 -502,1512 -504,1514 -509,1513 -513,1516 -513,1516 -513,1516 -512,1505 -508,1488 -498,1462 -483,1441 -470,1429 -460,1427 -455,1429 " style="fill: white; stroke: black; stroke-width: 30" />
<polyline points="350,748 357,743 367,746 382,756 408,775 430,804 463,842 483,887 485,908 481,940 468,957 445,987 417,1014 387,1047 357,1077 328,1117 301,1151 275,1183 256,1205 234,1226 214,1244 197,1263 186,1275 181,1280 182,1281 184,1281 185,1279 184,1281 184,1280 184,1282 188,1278 194,1278 198,1274 203,1271 214,1266 239,1272 282,1285 322,1304 351,1321 370,1335 387,1352 413,1383 431,1410 433,1416 433,1415 433,1417 431,1420 428,1423 423,1426 416,1429 405,1436 397,1443 396,1443 395,1445 394,1444 381,1456 358,1464 340,1471 323,1470 303,1465 273,1447 258,1438 249,1423 242,1414 227,1398 216,1390 212,1385 205,1377 190,1356 179,1345 171,1340 172,1344 172,1341 173,1345 173,1343 173,1346 172,1345 " style="fill: white; stroke: black; stroke-width: 30" />
<polyline points="192,1336 189,1346 183,1353 171,1367 148,1391 124,1416 102,1437 86,1454 74,1459 69,1464 68,1463 70,1463 68,1462 69,1463 68,1460 69,1454 " style="fill: white; stroke: black; stroke-width: 30" />
<polyline points="65,1450 77,1455 87,1466 99,1496 100,1520 94,1543 85,1549 66,1555 40,1552 20,1546 5,1527 -7,1507 -11,1501 -11,1506 -9,1509 -9,1518 " style="fill: white; stroke: black; stroke-width: 30" />
<polyline points="-12,1512 -12,1527 -21,1542 -39,1577 -61,1632 -81,1720 -98,1809 -106,1874 -111,1918 -116,1954 -124,1978 -128,1989 -129,1988 -130,1990 -131,1988 -131,1988 -132,1982 -136,1956 -149,1876 -151,1791 -158,1744 -163,1741 -175,1750 -192,1781 -208,1821 -220,1874 -228,1903 -230,1905 -227,1887 -220,1842 -212,1800 -212,1797 -218,1798 -235,1819 -264,1846 -300,1869 -317,1865 -322,1844 -315,1810 -304,1794 -296,1790 -294,1789 -296,1782 -297,1777 -298,1771 -303,1768 -308,1760 -312,1756 -310,1752 -303,1754 -289,1756 -284,1759 -278,1760 -272,1768 -267,1770 -266,1773 " style="fill: white; stroke: black; stroke-width: 30" />
<polyline points="-133,1683 -128,1685 -123,1678 -119,1676 -119,1677 -119,1680 -122,1679 -125,1681 -134,1680 -133,1681 -135,1679 -134,1676 -134,1659 -127,1645 -117,1626 -104,1610 -88,1582 -77,1571 -76,1566 -76,1567 -75,1566 -74,1572 -76,1581 -87,1609 -110,1647 -143,1687 -182,1718 -228,1755 -262,1782 -289,1802 -304,1810 -315,1817 -326,1825 -350,1841 -378,1861 -388,1865 -399,1863 -415,1862 -424,1856 -435,1853 -455,1835 -473,1821 -490,1801 -497,1796 -499,1792 -507,1789 -524,1778 -533,1774 -539,1770 -539,1771 -540,1769 -539,1769 " style="fill: white; stroke: black; stroke-width: 30" />
<polyline points="174,1342 183,1352 184,1346 181,1343 163,1327 119,1297 85,1259 42,1206 18,1183 6,1173 -1,1166 -11,1159 -21,1156 -22,1165 " style="fill: white; stroke: black; stroke-width: 30" />
<polyline points="86,1460 89,1462 72,1454 39,1426 -3,1390 -41,1356 -72,1326 -98,1307 -119,1287 -133,1275 -136,1275 " style="fill: white; stroke: black; stroke-width: 30" />
<polyline points="29,1270 34,1276 38,1289 40,1308 34,1330 27,1354 22,1357 8,1355 -6,1337 " style="fill: white; stroke: black; stroke-width: 30" />
<polyline points="-473,1116 -456,1112 -437,1113 -417,1113 -391,1109 -362,1089 -339,1062 -334,1042 -353,1013 -379,989 -405,983 -419,981 -444,993 -484,1035 " style="fill: white; stroke: black; stroke-width: 30" />
<polyline points="-605,1164 -600,1171 -593,1172 -585,1173 -582,1171 -582,1181 -587,1201 -591,1209 -605,1214 -637,1217 -672,1205 -697,1196 -703,1187 -700,1177 -678,1148 -651,1130 -628,1119 -607,1122 -594,1126 -585,1135 -578,1140 -577,1144 -578,1143 -584,1169 -610,1246 " style="fill: white; stroke: black; stroke-width: 30" />
<polyline points="-685,1459 -681,1459 -683,1453 -693,1450 -705,1447 -719,1448 -730,1445 -743,1448 -760,1448 -761,1450 -757,1440 -738,1394 -723,1353 -723,1345 -722,1345 -725,1348 -732,1351 -750,1363 -780,1380 -815,1412 -846,1457 " style="fill: white; stroke: black; stroke-width: 30" />
<polyline points="-479,687 -471,676 -465,667 -464,667 -461,662 -466,666 -498,687 -609,760 -777,863 -1012,1014 -1316,1188 " style="fill: white; stroke: black; stroke-width: 30" />
<polyline points="-4088,4500 -4095,4495 -4128,4449 -4170,4378 -4227,4281 -4271,4164 -4292,4050 -4291,3922 -4271,3796 -4237,3669 -4184,3546 -4125,3433 -4058,3330 -3969,3245 -3868,3170 -3771,3088 -3680,3000 -3572,2907 -3467,2812 -3356,2730 -3270,2650 -3194,2564 -3146,2454 -3106,2327 -3082,2198 -3075,2069 -3092,1948 -3120,1849 -3142,1790 -3151,1758 -3156,1745 -3155,1744 " style="fill: white; stroke: black; stroke-width: 30" />
<polyline points="-4382,1846 -4423,1865 -4473,1888 -4521,1937 -4554,1994 -4577,2065 -4581,2156 -4558,2262 -4520,2359 -4467,2455 -4401,2557 -4307,2682 -4186,2810 -4058,2915 -3912,3006 -3754,3093 -3584,3177 -3417,3263 -3251,3359 -3099,3466 -2974,3574 -2852,3699 -2763,3833 -2733,3972 -2748,4110 -2776,4205 -2823,4263 -2867,4298 -2933,4291 " style="fill: white; stroke: black; stroke-width: 30" />
<polyline points="-4474,3133 -4453,3138 -4421,3121 -4347,3097 -4201,3049 -4016,3002 -3793,2985 -3563,2986 -3341,2971 -3124,2938 -2914,2900 -2743,2872 -2630,2844 -2599,2821 " style="fill: white; stroke: black; stroke-width: 30" />
<polyline points="-4262,4631 -4178,4609 -4054,4607 -3882,4617 -3677,4639 -3428,4688 -3177,4731 -2939,4752 -2756,4733 -2614,4690 -2514,4616 -2452,4512 -2427,4362 -2452,4148 -2521,3867 -2588,3551 -2669,3200 -2751,2849 -2824,2503 -2876,2183 -2891,1902 -2899,1660 -2915,1449 -2955,1290 -3020,1191 " style="fill: white; stroke: black; stroke-width: 30" />
<polyline points="-3212,1283 -3166,1267 -3126,1180 -3116,1018 -3140,828 -3161,689 -3157,648 -3147,650 -3107,684 -3016,788 -2911,964 -2774,1198 -2636,1418 -2533,1573 -2501,1637 " style="fill: white; stroke: black; stroke-width: 30" />
<polyline points="-3945,4952 -3932,4939 -3954,4897 -4072,4801 -4291,4686 -4474,4574 -4577,4482 -4597,4439 -4598,4381 -4564,4311 -4471,4244 -4306,4230 -4137,4230 -4047,4194 " style="fill: white; stroke: black; stroke-width: 30" />
<polyline points="3516,1149 3505,1150 3502,1137 3496,1094 3490,998 3475,845 3452,664 3440,537 3444,517 3451,534 3456,546 3456,546 3457,546 3458,534 " style="fill: white; stroke: black; stroke-width: 30" />
<polyline points="3390,1057 3418,1091 3427,1107 3489,1101 3584,1073 3681,1040 3784,1005 3862,987 3932,971 3969,964 3969,964 3965,966 3961,963 3960,965 3958,965 3955,954 3943,898 3924,802 3909,694 3905,556 3898,396 3882,229 3873,126 3880,94 3883,166 3918,240 " style="fill: white; stroke: black; stroke-width: 30" />
<polyline points="3327,311 3325,336 3333,354 3382,362 3464,360 3578,334 3729,299 3904,297 4050,286 4148,313 4182,298 " style="fill: white; stroke: black; stroke-width: 30" />
<polyline points="3939,426 3926,458 3913,502 3903,539 3884,577 3869,624 3865,684 3883,720 3889,760 3883,798 3854,841 3813,881 3741,907 3642,911 3554,926 3522,931 3528,919 3570,848 3635,778 3698,749 3761,750 3814,799 3834,834 3811,858 3752,884 3659,913 3587,932 3559,959 3554,951 " style="fill: white; stroke: black; stroke-width: 30" />
<polyline points="2914,373 2946,394 2981,451 3000,514 3035,603 3071,736 3076,870 3066,1009 3052,1105 3040,1161 3011,1205 2958,1221 2838,1232 2699,1225 2582,1198 2507,1167 2465,1135 2431,1096 2398,1051 2377,1007 2377,964 2420,880 2497,764 2599,657 2723,549 2864,436 2961,338 3047,238 3107,150 3131,126 3137,16 " style="fill: white; stroke: black; stroke-width: 30" />
<polyline points="2884,633 2854,676 2803,733 2728,824 2649,935 2599,1022 " style="fill: white; stroke: black; stroke-width: 30" />
<polyline points="2953,1037 2960,1048 2941,996 2840,841 2688,676 2560,540 2480,457 " style="fill: white; stroke: black; stroke-width: 30" />
<polyline points="-2861,7769 -2856,7754 -2849,7740 -2846,7717 -2848,7678 -2849,7613 -2853,7529 -2858,7444 -2863,7382 -2866,7327 -2871,7306 -2874,7281 -2875,7270 -2872,7266 -2862,7273 " style="fill: white; stroke: black; stroke-width: 30" />
<polyline points="-3041,7705 -3021,7718 -3012,7724 -3007,7726 -3013,7708 -3014,7682 -3019,7635 -3035,7565 -3058,7472 -3078,7373 -3103,7300 -3113,7257 -3123,7230 -3127,7205 -3123,7201 -3121,7203 -3121,7203 " style="fill: white; stroke: black; stroke-width: 30" />
<polyline points="-2454,7028 -2449,7028 -2447,7018 -2451,6978 -2467,6908 -2497,6828 -2545,6750 -2607,6686 -2680,6641 -2776,6619 -2889,6621 -3015,6652 -3138,6711 -3245,6792 -3322,6860 -3383,6925 -3440,6997 -3475,7050 -3482,7081 -3484,7108 " style="fill: white; stroke: black; stroke-width: 30" />
<polyline points="-2408,8177 -2419,8173 -2427,8170 -2449,8153 -2477,8108 -2505,8064 -2527,8029 -2548,7996 -2575,7969 -2602,7944 -2623,7917 -2653,7907 -2666,7914 " style="fill: white; stroke: black; stroke-width: 30" />
<polyline points="-2490,8414 -2495,8380 -2551,8327 -2604,8245 -2649,8159 -2679,8075 -2714,8007 -2733,7979 -2735,7979 " style="fill: white; stroke: black; stroke-width: 30" />
<polyline points="-2781,8497 -2770,8507 -2767,8487 -2768,8431 -2769,8339 -2770,8234 -2786,8137 -2804,8069 -2830,8043 -2853,8053 " style="fill: white; stroke: black; stroke-width: 30" />
<polyline points="-3065,8524 -3041,8472 -3029,8389 -2996,8291 -2977,8197 -2968,8141 -2983,8116 " style="fill: white; stroke: black; stroke-width: 30" />
<polyline points="-3288,8458 -3229,8422 -3185,8370 -3148,8308 -3129,8249 -3127,8202 -3119,8171 " style="fill: white; stroke: black; stroke-width: 30" />
<polyline points="-3505,8419 -3427,8379 -3357,8316 -3321,8256 -3318,8193 -3329,8147 -3335,8099 -3328,8082 " style="fill: white; stroke: black; stroke-width: 30" />

</svg>