<?xml version="1.0" standalone="no"?>
<!DOCTYPE svg PUBLIC "-//W3C//DTD SVG 1.1//EN" "http://www.w3.org/Graphics/SVG/1.1/DTD/svg11.dtd">
<svg width="210mm" height="297mm" viewBox="-7000 500 14000 20000" version="1.1" xmlns="http://www.w3.org/2000/svg">

<polyline points="625,3902 705,3890 863,3866 1142,3828 1492,3789 1865,3767 2233,3756 2544,3756 2747,3761 2834,3751 2816,3734 " style="fill: white; stroke: black; stroke-width: 30" />
<polyline points="767,3830 761,3813 759,3809 760,3820 767,3883 778,4019 790,4202 817,4403 853,4611 879,4803 894,4952 906,5050 927,5102 947,5128 959,5141 " style="fill: white; stroke: black; stroke-width: 30" />
<polyline points="1026,5303 1010,5303 1003,5303 1004,5305 1056,5318 1202,5319 1487,5300 1880,5276 2317,5267 2693,5266 2930,5264 3000,5254 2990,5237 2963,5194 " style="fill: white; stroke: black; stroke-width: 30" />
<polyline points="3117,3912 3106,3908 3104,3925 3090,4004 3051,4160 3017,4366 2985,4613 2975,4877 3007,5113 3048,5295 3057,5418 3023,5483 " style="fill: white; stroke: black; stroke-width: 30" />
<polyline points="818,4232 793,4241 785,4245 796,4249 846,4253 977,4247 1185,4233 1499,4204 1906,4171 2333,4138 2713,4110 2960,4089 " style="fill: white; stroke: black; stroke-width: 30" />
<polyline points="2811,4007 2814,4000 2827,3990 2857,3969 2917,3926 2969,3890 2995,3865 3002,3839 2968,3823 " style="fill: white; stroke: black; stroke-width: 30" />
<polyline points="2838,3846 2849,3854 2876,3894 2915,3965 2986,4041 " style="fill: white; stroke: black; stroke-width: 30" />
<polyline points="1218,4437 1215,4433 1217,4433 1215,4437 1213,4461 1214,4497 1226,4536 1249,4564 1279,4590 1316,4605 1354,4610 1382,4592 1394,4573 1393,4564 1390,4564 1388,4564 1389,4567 1391,4570 1394,4576 1398,4597 1410,4630 1429,4660 1460,4678 1495,4677 1541,4649 1568,4618 1590,4578 1593,4534 1578,4500 1563,4481 1556,4476 1557,4476 1556,4477 1557,4478 1558,4480 1564,4491 " style="fill: white; stroke: black; stroke-width: 30" />
<polyline points="1628,4633 1657,4630 1710,4622 1752,4600 1768,4575 1771,4538 1749,4496 1706,4494 1644,4534 1607,4594 1628,4646 1698,4688 1790,4712 1870,4707 " style="fill: white; stroke: black; stroke-width: 30" />
<polyline points="1925,4365 1923,4370 1915,4415 1904,4534 1899,4645 1912,4707 1924,4721 1969,4671 2022,4621 2038,4616 2052,4649 2066,4690 2067,4725 2049,4736 2010,4738 1957,4736 1939,4727 1928,4714 1915,4697 " style="fill: white; stroke: black; stroke-width: 30" />
<polyline points="-2970,3861 -3029,3859 " style="fill: white; stroke: black; stroke-width: 30" />
<polyline points="-3115,3841 -3130,3840 -3123,3841 -3073,3836 -2930,3830 -2698,3830 -2382,3834 -1982,3824 -1559,3809 -1220,3818 -1020,3840 " style="fill: white; stroke: black; stroke-width: 30" />
<polyline points="-3270,3908 -3242,3923 -3217,3973 -3213,4063 -3218,4183 -3217,4335 -3224,4518 -3241,4720 -3253,4930 -3243,5131 -3205,5299 " style="fill: white; stroke: black; stroke-width: 30" />
<polyline points="-3150,5530 -3137,5540 -3078,5571 -2952,5600 -2733,5621 -2404,5634 -1988,5640 -1538,5656 -1163,5675 -942,5689 " style="fill: white; stroke: black; stroke-width: 30" />
<polyline points="-841,3884 -836,3885 -836,3956 -832,4091 -823,4280 -807,4515 -797,4780 -790,5032 -769,5261 -742,5448 -731,5572 -742,5590 " style="fill: white; stroke: black; stroke-width: 30" />
<polyline points="-2780,4087 -2781,4057 -2782,4057 -2787,4079 -2791,4175 -2781,4299 -2759,4387 -2734,4412 -2713,4384 -2699,4276 -2717,4151 -2751,4032 -2775,3999 -2782,3996 -2781,4000 -2777,4016 -2764,4059 -2737,4121 -2664,4194 -2566,4231 -2458,4221 -2404,4184 -2394,4147 -2397,4108 -2400,4091 -2401,4088 -2400,4102 -2398,4151 -2406,4243 -2405,4350 -2391,4413 -2360,4423 " style="fill: white; stroke: black; stroke-width: 30" />
<polyline points="-2222,4302 -2226,4284 -2224,4266 -2200,4231 -2164,4194 -2135,4180 -2104,4214 -2077,4310 -2082,4411 -2095,4458 -2110,4462 -2155,4422 -2186,4371 -2187,4359 -2178,4369 -2137,4401 -2075,4423 -2030,4426 -1965,4400 -1922,4374 -1912,4362 -1918,4354 -1924,4347 -1925,4340 -1925,4341 -1926,4344 -1926,4348 -1929,4348 -1928,4349 -1928,4348 -1927,4349 -1929,4350 -1928,4350 -1928,4349 -1925,4348 -1926,4345 -1923,4339 -1920,4321 -1915,4299 -1915,4287 -1917,4274 -1915,4270 -1914,4273 -1916,4283 -1918,4322 -1921,4367 -1912,4417 -1893,4454 " style="fill: white; stroke: black; stroke-width: 30" />
<polyline points="-1892,4089 -1894,4084 -1891,4083 -1889,4081 -1870,4087 -1831,4083 " style="fill: white; stroke: black; stroke-width: 30" />
<polyline points="-1718,4112 -1722,4120 -1719,4184 -1730,4352 -1739,4506 -1739,4613 " style="fill: white; stroke: black; stroke-width: 30" />
<polyline points="-3244,6623 -3238,6611 -3243,6632 -3253,6746 -3282,6963 -3282,7234 -3275,7558 -3284,7860 -3317,8091 -3341,8220 " style="fill: white; stroke: black; stroke-width: 30" />
<polyline points="-3403,8493 -3363,8480 -3288,8471 -3177,8461 -3025,8449 -2825,8441 -2556,8447 -2231,8456 -1827,8448 -1410,8437 -1100,8442 -942,8462 " style="fill: white; stroke: black; stroke-width: 30" />
<polyline points="-3229,6745 -3241,6736 -3244,6732 -3210,6742 -3081,6744 -2827,6728 -2463,6705 -2053,6689 -1682,6690 -1402,6711 -1216,6732 -1134,6741 -1130,6738 -1133,6735 -1134,6731 -1128,6724 -1119,6719 -1115,6719 -1114,6722 -1110,6732 -1103,6750 -1097,6804 -1094,6903 -1085,7060 -1063,7262 -1037,7488 -1024,7731 -1003,7965 -993,8166 -995,8312 -997,8400 -988,8443 -976,8454 -970,8437 -954,8378 " style="fill: white; stroke: black; stroke-width: 30" />
<polyline points="-2984,6953 -2992,6947 -2986,6957 -2991,7005 -2993,7095 -2990,7191 -2975,7243 -2964,7255 " style="fill: white; stroke: black; stroke-width: 30" />
<polyline points="-3042,6892 -3029,6873 -2964,6854 -2836,6882 -2737,6970 -2725,7097 -2788,7221 -2883,7296 -2959,7306 -3009,7269 -3014,7222 -2979,7186 -2920,7170 " style="fill: white; stroke: black; stroke-width: 30" />
<polyline points="-2687,7228 -2702,7271 -2700,7289 -2677,7264 -2640,7198 -2612,7130 -2573,7093 -2541,7100 -2514,7187 -2528,7278 -2546,7321 -2543,7306 " style="fill: white; stroke: black; stroke-width: 30" />
<polyline points="-2321,7090 -2332,7083 -2336,7076 -2335,7080 -2343,7102 -2354,7141 -2342,7193 -2304,7264 -2280,7345 -2290,7390 -2303,7392 -2336,7367 -2374,7336 -2403,7315 -2402,7304 -2399,7277 " style="fill: white; stroke: black; stroke-width: 30" />
<polyline points="-2811,5244 -2798,5234 -2801,5234 -2806,5236 -2822,5240 -2869,5242 -2918,5254 -2932,5264 -2924,5291 -2883,5353 -2834,5422 -2823,5463 -2830,5468 -2845,5463 -2876,5443 -2888,5433 -2887,5429 -2882,5423 " style="fill: white; stroke: black; stroke-width: 30" />
<polyline points="-2733,5315 -2751,5316 -2767,5329 -2795,5379 -2797,5423 -2783,5449 -2735,5459 -2652,5407 -2582,5320 -2551,5265 -2559,5242 -2579,5234 -2586,5239 -2602,5274 -2634,5349 -2660,5427 -2656,5459 -2631,5455 -2564,5406 -2525,5392 -2520,5416 -2542,5473 -2548,5487 -2528,5434 -2485,5351 " style="fill: white; stroke: black; stroke-width: 30" />
<polyline points="-2385,5228 -2411,5244 -2441,5306 -2466,5373 -2457,5405 -2424,5412 -2364,5400 -2314,5373 -2282,5329 -2276,5284 -2277,5263 -2277,5266 -2280,5286 -2300,5329 -2325,5392 -2333,5420 -2326,5422 -2301,5403 -2247,5362 -2216,5343 -2208,5354 -2210,5377 -2209,5393 -2213,5392 -2225,5413 -2242,5448 " style="fill: white; stroke: black; stroke-width: 30" />
<polyline points="-2255,5198 -2235,5203 -2201,5214 -2153,5227 -2134,5238 " style="fill: white; stroke: black; stroke-width: 30" />
<polyline points="-2068,5300 -2088,5303 -2084,5305 -2075,5338 -2068,5371 -2064,5386 -2070,5390 -2081,5389 -2087,5388 -2085,5386 -2080,5391 -2080,5390 -2067,5383 -2024,5361 " style="fill: white; stroke: black; stroke-width: 30" />
<polyline points="-1918,5292 -1932,5265 -1938,5255 -1937,5256 -1940,5267 -1943,5307 -1952,5358 -1960,5400 -1967,5419 -1976,5419 -1989,5415 -1987,5415 -1983,5415 -1965,5411 -1941,5395 -1870,5356 -1809,5324 -1807,5320 -1837,5327 -1870,5344 -1891,5357 -1874,5379 -1831,5415 -1761,5418 -1684,5376 -1629,5284 -1613,5198 -1625,5166 -1629,5167 -1639,5175 -1657,5219 -1678,5310 -1688,5397 -1653,5440 " style="fill: white; stroke: black; stroke-width: 30" />
<polyline points="-2918,7997 -2925,7990 -2937,7985 -2968,7985 -2998,7997 -3020,8010 -3031,8022 -3039,8045 -3038,8065 -3015,8113 -2982,8152 -2955,8186 -2962,8199 -2987,8206 -3022,8203 -3037,8197 -3042,8192 -3041,8191 -3032,8188 " style="fill: white; stroke: black; stroke-width: 30" />
<polyline points="-2842,8083 -2879,8087 -2905,8096 -2920,8121 -2938,8161 -2940,8183 -2913,8197 -2859,8191 -2799,8165 -2755,8118 -2722,8060 -2703,8009 -2703,7992 -2719,7999 -2773,8053 -2807,8116 -2792,8138 -2750,8146 -2696,8144 -2678,8163 -2686,8187 -2684,8188 -2679,8169 -2656,8142 " style="fill: white; stroke: black; stroke-width: 30" />
<polyline points="-2477,7997 -2504,8000 -2506,8016 -2524,8046 -2544,8102 -2556,8152 -2552,8179 -2529,8187 -2486,8178 -2437,8153 -2393,8120 -2372,8094 -2376,8083 -2383,8082 -2403,8093 -2425,8129 -2431,8148 -2428,8150 -2399,8147 -2360,8134 -2352,8136 -2356,8145 -2361,8147 -2351,8132 " style="fill: white; stroke: black; stroke-width: 30" />
<polyline points="-2361,7951 -2369,7946 -2362,7952 -2338,7971 -2287,7991 -2246,7994 -2206,7983 " style="fill: white; stroke: black; stroke-width: 30" />
<polyline points="-2208,7983 -2218,7995 -2239,8013 -2259,8037 -2266,8067 -2267,8117 -2256,8147 -2258,8156 -2267,8153 -2295,8145 -2320,8142 -2319,8145 -2314,8146 -2309,8149 -2289,8141 -2244,8119 -2187,8100 " style="fill: white; stroke: black; stroke-width: 30" />
<polyline points="-2094,8084 -2105,8072 -2115,8052 -2117,8048 -2120,8051 -2129,8063 -2154,8094 -2153,8120 -2156,8158 -2163,8188 -2173,8201 -2188,8198 -2197,8187 -2193,8181 -2188,8178 -2150,8168 -2096,8143 -2007,8101 -1942,8067 -1943,8055 -1973,8059 -2019,8082 -2040,8123 -2023,8144 -1966,8147 -1861,8106 -1766,8055 -1720,8012 -1721,7990 -1739,7989 -1810,8041 -1891,8141 -1895,8190 -1871,8197 -1741,8180 -1633,8178 " style="fill: white; stroke: black; stroke-width: 30" />
<polyline points="1339,4989 1341,4983 1347,4981 1342,4980 1326,4979 1281,4980 1243,4997 1232,5007 1233,5011 1237,5025 1245,5065 1259,5108 1276,5136 1274,5144 1258,5145 1225,5137 1206,5129 1202,5126 1201,5125 1206,5122 1212,5121 1247,5123 " style="fill: white; stroke: black; stroke-width: 30" />
<polyline points="1404,5066 1378,5048 1369,5046 1359,5054 1346,5074 1339,5095 1343,5110 1356,5126 1386,5131 1433,5111 1484,5066 1520,5031 1525,5022 1522,5022 1514,5030 1491,5059 1471,5093 1471,5102 1477,5106 1493,5106 1521,5103 1543,5103 1556,5107 1561,5114 1565,5126 1567,5128 1568,5124 1583,5091 " style="fill: white; stroke: black; stroke-width: 30" />
<polyline points="1663,4978 1662,4983 1659,4997 1645,5032 1620,5081 1613,5112 1621,5123 1643,5120 1683,5095 1722,5075 1737,5067 " style="fill: white; stroke: black; stroke-width: 30" />
<polyline points="1804,4979 1818,4979 1828,4996 1829,5035 1818,5073 1796,5098 1771,5107 1739,5111 1718,5103 1716,5079 1736,5053 1762,5045 1787,5051 1799,5074 1806,5086 1816,5089 1845,5080 " style="fill: white; stroke: black; stroke-width: 30" />
<polyline points="1806,4911 1822,4898 1836,4899 1847,4903 1867,4912 1910,4920 " style="fill: white; stroke: black; stroke-width: 30" />
<polyline points="2043,4956 2043,4936 2042,4907 2025,4890 2004,4893 1982,4917 1955,4960 1940,5019 1933,5101 1925,5159 1929,5179 1930,5169 1936,5127 1930,5072 " style="fill: white; stroke: black; stroke-width: 30" />
<polyline points="1930,5049 1949,5056 1980,5055 2014,5046 2052,5033 2096,5019 2108,5009 2107,5002 2099,4997 2090,4995 2076,5000 2050,5023 2022,5050 2021,5066 2034,5088 2066,5115 2097,5129 2132,5128 2161,5102 " style="fill: white; stroke: black; stroke-width: 30" />
<polyline points="2202,5044 2203,5064 2196,5087 2194,5098 2194,5091 2194,5066 2202,5031 2206,5012 2219,5005 2249,5001 2284,5007 " style="fill: white; stroke: black; stroke-width: 30" />
<polyline points="1731,5273 1743,5255 1766,5237 1784,5237 1801,5267 1809,5320 1802,5359 1781,5380 1753,5382 1713,5383 1707,5378 1709,5370 1717,5350 1742,5328 1765,5322 1790,5340 1802,5365 1811,5379 1833,5369 1878,5344 1910,5321 " style="fill: white; stroke: black; stroke-width: 30" />
<polyline points="1888,5338 1909,5348 1956,5331 2001,5291 2016,5262 2000,5249 1962,5253 1906,5290 1885,5326 1899,5360 1938,5377 1981,5378 2027,5360 " style="fill: white; stroke: black; stroke-width: 30" />
<polyline points="1303,1489 " style="fill: white; stroke: black; stroke-width: 30" />
<polyline points="1452,1170 1637,1092 1906,1037 2219,1013 2528,1042 2779,1114 2946,1215 3001,1325 2940,1438 2763,1533 2530,1616 2320,1677 2191,1719 2189,1745 2318,1780 2546,1823 2761,1911 2904,2045 2964,2197 2932,2341 2777,2472 2498,2581 2143,2667 1762,2726 1427,2745 1202,2719 1110,2666 1131,2616 1262,2578 1458,2570 1638,2606 1721,2678 1642,2786 1381,2902 1008,3002 574,3067 150,3071 -234,3014 -558,2921 -801,2813 -924,2698 -907,2586 -771,2482 -600,2432 -493,2454 -482,2527 -579,2621 -785,2699 -1086,2754 -1458,2780 -1864,2769 -2222,2696 -2485,2567 -2624,2422 -2636,2273 -2531,2106 -2304,1946 -2032,1828 -1836,1785 -1787,1785 -1870,1803 -2101,1817 -2431,1805 -2783,1761 -3091,1677 -3295,1560 -3376,1416 -3321,1239 -3101,1017 -2736,819 -2300,707 -1870,660 -1484,656 -1163,664 -951,713 -896,786 -1013,879 -1267,957 -1515,978 -1665,933 -1682,856 -1563,744 -1271,604 -840,445 -330,308 165,305 592,438 935,549 1136,654 1177,761 1052,898 817,1014 567,1065 418,1053 417,1017 561,963 853,955 1231,988 1637,1047 1988,1135 2200,1234 2236,1329 2180,1439 2086,1545 " style="fill: white; stroke: black; stroke-width: 30" />
<polyline points="-803,1550 -809,1560 -826,1617 -842,1713 -844,1789 -825,1826 -798,1814 " style="fill: white; stroke: black; stroke-width: 30" />
<polyline points="-781,1425 -783,1422 -782,1425 -774,1434 -751,1464 " style="fill: white; stroke: black; stroke-width: 30" />
<polyline points="-706,1776 -727,1803 -725,1802 -710,1785 -687,1766 -676,1764 -676,1768 -678,1767 -675,1766 -652,1763 -624,1764 -601,1769 " style="fill: white; stroke: black; stroke-width: 30" />
<polyline points="-387,1549 -396,1558 -416,1621 -453,1719 -485,1793 -489,1808 -478,1777 -458,1721 -442,1692 -436,1688 -429,1695 -415,1708 -391,1718 -354,1716 -288,1718 -228,1718 -206,1702 -216,1668 -251,1649 -304,1666 -329,1730 -323,1807 -292,1845 -253,1836 -220,1800 -204,1756 -189,1710 -180,1690 -177,1691 -172,1699 -152,1713 -95,1711 " style="fill: white; stroke: black; stroke-width: 30" />
<polyline points="-62,1815 -65,1840 -63,1852 -58,1847 -42,1816 6,1753 22,1737 40,1752 72,1815 82,1881 82,1912 83,1913 106,1891 168,1838 " style="fill: white; stroke: black; stroke-width: 30" />
<polyline points="208,1843 210,1842 242,1829 285,1810 319,1787 317,1771 286,1762 231,1772 201,1804 203,1857 239,1902 306,1925 367,1912 397,1862 " style="fill: white; stroke: black; stroke-width: 30" />
<polyline points="508,1624 495,1623 471,1660 417,1792 374,1913 364,1954 363,1935 375,1864 400,1790 421,1777 438,1784 471,1805 " style="fill: white; stroke: black; stroke-width: 30" />
<polyline points="-2777,2784 -2801,2777 -2812,2776 -2813,2778 -2808,2780 -2781,2780 -2680,2787 -2492,2810 -2296,2842 -2134,2881 -2025,2894 " style="fill: white; stroke: black; stroke-width: 30" />
<polyline points="-2865,2731 -2846,2692 -2843,2687 -2848,2704 -2865,2758 -2895,2816 -2907,2853 -2913,2879 -2915,2937 -2910,2973 -2888,2995 -2834,3012 -2758,3020 -2651,3032 -2512,3052 -2337,3067 -2178,3077 -2092,3092 " style="fill: white; stroke: black; stroke-width: 30" />
<polyline points="-2105,2851 -2117,2850 -2135,2873 -2181,2977 -2215,3088 -2201,3133 -2183,3077 " style="fill: white; stroke: black; stroke-width: 30" />
<polyline points="-2911,2856 -2927,2858 -2923,2856 -2902,2848 -2873,2846 -2764,2865 -2609,2915 -2401,2953 -2187,2949 -2111,2899 " style="fill: white; stroke: black; stroke-width: 30" />
<polyline points="-2687,2798 -2687,2799 -2688,2798 -2688,2804 -2694,2823 -2712,2863 " style="fill: white; stroke: black; stroke-width: 30" />
<polyline points="-2486,2836 -2488,2838 -2493,2857 -2497,2883 -2495,2909 -2484,2940 " style="fill: white; stroke: black; stroke-width: 30" />
<polyline points="-2313,2875 -2328,2929 -2339,2975 -2323,2983 -2301,2923 " style="fill: white; stroke: black; stroke-width: 30" />
<polyline points="-2447,2921 -2453,2926 -2455,2945 -2462,2970 -2478,3012 -2481,3022 -2484,2999 " style="fill: white; stroke: black; stroke-width: 30" />
<polyline points="-2673,2901 -2677,2925 -2697,2977 -2715,3016 -2707,3016 " style="fill: white; stroke: black; stroke-width: 30" />
<polyline points="3382,4884 3369,4881 3374,4878 3433,4857 3539,4830 3600,4822 3600,4827 3569,4854 3510,4907 3490,4939 3512,4961 3559,4969 3605,4960 3631,4959 " style="fill: white; stroke: black; stroke-width: 30" />
<polyline points="3476,4898 3458,4892 3457,4893 3465,4892 3508,4885 3587,4862 3644,4852 3683,4841 3722,4824 3734,4816 3731,4817 3719,4825 3698,4846 3689,4864 3699,4868 3728,4864 3765,4856 3772,4861 3765,4885 3762,4906 3774,4921 3803,4913 " style="fill: white; stroke: black; stroke-width: 30" />
<polyline points="3886,4814 3886,4816 3883,4823 3852,4857 3835,4886 3833,4900 3859,4902 3910,4889 3963,4858 4018,4821 4044,4794 4037,4796 4030,4801 3991,4843 3958,4891 3949,4915 3957,4921 3985,4915 3998,4915 3998,4921 3989,4934 3993,4934 " style="fill: white; stroke: black; stroke-width: 30" />
<polyline points="4161,4865 4150,4867 4141,4871 4120,4893 4096,4925 4086,4952 4092,4965 4106,4965 4133,4953 4173,4924 4182,4914 4181,4915 4170,4930 4164,4950 4166,4978 4169,4998 4191,4996 4235,4965 4254,4941 4257,4932 4253,4933 4251,4938 4252,4944 4258,4944 4299,4934 4347,4929 4373,4919 4376,4915 4374,4922 4358,4953 4340,4985 4331,5002 4334,5001 4357,4973 4406,4917 4453,4857 4481,4821 4484,4808 4480,4807 4473,4811 4480,4812 4500,4804 4519,4793 4521,4784 4516,4778 4522,4768 4536,4760 4550,4755 " style="fill: white; stroke: black; stroke-width: 30" />
<polyline points="4610,4766 4608,4769 4606,4775 4593,4803 4552,4862 4480,4967 4433,5042 4412,5086 " style="fill: white; stroke: black; stroke-width: 30" />
<polyline points="634,3229 633,3231 633,3244 630,3306 638,3418 649,3571 655,3767 659,4008 667,4278 677,4576 689,4896 705,5237 718,5582 736,5924 761,6252 793,6563 832,6840 880,7077 927,7257 955,7373 972,7417 " style="fill: white; stroke: black; stroke-width: 30" />
<polyline points="947,7763 954,7760 1025,7747 1196,7714 1493,7654 1889,7577 2380,7491 2923,7402 3461,7333 3932,7290 4326,7262 4658,7242 4895,7238 5035,7240 5061,7236 4998,7209 " style="fill: white; stroke: black; stroke-width: 30" />
<polyline points="620,3377 638,3382 703,3393 838,3408 1054,3419 1355,3416 1731,3412 2164,3421 2656,3435 3197,3438 3736,3438 4170,3461 4292,3567 4287,3587 4221,3580 " style="fill: white; stroke: black; stroke-width: 30" />
<polyline points="4753,3469 4756,3464 4759,3469 4764,3494 4787,3552 4826,3647 4872,3794 4893,4009 4886,4278 4878,4598 4883,4966 4880,5373 4871,5795 4861,6200 4852,6578 4884,6903 4918,7173 4932,7372 4911,7499 4899,7546 " style="fill: white; stroke: black; stroke-width: 30" />
<polyline points="1311,6160 1341,6134 1352,6116 1347,6107 1352,6100 1423,6084 1583,6085 1755,6132 1835,6214 1785,6285 1643,6328 1484,6323 1339,6282 1281,6226 1272,6199 1287,6194 1384,6183 1532,6167 " style="fill: white; stroke: black; stroke-width: 30" />
<polyline points="1311,6263 1294,6293 1281,6366 1280,6463 1298,6543 1324,6615 1361,6679 " style="fill: white; stroke: black; stroke-width: 30" />
<polyline points="1363,6744 1445,6746 1587,6729 1776,6713 1909,6708 1989,6705 " style="fill: white; stroke: black; stroke-width: 30" />
<polyline points="1916,6193 1916,6269 1935,6407 1952,6583 1945,6738 " style="fill: white; stroke: black; stroke-width: 30" />
<polyline points="2772,6126 2799,6099 2860,6073 2990,6058 3135,6079 3196,6153 3143,6243 3012,6310 2862,6333 2731,6311 2666,6264 2660,6202 2699,6154 2779,6136 " style="fill: white; stroke: black; stroke-width: 30" />
<polyline points="2796,6223 2778,6240 2718,6313 2656,6415 2655,6518 2723,6605 2841,6666 2931,6695 " style="fill: white; stroke: black; stroke-width: 30" />
<polyline points="2899,6708 2939,6704 2998,6689 3071,6677 3147,6668 3210,6656 3250,6635 3261,6602 " style="fill: white; stroke: black; stroke-width: 30" />
<polyline points="3299,6244 3291,6289 3289,6369 3278,6496 3270,6636 3275,6732 3282,6766 " style="fill: white; stroke: black; stroke-width: 30" />
<polyline points="3941,6165 4062,6130 4226,6101 4332,6104 4363,6141 4311,6209 4189,6283 4065,6316 3954,6324 3887,6296 3864,6255 3890,6232 3975,6225 4063,6232 " style="fill: white; stroke: black; stroke-width: 30" />
<polyline points="3873,6260 3905,6263 3927,6317 3898,6433 3858,6574 3857,6681 3903,6788 3962,6879 " style="fill: white; stroke: black; stroke-width: 30" />
<polyline points="4152,6831 4313,6797 4456,6784 4536,6772 4562,6762 " style="fill: white; stroke: black; stroke-width: 30" />
<polyline points="4410,6181 4458,6196 4512,6271 4553,6435 4486,6652 4361,6813 " style="fill: white; stroke: black; stroke-width: 30" />
<polyline points="1661,7776 1646,7782 1635,7823 1620,7894 1617,7970 1631,8007 1643,8012 1655,7988 1674,7920 1680,7815 1674,7720 1662,7674 1651,7669 1647,7672 1647,7705 1644,7765 1654,7811 1689,7844 1760,7859 1852,7841 1921,7812 1943,7786 1946,7782 1945,7783 1941,7793 1928,7833 1907,7887 1909,7911 1935,7933 1970,7947 " style="fill: white; stroke: black; stroke-width: 30" />
<polyline points="2087,7933 2097,7928 2113,7913 2148,7875 2161,7855 2150,7848 2125,7840 2091,7850 2071,7888 2062,7939 2078,7970 2103,7989 2130,7990 " style="fill: white; stroke: black; stroke-width: 30" />
<polyline points="2346,7739 2340,7750 2302,7821 2263,7915 2233,7979 2230,8004 2236,7999 2252,7960 2274,7917 2293,7909 2309,7917 " style="fill: white; stroke: black; stroke-width: 30" />
<polyline points="2435,7820 2482,7809 2539,7834 2560,7879 2541,7929 2493,7965 2430,7984 2390,7975 2377,7945 2388,7913 2399,7905 2423,7911 2464,7940 2490,7974 2515,7990 " style="fill: white; stroke: black; stroke-width: 30" />
<polyline points="2602,7999 2613,7973 2649,7909 2706,7854 2718,7843 2726,7854 2731,7913 2730,7974 2734,8006 2753,8008 2802,7974 2843,7936 2874,7925 " style="fill: white; stroke: black; stroke-width: 30" />
<polyline points="2877,7924 2876,7922 2894,7905 2922,7868 2933,7847 2921,7843 2897,7843 2877,7868 2872,7907 2878,7935 2892,7955 2903,7971 2935,7978 " style="fill: white; stroke: black; stroke-width: 30" />
<polyline points="3208,7746 3172,7716 3126,7717 3086,7772 3054,7873 3028,7978 3024,8030 3023,8051 3023,8037 3015,7981 3007,7904 3011,7886 3023,7886 3064,7894 3116,7910 3161,7926 " style="fill: white; stroke: black; stroke-width: 30" />
<polyline points="-3792,9986 -3771,9987 -3724,9983 -3610,9974 -3506,9959 -3438,9953 " style="fill: white; stroke: black; stroke-width: 30" />
<polyline points="-3835,10044 -3876,10079 -3902,10124 -3895,10163 -3851,10200 -3771,10221 -3706,10232 -3646,10239 -3597,10241 -3567,10225 " style="fill: white; stroke: black; stroke-width: 30" />
<polyline points="-3839,10124 -3836,10125 -3818,10131 -3781,10146 -3715,10154 -3626,10145 " style="fill: white; stroke: black; stroke-width: 30" />
<polyline points="-3543,10234 -3493,10207 -3413,10171 -3369,10138 -3330,10099 -3333,10080 -3354,10077 " style="fill: white; stroke: black; stroke-width: 30" />
<polyline points="-3490,10095 -3517,10096 -3507,10104 -3488,10134 -3454,10180 -3428,10215 -3399,10251 " style="fill: white; stroke: black; stroke-width: 30" />
<polyline points="-3225,10091 -3257,10097 -3307,10127 -3330,10176 -3317,10231 -3299,10256 -3251,10259 -3187,10232 -3134,10180 -3099,10119 -3072,10066 -3060,10037 -3067,10032 -3080,10042 -3111,10081 -3156,10150 -3195,10211 -3207,10251 -3202,10258 -3172,10252 -3124,10235 -3117,10231 -3116,10233 -3122,10252 -3114,10277 " style="fill: white; stroke: black; stroke-width: 30" />
<polyline points="-3021,10166 -2983,10141 -2947,10136 -2936,10155 -2940,10191 -2973,10227 -2998,10260 -3021,10267 -3040,10252 -3048,10227 -3044,10220 -3042,10220 -3014,10231 -3001,10245 -2980,10259 -2957,10271 " style="fill: white; stroke: black; stroke-width: 30" />
<polyline points="-2941,10240 -2915,10203 -2877,10184 -2858,10184 -2860,10202 -2860,10235 -2867,10262 -2872,10267 " style="fill: white; stroke: black; stroke-width: 30" />
<polyline points="-2784,10242 -2754,10219 -2735,10200 -2752,10183 -2778,10178 -2795,10190 -2802,10216 -2783,10231 -2752,10225 -2740,10213 -2738,10213 -2744,10244 -2752,10308 -2770,10368 -2806,10415 -2851,10432 -2861,10418 -2862,10357 -2800,10284 -2732,10240 -2664,10210 -2650,10190 -2664,10174 -2690,10172 -2679,10194 -2652,10243 -2596,10284 -2558,10305 -2511,10302 -2480,10253 " style="fill: white; stroke: black; stroke-width: 30" />
<polyline points="-3434,10662 -3394,10652 -3400,10652 -3393,10661 -3395,10676 -3402,10684 -3386,10697 -3369,10710 -3350,10732 -3321,10754 " style="fill: white; stroke: black; stroke-width: 30" />
<polyline points="-3294,10697 -3293,10698 -3266,10685 -3255,10667 " style="fill: white; stroke: black; stroke-width: 30" />
<polyline points="-3262,10655 -3257,10663 -3258,10666 -3257,10667 -3259,10669 -3260,10678 -3266,10711 -3288,10753 -3288,10793 -3307,10804 -3308,10807 -3307,10805 -3300,10787 -3262,10725 -3245,10656 -3238,10625 -3230,10622 -3234,10623 -3232,10629 -3233,10638 -3228,10662 -3225,10709 -3210,10754 -3192,10778 -3167,10791 -3138,10791 " style="fill: white; stroke: black; stroke-width: 30" />
<polyline points="-3262,10645 -3259,10668 -3241,10701 -3216,10727 -3182,10742 -3136,10714 -3079,10672 -3056,10651 -3063,10646 -3074,10647 -3080,10654 -3082,10688 -3099,10715 -3102,10759 -3090,10783 -3088,10784 -3087,10776 -3077,10752 -3058,10684 -3029,10628 -3017,10599 -3005,10601 -2994,10617 -2984,10642 -2965,10677 -2976,10690 -2990,10694 -3024,10694 -3045,10684 " style="fill: white; stroke: black; stroke-width: 30" />
<polyline points="1451,8324 1455,8323 1454,8320 1453,8320 1453,8320 1458,8321 1484,8317 1525,8312 1582,8309 1665,8294 1811,8263 1984,8236 2226,8208 2472,8194 2752,8180 3021,8176 3296,8164 3590,8149 3856,8154 4093,8166 4267,8186 4389,8194 4416,8197 4412,8199 4411,8198 4410,8195 4409,8196 4400,8198 4393,8203 4389,8206 4387,8208 4389,8209 4391,8210 " style="fill: white; stroke: black; stroke-width: 30" />
<polyline points="3528,8100 3517,8099 3511,8098 3515,8096 3514,8098 3522,8099 3571,8095 3664,8089 3748,8086 3818,8094 3866,8109 " style="fill: white; stroke: black; stroke-width: 30" />
<polyline points="2867,83 2868,150 2847,180 2817,189 2806,170 2794,169 2789,169 2792,159 2802,169 " style="fill: white; stroke: black; stroke-width: 30" />
<polyline points="3023,67 3042,102 3074,68 3099,87 3101,87 3103,46 3101,68 3111,87 3145,87 3178,88 3202,104 3203,119 3203,133 3205,104 3205,69 3198,69 3199,69 3199,69 3202,69 3225,48 " style="fill: white; stroke: black; stroke-width: 30" />
<polyline points="3363,71 3359,71 3355,49 3347,107 3338,135 3336,148 3344,172 " style="fill: white; stroke: black; stroke-width: 30" />
<polyline points="3542,93 3510,109 3473,124 3430,150 3421,162 3422,173 3429,215 3427,233 3403,258 3378,249 3370,240 3374,249 3397,223 3443,195 3487,186 3532,139 " style="fill: white; stroke: black; stroke-width: 30" />
<polyline points="3588,177 3579,188 3567,218 3564,198 3557,228 3546,262 3533,270 3516,277 3510,277 3515,253 3516,261 3517,269 3509,235 " style="fill: white; stroke: black; stroke-width: 30" />
<polyline points="3853,288 3840,262 3822,244 3798,252 3761,251 3741,259 3717,291 3708,314 3714,314 3737,322 3791,324 3844,303 " style="fill: white; stroke: black; stroke-width: 30" />
<polyline points="3954,266 3924,290 3879,289 3836,318 3854,326 3906,349 3961,358 3991,352 3987,372 3971,344 3943,336 3932,329 3939,314 3959,344 3988,345 4017,339 " style="fill: white; stroke: black; stroke-width: 30" />
<polyline points="4059,355 4056,361 4056,355 4055,375 4055,375 4058,382 4074,355 4104,377 4115,364 4113,377 4109,377 4108,377 4118,384 4142,398 4159,399 4155,405 4146,404 4145,423 4156,405 " style="fill: white; stroke: black; stroke-width: 30" />
<polyline points="2970,408 2937,386 2905,369 2863,361 2844,371 2850,377 2868,403 2895,456 2903,524 2880,586 2854,611 2836,617 2828,592 2827,549 2839,508 2859,480 " style="fill: white; stroke: black; stroke-width: 30" />
<polyline points="3068,392 3036,391 3018,406 2993,448 2977,512 2992,545 3025,555 3076,522 3088,506 3082,519 3078,518 3074,530 3083,539 3116,529 " style="fill: white; stroke: black; stroke-width: 30" />
<polyline points="3163,556 3155,543 3161,536 3181,516 3218,488 3236,484 3236,502 3234,532 " style="fill: white; stroke: black; stroke-width: 30" />
<polyline points="3326,574 3316,589 3318,593 3328,574 3343,543 3354,504 3358,486 3360,491 3369,505 3396,524 3424,535 3467,524 3495,525 3508,513 3508,513 3506,517 3498,539 3484,555 3464,591 3451,613 3459,622 3492,572 " style="fill: white; stroke: black; stroke-width: 30" />
<polyline points="3508,440 3505,440 3506,445 3524,451 3539,457 " style="fill: white; stroke: black; stroke-width: 30" />
<polyline points="3646,516 3615,519 3599,540 3599,566 3608,592 3600,619 3573,633 3537,634 3533,634 3540,631 3566,621 3610,616 3644,598 3677,579 3720,565 3743,566 3767,554 3770,545 3762,554 3756,554 3754,553 3752,558 3753,558 3754,553 3751,553 3745,553 3736,557 3726,552 3718,565 3718,569 3719,578 3725,586 3740,596 3755,605 3765,609 " style="fill: white; stroke: black; stroke-width: 30" />
<polyline points="2919,727 2887,718 2855,716 2827,736 2814,793 2818,860 2855,888 2930,859 3011,798 3040,740 3024,706 2986,696 2950,706 2950,709 2971,707 3011,711 " style="fill: white; stroke: black; stroke-width: 30" />
<polyline points="3053,876 3051,868 3053,866 3060,848 3080,804 3096,757 3098,739 3100,745 3121,771 3168,804 3222,800 " style="fill: white; stroke: black; stroke-width: 30" />
<polyline points="3261,786 3259,771 3271,753 3289,749 3321,751 3343,766 3346,787 3330,815 3292,851 3240,879 3206,891 3198,880 3205,851 3234,824 3260,817 3289,826 3315,839 3330,849 " style="fill: white; stroke: black; stroke-width: 30" />
<polyline points="3322,892 3367,847 3443,774 3487,729 3493,726 3485,752 3474,795 3475,836 3493,852 " style="fill: white; stroke: black; stroke-width: 30" />
<polyline points="3613,797 3601,783 3584,772 3553,783 3527,823 3535,856 3575,859 3618,834 3635,817 3634,808 3630,804 3617,828 3610,845 3605,859 3606,856 3604,859 3604,859 3605,862 3611,854 3611,851 3612,851 3612,848 3615,842 3612,851 3609,868 3601,910 3586,962 3565,1015 3533,1053 3503,1064 3481,1055 3482,1000 3520,908 3573,853 3619,831 3653,819 3707,817 3754,824 3772,816 3761,809 3712,814 3656,843 3653,860 3683,892 3738,919 3774,931 " style="fill: white; stroke: black; stroke-width: 30" />
<polyline points="2939,1041 2887,1030 2803,1055 2733,1106 2735,1148 2806,1199 2916,1214 3011,1199 3030,1190 " style="fill: white; stroke: black; stroke-width: 30" />
<polyline points="3101,1111 3128,1093 3154,1096 3169,1117 3164,1164 3136,1210 3101,1239 3077,1240 3058,1224 3053,1208 3060,1203 3082,1197 3100,1201 3119,1211 3134,1215 3152,1231 3180,1233 " style="fill: white; stroke: black; stroke-width: 30" />
<polyline points="3336,1071 3331,1079 3308,1119 3278,1170 3262,1212 3269,1229 3301,1217 3345,1182 3376,1167 3396,1178 3403,1206 3389,1224 3365,1227 3329,1211 3297,1199 3296,1198 3304,1203 3332,1217 3387,1204 " style="fill: white; stroke: black; stroke-width: 30" />
<polyline points="3525,1108 3524,1092 3523,1092 3515,1102 3491,1138 3467,1189 3467,1224 3494,1237 3542,1243 3592,1233 3625,1210 3633,1180 3617,1157 3586,1157 3570,1171 3566,1207 3585,1247 3621,1259 3658,1262 3681,1254 3692,1226 " style="fill: white; stroke: black; stroke-width: 30" />
<polyline points="3808,1176 3761,1191 3734,1210 3736,1240 3768,1263 3809,1270 3844,1270 " style="fill: white; stroke: black; stroke-width: 30" />
<polyline points="3912,1185 3872,1190 3851,1210 3855,1239 3879,1257 3914,1269 3969,1252 3994,1233 3987,1219 3956,1199 3932,1194 3937,1190 3952,1206 3979,1211 3986,1223 3981,1234 3987,1232 4014,1235 4084,1213 4123,1199 4119,1203 4108,1209 4102,1213 4105,1218 4113,1221 4125,1220 4123,1227 4123,1238 4131,1244 4173,1255 4248,1257 4249,1271 4233,1282 4238,1281 4248,1282 " style="fill: white; stroke: black; stroke-width: 30" />
<polyline points="1597,1590 1687,1560 1857,1539 2001,1548 2077,1579 2072,1602 1975,1634 1802,1655 1706,1648 1700,1645 1704,1644 1717,1641 1752,1635 " style="fill: white; stroke: black; stroke-width: 30" />
<polyline points="1685,1610 1685,1612 1683,1628 1683,1699 1691,1812 1705,1912 1724,1974 1730,2007 1706,2016 " style="fill: white; stroke: black; stroke-width: 30" />
<polyline points="1739,1985 1803,1982 1926,1970 2043,1959 2107,1938 2131,1916 2149,1870 2156,1830 " style="fill: white; stroke: black; stroke-width: 30" />
<polyline points="2070,1554 2071,1554 2076,1561 2097,1609 2112,1697 2126,1818 2129,1936 " style="fill: white; stroke: black; stroke-width: 30" />
<polyline points="-792,9879 -793,9874 -781,9863 -751,9843 -718,9807 -677,9755 -630,9704 -599,9667 -578,9647 -573,9644 -572,9645 -575,9649 -577,9656 -601,9692 -621,9763 -628,9825 -627,9871 -620,9905 -600,9915 " style="fill: white; stroke: black; stroke-width: 30" />
<polyline points="-534,9785 -512,9745 -452,9696 -377,9654 -320,9647 -285,9681 -298,9760 -357,9838 -425,9886 -483,9890 -516,9855 -522,9794 -507,9746 -476,9721 " style="fill: white; stroke: black; stroke-width: 30" />
<polyline points="-276,9912 -265,9912 -260,9912 -258,9912 -237,9905 " style="fill: white; stroke: black; stroke-width: 30" />
<polyline points="-92,9943 -83,9939 -46,9908 48,9834 154,9766 199,9738 210,9735 205,9737 197,9748 187,9778 174,9832 156,9886 157,9929 179,9944 " style="fill: white; stroke: black; stroke-width: 30" />
<polyline points="263,9925 317,9878 389,9831 439,9786 461,9751 470,9743 467,9742 464,9744 463,9749 457,9753 457,9761 446,9784 421,9837 415,9878 415,9914 440,9915 " style="fill: white; stroke: black; stroke-width: 30" />
<polyline points="543,9963 549,9964 551,9965 559,9963 599,9957 " style="fill: white; stroke: black; stroke-width: 30" />
<polyline points="750,9996 757,9995 772,9987 818,9953 892,9882 969,9813 993,9792 1003,9779 1001,9784 973,9814 930,9883 912,9942 892,9978 914,9987 " style="fill: white; stroke: black; stroke-width: 30" />
<polyline points="1102,9770 1166,9756 1218,9762 1241,9785 1227,9838 1162,9903 1090,9948 1055,9972 1050,9984 1059,9996 1071,10000 1090,9998 1152,9982 1186,9972 " style="fill: white; stroke: black; stroke-width: 30" />
<polyline points="1268,9990 1257,9993 1257,9996 1269,9998 1282,9998 " style="fill: white; stroke: black; stroke-width: 30" />
<polyline points="1426,9992 1438,9984 1491,9958 1589,9908 1714,9851 1789,9815 1803,9805 1799,9810 1747,9862 1679,9958 1651,10010 1653,10029 " style="fill: white; stroke: black; stroke-width: 30" />
<polyline points="1898,9828 1947,9824 1986,9843 1964,9880 1898,9918 1813,9937 1797,9945 1825,9991 1909,10031 1922,10036 1843,10045 1715,10020 1642,9984 1642,9981 1677,9987 " style="fill: white; stroke: black; stroke-width: 30" />
<polyline points="-1032,6976 -1035,6976 -1033,6977 -1035,6977 -1034,6979 -1031,6980 -1006,6982 -933,6988 -826,6993 -698,7003 -573,7010 -426,7011 -236,7008 -83,7005 2,6997 35,6993 41,6992 38,6991 41,6990 38,6991 38,6993 36,6994 34,6994 37,6992 30,6974 " style="fill: white; stroke: black; stroke-width: 30" />
<polyline points="-1006,8162 -1012,8157 -1006,8159 -1003,8160 -1001,8160 -970,8161 -893,8155 -742,8135 -539,8138 -304,8142 -89,8141 60,8125 139,8109 150,8103 147,8101 138,8102 138,8102 143,8100 " style="fill: white; stroke: black; stroke-width: 30" />
<polyline points="156,7056 150,7053 145,7055 146,7069 146,7118 152,7193 159,7316 161,7441 155,7559 152,7667 142,7736 136,7817 123,7903 103,7971 94,8021 81,8054 81,8057 77,8058 76,8065 79,8078 71,8089 72,8090 70,8091 71,8095 72,8097 74,8093 79,8046 " style="fill: white; stroke: black; stroke-width: 30" />
<polyline points="-502,7127 -502,7142 -505,7183 -515,7263 -520,7367 -506,7492 -494,7615 -489,7717 -481,7815 -479,7885 -479,7935 -475,7958 -469,7981 -469,7986 -472,7987 -470,7989 -470,7988 -467,7990 -472,7990 -471,7997 -465,8007 -463,8013 -464,8018 -459,8023 -463,8021 -461,8023 -461,8032 -462,8054 -455,8054 " style="fill: white; stroke: black; stroke-width: 30" />
<polyline points="-967,7156 -968,7155 -970,7150 -961,7132 -941,7111 -927,7107 -923,7113 -910,7132 -906,7151 -906,7169 -914,7196 -932,7216 -939,7226 -947,7224 -962,7209 -972,7194 -973,7193 -970,7193 -963,7195 -958,7200 -950,7211 -935,7220 -916,7216 " style="fill: white; stroke: black; stroke-width: 30" />
<polyline points="-829,7161 -839,7156 -855,7159 -877,7178 -891,7196 -890,7203 -879,7205 -866,7200 -849,7190 -830,7183 -814,7171 -798,7151 -789,7126 -782,7112 -786,7104 -793,7103 -793,7113 -811,7141 -818,7173 -817,7192 -807,7207 -774,7218 -740,7213 " style="fill: white; stroke: black; stroke-width: 30" />
<polyline points="-721,7171 -734,7166 -737,7166 -737,7172 -740,7187 -740,7205 -731,7215 -723,7218 -696,7211 -680,7201 -676,7200 -675,7201 -684,7204 -687,7211 -684,7213 -680,7211 -648,7197 -627,7192 -623,7199 -633,7208 -636,7209 -631,7209 -631,7209 -628,7213 -618,7211 " style="fill: white; stroke: black; stroke-width: 30" />
<polyline points="-585,7146 -598,7144 -594,7145 -597,7145 -590,7156 -580,7170 " style="fill: white; stroke: black; stroke-width: 30" />
<polyline points="-575,7127 -577,7119 -573,7107 -574,7099 -574,7099 -576,7102 -567,7108 " style="fill: white; stroke: black; stroke-width: 30" />
<polyline points="-585,7207 -584,7207 -572,7202 " style="fill: white; stroke: black; stroke-width: 30" />

</svg>