<?xml version="1.0" standalone="no"?>
<!DOCTYPE svg PUBLIC "-//W3C//DTD SVG 1.1//EN" "http://www.w3.org/Graphics/SVG/1.1/DTD/svg11.dtd">
<svg width="210mm" height="297mm" viewBox="-7000 500 14000 20000" version="1.1" xmlns="http://www.w3.org/2000/svg">

<polyline points="-2915,5018 -2905,5021 -2872,5033 -2794,5047 -2627,5049 -2366,5041 -2017,5023 -1580,5001 -1048,4975 -436,4957 191,4952 768,4955 1251,4958 1610,4960 1868,4962 2035,4962 2132,4964 2164,4962 " style="fill: white; stroke: black; stroke-width: 30" />
<polyline points="-2849,5117 -2856,5118 -2855,5136 -2851,5175 -2850,5240 -2850,5331 -2876,5449 -2910,5578 -2941,5728 -2958,5900 -2974,6083 -2993,6288 -3018,6500 -3047,6728 -3076,6953 -3087,7176 -3091,7390 -3098,7597 -3096,7790 -3107,7962 -3108,8119 -3115,8258 -3119,8373 -3118,8475 -3107,8564 -3103,8641 -3106,8703 -3097,8757 -3086,8769 " style="fill: white; stroke: black; stroke-width: 30" />
<polyline points="-3092,8970 -3085,8954 -3051,8945 -2981,8927 -2864,8907 -2680,8875 -2433,8844 -2108,8821 -1724,8794 -1269,8763 -754,8733 -239,8708 256,8691 715,8683 1144,8682 1527,8690 1834,8705 2054,8713 2206,8714 2291,8709 2324,8701 2315,8698 2320,8697 2311,8698 2310,8696 2291,8682 " style="fill: white; stroke: black; stroke-width: 30" />
<polyline points="2307,4942 2301,4931 2303,4929 2307,4936 2320,4972 2336,5045 2359,5163 2388,5314 2405,5506 2416,5729 2428,5967 2422,6235 2417,6516 2419,6801 2415,7090 2412,7367 2394,7630 2385,7868 2406,8083 2436,8280 2446,8460 2453,8620 2462,8750 2463,8851 2472,8910 2470,8943 2462,8948 2467,8943 2472,8931 2464,8910 2473,8887 2479,8871 " style="fill: white; stroke: black; stroke-width: 30" />
<polyline points="-3674,5629 -3685,5649 -3675,5653 -3661,5647 -3641,5629 -3576,5570 -3417,5426 -3126,5220 -2738,4950 -2271,4642 -1801,4338 -1365,4054 -990,3812 -685,3618 -440,3468 -254,3365 -137,3291 " style="fill: white; stroke: black; stroke-width: 30" />
<polyline points="8,3184 87,3219 234,3279 450,3366 720,3498 1022,3675 1340,3887 1664,4119 1990,4344 2294,4557 2552,4749 2752,4910 2882,5024 2941,5095 2949,5124 2943,5131 2939,5130 2946,5124 2947,5123 2946,5124 2943,5125 2947,5123 2951,5121 2948,5118 2930,5112 " style="fill: white; stroke: black; stroke-width: 30" />
<polyline points="-2815,7009 -2801,7012 -2790,7016 -2777,7020 -2752,7024 -2706,7027 -2610,7024 -2463,7016 -2223,7013 -1888,7009 -1448,7003 -914,7007 -350,7025 229,7053 781,7092 1281,7137 1678,7181 1942,7209 2064,7213 2078,7206 2073,7198 2067,7194 2072,7195 2080,7201 2091,7209 2101,7219 " style="fill: white; stroke: black; stroke-width: 30" />
<polyline points="-2954,5827 -2916,5835 -2852,5839 -2725,5834 -2512,5821 -2190,5796 -1758,5766 -1241,5740 -647,5728 -32,5726 589,5733 1178,5760 1644,5791 1936,5820 2087,5833 2128,5830 2130,5826 2129,5825 2130,5825 2129,5826 2134,5828 2136,5830 2138,5833 2146,5839 2150,5841 " style="fill: white; stroke: black; stroke-width: 30" />
<polyline points="-2349,6084 -2351,6064 -2356,6058 -2353,6064 -2359,6095 -2362,6192 -2369,6358 -2371,6567 -2355,6752 -2339,6908 -2324,7023 -2318,7096 -2315,7121 -2318,7110 " style="fill: white; stroke: black; stroke-width: 30" />
<polyline points="-2345,6066 -2345,6070 -2316,6077 -2228,6085 -2074,6090 -1907,6109 -1763,6135 -1685,6144 -1671,6143 -1682,6133 -1698,6118 " style="fill: white; stroke: black; stroke-width: 30" />
<polyline points="-1704,6110 -1705,6123 -1702,6156 -1690,6224 -1687,6332 -1699,6492 -1729,6646 -1740,6762 -1738,6845 -1732,6893 -1731,6906 -1731,6905 -1737,6903 -1737,6903 -1735,6904 -1735,6904 -1731,6897 " style="fill: white; stroke: black; stroke-width: 30" />
<polyline points="-1307,6142 -1325,6120 -1335,6115 -1340,6117 -1341,6122 -1340,6138 -1336,6196 -1337,6282 -1324,6418 -1315,6594 -1306,6751 -1284,6860 -1264,6932 -1249,6975 -1237,6989 -1242,6994 -1243,6998 -1245,7002 -1241,7000 -1242,6973 " style="fill: white; stroke: black; stroke-width: 30" />
<polyline points="-1313,6116 -1296,6113 -1263,6111 -1169,6110 -1023,6116 -883,6145 -759,6176 -657,6187 -590,6183 -585,6178 -593,6175 -596,6171 -605,6172 " style="fill: white; stroke: black; stroke-width: 30" />
<polyline points="-581,6227 -591,6215 -593,6216 -592,6220 -588,6242 -587,6303 -585,6414 -592,6559 -593,6723 -589,6861 -570,6949 -550,6985 -544,6991 -547,6983 -558,6946 " style="fill: white; stroke: black; stroke-width: 30" />
<polyline points="-242,6172 -251,6173 -261,6201 -270,6283 -255,6412 -233,6548 -213,6673 -201,6782 -191,6867 -183,6928 -177,6959 -175,6962 -180,6952 -185,6910 -181,6852 " style="fill: white; stroke: black; stroke-width: 30" />
<polyline points="-242,6148 -214,6156 -153,6162 -48,6169 84,6176 193,6181 286,6190 352,6196 366,6199 361,6198 360,6197 358,6196 361,6195 363,6196 361,6195 360,6194 360,6193 360,6192 361,6191 360,6191 362,6191 359,6195 358,6226 357,6316 342,6457 318,6608 308,6737 306,6857 310,6941 309,6989 304,7035 302,7057 305,7063 304,7061 305,7058 303,7058 303,7056 305,7054 304,7052 307,7045 322,6998 " style="fill: white; stroke: black; stroke-width: 30" />
<polyline points="819,6240 817,6242 819,6258 828,6320 827,6426 827,6572 824,6733 840,6890 860,7004 878,7078 885,7090 884,7085 872,7056 856,7009 818,6971 " style="fill: white; stroke: black; stroke-width: 30" />
<polyline points="824,6218 821,6218 841,6226 904,6232 1021,6233 1174,6241 1304,6257 1379,6272 1407,6277 1408,6276 1407,6275 1403,6272 1403,6272 1404,6273 1407,6274 1404,6276 1401,6280 1402,6286 1397,6340 1402,6450 1407,6597 1407,6761 1397,6887 1392,6981 1390,7027 1390,7037 1387,7036 1387,7032 1386,7031 1390,7030 1391,7029 1390,7030 1396,7028 1402,7025 " style="fill: white; stroke: black; stroke-width: 30" />
<polyline points="-2413,8062 -2412,8066 -2415,8086 -2415,8150 -2412,8256 -2382,8412 -2379,8565 -2383,8719 -2386,8843 -2376,8890 -2370,8890 -2364,8862 -2360,8774 " style="fill: white; stroke: black; stroke-width: 30" />
<polyline points="-2450,8054 -2452,8047 -2433,8046 -2388,8054 -2302,8079 -2174,8102 -2030,8110 -1878,8101 -1783,8081 -1755,8073 -1763,8071 -1762,8074 -1763,8073 -1763,8074 -1766,8072 -1766,8072 -1764,8070 -1766,8068 -1763,8070 -1765,8070 -1765,8073 -1766,8087 -1756,8130 -1740,8238 -1714,8405 -1705,8559 -1698,8685 -1702,8800 -1703,8848 -1705,8852 -1704,8851 -1699,8851 -1701,8851 -1702,8850 -1697,8847 -1679,8817 " style="fill: white; stroke: black; stroke-width: 30" />
<polyline points="-1367,8067 -1371,8057 -1374,8063 -1374,8119 -1396,8229 -1400,8381 -1395,8529 -1376,8662 -1355,8754 -1346,8790 -1347,8791 -1352,8775 -1362,8742 -1359,8717 " style="fill: white; stroke: black; stroke-width: 30" />
<polyline points="-1396,8064 -1399,8059 -1387,8065 -1356,8075 -1251,8072 -1077,8061 -893,8056 -777,8065 -742,8070 -746,8067 -752,8065 -749,8063 -751,8062 -743,8064 -746,8065 -750,8067 -752,8074 -749,8103 -744,8226 -749,8370 -754,8504 -748,8608 -739,8675 -735,8725 -733,8761 -735,8782 -739,8783 -736,8778 -732,8757 -731,8717 " style="fill: white; stroke: black; stroke-width: 30" />
<polyline points="-295,7989 -278,7962 -277,7959 -284,7979 -303,8040 -300,8112 -288,8209 -261,8331 -256,8456 -249,8549 -240,8598 -234,8609 -232,8602 -246,8538 " style="fill: white; stroke: black; stroke-width: 30" />
<polyline points="-325,7960 -334,7958 -323,7960 -271,7964 -140,7969 21,7970 187,7972 290,7975 303,7975 295,7973 296,7973 301,7972 296,7973 295,7973 296,7974 290,7978 297,7984 297,8021 298,8094 312,8217 318,8379 322,8540 329,8647 342,8714 359,8744 363,8749 362,8749 356,8745 353,8743 358,8731 382,8694 " style="fill: white; stroke: black; stroke-width: 30" />
<polyline points="760,7896 749,7892 746,7905 740,7934 740,8036 762,8182 765,8335 776,8461 784,8538 794,8568 796,8574 790,8569 " style="fill: white; stroke: black; stroke-width: 30" />
<polyline points="746,7891 748,7882 753,7879 755,7877 799,7876 927,7887 1104,7901 1247,7916 1304,7918 1303,7916 1298,7913 1297,7911 1296,7911 1302,7909 1299,7911 1297,7911 1298,7913 1298,7916 1296,7951 1290,8060 1274,8239 1265,8415 1274,8527 1279,8585 1286,8620 1290,8641 1285,8642 1283,8640 1285,8636 1282,8635 1285,8633 1289,8631 1295,8623 1300,8584 " style="fill: white; stroke: black; stroke-width: 30" />
<polyline points="-4759,9966 -4761,9924 -4775,9871 -4790,9822 -4823,9758 -4830,9684 -4817,9597 -4786,9494 -4749,9386 -4720,9276 -4689,9172 -4650,9065 -4608,8957 -4549,8851 -4487,8750 -4418,8673 -4352,8613 -4279,8568 -4191,8520 -4089,8485 -3991,8461 -3887,8448 -3800,8436 -3706,8429 -3618,8421 -3520,8410 -3419,8396 -3344,8383 -3293,8375 -3283,8370 -3277,8365 -3267,8323 -3240,8288 -3231,8264 -3229,8259 -3228,8260 -3227,8261 -3229,8262 -3229,8262 -3231,8264 -3228,8265 -3228,8264 -3227,8264 -3228,8264 -3231,8262 -3223,8267 -3210,8272 -3188,8265 " style="fill: white; stroke: black; stroke-width: 30" />
<polyline points="2510,8138 2505,8132 2516,8124 2564,8105 2646,8078 2734,8064 2859,8057 2996,8069 3148,8092 3310,8128 3463,8189 3591,8270 3688,8366 3745,8477 3790,8602 3830,8734 3874,8886 3920,9050 3972,9219 4049,9376 4150,9520 4271,9637 4374,9730 4444,9789 4481,9816 4494,9822 4494,9817 4492,9804 4481,9788 4464,9764 " style="fill: white; stroke: black; stroke-width: 30" />
<polyline points="1972,7766 1974,7762 1977,7762 1978,7783 1959,7917 1953,8147 1937,8413 1932,8627 1944,8758 1944,8788 " style="fill: white; stroke: black; stroke-width: 30" />
<polyline points="2010,7776 2015,7778 2056,7776 2175,7767 2338,7763 2480,7777 2586,7795 2631,7804 2645,7787 " style="fill: white; stroke: black; stroke-width: 30" />
<polyline points="1948,8209 1957,8209 2002,8211 2080,8213 2141,8216 2175,8221 2170,8221 2133,8227 2077,8237 2004,8247 1959,8245 1944,8236 1957,8233 1976,8236 2017,8252 2082,8261 2167,8273 2245,8270 2252,8269 2233,8267 2153,8253 2039,8234 1951,8214 1937,8209 1947,8211 1984,8222 2050,8240 2119,8263 2181,8277 2187,8277 2177,8248 " style="fill: white; stroke: black; stroke-width: 30" />
<polyline points="785,8175 790,8171 790,8167 794,8166 791,8165 798,8165 788,8165 799,8163 827,8160 868,8158 931,8159 1022,8162 1114,8169 1180,8173 1196,8172 1201,8171 1206,8168 1209,8169 1211,8168 1213,8170 1213,8170 1216,8169 1214,8169 1214,8167 1211,8167 " style="fill: white; stroke: black; stroke-width: 30" />
<polyline points="804,8171 822,8171 822,8172 826,8178 821,8199 824,8220 831,8252 837,8300 846,8355 843,8385 846,8386 841,8383 843,8381 839,8381 838,8379 844,8378 849,8375 851,8360 857,8349 " style="fill: white; stroke: black; stroke-width: 30" />
<polyline points="844,8338 851,8339 848,8341 858,8342 858,8343 859,8343 878,8342 927,8341 1017,8341 1106,8341 1172,8339 1207,8340 1222,8341 1233,8343 1239,8342 1235,8343 1231,8341 1232,8341 1231,8341 1235,8340 1239,8339 1240,8338 1244,8335 " style="fill: white; stroke: black; stroke-width: 30" />
<polyline points="1247,8192 1245,8185 1245,8182 1238,8183 1243,8183 1240,8185 1240,8189 1239,8206 1244,8250 1243,8309 1239,8360 1238,8382 1238,8386 1234,8386 1238,8385 1234,8382 1238,8381 1238,8381 1244,8377 1247,8368 " style="fill: white; stroke: black; stroke-width: 30" />
<polyline points="836,8383 837,8379 829,8380 834,8381 843,8381 844,8381 857,8374 872,8372 896,8366 953,8364 1018,8366 1071,8369 1137,8371 1187,8373 1245,8367 1249,8366 1247,8366 1252,8366 1248,8365 1246,8364 1242,8362 1236,8363 1244,8360 1243,8360 1247,8359 1245,8356 1226,8346 " style="fill: white; stroke: black; stroke-width: 30" />
<polyline points="806,8164 805,8166 801,8170 809,8172 816,8176 836,8179 863,8179 898,8177 959,8177 1030,8182 1112,8190 1188,8194 1227,8195 1241,8194 1233,8196 1230,8196 1233,8195 1233,8195 1231,8194 1229,8195 1231,8194 1233,8193 1231,8194 1234,8190 1227,8191 " style="fill: white; stroke: black; stroke-width: 30" />
<polyline points="834,8184 825,8181 818,8178 823,8177 825,8176 827,8175 828,8175 825,8174 830,8178 835,8190 840,8226 849,8267 856,8312 857,8357 858,8381 861,8391 856,8391 861,8391 857,8391 860,8390 858,8389 862,8389 865,8386 867,8382 868,8371 869,8362 " style="fill: white; stroke: black; stroke-width: 30" />
<polyline points="802,8361 798,8361 805,8361 810,8363 859,8363 906,8361 981,8359 1068,8364 1144,8368 1201,8371 1227,8369 1229,8367 1229,8368 1227,8367 1234,8366 1233,8366 1231,8366 1229,8366 1232,8364 1228,8362 1212,8357 " style="fill: white; stroke: black; stroke-width: 30" />
<polyline points="1225,8203 1231,8201 1226,8200 1225,8199 1228,8198 1223,8200 1223,8202 1223,8204 1222,8215 1224,8249 1238,8308 1240,8368 1240,8391 1236,8396 1238,8395 1238,8394 1238,8392 1235,8395 1239,8394 1238,8395 1240,8395 1239,8393 1239,8390 " style="fill: white; stroke: black; stroke-width: 30" />
<polyline points="-337,3874 -327,3846 -340,3826 -385,3808 -460,3824 -575,3904 -666,4006 -674,4088 -612,4157 -473,4190 -353,4193 -273,4193 " style="fill: white; stroke: black; stroke-width: 30" />
<polyline points="-132,4003 -200,4017 -254,4054 -265,4094 -225,4152 -134,4190 2,4163 97,4096 101,4061 69,4041 20,4035 -2,4040 6,4037 36,4022 56,3999 " style="fill: white; stroke: black; stroke-width: 30" />
<polyline points="265,3772 266,3769 265,3773 256,3809 221,3891 183,4002 175,4080 213,4148 278,4194 313,4209 333,4196 " style="fill: white; stroke: black; stroke-width: 30" />
<polyline points="433,4021 384,4031 347,4083 354,4160 428,4206 547,4216 645,4209 669,4188 656,4142 616,4080 587,4054 582,4048 586,4049 599,4057 604,4053 " style="fill: white; stroke: black; stroke-width: 30" />
<polyline points="3117,8717 3150,8697 3230,8697 3290,8742 3301,8819 3250,8871 3157,8885 3097,8867 3096,8846 3110,8816 3136,8776 3138,8745 " style="fill: white; stroke: black; stroke-width: 30" />
<polyline points="3198,8877 3191,8877 3192,8885 3185,8923 3171,9010 3182,9125 3202,9265 3227,9386 3235,9470 3224,9502 " style="fill: white; stroke: black; stroke-width: 30" />
<polyline points="3035,9511 3006,9534 2992,9542 2996,9534 3001,9517 3066,9458 3182,9396 3286,9375 3347,9385 3391,9412 3407,9455 3419,9499 3447,9551 3462,9576 " style="fill: white; stroke: black; stroke-width: 30" />
<polyline points="3003,9039 3193,9024 3391,9030 3498,9043 3540,9060 " style="fill: white; stroke: black; stroke-width: 30" />
<polyline points="-2338,6222 -2332,6223 -2325,6223 -2309,6220 -2286,6211 -2235,6197 -2109,6190 -2005,6198 -1959,6209 -1920,6214 -1911,6211 -1902,6204 -1890,6188 -1900,6181 -1937,6182 " style="fill: white; stroke: black; stroke-width: 30" />
<polyline points="-2260,6194 -2265,6196 -2280,6205 -2293,6230 -2300,6271 -2286,6315 -2268,6345 -2264,6357 -2262,6360 -2260,6360 -2261,6358 -2262,6358 -2260,6360 -2261,6360 -2235,6367 -2152,6377 -2057,6380 -1965,6377 -1905,6370 -1887,6361 -1881,6357 -1877,6349 -1875,6346 -1881,6339 " style="fill: white; stroke: black; stroke-width: 30" />
<polyline points="-1808,6134 -1811,6131 -1817,6142 -1829,6189 -1835,6259 -1835,6313 -1835,6353 -1833,6383 -1833,6394 " style="fill: white; stroke: black; stroke-width: 30" />
<polyline points="-2271,6480 -2295,6477 -2301,6478 -2293,6480 -2253,6476 -2154,6466 -2060,6455 -1998,6452 -1962,6447 -1937,6445 -1928,6441 -1919,6442 -1922,6440 -1924,6438 " style="fill: white; stroke: black; stroke-width: 30" />
<polyline points="-2272,6480 -2268,6499 -2260,6530 -2249,6562 -2232,6597 -2217,6621 -2208,6631 -2204,6633 -2203,6631 -2191,6632 -2153,6630 -2094,6628 -2016,6621 -1947,6610 -1919,6605 -1901,6598 -1899,6594 -1900,6593 -1897,6592 -1890,6586 -1878,6561 " style="fill: white; stroke: black; stroke-width: 30" />
<polyline points="-1834,6440 -1835,6442 -1832,6460 -1834,6487 -1837,6520 -1834,6556 -1839,6593 -1838,6628 -1820,6634 " style="fill: white; stroke: black; stroke-width: 30" />
<polyline points="-2264,6755 -2264,6754 -2216,6751 -2117,6740 -1994,6728 -1915,6724 -1886,6724 -1884,6721 -1883,6719 -1903,6711 -1945,6713 " style="fill: white; stroke: black; stroke-width: 30" />
<polyline points="-2251,6760 -2246,6784 -2249,6838 -2238,6895 -2218,6930 -2211,6938 -2210,6936 -2211,6934 -2212,6932 -2209,6934 -2210,6935 -2204,6935 -2147,6923 -2037,6922 -1946,6926 -1882,6924 -1857,6917 -1857,6913 -1856,6911 -1864,6910 -1860,6902 " style="fill: white; stroke: black; stroke-width: 30" />
<polyline points="-1864,6707 -1874,6726 -1881,6779 -1878,6849 -1857,6918 -1827,6976 -1813,6980 " style="fill: white; stroke: black; stroke-width: 30" />
<polyline points="-3014,7222 -3015,7240 -3021,7246 -3022,7246 -3024,7243 -3011,7248 -2967,7255 -2850,7258 -2640,7253 -2325,7241 -1879,7227 -1340,7214 -711,7216 -48,7238 591,7277 1170,7322 1629,7358 1900,7382 2031,7392 2048,7390 2044,7388 2039,7386 2032,7382 2031,7382 1987,7389 " style="fill: white; stroke: black; stroke-width: 30" />
<polyline points="-3081,7515 -3105,7522 -3110,7527 -3103,7530 -3065,7532 -2971,7520 -2812,7511 -2563,7500 -2189,7489 -1697,7479 -1092,7475 -398,7474 339,7501 1051,7560 1635,7624 2067,7662 2308,7665 2372,7655 2366,7648 2357,7645 2354,7646 2349,7652 2350,7660 2340,7688 2325,7716 2321,7724 " style="fill: white; stroke: black; stroke-width: 30" />
<polyline points="-1284,6290 -1281,6292 -1265,6289 -1211,6285 -1107,6284 -952,6291 -819,6295 -737,6295 -727,6292 -731,6292 -739,6290 -754,6283 " style="fill: white; stroke: black; stroke-width: 30" />
<polyline points="-1190,6298 -1192,6296 -1193,6298 -1195,6312 -1200,6363 -1197,6414 -1182,6457 -1176,6468 -1170,6467 -1166,6466 -1161,6465 -1154,6463 -1128,6460 -1062,6455 -968,6457 -858,6454 -772,6448 -748,6440 -749,6438 -752,6437 -753,6438 -753,6437 " style="fill: white; stroke: black; stroke-width: 30" />
<polyline points="-753,6281 -756,6302 -757,6336 -753,6377 -742,6430 -736,6468 -735,6496 " style="fill: white; stroke: black; stroke-width: 30" />
<polyline points="-1198,6581 -1199,6580 -1198,6579 -1182,6581 -1163,6585 -1112,6579 -1002,6566 -869,6558 -799,6555 -791,6554 -795,6552 -800,6544 -801,6524 " style="fill: white; stroke: black; stroke-width: 30" />
<polyline points="-1133,6564 -1131,6571 -1130,6583 -1124,6607 -1123,6650 -1116,6697 -1100,6728 -1096,6737 -1083,6731 -1043,6716 -995,6698 -948,6689 -897,6685 -841,6682 -798,6673 -787,6668 -785,6669 -783,6670 -783,6670 -781,6667 -749,6656 " style="fill: white; stroke: black; stroke-width: 30" />
<polyline points="-760,6544 -770,6541 -772,6548 -770,6573 -766,6625 -758,6673 -762,6701 -759,6722 " style="fill: white; stroke: black; stroke-width: 30" />
<polyline points="-1208,6887 -1211,6878 -1195,6876 -1133,6874 -1038,6870 -898,6860 -760,6849 -684,6848 -685,6846 -691,6846 -694,6845 -694,6844 -703,6842 -747,6846 " style="fill: white; stroke: black; stroke-width: 30" />
<polyline points="-1216,6891 -1212,6906 -1211,6929 -1213,6952 -1218,6968 -1214,6979 -1202,6989 -1194,6992 -1189,6992 -1189,6992 -1182,6993 -1128,6997 -1054,7004 -989,7016 -907,7023 -796,7018 -711,7005 -706,6999 -711,6998 -717,6998 -715,7000 -717,6997 -729,6993 -759,6975 " style="fill: white; stroke: black; stroke-width: 30" />
<polyline points="-723,6787 -719,6785 -711,6798 -703,6848 -706,6907 -712,6972 -712,7028 " style="fill: white; stroke: black; stroke-width: 30" />
<polyline points="-4936,8719 -4943,8676 -4929,8649 -4928,8659 -4912,8706 " style="fill: white; stroke: black; stroke-width: 30" />

</svg>