<?xml version="1.0" standalone="no"?>
<!DOCTYPE svg PUBLIC "-//W3C//DTD SVG 1.1//EN" "http://www.w3.org/Graphics/SVG/1.1/DTD/svg11.dtd">
<svg width="210mm" height="297mm" viewBox="-7000 500 14000 20000" version="1.1" xmlns="http://www.w3.org/2000/svg">

<polyline points="-3781,1359 -3784,1361 -3785,1367 -3789,1375 -3784,1425 -3783,1482 -3780,1527 -3776,1545 -3775,1545 -3777,1530 -3779,1482 -3787,1403 -3784,1361 -3799,1336 -3810,1327 -3812,1334 -3813,1339 -3819,1341 -3810,1362 -3776,1425 -3722,1449 -3631,1458 -3516,1434 -3421,1391 -3372,1366 -3363,1349 -3363,1347 -3364,1348 -3362,1347 -3364,1346 -3362,1345 -3364,1346 -3364,1348 -3369,1345 -3368,1343 -3369,1343 -3370,1340 -3368,1346 -3369,1341 -3369,1345 -3373,1342 -3375,1346 -3381,1371 -3391,1440 -3392,1506 -3382,1560 -3362,1590 " style="fill: white; stroke: black; stroke-width: 30" />
<polyline points="-3060,1385 -3068,1393 -3074,1402 -3086,1460 -3100,1557 -3097,1622 -3074,1656 " style="fill: white; stroke: black; stroke-width: 30" />
<polyline points="-3220,1368 -3224,1370 -3217,1370 -3210,1359 -3176,1354 -3115,1341 -3014,1339 -2907,1345 " style="fill: white; stroke: black; stroke-width: 30" />
<polyline points="-2810,1380 -2822,1386 -2823,1403 -2837,1495 -2848,1610 -2847,1679 -2833,1691 -2811,1689 -2780,1660 -2727,1591 -2652,1489 -2570,1399 -2534,1363 -2538,1364 -2542,1366 -2545,1374 -2544,1372 -2536,1362 " style="fill: white; stroke: black; stroke-width: 30" />
<polyline points="-1143,1359 -1153,1347 -1160,1344 -1178,1358 -1232,1451 -1272,1564 -1271,1619 -1258,1644 -1247,1642 -1215,1635 -1136,1608 -1028,1567 -929,1545 -873,1544 -863,1543 -864,1543 -865,1539 -866,1538 -866,1535 -869,1538 -871,1538 -873,1543 -886,1571 -916,1646 -930,1698 -924,1710 -896,1686 " style="fill: white; stroke: black; stroke-width: 30" />
<polyline points="-816,1356 -849,1330 -847,1317 -823,1311 -754,1330 -712,1378 -711,1410 -741,1431 -776,1425 -816,1400 -828,1376 -812,1330 " style="fill: white; stroke: black; stroke-width: 30" />
<polyline points="-617,1560 -645,1548 -669,1559 -694,1618 -701,1706 -666,1773 -587,1797 -493,1747 -441,1671 -434,1598 -452,1563 -492,1555 -497,1562 -487,1603 -443,1665 -387,1711 -309,1736 -228,1728 -146,1679 -60,1586 -20,1506 -25,1484 -56,1475 -108,1505 -148,1562 -152,1618 -104,1678 -20,1716 52,1719 95,1706 " style="fill: white; stroke: black; stroke-width: 30" />
<polyline points="750,1631 747,1650 734,1699 712,1762 689,1807 685,1833 696,1830 " style="fill: white; stroke: black; stroke-width: 30" />
<polyline points="753,1528 735,1485 742,1451 787,1417 855,1408 893,1438 873,1475 809,1510 749,1503 734,1485 744,1472 795,1440 " style="fill: white; stroke: black; stroke-width: 30" />
<polyline points="1143,1661 1044,1607 971,1591 960,1601 955,1672 965,1750 954,1794 919,1813 897,1807 887,1785 886,1755 917,1717 " style="fill: white; stroke: black; stroke-width: 30" />
<polyline points="1763,1642 1745,1664 1695,1763 1648,1859 1621,1928 1622,1946 1627,1928 1666,1827 1727,1688 1799,1570 1873,1515 1931,1522 1953,1582 1926,1672 1845,1744 1764,1765 1710,1735 1704,1692 1739,1625 1821,1566 " style="fill: white; stroke: black; stroke-width: 30" />
<polyline points="2075,1743 2063,1684 2067,1665 2084,1679 2106,1734 2102,1807 2054,1871 1981,1905 1946,1885 1949,1827 1990,1734 2043,1681 2083,1676 2124,1706 2165,1757 2222,1795 2303,1799 2372,1750 2414,1668 2429,1612 2432,1592 2437,1590 2436,1595 2432,1605 2424,1630 2422,1651 2424,1658 2430,1654 2433,1644 2437,1623 2439,1593 2441,1587 2440,1587 2437,1597 2430,1605 2419,1640 2402,1703 2384,1774 2381,1832 2381,1857 2376,1857 2360,1834 2331,1778 2314,1734 2313,1719 2325,1716 2340,1716 2365,1717 2413,1709 2478,1697 2541,1676 2562,1661 2560,1652 2551,1658 2539,1667 2505,1715 2490,1772 2511,1821 2566,1830 2699,1769 2825,1687 2856,1653 2848,1655 2813,1686 2716,1798 2630,1947 2558,2097 2504,2215 " style="fill: white; stroke: black; stroke-width: 30" />
<polyline points="2239,1692 2235,1689 2242,1694 2253,1735 2242,1808 2231,1872 2225,1881 2227,1873 2235,1843 2283,1754 2359,1634 2402,1564 2410,1549 2409,1558 " style="fill: white; stroke: black; stroke-width: 30" />
<polyline points="-3669,2001 -3685,2000 -3706,1998 -3718,1998 -3719,2002 -3722,2005 -3718,2009 -3710,2006 -3670,2005 -3593,1999 -3500,1992 -3415,2015 " style="fill: white; stroke: black; stroke-width: 30" />
<polyline points="-3554,2046 -3569,2047 -3589,2092 -3633,2248 -3664,2350 -3649,2384 -3607,2393 -3522,2394 -3435,2378 -3378,2370 -3343,2373 -3335,2372 " style="fill: white; stroke: black; stroke-width: 30" />
<polyline points="-3283,2247 -3281,2250 -3250,2263 -3214,2284 -3190,2309 -3194,2345 -3219,2384 -3273,2438 -3308,2459 -3313,2457 -3308,2448 -3281,2421 " style="fill: white; stroke: black; stroke-width: 30" />
<polyline points="-2742,2471 -2747,2468 -2751,2464 -2754,2462 -2750,2459 -2740,2444 -2688,2379 -2622,2266 -2585,2178 -2567,2140 -2566,2136 -2570,2144 -2579,2169 -2577,2225 -2551,2302 -2512,2373 -2460,2428 -2418,2455 " style="fill: white; stroke: black; stroke-width: 30" />
<polyline points="-2715,2284 -2725,2281 -2710,2281 -2666,2282 -2578,2287 -2466,2286 -2363,2250 -2299,2220 -2298,2217 -2311,2224 -2322,2233 -2343,2269 -2337,2300 -2320,2314 -2268,2324 -2231,2325 -2222,2327 -2225,2332 -2227,2334 -2223,2333 -2219,2328 -2215,2324 -2213,2324 -2213,2325 -2216,2327 -2224,2331 -2224,2330 -2224,2330 -2223,2329 -2224,2328 -2219,2325 -2212,2314 -2193,2274 -2176,2246 -2170,2238 -2172,2235 -2171,2236 -2172,2239 -2174,2248 -2185,2277 -2213,2339 -2220,2370 -2216,2393 " style="fill: white; stroke: black; stroke-width: 30" />
<polyline points="-1912,2212 -1972,2210 -2014,2213 -2027,2217 -2039,2256 -2037,2315 -2033,2360 -2044,2394 -2063,2404 -2086,2403 -2100,2391 -2096,2371 -2050,2322 -1974,2280 -1886,2255 -1826,2234 -1820,2229 -1842,2240 -1874,2275 -1899,2338 -1906,2389 -1912,2416 -1912,2421 -1923,2418 -1933,2407 -1937,2395 -1933,2394 -1916,2400 -1865,2396 -1797,2384 -1726,2356 -1688,2329 -1698,2316 -1741,2324 -1786,2362 -1797,2407 -1771,2439 -1707,2439 -1630,2386 -1585,2345 -1575,2335 -1574,2343 -1568,2370 -1568,2407 -1560,2438 " style="fill: white; stroke: black; stroke-width: 30" />
<polyline points="-1194,2300 -1244,2298 -1279,2308 -1312,2346 -1326,2398 -1330,2433 -1334,2439 -1346,2434 -1374,2410 -1385,2399 -1382,2400 -1353,2404 -1265,2393 -1168,2369 -1101,2337 -1103,2319 -1151,2310 -1204,2330 -1219,2359 -1199,2398 -1116,2416 -996,2394 -899,2348 -882,2334 -893,2343 -920,2386 -941,2443 -939,2499 -920,2509 -870,2451 -818,2325 -786,2207 -796,2182 -803,2179 -804,2178 -797,2178 -785,2178 -764,2175 " style="fill: white; stroke: black; stroke-width: 30" />
<polyline points="-528,2081 -574,2154 -637,2283 -676,2396 -690,2461 -691,2462 -693,2443 -691,2412 -685,2399 -674,2402 -626,2405 -549,2405 -494,2390 -481,2366 -505,2337 -543,2342 -558,2370 -544,2418 -493,2457 -407,2476 -301,2434 -206,2367 -162,2327 -142,2309 -128,2302 -68,2296 " style="fill: white; stroke: black; stroke-width: 30" />
<polyline points="548,2452 534,2438 530,2432 533,2429 543,2428 566,2438 625,2449 720,2453 819,2447 " style="fill: white; stroke: black; stroke-width: 30" />
<polyline points="946,2337 933,2330 932,2329 951,2346 984,2375 1005,2407 1006,2418 994,2426 949,2460 897,2509 879,2542 " style="fill: white; stroke: black; stroke-width: 30" />
<polyline points="1652,2303 1637,2289 1601,2303 1527,2364 1465,2431 1426,2484 1419,2521 1444,2546 1501,2558 1574,2548 1623,2529 1673,2506 1718,2482 1761,2454 1782,2424 1781,2398 1752,2390 1696,2399 1645,2427 1629,2457 1646,2492 1704,2522 1803,2514 1893,2488 1925,2466 1921,2467 1913,2473 1901,2500 1885,2550 1883,2588 1897,2592 " style="fill: white; stroke: black; stroke-width: 30" />
<polyline points="2073,2304 2064,2252 2051,2220 2048,2218 2052,2220 2063,2240 " style="fill: white; stroke: black; stroke-width: 30" />
<polyline points="2155,2424 2113,2411 2043,2421 2013,2437 2019,2465 2061,2491 2142,2487 2220,2446 2285,2374 2317,2324 2313,2310 2299,2316 2253,2353 2230,2410 2242,2456 2282,2486 2340,2506 2365,2528 2369,2542 2386,2550 2427,2538 2466,2503 2473,2451 2457,2431 2441,2441 2441,2474 2471,2541 2559,2616 2696,2673 " style="fill: white; stroke: black; stroke-width: 30" />
<polyline points="-3913,3519 -3900,3508 -3897,3511 -3895,3536 -3889,3610 -3885,3698 -3882,3748 -3879,3775 -3880,3782 -3878,3781 -3877,3757 -3880,3666 -3874,3576 -3870,3529 -3876,3500 -3891,3487 -3914,3478 -3922,3481 -3928,3485 -3927,3496 -3913,3522 -3882,3604 -3843,3664 -3775,3705 -3691,3705 -3619,3675 -3579,3636 -3569,3608 -3571,3608 -3575,3616 -3586,3658 -3589,3724 -3581,3767 -3550,3800 -3521,3786 " style="fill: white; stroke: black; stroke-width: 30" />
<polyline points="-3408,3672 -3413,3680 -3422,3678 -3426,3678 -3440,3670 -3470,3669 -3487,3678 -3490,3701 -3475,3742 -3437,3777 -3378,3795 -3335,3784 -3328,3765 -3348,3731 -3384,3692 -3431,3671 -3436,3672 -3431,3676 -3409,3688 -3376,3710 -3356,3726 " style="fill: white; stroke: black; stroke-width: 30" />
<polyline points="-3087,3691 -3094,3678 -3114,3661 -3155,3648 -3222,3649 -3274,3673 -3294,3689 -3294,3717 -3271,3732 -3210,3742 -3127,3721 -3064,3675 -3026,3616 -3015,3562 -3021,3539 -3029,3536 -3027,3540 -3029,3544 -3024,3553 -3025,3586 -3025,3636 -3017,3702 -3002,3778 " style="fill: white; stroke: black; stroke-width: 30" />
<polyline points="-1956,3649 -1961,3645 -1968,3653 -1975,3708 -1982,3820 -1987,3900 -1987,3928 -1988,3922 -1993,3854 -2010,3722 -2006,3564 -1988,3488 -1959,3461 -1920,3465 -1883,3499 -1866,3552 -1881,3593 -1928,3628 -1991,3625 -2034,3600 -2049,3574 -2043,3572 -2019,3568 " style="fill: white; stroke: black; stroke-width: 30" />
<polyline points="-1844,3746 -1878,3708 -1865,3693 -1823,3702 -1759,3748 -1729,3801 -1734,3830 -1775,3851 -1845,3842 -1890,3815 -1889,3811 -1881,3812 -1832,3830 -1772,3852 -1724,3865 " style="fill: white; stroke: black; stroke-width: 30" />
<polyline points="-1752,3620 -1779,3602 -1781,3601 -1772,3606 -1721,3630 " style="fill: white; stroke: black; stroke-width: 30" />
<polyline points="-1594,3834 -1635,3816 -1661,3792 -1690,3780 -1716,3785 -1723,3813 -1701,3842 -1641,3859 -1562,3823 -1488,3742 -1465,3675 -1479,3648 -1507,3651 -1550,3698 -1575,3784 -1550,3845 -1487,3878 -1413,3869 -1355,3839 -1347,3827 -1356,3825 -1370,3832 -1373,3840 -1370,3843 -1369,3840 -1371,3839 -1371,3834 -1372,3833 -1371,3829 -1368,3829 -1366,3824 -1367,3819 -1368,3813 -1375,3808 -1390,3801 -1399,3809 -1412,3835 -1412,3879 -1390,3905 -1354,3917 -1298,3902 -1270,3872 -1269,3816 -1296,3782 -1331,3772 -1342,3776 -1334,3780 -1303,3804 " style="fill: white; stroke: black; stroke-width: 30" />
<polyline points="-711,3876 -754,3888 -776,3898 -765,3894 -720,3854 -655,3779 -596,3696 -569,3654 -574,3646 -594,3654 -641,3695 -693,3788 -714,3861 -702,3905 -660,3919 -600,3913 -544,3883 -474,3824 " style="fill: white; stroke: black; stroke-width: 30" />
<polyline points="-354,3841 -372,3815 -376,3792 -369,3786 -357,3787 -338,3819 -337,3863 -363,3906 -402,3919 -443,3899 -457,3861 -450,3830 -428,3817 -379,3818 -341,3849 " style="fill: white; stroke: black; stroke-width: 30" />
<polyline points="-233,3893 -254,3880 -245,3870 -205,3881 -150,3914 -128,3952 -143,3970 -184,3968 -239,3936 -264,3903 -259,3897 -232,3895 -146,3892 " style="fill: white; stroke: black; stroke-width: 30" />
<polyline points="20,3912 11,3904 9,3893 6,3888 6,3887 3,3888 3,3888 2,3892 -4,3912 -34,3996 -67,4069 -79,4105 -79,4103 -74,4086 -50,4008 5,3898 48,3865 92,3866 111,3888 98,3915 59,3934 14,3929 -9,3899 -6,3890 23,3880 " style="fill: white; stroke: black; stroke-width: 30" />
<polyline points="879,3962 887,3938 878,3902 845,3861 780,3840 715,3864 700,3908 734,3952 810,3967 883,3943 898,3927 888,3930 852,3968 815,4054 786,4152 757,4228 716,4276 679,4269 649,4191 675,4033 749,3914 " style="fill: white; stroke: black; stroke-width: 30" />
<polyline points="1000,3918 1005,3912 1024,3896 1058,3885 1097,3887 1124,3916 1116,3953 1069,3991 1015,3993 992,3967 995,3915 1020,3864 1046,3850 1081,3874 " style="fill: white; stroke: black; stroke-width: 30" />
<polyline points="1216,4001 1214,3980 1229,3938 1248,3914 1254,3913 1261,3932 1267,3971 1275,4005 1313,4025 1401,4023 1507,3977 1557,3920 1538,3883 1460,3870 1387,3897 1380,3947 1436,4008 1558,4041 1670,4051 " style="fill: white; stroke: black; stroke-width: 30" />
<polyline points="-1925,4178 -1933,4175 -1927,4174 -1915,4176 -1879,4173 -1816,4171 -1747,4168 -1694,4170 -1646,4178 " style="fill: white; stroke: black; stroke-width: 30" />
<polyline points="-1789,4198 -1836,4202 -1856,4222 -1894,4321 -1937,4433 -1948,4506 -1933,4521 -1893,4535 -1857,4535 -1811,4535 -1778,4530 -1751,4529 -1748,4531 -1753,4535 -1746,4537 " style="fill: white; stroke: black; stroke-width: 30" />
<polyline points="-1682,4441 -1709,4439 -1707,4437 -1679,4446 -1630,4474 -1577,4513 -1549,4539 -1553,4556 -1596,4575 -1649,4601 -1661,4606 -1656,4606 -1647,4602 " style="fill: white; stroke: black; stroke-width: 30" />
<polyline points="-1096,4464 -1108,4460 -1120,4464 -1131,4479 -1161,4521 -1163,4568 -1138,4600 -1074,4638 -970,4643 -888,4613 -874,4580 -900,4548 -939,4526 -957,4524 -957,4522 -944,4524 -922,4531 -888,4551 -841,4557 " style="fill: white; stroke: black; stroke-width: 30" />
<polyline points="-622,4534 -621,4523 -640,4506 -671,4488 -734,4469 -753,4473 -751,4480 -736,4525 -723,4598 -732,4652 -755,4667 -779,4662 -799,4643 -812,4624 -814,4614 -804,4591 " style="fill: white; stroke: black; stroke-width: 30" />
<polyline points="-92,4727 -88,4718 -88,4709 -83,4703 -83,4695 -83,4692 -85,4688 -87,4688 -86,4684 -83,4680 -58,4649 30,4576 159,4489 261,4442 282,4431 268,4436 245,4444 224,4457 219,4463 220,4464 221,4462 224,4463 224,4463 224,4468 230,4489 250,4564 279,4643 310,4725 331,4784 " style="fill: white; stroke: black; stroke-width: 30" />
<polyline points="15,4581 -50,4555 -55,4551 -21,4554 76,4568 205,4598 332,4636 " style="fill: white; stroke: black; stroke-width: 30" />
<polyline points="574,4523 551,4484 500,4457 410,4475 351,4538 354,4618 415,4685 512,4724 618,4713 674,4671 670,4633 628,4587 564,4552 519,4534 521,4533 527,4534 534,4534 542,4537 546,4541 " style="fill: white; stroke: black; stroke-width: 30" />
<polyline points="496,4576 478,4562 478,4559 483,4567 509,4605 543,4672 604,4742 669,4789 741,4824 " style="fill: white; stroke: black; stroke-width: 30" />
<polyline points="-3245,7012 -3259,7018 -3263,7027 -3262,7030 -3257,7026 -3230,7008 -3169,6962 -3062,6881 -2919,6763 -2763,6643 -2634,6550 -2570,6506 -2559,6493 -2563,6493 -2566,6492 -2568,6493 -2565,6492 -2565,6491 -2562,6490 -2565,6487 -2565,6488 -2571,6488 -2564,6489 " style="fill: white; stroke: black; stroke-width: 30" />
<polyline points="-2848,6446 -2849,6451 -2850,6448 -2842,6449 -2819,6445 -2751,6437 -2641,6422 -2503,6409 -2373,6397 -2305,6390 -2290,6386 -2293,6388 -2300,6388 -2299,6389 -2297,6385 -2299,6382 -2298,6379 -2300,6379 -2298,6378 -2297,6383 -2297,6387 " style="fill: white; stroke: black; stroke-width: 30" />
<polyline points="-3575,7078 -3586,7086 -3586,7082 -3566,7079 -3513,7065 -3432,7044 -3332,7028 -3212,7009 -3105,7001 -3030,7001 -2982,7000 " style="fill: white; stroke: black; stroke-width: 30" />
<polyline points="-2482,6285 -2481,6278 -2465,6270 -2440,6252 -2367,6207 -2269,6126 -2167,6037 -2067,5957 -2007,5917 -1996,5906 -1994,5904 -1999,5905 -1998,5904 -2000,5904 -2001,5901 -1998,5901 -1995,5899 " style="fill: white; stroke: black; stroke-width: 30" />
<polyline points="-2184,5736 -2222,5727 -2214,5725 -2162,5738 -2071,5757 -1966,5776 -1863,5791 -1773,5803 -1736,5806 -1738,5806 -1740,5805 -1740,5804 " style="fill: white; stroke: black; stroke-width: 30" />
<polyline points="-1630,6006 -1621,5978 -1629,5978 -1646,5996 -1681,6069 -1701,6147 -1688,6188 -1648,6207 -1592,6204 -1517,6189 -1450,6164 -1403,6140 -1390,6124 -1406,6107 -1459,6102 -1514,6132 -1532,6163 -1499,6199 -1429,6220 -1336,6214 -1274,6178 -1257,6153 -1264,6118 -1261,6094 -1236,6048 -1196,5991 -1165,5947 -1159,5930 -1168,5931 -1193,5958 -1234,6044 -1259,6121 -1259,6180 -1245,6196 -1203,6195 -1153,6185 -1122,6186 -1114,6199 -1111,6216 " style="fill: white; stroke: black; stroke-width: 30" />
<polyline points="-1027,6168 -1036,6171 -1034,6164 -1030,6155 -1022,6141 -1016,6138 -1016,6144 -1005,6161 -956,6187 -896,6194 -842,6181 -817,6160 -818,6125 -830,6109 -862,6101 -876,6110 -875,6137 -844,6178 -801,6195 -765,6213 " style="fill: white; stroke: black; stroke-width: 30" />
<polyline points="-292,6404 -289,6365 -250,6290 -188,6197 -97,6094 -51,6045 -55,6036 -69,6040 -80,6056 -92,6118 -82,6209 -50,6294 3,6350 48,6366 " style="fill: white; stroke: black; stroke-width: 30" />
<polyline points="-242,6165 -247,6163 -227,6163 -165,6180 -84,6201 -13,6222 " style="fill: white; stroke: black; stroke-width: 30" />
<polyline points="167,6045 140,6037 130,6037 129,6048 128,6070 119,6120 106,6171 106,6214 115,6233 139,6242 160,6242 197,6222 248,6197 281,6203 289,6219 280,6253 247,6289 204,6305 147,6297 113,6272 94,6233 98,6222 117,6216 179,6213 " style="fill: white; stroke: black; stroke-width: 30" />
<polyline points="493,6204 447,6175 406,6158 387,6161 384,6196 387,6262 393,6303 386,6320 363,6320 325,6310 312,6301 323,6302 371,6301 472,6287 567,6258 648,6209 666,6165 642,6144 610,6137 555,6162 530,6193 536,6221 563,6234 612,6232 672,6196 738,6143 821,6061 867,6003 870,5975 866,5962 858,5947 854,5948 844,5956 815,6016 780,6099 777,6169 789,6195 810,6213 821,6221 824,6226 832,6227 855,6215 " style="fill: white; stroke: black; stroke-width: 30" />
<polyline points="1057,5987 1049,5988 1023,6027 980,6104 963,6159 971,6197 995,6210 1030,6204 1073,6178 1109,6156 1108,6156 1106,6166 1103,6189 1107,6216 1117,6228 1130,6234 1132,6234 1128,6238 1128,6241 1135,6249 1159,6264 " style="fill: white; stroke: black; stroke-width: 30" />
<polyline points="1358,6124 1351,6124 1325,6135 1299,6165 1270,6206 1262,6237 1264,6254 1274,6252 1284,6238 1315,6210 1363,6185 1430,6161 1487,6145 1499,6141 1499,6141 1488,6150 1487,6155 1481,6163 1474,6172 1465,6201 1457,6233 1446,6253 1434,6258 1430,6256 1431,6250 1432,6244 1432,6240 1435,6242 " style="fill: white; stroke: black; stroke-width: 30" />
<polyline points="2058,6101 2053,6097 2038,6117 1992,6202 1935,6297 1911,6364 1905,6383 1919,6371 1959,6290 2026,6173 2084,6085 2130,6052 2145,6058 2144,6097 2102,6154 2029,6194 1955,6192 1917,6165 1911,6147 1938,6139 2038,6129 " style="fill: white; stroke: black; stroke-width: 30" />
<polyline points="2312,6049 2294,6033 2258,6043 2190,6131 2128,6251 2129,6315 2141,6335 2186,6320 2257,6257 2316,6217 " style="fill: white; stroke: black; stroke-width: 30" />
<polyline points="2388,6210 2391,6203 2404,6202 2420,6214 2420,6235 2394,6267 2351,6300 2326,6310 2319,6302 2316,6289 2316,6270 2330,6257 2360,6241 2373,6240 2379,6245 2407,6266 2445,6278 " style="fill: white; stroke: black; stroke-width: 30" />
<polyline points="2720,6050 2706,6046 2683,6056 2618,6125 2559,6217 2525,6295 2517,6323 2512,6326 2519,6315 2540,6282 2577,6229 2600,6210 2598,6208 2600,6212 2610,6223 2651,6239 " style="fill: white; stroke: black; stroke-width: 30" />
<polyline points="2695,6194 2684,6180 2697,6178 2726,6190 2764,6210 2775,6225 2766,6241 2720,6287 2686,6326 2693,6364 2733,6402 2786,6417 " style="fill: white; stroke: black; stroke-width: 30" />
<polyline points="2715,6280 2720,6269 2734,6270 2768,6284 2812,6305 2861,6331 " style="fill: white; stroke: black; stroke-width: 30" />
<polyline points="3109,6135 3085,6099 3072,6089 3023,6120 2948,6211 2910,6289 2900,6332 2917,6339 2939,6332 2966,6328 2966,6333 2967,6355 2981,6380 3019,6383 3080,6352 3126,6307 3120,6298 3109,6308 3085,6342 3079,6371 3077,6380 3098,6373 " style="fill: white; stroke: black; stroke-width: 30" />
<polyline points="3257,6239 3285,6177 3284,6145 3279,6130 3277,6129 3275,6155 " style="fill: white; stroke: black; stroke-width: 30" />
<polyline points="3188,6411 3190,6392 3203,6366 3218,6342 3244,6311 3278,6289 3300,6277 3336,6279 3370,6293 3387,6300 3400,6289 3414,6270 3407,6259 3390,6260 3351,6284 3325,6333 3315,6381 3303,6423 3295,6428 3279,6422 3258,6394 3258,6387 3271,6387 3334,6383 3403,6368 3468,6333 3513,6286 3518,6261 3491,6260 3423,6300 3375,6351 3365,6396 3393,6413 3461,6396 3540,6342 3588,6272 3600,6226 3598,6223 3591,6233 3589,6269 3580,6330 3559,6384 3538,6428 3536,6449 3551,6468 " style="fill: white; stroke: black; stroke-width: 30" />
<polyline points="-1525,6532 -1535,6528 -1536,6527 -1534,6527 -1532,6525 -1520,6525 -1484,6521 -1417,6520 -1349,6515 -1280,6511 -1229,6507 " style="fill: white; stroke: black; stroke-width: 30" />
<polyline points="-1399,6568 -1409,6565 -1418,6572 -1435,6599 -1463,6704 -1491,6817 -1481,6868 -1444,6887 -1385,6890 -1346,6886 -1325,6889 -1294,6887 -1254,6878 -1208,6867 -1183,6855 -1177,6856 -1180,6854 -1180,6854 -1185,6851 -1178,6852 -1182,6849 -1183,6850 -1184,6848 -1182,6849 -1183,6849 -1183,6853 " style="fill: white; stroke: black; stroke-width: 30" />
<polyline points="-1166,6779 -1162,6765 -1158,6766 -1145,6776 -1126,6794 -1103,6826 -1094,6849 -1098,6875 -1117,6901 -1136,6927 -1149,6938 -1157,6941 -1159,6938 -1159,6937 -1160,6934 -1152,6932 " style="fill: white; stroke: black; stroke-width: 30" />
<polyline points="-870,7097 -878,7093 -878,7084 -866,7037 -822,6930 -780,6832 -763,6793 -763,6793 -773,6806 -790,6868 -796,6962 -772,7042 -729,7081 -663,7074 -580,6993 -509,6891 -483,6805 -496,6778 -512,6773 -530,6780 -540,6793 -544,6866 -536,6954 -526,7012 -503,7035 -479,7035 -446,7010 -435,6980 -445,6950 -468,6940 -488,6949 -496,6976 -481,7024 -439,7047 -393,7046 -374,7026 -385,7001 -413,6955 -436,6934 -444,6936 -438,6939 -429,6952 -399,6971 " style="fill: white; stroke: black; stroke-width: 30" />
<polyline points="299,6847 281,6840 260,6857 240,6930 224,7035 219,7097 217,7115 217,7116 217,7112 221,7106 220,7104 222,7104 222,7104 221,7104 222,7104 220,7105 220,7104 222,7104 222,7103 224,7103 224,7102 225,7102 224,7102 226,7102 226,7100 225,7099 229,7097 229,7094 233,7070 255,7015 274,6971 275,6953 262,6928 247,6905 213,6882 165,6871 111,6873 54,6919 1,7008 -23,7099 -12,7165 26,7222 102,7249 196,7234 275,7194 304,7160 308,7132 295,7115 281,7110 276,7111 278,7111 276,7110 277,7109 276,7111 272,7116 276,7148 281,7222 276,7316 262,7399 249,7468 239,7505 225,7526 199,7529 160,7515 115,7452 87,7386 84,7359 120,7313 202,7253 306,7231 390,7244 449,7246 473,7227 476,7194 476,7146 472,7113 470,7102 474,7096 479,7077 480,7062 478,7062 476,7070 473,7100 468,7154 483,7176 495,7173 502,7151 510,7108 510,7080 512,7076 512,7076 512,7077 512,7077 515,7081 511,7085 511,7099 507,7115 505,7149 500,7174 507,7197 521,7191 " style="fill: white; stroke: black; stroke-width: 30" />
<polyline points="467,6882 466,6867 495,6853 533,6863 560,6891 565,6918 555,6924 535,6925 518,6911 511,6890 512,6882 516,6883 534,6888 " style="fill: white; stroke: black; stroke-width: 30" />
<polyline points="621,7151 609,7126 598,7086 597,7060 604,7061 614,7082 630,7135 636,7171 644,7168 669,7115 699,7020 730,6932 762,6879 798,6855 843,6840 850,6838 847,6833 838,6827 829,6821 828,6818 829,6816 831,6815 830,6813 831,6814 834,6814 831,6816 832,6814 831,6813 837,6811 835,6811 834,6808 833,6808 832,6807 824,6813 827,6813 826,6818 808,6867 787,6962 783,7074 784,7153 802,7191 " style="fill: white; stroke: black; stroke-width: 30" />
<polyline points="1528,7087 1522,7091 1518,7092 1517,7096 1511,7096 1516,7091 1517,7083 1544,7059 1613,7013 1683,6994 1728,7005 1764,7040 1779,7087 1768,7119 1764,7127 1771,7126 1769,7124 1780,7110 " style="fill: white; stroke: black; stroke-width: 30" />
<polyline points="1680,6812 1679,6796 1679,6782 1693,6778 1708,6780 1723,6795 1720,6811 1707,6822 1693,6826 1682,6824 1693,6817 1702,6807 1706,6795 1712,6789 1725,6790 " style="fill: white; stroke: black; stroke-width: 30" />
<polyline points="1832,6850 1839,6819 1851,6809 1883,6829 1894,6881 1877,6921 1851,6932 1839,6919 1832,6894 1842,6858 1853,6851 " style="fill: white; stroke: black; stroke-width: 30" />
<polyline points="1535,7303 1523,7312 1500,7343 1475,7417 1459,7475 1478,7511 1535,7530 1635,7520 1727,7506 1782,7498 1825,7486 " style="fill: white; stroke: black; stroke-width: 30" />
<polyline points="1541,7342 1482,7315 1446,7286 1445,7280 1482,7270 1534,7269 1583,7267 1620,7270 1650,7270 1691,7277 " style="fill: white; stroke: black; stroke-width: 30" />
<polyline points="1774,7422 1795,7412 1815,7407 1849,7406 1875,7425 1897,7458 1902,7484 1889,7510 1848,7546 1779,7599 1745,7628 1774,7633 " style="fill: white; stroke: black; stroke-width: 30" />
<polyline points="1900,7625 1906,7612 1970,7565 2098,7497 2234,7429 2294,7399 2283,7398 2257,7404 2200,7443 2158,7500 2136,7572 2149,7641 2153,7681 2140,7700 2109,7698 " style="fill: white; stroke: black; stroke-width: 30" />
<polyline points="2017,7543 2016,7527 2027,7520 2044,7518 2089,7519 2158,7535 2224,7573 2271,7617 2279,7652 2266,7668 2266,7663 2273,7654 2296,7619 2336,7587 2348,7579 2345,7584 2349,7604 2353,7647 2378,7673 2447,7668 " style="fill: white; stroke: black; stroke-width: 30" />
<polyline points="2623,7433 2565,7453 2524,7513 2485,7589 2460,7645 2448,7675 2449,7671 2470,7636 2497,7590 2512,7568 2516,7568 2525,7576 2545,7596 2595,7616 2656,7621 2709,7616 2708,7617 2697,7625 2691,7638 2678,7671 2677,7688 2683,7692 2688,7688 2690,7680 " style="fill: white; stroke: black; stroke-width: 30" />
<polyline points="2856,7441 2827,7417 2816,7411 2817,7413 2820,7416 2814,7455 " style="fill: white; stroke: black; stroke-width: 30" />
<polyline points="2801,7679 2816,7679 2850,7677 2888,7663 2916,7630 2910,7608 2868,7598 2844,7616 2838,7657 2876,7694 2956,7691 " style="fill: white; stroke: black; stroke-width: 30" />
<polyline points="3131,7483 3099,7462 3069,7465 3033,7511 3016,7586 3017,7661 3033,7715 3039,7753 3035,7763 3032,7767 3054,7755 3071,7738 3083,7722 3081,7720 3082,7719 3081,7720 3086,7717 3092,7708 3139,7659 3180,7645 3198,7654 3191,7683 3143,7731 3109,7756 3085,7756 3082,7743 3088,7703 3101,7679 " style="fill: white; stroke: black; stroke-width: 30" />
<polyline points="2145,7879 2144,7873 2147,7874 2140,7896 2121,7972 2080,8086 2035,8188 2016,8250 2022,8290 2028,8321 2031,8333 2023,8338 2026,8336 2028,8335 2029,8334 2026,8336 2026,8334 2010,8333 1988,8328 1951,8322 1918,8321 1910,8321 1919,8321 1925,8322 1929,8320 1927,8323 1934,8321 1923,8318 " style="fill: white; stroke: black; stroke-width: 30" />
<polyline points="1922,8223 1891,8213 1877,8209 1840,8225 1793,8256 1791,8270 1809,8278 1841,8293 1864,8315 1900,8338 1934,8369 " style="fill: white; stroke: black; stroke-width: 30" />
<polyline points="-372,8061 -398,8060 -421,8088 -461,8185 -485,8301 -479,8359 -452,8364 -429,8316 -428,8234 -456,8144 -475,8073 -478,8035 -466,8014 -422,8018 -359,8064 -333,8130 -342,8168 -385,8194 -437,8200 -448,8200 -435,8211 -406,8263 -399,8318 -411,8346 -418,8346 -449,8331 -478,8284 -485,8238 -456,8203 " style="fill: white; stroke: black; stroke-width: 30" />
<polyline points="-219,8118 -206,8126 -188,8157 -169,8206 -163,8254 -188,8290 -239,8311 -294,8306 -323,8282 -315,8266 -303,8245 -270,8244 -209,8253 -116,8259 -22,8228 59,8175 91,8116 70,8089 36,8093 -2,8132 -44,8224 -57,8287 -41,8321 -3,8327 89,8267 202,8190 265,8144 252,8150 225,8166 201,8193 170,8235 148,8283 134,8333 150,8358 198,8360 270,8333 338,8307 358,8304 353,8305 327,8308 309,8312 289,8331 273,8365 286,8380 321,8378 374,8350 427,8311 449,8279 458,8267 454,8267 456,8268 492,8269 552,8280 621,8292 665,8294 687,8280 678,8274 653,8280 637,8296 606,8334 591,8374 594,8397 621,8384 " style="fill: white; stroke: black; stroke-width: 30" />
<polyline points="736,8196 746,8146 715,8133 705,8136 677,8183 " style="fill: white; stroke: black; stroke-width: 30" />
<polyline points="703,8385 715,8358 740,8327 779,8321 798,8331 808,8369 800,8406 " style="fill: white; stroke: black; stroke-width: 30" />
<polyline points="954,8270 953,8266 959,8266 979,8285 1007,8318 1008,8361 978,8404 924,8441 867,8444 860,8424 880,8379 923,8346 962,8348 991,8377 1021,8406 1044,8425 1076,8429 " style="fill: white; stroke: black; stroke-width: 30" />
<polyline points="-85,8929 -91,8892 -84,8863 -60,8840 -32,8847 15,8898 22,8953 10,8977 -24,8961 -51,8918 -67,8884 -67,8868 -64,8868 -59,8869 " style="fill: white; stroke: black; stroke-width: 30" />
<polyline points="337,8900 301,8865 297,8847 300,8847 332,8855 364,8895 369,8930 351,8946 319,8945 293,8924 285,8900 298,8878 335,8847 " style="fill: white; stroke: black; stroke-width: 30" />
<polyline points="353,8991 341,8991 341,9003 349,9026 360,9056 357,9093 " style="fill: white; stroke: black; stroke-width: 30" />
<polyline points="263,9021 285,9014 328,9006 369,9010 404,9023 " style="fill: white; stroke: black; stroke-width: 30" />
<polyline points="-68,8948 -82,8960 -80,8991 -84,9018 -79,9059 " style="fill: white; stroke: black; stroke-width: 30" />
<polyline points="-145,9004 -113,9002 -72,9008 0,9027 " style="fill: white; stroke: black; stroke-width: 30" />
<polyline points="62,8904 72,8895 72,8889 99,8884 182,8882 302,8892 " style="fill: white; stroke: black; stroke-width: 30" />
<polyline points="486,8957 498,8979 510,9011 568,9063 663,9137 760,9215 " style="fill: white; stroke: black; stroke-width: 30" />
<polyline points="869,9286 896,9247 872,9219 821,9212 766,9226 736,9270 744,9303 774,9340 819,9348 848,9330 859,9298 852,9281 " style="fill: white; stroke: black; stroke-width: 30" />
<polyline points="861,9294 876,9271 882,9240 921,9195 972,9161 1035,9159 " style="fill: white; stroke: black; stroke-width: 30" />
<polyline points="913,9130 929,9137 972,9141 1032,9131 1091,9118 1106,9116 1085,9133 1050,9181 1014,9227 1005,9257 1005,9270 " style="fill: white; stroke: black; stroke-width: 30" />
<polyline points="-149,8947 -148,8943 -160,8962 -218,9062 -316,9195 -384,9289 " style="fill: white; stroke: black; stroke-width: 30" />
<polyline points="-459,9351 -433,9347 -412,9364 -401,9400 -403,9444 -420,9478 -459,9499 -511,9495 -542,9466 -543,9410 -510,9370 -465,9359 -436,9375 " style="fill: white; stroke: black; stroke-width: 30" />
<polyline points="-384,9367 -380,9365 -349,9355 -292,9335 " style="fill: white; stroke: black; stroke-width: 30" />
<polyline points="-242,9266 -214,9265 -186,9270 -172,9284 -169,9301 -204,9353 -240,9396 -237,9415 " style="fill: white; stroke: black; stroke-width: 30" />
<polyline points="1818,9229 1765,9201 1724,9190 1664,9202 1641,9235 1662,9304 1682,9386 1689,9437 1663,9452 1608,9443 1577,9413 1581,9392 1608,9377 1678,9384 1773,9392 1880,9384 1934,9365 1916,9356 1880,9347 1829,9344 1783,9345 1785,9351 1789,9381 1812,9433 1853,9459 1871,9458 1873,9435 1881,9391 1867,9376 1857,9375 1849,9382 1872,9411 1923,9421 2003,9387 2100,9310 2140,9242 2122,9215 2089,9209 2050,9236 2013,9292 2018,9339 2047,9406 2114,9459 2175,9480 " style="fill: white; stroke: black; stroke-width: 30" />
<polyline points="2312,9316 2294,9322 2277,9340 2259,9370 2234,9405 2243,9416 2248,9428 2283,9433 2342,9417 2373,9394 2375,9371 2366,9357 2357,9361 2359,9375 2386,9399 2431,9423 2450,9421 2441,9391 2419,9366 2403,9360 2417,9368 2437,9409 2462,9444 2510,9456 2562,9442 2619,9403 2663,9376 2681,9361 2681,9347 2678,9343 2671,9341 2669,9342 2662,9344 2664,9350 2654,9387 2659,9427 2672,9450 2686,9452 2693,9442 2705,9419 2707,9396 2686,9374 2656,9343 2633,9332 2625,9337 2633,9369 2656,9409 2703,9427 2765,9412 2818,9367 2821,9321 2797,9301 2802,9297 2798,9305 2801,9329 2795,9384 2785,9425 " style="fill: white; stroke: black; stroke-width: 30" />
<polyline points="-337,10000 -335,10000 -339,10005 -343,10027 -356,10061 -359,10085 -345,10087 -327,10055 " style="fill: white; stroke: black; stroke-width: 30" />
<polyline points="-325,9909 -331,9875 -349,9848 -352,9834 -350,9820 -348,9819 -346,9821 -339,9824 -342,9825 -339,9827 -326,9832 " style="fill: white; stroke: black; stroke-width: 30" />
<polyline points="-123,9822 -138,9819 -155,9847 -173,9953 -197,10027 -194,10046 -177,10038 -133,10021 -102,10023 -84,10054 -92,10083 -76,10098 -17,10074 34,10046 41,10036 41,10042 37,10041 47,10039 32,10036 37,10035 30,10036 34,10045 19,10067 20,10084 15,10089 28,10088 38,10079 74,10050 98,10019 117,10008 107,10010 108,10023 136,10045 194,10061 260,10050 301,10032 295,10010 255,9999 221,10008 205,10038 238,10086 292,10120 352,10129 " style="fill: white; stroke: black; stroke-width: 30" />
<polyline points="903,10077 936,10080 980,10075 1043,10055 1099,10016 1107,9984 1082,9966 1018,9979 969,10024 986,10065 1027,10109 1103,10124 1176,10102 1222,10059 1238,10031 1236,10031 1246,10034 1249,10057 1270,10088 1292,10108 1321,10121 1365,10125 " style="fill: white; stroke: black; stroke-width: 30" />
<polyline points="1610,9850 1548,9912 1460,10016 1422,10098 1413,10127 1410,10122 1414,10097 1418,10070 1445,10049 1481,10040 1506,10038 1534,10040 1590,10037 " style="fill: white; stroke: black; stroke-width: 30" />
<polyline points="1685,10074 1673,10074 1647,10062 1615,10058 1598,10063 1593,10083 1588,10114 1578,10124 1568,10123 1542,10111 1530,10097 1538,10084 " style="fill: white; stroke: black; stroke-width: 30" />
<polyline points="1890,10008 1853,9990 1808,9984 1774,10005 1762,10026 1782,10039 1826,10037 1890,9999 1915,9952 1927,9918 1929,9899 1916,9905 1909,9917 1881,9968 1859,10021 1871,10068 1901,10101 1939,10120 1970,10115 1992,10100 2032,10068 " style="fill: white; stroke: black; stroke-width: 30" />
<polyline points="2102,10055 2136,10044 2134,10033 2128,10015 2122,9995 2113,9982 2113,9974 2102,9975 2096,9976 2082,9998 2055,10055 2069,10101 2083,10140 2108,10156 2144,10161 2197,10152 2263,10122 2290,10107 2289,10100 2279,10102 2267,10112 2234,10141 2231,10167 2240,10178 2287,10156 " style="fill: white; stroke: black; stroke-width: 30" />
<polyline points="2362,10025 2360,9974 2357,9948 2359,9934 2368,9926 2370,9930 2368,9936 2375,9956 " style="fill: white; stroke: black; stroke-width: 30" />
<polyline points="2508,9909 2514,9899 2523,9900 2536,9912 2530,9938 2500,9993 2470,10065 2469,10122 2484,10147 2504,10144 2516,10116 2510,10077 2487,10051 2460,10038 2443,10035 2433,10058 2429,10072 2444,10085 2470,10082 2524,10054 2577,10010 2603,9988 2602,9986 2594,9994 2557,10028 2536,10062 2542,10087 2571,10102 2611,10101 2631,10098 2625,10099 2620,10107 2641,10122 2666,10146 2700,10153 2708,10154 2698,10157 2709,10156 2717,10156 2746,10152 2757,10152 2757,10154 2753,10163 2776,10184 2811,10202 2820,10213 2795,10216 2773,10221 2781,10228 2830,10243 " style="fill: white; stroke: black; stroke-width: 30" />
<polyline points="-313,11343 -321,11343 -306,11335 -283,11286 -211,11164 -131,11026 -105,10937 -103,10907 -107,10908 -109,10917 -116,10922 -111,10931 -112,10942 -83,10992 -21,11067 80,11159 171,11236 234,11290 271,11322 " style="fill: white; stroke: black; stroke-width: 30" />
<polyline points="-478,11344 -467,11338 -436,11328 -360,11336 -246,11357 -133,11389 " style="fill: white; stroke: black; stroke-width: 30" />
<polyline points="126,11320 128,11309 125,11306 164,11311 207,11319 269,11326 329,11332 " style="fill: white; stroke: black; stroke-width: 30" />
<polyline points="-133,10633 -128,10597 -128,10564 -114,10551 -50,10567 16,10647 54,10739 40,10771 -6,10774 -73,10746 -107,10694 -119,10665 -94,10632 " style="fill: white; stroke: black; stroke-width: 30" />
<polyline points="877,11033 875,11033 861,11070 839,11149 809,11235 790,11296 791,11310 795,11307 803,11295 843,11255 878,11204 924,11177 969,11177 993,11202 988,11244 961,11280 930,11301 883,11300 855,11279 829,11247 819,11222 825,11217 823,11216 825,11216 829,11216 821,11218 836,11217 849,11223 " style="fill: white; stroke: black; stroke-width: 30" />
<polyline points="996,11291 1023,11281 1091,11269 1174,11257 1222,11241 1216,11225 1176,11191 1108,11178 1060,11192 1052,11237 1082,11291 1156,11318 1247,11310 1313,11286 1331,11269 1325,11272 1317,11282 1298,11319 1298,11358 1286,11394 " style="fill: white; stroke: black; stroke-width: 30" />
<polyline points="1481,11049 1426,11010 1436,11001 1426,11004 1436,11003 1452,11010 1503,11027 " style="fill: white; stroke: black; stroke-width: 30" />
<polyline points="1654,11030 1635,11031 1584,11086 1497,11207 1450,11315 1422,11370 1438,11360 1463,11318 1501,11256 1513,11242 1524,11244 1519,11261 1532,11292 1534,11322 1548,11345 1592,11347 1624,11324 1662,11282 1686,11249 1703,11230 1710,11231 1723,11244 " style="fill: white; stroke: black; stroke-width: 30" />
<polyline points="1813,11216 1814,11196 1828,11200 1837,11230 1840,11276 1809,11330 1759,11365 1729,11374 1731,11357 1749,11315 1783,11281 1788,11282 1783,11290 1793,11328 1816,11365 1855,11399 " style="fill: white; stroke: black; stroke-width: 30" />
<polyline points="2039,11284 2021,11261 2002,11252 1971,11254 1945,11269 1949,11291 1954,11321 1984,11343 2002,11353 1992,11385 1960,11465 1914,11553 1880,11600 1881,11602 1877,11562 1925,11455 2043,11307 2152,11255 2200,11262 2215,11270 2196,11262 2164,11247 2149,11242 2144,11248 2130,11268 2106,11308 2098,11338 2105,11353 2166,11352 2256,11338 2279,11341 2273,11346 2269,11358 2267,11384 2283,11396 2288,11400 2287,11404 2291,11427 " style="fill: white; stroke: black; stroke-width: 30" />
<polyline points="2788,11018 2788,10999 2768,11001 2757,11022 2681,11114 2626,11218 2608,11329 " style="fill: white; stroke: black; stroke-width: 30" />
<polyline points="2477,11471 2475,11449 2497,11443 2526,11462 2528,11490 2497,11508 2450,11496 2435,11469 2465,11447 2539,11424 " style="fill: white; stroke: black; stroke-width: 30" />
<polyline points="-5388,15017 " style="fill: white; stroke: black; stroke-width: 30" />

</svg>